<?xml version="1.0" encoding="utf-8"?>
<svg version="1.1"
	 id="svg2" xmlns:cc="http://creativecommons.org/ns#" xmlns:dc="http://purl.org/dc/elements/1.1/" xmlns:rdf="http://www.w3.org/1999/02/22-rdf-syntax-ns#" xmlns:svg="http://www.w3.org/2000/svg"
	 xmlns="http://www.w3.org/2000/svg" xmlns:xlink="http://www.w3.org/1999/xlink" x="0px" y="0px" viewBox="0 0 2205.5 4000"
	 style="enable-background:new 0 0 2205.5 4000;" xml:space="preserve">
<style type="text/css">
	.st0{fill:none;}
	.st1{fill:#74ACDF;}
	.st2{fill:#FFFFFF;}
	.st3{fill:#F6B40E;stroke:#85340A;stroke-width:4.552;}
	.st4{fill:#85340A;}
	.st5{fill:#F6B40E;}
	.st6{fill:none;stroke:#85340A;stroke-width:6.142;}
	.st7{fill:#843511;}
	.st8{fill:#74ACDF;stroke:#000000;stroke-width:2;stroke-miterlimit:10;}
</style>
<g>
	<g>
		<path class="st0" d="M982,3699.2c3.5-1.4,6.7-2.4,9.8-3C987.8,3696.5,984.3,3697.3,982,3699.2z"/>
		<path class="st0" d="M1146.4,3423.2c-3.3,0.1-6.9,0-10.8-0.5C1139.5,3424.2,1143,3424.1,1146.4,3423.2z"/>
		<polygon class="st0" points="70.1,372.1 70.1,372.1 1616.3,1918.3 		"/>
		<path class="st1" d="M133,2008c8,16.5,25.2,58.1,22.5,75.3c-4.1,25.6,36.1,57.3,43.1,83.2c5.6,20.5,45.4,47.2,27,63.9
			c-16.9,15.3-44.7,20.7-35.2,48.4c6.2,18.1-0.7,56.1,12.7,69.2c-21.1,0.7-25.4,9.5-10.3,27c7.5,8.7,24.4,46.6-1.8,37.8
			c3.1,16.7,31.3,21.6,21.3,41.3c-6.2,12.3-7.2,30.6-4.6,44.4c6.5,34,45,68.8,41.1,106.3c-2.3,21.7,23.5,43.8,35.3,59.7
			c13.9,18.7-5.3,12.4-16.3,20.2c-17.7,12.5,0.9,23.1,5.5,35.5c6,16.4,6.6,37,12.2,54.3c7.3,22.7,16.3,31.4,39.8,35.5
			c12.3,2.1,29.2,11.9,15.8,23.9c-25.2,22.6,44.4,35,30.4,50.9c-11.2,12.7,8.8,19.3,16.8,30.7c6.3,9-8.3,17.4-5.8,26.9
			c3.4,5.9,6.9,11.7,10.5,17.5c14.3,35.4,72.7-1.5,85.5,34.7c-1.7-4.8-5.7,26.3-2.5,23.4c-8.9,9.1-91.3,3.3-78.4,17.4
			c15.4,16.9,39.3,4.2,56.3,16.3c11.9,8.5,23.6,17.9,34.1,28.1c12,11.6,9.8,11.9,3.5,25.3c-7.4,15.9-10.8,9.3-21.4,19.1
			c-12.5,11.5,6.5,38.4,18.2,41.8c16.4,4.7,7.4,33.1-7.5,33.8c17,12.4,58.1,50.1,46.2,74.3c-2.9,5.9-9.4,8.9-11.9,14.9
			c-3.6,8.5,4.8,15,4.4,23.1c-0.6,12.7,14.1,13.8,19.5,25.9c-26.5-4.1-30.1,49.6-30.2,64.7c-0.1,22,2.5,30.3,20.8,43.2
			c9,6.4,27.5,22.3,25.8,34.9c-1.5,11.4-29.2,12.4-18.7,26.4c9.1,12.1,21.8,34.5,10,48.2c-6,7-17.4,2.4-23.2,8.8
			c-6.5,7.2-1.7,13.9-4.3,22c-4.5,14.2-5.9,24.9-24.2,21.9c1.7,11.3-1.7,22.9,2.3,34c3.6,9.8,15,13.3,18.6,23
			c2.5,6.9-0.3,15.1,3.2,21.5c4.3,8.1,9.4,8.4,11,18.1c2.9,18.4,39.1,30.7,48.1,48.8c4.5,9.1,25,47.4,39.4,39.1
			c6.8-3.9,11-13.5,19-15.5c10.8-2.7,20.1,4.2,30.9-0.7c13.7-6.3,31,17.8,36.6,27.1c9,15-4,31.1,12.8,43.3
			c12.7,9.2,21.9,33.2,11.9,47.9c31.8,4,52.3,38.2,76.8,53.5c15.7,9.8,54,2.4,72.2,2.4h64.9c48.8,0,99.5,5.9,146.5,19.6
			c18.7,5.4,36.5,16.1,56.1,18.1c10.9,1.2,25.7,0.7,32.2,11.7c-12.3-30.8-40.8-46.2-67.4-67.3c-13.7-10.9-27.6-35.1-45.6-24.5
			c-5.6,3.3-36.3-9-49.4-4.7c12.5-10.3,63,4,50.5-20.4c-8.1-15.9-40.3-76.5-62.6-48.8c17.2-30.6-4-50.1,5.9-80.3
			c7.3-22.4,39.2-21.3,42.4-41.5c-18.2-3.9-30-14.6-45.4-16.8c4.5-0.4,8.4-1.3,10.2-4.1c6.9-10.6-14-26.6-21.9-29.6
			c30.9,5.6,42.4,60.2,78.3,48.8c48.8-15.6,12.9-72.2,11.8-104.9c-1.7,8.9-8.7,13.8-17.7,12.2c10.4-8.4,9.2-19.6,8.7-31.4
			c-0.7-14.8,6.5-21.9,13.8-33.9c10.9-17.8,22.2-31.9,36.9-46.4c11.2-11.1,47.6-57.9,65.7-54.2c-4.9-8.5-1.8-14.1,7.8-15.2
			c-9.4-10.5-15.8-21.3-30.9-21c25.3-19,14.6-70.5-16.4-88.9c-28.8-17.1-65.5,0.9-95.9-12.4c-23.8-10.5-42.2-29.5-63.5-43.9
			c-43.3-29.3-81.1-52.1-70.1-109.7c6.5-34.4,19-90.9,66.1-81c-23.4-39.6,85.7-17.5,88.9-33c2.9-14.2-24.5-17.1-22.5-35.1
			c1.2-10.8,13-14.5,21.6-16.7c6-1.6,4-16.6,4.7-20.7c-0.3-8.8-3.8-16.2-10.3-22.2c-1.6-6.5-1.4-12.9,0.4-19.3
			c-0.9-9.5-8.5-18.4-13.8-25.7c-4.9-6.6-8.1-11.9-9.8-16.8L125,1968C125,1982.8,128.4,1998.5,133,2008z M1146.4,3423.2
			c-3.4,0.9-6.9,1-10.8-0.5C1139.4,3423.1,1143,3423.3,1146.4,3423.2z M991.7,3696.2c-3.1,0.6-6.3,1.6-9.8,3
			C984.3,3697.3,987.8,3696.5,991.7,3696.2z"/>
		<path class="st1" d="M1701.4,2003.5c2.8-11.4,3.2-22.8-1-33.7c-3.5-8.9-10.8-58.6-27.3-51.7c-41.9,17.5-88.4-53.4-73-88.5
			c21.4-48.8-33.9-79.7-73.4-98c-24.2-11.2-46.7-22.1-69.3-36.3c-20.8-13-22.7-31.3-40.1-45.4c38.3,2-9.3-66.5-15.2-79.1
			c-10.5-22.6,2.8-45.4,0.7-67.8c-1.6-17.2,38.2-6.4,20.5-35.9c-10.1-17-24-42-17.4-62.3c7.2-22.5-6.1-30.9-9.9-53.1
			c-4.5-25.9,9.2-30.4,11.3-54.2c1.7-18.8-17.9-6.4-8.2-25.9c4.8-9.6,6.9-21.4,5.8-32.2c-1-10.7-7.9-20.9-7.3-31.8
			c0.5-9.2,10-6.9,8.8-18.6c-2.4-23.5-29-30.6-4.2-52.7c8.7-7.8,13-15.8,8.5-27.5c8.1-1.4,14.7-5.5,19-12.5
			c8.1-13.2,6.9-35.7,23.5-42.3c36.9-14.8,42-72.4,61.8-100.6c11.3-16.2,51.1-99.2,71.3-78.3c4.5-8.9,0.5-16.7-8.7-19.8
			c8.9-10.8,21.6-18.1,31.5-27.9c6.8-6.7,8.2-17.7,16.1-22.8c13.6-8.8,35.8-10.6,37.6-30.7c1.2-13.2,33.8-24.6,43.7-28.6
			c19.8-8.1,31.5-21.8,49.7-32.1c4.9-3.2,10.1-3.8,15.5-1.7c1.4-8.7,2.8-17.4,4.3-26.1c2.6-17.3-1.7-32.7-2.2-49.8
			c-0.9-32.8-4-50.1-15.2-80.6c-7.9-21.6-12.8-46.6-36.9-55.1c-13.9-4.9-40.2-6.9-43.3,13c-13.6-8.6-29.3-17.2-22.8,7.8
			c6.4,24.5,6.8,51.6,3.2,76.6c-1.8,12.5,1.1,48-14,45.5c-2.4-0.4-22.8,29.1-22.2,32.1c1.7,9.5-32.8,7.8-38.8,24.1
			c-5.2,14.2-1.9,39.9-23.1,42.7c-13.4,1.8-21.4-15.9-36.9-13.7c-20.2,2.8-21.3,23.5-28.5,38.4c-10.3-3.9-23.7-24.5-36.2-15.5
			c-13.1,9.3-19.1-10.1-31.7-6c-40.4,13.1-79-11.1-120.3-19.1c-23.3-4.5-47.2-4.4-69.6,4.3c-8.3-18.5-2.9-13,1.1-28.5
			c7.9-31.1,35.1-42.4,28.7-79c-7-40,23.4-48.9,29.2-82.9c3.9-22.8,32.7-43.6,17.5-63.3c-7.7-10-16.4-19-24.2-28.8
			c-11-14-30.6-15.3-45.3-24.1c-15.3-9.1-21.7-1-36.6-14.9c-10.3-9.5-25.5-10.8-38.3-14.9c-43.5-14-74.2-52.2-113.6-72.5
			c-15.2-7.8-28.3-24.5-46.6-24.5c-24.2,0-38.5-5.7-60.3-14.4c-16.2-6.4-35.5-5.7-49.5-17.3c-15.1-12.5-23-29.2-39.4-41
			c-28.7-20.6-65.6-40.4-87.7-68.5c-9.5-12.1-18.2-26.1-24.9-40c-8.5-17.7-18-19.6-31.6-33.2c-11.8-11.8-44.1-31-48.6-47.1
			c-3.3-11.9-26.6-6.2-37.1-6.2c-17.8,0-37.8-3.4-55.3,0.9c-9.5,2.3-24.6,0.7-32.7,3.9c-10.6,4.2-17.8,41.2-22.2,51.5
			c-8.2,19.2-7.7,38.5-9.8,58.9c-32.3-45.1-29.7-93.3-93.1-103c-26.6-4.1-56.6,10.3-82.1-1C312.9,30.2,300.3,5,275.5,0
			c-3.6,36.9-5.3,40.1-36.1,55.5c-18.2,9.1-10.1,30.8-29.5,38.9c-7.1,3-24.3,30.8-26.3,39.5c-1.8,7.8,17.5,19.2,20.7,26.6
			c4.6,10.8-2.8,28.5-4.6,39.3c-4.4,27.3-2.5,61.8-13.6,87.5c-11,25.5-48.3,34.7-71.4,45c-19.8,8.8-34.8,22-44.6,39.9l1546.2,1546.2
			L1701.4,2003.5z"/>
		<path class="st2" d="M1053.3,2856.2c9.4-21.6,8.4-32.7,32.7-42.7c12.3-5.1,28.6-10.1,31-25.4c-28.1,7.1-108.2-19.4-59.6-51.9
			c18.3-12.3,38.9-6.3,53.8,8.7c9.1,9.1,6.2,30.1,24.6,32.3c11.1,1.4,36.7-1.8,43.7-12.1c10.1-14.8-8.2-36-11-50.5
			c-3-15.6-21.5-40.6-39.5-39.5c-17.4,1.1-27.4,20.4-46.2,17.5c8.8,4.8,34.8,5.3,37.9,17.3c3.8,14.6-52.5,8.3-58.6,6.8
			c11.3-24.8-28.8-27.9-43.4-33.5c-28.6-10.9-29.2-42.8-34.1-68.6c-6-31.8-45.3-55.2-44.1-87.4c0.4-11.2,6.6-24.4,17-29.8
			c7.8-4.1,33.5,4.8,9,9.6c59.1,8.9,108.4,49.6,168.5,44.2c45.3-4.1,100.1-12.3,109.1-66.1c-14.7,7.9-9.3-7.4-19.8-16.9
			c-6.9-6.2-15.3-11.3-21.3-18.5c-8.2-9.9,3.1-19.5,3.5-30.6c0.5-13.7-3.3-27.2-6.3-40.4c20.2,10.8,18.2-10.9,15.9-24
			c-3.2-18.2-10.2-25.7-24.7-36.4c31.6,12.3-18.4-24.7-20.5-29c-3.9-7.7,3.6-21.2-3.2-27.4c-6.1-5.1-11.1-11.2-14.7-18.3
			c26.3,3.4,44.9,20.9,72.3,23.4c24.1,2.2,44.6,2.7,69.1,1.6c63.5-2.9,123.4-21,185.3-33.5c51.3-10.4,100.7-26.1,143.7-56.8
			c23.8-17,21.3-24.6,22.1-50.4c0.8-24.3,26.5-55.5,36.5-77.5c6.4-14.2,15.3-30.4,19.4-46.9l-85.1-85.1L70.1,372.1
			c-3.2,5.7-5.8,12-7.9,18.7c-3.6,11.7,21.1,39.7,25.7,51.6c-46.1,1.6,7.8,98,14.6,116.8c9.6,26.4-21,43.3-3.7,70.5
			c15.2,23.9,62,51.5,16.6,72.4c-10.7,4.9-23.5-3.4-30.3,7c-6.9,10.4-9.7,23.9-12.3,35.9c-5.3,24.5-5.2,48.6-15.2,72.1
			c-15.5,36.1-39.1,53.7-40.9,96.3c-0.6,15,7.5,35.6,4.1,49.6c-2.5,10.2-15.1,12.9-17.2,23.9c-11.8,19.2,22.8,72.1,30.2,92.1
			c5,13.7,19,77.8-18.1,53c15.2,17.2-6.3,56-2,77.2c5.9,28.9-14.8,18.8-13.6,46c1,22.1,8.5,59,30.9,70.4
			c9.4,4.8,36.6,38.4,12.1,27.1c7.4,25.9,33.3,41.9,41.3,67.6c3.6,11.7-0.1,19.6,11.3,27.9c8.8,6.4,18.2,11.2,16.2,24.1
			c-2.5,16.6-5.9,23.7,6,38.6c16.3,20.3,9.1,1,21,4.8c20.9,6.8,11.4,68,18.8,85.7c1.6,3.8,28.5,51.5,9.5,48.1
			c-19.6-3.5-22.8,56.8-21.5,69.8c1.3,13.2,3.9,26.7,2.5,40.1c-1.5,13.6-16.4,8.3-16.3,20.3c0,1.5,13.4,10.3,15,13.6
			c6.6,13.3,13.7,26.4,19.6,40c6.9,16.2,13.3,35.2,11.8,53.1c-0.6,7.5-12.6,10.6-17.2,15.7c-5.7,6.4-4.9,17.3-8.3,24.9
			c-4.5,10-11.3,1.2-18.8,9.4c-6.4,7.1-9,19.1-9,31.8l922.7,922.7C1043.8,2880.1,1046.6,2871.6,1053.3,2856.2z"/>
	</g>
	<path class="st0" d="M476.3,3017.6L476.3,3017.6 M1135.6,3422.6c3.9,0.5,7.5,0.7,10.9,0.5c-1.6,0.4-3.2,0.7-4.8,0.7
		C1139.7,3423.8,1137.7,3423.5,1135.6,3422.6 M991.7,3696.2c-3,0.6-6.3,1.6-9.7,3C984.3,3697.3,987.8,3696.5,991.7,3696.2"/>
	<g>
		<g id="g32" transform="translate(332.9423,843.2059)">
			<path id="path34" class="st3" d="M457.3,1123.6c-1.8,48.3,27.9,74.8,24,117.9c-3.9,43.1,19.8,67.5,25.3,84.2
				c5.5,16.8-5.9,26.8-1,29.2c4.9,2.4,15.7-10.9,12.2-34.7c-3.5-23.8-21.6-30.9-17.3-83.5c4.2-52.6-21.5-64.9-15.3-112.9
				 M428.4,1013.5l145.7,317.3c0,0,2.5,6.1,6.6,4.4c4-1.7,1.5-7.7,1.5-7.7l-121.4-327.4"/>
		</g>
		<g id="g36" transform="translate(314.6806,844.8201)">
			<path id="path38" class="st3" d="M429.9,1117.9c-20.1,43.9-2.8,79.8-22.9,118.1c-20.1,38.3-7.5,69.9-8.9,87.5
				c-1.3,17.6-15.7,22.5-12.1,26.6c3.6,4.1,18.7-4,24.5-27.4c5.9-23.4-8.1-36.8,15.9-83.8c24.1-47,4.9-68.2,29.1-110.2
				 M445.3,1005.2l13.1,348.9c0,0,0,6.6,4.4,6.6c4.4,0,4.4-6.6,4.4-6.6l13.1-348.9"/>
		</g>
		<g id="g40" transform="translate(298.4267,853.2997)">
			<path id="path42" class="st3" d="M405.5,1088.2c-35.4,32.9-33.2,72.6-66.4,100.4c-33.2,27.7-33.7,61.7-41.7,77.4
				c-8,15.7-23.1,14.7-21.3,19.9c1.8,5.2,18.8,3.4,33.2-15.9c14.4-19.3,6.6-37.1,46.8-71.3c40.2-34.2,30.7-61.1,69.1-90.6
				 M462.9,990l-121.4,327.4c0,0-2.5,6.1,1.5,7.7c4,1.7,6.6-4.4,6.6-4.4l145.7-317.3"/>
		</g>
		<g id="g44" transform="translate(286.6552,867.3541)">
			<path id="path46" class="st3" d="M387.8,1039.1c-45.3,16.8-58.4,54.4-99.7,67.3c-41.3,12.9-54.8,44.1-68.1,55.6
				c-13.4,11.5-27,4.8-27.3,10.2c-0.3,5.5,16,10.4,36.7-2c20.7-12.4,20.3-31.8,70.5-48c50.3-16.2,51.7-44.7,98.5-57.3 M478.5,970.3
				l-237.4,256c0,0-4.6,4.6-1.6,7.7c3.1,3.1,7.7-1.5,7.7-1.5l256-237.4"/>
		</g>
		<g id="g48" transform="translate(324.6336,888.3873)">
			<path id="path50" class="st4" d="M444.8,965.4l99.8,217.9L461,958.7 M475,1086.6c2.3,46.3,28.6,66.9,23.4,109.1
				c11.3-33.4-16-59.3-14.4-108.6"/>
		</g>
		<g id="g52" transform="translate(324.2946,889.7418)">
			<path id="path54" class="st4" d="M444.3,960.7l8.8,239.5l8.7-239.5 M425.8,1084.1c-15.6,43.7,0.8,72.7-20.1,109.8
				c23.3-26.5,7.9-60.9,28.2-105.9"/>
		</g>
		<g id="g56" transform="translate(324.4996,891.1229)">
			<path id="path58" class="st4" d="M444.6,955.9L361,1180.5l99.8-218 M380.3,1062.8c-31.1,34.4-27.1,67.5-60.6,93.7
				c31.6-15.6,30.6-53.2,66.6-87"/>
		</g>
		<g id="g60" transform="translate(325.2177,892.3204)">
			<path id="path62" class="st4" d="M445.7,951.7l-163.2,175.6L458.1,964 M345.3,1025.9c-41.9,19.9-50.8,52-91.8,63.4
				c35.2-2.3,48.7-37.5,94.8-54.9"/>
		</g>
		<g id="g64" transform="translate(281.1579,884.8433)">
			<path id="path66" class="st3" d="M379.6,977.8c-48.3-1.8-74.8,27.9-117.9,24c-43.1-3.9-67.5,19.8-84.2,25.3
				c-16.8,5.5-26.8-5.9-29.2-1c-2.4,4.9,10.9,15.7,34.7,12.2c23.8-3.5,30.9-21.6,83.5-17.3c52.6,4.2,64.9-21.5,112.9-15.3
				 M489.7,949l-317.3,145.7c0,0-6.1,2.5-4.4,6.6c1.7,4,7.7,1.5,7.7,1.5l327.4-121.4"/>
		</g>
		<g id="g68" transform="translate(282.7721,903.105)">
			<path id="path70" class="st3" d="M382,913.9c-43.9-20.1-79.8-2.8-118.1-22.9c-38.3-20.1-69.9-7.5-87.5-8.9
				c-17.6-1.3-22.5-15.7-26.6-12.1c-4.1,3.6,4,18.7,27.4,24.5c23.4,5.9,36.8-8.1,83.8,15.9c47,24.1,68.2,4.9,110.2,29.1
				 M494.8,929.4l-348.9,13.1c0,0-6.6,0-6.6,4.4c0,4.4,6.6,4.4,6.6,4.4l348.9,13.1"/>
		</g>
		<g id="g72" transform="translate(291.2517,919.3589)">
			<path id="path74" class="st3" d="M394.7,857c-32.9-35.4-72.6-33.2-100.4-66.4c-27.7-33.2-61.7-33.7-77.4-41.7
				c-15.7-8-14.7-23.1-19.9-21.3c-5.2,1.8-3.4,18.8,15.9,33.2c19.3,14.4,37.1,6.6,71.3,46.8c34.2,40.2,61.1,30.7,90.6,69.1
				 M493,914.5L165.6,793.1c0,0-6.1-2.5-7.7,1.5c-1.7,4,4.4,6.6,4.4,6.6l317.3,145.7"/>
		</g>
		<g id="g76" transform="translate(305.3061,931.1305)">
			<path id="path78" class="st3" d="M415.8,815.8c-16.8-45.3-54.4-58.4-67.3-99.7c-12.9-41.3-44.1-54.8-55.6-68.1
				c-11.5-13.4-4.8-27-10.2-27.3c-5.5-0.3-10.4,16,2,36.7c12.4,20.7,31.8,20.3,48,70.5c16.2,50.3,44.7,51.7,57.3,98.5 M484.6,906.5
				L228.6,669c0,0-4.6-4.6-7.7-1.6c-3.1,3.1,1.5,7.7,1.5,7.7l237.4,256"/>
		</g>
		<g id="g80" transform="translate(326.3393,893.152)">
			<path id="path82" class="st4" d="M447.4,948.8l-217.9,99.8l224.7-83.6 M326.2,978.9c-46.3,2.3-66.9,28.6-109.1,23.4
				c33.4,11.3,59.3-16,108.6-14.4"/>
		</g>
		<g id="g84" transform="translate(327.6938,893.491)">
			<path id="path86" class="st4" d="M449.4,947.6l-239.5,8.8l239.5,8.7 M326,929.1c-43.7-15.6-72.7,0.8-109.8-20.1
				c26.5,23.3,60.9,7.9,105.9,28.2"/>
		</g>
		<g id="g88" transform="translate(329.0749,893.286)">
			<path id="path90" class="st4" d="M451.5,948.3l-224.6-83.6l218,99.8 M344.5,884c-34.4-31.1-67.5-27.1-93.7-60.6
				c15.6,31.6,53.2,30.6,87,66.6"/>
		</g>
		<g id="g92" transform="translate(330.2724,892.5679)">
			<path id="path94" class="st4" d="M453.3,950.8L277.7,787.6l163.2,175.6 M379.1,850.4c-19.9-41.9-52-50.8-63.4-91.8
				c2.3,35.2,37.5,48.7,54.9,94.8"/>
		</g>
		<g id="g96" transform="translate(322.7953,936.6277)">
			<path id="path98" class="st3" d="M442.1,796.6c1.8-48.3-27.9-74.8-24-117.9c3.9-43.1-19.8-67.5-25.3-84.2
				c-5.5-16.8,5.9-26.8,1-29.2c-4.9-2.4-15.7,10.9-12.2,34.7c3.5,23.8,21.6,30.9,17.4,83.5c-4.2,52.6,21.5,64.9,15.3,112.9
				 M470.9,906.7L325.3,589.3c0,0-2.5-6.1-6.6-4.4c-4,1.7-1.5,7.7-1.5,7.7l121.4,327.4"/>
		</g>
		<g id="g100" transform="translate(341.057,935.0135)">
			<path id="path102" class="st3" d="M469.4,802.2c20.1-43.9,2.8-79.8,22.9-118.1c20.1-38.3,7.5-69.9,8.9-87.5
				c1.3-17.6,15.7-22.5,12.1-26.6c-3.6-4.1-18.7,4-24.5,27.4c-5.9,23.4,8.1,36.8-15.9,83.8c-24.1,47-4.9,68.2-29.1,110.2 M454,915
				l-13.1-348.9c0,0,0-6.6-4.4-6.6c-4.4,0-4.4,6.6-4.4,6.6L419,915"/>
		</g>
		<g id="g104" transform="translate(357.311,926.5339)">
			<path id="path106" class="st3" d="M493.8,831.9c35.4-32.9,33.2-72.6,66.4-100.4c33.2-27.7,33.7-61.7,41.7-77.4
				c8-15.7,23.1-14.7,21.3-19.9c-1.8-5.2-18.8-3.4-33.2,15.9s-6.6,37.1-46.8,71.3c-40.2,34.2-30.7,61.1-69.1,90.6 M436.4,930.2
				l121.4-327.4c0,0,2.5-6.1-1.5-7.7c-4-1.7-6.6,4.4-6.6,4.4L404.1,916.8"/>
		</g>
		<g id="g108" transform="translate(369.0825,912.4796)">
			<path id="path110" class="st3" d="M511.5,881.1c45.3-16.8,58.4-54.4,99.7-67.3c41.3-12.9,54.8-44.1,68.1-55.6
				c13.4-11.5,27-4.8,27.3-10.2c0.3-5.5-16-10.4-36.7,2c-20.7,12.4-20.3,31.8-70.5,48c-50.3,16.2-51.7,44.7-98.5,57.3 M420.8,949.9
				l237.4-256c0,0,4.6-4.6,1.6-7.7c-3.1-3.1-7.7,1.5-7.7,1.5l-256,237.4"/>
		</g>
		<g id="g112" transform="translate(331.104,891.4463)">
			<path id="path114" class="st4" d="M454.5,954.7l-99.8-217.9l83.6,224.7 M424.4,833.6c-2.3-46.3-28.6-66.9-23.4-109.1
				c-11.3,33.4,16,59.3,14.4,108.6"/>
		</g>
		<g id="g116" transform="translate(331.443,890.0919)">
			<path id="path118" class="st4" d="M455,959.5l-8.8-239.5l-8.7,239.5 M473.5,836c15.6-43.7-0.8-72.7,20.1-109.8
				c-23.3,26.5-7.9,60.9-28.2,105.9"/>
		</g>
		<g id="g120" transform="translate(331.238,888.7108)">
			<path id="path122" class="st4" d="M454.7,964.3l83.6-224.6l-99.8,218 M519,857.3c31.1-34.4,27.1-67.5,60.6-93.7
				c-31.6,15.6-30.6,53.2-66.6,87"/>
		</g>
		<g id="g124" transform="translate(330.5199,887.5132)">
			<path id="path126" class="st4" d="M453.6,968.5l163.2-175.6L441.3,956.1 M554,894.3c41.9-19.9,50.8-52,91.8-63.4
				c-35.2,2.3-48.7,37.5-94.8,54.9"/>
		</g>
		<g id="g128" transform="translate(374.5797,894.9902)">
			<path id="path130" class="st3" d="M519.7,942.3c48.3,1.8,74.8-27.9,117.9-24c43.1,3.9,67.5-19.8,84.2-25.3
				c16.8-5.5,26.8,5.9,29.2,1c2.4-4.9-10.9-15.7-34.7-12.2c-23.8,3.5-30.9,21.6-83.5,17.4c-52.6-4.2-64.9,21.5-112.9,15.3
				 M409.7,971.2L727,825.5c0,0,6.1-2.5,4.4-6.6c-1.7-4-7.7-1.5-7.7-1.5L396.3,938.8"/>
		</g>
		<g id="g132" transform="translate(372.9656,876.7286)">
			<path id="path134" class="st3" d="M517.3,1006.2c43.9,20.1,79.8,2.8,118.1,22.9c38.3,20.1,69.9,7.5,87.5,8.9
				c17.6,1.3,22.5,15.7,26.6,12.1c4.1-3.6-4-18.7-27.4-24.5c-23.4-5.9-36.8,8.1-83.8-15.9c-47-24.1-68.2-4.9-110.2-29.1
				 M404.6,990.8l348.9-13.1c0,0,6.6,0,6.6-4.4c0-4.4-6.6-4.4-6.6-4.4l-348.9-13.1"/>
		</g>
		<g id="g136" transform="translate(364.4859,860.4747)">
			<path id="path138" class="st3" d="M504.6,1063.1c32.9,35.4,72.6,33.2,100.4,66.4c27.7,33.2,61.7,33.7,77.4,41.7
				c15.7,8,14.7,23.1,19.9,21.3c5.2-1.8,3.4-18.8-15.9-33.2c-19.3-14.4-37.1-6.6-71.3-46.8c-34.2-40.2-61.1-30.7-90.6-69.1
				 M406.3,1005.7l327.4,121.4c0,0,6.1,2.5,7.7-1.5c1.7-4-4.4-6.6-4.4-6.6L419.7,973.4"/>
		</g>
		<g id="g140" transform="translate(350.4315,848.7031)">
			<path id="path142" class="st3" d="M483.5,1104.3c16.8,45.3,54.4,58.4,67.3,99.7c12.9,41.3,44.1,54.8,55.6,68.1
				c11.5,13.4,4.8,27,10.2,27.3c5.5,0.3,10.4-16-2-36.7c-12.4-20.7-31.8-20.3-48-70.5c-16.2-50.3-44.7-51.7-57.3-98.5 M414.7,1013.7
				l256,237.4c0,0,4.6,4.6,7.7,1.6c3.1-3.1-1.5-7.7-1.5-7.7l-237.4-256"/>
		</g>
		<g id="g144" transform="translate(329.3983,886.6816)">
			<path id="path146" class="st4" d="M452,971.4l217.9-99.8l-224.7,83.6 M573.1,941.3c46.3-2.3,66.9-28.6,109.1-23.4
				c-33.4-11.3-59.3,16-108.6,14.4"/>
		</g>
		<g id="g148" transform="translate(328.0439,886.3427)">
			<path id="path150" class="st4" d="M449.9,972.6l239.5-8.8l-239.5-8.7 M573.4,991.1c43.7,15.6,72.7-0.8,109.8,20.1
				c-26.5-23.3-60.9-7.9-105.9-28.2"/>
		</g>
		<g id="g152" transform="translate(326.6628,886.5476)">
			<path id="path154" class="st4" d="M447.9,971.9l224.6,83.6l-218-99.8 M554.8,1036.2c34.4,31.1,67.5,27.1,93.7,60.6
				c-15.6-31.6-53.2-30.6-87-66.6"/>
		</g>
		<g id="g156" transform="translate(325.4652,887.2657)">
			<path id="path158" class="st4" d="M446.1,969.4l175.6,163.2L458.4,957 M520.3,1069.7c19.9,41.9,52,50.8,63.4,91.8
				c-2.3-35.2-37.5-48.7-54.9-94.8"/>
		</g>
		<g id="g160" transform="translate(327.8688,946.7938)">
			<path id="path162" class="st5" d="M449.7,761c78.5,0,142.2,63.7,142.2,142.2s-63.7,142.2-142.2,142.2s-142.2-63.7-142.2-142.2
				S371.1,761,449.7,761"/>
		</g>
		<g id="g164" transform="translate(327.8688,946.7938)">
			<path id="path166" class="st6" d="M449.7,761c78.5,0,142.2,63.7,142.2,142.2s-63.7,142.2-142.2,142.2s-142.2-63.7-142.2-142.2
				S371.1,761,449.7,761z"/>
		</g>
		<g id="g168" transform="translate(347.1953,901.1835)">
			<path id="path170" class="st7" d="M478.7,920.6c9.5-0.2,18.3,4.2,19.5,8.5c-10.9,12-28.4,11-39.4,2.2
				C463.6,923.7,471.3,920.8,478.7,920.6z M478.8,918.4c-9.7,0-19,4.2-24.5,13c10.9,9.8,35.1,10.9,51.5-1.1
				C498.7,922.6,488.5,918.4,478.8,918.4z"/>
		</g>
		<g id="g172" transform="translate(347.9962,904.782)">
			<path id="path174" class="st4" d="M479.8,908.1c-14.2,0-17.5,3.3-24.1,8.8c-6.6,5.5-9.8,4.4-10.9,5.5c-1.1,1.1,0,4.4,2.2,3.3
				c2.2-1.1,6.6-3.3,13.1-8.7c6.6-5.5,13.1-5.5,19.7-5.5c19.7,0,30.6,16.4,32.8,15.3C514.8,925.5,501.7,908.1,479.8,908.1z"/>
		</g>
		<g id="g176" transform="translate(363.7419,902.1612)">
			<path id="path178" class="st4" d="M503.5,917.2c-25.2-21.9-56.9-25.2-74.4-8.7c-4.3,5.7-7,11.9-8.2,18.3
				c-2.2,12.5,1.7,25.9,11.4,39.7c-1.1,0-3.3,1.1-4.4,2.2c-8.7-16.6-11.8-33.7-8.9-49.9c0.7-4.2,1.9-8.4,3.4-12.5
				C446.6,886.6,479.4,884.4,503.5,917.2L503.5,917.2z"/>
		</g>
		<g id="g180" transform="translate(347.1199,901.7374)">
			<path id="path182" class="st4" d="M478.5,918.7c5.4,0,9.8,4.4,9.8,9.8c0,5.4-4.4,9.8-9.8,9.8s-9.8-4.4-9.8-9.8
				C468.7,923.1,473.1,918.7,478.5,918.7"/>
		</g>
		<g id="g184" transform="translate(358.5002,895.1586)">
			<path id="path186" class="st4" d="M495.6,941.7c-18.6,14.2-37.2,13.1-48.1,6.6c-10.9-6.6-10.9-8.7-8.8-8.7
				c2.2,0,4.4,2.2,13.1,6.6C460.6,950.5,473.7,950.5,495.6,941.7L495.6,941.7z"/>
		</g>
		<g id="g188" transform="translate(319.1667,882.0542)">
			<path id="path190" class="st4" d="M436.6,987.6c-4.7,0.9-8,5-8,9.8c0,5.4,4.5,9.8,9.9,9.8c3.2,0,6.2-1.5,8-4.2
				c3.8,2.8,9,3.2,11.8,3.2c0.4,0,1,0,1.3,0c2.8,0,8.1-0.4,11.8-3.2c1.8,2.6,4.8,4.2,8,4.2c5.4,0,9.9-4.3,9.9-9.8
				c0-4.8-3.3-8.9-8-9.8c2.6,0.9,4.3,3.5,4.3,6.2c0,3.6-2.9,6.6-6.6,6.6c-3.5,0-6.4-2.8-6.6-6.2c-1.1,2.1-5.3,8.5-13.6,8.8
				c-8.3-0.3-12.5-6.7-13.6-8.8c-0.2,3.5-3.1,6.2-6.6,6.2c-3.6,0-6.6-2.9-6.6-6.6C432.3,991.1,434,988.5,436.6,987.6z"/>
		</g>
		<g id="g192" transform="translate(323.4461,870.4036)">
			<path id="path194" class="st4" d="M443,1028.4c-10.9,0-15.3,9.9-25.1,16.5c5.5-2.2,9.8-6.5,17.4-10.9c7.7-4.4,14.2,1,18.6,1h0.2
				c4.4,0,10.9-5.3,18.6-1c7.7,4.4,12.1,8.7,17.6,10.9c-9.8-6.6-14.3-16.5-25.3-16.5c-2.2,0-6.5,1.2-10.9,3.4h-0.2
				C449.5,1029.6,445.2,1028.4,443,1028.4"/>
		</g>
		<g id="g196" transform="translate(321.9719,865.2233)">
			<path id="path198" class="st4" d="M440.8,1046.5c-4.3,0.2-10,1.1-18.2,3.5c19.7-4.4,24,2.2,32.8,2.2h0.2c8.8,0,13.1-6.6,32.8-2.2
				c-21.9-6.6-26.2-2.2-32.8-2.2h-0.2C451.3,1047.8,448,1046.2,440.8,1046.5z"/>
		</g>
		<g id="g200" transform="translate(315.0716,863.8719)">
			<path id="path202" class="st4" d="M430.5,1051.2c-1.3,0-2.7,0-4.2,0.2c23,2.2,11.9,15.4,36,15.4h0.2c24.1,0,13.2-13.2,36.2-15.4
				c-24.1-2.2-16.5,12-36.2,12h-0.2C443.8,1063.4,449.5,1051,430.5,1051.2z"/>
		</g>
		<g id="g204" transform="translate(335.7519,849.6619)">
			<path id="path206" class="st4" d="M461.5,1101c0-10.9-8.8-19.7-19.7-19.7s-19.7,8.8-19.7,19.7c2.2-9.1,10.3-15.6,19.7-15.6
				C451.2,1085.4,459.3,1091.9,461.5,1101"/>
		</g>
		<g id="g208" transform="translate(292.5076,902.1612)">
			<path id="path210" class="st4" d="M396.6,917.2c25.2-21.9,56.9-25.2,74.4-8.7c4.3,5.7,7,11.9,8.2,18.3
				c2.2,12.5-1.7,25.9-11.4,39.7c1.1,0,3.3,1.1,4.4,2.2c8.7-16.6,11.8-33.7,8.9-49.9c-0.7-4.2-1.9-8.4-3.4-12.5
				C453.5,886.6,420.7,884.4,396.6,917.2L396.6,917.2z"/>
		</g>
		<g id="g212" transform="translate(308.2533,904.782)">
			<path id="path214" class="st4" d="M420.2,908.1c14.2,0,17.5,3.3,24.1,8.8c6.6,5.5,9.8,4.4,10.9,5.5c1.1,1.1,0,4.4-2.2,3.3
				c-2.2-1.1-6.6-3.3-13.1-8.7c-6.6-5.5-13.1-5.5-19.7-5.5c-19.7,0-30.6,16.4-32.8,15.3C385.2,925.5,398.4,908.1,420.2,908.1z"/>
		</g>
		<g id="g216" transform="translate(307.9212,901.1835)">
			<path id="path218" class="st7" d="M419.7,920.6c9.4-0.2,18.3,4.2,19.5,8.5c-10.9,12-28.4,11-39.4,2.2
				C404.7,923.7,412.4,920.8,419.7,920.6z M419.9,918.4c-9.7,0-19,4.2-24.5,13c10.9,9.8,35.1,10.9,51.5-1.1
				C439.8,922.6,429.6,918.4,419.9,918.4z"/>
		</g>
		<g id="g220" transform="translate(308.499,901.7374)">
			<path id="path222" class="st4" d="M420.6,918.7c5.4,0,9.8,4.4,9.8,9.8c0,5.4-4.4,9.8-9.8,9.8s-9.8-4.4-9.8-9.8
				C410.8,923.1,415.2,918.7,420.6,918.7"/>
		</g>
		<g id="g224" transform="translate(297.7493,895.1586)">
			<path id="path226" class="st4" d="M404.5,941.7c18.6,14.2,37.2,13.1,48.1,6.6c10.9-6.6,10.9-8.7,8.8-8.7c-2.2,0-4.4,2.2-13.1,6.6
				C439.5,950.5,426.4,950.5,404.5,941.7L404.5,941.7z"/>
		</g>
	</g>
	<g id="g240" transform="translate(774.2549,51.4551)">
		<path id="path242" class="st8" d="M1119.2,3894.7c6.5-2.1,8.5-6,6-11.7c-10.3-14.4-14.7,15.2-14.7-11.3
			C1087.7,3875.1,1109.9,3890.8,1119.2,3894.7"/>
	</g>
	<g id="g244" transform="translate(801.9225,80.0014)">
		<path id="path246" class="st8" d="M1160.7,3794.8c1.5,2.9,2.9,5.9,4.4,8.8c-24.8,9.5-44.7-13.9-69.2-12c11.2,10,20.7,5.4,29,18.8
			c6.5,10.4,32.4,18.1,43.3,21.8c-18.4-5.4-34.8-0.7-52.6,4.4c12.7,18.7,30.2-11.6,44.9,5.5c-9-2.2-13.2,1.9-11,11
			c-2.9-4-5.9-8.1-8.8-12c-0.6,11-13.7,31.8,7.8,18.6c-6.7,16.5-40.8,14.5-54.8,18.6c5.7,2.7,54.4,23.7,24.1,5.5
			c6.7-1,26.7,22.2,31,13.8c6.9-13.4,28.9-7.7,19.4-29c30.7,10.1,41.4-24.1,55.4-44.2c4.8-6.9,11.2-15.3,11.9-24
			c0.8-9.8-22.2-21-17.9,1.3C1204.2,3795.4,1174.8,3787.5,1160.7,3794.8"/>
	</g>
	<g id="g248" transform="translate(790.039,81.2814)">
		<path id="path250" class="st8" d="M1142.9,3790.3c6.1,3.3,12.3,3.6,18.7,1.1c-2.4-9.2-9.8-13.3-18.7-9.9c4,3,8.1,5.9,12.2,8.8
			L1142.9,3790.3"/>
	</g>
	<g id="g252" transform="translate(799.7286,85.2394)">
		<path id="path254" class="st8" d="M1157.5,3776.5c3.4,3.1,7.4,4.6,12,4.4C1165.5,3779.4,1161.5,3777.9,1157.5,3776.5"/>
	</g>
	<g id="g256" transform="translate(807.1636,87.8674)">
		<path id="path258" class="st8" d="M1168.6,3767.3c6.3,9.4,25.3,8.4,34.1,4.4C1191.5,3768.6,1179.8,3770,1168.6,3767.3"/>
	</g>
	<g id="g260" transform="translate(829.5231,36.9478)">
		<path id="path262" class="st8" d="M1202.1,3945.5c7.8-7-2.3-11.9-8.7-11C1196.4,3938.2,1199.3,3941.8,1202.1,3945.5"/>
	</g>
	<g id="g264" transform="translate(828.2493,43.9606)">
		<path id="path266" class="st8" d="M1200.2,3920.9c15.1,7.3,26.4,25.1,44.9,24.1c-7.6-4.9-11.8-13.2-7.6-22
			c11.2,4.3,21.8,10.7,34,12c0.2-14.2-14.5-21.2-25.3-26.2c13.4-1.5,21.9,7.4,34,7.4c8.3,0,13.1-5.5,21.9-3.2
			c-0.4-15-29.1-18.3-37.2-28.5c15.7,9.4,33.6,11,51.4,9c11.2-1.3,27.4-14.6,11.1-17.7c16.6,2.6,34.1-1.2,49.4-7.8
			c-4.4,1.1-42.5-15.6-47.1-19.7c11.5-6.1,23.2,1.6,35-1.2c-10.5-8.1-59.3-37.7-60.3-3.2c9.3,1.1,17.9,6,24.1,13.1
			c-13,0.4-53.4-25.3-25.1-22c-11.7-21-45.6-19.5-65.8-17.5c6.6,9.3,1.3,17.7-7.8,21.9c8.6,0.6,13.8,5.3,12,14.3
			c-4.1-2.1-8.1-4.3-12-6.7c3.6,12.4,21.7,14.4,20.9,28.7c-17.9-22.1-53,21.8-39.5,40.6C1207.5,3918,1203.9,3919.5,1200.2,3920.9"/>
	</g>
	<g id="g268" transform="translate(874.3212,48.7784)">
		<path id="path270" class="st8" d="M1269.3,3904.1c3.1,3.1,6.8,5.3,11,6.6C1276.7,3908.4,1273,3906.3,1269.3,3904.1"/>
	</g>
	<g id="g272" transform="translate(774.2549,51.4551)">
		<path id="path274" class="st8" d="M1119.2,3894.7c6.5-2.1,8.5-6,6-11.7c-10.3-14.4-14.7,15.2-14.7-11.3
			C1087.7,3875.1,1109.9,3890.8,1119.2,3894.7"/>
	</g>
	<g id="g276" transform="translate(801.9225,80.0014)">
		<path id="path278" class="st8" d="M1160.7,3794.8c1.5,2.9,2.9,5.9,4.4,8.8c-24.8,9.5-44.7-13.9-69.2-12c11.2,10,20.7,5.4,29,18.8
			c6.5,10.4,32.4,18.1,43.3,21.8c-18.4-5.4-34.8-0.7-52.6,4.4c12.7,18.7,30.2-11.6,44.9,5.5c-9-2.2-13.2,1.9-11,11
			c-2.9-4-5.9-8.1-8.8-12c-0.6,11-13.7,31.8,7.8,18.6c-6.7,16.5-40.8,14.5-54.8,18.6c5.7,2.7,54.4,23.7,24.1,5.5
			c6.7-1,26.7,22.2,31,13.8c6.9-13.4,28.9-7.7,19.4-29c30.7,10.1,41.4-24.1,55.4-44.2c4.8-6.9,11.2-15.3,11.9-24
			c0.8-9.8-22.2-21-17.9,1.3C1204.2,3795.4,1174.8,3787.5,1160.7,3794.8"/>
	</g>
	<g id="g280" transform="translate(790.039,81.2814)">
		<path id="path282" class="st8" d="M1142.9,3790.3c6.1,3.3,12.3,3.6,18.7,1.1c-2.4-9.2-9.8-13.3-18.7-9.9c4,3,8.1,5.9,12.2,8.8
			L1142.9,3790.3"/>
	</g>
	<g id="g284" transform="translate(799.7286,85.2394)">
		<path id="path286" class="st8" d="M1157.5,3776.5c3.4,3.1,7.4,4.6,12,4.4C1165.5,3779.4,1161.5,3777.9,1157.5,3776.5"/>
	</g>
	<g id="g288" transform="translate(807.1636,87.8674)">
		<path id="path290" class="st8" d="M1168.6,3767.3c6.3,9.4,25.3,8.4,34.1,4.4C1191.5,3768.6,1179.8,3770,1168.6,3767.3"/>
	</g>
	<g id="g292" transform="translate(829.5231,36.9478)">
		<path id="path294" class="st8" d="M1202.1,3945.5c7.8-7-2.3-11.9-8.7-11C1196.4,3938.2,1199.3,3941.8,1202.1,3945.5"/>
	</g>
	<g id="g296" transform="translate(828.2493,43.9606)">
		<path id="path298" class="st8" d="M1200.2,3920.9c15.1,7.3,26.4,25.1,44.9,24.1c-7.6-4.9-11.8-13.2-7.6-22
			c11.2,4.3,21.8,10.7,34,12c0.2-14.2-14.5-21.2-25.3-26.2c13.4-1.5,21.9,7.4,34,7.4c8.3,0,13.1-5.5,21.9-3.2
			c-0.4-15-29.1-18.3-37.2-28.5c15.7,9.4,33.6,11,51.4,9c11.2-1.3,27.4-14.6,11.1-17.7c16.6,2.6,34.1-1.2,49.4-7.8
			c-4.4,1.1-42.5-15.6-47.1-19.7c11.5-6.1,23.2,1.6,35-1.2c-10.5-8.1-59.3-37.7-60.3-3.2c9.3,1.1,17.9,6,24.1,13.1
			c-13,0.4-53.4-25.3-25.1-22c-11.7-21-45.6-19.5-65.8-17.5c6.6,9.3,1.3,17.7-7.8,21.9c8.6,0.6,13.8,5.3,12,14.3
			c-4.1-2.1-8.1-4.3-12-6.7c3.6,12.4,21.7,14.4,20.9,28.7c-17.9-22.1-53,21.8-39.5,40.6C1207.5,3918,1203.9,3919.5,1200.2,3920.9"/>
	</g>
	<g id="g300" transform="translate(874.3212,48.7784)">
		<path id="path302" class="st8" d="M1269.3,3904.1c3.1,3.1,6.8,5.3,11,6.6C1276.7,3908.4,1273,3906.3,1269.3,3904.1"/>
	</g>
</g>
</svg>
