<?xml version='1.0' encoding='utf-8'?>
<svg xmlns="http://www.w3.org/2000/svg" enable-background="new 0 0 296.4379 1600" version="1.1" viewBox="0 0 296.4379 1600">
		<path d="m83.19 1377.6c0.0264 1.0271 0 1.6067 0 2.6074 0 5.3845 2.1191 8.7941 3.2209 13.152l-0.1685-6.1603c-0.3958-3.0288-0.9492-6.0422-2.1831-9.7568l-0.8693 0.158z" fill="none"/>
		<path d="m83.98 1424.2c1.1681 0 2.7637 0.2262 3.2583-0.5137l-0.0425-1.55c-0.3062-0.7795-0.8457-1.4014-0.8457-2.3875v-1.3696c0.2721 0.1324 0.5171 0.2554 0.7531 0.3677l-0.3826-13.985c-0.3187 0.2892-0.7399 0.4523-1.245 0.5187l-4.9429 17.17 0.0051 0.0217c0.7904 1.255 1.9457 1.7282 3.4422 1.7282z" fill="none"/>
		<path d="m158.1 359.45c-3.6079 4.504-4.3982 8.323-4.3982 14.091 0 1.1851 0.6848 1.8172 0.6848 3.0026 0 3.1345-1.396 4.7144-2.1072 7.7437-1.0533 4.4246-1.317 7.1112-3.6873 10.93-1.8174 2.9238-4.4249 3.6087-5.4785 6.8746l0.6057 3.0023v5.1622c0 2.3708 3.0027 2.4496 4.1616 4.5305 2.0281 3.7136 2.6339 6.3475 2.6339 10.588 0 2.5022-0.8694 3.8191-0.8694 6.3213 0 1.8173 1.0536 2.7918 1.0536 4.5828 0 3.1079-3.7139 3.9771-3.7139 7.0587 0 0.8428 0.1055 1.2905 0.1055 2.1072 0 2.3967-0.6321 3.898-2.0281 5.8207-1.3696 1.3696-2.3438 3.187-4.2405 3.187-0.8425 0-1.2378-0.5269-1.949-0.8956-0.6848 4.2405-1.0535 6.532-1.0535 10.746 0 19.411 4.7673 30.157 4.7673 49.542 0 4.7673-0.8694 7.4011-0.8694 12.168 0 3.1606 4.3987 3.6874 4.3987 6.8743 0 6.5057-3.266 9.6925-4.0559 16.198l0.7108 3.187c-0.3951 1.791-0.3688 3.2396-1.7648 4.3984-1.4221 1.1326-3.5289 1.317-3.5289 3.1606 0 2.5284 0.8688 3.8453 0.8688 6.3475 0 2.2125-2.1069 3.0815-2.1069 5.294 0 3.4767 2.8181 4.978 2.8181 8.4547 0 2.2123-1.3696 3.5292-3.1605 4.7672-1.9491 1.3169-2.1335 3.3448-4.0563 4.7672-1.0532 4.2141-3.0022 6.2947-3.7134 10.562-0.3428 2.1598 0.4475 3.4505 0.1842 5.6365-0.1842 1.6329-2.4232 1.8701-2.4232 3.4766v9.9822c0 3.1081-2.3702 4.3195-3.5817 7.1641-1.3433 3.345-0.2109 5.8997-1.396 9.35-1.1854 3.424-4.0563 4.0562-6.5319 6.6901-2.239 2.4231-1.6597 4.9778-2.8184 8.1121-0.8694 2.3705-2.8972 2.7393-4.741 4.5829 2.239 1.6857 2.8184 3.8718 2.8184 6.69 0 2.9235-2.792 3.7136-4.7675 5.8207-3.0287 3.2134-1.7645 6.7426-2.4757 11.115-0.6057 3.8191-1.1323 5.9525-2.1072 9.6924-0.7903 3.029-3.7134 4.056-3.7134 7.1639v3.6347c0 1.6594-0.527 2.5813-1.054 4.1879-2.0278-1.0272-3.0287-1.8173-5.1095-2.6602-0.0264 0.3161-0.3422 0.3951-0.3422 0.7112 0 0.8692 0.8689 1.1852 0.8689 2.0806v3.9507c0 1.4224-0.6849 2.2125-0.6849 3.6083v6.4529c0 3.345-3.7662 4.8725-7.1112 4.8725h-3.4241c-2.1333 0-2.3965-2.502-4.451-2.9761-0.4475 2.7655-2.4757 3.898-2.4757 6.6899 0 2.6339 4.3984 2.5547 4.3984 5.1886 0 3.2661-4.5829 3.7137-4.5829 6.9797 0 2.6339 2.6865 3.2396 3.8981 5.6365 2.2917 4.6092 2.6338 7.8224 2.6338 12.985v1.8174h1.3696c1.2642 0 1.712-1.1589 2.8711-1.5804 0.6057 0.9219 1.0532 1.6068 1.0532 2.7657v1.4485c-2.2123 0-4.5037-0.7112-5.4783 1.2379-0.5269 1.1063 0.1843 1.949 0.1843 3.1606 0 3.187-0.5266 4.9516-0.5266 8.1122 0 2.8182 0.5266 4.4248 0.8694 7.243 1.501 0.158 3.7134-0.6321 3.7134 0.8692 0 0.711-0.3684 1.1587-0.3684 1.8435l4.0783 16.238h59.8c0.1359-1.3344 0.4666-2.3537 0.4666-3.8856 0-1.8438-1.949-2.4758-1.949-4.3194 0-3.3977 3.4504-4.3986 6.5319-5.8208 1.8436-0.8428 2.5548-2.3705 4.5829-2.6339 1.5475-0.2192 3.3075-0.428 4.7031-0.959v-10.258c-1.291-2.15-2.5959-4.2906-2.5959-7.2991 0-2.7391 1.0532-4.2404 1.0532-6.9532 0-6.0841-5.6361-8.4283-5.6361-14.512v-4.662c0-2.107 0.7112-3.2132 0.7112-5.3204 0-2.8444-1.0538-4.4248-1.0538-7.243 0-1.9753-0.2631-3.3448 0.7112-5.0305 0.4214-0.7901 1.396-1.1326 1.396-2.1071 0-1.2643-0.8691-1.8964-0.8691-3.1606 0-2.5285 0.8691-3.8454 0.8691-6.3474 0-2.0809-0.9219-3.0817-1.396-5.1097 0.3427-1.5013-0.2371-2.8709 0.8694-3.8718 1.7644-1.6329 3.8716-2.5285 3.8716-4.9516 0-1.3958-0.6848-2.107-0.6848-3.5292 0-0.5268 0.2109-0.9219 0.3424-1.396 1.0199 0.0652 1.5621 0.7308 2.4117 0.9659v-334.1c-1.0378 0.6166-2.0905 0.8977-2.9388 1.9577z" fill="#0039A6"/>
		<path d="m160.57 343.75c0 1.1588 0.2023 2.1212 0.4626 3.0264v-5.1572c-0.2836 0.6151-0.4626 1.3022-0.4626 2.1308z" fill="#0039A6"/>
		<path d="m40.89 1396.5l0.7112 0.1581c2.4497-1.6329 5.979-1.6329 5.979-4.5829 0-0.5796-0.9742-1.0536-1.396-1.396-2.6603 1.5277-3.9245 3.0818-5.2942 5.8208z" fill="#D52B1E"/>
		<path d="m88.642 806.94c-0.922 5.6099-0.843 8.8233-2.6338 14.117-0.8958 2.5811-3.345 3.5556-3.345 6.3475 0 2.1071 2.1597 2.6865 2.6338 4.7408l-0.1846 0.7112c-2.3701-0.7901-3.4764-1.6857-5.7942-2.8182-0.5793 3.5294-6.0052 3.345-6.0052 6.8742 0 0.8429 0.5266 1.2644 0.5266 2.1072 0 1.949-1.0533 2.8708-1.3956 4.7672-0.6584 3.1605-0.448 5.1096-1.2383 8.2701 0.1318 2.0809 1.054 3.1343 1.054 5.2151 0 1.1852-0.7112 1.7646-1.5806 2.5547 0 3.3978-3.7134 4.5303-3.7134 7.9279 0 1.8174 0.895 2.7655 0.895 4.5829 0 1.6857-2.4756 1.8437-2.4756 3.5294 0 5.3202 2.2917 8.1912 2.2917 13.512v5.4783c0 2.4232 0.6057 3.9245 1.7644 6.0316 0.4739 0.9745 0.843 2.1071 1.949 2.1071 1.4487 0 2.1335-0.7902 3.5032-1.2116-0.922 1.8437-1.765 2.9498-1.765 5.0043 0 3.187 4.3726 3.0815 7.5331 3.0815h4.5828c3.7135 0 7.8225-1.791 7.8225-5.5046v-4.5303c0.9484-0.9745 1.9753-1.2379 3.3713-1.2379h3.7925c5.1099 0 4.4514 8.9813 9.5613 8.9813 1.3433 0 1.5535-1.3696 2.4756-2.2914 1.5538-1.5276 2.2914-2.4494 3.8716-4.056 0 0.316 0.1846 0.4477 0.1846 0.7637 0 4.3196-3.7137 6.4793-7.77 7.8752-2.7125 0.9219-5.9785 1.6066-5.9785 4.5039 0 1.5802 1.3169 2.8972 2.8969 2.8972v3.5294h1.4751c2.423 0 3.6874-1.238 5.847-2.2914 0.3951 0.5268 0.7112 0.9745 0.7112 1.6857 0 2.5547-1.2378 3.8716-1.2378 6.4264 0 4.6356 2.2914 7.0061 2.2914 11.642 0 1.8963-0.869 2.8444-1.5802 4.5828-2.0281-3.0553-2.0017-5.3729-2.6602-9.0076-0.3953-2.1598 0.2632-5.2677-1.9227-5.2677-3.3186 0-5.0834 1.1062-8.2966 1.7646l-0.1578 0.6848c3.1077 2.3442 4.2137 4.5828 5.9785 8.1121 1.1591 2.3442 2.7393 3.1343 3.8721 5.4785l-7.7437-2.6602-1.4224 0.1844c-0.0789 0.316-0.3425 0.5268-0.3425 0.8692 0 2.1334 1.0537 3.2659 1.0537 5.3994 0 3.5031-1.3958 5.3731-1.3958 8.876 0 2.1334 4.2137 1.4224 4.2137 3.5294 0 1.1852-1.7645 1.2905-1.7645 2.4758 0 2.0279 1.1061 3.0815 1.2379 5.1096-1.1852-1.0536-1.3698-3.0026-3.0026-3.0026-1.1852 0-1.1852 1.554-1.5803 2.6602-1.106 2.9763-1.1851 5.1096-3.0026 7.7435-2.5548 3.74-2.3177 6.6109-4.0559 10.93l7.7697 4.583c-0.5793 1.3958-1.7648 1.9753-1.7648 3.5292 0 0.9218 0.869 1.238 1.0536 2.1071 0.5793 2.9236 0.0527 4.7936 1.0536 7.5854-1.8439-1.3695-2.7656-2.8182-5.1097-3.1869-0.7112 2.1334-1.5276 3.3185-3.1605 4.7673-0.5002-0.7112-0.9745-1.1063-1.7645-1.396l-1.238 0.158c-0.0527 0.5795-0.1843 0.8956-0.1843 1.4485 0 1.8964 1.7645 2.6602 1.7645 4.5566 0 2.8444-3.3451 3.6609-3.3451 6.5055 0 1.7646 2.8185 1.2116 3.5297 2.8182 0.7375 1.7646 0.4475 3.0552 0.869 4.9515l0.7112 0.1581c2.1597-1.0536 3.3975-2.1071 5.8207-2.1071 3.6083 0 2.3705 7.0586 5.9789 7.0586 2.6074 0 3.0553-2.8708 4.5828-4.9515-1.0535 6.3475-2.6862 9.6661-5.9785 15.171-1.238 2.1071-0.8958 4.1876-2.8184 5.6364-1.6857 1.2379-3.2659 0.7639-5.1094 1.7646-3.5824 1.9753-5.9526 3.1606-10.062 3.1606-0.5266 0-0.9481-0.1318-1.396-0.3423 0 0.3159 0.1846 0.4476 0.1846 0.7637 0 1.4749-1.4224 2.1597-1.4224 3.6348 0 2.1333 3.0026 2.4231 3.0026 4.5564 0 0.5532-0.1317 0.8691-0.1842 1.4487-0.3955-0.0527-0.6584-0.1843-1.054-0.1843-1.3169 0-1.6853 1.2905-2.818 1.949 2.3705 3.0026 6.7688 0.5269 9.1659 3.5293-0.7903 0.9219-1.5804 1.5803-2.8184 1.5803-0.5266 0-0.8958-0.3688-1.4224-0.3688-1.5015 0-1.9226 1.2905-3.1604 2.1334-1.5806 1.0536-3.7139 1.5012-3.7139 3.424 0 2.2125 0.8955 3.345 0.8955 5.5573 0 2.6077-1.6067 3.8718-1.6067 6.4794v1.4486c4.1877-1.2642 5.1626-5.1096 9.5344-5.8208 0.1318 0.5005 0.3425 0.8955 0.3425 1.4224 0 3.0026-3.819 2.8181-6.3477 4.3984-2.8969 1.8438-2.8969 5.0306-4.9249 7.7698-0.4742 5.8472-1.5015 8.9287-2.476 14.802l-0.3424 0.7112 4.5302-3.8455c-3.6609 5.5837-4.2141 9.3765-7.3486 15.276-2.4229 4.583-4.7142 6.7163-6.6897 11.457 0-0.2635-0.1841-0.3953-0.1841-0.6584 0-5.5313 1.9226-8.6392 4.3982-13.617 0.7112-1.4487 2.1072-1.9229 2.1072-3.5557v-3.6084c0-1.7122 0.7639-2.5547 0.8955-4.2932-0.448 0.4478-0.6321 1.0801-1.2383 1.0801-1.7644 0-2.7389-0.5269-4.3982-1.0801l-0.7112 0.1844c0.0791 1.5541 0.8694 2.2914 0.8694 3.8453v1.4487c-1.1855-1.0537-1.5278-2.8184-3.1609-2.8184-4.1349 0-6.4266 1.396-10.588 1.396-3.8721 0-5.1362-3.2133-8.6128-4.9253-1.2905 1.8174-3.2395 1.7648-5.4785 1.7648-0.869 0-1.0532-1.238-1.9226-1.238-1.3433 0-1.3433 1.712-2.4756 2.2914-1.8964 0.922-3.5824-0.2632-5.4786 0.7112-3.0814 1.6331-3.5555 4.188-6.3473 6.3475-3.5032 2.713-4.4514 5.3732-7.7437 8.2703-2.4232 2.1334-6.1631 2.3969-6.1631 5.6364 0 2.95 2.186 4.188 3.345 6.8743 1.1061 2.5286 0.5793 6.3477 3.3451 6.3477 2.9232 0 4.1085-2.4495 5.8207-4.741-2.7393-2.7391-3.3186-5.1096-4.2407-8.8232 4.9783-2.4758 8.1123-2.6338 11.984-6.5319-0.1318 0.6848-0.3424 1.0797-0.3424 1.7645 0 5.4785 4.9253 9.3501 10.404 9.3501 5.557 0 8.3755-2.8181 13.907-2.8181 1.2905 0 1.0269 1.8173 1.422 3.0026 0.527 1.5013 0.869 2.423 1.422 3.8718 0.5271 1.5011 1.7388 1.949 2.8185 3.1605 1.6593 1.9491 2.3705 3.5029 4.5829 4.7671v1.238h-1.4224l-2.8181-0.7112c-1.7649 0-2.7654 0.0527-4.5302 0.0527-0.9218 0-1.2382 0.9218-1.6329 1.7119v1.4224c3.0286 0 4.4773 1.6066 7.2167 2.9762-2.239 1.2906-3.9244 1.2379-6.3477 2.1334-2.0541 0.7373-2.0541 2.8446-3.1605 4.7408-1.3169 2.3441-2.6865 3.4503-4.0562 5.8208 2.1069 0.7111 4.2141 1.0271 4.7671 3.1869 0.3428 1.4486 0.2637 2.5548 1.396 3.5031 2.6865 2.265 5.0308 2.3441 8.4546 3.187-2.2385 1.6593-3.9508 2.1597-6.6898 2.8181 2.7654 1.6331 4.662 1.8436 7.7437 2.8181 2.2911 0.7112 3.3973 2.2915 5.8207 2.2915 3.8452 0 3.8979-4.6619 5.2939-8.2966l0.7112-0.3423c-0.2372 1.5012-0.8956 2.2124-0.8956 3.7136 0 3.6874 7.9279 1.5803 7.9279 5.2676 0 1.5541-1.0532 2.3442-1.0532 3.8982 0 0.9031 0.5703 1.4844 1.3586 1.8383l0.0923 3.3782c-2.8149-0.2748-3.1434-3.9358-6.0339-4.8739l-0.5269 0.7109c1.1063 1.1063 0.8954 2.3179 0.8954 3.8718 0 0.7109 0.5267 0.5269 1.2379 0.7109 0.4214 2.7657 2.0281 3.8718 3.5032 6.1633 0.3633 0.5452 0.6919 1.1449 1.1465 1.5375l0.0459 1.6827c-0.1006-0.017-0.1858-0.0596-0.297-0.0596-1.1854 0-1.8175 0.316-3.0026 0.0527-0.5793-5.1096-6.2947-5.5049-11.273-6.7428-3.345-0.8427-4.6882-3.3448-8.1121-3.3448-2.2124 0-3.4238 0.7109-5.6365 0.7109-2.5283 0-2.6074-3.8716-5.1094-3.8716-2.397 0-3.4769 1.5803-5.6365 2.4495 0.553 0.7637 0.869 1.4221 0.869 2.3969 0 1.2643-0.2106 2.028-0.5267 3.2396 2.1073 0.5267 3.4506 1.5538 4.3984 3.5292-1.1324 0.7639-2.6339 0.922-2.6339 2.2916 0 2.6864 0.7375 4.2405 1.7648 6.6899 2.95-1.1853 3.8193-3.6875 7.0588-4.2144 0 4.583 3.1604 6.4265 5.4519 10.404-3.582 1.1853-7.5854 2.2389-7.5854 5.9789 0 1.8174 0.7112 2.7917 0.7112 4.5828 0 1.4486-1.4224 1.7646-2.4756 2.8184v3.9243c0 1.9753-0.3955 3.0815-0.5271 5.0833-0.4214-3.3712-1.1853-5.136-1.3956-8.4808-0.1844-2.4231 1.1852-4.0824 0-6.1632-1.0538-1.791-2.8184-2.0543-3.8983-3.8717-1.1327-1.8964-0.3424-3.8718-1.9226-5.4784-1.1064 1.6857-2.3706 2.5286-4.3987 2.8445 0-1.949-0.2633-3.7136-1.949-4.5828-1.5803 1.7383-4.7671 1.475-4.7671 3.8716 0 4.0035 1.1851 6.2422 3.0027 9.877-2.4761 0.158-4.3987 2.1071-4.3987 4.5564 0 4.4512 3.0027 6.453 4.0559 10.772-0.9215-0.3687-1.4749-0.8955-2.4757-0.8955-2.2386 0-3.1605 2.1333-4.2404 4.0562-0.6584 1.2905-1.9226 1.7119-1.9226 3.1869 0 1.7911 1.501 2.4496 1.9226 4.2142-1.9753 0.1316-2.8972 1.3169-4.7407 1.949-1.0276 0.316-1.7649-0.316-2.8184 0-2.2124 0.6057-2.8184 3.0291-2.8184 5.373 0 4.4512 5.2676 5.6364 5.2676 10.088v2.3441c-0.8687-0.1055-1.3694 0-2.2383 0-0.8694 0-1.2906-0.7112-2.1599-0.7112-1.7122 0-2.5021 1.238-4.2405 1.396 0.1315 2.0808 1.0272 3.1079 1.949 4.9517-0.6584 0.4741-1.0536 1.0535-1.0536 1.8962v2.3179l0.7112 0.5532 5.9789-5.8209 0.7112 0.1581c0 2.0281 0.1842 3.187 0.7112 5.1096 0.342 1.2378 0.4211 3.0026 1.7644 3.0026 3.1078 0 4.7937-1.5804 7.9279-1.5804v-7.875c0-2.6603 2.239-3.6611 2.8185-6.2158l0.4475 0.6848v8.876c0 0.8691 0.7903 1.2642 0.7903 2.1597 0 2.3179-1.0537 3.5029-1.0537 5.8472 0 0.5795 0.1316 0.8955 0.158 1.4485 3.3977 0 3.3186 5.6365 6.6899 5.6365 2.2126 0 2.9763-1.8438 4.4248-3.5031 2.1072-2.4231 3.0293-4.5038 3.0293-7.7172 0-4.2404 0.5266-6.5581 0-10.799 0.5793 0.1843 0.9214 0.5269 1.5537 0.5269 3.0027 0 3.0027-3.6875 5.8208-5.1096 0 0.3159 0.1577 0.4476 0.1577 0.7373 0 1.8174-1.9226 2.3969-1.9226 4.1879 0 0.7112 0.3428 1.0797 0.3428 1.7645 0 0.9746-0.2109 1.5542-0.527 2.4758 0.7112-0.5267 1.2906-0.9216 2.1068-1.2378l0.1846 0.7111c-1.6328 1.6329-3.5292 2.6075-3.5292 4.9252 0 0.5269 0.7635 0.5005 1.0536 0.8956 0.8954 1.0536 0.1316 2.5022 1.0532 3.5293 1.949 2.0544 5.0835 1.396 6.1898 4.0298-3.3451-0.5267-5.1097-1.396-8.4808-1.396-0.4219 0-0.6584 0.3424-1.054 0.5267 0.8958 3.9772 2.6602 5.8209 4.7673 9.3501-3.345-1.343-3.345-5.8206-6.8743-5.8206-1.238 0-1.3696 1.5012-2.2913 2.2914-2.6339 2.2914-3.8718 4.1351-6.6902 6.1631 6.0844 6.6901 14.802 8.7706 14.802 17.805 0 2.9498 1.2642 4.4512 2.2911 7.2167 1.2642 3.4504 2.6865 6.8745 6.3475 6.8745 1.1064 0 1.7649-0.2635 2.8181-0.0264 0.1846 0.3949 0.3428 0.6057 0.3428 1.0533 0 0.7903-0.0791 1.1852-0.1582 1.9755-0.6848 0.0527-1.08 0.1843-1.7385 0.1843-2.1594 0-3.3446-0.8955-5.5045-0.8955-1.2379 0-1.712 0.9219-2.8185 1.4224-1.3696 0.6057-3.0022 0.9744-3.0022 2.4495 0 1.0798 0.8428 1.5012 1.2378 2.4757 0.3162 0.7639 0.0527 1.9491 0.8955 1.9491 0.8689 0 1.3169-0.5795 2.1068-0.8955 0.2635 1.3696 0 2.1334 0 3.4767 0 3.3187-0.3158 7.9803 3.0029 7.9803 1.7645 0 1.5011-2.423 2.1068-4.0559 0.2634 1.7646 0.8691 3.7136 2.6339 3.7136 1.2118 0 1.6329-1.2378 2.818-1.2378 1.8704 0 1.2905 2.5547 2.1335 4.2404-1.0532-0.5267-1.6853-0.8954-2.8184-0.8954-0.7899 0-1.1587 0.6321-1.6062 1.2378 0.5002 0.7637 1.0269 1.4222 1.949 1.4222 0.4475 0 0.6057-0.3687 1.0532-0.3687 1.844 0 1.844 2.4231 2.1072 4.2405 0.3689 2.3441 1.6067 3.4767 2.4757 5.6364-3.0287-1.5012-3.7926-3.4502-6.3473-5.4519h-1.396v1.9753c0 4.2667 4.5828 5.689 4.5828 9.9558v3.6083c0 0.7112 0.5266 1.3696 1.2378 1.3696 1.9227 0 2.713-1.6329 3.8718-3.187 0.8693 0.7639 1.1066 1.475 1.9229 2.2914 0.7109-0.6846 1.2114-1.0797 2.1333-1.3958l0.1582 0.7112c-1.2114 0.79-2.2915 1.3694-2.6339 2.8181 2.3439 0.8428 2.16 3.345 3.0023 5.6364 1.2382 3.3978 3.082 5.057 3.082 8.6654v2.2651c-0.3164 0-0.5006 0.3423-0.7903 0.3423-1.8962 0-1.6858-2.4495-2.2917-4.2141-0.5793-1.7383-2.0806-2.1335-3.5289-3.1869-0.0791 0.316-0.527 0.3685-0.527 0.7111 0 2.4232 2.2124 3.1606 3.345 5.2939 1.5803 2.95 2.5024 5.3994 5.6365 6.6901 0.4752-0.817 0.9568-1.468 1.3027-2.1787l0.0258 0.9403-1.1498 3.9951c0.5051-0.0664 0.9263-0.2295 1.245-0.5187l0.3826 13.985c-0.236-0.1123-0.481-0.2352-0.7531-0.3677v1.3696c0 0.9861 0.5396 1.6079 0.8457 2.3875l0.0425 1.55c-0.4946 0.7399-2.0902 0.5137-3.2583 0.5137-1.4966 0-2.6519-0.4731-3.4421-1.7283l3.1078 13.614c-1.0057 0.1581-2.0438 0.3269-3.2743 0.6245 1.4019 0.355 2.522 0.3833 3.6023 0.811l1.4708 6.4441c-0.2626-0.105-0.5167-0.1965-0.8588-0.1965-1.5806 0-2.1599 1.7646-2.2914 3.345 2.1368 0.3562 2.9872 2.3571 4.5924 3.1699l1.2253 5.3677 0.0029 0.1013s0.0264 0 0.0264 0.0264c2.8707 5.6892 6.9534 6.611 11.8 10.377 4.7931 3.6874 7.1376 8.2703 13.195 8.2703 0.8427 0 1.3433-0.3951 1.9493-0.8693-1.1067-2.2123-3.0029-3.187-2.8184-5.6364-2.6074-0.1844-3.9243-1.8174-5.4521-3.8981 0.5269 0.0527 0.7903 0.1843 1.3169 0.1843 1.0011 0 1.8438-0.7375 1.8438-1.7645 0-1.0009-0.5796-1.4487-0.7112-2.4758 0.8164 0.316 1.5803 0.6058 2.1333 1.0798 3.7666-1.2379 6.4531-2.3967 8.4548-5.8209-2.5288-0.8425-3.1873-2.6863-5.2941-4.2404-1.3169-0.9745-2.7653-0.8429-3.7137-2.1071l0.1846-1.2378h1.5538c4.4513 0 6.1631 4.2405 10.614 4.2405 3.1344 0 3.5295-3.4504 5.9788-5.2941 2.8184-2.1071 5.0308-2.4758 7.9543-4.3984 4.9779-3.3187 7.4275-7.243 13.38-7.243 2.3702 0 4.3983 1.8435 4.3983 4.2405 0 2.4231-2.2911 3.0815-3.5029 5.1096-2.2124 3.5292-2.476 6.1631-5.2939 9.1656-1.8964 2.0281-4.5042 1.1324-6.6898 2.8182-2.9766 2.2386-3.7928 4.8989-4.2407 8.6389l0.7112 4.2141c-1.4224 4.2405-4.2931 5.689-8.4808 7.7699-0.4215-0.7902-1.2114-1.1853-1.2114-2.1071 0-1.9492 2.4229-2.0017 4.2136-2.6602 1.7651-0.6584 2.4761-2.3179 2.4761-4.2142 0-1.7383-0.8955-2.6075-0.8955-4.3195 0-0.5267 0.2634-0.8428 0.3689-1.3433v-1.9227h-1.3696c-1.9491 0-1.7649 2.5548-2.3442 4.3986-0.3948 1.3169-1.7644 1.3695-2.8184 2.2915-2.0278 1.7646-3.2922 3.5292-5.9785 3.5292-0.4479 0-0.6584-0.2106-1.0537-0.3424l-0.1844-0.7109c3.7928-1.8965 4.8992-4.3987 7.4012-7.7699l-0.1846-0.6848c-1.7908-0.2633-2.7654-1.0798-4.5828-1.0798-3.0815 0-5.4783 1.0535-7.5588 3.3448 0.3157 0.2107 0.6584 0.3951 1.0532 0.5532-0.5002 1.2378-2.1332 1.4485-2.1332 2.8181 0 2.8708 2.6598 3.6873 4.0558 6.1631 2.1599 3.7139 3.9244 5.8472 7.5858 8.1123 2.1068 1.3169 3.2924 2.8182 5.8207 2.8182 0.7112 0 1.0532-0.3688 1.7644-0.3688 2.5812 0 2.7657 3.0026 4.9257 4.4248 2.212 1.4487 3.9244 1.5276 6.5319 2.2914 2.9758 0.8693 4.6091 2.2916 7.7433 2.2916 5.4786 0 7.7697-5.4785 8.8236-10.93l-0.527-15.329 1.9227-5.8208v-7.006c0-4.1088 2.6602-6.0841 2.6602-10.193 0-1.0536-0.8955-1.475-0.8955-2.5549 0-0.9481 1.2378-1.0535 1.5803-1.9226 2.1332-5.1624 4.1877-8.8232 9.3499-10.93-0.1315 0.4741-0.2629 0.8691-0.342 1.396 2.1069-0.3953 2.9495-1.6067 4.9249-2.2915 7.9806-2.7654 11.799-6.2949 19.912-8.6127 1.5278-0.4213 2.9235-0.2897 4.2145-0.4213 1.0005-0.1055 1.949-0.3689 2.844-1.1853 1.2645-1.1326 0.5797-2.7655 1.396-4.2141 2.5812-4.3722 4.8202-8.481 9.877-8.481 4.3198 0 6.0315 3.2659 10.22 4.4248 5.5571 1.5276 8.9021 2.2651 14.249 2.7129-2.2914-1.1326-4.0563-1.712-5.847-2.2124-1.7908-0.5269-3.6084-0.9746-5.9261-1.9227-3.0817-1.2379-4.1089-3.424-7.2167-4.3984-5.6365-1.7648-9.2711-0.5267-14.986-2.1072-6.4006-1.7646-9.4293-4.2404-14.987-7.9277l-58.866-1.08-1.7646 0.5269c-1.5012-0.2898-3.0027-1.1326-3.0027-2.6865v-3.4241c0-1.7119-1.0532-2.5022-2.2915-3.74-1.6592-1.6857-2.4495-3.345-4.7406-3.7137-2.1335-0.2897-2.2654-2.6864-3.1871-4.5829-0.9219-1.8438-2.5024-2.5022-4.5829-2.6338 1.2906-2.6074 3.7137-3.582 3.7137-6.4791v-8.6918c0.1582-1.0535 0.7112-1.5802 0.7112-2.6338 0-1.0271-1.2378-1.0535-1.949-1.7646-1.1063-1.1062-1.4224-2.2915-1.4224-3.8716 0-4.6357 4.7673-6.2949 4.7673-10.93 0-2.5549-3.5295-3.0026-3.5295-5.5574 0-2.9498 1.949-4.4512 1.949-7.401 0-1.238-1.5801-1.3169-2.8184-1.5013-1.422-0.2108-1.949-1.396-3.3446-1.396-2.4232 0-2.5287 3.6874-4.9517 3.6874-2.1072 0-2.4493-2.8181-4.5829-2.8181-1.396 0-1.6592 1.554-2.4492 2.6338-2.1335 2.8708-3.635 5.8208-7.243 5.8208-3.3451 0-3.1608-4.3987-4.2144-7.5591-0.4811-1.4768-1.1842-2.5938-1.8687-3.6807l-0.7775-63.03c0.0566-0.041 0.1138-0.0657 0.1704-0.1093 3.2922-2.5548 4.2401-5.057 5.9789-8.797 1.87-4.0034 4.2928-6.084 8.2963-7.9277 3.8717-1.8174 7.5854-3.7927 7.5854-8.1123 2.1597-2.1597 1.5803-4.6354 1.5803-7.6643 0-1.5803-0.8955-2.397-0.8955-3.9772 0-1.3696 1.3433-1.7646 2.1333-2.8182 2.6338-3.5293 6.2424-5.0569 6.2424-9.4817v-6.2422c0-3.8455-1.6333-6.0315-4.1353-8.9551-1.2642-1.5013-2.8181-2.2388-2.8181-4.2141 0-4.8989 3.8717-6.7162 5.4519-11.299 1.5542-4.4512 2.6865-7.006 4.9517-11.088 1.396-2.5551 4.8462-1.4487 6.6901-3.7139 0.9218-1.1061 0.2633-2.3177 0.7108-3.6873 0.8694 0.1317 1.2645 0.7111 2.1599 0.7111h1.4487v-6.8743l-1.8435-13.591c3.2922-3.661 8.7966-4.1877 8.7966-9.113v-4.662c0-2.6075-1.7645-3.8453-1.7645-6.4528v-3.9507c0-2.6603-0.5266-4.3723-2.1072-6.4792-0.5267-0.7639-1.5802-0.9746-1.5802-1.9491 0-1.4486 1.9753-1.1324 3.345-1.5804 1.2905-2.6074 3.7139-3.6083 3.7139-6.5317 0-2.2388-2.9502-2.0018-4.425-3.6875-2.6338-3.0288-1.2378-6.3474-1.2378-10.404 0-2.2124 1.0272-3.8191 3.0026-4.7671 1.317-0.606 2.6603 0 3.7135-1.0537 1.8439-1.8438 0.2637-4.4775 1.9226-6.5054 1.4751-1.7649 4.5833-1.5541 4.5833-3.8982 0-3.2396-2.8972-4.2668-4.2141-7.2168-2.1335-4.6619-2.792-10.562-7.9279-10.562-1.3698 0-2.16 0.3424-3.5297 0.3424-3.0549 0-6.5317-1.3696-6.5317-4.3984 0-1.8701 2.3969-1.949 4.2407-2.1333 2.1855-0.2108 3.4766-0.6849 5.6888-0.6849h3.4241c4.3719 0 7.0585 0.5267 10.983 2.4495 1.9753-2.6865 1.3433-5.1886 2.8184-8.2703 1.0533-2.265 3.6871-2.6603 3.6871-5.1096 0-2.1334-2.186-2.5548-3.6871-4.056-1.6333-1.6331-3.3187-2.1071-5.6364-2.1071-4.2932 0-6.6638 0.6848-10.93 0.6848-1.87 0-2.3966-2.2389-2.3966-4.0826v-6.0051c0-4.3984 3.6345-6.2949 3.6345-10.693 0-2.2651-2.6603-2.871-2.6603-5.1097 0-3.4503 4.9519-3.9771 4.9519-7.4011 0-1.949-2.8711-1.238-4.7673-1.6066-1.7648-0.3424-2.1073-1.9228-3.1869-3.345-0.5532-0.7901-1.9226-0.7375-1.9226-1.7646 0-1.396 0.7109-2.1072 0.7109-3.5294 0-1.475 0-2.8446 1.2117-3.6873 1.738-1.1589 4.5829-0.5795 4.5829-2.6602 0-2.0018-0.3951-3.0817-0.6848-5.1096-3.6351-0.2635-5.4786-2.4233-7.5858-5.2677-0.7635-1.554-1.8435-1.4749-2.8176-2.8182-2.4761-3.3977-2.8185-6.2158-2.8185-10.404 0-4.978 3.5292-7.3747 3.5292-12.353 0-4.8462-4.5828-6.769-4.5828-11.615 0-1.7384 2.3179-1.9492 4.0559-1.9492 2.1863 0 3.4241 0.5268 5.6367 0.5268 2.0544 0 2.976-2.2914 2.976-4.3457v-5.0307c0-5.8998-2.1068-9.0868-2.1068-14.986v-3.5292c0-4.2142-1.396-6.4793-1.396-10.693 0-3.5294 1.396-5.4785 1.396-9.0078 0-3.424-0.4744-5.4519-1.7649-8.6125-0.6057-1.5013-1.9226-2.0808-1.9226-3.7138 0-2.0279 3.1604-1.8962 3.5032-3.8716 0.2371-1.3169 0-2.1334 0-3.4767v-3.6347c0-2.8182 3.3975-2.9498 6.0052-4.0035-0.3954-2.6074-2.8184-3.0288-4.0563-5.294-1.2905-2.2914-1.2378-4.0033-1.2378-6.6371v-1.8964c1.7118 0.0791 2.6863 0.0527 4.3983-0.0789 1.6066-2.1598 2.4757-4.3195 2.4757-7.0587 0-4.3195-2.8181-6.4266-2.8181-10.746 0-3.5294 7.0588-1.3433 7.77-4.7672 0.869-4.1088 2.6338-6.2949 2.6338-10.535v-4.1351c0-0.3962 0.0254-0.7519 0.0601-1.0923h-59.8l1.7427 6.9395zm-2.3997 580.3l0.1685 6.1603c-1.1018-4.3577-3.2209-7.7672-3.2209-13.152 0-1.0007 0.0264-1.5803 0-2.6074l0.8694-0.158c1.2338 3.7146 1.7873 6.728 2.183 9.7568z" fill="#D52B1E"/>
		<path d="m29.249 1102c0 1.0009 1.1061 1.5803 2.1072 1.5803 1.8173 0 2.0018-2.2915 3.7135-2.8181 3.5823-1.1063 4.2671-4.7146 4.5828-8.481-1.4484 0.5004-2.1595 1.6064-3.7134 1.6064-1.0537 0-1.2642-1.1061-2.2917-1.4221l-0.342 0.7112c0.9216 0.5266 1.4224 0.9218 2.291 1.5802l0.3428 0.7112c-1.2114-0.6058-2.1863-0.2635-3.5032-0.7112-1.1061-0.3424-1.5012-1.5802-2.6866-1.5802h-1.3696c-0.1051 0.316-0.2367 0.5793-0.3685 0.869 2.3967 1.6068 3.9772 2.2125 6.0054 4.2406-2.0285 1.1851-4.7677 1.3696-4.7677 3.7137z" fill="#D52B1E"/>
		<path d="m53.928 1185.7c-1.0009 0-1.5011 0.7109-2.5023 0.7109h-1.3694v-0.5267l-0.7112 0.1844c1.844 2.0544 2.4761 4.9253 5.2941 4.9253 1.5275 0 2.3705-0.8955 3.9244-0.8955h3.4766c1.0535-1.1853 2.0281-1.8438 2.6338-3.345-1.4485-0.8429-2.6338-0.3425-4.2141-0.8693-1.7384-0.5793-2.3969-2.1071-4.2405-2.1071-0.6057 0-0.8694 0.3953-1.4224 0.6848 0.553 0.7112 0.9485 1.2905 1.2378 2.1334l0.1846 0.6849c-0.7112-0.79-1.1851-1.5801-2.2914-1.5801z" fill="#D52B1E"/>
		<path d="m39.995 1201.6l-0.9485-0.5267v4.4249l-1.5011 2.1072c0.6844 2.1069 1.2378 3.3975 1.2378 5.6364 0.4215 0.079 0.6058 0.3423 1.0536 0.3423 1.5015 0 2.2388-0.9481 3.345-1.9227-1.9753-1.9753-3.1868-3.6083-3.1868-6.4001 0-1.3962 0.1052-2.2388 0-3.6613z" fill="#D52B1E"/>
		<path d="m47.765 1173.9c-1.1588 0.3951-0.8958-1.8173-1.2379-3.0026-1.4487 0.5795-2.239 1.1853-3.3451 2.2915 1.0006 0.6584 1.9755 0.5793 2.8181 1.4222 0.8428 0.8165 0.527 2.6339 1.7649 2.6339 1.9226 0 2.818-2.1072 2.818-4.0562 0-1.1853-1.1063-1.4487-1.9491-2.2915-0.0263 1.1855 0.2371 2.634-0.8689 3.0027z" fill="#D52B1E"/>
		<path d="m85.481 1034.8c0 0.7113 0.0791 1.0536 0.1841 1.7646l-1.7644-1.4222c-0.5266 0.4478-1.0796 0.9219-1.0796 1.6858 0 0.8689 0.7108 1.3169 0.7108 2.2123 0 0.6848-0.3424 1.0536-0.3424 1.7384 0 0.3687 0.4479 0.4214 0.5266 0.7109 1.1064-0.2104 1.7124-0.0261 2.8184 0-0.6057 2.5286-5.4521 1.2908-5.4521 3.8718 0 2.0808 2.0017 3.3713 4.0825 3.3713h3.6084c3.2135 0 3.6084-3.6609 6.4004-5.2939 2.1072-1.238 4.3982-2.1072 4.3982-4.583 0-2.2386-4.2141-1.6329-4.2141-3.8716 0-3.2134 0.9482-5.6101 1.2119-8.8232-0.527-0.3163-0.8694-0.4744-1.396-0.7112l-0.3425 0.7112 0.5266 2.4756v1.396c-0.395 0.0527-0.6843 0.1843-1.0798 0.1843-1.0796 0-1.0006-1.5803-1.9226-2.1069l-1.4224 0.6848c-1.0533-0.9219-1.2643-1.9753-2.2913-2.9763-0.2635 0.4214-0.5269 0.6847-0.5269 1.2378 0 2.5022 2.0808 3.4768 3.5293 5.4521-0.6586 0.3951-1.1324 0.7112-1.9491 0.7112-0.6848 0-1.0533-0.3688-1.7382-0.3688l-0.1846 0.7112 0.7113 0.5266-0.1846 0.7112c-1.106 0.0792-1.7117 0.1318-2.8179 0z" fill="#D52B1E"/>
		<path d="m70.494 1069.9c0-0.8955 0.7112-1.2379 0.7112-2.1333 0-1.7122-2.4229-2.2915-4.0558-2.8184h-2.0809c-2.1594 0-3.2131-1.396-5.3727-1.396-0.527 0-0.843 0.1318-1.3698 0.1582l-0.1581 0.7111c2.4232 1.8174 4.0562 3.6083 4.0562 6.6637v3.9243c0.7375 0.0264 1.1852 0.1581 1.9227 0.1581 0.4475 0 0.6321-0.3424 1.0535-0.3424 0.3162 0 0.3953 0.316 0.7109 0.3424 0.0791 1.3433 0.0791 2.2914 0.8958 3.3712 2.0017-1.1062 1.4751-3.4503 3.1604-5.1359 1.0537 2.1334 1.2378 3.6346 1.2378 5.9523 0 1.8174-0.3948 2.8184-0.105 4.6356 0.4478-0.1317 0.6848-0.3424 1.1589-0.3424 1.3694 0 1.3694 1.6594 2.4757 2.4497 0.3948-0.3953 0.869-0.6584 0.869-1.238 0-0.9482-0.5266-1.475-0.5266-2.4495 0-3.4503 1.0536-5.373 1.0536-8.8232-2.6338-0.1845-5.6368-1.0537-5.6368-3.6875z" fill="#D52B1E"/>
		<path d="m73.128 1098c0-1.5541 0.0527-3.3187-1.3956-3.7137-0.6584-0.1844-0.8955 1.4485-1.4221 1.0535-1.0012-0.7375-1.2118-2.1069-2.5023-2.1069h-1.5538v8.6389c1.5011 1.6593 2.291 2.8181 4.24 3.8718 0.5798-1.1326 2.2917-1.0537 2.2917-2.2915 0-1.1853-1.2378-1.6331-1.2378-2.8181-1e-4 -1.1854 1.5799-1.4488 1.5799-2.634z" fill="#D52B1E"/>
		<path d="m82.663 926.99c-1.4487-1.8699-0.8958-3.7136-1.949-5.8207-1.1328-2.3441-3.5295-3.0553-3.5295-5.6364 0-1.1061-0.158-2.0808-0.158-3.187-1.5538 0.5004-3.2399-0.1317-4.0562 1.238-1.0537 1.7119-0.2634 4.7673-2.2915 4.7673-2.6865 0-3.4768-3.187-6.1631-3.187-1.2117 0-1.2117 1.4485-1.7646 2.4758-0.3949 0.7112-1.4224 0.7375-1.4224 1.5802 0 1.7648 1.238 2.6339 1.238 4.3986 0 3.898-4.9253 4.7672-4.9253 8.6389 0 0.7639 0.6848 1.0272 0.6848 1.7648 0 2.0016-1.2378 2.9499-1.2378 4.9514 0 4.9254 1.6063 7.5593 1.6063 12.511 0 6.0841-1.2905 9.6926-4.2401 14.986-1.6333 2.8973-3.8719 4.3459-3.8719 7.6909v1.4486c4.0825 0.5532 5.5836 4.056 9.6926 4.056 0.6057 0 0.7903-0.869 1.396-0.869 2.5284 0 3.3973 2.4756 5.9261 2.4756 1.396 0 2.1859-0.4478 3.6079-0.5267-0.3157-1.3696-1.3169-1.7648-2.1068-2.8446l0.6848-0.3424 2.1332 1.0536c0.4744-0.3951 0.8694-0.8165 0.8694-1.5013 0-1.3169-0.9747-1.9753-0.9747-3.2923 0-1.6329 0.1053-2.5549 0.1053-4.1879 2.0282-0.2633 3.1609-0.2633 5.1099-0.8692l0.158-0.711c-0.7375-0.5268-1.1852-1.1062-1.5803-1.949 0.4742-0.2635 1.2382-0.316 1.2382-0.8692 0-2.4758-1.9491-3.582-1.9491-6.0578v-2.0544c0.2631 0 0.3949-0.1844 0.6586-0.1844 0.9742 0 1.422 0.8956 2.3966 0.8956h1.3696c0-0.316 0.3423-0.3951 0.3423-0.7112 0-1.3169-1.5011-1.5013-2.1068-2.6602-1.5542-2.7654-4.1617-2.9498-6.0052-5.452 0.4475-0.4477 1.0533-0.6057 1.0533-1.2378 0-2.0281-1.4489-2.8972-1.5802-4.9253 0.3159-0.0527 0.395-0.3688 0.7112-0.3688 2.6074 0 2.7653 3.0554 4.0559 5.2941 0.079-0.3161 0.3427-0.5269 0.3427-0.8693 0-3.3186-2.8184-4.7145-2.8184-8.0331 0-2.107 1.9753-3.6083 4.1089-3.6083h3.608c2.6865 0 5.8474-1.0009 5.8474-3.6874 1e-4 -2.4231-2.7653-2.6864-4.2141-4.5829z" fill="#D52B1E"/>
		<path d="m100.47 1035.4c1.7117 0 3.6871-0.7377 3.6871-2.4758 0-0.9481-1.5011-0.6848-2.1068-1.396-0.7112-0.8429-0.9746-2.0807-1.2383-3.1869-0.3948-0.1316-0.6057-0.3423-1.0532-0.3423-1.2378 0-1.0272 1.7645-1.5806 2.8181-0.5793 1.0535-1.7644 1.4222-1.7644 2.6338 1e-4 1.7383 2.3178 1.9491 4.0562 1.9491z" fill="#D52B1E"/>
		<path d="m41.233 1179.5c0.8955-0.1317 1.4224-0.4478 2.1069-0.8956v2.1334c0.4215 0.1318 0.7112 0.3424 1.08 0.5267 0.9218-0.9216 1.6593-1.2905 2.6339-2.1069-1.5542-1.3696-2.239-2.5811-4.2405-3.5293-0.8692 1.3695-1.3169 2.2388-1.5803 3.8717z" fill="#D52B1E"/>
		<path d="m16.422 1327.6c0 1.791 1.3169 3.4768 3.1345 3.4768 2.291 0 1.9753-3.0815 3.0022-5.1097 1.7122-3.4767 3.345-5.1096 5.2941-8.4545-0.9745-0.8428-1.87-1.238-3.1869-1.238-1.712 0-2.5547 1.1062-4.0562 1.9226-0.2107-1.3958-1.1323-2.1859-2.4492-2.6338-0.0527 0.3162-0.3689 0.3951-0.3689 0.7112 0 0.922 0.7109 1.3696 0.7109 2.2915 0 1.4485-2.0806 1.6593-2.0806 3.1343v5.8996z" fill="#D52B1E"/>
		<path d="m84.059 1503.3c0.4475 1.396 0.6321 3.1606 2.1333 3.1606 1.396 0 1.0535-2.1071 1.0535-3.5294 0-0.7374-0.5266-1.5803-1.0535-2.1071-0.6584-0.1317-1.0801-0.3424-1.7649-0.3424-1.3433 0-2.0808 0.9219-2.6602 2.1071l0.1846 0.7112c0.316 0.0264 0.3948 0.3424 0.7112 0.3424 0.5267 0 0.8691-0.2633 1.396-0.3424z" fill="#D52B1E"/>
		<path d="m16.922 1308.6c0.2631 0 0.3949 0.1843 0.6584 0.1843 1.317 0 1.8436-1.1062 3.0287-1.5802 1.5015-0.6321 2.8711-0.7112 3.7139-2.1334v-1.396c-2.397 0-3.4502-1.5538-5.821-1.949-0.9743 2.555-1.4222 4.1615-1.58 6.8743z" fill="#D52B1E"/>
		<path d="m110.69 1519.4c0 0.553 0.29 0.8689 0.5269 1.3958 1.001-0.2897 1.5803-0.7109 2.6339-0.7109 0.4479 0 0.6321 0.3685 1.0536 0.3685 0.3684 0 0.3948-0.4476 0.7112-0.5267-0.0527-0.8428-0.5793-1.7119-0.8694-2.4757-1.7381 0.0789-4.0562 0.2105-4.0562 1.949z" fill="#D52B1E"/>
		<path d="m33.305 1328.8c1.5537 0.6057 1.8962 2.2915 3.5292 2.2915 2.476 0 2.4232-3.8718 2.818-6.3475-2.502 1.4486-5.2412 1.3959-6.3472 4.056z" fill="#D52B1E"/>
		<path d="m85.475 1405.3c-0.1248 0.0164-0.2244 0.0613-0.3633 0.0613-2.4492 0-3.1604-3.0024-5.636-3.0024-0.6058 0-0.3955 1.1062-0.8694 1.4224-1.3169 0.9216-3.7136 0.6057-3.7136 2.2913 0 1.4487 1.6064 1.8965 1.6064 3.3451 0 2.1071-1.6064 3.0026-1.9491 5.1096 0.3951 0.1317 0.6057 0.3424 1.0536 0.3424 0.7639 0 1.0272-0.6848 1.7648-0.8691 0 0.3159 0.1846 0.4476 0.1846 0.7375 0 0.8427-0.7112 1.2114-0.7112 2.0278v1.475l0.7112-0.3688c-0.2372 0.6323-0.527 1.0537-0.527 1.7649 0 1.0271 0.3951 1.5012 0.6848 2.4757-1.1326 0-2.4496 0.4214-2.4496 1.5802 0 0.7112 0.8694 0.8693 0.8694 1.5804 0 2.1071-2.8184 2.6075-2.8184 4.7145v1.4486c0.316 0.1053 0.5266 0.3688 0.8956 0.3688 1.7118 0 1.7118-2.2125 2.9761-3.345 1.0535-0.9219 2.2654-0.8429 3.7137-0.7112 0.079-0.5002 0.3424-0.7638 0.3424-1.2378 0-0.7113-0.7112-0.9219-0.7112-1.6331v-2.3969c0.0026 4e-3 0.0057 0.0061 0.0083 0.0101l-0.0051-0.0217 4.943-17.17z" fill="#D52B1E"/>
		<path d="m279.17 1549.5c-0.7101-0.1899-1.0499-0.53-1.77-0.53-3.42 0-5.37 0.87-8.7899 0.87-4.4501 0-6.6702-2.8199-11.12-2.8199-6.03 0-9.4299 0.5-15.33 1.95-2.5 0.6-3.74 1.95-6.34 2.11l0.5-120.4c-1.9301-2.5-3.51-4.53-4.3801-8.08-1.8699 2.5-3.9199 3.03-6.71 4.58-2.3699 1.3201-3.77 2.6301-6.51 2.6301-1.76 0-1.95-2.1001-2.6599-3.6801-1.0801-2.5601-2.29-3.8-4.4-5.64-1-0.89-1.26-2.29-2.63-2.29-2.03 0-3.6599-0.11-5.11 1.21-0.4501 0.4001-0.7101 0.8401-0.89 1.3201-0.48 1.34 0 2.95 0 4.74v3.76c0 3.0601-2.77 3.9299-4.75 6.22-1.1 1.29-0.76 3.71-2.47 3.71-3.66 0-5.3501-2.5-7.9301-5.1099-1.16-1.1501-1.37-3-3-3-0.74 0-1 0.71-1.7699 0.71-0.7301 0-1.1801-0.3701-1.9501-0.3701-0.39 0-0.86 0.1401-0.86 0.5601 0 2.3201 3.34 2.5801 3.34 4.92 0 0.61-0.71 0.7899-0.71 1.4 0 1.95 2.8199 1.29 4.7699 1.61 0 2.0499 0.52 3.21 0.52 5.2599 0 2.1401-2.2899 3.1901-4.3999 3.1901-2.29 0-2.9401-2.2899-5.1001-3l-1.2999 7.5c1.64 4.2201 0 7.04 0 11.54 0 1.7899 2.22 1.7899 3.74 2.63 1.24 0.6599 1.74 1.95 3.1901 1.95 4.27 0 6.0299-2.9199 10.04-4.4199 5.37-1.98 8.9-1.74 14.64-1.74 3.27 0 5.64 2.98 5.64 6.24 0 3.53-3.61 4.45-6.6901 6.09-2.6099 1.37-3.7999 2.6801-6.53 3.87-5.51 2.39-8.1399 5.11-14.1 5.8201-0.1801 1.5-0.1801 2.3398-0.1801 3.8398 0 4.8 2.8199 7.2201 2.8199 12.01 0 4.51 4.9 5.25 8.8201 7.41 7.1399 3.9701 11.8 5.16 18.33 10.06 3.16 2.37 7.04 3.42 7.04 7.4 0 1.3099-1.66 1.76-2.9801 1.76-0.6299 0-1.0299-0.23-1.6099-0.3701-0.55 1.22-1.05 1.9-1.05 3.1901 0 0.87 0.45 1.26 0.71 2.11-1.6899-0.85-2.61-1.71-3.53-3.35-0.6599 1.16-0.8699 2.0299-1.95 2.8199l-0.87-3.87c0.4501-1.2899 1.4501-1.58 2.2899-2.66-1.5798-1.58-2.47-2.3699-4.24-3.6899-1.5199-3.13-4.74-2.24-8.0798-2.63-2.79-0.3199-3.77-2.8199-6.53-2.8199-1.8501 0-1.3201 3.5-3.17 3.5-2.84 0-1.76-5.6301-4.58-5.6301-1.74 0-3.1801 0.3101-4.05 1.76-0.66 1.1101-0.64 2.8201-1.95 2.8201-1.8501 0-2.29-1.79-3.72-3-2.8401-2.4299-4.7401-3.37-8.0801-4.9299l0.52-0.7101c1.1899 0.11 1.6399 1.05 2.8199 1.05 0.34 0 0.4-0.42 0.7101-0.52-0.26-1.0599 0.08-1.9301-0.55-2.8199-0.66-0.9501-2.11-1.1101-2.11-2.29 0-2.03 1.98-2.72 2.2899-4.74 1.4301 1.21 2.48 1.76 3.8801 2.97-0.53 0.27-1.4001 0.27-1.4001 0.9 0 1.1 0.4701 2.2899 1.5801 2.2899 1.8201 0 3.87-0.84 3.87-2.6599 0-2.29-1.7101-3.21-2.63-5.27-2.11-4.6899-4.5801-7.27-4.5801-12.43 0-1.7101 2.1001-10.09 1.4202-8.7201-1.24 1.85-1.6301 3.4-3.53 4.4-1.6901 0.9199-4.4301 0.34-4.4301 2.29 0 1.6299 1.2899 2.5599 2.8199 3.1599-0.5499 2.3501-1.26 4.95-3.6899 4.95-1.1 0-1.6799-0.3599-2.73-0.71-0.14 1.1101 0.1 1.71 0.1 2.8201 0 1.84-2.08 2.6399-3.92 2.6399h-3.6399c-2.05 0-2.9001 1.9401-4.98 1.9401-2.1801 0-3.1602-1.58-5.3701-1.58-1.6599 0-2.45 1.0601-4.1299 1.0601-1.9501 0-1.9501-3.1602-3.8801-3.1602-0.97 0-1.5 0.52-2.47 0.52-2.8999 0-3.79-3.1799-6.6899-3.1799-3.0601 0-2.6101 5.47-5.64 5.47-2.26 0-3.26-1.9399-5.5-1.9399-0.9 0-1.37 0.0699-2.27 0.0699-1.1801 0-1.84-0.86-2.4501-1.84 0.6602-0.53 1.0801-0.79 1.9301-1.05-0.4501-0.45-0.87-0.77-0.87-1.37 0-0.58 0.13-0.87 0.15-1.45 0.4-0.13 0.64-0.34 1.08-0.34 1.1899 0 1.6101 1.0499 2.8201 1.0499 1.1899 0 2.8199 0.13 2.8199-1.0499 0-2.98-3.13-3.7201-5.8199-4.9501-0.6301-0.27-0.3401-1.4-1.05-1.4-1.3201 0-1.29 1.66-1.95 2.8201-0.8701-1.1101-1.4-1.95-1.4-3.3501 0-1.6299 1.37-2.1599 2.2699-3.5 0.02 0 0.02-0.0299 0.02-0.0299l-1.6699 0.4301c-2.05-0.4701-2.71-3.2401-5.04-3.2401-2.1599 0-1.37 2.75-1.76 4.9901l-1.1599 0.2899c-2.8101-3.5399-1-8.35-4.6401-11.63 0.1301 1.05 0.4202 1.63 0.4202 2.6799v9.4601l-0.4202 0.6801c-3.0099-5.16-2.6599-8.9501-3.8999-14.77-0.4199 1.8199-0.4 2.8699-1.05 4.58-0.3999-2.5-1.72-3.8199-1.3999-6.35-0.3201-0.0801-0.53-0.3401-0.9001-0.3401-1.5199 0-1.9199 1.98-1.9199 3.53 0 1.3201 0.29 2.03 0.0801 3.3501-0.6602-0.4501-1.05-0.9001-1.8401-0.9001-0.77 0-0.8999 0.9001-1.0601 1.6101l-0.71 0.1599c-1.3699-1.72-2.21-3.22-4.4199-3.5299l-0.16 0.71c2.8199 2.8199 4.2101 5.11 4.2101 8.98 0 0.4501-0.3401 0.6801-0.52 1.08-2.03-1.48-1.77-3.72-3.53-5.48-1.9301 1.29-3.8201 0.24-5.8 1.42-1.24 0.74-0.79 2.11-1.24 3.53 0.27 0 0.4 0.16 0.6599 0.16 0.6602 0 1-0.53 1.6602-0.53h1.48v4.0601c1.3699-0.3201 2.0499-1.2401 3.47-1.2401 1.1899 0 1.85 0.1901 3.03 0.05v4.14c0 1.5-0.97 2.24-0.97 3.74 0 1.34 2.1299 1.34 2.1299 2.6599 0 1.1801-1.24 1.5-1.58 2.6301 2.9 1.45 3.8199 3.98 7.0299 4.24 0-0.26 0.1901-0.3901 0.1901-0.66 0-1.6801-0.5299-2.6-0.5299-4.29 0-2.63 0.9199-4.2699 2.8199-6.16 0.5299 0.79 0.61 1.9501 1.58 1.9501 2.21 0 2.74-2.8199 4.9301-2.8199 1.5499 0 1.63 2.45 3.1801 2.45-0.76 2.29-2.6301 3.1899-2.6301 5.61v4.48c0 1.34-1.3699 1.6-1.95 2.79l0.1799 1.0499h1.3701c2.5599 0 2.95-3.53 5.51-3.53 4.1899 0 6.6899 0.4001 10.56 1.9501l1.24-2.13c1.1801 1.0801 1.9501 2.13 3.53 2.13 1.23 0 1.92-0.39 3.16-0.7101 0.45 2.77 2.3899 3.7401 3.34 6.3501 0.66 1.76 0.24 4.3999 2.14 4.3999 1.4399 0 2.23-0.5299 3.6799-0.5299-1.6599-4.08-4.3999-5.77-5.11-10.22 0.3199 0 0.4-0.3398 0.7101-0.3398 1.72 0 2.24 1.71 3.1699 3.1599 1.3401 2.0801 3.13 2.5 4.42 4.5801 1.2599 2.08 1.7699 4.77 4.21 4.77 1.3199 0 1.3199-1.8701 1.4301-3.1901l0.71-0.34c1.53 3.08 5.63 3.03 5.63 6.35 0 1.71-2.08 2.0499-3.7101 2.45-1.8398 0.5-2.1599 2.7101-4.0599 3-1.3099 0.24-2.42-0.34-3.5199 0.37-1.53 1-1.0801 3.87-2.9801 3.87-2.08 0-2-3.5299-4.0599-3.5299-3.6101 0-4.24 4.6599-4.24 8.2999 0 0.6 0.98 0.34 1.4199 0.6801 1.0601 0.9199 1.64 1.8699 2.98 2.29 1.95 0.6599 2.8701 1.95 4.95 1.95 5.03 0 8.4601-1.97 11.46-6 1.24 2.1599 1.1801 4.6299 3.53 5.47l7.0299-3.1799c0.1101 0.3099 0.3701 0.5199 0.3701 0.8899 0 2.0601-0.92 3.27-2.1301 4.9301l0.1801 1.0499c2.11 0.1901 3.35 0 5.4801 0 0 1.9501 0.8699 4.0601 2.8199 4.0601 1.5 0 2.37-0.3401 3.87-0.3401 4.3201 0 6.87-0.0798 10.93 1.3901 1.24 0.45 1.53 1.77 2.8401 1.77h3.45c5.1699 0 8.01-1.77 13.17-1.77 1.8201 0 2.9302 0.5499 4.6901 0.1099l0.53 0.9701c-4.58 2.2899-7.77 1.92-12.7 2.98-2.6599 0.58-6.3398 0.26-6.3398 3 0 3.85 7.9199 1.98 7.9199 5.8199 0 1.6301-1.5801 2.24-1.5801 3.8701 0 0.8999 0.48 1.3199 0.8701 2.1099 0.6399 1.2401 0.27 2.4801 1.58 2.4801 0.58 0 0.9-0.3199 1.4301-0.53-0.4001 0.84-0.8501 1.29-1.24 2.11v1.23c1.1799 0.1101 1.8398-0.02 3 0.1901 1.8999 0.39 1.1099 3.0299 2.6299 4.24 3.0601 2.3199 6.1901 1.84 8.6401 4.74 1.24 1.4501 1.24 3.87 3.1899 3.87 2.8999 0 4.48-1.21 7.3999-1.21-3.6099-3.27-4.95-6.6101-4.95-11.46 0-0.8401 0.8401-1.42 1.6799-1.42 1.1401 0 1.4501 1.42 2.6101 1.42h5.59l0.1801 0.5299-0.6301 2.11v5.16c0 3.48 3.05 6.11 6.53 6.11 3.3501 0 5.6401-2.24 6.6101-5.45 0.6599 1.58 1.27 3.34 3.03 3.34h4.1599c1.21 0 1.45 1.37 1.98 2.48 0.5801 1.1801 1.76 1.66 1.76 2.9701 0 0.5299-0.26 0.8999-0.37 1.4299 0.3199 0.0801 0.37 0.52 0.7101 0.52 0.9299 0 1.3699-0.87 2.2999-0.87 2.8099 0 1.0499 4.46 2.4701 6.88 0.6599-1.1901 1.1299-2.16 1.45-3.1901 0.3199-1 0.47-2.08 0.47-3.42 0-2.7899-3.5-3.51-3.5-6.2699 0-1.13-1.87-1-2.13-2.11-1.4-5.6301-7.7999-4.6301-13.22-6.71 1.29-1.27 2.8101-0.53 4.5801-1.0601 2.21-0.66 3.37-1.39 5.48-2.29-2.6899-3.37-8.6399-2.45-8.6399-6.74 0-0.79 0.1299-1.27 0.1799-2.0601 0.34 0 0.53-0.1799 0.87-0.1799 2.8199 0 3.58 3.34 6.4 3.34h1.53c-0.03-0.65-0.16-1.0499-0.16-1.71 0-7.6901 2.24-0.9701 3.5 1.9 0.5 1.05 0.24 2.6299 1.4301 2.6299 2.8699 0 4.1799-2.0999 7.0599-2.0999 2.63 0 3.34 3.34 5.97 3.34 1.5599 0 1.4301-2.03 2.11-3.34 1.0801-1.98 3.45-0.9001 5.6899-0.9001 0.53 0 0.8401 0.1602 1.3701 0.1801 0 2.35-0.1801 3.67 0 6.01 0.26-0.4 0.3899-0.9 0.8999-0.9 1.0801 0 1.7101 0.72 2.8101 0.72 4.1899 0 6.3201-4.46 6.3201-8.6399 0-1.79-1.6501-2.3-2.4401-3.88-1.5604-3.1311-2.2204-5.1611-2.4804-8.6311z" fill="#D52B1E"/>
		<path d="m172.19 1552.8c-2.6074 0-3.7402-2.1071-6.3477-2.1071-0.79 0-1.1327 0.6584-1.3958 1.396-0.843-0.2634-1.238-0.8693-2.1335-0.8693-1.9753 0-2.2914 2.6075-2.2914 4.583 0 2.423 3.3184 2.0281 5.6628 2.6338 1.4484 0.395 1.6591 2.1333 3.1605 2.1333 1.6328 0 2.2385-1.2115 3.8716-1.6066 0.2637 1.8174 0.843 2.7391 1.4224 4.4249 0.3948 1.0797 0.3948 2.6338 1.5803 2.6338 1.0535 0 1.1062-1.5541 2.1068-1.7646 1.1591-0.2107 1.8175 0.0525 3.0028 0.1843 0.0527-0.395 0.1843-0.6322 0.1843-1.0271 0-0.8694-0.5793-1.3698-0.8955-2.1599 1.0533-0.79 1.6855-1.3433 2.2915-2.6338l-0.1578-1.4221c-0.7903-0.0264-1.2118-0.1581-2.0018-0.1581-0.8694 0-1.396 0.1581-2.239 0.3422l-1.0532-0.1841c-0.0527-0.6848-0.1846-1.0537-0.1846-1.7385 0-1.4221 2.0281-1.0272 3.1869-1.7646 1.4487-0.9744 1.0536-2.5548 1.5806-4.2404-1.3698 0-2.4232-1.2906-2.2917-2.6339-2.1595 0-3.6608-1.0798-5.8207-1.0798-1.6331 0.6848-2.7656 0.8164-4.3983 1.6066 1.8964 1.5013 3.7399 0.8165 6.1627 1.2379l0.1846 0.6848c-1.6854 0.8429-1.3433 3.5293-3.1868 3.5293z" fill="#D52B1E"/>
		<path d="m115.8 1511.4c0.3159 0 0.395 0.3425 0.7112 0.3425h1.4747c-0.4213-1.8965-0.6058-3.3451-0.6058-5.2941-1.4487 2.5547-3.8716 3.1342-4.5828 6.005 0.3164 0.0264 0.3951 0.3424 0.7112 0.3424 1.0536 1e-4 1.2378-1.3958 2.2915-1.3958z" fill="#D52B1E"/>
		<path d="m157.04 1550.9c0.1582-0.3689 0.5266-0.6321 0.5266-1.0798 0-1.2644-0.5002-2.8182-1.7644-2.8182-1.9491 0-2.8184-1.4487-4.7675-1.5804-2.5021-0.1843-4.4774 1.3169-5.2941 3.7139 0.3162 0.0789 0.553 0.3424 0.8958 0.3424 1.3696 0 1.8171-1.5804 3.1604-1.5804 3.0552-1e-4 4.7675 1.2379 7.2432 3.0025z" fill="#D52B1E"/>
		<path d="m40.89 1106.2c1.3698 0 2.8185-0.7374 2.8185-2.1071 0-0.8954-0.7639-1.6857-1.0533-2.4758-1.5015 0.4479-2.2917 1.0272-3.8719 1.2379v1.4487c-1e-4 1.1061 1.0007 1.8963 2.1067 1.8963z" fill="#D52B1E"/>
		<path d="m43.708 1086.3c1.6329-1.6328 1.5806-3.8716 1.2378-6.1631-1.1851 0.4741-2.0281 1.4487-2.0281 2.7656 0 1.1061 0.0791 1.7646 0 2.8708l0.7903 0.5267z" fill="#D52B1E"/>
		<path d="m37.361 990.33c0 1.1852 0.0524 2.7393 1.2378 2.7393 1.3169 0 1.8435-0.9745 3.0022-1.5804 1.1328-0.6321 3.1609 0.158 3.1609-1.1589 0-2.8972-7.4009-2.8972-7.4009 0z" fill="#D52B1E"/>
		<path d="m45.684 1036.4c-1.106 0-1.7909 0.8956-2.1599 1.9492 0.3163 0.0789 0.369 0.5266 0.7112 0.5266 1.3696 0 2.1599-0.5266 3.5297-0.5266 0.079-0.316 0.2104-0.5796 0.342-0.8955l-1.0532-0.8693c-0.5268-0.0789-0.8431-0.1844-1.3698-0.1844z" fill="#D52B1E"/>
		<path d="m60.091 1000.3c-0.7375 0-0.7112 1.0798-0.869 1.7646 0.7372-0.0264 1.1327-0.158 1.8962-0.158 1.8966 0 2.0281 2.4495 3.7402 3.1606 0.2104-0.6585 0.3423-1.0536 0.3423-1.7646 0-2.2914-2.818-3.0026-5.1097-3.0026z" fill="#D52B1E"/>
		<path d="m65.911 1012.8c-1.1851 0-1.5535 1.2905-1.949 2.3967h2.8447c0.1318-0.5004-0.1846-1.5011-0.1846-2.0279-0.2629-0.0527-0.3947-0.3688-0.7111-0.3688z" fill="#D52B1E"/>
		<path d="m55.877 1035.4c0 0.7374 0.0791 1.1852 0.1577 1.949-0.7371-0.7638-1.3956-1.2378-2.4492-1.2378-1.2378 0-1.2114 1.5011-1.7644 2.6338v1.2379c1.6326 0.1316 2.5811 0 4.2136 0-1.501 0.0791-2.6862 1.0007-2.9758 2.4757 0.4211 0.1581 0.7375 0.3424 1.2114 0.3424 3.582 0 6.3474-1.3696 7.9542-4.5828 0.9481 0.2106 1.3961 0.6321 2.2914 1.0535 0.1316-0.4214 0.3425-0.6584 0.3425-1.1326 1e-4 -3.6611-5.3467-2.2915-8.9814-2.7391z" fill="#D52B1E"/>
		<path d="m63.962 1086.3c1.0803 0 1.6069-0.5793 2.6602-0.7109 0-2.1071-0.3948-3.345 0-5.4521-2.291-0.5004-3.4766-1.3169-5.8207-1.5803 0 1.9229 0.843 2.9501 1.4224 4.741 0.3948 1.2378 0.4212 3.0023 1.7381 3.0023z" fill="#D52B1E"/>
		<path d="m36.65 1337.6c-0.0791 0.4476-0.3428 0.6321-0.3428 1.0797 0 0.7375 1.0012 0.7902 1.7648 0.8693 2.0282 0.316 3.1608 0.0789 5.1097 0.7112-0.7112 1.9226-1.9753 2.8708-2.1072 4.9253 0.2898 0 0.3953 0.3685 0.6848 0.3685 1.4224 0 1.1588-2.1334 2.2915-2.8182 1.7648-1.1587 4.7671-0.4214 4.7671-2.5283v-3.424c0-1.0272 0.7903-1.3696 1.054-2.3441-0.7903-0.1844-1.317-0.1844-2.1072 0 0.1317-0.7112 0.342-1.1853 0.342-1.949 0-2.3706-1.9226-3.8718-4.2139-4.3987 0 0.3162-0.369 0.3951-0.369 0.7112 0 1.8965 2.1072 2.5022 2.1072 4.3984 0 1.1063-0.6848 1.712-0.6848 2.8182 0 0.5267 0.1582 0.922 0.3428 1.4224-1.6597 0.2633-2.9503 0.3424-4.0563 1.5802-1.1326-0.7373-1.8438-1.4221-3.2131-1.4221h-1.3696z" fill="#D52B1E"/>
		<path d="m75.42 1041.9c-1.712 0.395-2.9762 0.3423-4.2145 1.5803 0.7903 1.3169 0.843 2.2915 1.3961 3.6873l0.7112 0.1844c1.1587-1.5277 3.0026-2.1071 3.0026-4.056 0-0.5269-0.7899-0.8693-0.8954-1.396z" fill="#D52B1E"/>
		<path d="m44.051 1100.8c0.8954 1.0535 0.0527 2.5811 1.0536 3.5293 3.1342 2.8972 5.3995 5.2676 9.6923 5.2676 3.8453 0 7.2432-2.95 7.2432-6.769 0-1.2378-1.4224-1.6855-1.4224-2.9233 0-0.7375 0.8956-1.001 0.8956-1.7646 0-2.0544-2.8711-1.6331-4.4247-2.9763 0.8428-1.5012 2.3439-2.0017 2.4757-3.7139l-0.7112-0.1843c-1.317 0.7639-2.2386 1.3433-2.9762 2.6602-2.1333-0.7109-3.3711-1.6855-4.5829-3.5292-0.5795 1.0009-0.8954 1.7119-1.2379 2.8182l1.2379 2.1069c-0.5006 1.9491-1.4747 3.0815-3.1871 4.0562l-0.7109-0.5269 0.527-3.1604c-0.2899-1.8965-1.7914-3.187-3.6877-3.187-2.818 0-3.7135 3.345-3.7135 6.1632-1e-4 1.6064 2.5547 0.948 3.5292 2.1333z" fill="#D52B1E"/>
		<path d="m48.107 1040.7c0.843 2.502 1.9492 3.8716 4.0562 5.4519l0.1846-0.7112-2.1335-2.8181c-0.6849-0.6848-1.3961-1.2117-2.1073-1.9226z" fill="#D52B1E"/>
		<path d="m49.872 1086.7c0.3157 0 0.3948 0.3687 0.7108 0.3687 1.3696 0 0.6061-2.2913 1.5802-3.187 1.3169-1.2378 4.3987 0.1055 4.3987-1.7645 0-1.2115-1.5276-1.3169-2.6339-1.7646 0.3951-0.7375 0.6586-1.1852 1.0536-1.9226-0.9221-0.6322-1.5806-0.922-2.2914-1.7648 0.1315-0.5005 0.3688-0.8955 0.3688-1.4222 0-0.6057-0.4479-1.2115-1.08-1.2115-2.5023 0-2.4496 3.1079-3.6874 5.2676 0.4739 0.3688 1.2378 0.4479 1.2378 1.0536 0 0.5795-0.5266 0.8429-0.5266 1.4222 0 1.9488 0.4212 3.0289 0.8694 4.9251z" fill="#D52B1E"/>
		<path d="m63.436 1052.3c0-0.9216 0.5793-1.3433 0.7112-2.2914-2.3706-0.3951-3.266-2.4493-5.6365-2.4493-3.1345 0-4.3987 2.8181-5.8207 5.6364 0.4479 0.1844 0.7635 0.2633 1.2378 0.3424l4.2405-1.0536 0.6848 0.1844c-0.1318 0.9744-0.5267 1.5012-0.5267 2.4758 0 3.7664 4.1877 4.2667 6.532 7.2166-0.5266 0.3162-0.9221 0.5793-1.4224 0.8693 2.6602 0.8954 4.4246 0.1844 7.0583 1.0533l0.7112-0.158c0-0.2633 0.1846-0.395 0.1846-0.6584 0-0.8954-0.553-1.3695-0.553-2.2651 0-2.4493 0.8164-3.7927 1.0796-6.2421-2.291 0-3.7134-0.1053-5.8206-0.8956-1.1586-0.3951-2.6601-0.5267-2.6601-1.7647z" fill="#D52B1E"/>
		<path d="m51.452 1056.2c-0.79 0-1.0532 0.9484-1.0532 1.7648 0 1.4486 1.8962 1.3959 3.345 1.5803 0.1055-0.7638 0.1842-1.1853 0.1842-1.9491-0.8691-0.6584-1.3697-1.396-2.476-1.396z" fill="#D52B1E"/>
		<path d="m71.548 1040.7c1.58-2.0282 3.3186-2.9238 3.7135-5.4785-0.4475-0.158-0.7639-0.3424-1.2378-0.3424-0.9745 0-0.7903-1.7645-1.7645-1.7645-0.9221 0-1.2905 0.7373-2.1072 1.0533 0.1318 0.6586 0.5266 1.0536 0.5266 1.7648 0 1.0271-1.0532 1.4486-1.0532 2.4758 0 1.185 0.8686 1.7646 1.9226 2.2915z" fill="#D52B1E"/>
		<path d="m63.962 1043c-1.1851 0.2634-2.8181 0.1582-2.8181 1.396 0 1.3696 0.79 2.1333 1.6067 3.187 1.7119-0.8429 1.5278-2.6866 1.2114-4.583z" fill="#D52B1E"/>
		<path d="m55.166 1027.9v-1.3698c-2.0281 0.1318-2.3708 2.8182-4.3989 2.8182-1.2114 0-1.6853-0.9481-2.8441-1.2114-0.1317 0.395-0.3427 0.6057-0.3427 1.0535 0 1.0007 0.5793 2.1069 1.5806 2.1069 0.6321 0 0.7898-0.7109 1.422-0.7109 1.5011 0 1.6593 2.2914 3.1608 2.2914 1.0269 0 1.554-0.5267 2.4756-0.8693l0.5266-0.8954c-1.4482-0.0791-2.2383-0.2108-3.687 0 0.4738-1.396 2.1071-1.712 2.1071-3.2132z" fill="#D52B1E"/>
		<path d="m46.869 1067.6c2.0017 1.9755 3.5032 2.8182 6.1897 3.6873-0.4215-2.5021-1.0272-5.4519-3.5295-5.4519-1.2378 0-1.8699 0.869-2.6602 1.7646z" fill="#D52B1E"/>
		<path d="m51.636 1061.3c0 0.2898-0.1846 0.4214-0.1846 0.7375 0 1.4485 0.7112 2.2385 1.4224 3.4766 0.9749-0.5269 1.2378-1.5803 0.8694-2.6338-0.6848-0.7112-1.2378-1.1589-2.1072-1.5803z" fill="#D52B1E"/>
		<path d="m59.38 1088.6c-0.869-0.7902-1.4484-1.4222-2.6339-1.4222-1.5798 0-3.687 0.1317-3.687 1.7384v1.4486c0.2897 0 0.5266 0.1844 0.8164 0.1844 2.2649 0 3.9246-0.3689 5.5045-1.9492z" fill="#D52B1E"/>
		<path d="m29.96 1046.8l-0.5266-1.0535c-0.3164-0.7903-0.527-1.7649-1.4225-1.7649-0.4214 0-0.6584 0.2108-1.0535 0.3425-0.0527 0.5795-0.1843 0.8955-0.1843 1.4749 0 1.5804 1.2378 2.1334 2.1333 3.4767 0.7376-0.6585 0.9218-1.475 1.0536-2.4757z" fill="#D52B1E"/>
		<path d="m31.54 1348c-0.1315 1.2379-0.0787 1.9491 0 3.187h1.2382l3.0023-1.2379 0.1582-0.7112c-1.6069-0.79-2.6338-1.4485-4.3987-1.2379z" fill="#D52B1E"/>
		<path d="m64.516 1357.6c0-1.4224-0.5796-2.1597-0.8953-3.5293-1.2643 0.5269-2.1073 0.8691-3.5297 0.8691 0.3951 2.4231 1.0536 3.6609 2.1335 5.8207 1.1326-0.869 2.2915-1.6854 2.2915-3.1605z" fill="#D52B1E"/>
		<path d="m56.93 1376.4c-0.1055 0.4214-0.3687 0.6058-0.3687 1.0537 0 1.3169 1.6329 1.3169 2.6602 2.1069 1.3696 1.0535 2.3177 1.9491 4.0823 1.9491h1.3696c0.1055-0.4478 0.3691-0.6322 0.3691-1.0536 0-1.554-2.2126-1.0271-3.5297-1.7646 0.4213-1.3696 1.0536-2.1334 1.0536-3.582 0-0.6584-0.1318-1.0535-0.1842-1.7119-0.7112-0.0791-1.0538-0.1317-1.765-0.1844-0.5531 1.8172-1.7909 3.3976-3.6872 3.1868z" fill="#D52B1E"/>
		<path d="m76.5 1452.5c-0.9479 0-1.2906 0.7637-2.1333 1.0798-0.1316-0.5269-0.6584-1.6331-0.8691-2.1335l-3.5295-1.5801c-0.1318 1.8435 1.5806 2.502 3.0027 3.7136 1.3169 1.0797 2.0281 2.4493 3.7928 2.4493-0.0527 0.8429 0 1.2906 0 2.1334 0 0.2897-0.3688 0.4215-0.4479 0.6848l0.1843 0.7112c0.8693 0.0525 1.3433 0.316 2.1072 0.7111-0.4476 0.8693-0.9746 1.2379-1.4224 2.1072 0.3163 0.1842 0.5005 0.5266 0.8956 0.5266 1.1061 0 1.3698-1.3959 2.4493-1.3959 1.7648 0 2.2654 1.6594 3.8979 2.2915 2.0544 0.79 3.5559 0 5.8207 0.3423-2.0277-2.739-4.7142-2.6865-7.9539-3.8717 0.8427-0.8427 1.6066-1.2906 1.7648-2.4758-0.2637-0.1317-0.3955-0.3422-0.6848-0.3422-0.6321 0-0.9485 0.3422-1.4224 0.7109-0.2637-1.6329-0.7112-2.6074-0.5266-4.2405-0.6321-0.0527-0.9749-0.1316-1.5806-0.1843-0.1055 0.316-0.5266 0.3688-0.5266 0.7112 0 0.8954 0.8694 1.1853 0.8694 2.0807v2.1598h-1.0011c-1.1061 0-1.6327-1.1853-1.6327-2.2915 0-0.8955-0.843-1.1853-1.6069-1.6066 0.6322-0.6058 0.9745-1.08 1.2379-1.9227-0.2894-0.0527-0.3949-0.3686-0.6848-0.3686z" fill="#D52B1E"/>
		<path d="m46.711 1320.8c0 4.5829 1.5276 8.0596 5.7947 10.167 0.2366-1.4486-0.2637-2.5548 0.553-3.6874 0.2897-0.5004 1.2114-0.4478 1.2114-1.0798 0-0.6057-0.0264-0.9482 0-1.5803 0-0.2634 0.1846-0.395 0.1846-0.6584 0-1.1326-0.843-2.5549-1.5806-3.3976-0.3948-0.7902-0.6584-1.7648-1.5802-1.7648-1.7384 0-2.6866 0.7112-4.4249 0.8955-0.0264 0.4477-0.158 0.6585-0.158 1.1062z" fill="#D52B1E"/>
		<path d="m52.163 1315.8c0-1.3434-2.6865-0.4478-3.345 0.6848 0.6057 0.2372 1.054 0.5531 1.7648 0.5531 0.7903 0 1.5802-0.4478 1.5802-1.2379z" fill="#D52B1E"/>
		<path d="m62.224 1449.6c1.7909 0 2.7657-0.5269 4.5829-0.5269l0.3424-0.7112-0.3424-1.4221c-1.08 0.2633-1.7385 0.6321-2.8447 0.7112v-2.8182c-0.3948-0.0527-0.6584-0.1844-1.0532-0.1844-0.7375 0-1.001 0.8955-1.7649 0.8955-1.9753 0-2.9762-1.0535-4.9253-1.4222-2.6074-0.474-6.1631-0.1581-6.1631-2.8182 0-1.0009 0.9219-1.2642 1.2379-2.2386-0.8427-0.0791-1.2906-0.0527-2.1332-0.0527-1.4487 0-2.713-1.3696-2.4497-2.8182-2.5287-0.8428-3.0817-3.2659-5.6365-3.8716l-0.1846 0.7109c2.1073 2.6338 3.9246 4.5829 3.5297 7.9279 0.2633 0 0.3949 0.1844 0.6584 0.1844 0.6057 0 0.843-0.5532 1.4487-0.5532 1.1852 0 1.1324 1.475 1.7645 2.4758 0.9221 1.5012 1.7646 2.3442 2.6338 3.8718 0.5793-0.158 0.7903-0.6848 1.4224-0.6848 1.2378 0 1.7117 1.0009 2.6338 1.7646 2.1072 1.712 3.8717 1.9229 6.3474 3.1606-0.474-0.8429-0.8691-1.3169-1.5801-1.9491 0.2631 0 0.3949-0.1581 0.6586-0.1581 0.7109-1e-4 1.1061 0.5268 1.8172 0.5268z" fill="#D52B1E"/>
		<path d="m46.342 1312.1c-1.396-0.2634-1.3169 1.8174-2.6338 2.4758 0.7112 0.7112 1.2378 1.0535 2.1072 1.396l1.2379-0.1581v-1.2379c-0.1846-0.9743 0.3159-2.2913-0.7113-2.4758z" fill="#D52B1E"/>
		<path d="m56.034 1462.9c0.3164 0 0.3955 0.3688 0.7112 0.3688 0.9221 0 0.843-1.2905 1.4225-1.949 0.7375-0.8691 1.6593-1.2378 2.1072-2.2915-0.2637 0-0.4479-0.1843-0.7112-0.1843-2.0546-1e-4 -2.5548 2.1333-3.5297 4.056z" fill="#D52B1E"/>
		<path d="m79.476 1471.2c-0.7903-1.0536-1.0012-1.8962-1.9227-2.8182-0.1318 0.3953-0.369 0.6057-0.369 1.0537 0 2.2913 0.7112 5.1096 3.0029 5.1096 0.7634 0 1.7644-0.1318 1.7644-0.8693 0-1.2115-1.3169-1.7646-1.7644-2.8446l-0.7112 0.3688z" fill="#D52B1E"/>
		<path d="m81.425 1442.7c0.3157 0 0.3948 0.3424 0.7112 0.3424 0.4739 0 0.6848-0.5793 0.6848-1.0535 0-2.1333-2.3708-2.8708-4.5042-3.1343 1.8177 0.6321 2.9764 1.9227 3.1082 3.8454z" fill="#D52B1E"/>
		<path d="m68.545 1417c-0.4211 0-0.6584-0.2372-1.0532-0.3688h-1.2378c0 4.1879-5.3204 4.978-5.6367 9.1656l0.7112 0.1844c1.0538-1.3695 1.5015-3.0027 3.2134-3.0027 0.6584 0 1.0537 0.1318 1.7122 0.1844-0.4742 1.5013-1.7122 1.8964-2.2917 3.3451l0.7112 0.1843c0.5005-0.5005 0.8958-0.8429 1.4224-1.238l0.1582 0.7112-1.2114 3.1606c0.8687 0.4478 1.4747 0.3688 2.4492 0.3688 2.0808 0 2.0808-2.5548 3.0022-4.4248-0.9741-0.4742-1.7117-0.922-2.1068-1.9227 0.4742-0.1844 0.869-0.3689 1.396-0.3689 2.0278 0 2.2914-2.7126 2.2914-4.7408 0-0.9745-0.7375-1.8699-0.8694-2.8182-0.9217 0.6849-1.4485 1.5805-2.6604 1.5805z" fill="#D52B1E"/>
		<path d="m27.853 1292.7l-1.7645-0.3424c-0.9749 1.6594-1.8174 2.5547-3.345 3.6873-0.8167-1.6329-0.8167-2.7391-1.7648-4.2141h-1.0536v2.1599c0 1.7909-0.0527 4.3457 1.7384 4.3457 1.0272 0 1.5011-0.5266 2.5287-0.5266 0.9741 0 1.5012 0.0789 2.4492 0.1841-0.2635 2.4233 0 3.7402 0 6.1633 0 1.5802-1.7908 2.1069-1.7908 3.7136 0 0.4214 0.342 0.6058 0.342 1.0536 0 1.712-1.0005 2.5548-1.396 4.214 2.1072-1.2378 1.6333-3.6873 3.5295-5.2676 2.1599-1.8699 4.7411-3.0024 4.3984-5.8207 0.2635 0 0.3954 0.1581 0.6584 0.1581 1.0012 0 1.5278-0.6584 2.3445-1.2117-0.2637-0.4478-0.6584-0.8955-1.2383-0.8955-1.4484 0-2.1332 0.8955-3.3446 1.5803-0.1055-0.2897-0.527-0.3424-0.527-0.6848 0-0.5793 0.3424-0.8955 0.527-1.4222-1.4751-0.7112-3.3715-1.0009-3.3715-2.6339 0-1.2115 1.0797-1.6855 1.0797-2.8708v-1.3696z" fill="#D52B1E"/>
		<path d="m28.011 1191.5c0 2.871 2.7921 4.3195 5.6362 4.7672l1.0276-0.1843c-0.1318-0.8429-0.0527-1.2905 0.0527-2.1072-2.6075-0.3159-3.3978-2.5283-4.952-4.5828-0.7898 0.6058-1.7645 1.0536-1.7645 2.1071z" fill="#D52B1E"/>
		<path d="m23.955 1197.4c0 0.2897-0.1582 0.4476-0.1582 0.7374 0 1.8174 2.1863 2.0017 2.8184 3.661 0.7112 1.9755 1.3696 3.0553 2.2915 4.9253-0.5006 0.1055-0.8955 0.1844-1.4221 0.1844l-0.1582 0.7112c1.9227 1.5273 1.6594 3.6083 2.4493 5.9786l0.7112 0.1844c1.7648-1.9491 4.2408-2.6075 4.2408-5.1887 0-2.0808-2.8184-2.4231-2.8184-4.5039 0-0.3159 0.2896-0.3949 0.3423-0.7109h1.3958c-0.4739-2.0544-1.7118-2.9501-2.976-4.583-1.0536 0.6323-1.7648 1.0536-3.0026 1.0536-1.7121 1e-4 -2.1071-1.791-3.7138-2.4494z" fill="#D52B1E"/>
		<path d="m37.176 1186.4c-0.2897-0.0789-0.3424-0.5267-0.6848-0.5267-2.2126 0-4.2405 1.5013-4.2405 3.6874 0 1.6331 1.0537 2.6075 2.4761 3.3451h1.3956c0.0527-0.6058 0.1842-0.9484 0.1842-1.5804 0-0.7109-0.895-0.9218-0.895-1.6329v-1.1852c0.9214-0.4479 1.6062-1.0536 1.7644-2.1073z" fill="#D52B1E"/>
		<path d="m14.446 1212.7c0.3951 0.0525 0.6057 0.1843 1.0272 0.1843 2.5548 0 2.9762-2.9236 5.5046-3.5294 1.0536-0.2633 2.1068-0.8429 2.1068-1.949 0-1.5277-1.7644-2.0282-1.7644-3.5558v-1.3695l-0.7112-0.5267c-1.4487 1.6329-0.342 3.4766-0.8691 5.6365-0.7111 2.8181-3.9242 2.6074-5.2939 5.1096z" fill="#D52B1E"/>
		<path d="m32.251 1390.7c-1.5011 0.8164-3.1871 1.2644-3.1871 2.9763 0 1.1061 1.6333 0.7639 2.476 1.4224 0.9746 0.79 0.9746 1.949 2.0281 2.6338 0.2634-1.1853 0-1.9229 0-3.1606 0-1.9753 2.2124-2.6074 2.2124-4.5828-1e-4 -1.4224-2.2916 0.0524-3.5294 0.7109z" fill="#D52B1E"/>
		<path d="m27.484 1218.1c-0.6584-0.6586-1.1853-1.2117-2.1072-1.2117-1.949 0-2.2917 2.4495-2.2917 4.3986 0 0.8428 0.5797 1.3169 1.2383 1.7646-0.7113 0.4741-1.1064 0.9746-1.4221 1.7646 1.8171 1.001 1.6853 2.7128 3.1868 4.2141-0.843 0.1316-1.2905 0.1316-2.1335 0-0.0791 0.316-0.3424 0.5269-0.3424 0.8955 0 1.791 2.1595 1.8962 3.7137 2.8182 0.3425-1.1588 0-1.9491 0-3.1869 0-2.1599 1.7382-3.1079 1.7382-5.2678-1e-4 -2.2648 0.1845-4.767-1.5801-6.1892z" fill="#D52B1E"/>
		<path d="m10.759 1215.7c-0.8953 0-1.4224 0.8428-1.4224 1.712v4.2667c0.8694 0.8956 1.2378 1.949 2.4761 1.949 2.0281 0 3.0817-1.1851 4.7407-2.2913l0.7112 0.5267c-1.1061 2.2386-3.6082 2.3705-4.3984 4.7672 0.3949 0.0264 0.6586 0.158 1.0533 0.158 1.1063 0 1.4224-1.0007 2.2917-1.5802 1.8964-1.2643 4.0563-1.6329 4.5829-3.8717l-0.5266-2.1072c-0.5271 0.0791-0.8958 0.1317-1.4224 0.1581 0-0.2633-0.1582-0.3951-0.1582-0.6584 0-0.5793-0.2634-1.3959-0.1846-1.9755-1.0532-0.5267-1.6327-1.0535-2.8181-1.0535-1.0272 0-1.4484 0.6848-2.476 0.6848-1.0004 1e-4 -1.4482-0.6847-2.4492-0.6847z" fill="#D52B1E"/>
		<path d="m19.029 1195.9l-1.0535 0.7112-0.5266 0.7112c-0.5267 0.7112-0.7639 1.1062-1.4224 1.7646-0.1582-1.1589-0.0791-2.6603-1.2379-2.6603-0.8167 0-1.2115 0.922-1.2115 1.7649 0 2.5547 0.6058 4.0033 1.5803 6.3474 0.79-0.9218 1.0009-1.791 1.7648-2.8182 0.2631 0.4478 0.3422 1.0536 0.869 1.0536 0.8955 0 1.1851-0.8428 1.5803-1.5803l-0.1582-1.4222-0.1843-3.8719z" fill="#D52B1E"/>
		<path d="m22.48 1212.8c1.054-0.158 1.7388-0.3424 2.7129 0l0.1846-0.79c-0.7112-1.3959-1.3696-2.4231-2.8975-2.6339v3.4239z" fill="#D52B1E"/>
		<path d="m12.155 1251.6c0.6584 1.3696 1.1852 2.2124 1.9491 3.5293 4.3195-1.554 5.0568-5.0833 8.2703-8.2966 1.9491-1.9226 2.1595-3.7927 3.0026-6.3474 0.5266-1.6594 1.949-2.4233 1.949-4.2142 0-0.5269-0.1317-0.8954-0.1844-1.4222h-1.027c-1.6333 0-1.9226 2.1071-3.5559 2.1071-1.0532 0-1.1587-1.3434-2.1072-1.7383-0.895-0.3688-2.1333-0.4479-2.1333-1.4224 0-2.6864 2.6603-3.661 2.6603-6.3475 0-0.4476-0.3688-0.7112-0.527-1.0535-3.3711 1.6855-4.7144 2.2914-8.2964 2.2914-0.0527 0.3951-0.1844 0.6584-0.1844 1.0536 0 1.5802 1.8175 1.949 3.3713 2.2914-3.0023 1.712-5.2941 3.6083-5.2941 7.0587 0 1.9226 1.6333 2.5549 2.8184 4.0559-0.922-0.1316-1.4224-0.2632-2.2917-0.5266 0.3164 2.0281 1.7651 2.8972 1.7651 4.9253 0 1.001-0.8958 1.4486-0.8958 2.4758-1e-4 0.7372 0.3688 0.8689 0.7111 1.5802z" fill="#D52B1E"/>
		<path d="m53.585 1400.6c0-0.7902-0.316-1.2643-0.7112-1.9227-0.9745 0.8693-1.5538 1.3696-2.4756 2.2914 0.3159 0.3162 0.4475 0.7112 0.8954 0.7112 0.9481-1e-4 2.2914-0.1053 2.2914-1.0799z" fill="#D52B1E"/>
		<path d="m68.914 1411.5c-0.7639 0-1.1854 0.5005-1.7648 0.8955 0.316 0.7374 0.5793 1.5803 1.3956 1.5803 0.843 0 1.2905-0.0527 2.1335 0l0.1582-0.8693c-0.079-0.9744-0.9484-1.6065-1.9225-1.6065z" fill="#D52B1E"/>
		<path d="m68.914 1396.3c-0.8958-1.0537-2.3445-0.9746-2.8184-2.2915-1.0273-2.739-2.5283-4.3721-5.2941-5.2939 0 0.2634-0.1844 0.4478-0.1844 0.7112 0 2.6338 2.1335 3.8716 2.1335 6.5055 3.9507 0 5.9788 3.1342 7.7432 6.7162l0.3428 0.6848c-0.4214-2.8182-0.1318-4.8727-1.9226-7.0323z" fill="#D52B1E"/>
		<path d="m56.404 1405.7c0 3.4502 1.9226 5.2151 1.9226 8.6389 0.3685-0.0264 0.5267 0.1844 0.8955 0.1844 1.1063 0 1.2642-1.3696 1.7648-2.2914 0.7899-1.4486 1.7118-2.2125 1.9227-3.8718 2.0281 0.1316 2.9497 1.396 4.7673 2.2914 0.342-1.1588 1.2378-1.7645 1.2378-3.0024 0-1.712-1.686-2.1598-3.0029-3.1605-1.6326-1.2906-2.2383-2.397-4.2401-3.3715-0.0791 0.316-0.527 0.3688-0.527 0.7112 0 0.9745 0.7112 1.4486 0.7112 2.4231v1.4486c-0.7375-0.395-1.0536-1.2114-1.9226-1.2114-0.5533 0-0.8955 0.2104-1.4224 0.3423v0.8691l0.3424 0.7112c-0.7375-0.5269-1.1852-0.8693-1.9227-1.3959-0.1055 0.2897-0.5266 0.3422-0.5266 0.6847z" fill="#D52B1E"/>
		<path d="m67.15 1453.1c1.2378 0.9219 0.9745 2.3177 2.1068 3.345l0.1846-0.7112c-1.0272-2.0278-1.4487-4.3984-3.7137-4.3984-0.3951 0-0.6586 0.1316-1.0536 0.158 0.395 1.0536 1.5806 0.9218 2.4759 1.6066z" fill="#D52B1E"/>
		<path d="m52.69 1383.6c-0.9218-1.8962-0.7112-4.5829-2.818-4.5829-0.5798 0-1.2383 0.316-1.2383 0.8693 0 1.4221 1.4224 1.8174 1.7649 3.1868 0.4475 1.7122 0.0527 3.2922 1.4224 4.3987 1.7644 1.4221 3.6079 0.9744 5.4519 2.2914l0.7108 0.1844c-0.3422-0.922-1.0533-1.4487-1.0533-2.4758 0-0.5269 0.3425-0.8693 0.3425-1.396 0-2.0282-3.6875-0.6585-4.5829-2.4759z" fill="#D52B1E"/>
		<path d="m41.074 1309.1c-0.5793 1.8173-1.2378 2.8181-1.2378 4.7144v1.4751c2.2915-1.5012 5.7679-2.5284 4.7411-5.1096-1.3171-0.4479-2.1073-0.8429-3.5033-1.0799z" fill="#D52B1E"/>
		<path d="m69.783 1388.9c-0.3424 0.8693-1.396 1.1326-1.396 2.1071 0 1.2379 1.2382 1.5013 1.923 2.4758 0.5002-0.3688 0.79-0.6321 1.2378-1.0535-0.6584-1.0272-1.054-1.6857-1.396-2.8182l-0.3688-0.7112z" fill="#D52B1E"/>
		<path d="m57.641 1357.7h-2.1335c-0.0264 0.2633-0.342 0.395-0.342 0.7111 0 1.2905 0.9214 1.8438 1.3958 3.0026 0.3159 0.7902 0.3687 1.9227 1.238 1.9227 0.9215 0 1.7645-0.6584 1.7645-1.5803-1e-4 -1.7121-0.5268-3.1343-1.9228-4.0561z" fill="#D52B1E"/>
		<path d="m65.569 1382.4c-0.3164 0.9744-1.0537 1.4485-1.0537 2.4757 0 1.1852 0.553 2.4758 1.7385 2.4758 0.4475 0 0.6321-0.3688 1.0796-0.3688 0.4215 0 0.6584 0.3688 1.0536 0.5269 0.0791-0.2899 0.527-0.3425 0.527-0.7112 0-2.1598-1.6333-3.1079-3.345-4.3984z" fill="#D52B1E"/>
		<path d="m43.34 1351.9c-1.5803 0.7902-2.8445 0.5267-4.2141 1.5802-1.1587 0.8693-0.5793 2.8182-1.949 3.345-1.8435 0.7375-3.9243 0.9746-4.2144 3.0027 1.3169-0.1055 1.7124-1.6067 3.0293-1.6067h1.3696c-2.3445 1.7383-4.188 3.2396-4.3989 6.1895 1.4487 0 1.9753-1.2905 2.9766-2.2913 1.2378-1.238 2.4229-1.5542 3.3713-3.0027 1.0796-1.7646 1.0532-4.3984 3.1604-4.3984 1.1852 0 1.7118 0.6848 2.8185 1.0535 0-0.2634 0.184-0.395 0.184-0.6584 0-0.6321-0.3685-0.8955-0.5267-1.4751-0.1842-0.8166-0.9743-1.2116-1.6066-1.7383z" fill="#D52B1E"/>
		<path d="m27.484 1363.7c1.0533-1.5012 1.5012-2.6865 3.1869-3.5292-1.2378-1.2379-2.1599-1.8436-3.0026-3.3451-0.2634 1.8438 0.1842 3.3977-1.2382 4.5829-0.9215 0.7375-2.2911 0.9745-2.2911 2.1862 0 1.2114 0.8955 1.7383 0.8955 2.9236 0 2.5021-3.1873 3.0815-3.1873 5.5836v0.9481c0.3164 0.0791 0.3428 0.5269 0.7112 0.5269 2.8711 0 3.6875-3.5031 3.6875-6.3474 0-0.7112-0.3425-1.0537-0.3425-1.7649 1e-4 -0.9218 1.0538-1.0271 1.5806-1.7647z" fill="#D52B1E"/>
		<path d="m42.655 1405.3c0-1.9753-3.0557 0.7903-4.9519 1.4224l-1.396-0.7112-0.3684 0.7112c1.6066 1.1853 2.8444 1.396 4.2405 2.8184 0.8425-1.6859 2.4758-2.3444 2.4758-4.2408z" fill="#D52B1E"/>
		<path d="m50.925 1350.3c-0.8691-2.4233-2.8445-2.8446-4.5829-4.7411-0.2897 0.2108-0.553 0.4741-0.553 0.8693 0 1.1853 0.0264 1.8174 0.0264 3.0026 1.5011 0 2.265 1.0535 3.7399 1.0535 0.5266-1e-4 0.843-0.0791 1.3696-0.1843z" fill="#D52B1E"/>
		<path d="m29.775 1387.9c0.5795-2.0017 1.6333-3.582 1.9491-5.6627 0.1846-0.6058 0.5269-0.9481 0.5269-1.6066v-1.3696c-0.316-0.1053-0.5269-0.3689-0.8954-0.3689-1.4751 0-2.9766 0.9746-2.9766 2.4758 0 2.4758 0.1318 3.9772 0.6848 6.3477l0.7112 0.1843z" fill="#D52B1E"/>
		<path d="m36.834 1398.3l0.7112 0.1843c1.08-2.8181 0.4215-4.9252 2.1068-7.401 1.0012-1.5013 2.4233-1.7645 3.3451-3.3448-1.2643 0.1843-1.9491 0.5266-3.1605 0.8691v-2.1072l-0.8958-0.5267c-0.4475 2.8182 0.5271 4.5829-0.342 7.2167-0.6585 2.0017-1.6333 3.0026-1.7648 5.1096z" fill="#D52B1E"/>
		<path d="m42.997 1399.2c-1.7645-0.7112-3.2133 0.7375-4.5829 2.1072l0.7112 1.4221c1.949-0.6321 2.6865-1.949 3.8717-3.5293z" fill="#D52B1E"/>
		<path d="m38.335 1378.7c-0.0527-0.8954 0-1.4222 0-2.2915 0-1.7645-2.3965-1.949-4.135-1.949 0 0.3425-0.1841 0.5269-0.1841 0.8693 0 1.8173 1.7117 2.265 3.0022 3.5292l1.3169-0.158z" fill="#D52B1E"/>
		<path d="m163.55 779.28c0-2.944-1.25-5.0568-2.5134-7.1608v10.258c1.4547-0.5534 2.5134-1.4572 2.5134-3.097z" fill="#fff"/>
		<path d="m280.94 184.09c-2.8447 0.9478-5.0571 2.186-7.2958 3.1868-2.239 0.9745-4.5038 1.7381-7.5067 1.7381-1.6853 0-3.134 0.3164-4.24-0.8951-1.6333-1.7387-1.1328-3.6877-1.9231-5.9788-1.2378-3.6087-1.949-5.7419-2.476-9.5084-0.7108-4.9513-0.3948-8.0858-2.2911-12.695-1.1062-2.6602-2.4231-4.0035-2.6338-6.8743-0.6321-8.1124-2.8184-12.352-3.7137-20.438-0.3424-3.5032 0.3951-6.7427-2.476-8.639-4.1614-2.792-10.219-3.055-10.219-8.1121 0-0.9745 0.9741-1.2382 1.6062-1.9493 1.0012-1.3693 2.1599-2.1593 3.5033-3.1605-3.7662-3.7926-9.1656-4.8989-9.1656-10.219 0-1.8966 2.4756-2.3445 2.4756-4.2407 0-3.1605-1.4487-4.9777-3.687-7.2167 0.553-0.5794 1.0005-0.8954 1.7908-0.8954 0.9745 0 1.5015 0.1843 2.4756 0.1843 1.7124 0 2.6338-0.4476 4.3462-0.7112-0.3954-4.7935-2.7656-7.1903-5.9788-10.746l9.1656-10.404c-2.9502-5.9521-9.0865-5.1094-13.406-10.035-1.0797-1.2905-2.6339-1.7648-2.6339-3.4765v-5.5577c0-2.739-1.3696-4.0558-2.6339-6.4791-2.1594-4.1086-2.1331-6.9266-3.1868-11.457-0.3948-1.8439-1.5802-2.6862-1.5802-4.5828 0-1.712 1.7648-2.3442 1.7648-4.0559 0-1.4487-2.1599-0.843-3.5295-1.2382-2.2915-0.7108-4.0034-1.8962-4.5829-4.2404-1.106-4.4774-2.423-6.5845-4.5829-10.904-2.8971 1.4484-4.1876 3.5029-7.4011 3.5029-1.106 0-1.7118-0.5267-2.8181-0.5267-0.316 0-0.4478 0.316-0.7108 0.3688 0.3948 4.5829 1.0532 7.1639 1.0532 11.8 0 7.0852-7.1639 11.273-14.275 11.273-1.5278 0-2.7393 0.3688-4.188 0.8427 1.3433 2.2917 1.7384 4.978 1.7384 8.1651 0 1.9754-0.7112 3.0814-0.7112 5.0568v4.6619c0 2.2914 1.1063 3.5296 1.396 5.7679 0.5266 3.7665 0.1052 5.9261 0.5266 9.719 0.6584 5.6365 3.1873 8.6127 3.1873 14.276 1.5273 4.6092 2.6338 7.2958 2.6338 12.142 0 6.4531-3.5295 9.7454-3.5295 16.172v4.5038c0 7.5327 3.9243 11.405 3.9243 18.937v8.7445c0 1.2642-1.0532 1.7381-1.4487 2.9499-0.9741 2.9762-0.1838 5.0043-0.8687 8.0857-0.8958 3.898-1.9491 6.0579-1.9491 10.009v3.6083c0 6.1367-0.5797 9.6663-1.9493 15.645-0.869 3.9771-0.9218 6.3473-2.1069 10.219-0.5793 1.8963-0.3163 4.5829-2.2916 4.5829-1.5011 0-2.0282-1.3433-3.5289-1.58 0 3.2132-2.9766 4.5038-2.9766 7.717 0 2.502 0.1582 3.7134 0.1582 6.2158 0.1055 0.5269 0.1318 0.869 0.1846 1.3956 1.3169-0.6844 1.4484-2.6338 3.0022-2.6338 2.3179 0 2.9763 2.9502 2.9763 5.294 0 5.1889-3.6084 7.6121-3.6084 12.827v11.009c0 5.0571-2.3701 7.7433-2.3701 12.827 0 8.0593 4.9248 11.984 4.9248 20.043v4.8465c0 1.9226-0.6848 3.1341-1.7644 4.7147-0.7375 1.1323-0.8694 2.8181-2.2917 2.8181-1.0532 0-1.3958-1.2382-2.4492-1.2382-0.9219 0-0.6321 1.3696-0.6321 2.2917 0 4.0562-2.0281 6.1631-2.0281 10.219 0 2.5287 3.1868 3.1345 3.1868 5.6368 0 2.8705-1.2378 4.3719-1.2378 7.243 0 3.1605 0.4478 5.004-0.1843 8.1121-0.9218 4.6092-2.7656 6.6897-3.6874 11.457-0.6584 4.741-0.1318 7.6906-1.7645 12.142-0.8258 2.2802-2.5745 3.4607-3.4092 5.2701v5.1572c0.5151 1.7903 1.2756 3.3387 1.2756 5.6127 0 1.8175 0.843 3.4505-0.5266 4.5828-0.2466 0.2056-0.4976 0.3688-0.749 0.5182v334.1c0.1818 0.0503 0.3728 0.0877 0.5908 0.0877 2.5021 0 2.7656-3.7138 5.2677-3.7138 0.7112 0 1.0797 0.3688 1.7645 0.3688 0.9749 0 1.7646-0.7901 1.7646-1.7646 0-3.3978 1.7649-5.0571 2.2915-8.4547h2.0808c1.3696 0 1.8435 1.1852 3.2131 1.396 0.7112-2.1072 0.8694-3.4767 0.8694-5.7156 0-1.5538-0.6848-2.423-0.6848-3.9771 0-1.9754 1.7645-2.7655 1.7645-4.7673 0-2.2914-1.9491-3.2396-1.9491-5.5309 0-2.0281 0.7112-3.187 0.7112-5.215 0-0.8165-0.7112-1.238-0.7112-2.0544v-5.0306c0-2.2125-2.0281-2.7655-3.345-4.5303 4.0562-3.0552 5.1099-6.4001 6.5055-11.299 0.6322-2.107 1.9491-2.9763 2.476-5.1096 1.0537-4.3195 1.554-6.8217 3.345-10.93 1.1592-2.6339 3.0027-3.9507 3.0027-6.8743 0-1.0798-0.7112-1.7119-0.7112-2.8182 0-0.2897 0.316-0.395 0.3688-0.6849 2.9498 0.2899 7.2167 0.6585 7.2167-2.2914 0-8.1649-2.1069-12.695-2.1069-20.86 0-0.6057 0.0789-0.9218 0.158-1.5276 0.8163-3.2659 2.6599-5.294 2.6599-8.6389 0-3.6083-3.1342-4.8989-3.7136-8.4547-0.8694-5.3729 0-9.0076-2.6338-13.748-1.5802-2.9237-4.7673-3.8455-4.7673-7.1905v-3.9769c0-5.3204-4.2137-7.2958-5.1095-12.643-1.1061-6.7426-2.1863-10.404-4.5829-16.725-0.9221-2.5549-3.1604-3.582-3.1604-6.3213v-4.6617c0-3.2134 0.8427-5.0307 1.0532-8.2439 0.1318-2.3442-0.2633-4.2142 1.396-5.8209 0.9746-0.8692 2.2651-0.0789 3.5295-0.5268 1.7645-0.6584 1.6854-2.5547 1.9491-4.3984 1.3169-9.2184 2.3439-14.486 6.5055-22.914l2.0281 0.3424c4.0559-0.4213 8.033-2.5547 8.033-6.611 0-3.1078-2.3705-4.3193-3.3447-7.2956l1.2378-4.0562c-0.4478-3.661-2.2916-5.4782-2.2916-9.1129v-3.4503c0-2.6076-2.6603-3.5294-2.6603-6.1369 0-1.7384 1.4224-2.423 2.1335-4.0298 0.7375-1.7381 0.5267-3.4505 2.1072-4.4247 1.2643-0.7903 3.0815-0.1582 3.5293-1.5806 0.79-2.6075 0.0264-4.3983 0.6848-7.0585 0.5006-2.0545 2.2915-2.8184 2.2915-4.9252 0-1.5012-1.2114-2.2123-1.2114-3.6874 0-2.7393 2.4492-3.7135 2.9758-6.3473 0.4479-2.1336-0.1578-3.4505 0-5.6631 1.1063-0.1315 2.0017 0.2636 2.8184-0.3421 1.2114-0.9221 0.6321-2.5023 1.7644-3.5295 0.843-0.7375 1.7651-0.4212 2.8185-0.8691 2.8711-1.2382 2.2914-4.3723 3.5295-7.243 0.5004-1.1854 1.9755-0.9481 2.818-1.923 2.0806-2.3965 3.1345-4.0031 3.8981-7.0585 1.5802-6.3473 4.2668-9.2448 6.5055-15.329 0.7639-2.0806-0.3951-3.5817 0.3424-5.6362 0.6848-1.7648 1.7384-2.4232 2.6603-4.0562 2.1072 0.7112 2.8975 2.4756 5.1094 2.4756 4.1353 0 6.7955-1.2906 9.877-4.0559 0.2637-1.0536 0.8694-1.8966 0.8694-3.0026 0-1.8962-1.396-2.6865-2.4757-4.2404-2.1599-3.1608-3.2924-5.0043-5.7946-7.9279-1.1064-1.2642-2.8181-1.6329-2.8181-3.345 0-6.1104 7.5588-7.6118 7.5588-13.748 0-4.6356-2.2385-6.927-3.1605-11.457-1.027-4.8992-0.9218-7.796-2.4757-12.511-0.5793-1.8172-1.9226-2.6339-1.9226-4.5828 0-1.5015 1.4749-1.949 2.291-3.1605 1.2119-1.8702 2.0018-3.8984 4.2672-3.8984 0.7903 0 1.2642 0.1055 2.0544 0.1055 0.1051-0.7639 0.1842-1.1591 0.1842-1.8966 0-4.8458-6.1631-6.0313-6.1631-10.904 0-8.7972 7.0586-13.907 15.513-16.382 6.374-1.8439 10.22-2.3708 16.382-5.1098 2.6078-1.1327 3.5295-3.2923 6.348-3.5292l11.799-38.586c-2.1601-3.0024-4.2674-3.9769-7.2169-6.1629z" fill="#fff" stroke="#000" stroke-miterlimit="10"/>
	<polygon points="152.7 737.54 123 737.54 113.82 709.29 104.64 737.54 74.936 737.54 98.966 755 89.787 783.25 113.82 765.79 137.85 783.25 128.67 755" fill="#fff"/>
</svg>