<?xml version="1.0" encoding="UTF-8"?>
<svg enable-background="new 0 0 2022.617 1666.676" version="1.1" viewBox="0 0 2022.617 1666.676" xmlns="http://www.w3.org/2000/svg">
 <path d="m42.615 472.29c-1.348 0-1.464 1.618-2.157 2.774 0.308 0.155 0.539 0.462 0.924 0.462 1.927 0 2.852-0.924 4.778-1.387-1.116-1.116-2.003-1.849-3.545-1.849zm1.234 5.087c-5.527 0-2.099 2.451 1.54 4.624 0.925 0.539 1.234 1.54 2.312 1.54 1.735 0 2.428-1.27 4.162-1.54-1.156-1.156-2.929-1.311-2.929-2.929 0-0.385 0.462-0.539 0.462-0.924s-0.307-0.578-0.462-0.924c-0.924 0.231-1.502 0.616-2.466 0.616-1.039-1e-3 -1.578-0.463-2.619-0.463zm14.488 0.924c-0.607 0-6.377 4.936 0 1.85 0.848 1.194 0.809 3.083 2.312 3.083 0.809 0 1.194-0.655 1.849-1.079-0.808-2.042-1.964-3.854-4.161-3.854zm43.002-4.007l-0.463 0.617c1.696 1.695 1.426 3.43 2.467 5.549 0.27-0.732 0.501-1.194 1.078-1.695 0.425 0.886 0.694 1.464 0.771 2.466 0.732-0.27 1.156-0.54 1.85-0.926-1.504-3.044-3.121-4.084-5.703-6.011zm12.33 15.259c-0.54 0.347-0.771 0.77-0.925 1.387 1.233 0.617 1.85 1.233 3.083 1.85l0.154-0.617c-0.771-1.079-1.349-1.657-2.312-2.62zm41.152 74.598c1.156 1.54 1.965 2.427 3.545 3.544-0.193-1.31-0.771-1.964-1.388-3.082-1.963-4.863-3.031-7.237-2.157-0.462zm-38.994-56.103l-0.308 0.616 3.083 2.158c0.146 0.587 0.462 0.794 0.462 0-1e-3 -1.656-1.619-2.388-3.237-2.774zm-15.414-11.559c-0.654-0.347-1.118-0.617-1.849-0.771 0.307 0.924 0.924 1.465 1.849 1.695-0.076-0.462 0.117-0.501 0-0.924zm84.154 116.67l-1.849-0.154c-0.193 0.115-0.385 0.232-0.617 0.309 2.427 1.387 3.777 2.351 6.011 4.007l0.155-0.617c-0.886-1.579-2.004-2.851-3.7-3.545zm33.292 47.471c-0.462-0.038-0.771-0.077-1.233-0.154-0.04 0.232-0.309 0.347-0.309 0.617 0 2.119 2.774 2.042 3.892 3.853 0.154-1.425-0.04-2.273-0.04-3.699-0.768 0.039-1.539-0.577-2.31-0.617zm-5.548-0.616c0.424 0.27 0.694 0.771 1.233 0.771 1.079 0 1.465-1.079 2.466-1.388-0.771-1.194-2.735-0.462-3.699 0.617zm24.198 20.46v1.272l0.616 0.154c0.232-0.924 0.462-1.503 0.617-2.467-0.501 0.271-1.233 0.426-1.233 1.041zm-3.083 11.29c-5.087 0.848-6.011 6.474-6.011 11.56 0 2.814 2.658 3.7 5.085 5.086 0.463-1.965-0.771-3.198-0.771-5.24-0.424-0.038-0.654-0.154-1.078-0.154-0.848 0-0.887 1.041-1.541 1.54l-0.617-0.154c0-0.232-0.154-0.346-0.154-0.578 1e-3 -5.047 1.966-8.129 5.087-12.06zm-9.864 22.503c0 2.042 0.771 3.237 2.157 4.778 0.579-0.424 0.849-0.886 1.079-1.541 2.774 2.774 4.932 3.699 8.632 4.624l0.616-0.155c-1.618-3.93-6.512-3.043-8.63-6.782-0.501-0.924-1.696-1.079-1.696-2.157 0-2.197 2.929-2.582 2.929-4.778 0-1.311-1.734 1.271-2.466 2.311-1.003 1.427-2.621 1.927-2.621 3.7zm16.299 6.782c-1.118 0-1.773 0.154-2.891 0.038l0.85 1.294c0 1.464 1.424 0.865 2.542 1.75 2.235 1.812 3.006 3.315 5.087 5.395-0.424-2.966-2.351-4.046-3.854-6.628l0.617-0.154c2.273 1.695 3.622 3.313 6.473 3.545-0.771-3.16-4.007-3.313-7.09-4.316-0.733-0.23-0.963-0.924-1.734-0.924zm16.838 1.079l-0.309-0.617-0.616-0.154c-0.424 1.271-1.696 1.734-1.696 3.082 0 0.54 0.694 0.617 1.234 0.617 1.04 0 2.311-0.192 2.311-1.233 1e-3 -0.5-0.731-1.233-0.924-1.695zm-17.108 13.1c-0.27-3.43-1.657-5.163-3.545-8.015 0.038-0.231 0.463-0.347 0.463-0.616 0-1.618-1.966-1.696-3.238-2.621l-0.616-0.154c0.462 1.618 1.657 2.081 2.466 3.545 1.772 3.161 1.85 5.242 4.47 7.861zm11.251-6.627l-0.307 0.616 0.154 0.926c2.389 0 3.276 1.888 5.549 2.62-0.193-2.659-2.737-3.968-5.396-4.162zm1.85 4.316l-0.616-0.155c2.081 5.048 4.893 7.399 9.247 10.635-0.232-3.352-2.466-4.855-4.933-7.09 0.502-0.192 0.887-0.308 1.388-0.462-0.54-0.848-1.618-0.347-2.621-0.617-1.271-0.346-1.541-1.386-2.465-2.311zm9.864-12.485c0.501 0 0.154-0.771 0.154-1.271 0-0.54-0.154-0.848-0.309-1.348-0.848 0.423-2.004 0.423-2.004 1.387 0 2.813 0.578 4.74 2.621 6.782 0.038-0.269 0.309-0.346 0.309-0.616 0-1.734-1.233-2.582-1.233-4.316 0-0.31 0.154-0.618 0.462-0.618zm2.775 7.244c-0.309 0.655-0.309 1.119-0.462 1.85h2.581c0.732 0 1.194-0.346 1.734-0.771-1.079-1.079-2.39-0.616-3.853-1.079zm0.771 4.316c0 0.232-0.155 0.385-0.155 0.617 0 0.27 0.27 0.385 0.309 0.616h1.233c0.039 0.887 0.27 1.311 0.462 2.197 0.694 0.115 1.118-0.038 1.85-0.038 0.462 0 0.809 0.154 1.233 0.307 0-0.269 0.309-0.346 0.309-0.616 0-0.848-1.079-0.848-1.541-1.541-0.385-0.539 0.539-1.387 0-1.695-1.235-0.695-2.274 0.499-3.7 0.153zm4.931 4.932l-1.233 0.307v1.233c0.424 0.039 0.616 0.155 1.04 0.155 0.54 0 0.732-0.462 1.272-0.462 1.426 0 2.119 1.041 3.237 1.849l0.309 0.617 0.154-0.617c-0.964-1.964-2.582-2.543-4.779-3.082zm-5.702-0.155c-1.426 0.924-2.851 1.272-3.391 2.929 1.541-0.232 2.158-1.271 3.699-1.388 0.039-0.269 0.308-0.347 0.308-0.617 0-0.268-0.578-0.654-0.616-0.924zm12.022 43.002c-1.041 0-1.503 0.964-2.004 1.85v1.155c0.771 0.078 1.195 0 1.965 0 1.117 0 1.772 0.348 2.813 0.694-0.617-1.695-0.963-3.699-2.774-3.699zm324.44 523.57c0.424 1.811 2.312 2.158 4.161 2.312l0.309-0.616c-1.542-1.002-2.62-1.541-4.47-1.696zm163.38 327.52l-1.465-0.924v3.083l0.539 0.307c0.617-0.462 1.388-0.731 1.388-1.54 0-0.386-0.308-0.579-0.462-0.926zm7.398-9.093c-0.385 0.926-0.539 1.465-0.771 2.467l1.233-0.309c0.309 0.347 0.54 0.539 0.926 0.771l1.233-0.309c0.462 0.154 0.771 0.27 1.233 0.462l0.616-0.462c-1.426-1.425-3.006-1.31-4.47-2.62zm-16.338 1.232c1.388 0.578 2.197 1.234 3.699 1.234 1.272 0 1.541-1.658 1.541-2.929 0-2.119-3.66 0.309-5.24 1.695zm-6.858-2.272c0-0.539-0.502-0.732-0.848-1.118-0.54 1.078-0.347 1.927-0.771 3.083l1.618 0.154c0.039-0.81 1e-3 -1.31 1e-3 -2.119zm4.392-1.426c-0.848 0.617-1.465 1.118-1.695 2.158l0.616 0.462c0.732-0.809 1.349-1.271 1.696-2.312l-0.617-0.308zm-19.574-43.773c0 0.617 0.308 0.926 0.308 1.541 0 0.964-0.308 1.541-0.617 2.467 0.27 0.077 0.309 0.462 0.617 0.462 1.156 0 1.772-0.308 2.928-0.462 0 1.387-1.233 2.466-2.621 2.466-1.54 0-1.54-2.466-3.082-2.466-0.308 0-0.308 0.462-0.617 0.462-0.771 0-0.924-0.925-0.924-1.696 0-0.539 0.771-0.5 1.233-0.771-2.389-4.007-7.514-4.084-8.015-8.707 1.387-0.232 2.157 0.077 3.545 0.077 0.654 0 1.078-0.154 1.541-0.617-1.735-2.197-4.316-3.044-4.316-5.856 0-0.385 0.309-0.54 0.309-0.926 0-0.771-0.502-1.155-0.771-1.849 0.462-0.193 0.771-0.308 1.233-0.462l0.154-0.617c-1.772-0.424-2.813-1.194-3.854-2.621-0.281-0.375-0.77-0.945-0.77 0 0 1.388 1.078 2.005 1.078 3.391 0 3.005-3.467 4.161-6.473 4.161v1.734c0 2.043 2.389 2.12 3.545 3.815 1.502 2.235 1.927 4.2 4.316 5.395 2.658 1.31 4.923 0.611 4.923 3.617 0 0.616 1.55 1.777 0.933 1.777-1.387 0-2.004-0.886-3.39-1.233l-3.083 0.771c-2.389-0.654-4.201-1.772-4.932-4.161-0.579-1.85 0.424-3.507-0.924-4.933-2.201-2.34-4.211-3.066-7.092-4.013-0.863-0.283-1.091-0.504-0.811 0.576 0.377 1.457 1.584 2.329 1.584 4.053 0 5.629-0.238-0.084 3.237 3.854 1.502 1.695 1.579 3.39 3.237 4.932 1.387 1.31 2.89 1.118 4.47 2.157 2.466 1.618 3.507 4.007 6.473 4.007 3.622 0 5.318-2.62 8.94-2.62 2.196 0 4.932 0.579 4.932 2.774 0 2.157-2.659 2.351-3.39 4.393 1.657 0.385 2.851-0.115 4.315 0.694 1.888 1.04 2.467 3.082 4.624 3.082 0.462 0 0.732-0.346 1.079-0.616l-2.158-7.861c0.81-0.617 1.85-0.963 1.85-2.004 0-1.657-2.081-1.772-3.699-2.157-1.541-0.385-1.812-1.734-2.621-3.083-1.001-1.657-2.312-2.427-2.312-4.354 0-0.347-0.217-0.845-0.292-1.268-0.221-1.236-4.64 0.947-4.64 2.695zm-22.811 5.974v-1.311c-0.81 0.232-1.311-0.038-2.158-0.038-1.81 0-2.813 0.501-4.623 0.771 1.271 1.465 2.774 1.388 4.623 2.004 1.811 0.578 2.466 1.696 4.316 2.312l0.617-0.309c-0.926-1.426-2.775-1.734-2.775-3.429zm-10.481-22.619c-1.734 0-2.774 1.811-2.774 3.545 0 1.58 1.503 1.965 2.621 3.082 1.541-1.387 3.854-1.618 3.854-3.699 0-0.616-0.809-0.654-1.233-1.079-0.849-0.848-1.273-1.849-2.468-1.849zm-10.943 6.473c-0.038 0.27-0.309 0.347-0.309 0.617 0 1.695 2.466 1.849 2.466 3.544 0 0.309-0.423 0.348-0.462 0.617l0.155 0.617c1.618 0.269 2.234 1.118 3.699 1.849 0.154-0.269 0.462-0.424 0.462-0.771 0-1.348-1.387-1.695-1.849-2.928-0.77-1.965-2.042-3.198-4.162-3.545zm21.578-8.939c-0.232 0-0.385 0.154-0.616 0.154v1.271c0 0.501 0.462 0.771 0.616 1.194 0.655-0.192 1.388-0.385 1.388-1.078 0-0.809-0.579-1.541-1.388-1.541zm10.48-10.173c0.039 0.232-0.154 0.385-0.154 0.617 0 0.809 1.079 0.732 1.85 0.924 0.115-0.385 0.307-0.654 0.307-1.079 1e-3 -0.809-1.192-0.577-2.003-0.462zm-75.522-141.03c-0.27-1.156-0.501-2.621-1.695-2.621-0.964 0-2.004 0.577-2.004 1.541 0 1.657 0.346 3.699 2.004 3.699 1.195 0 1.348-1.502 1.695-2.619zm822.89-717.31c2.023 4.66 2.827 8.168 6.475 11.255 3.057 2.588-3.68-8.122-3.701-8.174-2.407-5.549-8.743-16.882-2.774-3.081zm177.09 674.92l274.04-96.176 61.652-192.66-41.307-70.591-19.419 20.962-233.04-41.306-34.217-52.713-9.556-15.412-33.292-51.17c-0.924-3.777-1.769-6.475-2.386-10.406-0.947 0.565-2.295 0.772-3.509 0.772-0.564 0-0.949-0.05-1.446-0.029-0.336 0.015-0.365 0.115-0.365-0.239v-1.696c0-0.579 0.308-0.926 0.308-1.503 0-2.504-2.928-2.774-5.24-3.7-2.736-1.078-4.007-3.082-6.935-3.082-2.274 0-2.352 2.659-3.7 4.47-1.223 1.632-2.876 1.835-3.892 3.636-0.122 0.217-0.08 0.228-0.328 0.167-1.742-0.435-3.486-1.216-3.486-2.993v-1.223c0-0.174 0.031-0.123 0.197-0.117 0.61 0.023 0.989-9e-3 1.652-9e-3 0.038-0.771 0.154-1.193 0.154-1.964 0-1.272-0.771-1.927-0.771-3.198 0-2.12 2.621-2.659 2.621-4.778 0-1.311-1.696-1.619-1.696-2.929 0-2.234 2.544-2.504 4.007-4.161 1.311-1.465 1.927-3.006 3.854-3.391 1.657-0.307 3.352-0.771 3.545-2.466 0.192-1.772-0.848-4.469 0.924-4.469 0.771 0 1.194 0.154 1.965 0.154 1.465 0 3.121-0.694 3.121-2.157 0-2.724-3.608-2.093-6.062-3.27-0.704-0.337-0.619-0.638-0.928 0.138-1.468 3.683-4.037 4.197-5.957 6.215-0.642 1.382-0.456 3-1.483 3.848-0.671 0.554-0.594 0.075-0.821-0.552-0.423-1.168-0.779-2.042-0.779-3.451 0-1.425 0.616-2.234 0.616-3.66 0-1.505-1.103 0.757-1.54 1.195l-0.617-0.154c-0.692-1.716-1.587-2.751-2.767-3.773-5.318 2.158-9.332 4.389-15.112 4.389-10.48 0-20.884-4.451-22.579-14.932-0.836 0.357-1.618 0.62-1.618 1.523 0 1.772-1.541 2.543-1.541 4.315 0 4.432 6.935 4.663 6.935 9.094 0 1.773-2.389 2.004-4.161 2.004-3.815 0-4.2-4.353-6.474-7.398l-1.233 0.307c-1.348-1.348-1.541-2.581-2.62-4.161-0.694-1.04-2.158-1.195-2.158-2.466 0-1.293 1.614-1.382 2.978-1.388 0.731-2e-3 -2.195-3.768-2.361-4.932-0.809-5.395-0.694-12.099-6.166-12.639-0.99-8.151-4.691-11.973-9.839-18.423-0.468-0.587-0.179 1.266-0.179 1.585 0 0.578 0.463 0.886 0.463 1.465 0 0.232-0.155 0.347-0.155 0.578h-1.233c-0.232-3.429-2.004-5.202-2.004-8.63 0-2.698 2.312-3.854 2.312-6.551 0-3.467-4.316-4.316-4.316-7.783 0-1.618 0.771-2.467 0.771-4.085 0-5.047-2.274-7.706-5.086-11.944l-0.616 0.154c-2.57 6.896-3.408 4.807-8.631-2.157-1.85-2.504-2.968-3.969-4.624-6.628-0.886-1.465-0.924-2.928-2.466-3.699-1.194-0.579-2.119-0.732-3.083-1.696-3.544-3.545-4.277-6.627-7.551-10.327-2.428-2.735-3.468-4.585-5.395-7.706-0.848-1.387-2.774-1.58-2.774-3.237 0-1.965-0.771-3.468-2.466-4.47l-1.684 1.404c-0.365 0.303-0.628-0.811-0.628-1.095 0-1.233 1.657-1.079 2.466-2.004-3.193-3.194-4.699-5.374-6.107-9.539-0.069-0.206-0.05-0.181-0.2-0.028-0.324 0.331-0.619 0.627-1.091 0.627-0.732 0-0.771-0.963-0.771-1.695 0-1.927 0.771-3.006 0.771-4.933 0.427-11.564 0.174-2.181-6.473 0.463l-0.771-0.155c0.693-2.119 2.928-2.658 2.928-4.893v-3.929c0-0.579 0.232-0.926 0.308-1.504l-0.462-3.39c-0.348-1.541-0.078-2.621-0.463-4.161 3.545-0.886 5.549-1.465 8.631-3.391 1.541-0.963 2.042-2.621 3.854-2.621 1.156 0 1.618 1.079 2.774 1.079 2.696 0 4.199-0.694 6.782-1.541l2.466 0.617c0.771-0.424 1.233-1.079 1.233-2.004 0-1.503-0.462-2.312-0.462-3.815v-6.55c0-3.969-2.312-5.934-4.47-9.209-1.387-2.119-4.161-2.581-4.161-5.163 0-1.156 1.916-4.095 0.462-3.006-1.118 1.965-2.311 3.121-2.311 5.395h-1.541c-2.274-2.274-3.507-3.699-4.778-6.628-0.617-1.464-2.004-1.964-2.004-3.545 0-0.731 0.59-0.566 1.323-0.566 2.466 0 3.378 0.297 5.766 0.874-0.424-1.887 0.078-4.624-1.849-4.624s-2.389 2.312-4.316 2.312c-2.928 0-3.121-3.467-4.469-6.011-0.81-1.541-0.617-2.735-1.388-4.316-0.616-1.233-1.849-1.695-1.849-3.082 0-1.233 2.004-1.233 2.004-2.466 0-1.965-2.004-2.659-2.004-4.624 0-1.81 1.926-2.196 2.62-3.854 0.617-1.464 0.462-2.504 0.462-4.123 0-0.27-0.154-0.385-0.154-0.655h-1.349c-0.745 0-5.222 0.427-4.757 1.268 0.353 0.638 0.581 1.352 1.328 1.352 0.516 0 1.32-0.494 1.152 0.179-0.556 2.212-1.173 3.423-2.385 5.369-0.771 1.233-2.158 1.618-2.158 3.082 0 0.774 1.327 0.397 0.693 1.111-0.609 0.685-1.646 0.681-2.388 1.356-1.503 1.387-1.657 3.853-3.737 3.853-1.706 0-2.722-0.097-4.32-0.023-0.813 0.038 0.729 3.643 1.279 5.021 0.374 0.938 1.707-0.682 2.694-0.682 0.617 0 1.002 0.308 1.618 0.308 1.695 0 1.271-2.351 2.466-3.545 0.831-0.83 1.73-0.781 2.854-1.026 2.192-0.475 3.311 11.314 3.311 12.585 0 1.31 0.385 3.237-0.926 3.237-3.892 0-4.585-5.395-8.477-5.395-0.809 0-1.387 0.733-1.387 1.541 0 1.196 0.616 1.85 0.616 3.044 0 0.617-0.077 0.963-0.154 1.58-1.581-0.115-2.274-1.387-3.854-1.387-0.385 0-0.539 0.231-0.924 0.307l-0.155 1.233c0.155 2.12 0.463 3.276 0.463 5.395 0 0.301-0.117 0.485-0.224 0.715-0.223 0.487-2.193-4.26-2.55-4.722-1.85-2.389-4.162-3.468-4.162-6.473 0-2.544 0.655-4.007 2.004-6.166 0.694-1.156 2.312-1.387 2.312-2.774 0-2.62-3.005-2.89-4.778-4.778-1.185-1.259-1.339-2.732-2.887-3.596-0.247-0.138 3.357-0.984 4.281-1.283 0.058-0.019 3.15 3.255 4.156 4.005 0.606 0.451 0.974-2.071 1.078-2.362 0.307-0.886 1.54-1.04 1.54-2.004 0-2.312-2.157-3.237-2.157-5.549 0-1.657 1.541-2.312 1.541-3.968 0-2.225-4.47 2.564-4.47 4.508 0 1.503 0.771 2.274 0.771 3.776 0 0.325-0.228 0.681-0.518 0.471-2.368-1.722-2.373-4.314-4.79-5.872-0.952-0.614 3.115-3.393 4.277-4.145 0.731-0.471-3.22-5.4-3.594-6.329-1.233-3.005-0.347-5.124-0.924-8.323-0.462-2.466-3.7-2.851-3.7-5.394 0-1.04 1.426-0.848 2.312-1.388 1.188-0.732 1.932-1.403 2.348-2.669 0.125-0.381-3.519 2.053-4.968 2.053-1.735 0-2.385-1.49-3.475-2.819-0.552-0.673-0.224 1.173-0.224 1.548 0 2.042 0.462 3.275 1.233 5.124-0.848 0.54-2.235 0.502-2.235 1.541 0 0.733 0.077 1.119 0.077 1.85 0 1.588 1.864 7.022 1.795 6.989-2.156-1.016-4.182-1.045-5.339-3.135-1.348-2.427-1.888-4.162-4.007-6.011-1.118-0.964-1.426-2.621-2.928-2.621-0.539 0-0.694 0.771-1.233 0.771-0.693 0-0.309-2.521-0.309-2.928 0-0.617 0.733-1.083 0.733-1.699 0-1.965 1.193-1.923 2.503-3.387l-0.462-0.617c-0.853 0.142-3.154 2.703-3.189 2.667-0.695-0.721-1.009-1.315-1.743-2.05-0.348 0.27-0.617 0.616-1.079 0.616-0.358 0-2.216-0.395-1.859 0.125 0.692 1.001 0.929 1.927 2.012 2.649 0.577 0.385 1.465 0.502 1.465 1.234v3.237c0 0.25-0.125 0.716-0.376 0.475-1.123-1.079-2.164-1.607-2.707-3.033-0.158-0.415-0.289 0.149-0.539 0.399-0.143 1.466 0.547 4.13-0.928 3.862-0.463-0.848-1.038-1.434-2.04-1.55h-1.348c-2.447-0.79-3.275-2.682-5.681-3.344-0.85-0.233 1.313-4.515 1.828-4.979 1.234-1.079 3.545-0.654 3.545-2.312 0-1.078-1.426-1.193-1.849-2.157-0.497-1.075-0.335-2.04-0.312-3.115 0.013-0.565-2.55 1.058-3.448 1.587-0.5 0.295-1.944-2.662-1.944-3.25 0-2.658 2.89-4.007 5.549-4.007 0.501 0 0.771 0.308 1.271 0.308 0.217 0 0.374-0.045 0.546-0.089 0.806-0.204-1.068-1.785-1.354-2.378 0-1.156 0.077-2.081-0.926-2.62 0.385-0.809 0.848-1.195 1.541-1.695-0.539-0.732-0.809-1.696-1.735-1.696h-3.16c-1.249 0-1.446 1.331-2.497 1.923-0.393 0.221-0.47-1.192-0.47-1.459 0-0.694 0.462-1.002 0.462-1.696 0-2.119-2.813-1.927-4.161-3.545-0.848-1.04-1.387-2.311-2.774-2.311-1.31 0-1.927 0.924-3.237 0.924-1.773 0-3.391-1.271-3.391-3.043 0-0.371 0.09-0.624 0.138-0.965 6e-3 -0.049 2.994-2.311 7.569-2.311 2.081 0 2.851 2.158 4.932 2.158 0.309 0 0.347-0.385 0.617-0.463-0.579-1.193-2.312-1.04-2.312-2.311 0-1.118 1.271-1.348 2.312-1.696-0.701-1.402 3.78 0 4.932 0 0.308 0 0.385-0.307 0.617-0.462-1.119-2.735-3.777-3.12-6.628-3.854-1.349-0.346-1.503-2.157-2.928-2.157-1.927 0-1.927 3.083-3.853 3.083-0.964 0-1.041-1.388-2.004-1.388-1.695 0-2.312 1.85-4.007 1.85-1.965 0-3.083-0.848-4.624-2.004 0.308-0.269 0.424-0.771 0.848-0.771 1.079 0 1.311 1.387 2.39 1.387 1.734 0 2.658-0.848 4.161-1.695-1.388-2.389-3.892-1.927-6.319-3.237-1.657-0.886-2.813-1.079-4.316-2.157-0.694-0.501-0.655-1.696-1.541-1.696-1.888 0-2.89 0.655-4.778 0.771 0 3.914-1.544 6.101-3.697 9.322-0.526 0.787-1.081-1.762-1.081-2.077 0-1.888 1.696-2.467 2.158-4.316 0.099-0.405 1.943-6.597 0.462-4.624-0.618 1.03-4.007 2.312-4.007 2.568v2.788c0 0.809-0.924 1.079-1.695 1.271-0.039-0.501-0.155-0.771-0.155-1.271 0-0.539 0.309-0.809 0.309-1.349 0-0.694-1.233-0.539-1.233-1.233 0-3.468 2.312-4.893 3.854-8.015l-0.155-0.616c-0.539 0.077-0.848 0.307-1.387 0.307-0.908 0-0.962-1.044-1.28-1.899-0.096-0.26-0.087-0.32-0.19-0.041-0.945 2.54-0.939 4.466-2.723 6.427-0.55 0.604-0.431-0.524-0.431-0.981 0-3.082 2.004-4.546 2.004-7.629v-2.659c-0.771 0.193-1.041 1.079-1.849 1.079-0.27 0-0.348-0.309-0.617-0.309 0.115-1.465 0.617-2.349 1.58-3.39l-0.038-4.007 0.462-0.617c1.207 0.462 0.941 1.874 1.648 2.846 0.479 0.661-0.054-5.153 1.063-4.478 1.138 0.685 1.723 1.62 3.028 2.022 1.515 0.465-1.73-4.927-2.195-5.321-1.31-1.118-3.545-1.041-3.545-2.774 0-0.462 0.308-0.732 0.308-1.194 0-0.27-0.155-0.385-0.155-0.655-2.157 0-2.851-2.119-3.852-4.007-0.829-1.54-5.137-5.729-4.162-5.24 1.426-0.115 2.042-0.848 3.391-1.387-0.155-0.27-0.308-0.463-0.462-0.771-3.006-0.347-5.203 0.462-7.552-1.388-1.079-0.842-1.125-2.157-2.127-2.835-0.418-0.282-0.466-0.344-0.556 0.124-0.232 1.201-0.754 2.403-1.941 2.403-1.978 0-2.62-1.771-3.744-3.389-0.2-0.287 0.064-0.112 0.282-0.058l0.842 0.21c0.903-0.361 1.432-0.723 2.29-1.147 0.057-0.028-2.004-4.093-3.215-4.093-2.427 0-3.121 2.928-5.549 2.928-1.626 0-2.133-1.726-2.412-3.371-0.044-0.256-0.141-0.348 0.15-0.306 0.984 0.14 1.524 0.749 2.572 0.749 1.734 0 1.81-2.774 3.545-2.774 1.335 0 2.029 0.576 3.223 1.124 0.333 0.153 0.262 0.054 0.299-0.287 0.135-1.224-0.053-2.014-0.053-3.341 0-1.233 0.693-1.811 0.693-3.044 0-7.244-9.71-8.63-9.71-15.875 0-4.52 3.32-8.437-0.616-6.935-1.002-2.042-0.232-3.93-1.85-5.549-0.734-2.968-2.446-5.043-4.199-6.976l-68.241 1.427-11.097-15.105 0.925-13.563-12.33-19.419-82.612-11.714-10.481 3.083-159.98-13.255-11.405-11.097-228.72-189.27-55.793-27.127-98.335-62.884-107.89-24.352-11.406 12.022c-3.622 3.622-7.012 4.701-11.097 7.706l-178.48 53.637 89.394 104.81-30.517 19.112-15.105 34.524-67.2 13.255-22.502 36.682-40.074 32.984-101.56-16.975c-0.235 0.772-0.481 1.592-0.78 2.487-0.732 2.196-2.157 3.237-2.157 5.548 0 1.118 0.771 1.658 0.771 2.774 0 1.311-1.541 1.465-2.312 2.467-0.694 0.924-0.039 1.888-0.154 3.082-0.348 2.929-1.234 4.509-1.696 7.399-0.424 2.736-1.078 4.316-2.312 6.782-0.654 1.31-2.004 1.772-2.004 3.237 0 1.541 1.388 2.157 1.388 3.699 0 1.233-1.118 1.618-1.541 2.774-1.194 3.237-2.157 5.163-2.157 8.632 0 1.349 1.695 1.734 1.695 3.083 0 6.242-1.194 10.095-4.007 15.721-0.771 2.351-1.388 3.699-1.388 6.165 0 4.355 1.85 6.744 1.85 11.097 0 6.127-3.121 9.055-5.24 14.796-2.042 5.51-2.427 8.825-4.469 14.334-1.541 4.162-3.083 6.243-4.469 10.481-0.463-0.27-0.771-0.424-1.234-0.617-0.368 0.632-6.224 9.372-4.996 8.72 0.689-0.367 1.254-0.6 2.068-0.859l0.617 0.154c0.462 2.968 0.385 4.932 2.004 7.399l0.616 0.154c0-1.85 0.115-3.352 1.541-4.47 0.578-0.462 1.388-0.617 1.388-1.388 0-0.539-0.771-0.693-0.771-1.233 0-1.117 1.27-1.31 1.695-2.312 0.616-1.348 0.346-3.39 1.849-3.39 1.657 0 1.271 2.312 1.85 3.853 0.424 1.196 2.312 1.041 2.312 2.312 0 0.81-0.617 1.156-0.617 1.966 0 3.051 2.759-1.676 4.933-1.966 0-2.658 3.237-3.39 5.895-3.39 1.697 0 1.45 1.248 0.425 2.466-0.694 0.809-2.312 0.579-2.312 1.695 0 1.079 0.154 2.466 1.233 2.466 1.348 0 1.849-1.193 3.083-1.695 1.772-0.731 3.082-0.154 4.932-0.616 2.004-0.501 2.851-2.004 4.932-2.004 3.846 0 1.17-2.929 4.778-2.929 1.618 0 1.426 2.197 2.774 3.083 2.504 1.658 3.969 2.736 6.628 4.161 3.352 1.811 7.706 0.926 8.63 4.624-1.348 0-2.042-0.771-3.39-0.771-0.748 0-4.27 1.266-3.118 2.315 0.754 0.685 2.051 0.549 3.272 0.768 2.274 0.424 3.43 1.735 4.624 3.699 2.235 3.622 4.199 5.24 6.628 8.785 1.078 1.58 1.695 2.582 2.466 4.316 0.616 1.349 0.038 2.659 1.078 3.699 1.503 1.503 3.198 1.233 5.241 1.85 2.119 0.655 2.311 3.545 4.546 3.545 2.546 0-1.001-8e-3 -1.001 2.312 0 1.387 1.387 2.466 2.773 2.311 5.512 0.871-0.616 0.198-0.616 3.083 0 2.351 2.004 3.198 2.004 5.549 2.004 4.046 1.156 6.935 3.545 10.48 1.502 2.235 4.469 2.621 4.469 5.357v3.12c1.387 0.078 1.85 1.388 2.466 2.621 1.079 2.157 2.621 2.813 4.162 4.624 2.426 2.813 6.088 2.004 8.015 5.24l-0.309 1.233c0.404 0.693 9.488 12.987 5.086 10.789-0.848 1.503-1.233 2.582-1.233 4.316 0 4.238 3.005 6.088 6.011 9.093 1.926 1.927 2.426 3.508 4.315 5.395 3.198 3.198 5.703 4.778 8.94 8.015 0 0.232 0.154 0.385 0.154 0.617 0 0.307-0.462 0.307-0.462 0.616 0 6.288 4.469-3.337 4.469 4.316 0 0.617-0.309 0.924-0.309 1.541 0 3.044 2.042 4.393 3.391 7.09 1.002 2.004 0.694 3.507 1.695 5.549 0.848 1.734 2.774 1.348 4.316 2.466 2.235 1.618 1.31 4.546 3.545 6.165 1.271 0.925 2.774 0.308 3.699 1.541 2.042 2.736 2.235 4.971 4.007 7.861 3.468 5.587 7.244 8.67 7.244 15.258 0 0.617-0.307 0.924-0.307 1.541 0 2.813 2.312 3.738 3.699 6.165 1.541 2.698 1.425 4.894 3.083 7.552 1.54 2.466 3.043 3.468 4.469 6.011 1.887 3.391 1.348 6.011 3.237 9.402 2.119 3.815 5.317 5.702 9.71 5.702 0.963 0 1.503-0.462 2.467-0.462 1.695 0 2.581 0.964 4.006 1.85 1.271 0.771 2.621 1.387 2.621 2.89v3.737l-2.157 7.09c0.231 1.503 1.425 2.621 2.928 2.621 3.993 0 5.313-3.544 7.493-6.919 0.237-0.366 0.197-0.383 0.305 0.041 0.621 2.425 1.2 3.809 1.604 6.415l-0.155 0.771c-3.083 0.232-4.623 1.696-7.706 1.696-2.505 0-3.863-1.039-6.291-1.617-0.309 1.002-0.491 0.846-1.262 1.617 0.192 2.466 4.316 2.157 4.316 4.623 0 0.655-0.617 0.887-0.617 1.541 0 0.655 0.27 1.041 0.617 1.541 0.423-0.232 0.731-0.462 1.078-0.771 0.732 1.503-0.307 3.044 0.771 4.316 0.771 0.924 1.927 0.347 3.083 0.771 1.657 0.616 2.081 1.965 3.699 2.62 0.038-0.231 0.309-0.346 0.309-0.616 0-1.483-0.502-2.377-0.705-3.713-0.321-2.129 3.36 2.705 3.634 2.942 1.964 1.695 3.659 2.774 4.007 5.394 2.89 0.232 5.394 0.579 6.782 3.083 1.078 1.927 0.654 3.43 1.387 5.549 0.501 1.541 2.273 1.58 2.928 3.083 0.886 2.004 0.078 3.545 0.926 5.549 0.578 1.387 1.964 1.31 2.928 2.466 2.042 2.389 2.966 3.93 3.699 6.935 1.81 7.36 3.16 12.215 8.94 17.108 1.657 1.388 2.081 2.813 3.699 4.162 1.001 0.809 2.312 0.384 3.083 1.387 1.541 1.965 1.849 3.661 1.849 6.165 0 1.735-2.004 2.274-2.004 4.008 0 3.467 3.545 4.7 3.545 8.168 0 3.43-2.928 4.893-2.928 8.323 0 1.735 1.233 2.582 1.233 4.316 0 0.886-1.118 0.963-1.85 1.387-1.118 0.694-1.734 1.541-3.082 1.541-1.503 0-2.197-1.079-3.7-1.079-0.809 0-1.849 0.116-1.849 0.925 0 1.657 1.117 2.351 2.004 3.699 0.616 0.964 0.539 2.466 1.695 2.466 1.171 0 3.16-2.071 3.179-1.68 0.05 1.006 9e-3 1.677-0.096 2.759-0.521 0.065-0.822 0.102-1.272 0.136-0.623 0.046 0.629 4.938 1.118 5.567 1.079 1.387 2.89 1.118 3.7 2.774 3.12 1.041 4.393 3.237 5.548 6.319 0.028 0.11 10.399 16.555 11.868 20.961-0.397 1.596-2.774-1.619-2.774 2.158 0 2.89 2.774 3.66 4.162 6.165 1.271 2.274 1.695 4.201 4.007 5.395 1.079 0.539 2.004 0.038 3.083 0.616 0.885 0.463 0.848 1.85 1.887 1.85h3.622c0.675 0 1.025 0.325 1.617 0.431 0.634 0.114-0.315-3.779-0.5-4.285l0.617-0.154c0.693 0.694 1.464 0.771 2.466 0.771 0.809 0 0.731-1.388 1.541-1.388 1.464 0 2.004 1.233 3.39 1.696l0.154 0.616c-0.357 0.259-1.708 1.233-0.462 1.233 0.938 0 3.619-1.305 3.85-0.743 0.683 1.659 0.342 3.043 1.391 4.597 1.579 2.312 4.238 1.812 6.165 3.854 1.81 1.926 1.965 5.085 4.624 5.085 0.848 0 1.31-0.462 2.157-0.462 5.818 0 7.668 6.319 13.486 6.319 0.886 0 1.348-0.308 2.234-0.308 2.389 0 2.427 2.891 4.316 4.316 3.507 2.698 5.048 5.086 8.94 7.244 3.39 1.888 5.586 3.353 7.398 6.782 1.04 1.965 3.16 1.503 5.087 2.621 2.004 1.156 1.965 3.121 3.237 5.085 1.04 1.619 3.237 0.964 4.161 2.621 3.507 6.281 2.621 11.059 6.628 17.108 1.541 1.695 2.621 2.928 2.621 5.202v2.966c4.519 0 4.156 2.298 2.62-2.311l1.85-0.463c0.809 2.467 2.466 3.391 3.237 5.857 2.273 7.206 2.851 11.483 5.24 18.65 0.924 2.813 0.809 4.623 1.85 7.398 0.808 2.197 2.466 2.774 3.699 4.778 0.963 1.581 0.848 3.006 2.157 4.316 0.655 0.655 1.734-0.115 2.467 0.462 1.772 1.426 1.849 3.276 1.849 5.549 0 2.043-2.157 2.467-4.007 3.391 2.351 7.052 7.129 9.286 9.711 16.183 0.963 2.621 2.311 3.738 3.699 6.166 2.234 3.852 4.161 7.012 8.63 7.552 1.039 1.039-1.325 1.889-2.466 2.157 1.271 1.695 1.503 3.121 2.621 4.933 2.89 4.623 6.049 7.166 6.049 12.599v10.25c0 1.695-0.963 2.581-0.963 4.276 0 1.773 1.734 2.389 1.734 4.162 0 0.732-0.038 1.31-0.193 2.004-0.192 1.194-1.387 1.58-1.387 2.774 0 0.771 0.771 1.041 0.771 1.812l-0.155 0.654-0.616-0.308c-0.385 0.925-0.924 1.426-0.924 2.466 0 0.385 0.616 0.385 0.616 0.771 0 2.043-1.695 2.774-2.466 4.624-1.31 3.16-1.388 5.317-1.388 8.747 0 7.041 2.467-10.362 2.467-0.693 0 2.658-0.771 4.084-0.771 6.742-0.27 0-0.347 0.308-0.617 0.308-0.309 0-0.309-0.462-0.616-0.462-1.927 0-2.158 2.504-2.158 4.431v3.121c-0.848 0.539-1.464 0.848-2.466 1.078 0.963 3.854 1.73 5.712 3.002 9.449 0.424 1.31 1.314 2.11 1.314 3.498 0 5.563-2.5-2.511-3.083-3.545-1.118-2.004-2.62-3.083-2.62-5.395 0-0.808 0.341-0.894 0.341-1.703 0-0.732-0.38-0.802-0.957-1.225-1.387-1.04-1.079-2.581-1.079-4.316-0.649-0.865-0.771-0.356-0.771 0.617 0 7.437 1.773 12.022 5.857 18.186 0.771 1.156 1.927 1.233 3.083 2.004 2.35 1.541 1.502 4.239 2.774 6.782 2.119 4.277 3.776 6.898 3.776 11.676 0 1.109-0.714 10.478 0.521 9.101 0.851-0.947 1.306-2.128 2.639-2.128 2.351 0 3.083 2.851 3.083 5.202l-0.617 1.58-0.154 0.617c0.924 1.849 1.079 3.082 1.079 5.085 0 1.927 0.848 3.43-0.309 4.933-1.002 1.31-2.813 0.038-4.316 0.771-1.001 0.501-0.924 1.657-0.924 2.774 0 4.123 2.62 5.973 4.316 9.71 0.77 1.735 0.115 3.121 0.77 4.932 0.463 1.311 2.158 1.618 2.158 3.044v3.121l0.462 0.616c0.269-0.077 0.309-0.462 0.617-0.462 0.539 0 0.808 0.502 1.233 0.771 3.622 5.433 6.473 8.785 6.473 15.258 3.12 0.385 6.782 1.196 6.782 4.316 0 0.462-0.771 0.462-0.771 0.926 0 3.853 7.399 2.774 7.399 6.627 0 0.771-0.617 1.156-0.617 1.927 0 1.618 1.695 1.927 2.466 3.313 1.079 1.965 1.927 3.083 3.391 4.778 1.927 2.235 2.004 4.469 4.315 6.319 4.046 3.237 6.589 4.933 9.402 9.248 1.079 1.695 3.39 1.464 4.007 3.391 1.118 3.39 4.046 3.969 6.011 6.935 5.252 7.896 10.644 10.928 18.945 15.097 0.408 0.205 2.496 1.24 6.64 1.24 0.655 0 0.385-1.04 0.771-1.542 0.655-0.886 1.618-1.233 2.774-1.233 0.924 0 1.271 0.809 2.158 1.079 2.004 0.616 3.659-0.077 5.394 1.079 1.773 1.194 1.348 3.198 2.621 4.932 1.964 2.698 5.009 1.735 8.015 3.237-0.155 0.462-0.462 0.732-0.462 1.233 0 1.618 1.81 1.812 2.928 2.928 1.195 1.196 1.233 2.582 2.62 3.545 2.274 1.581 4.394 0.655 6.936 1.696 4.354 1.81 5.857 4.431 9.865 6.935 3.699 2.312 7.86 3.66 7.86 8.015 0 0.771-0.924 0.924-0.924 1.695 0 2.621 3.198 3.391 3.39 6.011-0.154 0.964-0.154 1.503-0.154 2.467 3.649 0 7.673 6.606 7.706 6.473-0.732-1.503-1.155-2.274-1.54-3.853l0.616-0.154c0.347 0.462 0.617 0.924 1.233 0.924 1.927 0 2.851-1.079 4.778-1.079 2.274 0 2.621 2.505 3.7 4.47 1.964 3.507 3.853 5.548 3.853 9.555 0 1.811-0.309 2.814-0.462 4.624-7.727-3.382 7.926 5.152 8.632 5.857 2.273 2.274 5.702 2.774 5.702 6.011 0 1.695-0.617 2.62-0.617 4.316 0 3.275-0.154 5.433 1.388 8.323 0.771 1.503 2.581 1.194 3.699 2.466 1.002 1.118 0.115 2.581 1.079 3.699 1.541 1.735 3.083 2.774 3.083 5.086 0 1.194-0.463 1.888-0.463 3.083 0 1.54 0.579 2.427 1.079 3.853 0.617 1.811 0.385 3.468 2.004 4.469 2.89 1.773 7.552 1.196 7.552 4.624 0 3.545-3.39 4.932-3.39 8.477 0 1.812 1.117 2.698 1.849 4.316s0.501 2.851 1.233 4.469c0.732 1.658 1.888 2.813 3.699 3.083 1.465 0.232 3.545 0.038 3.545 1.541 0 4.932-2.928 7.397-2.928 12.33 0 2.928 2.274 4.007 3.854 6.473 1.964 3.083 3.737 6.589 7.398 6.011 0.617-0.077 0.926-0.308 1.541-0.308 1.695 0 2.196 1.618 3.237 2.928 1.04 1.311 2.581 1.119 3.545 2.467 0.864 1.198 3.486 6.797 0 4.007-1.076-0.27 1.85 3.604 1.85 5.355v3.777c0 3.505 2.62 5.086 2.62 8.592 1.58 0 2.89 1.041 3.083 2.621l-0.771 2.774c0 3.735 1.651-3.036 2.494-0.939 0.574 1.428-0.168 3.001 0.743 4.484 0.385 0.654 1.348 0.347 1.85 0.924 1.618 1.849 0.694 3.854 1.541 6.165 0.924 2.505 1.079 4.354 2.928 6.319 0.809 0.887 2.312 0 3.083 0.924 0.771 0.926 0.424 2.004 0 3.083-0.039 0.232-0.308 0.347-0.308 0.617 0 1.965 3.545 1.734 3.545 3.699 0 0.309-0.617 0.154-0.617 0.462 0 1.503 1.503 1.811 2.621 2.774 3.313 2.891 7.436 4.393 7.09 8.785 0.269 0 0.346 0.308 0.616 0.308 0.501 0 0.732-0.462 1.233-0.462 2.544 0 3.006 3.545 5.549 3.545 0.771 0 1.079-0.617 1.85-0.617 1.425 0 0.809 2.351 2.004 3.083 4.701 2.928 6.358 6.396 11.56 8.323 1.465 0.539 1.618 1.888 2.774 2.928 2.151 1.919 8.485 9.248 9.517 9.248 2.158 0 2.697 2.004 4.355 3.391 3.017 2.568 5.108 8.554 7.244 5.702 1.464 1.465 3.237 2.08 3.237 4.124 0 1.695-0.039 2.696-0.039 4.393 0 1.193-0.385 1.849-0.578 3.043l0.462 3.237c0.964 1.31 1.234 2.427 1.234 4.084 0 1.388 0.077 2.158 0.077 3.545v4.393c0 1.888 1.81 2.428 2.543 4.162 0.578 1.348 0.578 2.274 0.926 3.699 0.462-0.192 0.77-0.308 1.233-0.462-0.617-1.85-0.54-3.083-1.233-4.933l0.616-0.307c0.771 1.965 3.043 1.965 3.545 4.007 0.731 2.966 1.31 4.893 3.545 6.935 3.12 2.891 8.477 2.659 8.477 6.898v3.776c0 2.196 0.963 3.313 1.233 5.51 0.232 2.042-0.347 4.932 1.695 4.932 0.849 0 1.311-0.462 2.158-0.462 3.39 0 4.276 3.507 5.856 6.473 2.504 4.624 5.241 7.205 5.241 12.484 0 2.12-2.004 2.968-2.004 5.087 0 1.695 1.117 2.427 1.695 4.007 0.501 1.349 0.192 2.428 0.924 3.699 1.079 1.811 3.854 1.735 3.854 3.854 0 1.503-1.233 2.197-1.233 3.699 0 2.276 0.537 3.919 1.252 5.591 3.699-0.924 6.145-1.738 9.999-1.738 0.924 0 1.541 0.617 2.466 0.617 6.319 0 3.93-10.789 9.865-12.947 6.011-2.234 12.33-4.393 12.33-10.789 0-2.235-0.694-5.549 1.54-5.549 2.621 0 3.777 1.927 5.857 3.391 2.081-2.621-0.771-5.934 1.233-8.631 0.771-1.079 2.466-1.079 2.466-2.466 0-4.162-4.084-5.24-6.782-8.323-1.849-2.08-2.62-4.084-5.24-4.932 0.771-1.311 1.388-2.004 2.466-3.083v-7.706l1.541-6.011c-0.231-1.311-1.849-1.618-1.849-2.929 0-6.859 6.088-9.556 12.022-12.946-1.233-2.544-3.006-3.622-5.24-5.24 7.629-8.4 12.946-13.563 24.044-16.338 9.863 1.618 14.411 7.012 22.502 12.638 3.006 2.082 4.316 4.933 8.015 4.933 1.927 0 3.006-1.233 4.933-1.233 3.93 0 5.009 4.932 8.939 4.932 3.391 0 2.466-6.473 5.857-6.473 3.39 0 5.24 1.849 8.63 1.849 3.93 0 5.01-4.623 8.94-4.623 3.622 0 5.626 1.541 9.247 1.541 5.009 0 6.705-5.24 11.713-5.24 5.395 0 8.169 3.082 13.563 3.082 3.545 0 5.087-2.774 8.632-2.774 2.312 0 3.545 0.385 5.857 0.617 8.63 0.077 13.485 0.309 22.117 0.309 6.396 0 10.018-2.158 16.414-2.158 8.708 0 12.716 5.01 20.962 7.707 11.868 3.929 19.189 3.853 31.75 5.24 16.03 1.849 25.123 1.927 40.998 4.316 6.243 0.924 9.788 2.466 16.106 2.466h7.552c10.096 0 15.567-3.083 25.663-3.083l23.427 30.517 16.03 0.926 18.803-10.789 6.782-4.007 15.412-36.375 52.404-65.349 87.853-44.081 141.49-14.488 118.05-27.748zm-1.912-447.93l9.716 15.585-9.716-15.585zl9.716 15.585-9.716-15.585z" fill="#006C35"/>
 <path d="m813.32 548.94c-0.842-0.025-2.103 0.445-3.869 1.493-3.972 2.662-11.843 10.863-12.084 20.298-0.241 5.323-1.246 5.302 2.24 8.689 2.518 3.63 5.033 3.273 10.115 0.611 2.919-2.15 3.905-3.522 4.888-7.128 1.211-6.048-6.364 2.861-7.332-3.869-1.693-6.249 3.143-8.819 7.739-14.867 0.106-2.847 0.157-5.172-1.697-5.227zm73.995 0.408c-1.419 0.191-3.156 2.01-5.567 6.381-1.728 4.578-9.179 11.507-3.802 25.797 4.399 9.06 6.206 23.785 4.209 40.189-3.048 4.662-3.743 6.268-7.739 10.93-5.614 6.037-11.695 4.493-16.36 2.24-4.359-2.938-7.785-4.447-9.776-13.781 0.359-14.878 1.226-39.231-1.494-44.399-4.009-8.003-10.617-5.133-13.441-2.715-13.571 12.409-20.274 33.361-24.372 50.032-3.764 12.15-7.774 8.636-10.59 3.734-6.856-6.424-7.337-56.662-15.614-48.402-13.256 37.886 7.607 79.389 22.063 75.355 10.429 4.318 17.047-15.534 21.316-37.269 2.921-6.1 5.153-6.801 6.653-3.666-0.385 28.905 2.073 35.353 9.504 44.125 16.578 12.79 30.289 1.62 31.365 0.543l12.898-12.898c2.873-3.022 6.669-3.206 10.726-0.543 3.944 3.584 3.437 9.759 11.88 14.053 7.105 2.842 22.278 0.691 25.797-5.431 4.736-8.117 5.885-10.906 8.079-13.985 3.381-4.5 9.165-2.507 9.165-1.086-0.539 2.509-3.937 4.985-1.629 9.504 4.02 3.015 4.954 1.077 7.332 0.407 8.41-4.02 14.731-22.267 14.731-22.267 0.372-6.805-3.5-6.289-5.974-4.888-3.227 1.973-3.425 2.643-6.653 4.616-4.112 0.611-12.078 3.324-16.021-2.783-4.027-7.342-4.049-17.577-7.128-24.982 0-0.539-5.38-11.644-0.407-12.355 2.509 0.466 7.906 1.861 8.757-2.648 2.632-4.394-5.679-16.861-11.337-23.149-4.911-5.391-11.693-6.048-18.261-0.543-4.6 4.232-3.918 8.959-4.82 13.441-1.171 5.148-0.948 11.524 4.277 18.329 4.591 9.054 12.933 20.67 10.183 37.065 0 0-4.847 7.802-13.373 6.789-3.554-0.775-9.345-2.313-12.423-25.05-2.33-17.21 0.584-41.323-6.721-52.612-1.649-4.26-3.065-8.397-5.431-8.079l-2e-3 1e-3zm-23.418 1.824c-2.21 0.193-4.657 2.767-6.653 7.739-1.712 3.781-3.804 23.557-3.462 23.557-1.366 5.886 6.15 8.38 9.572 0.815 5.13-13.869 5.155-19.778 5.499-25.66-0.799-4.481-2.746-6.642-4.956-6.449v-2e-3zm86.487 1.562c-2.27 0.206-4.077 1.534-4.752 4.888-0.904 7.885-0.442 12.172 0.883 18.737 1.016 4.377 7.387 11.706 10.523 15.953 14.981 20.137 29.394 40.369 43.313 61.302 2.188 15.543 3.791 30.748 4.82 45.891 2.255 33.202 2.941 74.534 0.883 109.5 6.221 0.245 16.188-10.045 19.687-25.117 2.275-20.849-0.81-63.39-1.018-75.694-0.147-5.108-0.461-11.203-0.815-17.583 16.19 26.457 31.897 54.487 47.316 85.265 5.621-2.671 4.375-34.319 1.086-38.764-12.341-26.561-29.39-52.78-34.825-62.864-1.962-3.642-8.645-13.805-16.564-25.525-1.458-16.724-3.043-30.889-4.073-35.166-2.546-17.679 7.266 1.994 5.906-8.282-3.184-17.655-12.928-29.653-24.439-45.824-3.711-5.26-3.638-6.332-9.368 1.29-3.425 7.77-3.379 14.235-2.376 20.298-1.507-2.19-3.37-4.788-6.042-8.011-9.941-8.528-10.554-8.995-18.804-15.953-2.602-1.846-7.555-4.688-11.337-4.345l-4e-3 4e-3zm256.34 2.647c-1.105-0.172-2.31 0.371-3.666 2.376-2.593 2.273-5.38 6.388-5.295 11.676 0.631 9.317 2.289 18.856 2.919 28.173 0.222 1.247 0.457 2.487 0.679 3.734-1.001-1.277-1.875-2.274-2.376-2.783-18.161-19.078 8.344-3.118-3.462-17.854-9.985-10.963-12.906-14.452-21.452-21.045-4.285-2.77-6.874-8.062-8.282 0.95-0.561 7.918-1.143 17.086-0.611 23.761-0.031 3.709 3.811 10.691 7.128 14.799 12.115 14.884 24.489 30.722 36.93 47.249 2.618 33.706 3.316 64.604 5.974 98.367-0.377 14.44-4.818 33.62-9.029 35.436 0 0-6.43 3.694-10.726-0.407-3.125-1.255-15.614-20.841-15.614-20.841-6.394-5.862-10.656-4.187-15.207 0-12.547 12.115-18.221 34.808-26.746 50.44-2.198 3.488-8.39 6.457-15.274-0.272-17.484-23.887-7.26-57.889-9.436-49.15-15.573 17.55-8.676 46.63-5.159 52.884 5.135 10.271 9.288 16.847 19.28 21.928 9.1 6.698 16.186 2.518 20.094-2.172 9.157-9.49 9.279-33.759 13.577-38.559 3.015-8.82 10.571-7.303 14.256-3.394 3.571 5.135 7.788 8.475 13.034 11.269 8.542 7.534 18.736 8.903 28.784 2.037 6.867-3.852 11.322-8.857 15.342-18.737 4.313-11.536 2.181-71.996 1.222-105.63 6.451 9.087 12.818 18.371 19.144 27.765 2.777 29.525 4.037 58.602 3.123 86.486-0.655 5.544 19.347-16.552 19.212-27.02-0.09-9.158 0.017-17.458 0-25.186 9.702 15.49 19.093 31.239 27.969 47.182 5.5-2.914 3.615-34.058 0.136-38.355-9.294-15.595-21.195-32.446-30.413-45.485-1.822-16.455-4.302-35.87-5.431-41.818-1.758-9.275-3.52-23.207-6.178-34.215-0.729-4.298-2.93-18.027-2.24-19.347 1.084-3.072 5.179 0.098 7.196-3.462 3.019-3.291-10.466-38.229-17.311-48.2-2.461-4.469-6.912-2.922-12.423 4.345-5.111 4.782-3.241 15.692-1.29 26.068 5.068 26.446 9.591 53.379 13.17 80.243-6.626-9.85-14.712-21.769-22.675-33.263-0.214-1.108-1.018-5.171-1.018-5.227 0-0.475-1.097-21.635-2.036-26.679-0.164-2.047-0.652-2.637 1.493-2.376 2.275 1.914 2.584 2.017 4.005 2.648 2.297 0.42 4.305-3.463 2.919-7.06-7.105-13.105-14.211-26.268-21.316-39.374-0.855-0.844-1.814-1.732-2.92-1.904zm-661.55 0.679c-3.937-0.113-8.281 2.328-6.585 7.06-0.987 2.579 7.706 11.298 9.233 16.089 1.368 3.411-1.357 14.396 1.493 15.41 2.621 1.136 6.23-7.604 7.603-15.682 0.76-4.425 0.185-19.569-10.115-22.675-0.528-0.119-1.067-0.188-1.629-0.204v2e-3zm753.61 0.087c-0.897 0.089-1.99 1.539-3.666 5.092-4.029 6.599-5.415 18.416-3.802 28.851 9.7 65.612 16.908 129.14 18.397 187.3-0.834 5.52-1.078 8.456-3.666 15.41-5.726 7.34-12.041 16.541-17.99 20.977-5.947 4.434-18.604 8.661-22.742 11.948-13.129 7.589-13.195 16.317-2.58 16.632 18.294-2.124 39.941-3.625 54.852-26.136 3.99-6.308 8.687-23.409 8.893-33.876 1.395-61.363-0.785-121.36-9.979-165.71-0.589-4.32-2.496-14.25-1.765-15.546 1.185-3.037 7.17 0.304 9.3-3.191 3.127-3.193-15.479-27.016-21.995-37.202-1.301-2.557-2.103-4.662-3.257-4.548zm-191.85 1.019c-0.755 0.13-1.871 1.28-3.938 4.005-5.11 16.709-6.906 30.354-4.956 40.732 13.127 68.503 26.577 130.91 24.439 196.12 6.225 0.042 13.422-14.24 16.497-28.375 1.684-19.472-1.123-31.323-1.629-42.77-0.504-11.445-12.956-104.3-15.478-112.96-3.043-16.374 12.108-2.154 10.455-11.676-5.238-12.006-18.31-29.488-22.401-39.917-1.538-2.793-1.728-5.377-2.987-5.159h-2e-3zm-467.12 1.289c-1.613 0.279-3.17 1.609-3.734 3.802-0.355 1.436 0.622 3.826-0.679 4.549-0.747 0.753-3.58 0.247-3.462-3.734 0-1.268-0.931-2.591-1.493-3.394-0.565-0.37-0.946-0.475-1.969-0.475-1.246 0.05-1.218 0.379-1.901 1.426-0.304 1.064-0.695 2.107-0.695 3.324-0.156 1.417-0.723 1.896-1.765 2.104-1.165 0-0.889 0.127-1.833-0.475-0.56-0.613-1.222-0.854-1.222-1.901 0-1.084-0.285-2.814-0.611-3.53-0.495-0.652-1.277-0.992-2.172-1.222-4.881 0.017-5.236 5.626-4.956 7.739-0.366 0.398-0.547 10.339 6.11 13.102 8.936 4.261 25.693 2.46 24.982-11.948 0-1.274-0.28-5.554-0.407-6.721-0.912-2.124-2.596-2.927-4.209-2.648l0.016 2e-3zm119.89 0.136c-3.088 0.157-5.815 1.043-8.146 2.24-5.923 5.671-7.312 14.763-2.648 20.434 4.539 2.144 9.068 6.712 6.042 9.233-12.836 13.71-46.243 36.62-47.927 40.799-0.013 0.034-0.061 0.104-0.068 0.136-4e-3 0.03 0 0.109 0 0.136 1e-3 0.013-2e-3 0.056 0 0.068 0.011 0.035 0.046 0.108 0.068 0.136 9e-3 9e-3 0.058 0.06 0.068 0.068 0.011 7e-3 0.056-7e-3 0.068 0 0.013 7e-3 0.053 0.063 0.068 0.068 0.015 4e-3 0.051-4e-3 0.068 0 4e-3 4e-3 0.062 0.063 0.068 0.068 1.698 1.139 22.601 1.112 24.915 0.068 0.017-9e-3 0.054-0.059 0.068-0.068 6e-3 -4e-3 0.062 4e-3 0.068 0 4e-3 -4e-3 -4e-3 -0.063 0-0.068 7.184-2.647 41.275-41.614 41.275-41.614-1.767-1.513-3.395-2.628-5.159-4.141-1.892-1.638-1.701-3.248 0-4.888 8.443-4.913 5.768-15.724 1.358-20.637-3.658-1.641-7.097-2.196-10.186-2.038zm313.36 0.136c-0.897 0.089-1.99 1.471-3.666 5.024-4.029 6.599-6.767 18.092-6.449 28.851 8.728 60.422 11.403 113.3 17.107 173.72 0.464 5.844-0.392 14.333-4.277 17.718-14.368 15.003-35.086 33.507-57.635 42.022-2.426 2.724 6.032 14.335 16.972 14.324 18.294-2.124 34.373-12.392 49.286-39.441 3.987-6.308 10.995-19.811 11.201-30.278 1.395-61.363-3.093-109.07-12.287-153.42-0.589-4.32-0.188-9.43 0.543-10.726 1.185-1.414 5.201 0.032 7.332-3.462 3.127-3.193-8.351-29.664-14.867-39.85-1.302-2.558-2.105-4.595-3.259-4.48l-1e-3 -1e-3zm-485.46 1.846c-2.525 0.295-4.9 2.351-6.042 5.092-0.423 9.691-0.479 19.377 0.611 28.308 4.408 15.664 5.803 29.442 7.943 45.485 0.593 21.487-12.408 9.295-11.812-1.358 3.002-13.836 2.192-35.618-0.475-41.14-2.115-5.52-4.564-6.883-9.708-5.974-4.084-0.25-14.633 11.245-17.583 30.278 0 0-2.457 9.768-3.53 18.465-1.443 9.829-7.954 16.79-12.491-1.358-3.922-13.19-6.332-45.689-12.898-38.084-1.881 25.375-4.114 70.026 17.447 74.608 26.079 2.507 11.673-44.086 21.113-52.545 1.785-4.18 5.092-4.254 5.363 1.018v39.578c-0.239 12.866 8.228 16.689 14.799 19.348 6.838-0.528 11.372-0.341 14.053 6.313 1.069 22.814 2.19 45.685 3.259 68.497 0 0 15.809 4.543 16.564-38.492 0.758-25.269-5.032-46.473-1.629-51.389 0.12-4.83 6.312-5.069 10.59-2.715 6.816 4.808 9.84 10.726 20.434 8.35 16.12-4.44 25.829-12.265 26.068-24.643-0.942-11.762-2.302-23.538-7.4-35.301 0.712-2.139-3.085-7.704-2.376-9.843 2.897 4.537 7.279 4.16 8.282 0-2.744-9.041-7.015-17.703-13.917-21.452-5.704-5.025-14.051-3.962-17.107 6.517-1.417 12.076 4.376 26.388 13.17 38.084 1.868 4.57 4.48 12.17 3.326 19.008-4.679 2.669-9.319 1.559-13.238-2.58 0 0-12.83-9.605-12.83-11.744 3.405-21.8 0.733-24.296-1.154-30.346-1.318-8.351-5.276-10.996-8.486-16.7-3.21-3.403-7.564-3.403-9.64 0-5.671 9.831-3.01 30.939 1.086 40.393 2.96 8.695 7.5 14.12 5.363 14.12-1.76 4.913-5.431 3.77-8.079-1.901-3.779-11.721-4.549-29.19-4.549-37.065-1.134-9.763-2.399-30.619-8.825-35.911-1.715-2.336-3.739-3.149-5.702-2.919v-2e-3zm91.578 0.136c-1.294 0.164-2.725 0.9-4.412 1.29-5.544 1.765-10.734 6.558-9.097 15.885 6.554 39.824 10.825 70.217 17.379 110.04 1.007 4.664-2.902 10.811-7.943 10.183-8.57-5.798-10.697-17.541-25.321-17.04-10.587 0.127-22.66 11.647-24.168 22.742-1.765 8.818-2.393 18.378 0 26.068 7.44 8.947 16.353 7.993 24.168 5.974 6.427-2.645 11.714-8.978 13.985-7.468 7e-3 7e-3 0.062-9e-3 0.068 0 7e-3 9e-3 -7e-3 0.059 0 0.068 1.401 2.45-0.132 23.164-30.278 39.17-18.526 8.318-33.272 10.306-41.208-4.82-4.916-9.453 0.358-45.455-11.744-37.134-35.79 92.254 83.849 105.13 97.213 3.802 0.866-2.859 3.502-5.727 5.363-5.024 0.817 0.348 1.564 1.457 1.833 3.53-2.774 91.75-92.556 98.039-107.8 69.177-3.779-6.803-4.916-21.947-5.295-31.024-0.691-5.491-2.069-8.658-3.666-9.911-3.638-2.733-8.526 4.395-9.572 16.768-1.513 9.956-1.086 12.689-1.086 22.267 4.789 72.468 120.32 41.331 139.1-18.533 9.295-30.947-0.189-54.294 2.919-57.159 0.027-0.023 0.107-0.048 0.136-0.068 0.03-0.017 0.104-0.053 0.136-0.068 0.032-0.013 0.101-0.057 0.136-0.068 0.106-0.028 0.283-0.066 0.407-0.068 11.469 12.354 27.563 1.57 31.091-2.715 1.513-2.144 5.298-3.519 7.943-0.747 8.947 6.431 24.628 3.399 27.902-7.943 1.892-11.09 3.491-22.508 3.869-34.349-5.828 1.809-10.531 3.164-12.423 5.159-0.451 0.492-0.784 1.038-0.883 1.629-0.506 3.278-0.988 6.566-1.494 9.843-0.054 0.271-0.141 0.521-0.272 0.747-0.248 0.402-0.659 0.773-1.086 1.018-2.06 1.125-5.653 0.482-5.838-2.512-2.772-12.603-14.18-14.243-21.113 5.295-4.664 3.779-13.168 4.517-14.053-1.154 1.134-13.107-4.147-14.866-14.731-8.689-3.403-25.962-6.778-50.749-10.183-76.71 4.412-0.127 8.458 3.072 12.491-1.969-4.365-13.574-13.601-41.195-18.804-43.786-0.041-0.02-0.095-0.052-0.136-0.068-0.236-0.284-0.516-0.545-0.747-0.747-0.096-0.081-0.244-0.203-0.339-0.272-0.095-0.066-0.244-0.149-0.339-0.204-0.209-0.115-0.47-0.208-0.679-0.272-0.474-0.134-0.935-0.198-1.426-0.136h2e-3zm357.01 0.204c-4.578-0.136-9.645 2.75-7.671 8.486-1.15 3.129 9.837 13.742 11.609 19.551 3.188 8.925-2.435 17.438 0.883 18.669 3.052 1.377 7.299-9.214 8.893-19.008 1.841-7.918-3.807-24.144-11.812-27.493-0.614-0.146-1.247-0.185-1.902-0.205zm-278.13 9.775c2.085-0.212 4.604 1.703 5.838 4.413 1.316 2.89 0.656 5.651-1.493 6.178-2.15 0.526-4.929-1.387-6.246-4.277-1.316-2.89-0.656-5.719 1.493-6.246 0.134-0.033 0.269-0.054 0.408-0.068zm515.94 13.374c-4.174-0.146-8.723 3.023-6.924 9.233-1.047 3.387 8.909 14.892 10.523 21.18 1.452 4.476-2.209 18.899 0.815 20.23 2.783 1.491 6.695-9.965 8.146-20.57 0.806-5.805-3.496-26.175-10.794-29.803-0.561-0.155-1.17-0.25-1.766-0.27zm-285.25 7.06c0.382 1.702 0.763 3.416 1.018 5.159 0.856 3.762 1.593 7.499 2.376 11.201-3.295-4.537-6.023-8.203-7.196-9.504-7.456-8.861 0.168-5.818 3.802-6.856zm65.714 32.314c-1.613 0.279-3.17 1.677-3.734 3.869-0.355 1.436 0.69 3.758-0.611 4.481-0.747 0.753-3.648 0.315-3.53-3.666 0-1.268-0.931-2.659-1.494-3.462-0.565-0.37-0.946-0.475-1.969-0.475-1.246 0.05-1.218 0.379-1.901 1.426-0.289 1.066-0.679 2.118-0.679 3.326-0.156 1.417-0.655 1.896-1.697 2.104-1.165 0-0.957 0.127-1.901-0.475-0.561-0.613-1.222-0.854-1.222-1.901 0-1.084-0.285-2.814-0.611-3.53-0.495-0.653-1.277-0.924-2.172-1.154-4.881 0.017-5.168 5.558-4.888 7.671-0.366 0.398-0.615 10.407 6.042 13.17 8.936 4.261 25.76 2.392 25.05-12.016 0-1.274-0.348-5.554-0.475-6.721-0.912-2.124-2.596-2.927-4.208-2.647zm-300.05 2.987c-1.102-0.112-2.546 0.292-4.209 1.29-7.902 4.274-10.962 16.953-6.042 24.372 4.596 6.534 11.863 4.141 12.83 4.141 7.742 0.968 12.355-14.528 12.355-14.528s0.233-4.357-8.961 3.869c-3.869 0.725-4.395-0.673-5.363-2.851-0.806-4.031-0.633-8.118 1.222-12.152 0.857-2.418 5e-3 -3.954-1.832-4.141zm424.15 1.969c-4.387-0.213-9.056 2.627-10.251 8.622 0.017 3.536 1.596 5.48 1.29 8.689-0.458 1.835-2.348 3.042-6.856 0.883 0.705-0.648-2.919-5.77-2.919-5.77-3.517-2.141-8.212 0.116-11.269 2.104-1.682 3.057-2.926 8.296-1.018 13.645 5.047 9.326 22.36 25.239 30.617 25.391 0.153-8.408 0.97-19.589 1.426-26.544 0.195-2.625 0.811-5.519 3.326-6.178 2.514-0.657 6.876 2.529 6.924-0.204-0.458-5.349-1.527-13.243-4.549-16.972-1.548-2.293-4.089-3.538-6.721-3.666zm-351.1 29.259c-0.117 0.043-0.232 0.143-0.339 0.204-0.053 0.032-0.151 0.098-0.203 0.136-0.874 0.656-1.905 2.17-4.209 3.802-3.887 4.421-4.583 7.499-4.345 16.36 0.221 0.937 7.378 20.837 13.442 34.825 4.088 14.539 7.87 31.186 5.092 46.91-9.571 20.786-28.812 39.428-47.384 49.556-9.462 3.03-17.634 1.998-19.823-0.068-0.017-0.017-0.052-0.051-0.068-0.068-5.434-3.653-5.559-10.157-5.227-11.269v-0.068c0.013-0.013 0.055-0.056 0.068-0.068 15.671-10.915 33.572-19.75 47.588-49.217 4.138-11.261 5.402-18.023 1.29-35.436-1.603-6.488-3.583-11.828-8.011-16.429 0.011-0.013 0.056-0.056 0.068-0.068 2.668-1.276 9.589 3.823 10.658 0.611-1.638-8.314-7.269-19.475-13.645-25.186-5.583-5.071-11.657-5.658-16.768-1.018-5.757 3.203-6.981 14.708-4.209 24.778 3.079 7.581 11.39 8.91 17.311 24.168 0 0.015-1e-3 0.063 0 0.068 0.123 0.957 2.032 11.388-0.95 15.614-2.42 7.547-33.507 32.062-35.709 33.537-0.024 0.024-0.18 0.113-0.203 0.136-0.013 0.013-0.056 0.057-0.068 0.068-7e-3 4e-3 -0.053 0.053-0.068 0.068-7e-3 7e-3 -0.062 0.061-0.068 0.068h-0.136c-0.013-0.011-0.056-0.055-0.068-0.068 1e-3 -7e-3 0-0.062 0-0.068-0.013-0.023-0.056-0.111-0.068-0.136-0.094-0.612 0.071-2.17 0-4.684-0.204-4.593 1.697-14.985 1.561-16.768v-0.068c-0.013-0.013-0.055-0.056-0.068-0.068v-0.068h-0.068c-10.276 6.635-13.669 26.972-15.546 32.994-26.014 17.974-55.556 31.347-72.57 49.556-8.861 13.838 61.052-15.89 69.177-19.483 0.07 0.052 0.139 0.137 0.203 0.204 1.544 1.7 1.676 7.626 6.313 12.966 7.267 9.845 22.714 15.907 37.745 12.152 25.206-9.111 39.728-26.29 54.513-45.348 2.113-3.074 5.425-5.496 8.486-3.123 10.16 22.745 39.452 38.929 77.323 40.597 8.763-10.657 4.572-15.897 1.018-18.126-1.095-0.727-18.834-7.643-21.588-14.528-1.734-6.407 2.482-12.089 10.93-16.361 24.315-2.941 48.218-6.207 71.349-13.645 0.234-7.771 4.812-19.392 7.875-24.439 2.127-3.502 3.494-3.849 4.005-4.345 0.017-0.017 0.053-0.05 0.068-0.068 6e-3 -9e-3 0.062-0.058 0.068-0.068 0.013-0.011 0.056-0.056 0.068-0.068 0-0.023 1e-3 -0.112 0-0.136 0.013-0.154-1e-3 -0.419-0.068-0.679l-3.937-2.308-77.595-0.339c-0.959-0.369-1.671-0.739-2.104-1.086-0.033-0.028-0.106-0.108-0.136-0.136-0.013-0.013-0.055-0.054-0.068-0.068-0.013-0.013-0.057-0.055-0.068-0.068-0.011-0.024-0.057-0.112-0.068-0.136-7e-3 -7e-3 -0.06-0.061-0.068-0.068 0-7e-3 -1e-3 -0.061 0-0.068-6e-3 -7e-3 -0.06-0.061-0.068-0.068v-0.204c-1e-3 -0.011 0-0.058 0-0.068v-0.272c0.013-0.013 0.055-0.056 0.068-0.068 0.017-0.036 0.044-0.1 0.068-0.136 0.379-0.511 1.297-0.992 2.444-1.426 18.529-2.525 51.446-7.92 53.631-39.578-0.342-16.49-7.056-27.287-27.289-30.278-14.867 1.15-25.471 15.53-23.761 31.365-0.712 4.263 1.443 12.629-2.919 13.577-28.519 2.606-59.647 20.475-60.691 33.263-7e-3 -1e-3 -0.062 0-0.068 0-0.011 0.013-0.056 0.056-0.068 0.068l-0.136 0.068c-0.024 0-0.112 1e-3 -0.136 0-0.046 0.015-0.157 0.056-0.204 0.068-0.013 1e-3 -0.05 0-0.068 0-0.039-1e-3 -0.11 0-0.136 0h-0.068c-0.029 1e-3 -0.112 1e-3 -0.136 0-0.074-0.015-0.208-0.052-0.272-0.068-1.855-0.515-4.244-3.576-3.869-7.875-1.086-22.108-8.281-47.125-19.551-66.392-4.022-4.021-5.774-5.65-6.924-5.838-0.037-4e-3 -0.1 2e-3 -0.136 0-0.047 0-0.143 1e-3 -0.204 0-0.011 0-0.057-1e-3 -0.068 0-6e-3 0-0.061 1e-3 -0.068 0-9e-3 2e-3 -0.06-2e-3 -0.068 0l-1e-3 1e-3zm74.268 11.677c-1.613 0.279-3.17 1.609-3.734 3.802-0.355 1.436 0.69 3.826-0.611 4.548-0.747 0.753-3.648 0.315-3.53-3.666 0-1.268-0.931-2.659-1.493-3.462-0.565-0.37-0.878-0.475-1.901-0.475-1.246 0.05-1.286 0.379-1.969 1.426-0.289 1.066-0.679 2.118-0.679 3.326-0.156 1.417-0.655 1.896-1.697 2.104-1.165 0-0.889 0.127-1.833-0.475-0.561-0.613-1.29-0.854-1.29-1.901 0-1.084-0.217-2.814-0.543-3.53-0.495-0.652-1.345-0.924-2.24-1.154-4.881 0.017-5.168 5.558-4.888 7.671-0.366 0.399-0.615 10.407 6.042 13.17 8.936 4.261 30.231 1.752 25.05-12.016 0-1.274-0.348-5.554-0.475-6.721-0.912-2.124-2.596-2.927-4.209-2.647zm299.72 12.287c-0.225-0.04-0.483-0.025-0.747 0.068 0 0-41.403 29.455-42.428 30.48-4.106 3.65-2.052 16.485 0 15.003 2.967 1.141 44.651-27.107 43.856-30.413 1.817 0.107 2.691-14.531-0.679-15.139l-2e-3 1e-3zm-260.6 4.366c1.69-0.179 3.906 0.394 6.042 1.629 3.091 1.788 4.996 4.487 4.752 6.449-9e-3 0.053 0.011 0.152 0 0.204-0.013 0.052-0.12 0.153-0.136 0.204-0.017 0.05-0.048 0.155-0.068 0.204-0.013 0.032-0.052 0.104-0.068 0.136-0.015 0.031-0.05 0.105-0.068 0.136-0.101 0.166-0.268 0.34-0.407 0.475-1.486 1.388-4.915 1.19-8.146-0.679-3.063-1.771-4.955-4.492-4.752-6.449 7e-3 -0.053 0.058-0.151 0.068-0.204 0.051-0.243 0.148-0.464 0.272-0.679 0.044-0.077 0.083-0.201 0.136-0.272 0.011-0.013 0.057-0.054 0.068-0.068 0.091-0.106 0.229-0.249 0.339-0.339 0.491-0.387 1.189-0.664 1.968-0.747zm-362.59 7.468c-21.454 0.392-52.871 28.121-53.699 43.515 22.638-10.871 44.875-21.335 67.886-32.585-3.713-5.545-0.224-10.541-14.187-10.93zm69.516 9.64c2.103 0.024 4.321 1.062 5.499 4.005 1.06 2.7 0.05 5.523-1.222 6.924-7e-3 0.011 7e-3 0.057 0 0.068-0.02 0.031-0.047 0.106-0.068 0.136-0.901 1.16-4.062 0.679-6.313 0.679-2.724-0.12-4.067-0.567-5.702-2.783-0.782-2.463 1.599-4.884 2.648-6.721 0.011-0.017 0.057-0.051 0.068-0.068 0.114-0.171 0.3-0.376 0.475-0.543 0.815-0.746 2.223-1.444 3.734-1.629 0.292-0.036 0.581-0.071 0.881-0.068zm545.61 8.537c-3.815 0.47-7.441 4.078-5.77 9.843-1.047 3.387 5.175 15.232 6.789 21.52 1.452 4.475-1.87 17.134 1.154 18.465 2.783 1.491 10.102-7.515 9.843-18.804 0.806-5.805-2.07-27.191-9.368-30.821-0.839-0.234-1.767-0.312-2.648-0.204v1e-3zm-463.39 20.909c-3.372 0.236-6.38 2.038-5.024 6.789-0.204 3.446 9.526 7.637 10.115 15.614 1.39 3.289-2.08 13.821 0.815 14.799 2.658 1.095 6.347-7.28 7.739-15.071 0.771-4.268-3.338-19.195-10.319-21.858-1.071-0.231-2.203-0.35-3.326-0.272v-1e-3zm138.69 18.941c0.256-0.017 0.481 2e-3 0.747 0h0.136c8.644 2.349 21.388 2.593 32.451 3.734 9.01 0.572 13.462 7.626 5.024 10.59-8.325 2.851-16.323 5.078-16.36 17.107 1.094 5.959 0.863 9.086-0.068 10.523-0.073 0.108-0.191 0.251-0.272 0.339-0.011 0.013-0.056 0.056-0.068 0.068-0.013 0.011-0.056 0.057-0.068 0.068-0.013 0.011-0.055 0.058-0.068 0.068l-0.068 0.068c-0.024 0.011-0.112 0.056-0.136 0.068-0.121 0.075-0.275 0.155-0.407 0.204-0.116 0.04-0.284 0.047-0.407 0.068-1.979 0.29-4.853-1.597-6.992-2.715-5.132-3.685-19.536-12.612-21.588-31.771-0.292-4.323 2.944-8.052 8.146-8.418l-2e-3 -1e-3zm-338.76 14.731c-0.54 0.017-1.621 1.631-3.055 3.462-12.763 20.333-13.898 50.683-6.856 59.74 3.742 4.278 9.912 6.16 14.46 4.82 8.018-3.477 11.543-19.719 9.64-25.66-2.676-4.189-4.796-4.852-7.467-1.29-5.643 11.456-7.991 3.619-8.486-2.783-0.865-12.141 0.311-23.322 1.629-32.177 0.702-4.538 0.676-6.127 0.136-6.11l-1e-3 -2e-3zm434.82 26.698c-0.949-0.051-1.961 0.098-2.987 0.611-0.201 0-9.137 6.042-12.016 10.251-1.756 1.336-1.557 2.497-1.018 4.82 1.369 3.146 3.78 2.159 6.517 0.679 3.633-0.495 5.389 1.884 5.092 6.246-1.677 5.439 0.747 7.465 0.747 7.807s3.498 3.344 7.603 0.95c8.666-3.308 14.067-6.526 26.203-9.165 3.186-0.063 3.002-8.589-2.037-8.893-6.573 0.331-12.639 0.666-19.212 5.838-4.044 0.935-4.737-1.527-5.635-3.734-1.027-5.476 2.313-9.336 1.629-13.442 0.182 0.181-2.041-1.816-4.888-1.969h2e-3zm278.41 10.387c-1.613 0.05-3.31 0.274-5.77 0.475-2.66 0.565-3.589 1.73-4.073 4.956 0.19 4.891 3.182 4.649 6.245 6.585 1.774 2.258 2.927 4.301-0.136 8.011-2.903 2.66-4.972 4.128-7.875 6.789-1.371 2.339-2.224 5.93 1.969 7.06 7.742 2.177 25.66-9.465 25.66-9.708 2.903-2.177 1.94-6.313 1.697-6.313-1.693-1.936-5.512-0.773-8.079-1.086-1.222 0-5.234-0.594-3.326-4.141 1.592-2.207 2.179-3.526 3.259-6.246 1.209-2.66 0.146-4.454-4.209-5.906-2.218-0.403-3.751-0.526-5.363-0.475l1e-3 -1e-3zm-116.31 235.48c-0.017 9e-3 -0.051 0.056-0.068 0.068-12.877 3.304-12.477 16.673-4.209 22.538-135.98 0-344.64-2.308-389.4-2.308-25.036 0-104.24-2.987-105.77-2.987 16.987 24.845 41.594 29.905 73.793 30.413 60.396 0 340.24-0.747 419.87-0.747-5.662 10.053 0.514 26.229 4.956 29.192 0.094 0.061 0.247 0.155 0.339 0.203 0.166 0.083 0.384 0.163 0.543 0.204 0.053 0.013 0.152-6e-3 0.203 0 5.273 1.244 7.593-2.573 9.368-5.363 8.553 0.754 56.692 1.45 61.098-0.068 0.015-6e-3 0.053-0.062 0.068-0.068 2.98 4.386 5.938 8.53 11.609 7.807 9.926-2.128 17.743-3.208 17.99-23.353 0 0-1.015-34.328-23.557-32.177-5.334 0.806-20.298 2.308-20.298 2.308-17.318-2.06-30.02-2.271-49.489-2.987 1.797-2.281 4.97-11.521 1.086-14.867-1.013-0.842-2.524-1.311-4.616-1.154-0.015 1e-3 -0.053 0-0.068 0-0.03-1e-3 -0.107 4e-3 -0.136 0-0.015-4e-3 -0.054-0.064-0.068-0.068-0.056-0.02-0.15-0.035-0.203-0.068-0.106-0.072-0.243-0.224-0.339-0.339-0.024-0.03-0.112-0.103-0.136-0.136-0.985-1.433-1.522-4.948-2.172-5.838-9e-3 -9e-3 -0.06-0.059-0.068-0.068-9e-3 -6e-3 -0.06-0.061-0.068-0.068-0.024-0.015-0.112-0.06-0.136-0.068-9e-3 -1e-3 -0.06 0-0.068 0-9e-3 2e-3 -0.059-2e-3 -0.068 0l4e-3 -1e-3zm9.233 49.082c0.024-0.011 0.044 0.011 0.068 0 19.838 0.968 38.477 0.186 58.315 1.154 3.144 2.673 1.572 8.795-0.475 9.911-0.092 0.046-0.246 0.111-0.339 0.136-0.075 0.017-0.197-2e-3 -0.272 0-0.075-2e-3 -0.197 0.017-0.271 0-6.451-0.162-10.182-0.313-16.632-0.475-0.011-0.321-0.047-0.667-0.136-0.95-1.529-4.531-12.601-4.228-15.207-0.679-0.036 0.051-0.103 0.151-0.136 0.203-0.042 0.071-0.101 0.199-0.136 0.272-0.042 0.092-0.105 0.244-0.136 0.339-0.041 0.135-0.05 0.334-0.068 0.475-0.017 0.162-0.082 0.372-0.068 0.543-8.708 1.047-16.546-0.289-25.254-0.611-2.554-3.18-2.256-8.935 0.747-10.318z" fill="#fff"/>
</svg>
