<?xml version='1.0' encoding='utf-8'?>
<svg xmlns="http://www.w3.org/2000/svg" enable-background="new 0 0 1862.8787 1599.9993" version="1.1" viewBox="0 0 1862.8787 1599.9993">
		<path d="m455.14 0.1731c-0.0056 0-0.0107-7e-4 -0.0164-7e-4 -0.0039 0-0.0073 7e-4 -0.0112 7e-4h0.0276z" fill="none"/>
		<path d="m766.46 1093.2c0 5.644-4.5361 8.2758-4.5361 13.955 0 13.4 7.7565 19.737 15.721 30.575 0.3462 2.2161 0.9348 4.4668 1.8352 7.1677 1.4542 4.4321 1.2811 7.2368 3.2202 11.496 1.0735 2.3893 2.597 3.4282 3.0126 6.0251 1.0387 6.3713 1.8352 14.336 8.3104 14.336 3.6357 0 5.6096-1.3159 9.2454-1.3159 2.874 0 3.1858 3.2203 4.7092 5.6788 3.2203 5.194 3.8783 8.8297 6.0251 14.509 3.1165 8.1372 5.575 13.331 12.846 18.11 2.9779 2.9779 5.4711 4.9862 5.4711 9.0723 0 4.4669-2.6316 6.8561-6.025 9.7994-1.9392 1.662-4.0861 2.0083-4.917 4.3628-0.8657 2.2507-0.3463 3.8091-0.5541 6.2329-0.5192 0.0345-0.7616 0.1731-1.2809 0.1731-0.658 0-0.9004-0.554-1.5583-0.554-0.5886 0-1.0929 0.1169-1.5452 0.316-0.1732 0.0763-0.3331 0.1742-0.4929 0.2726-0.0488 0.03-0.1028 0.0515-0.1506 0.0834-1.0212 0.6818-1.8195 1.7693-2.9016 2.7216-2.6663 2.2507-5.0209 3.1509-7.9296 5.0901l-49.447 45.465 1.3158 11.496 0.7617 0.3809c1e-4 -1e-4 1e-4 -2e-4 2e-4 -2e-4h1e-4c2.1075-2.783 3.1678-6.2517 5.6842-7.6459 0.7083-0.3925 1.5256-0.6298 2.522-0.6298 5.5403 0 7.8257 4.8824 13.366 4.8824h3.8435c0.7273 0 1.3085-0.2095 1.853-0.4713 0.5446-0.2617 1.0525-0.5756 1.6335-0.7849 0.3875-0.1396 0.8071-0.2327 1.292-0.2327 1.6967 0 2.043 1.8699 3.0125 3.1855 1.6968 2.2854 3.6013 3.4626 3.6013 6.3021v3.2896c0 2.3546-0.4847 5.1249 1.8699 5.7135l5.4709-1.3158c4.259 1.3849 6.129 3.705 8.4836 7.5485 1.6967 2.7356 1.4197 5.4711 4.1552 7.1677 2.1815 1.3159 4.0167 1.0736 6.4406 2.0778 4.1898 1.6967 5.6443 4.3629 9.5917 6.5791 3.5665 1.9738 2.7008 5.8519 5.1248 9.0723 1.8352 2.4585 4.2938 2.3546 7.1678 3.5665 5.8518 2.5623 10.18 6.3367 10.18 12.639 0 3.8782-4.917 4.8132-4.917 8.6914 0 6.9944 3.6012 10.388 4.1553 17.348 0.6232 3.7051 5.3671 3.0818 9.0721 2.6663 0 3.5667 1.6967 5.4712 1.6967 9.0376 0 3.4973-4.155 4.4324-4.155 7.9296 0 6.025 5.2632 7.8257 8.8644 12.639 2.2162 2.978 1.8007 5.6787 3.2203 9.0723 3.532 8.5874 3.809 14.232 6.7869 23.2 1.6274 3.3589 2.4585 5.5056 2.4585 9.2454 0 4.5361 2.1122 6.8907 3.5664 11.115 1.5582 4.5361 1.1427 7.5486 2.8394 12.085 1.8005 4.8477 6.6138 6.4059 6.6138 11.6 0 3.0819-1.1427 4.7786-1.1427 7.8257 0 3.9475 1.8698 6.1982 2.8395 10.007l72.993 62.64c1.1426 0.4849 2.1814 0.9696 3.4626 0.9696h6e-4c2.3199 0 3.6359-0.2078 5.9213-0.2078 3.8434 0 5.8518-1.4888 9.6951-1.489 3.9127 2e-4 5.1246 4.3284 9.0374 4.3284h7e-4c4.3629 0 4.0513-6.3367 8.1372-7.7563 1.2441-0.4326 2.4141-0.5208 3.5486-0.5005 1.1348 0.0203 2.2344 0.1488 3.3376 0.1488 1.324 0 2.6533-0.1849 4.0559-0.9641 2.5969-1.4542 3.1165-3.3934 5.0901-5.6442 4.8477-5.575 7.3409-10.284 14.509-12.085 4.536-1.1427 7.6871-1.5581 11.15-4.536 1.6276-1.4197 2.0084-3.7743 4.1899-3.7743 7.7908 0 12.119-0.1732 19.91-0.1732 2.8394 0 3.7744 2.4932 5.3326 4.917 2.7355 4.2245 5.2633 6.8215 5.2633 11.877 0 5.575-3.2896 8.2067-6.5791 12.639-1.3159 1.8007-2.8395 2.8395-2.8395 5.0902 0 2.5969 0.9349 3.9474 1.6967 6.406 0.7965 2.7355 1.6622 5.8518 4.5361 5.8518h7e-4c5.0554 0 7.1677-3.5664 10.734-7.1677 3.9822-3.9474 7.5487-6.5098 7.5487-12.015v-4.2592c0-3.9128 3.6359-4.8824 6.4407-7.6871 2.7701-2.7701 2.4933-7.7216 6.4056-7.7218 4.0164 1e-4 5.9902 2.2507 10.007 2.2507h6e-4c5.7135 0 7.9296-5.7135 9.2454-11.323 1.0735-4.6748 1.9392-7.1678 2.8049-11.877 0.8657-4.5361 3.3588-8.6912 7.9292-8.6914 2.0773 2e-4 3.1161 1.1426 5.1936 1.1426h4e-4s1e-4 0 4e-4 0c5.194 0 6.2328-5.2285 10.665-7.9294 2.3201-1.3505 4.1553-0.7964 6.6138-1.8699 3.8435-1.7659 4.9862-4.6052 8.6567-6.6136 2.2159-1.2465 2.3892-4.328 4.9165-4.3282 1.835 2e-4 2.0774 2.2506 3.774 2.8047 2.043 0.7272 3.3934 0.7617 5.5748 0.7617h7e-4c7.9641 0 11.496-4.813 19.149-7.3409 4.1552-3.1165 4.4321-7.2023 7.5486-11.323 4.4668-5.9905 9.176-7.4102 15.651-11.15 2.5969-1.4889 3.4973-4.3281 6.5095-4.3284 2.77 2e-4 4.2935 0.7618 7.0636 0.7618v2.0084c0 4.5015-4.8824 5.9558-4.8824 10.423 0 3.1165 1.0736 4.8823 2.6317 7.5486 1e-4 0 4e-4 -1e-4 4e-4 -2e-4l2e-4 2e-4c4.7784-3.532 5.8519-7.3408 9.7993-11.877 3.9822-4.5708 6.8561-6.4752 11.15-10.769 3.8782-3.8436 7.1677-4.5015 11.704-7.5487 2.1123-1.4197 2.7356-3.0126 4.1553-5.0901 2.0776-3.0126 3.7742-4.9862 3.7742-8.6567 0-2.9432-1.5234-4.4323-1.5234-7.3755 0-3.9474 2.7354-5.6442 3.2202-9.6263 0.658-5.8518-0.5193-9.6609 2.0776-14.889 1.5929-3.255 4.1898-4.2246 7.3411-6.0598 2.4932-1.4197 3.9128-3.0125 6.856-3.0125h3.8438c1.3157 0 1.9736 0.554 3.3241 0.554h4.0514c6.4406 0 9.9032-2.3546 15.513-5.6442 6.2675-3.6704 10.561-4.3284 16.24-8.8644 1.3158-1.0388 1.0388-2.6316 2.2507-3.7742 1.3158-1.212 2.8394-0.9004 4.5361-1.5237 2.2507-0.8311 3.2549-2.0776 5.6442-2.4585l4.1552 0.762c2.7356-0.277 4.1207-1.6968 6.8562-1.6968h4.6055c1.8351 0 2.9778-0.2423 4.5706-1.108v-3.8436c0-5.7134 3.0127-8.3796 3.9822-14.093-0.2078-3.9821-0.5886-6.6138-0.5886-10.561 0-2.5624 1.5237-3.8782 1.5237-6.4406 0-0.3702-0.084-0.6699-0.2229-0.9233-0.8213-1.5024-3.8179-1.1755-6.0105-1.5013-3.532-0.5194-5.5056-1.1427-9.1069-1.1427h-5.0554c-2.5625-0.277-3.9822-0.7617-6.5791-0.7617-2.3547 0-3.6704 0.2076-6.0598-0.1733-3.5664-0.2769-5.5402-0.9695-9.1414-0.9695-5.6096 0-8.6914 2.0776-14.301 2.0776h-4.4323c-9.2454 0-13.678-6.1981-22.923-6.1981h-4.6053c-1.7661 0-2.6663 0.9349-4.3977 0.9349-0.7097 0-1.2723-0.3549-1.6575-0.8871-0.0775-0.1071-0.1425-0.2256-0.2053-0.3456-0.0151-0.0291-0.0354-0.0541-0.0497-0.0837-0.2209-0.4575-0.3378-0.9899-0.3378-1.5222 0-1.7313 0.554-2.7355 0.554-4.4668v-6.7177c0-3.809 3.0125-5.5056 3.0125-9.3146v-3.8783c0-2.3546 1.6968-3.4625 1.6968-5.8173 0-1.5236-0.5627-2.5972-1.2423-3.6489-0.347-0.5371-0.7233-1.0703-1.0719-1.6531-0.334-0.5586-0.6426-1.1626-0.8713-1.8657-0.762-2.3199 0-3.9475-0.9696-6.2327-2.5969-6.2675-6.2675-8.8645-8.6566-15.27-0.7791-2.1295-1.1687-3.8696-2.3228-5.3661-0.3848-0.4991-0.8545-0.9712-1.4521-1.4216-1.3328-0.9995-2.7717-1.2307-3.5051-2.4321-0.1047-0.1718-0.1951-0.3632-0.2686-0.5796-1.0479-2.7942-0.5005-5.1219-2.0032-7.3315-0.1362-0.2003-0.2832-0.4-0.4558-0.5986-2.4585-2.8394-4.1553-4.363-6.406-7.3755-0.6924-0.9089-1.6284-1.4392-2.2329-2.157-0.1135-0.1348-0.2126-0.278-0.2991-0.4297-0.0054-0.0098-0.0137-0.0178-0.019-0.0275-0.1796-0.3263-0.2878-0.7006-0.2878-1.1594 0-1.7313 1.212-2.4932 1.6968-4.1552 0.9349-3.3242 1.1426-5.3672 1.1426-8.8645 0-4.9863-1.5234-7.8604-3.3934-12.431-0.2423-1.7659-0.9695-2.8047-0.9695-4.536 0-1.0388 0.5885-1.5928 0.5885-2.6317 0-4.2244-2.0776-6.3713-2.0776-10.596 0-3.3936 2.9087-4.4668 4.7092-7.3411 2.6317-4.259 3.5667-7.3754 3.5667-12.362 0-1.2124-0.2988-2.193-0.8079-3.0286-0.0056-0.0093-0.0129-0.0175-0.0186-0.0267-0.1226-0.1986-0.2555-0.3903-0.4006-0.5736-1.6721-2.1129-4.7639-3.2928-7.4303-5.3403-1.0126-0.7789-1.7614-1.6509-2.384-2.5592-0.8781-1.2809-1.5084-2.6322-2.2721-3.8979-0.1497-0.2483-0.3055-0.493-0.4688-0.7334-0.0374-0.0551-0.0715-0.1118-0.1096-0.1664-0.7551-1.0768-1.6906-2.0549-3.0759-2.8232-8.899-4.9863-14.889-6.4751-22.646-13.193-4.9515-4.2937-7.4102-6.8561-11.704-11.912-1.9738-2.3545-3.8436-2.9086-6.0251-5.0901-1.8026-1.7876-3.0951-3.363-4.2396-4.9902-0.0092-0.0131-0.0178-0.0262-0.027-0.0393-0.3678-0.5242-0.7206-1.0557-1.0704-1.5999-0.2463-0.3833-0.4917-0.7729-0.7395-1.1738-0.016-0.0259-0.0317-0.0507-0.0479-0.0767-0.7811-1.2659-1.5925-2.6353-2.5664-4.2041-0.2831-0.4545-0.5603-0.8812-0.8325-1.2937-0.4604-0.6976-0.9028-1.3457-1.3225-1.9697-0.1451-0.2158-0.2872-0.4297-0.4265-0.6414-0.05-0.0763-0.1018-0.1533-0.1511-0.2292-1.3616-2.0952-2.4138-4.0944-2.9114-7.1888 0-2.1469 0.1731-2.9432 0.1731-5.1248 0-0.7987-0.2191-1.3843-0.6013-1.8182-1.6553-1.8809-6.3719-0.9136-9.5796-2.0953-1.5579-0.5713-2.5964-1.6185-3.2457-2.9425-0.6493-1.3245-0.9088-2.926-0.9088-4.6053 0-3.3588 1.0735-5.1594 1.3159-8.4835l1.3158-0.2078c5.7133 2.8394 9.3146 3.4626 15.097 5.8518 2.2722 0.9089 4.3059 1.2876 5.6836 2.9685 0.1965 0.24 0.3799 0.5065 0.5486 0.8049 2.5289 4.3552 1.9805 8.7786 4.3848 12.272 0.5587 0.8119 1.2761 1.5737 2.2295 2.2725 2.3893 1.7314 4.6055 1.6968 7.6526 1.6968 5.4709 0 8.5874-0.5193 13.851-2.2854 1.9739-0.6578 2.8741-2.0776 4.9519-2.0776 3.2894 0 5.1593-0.1384 8.4487-0.1731 3.7743 0.1731 5.9558 0.554 9.7301 0.554 5.4711 0 9.0029-1.1082 14.058 0.9695 1.9995 0.8051 2.928 2.1165 3.9683 3.7444 0.3467 0.5425 0.7058 1.1201 1.1213 1.7258 0 1e-4 0 2e-4 1e-4 2e-4 1e-4 2e-4 2e-4 5e-4 4e-4 6e-4 1.0127 1.5061 2.2981 2.2139 3.199 3.4375 0.3 0.4078 0.5576 0.8729 0.7479 1.444 1e-4 2e-4 2e-4 2e-4 4e-4 5e-4 0 1e-4 1e-4 2e-4 2e-4 4e-4 0.9175 0.8309 1.6836 1.6707 2.3167 2.5406 0.0262 0.0361 0.049 0.0732 0.0748 0.1096 0.1295 0.1816 0.2567 0.364 0.375 0.5486 1.5607 2.4377 2.1499 5.1455 2.1499 8.5735v3.8436c0 2.2271 0.6959 4.3546 1.9053 6.0436 1.5546 2.1716 3.9578 3.6182 6.8212 3.6182h4.6055c2.5623 0 3.3586-2.2507 5.3325-3.7743 2.3545-1.766 4.3976-1.9738 6.7869-3.7743 2.2853-1.6968 3.2201-3.9475 6.0596-3.9475 4.2245 0 5.6442 4.1207 9.9033 4.7095l19.633-3.0127c6.6829 0.7273 8.1373 6.5444 12.916 11.323 2.3199 2.3201 5.4709 2.4932 8.3105 0.9349 2.0083-1.108 1.9044-3.1165 2.8047-5.2633 0.9697-2.3545 1.7661-3.7396 2.2854-6.2327 0.277-1.5237 0.1385-3.3936 1.6968-3.6013 3.2549-0.4154 5.0901 0.762 8.2759 1.3506 7.7256 1.3416 12.138 5.4559 16.389 10.678 0.1031 0.1266 0.2059 0.2595 0.3088 0.3875 2.4447 3.0371 4.8615 6.4225 7.8522 9.8494 2.0776 2.4238 4.4324 2.5969 6.7869 4.7439 0.3895 0.344 0.6926 0.7026 0.938 1.0735 1.0632 1.6077 1.0441 3.4468 2.2817 5.3315l5e-4 5e-4c0 1e-4 0 2e-4 1e-4 2e-4 2.0776 3.1165 4.432 3.8782 7.1676 6.6135 0.6362 1.2725 1.3152 2.3759 2.0387 3.3567 3.1354 4.2509 7.1093 6.2026 12.089 9.6633 2.5969 1.766 3.9819 4.1206 7.1677 4.1206 2.0776 0 3.6012 0 5.2979-1.108 1.6621-1.1427 1.9392-3.3934 3.9475-3.3934 1.2119 0 1.8699 0.554 3.0474 0.554 4.6052 0 6.8213-4.1898 8.1025-8.6913 0.7964-2.7355 2.3547-3.9821 2.3547-6.8214v-7.5486c0-5.6488-0.5784-9.5321-3.6182-13.962-0.2026-0.2954-0.4163-0.5931-0.6415-0.894-0.6577-0.8999-1.3586-1.6096-1.8954-2.3755-0.5366-0.7661-0.9089-1.5885-0.9089-2.7139 0-2.6661 2.4585-3.7396 2.4585-6.3712v-7.6525c0-3.3589 4.3284-3.1511 7.5486-4.0862 3.4281-1.0042 5.2633-2.4584 8.8645-2.4584 4.8131 0 7.064 3.3934 11.877 3.3934 3.5667 0 3.2203-5.0554 3.2203-8.6567v-3.6704c0-1.7314 2.4238-1.2813 4.1206-1.6274 2.597-0.6233 4.2592-0.6926 6.6138-1.9045s0.2423-4.5361 1.9044-6.6136c1.0735-1.3505 2.7356-1.108 4.5015-1.108 4.8823 0 7.2371 2.4932 11.704 4.3284 10.18 4.259 15.582 9.7993 26.628 9.7993 9.2799 0 11.808-11.115 21.122-11.115 3.6359 0 4.6747 4.3284 8.3105 4.3284 3.3241 0 5.1249-1.1772 8.2758-2.2507 2.6663-0.9003 5.1594-1.1426 6.4407-3.6012 1.9736-3.7743 3.0471-6.579 6.7869-8.6566 4.3284-2.4238 7.4792-2.043 12.431-2.8395l14.37 5.8519 0.7273-0.2078c4.3975-5.8518 6.5098-10.18 7.7563-17.521l-0.9351-4.1552c1.6968-5.1941 7.2024-5.8521 12.639-5.8521 2.3546 0 3.5664 1.3159 5.9211 1.3159 4.363 0 7.8257-0.554 10.284-4.1553 0.7617-1.1426 2.0776-1.4543 2.0776-2.8394 0-0.9871-0.3995-1.7307-0.8987-2.4133-0.3328-0.455-0.71-0.8828-1.0427-1.3379-0.0481-0.0659-0.0929-0.134-0.1389-0.2013-0.0334-0.0487-0.0687-0.0962-0.1008-0.1458-0.3811-0.5898-0.6584-1.243-0.6584-2.0653 0-0.4849 0.1733-0.7273 0.2079-1.1775h4.6747c6.7522 0 10.284 3.1857 17.036 3.1857 5.5403 0 8.5527-1.3851 14.128-2.0778 3.9243-0.4252 7.3838-0.0518 9.623-3.0127h-946.66c3.3554 9.1634 11.355 15.215 11.355 26.627z" fill="#CF142B"/>
		<path d="m133.24 545.48c0 1.8006-0.6578 2.7355-0.9349 4.5361l4.7092 13.193v4.0167c0 1.9392-2.4584 2.3547-2.4584 4.2938 0 3.8782 2.8394 5.6442 2.8394 9.5223 0 1.0302 0.1856 2.5108-0.5566 2.8651-0.106 0.0505-0.2309 0.0781-0.378 0.0781-2.3546 0-2.9433-2.5278-5.0901-3.3935h-1.3158v1e-4h-3e-4c-0.3116 4.2245-1.1426 7.2025-4.363 9.9725-0.7033 0.6276-1.5723 1.0287-2.4348 1.3765-0.345 0.1391-0.6888 0.2697-1.0206 0.4028-1.4936 0.5992-2.7427 1.2505-2.7427 2.9646 0 3.809 3.9474 5.1594 3.9474 9.0029v4.8132c0 5.8519-3.0126 8.7952-3.0126 14.647 0 10.146 2.4584 15.824 2.4584 25.97 0 2.9087-1.3504 4.5015-1.3504 7.4448 0 9.9032 9.3493 15.374 19.253 16.586l8.3104-1.1081c1.1773 0.0693 1.8352 0.3809 3.0125 0.3809 1.8352 0 3.2549-0.3116 5.0901 0 3.6358 3.6011 6.0943 6.2675 6.0943 11.254 0 2.7355-0.0347 4.6746-0.2424 7.4101l21.503 31.891c3.1165 0.2424 4.7785 1.6968 7.8949 1.6968 2.0776 0 3.2203-0.1732 5.2633-0.1732 2.1967 0 4.0551-0.3517 5.7456-0.962 3.7191-1.3428 6.6249-3.9376 10.529-6.7944 7.2021 0.7272 11.184 2.0776 18.352 2.0776 3.8783 0 6.0943-1.0042 9.9725-0.0346 0 1.0389-0.1039 2.4932 0.9349 2.4932s1.5928-0.4847 2.6316-0.554l7.9295 1.489c0.5768-0.0702 1.0789-0.1792 1.5485-0.3089 1.3397-0.3699 2.3718-0.9346 3.7676-1.4547 0.2885-0.1074 0.5906-0.2131 0.9168-0.3141 0.4847 1.0042 0.6233 1.6968 0.7617 2.8394h2.2161c0.2295 0 0.4384-0.0353 0.6319-0.0969 1.1605-0.3692 1.7659-1.6877 2.9263-2.0571 0.1934-0.0615 0.4022-0.0967 0.6316-0.0967 2.7009 0 3.9821 1.6967 6.6484 1.6967h5.2286l7.1678-1.5236c1.6967 0.554 2.6663 1.1426 4.4323 1.1426 5.5056 0 8.4143-2.0429 13.885-2.4584 1.0734 4.4323 3.809 8.1027 8.3451 8.1027 3.7742 0 5.9557-0.1732 9.73-0.1732 1.8353 0 3.3675-0.1558 4.7873-0.6147 0.2868-0.0927 0.5667-0.2072 0.8459-0.3259 0.0662-0.0281 0.1348-0.0476 0.2007-0.0773 1.0316-0.4646 2.0267-1.1204 3.0656-2.0294 1.3158-1.1081 1.2812-2.6662 2.4584-3.9474 0.6146-0.6492 1.2875-1.0408 1.9957-1.2968 1.5936-0.5758 3.3652-0.4642 5.0499-1.0517 0.5615-0.1958 1.1134-0.4693 1.6458-0.8718 0.5972-0.4415 1.1312-0.8391 1.6712-1.1637 0.3308-0.1989 0.666-0.3663 1.0173-0.5036 0.031-0.0121 0.0602-0.028 0.0916-0.0396 0.579-0.2142 1.2104-0.336 1.9636-0.336h5.4018c4.2938 0 6.5099-2.0776 10.804-2.0776 4.64 0 6.8215 3.0125 11.496 3.3934l9.2454-2.8394c1.2119 2.1815 0.6578 4.1899 2.2507 6.0251 1.5583 1.766 3.2203 1.9738 5.298 3.0126 2.9778 1.489 4.5707 3.1857 7.9295 3.428 2.493 0.1732 4.1552-0.1039 6.4059 0.9349 5.0901 2.32 7.0292 6.96 12.639 6.96 1.0884 0 2.0502-0.1927 2.9352-0.502 2.8755-1.0048 4.9319-3.2546 7.8074-4.2595 0.8849-0.3092 1.8465-0.5018 2.9349-0.5018 1.662 0 2.597 0.3809 4.2591 0.3809 4.8823 0 7.7217-2.8394 12.639-3.2203l87.329 120.67c2.7779-0.6411 5.4085-1.2352 7.7356-1.723 0.0416-0.0087 0.0844-0.0178 0.1259-0.0265 5.1487-1.0756 8.7731-1.6165 9.1056-0.9515 3.8143 7.8723 9.8901 8.3051 16.213 5.7565 1.7704-0.7136 3.5602-1.6609 5.3252-2.7441 8.2848-5.1035 10.607-7.4442 13.008-8.5012 2.6154-1.1518 5.323-0.7787 15.94-0.7787 14.058 0 31.891 6.6484 42.833 7.8604 0.7044 0.0671 4.7456 0.3268 5.7227-0.1604 0.0317-0.0158 0.0699-0.0301 0.0949-0.0475 0.554-0.4155 0.7618-0.4155 1.1774-0.6926 0.2158-0.1727 0.1896-0.2242 0.2314-0.2385 0.0254-0.0085 0.0757-0.0037 0.2184-0.0037h0.4501c0.0779 0 0.1494-0.0195 0.2154-0.0547 0.1981-0.1055 0.3475-0.3522 0.4775-0.638 0.6925-1.3504 2.6316-2.7702 3.4973-3.2549 0.8829-0.4934 1.4932-0.9332 1.9969-1.1826 0.8396-0.4155 1.3833-0.3018 2.4004 0.975 1.435 1.8094 3.1048 1.6418 4.4368 1.0494 0.8859-0.3939 1.6238-0.9738 2.0388-1.2919 0.5194-0.3895 0.2987-0.7206 0.521-0.8618 0.0742-0.047 0.1973-0.0729 0.4136-0.0729h0.4501c0.2338 0 0.4894-0.0925 0.7544-0.2438 1.1482-0.6552 2.4722-2.4133 2.9507-2.5264 2.3201-0.5194 10.146 0.9695 11.115 3.2203 0.2078 0.4848 0.2769 0.4502 0.7271 0.4848 8.5195 0.3312 9.9771-0.9615 15.194-3.1475 0.4088-0.1713 0.8362-0.3469 1.2965-0.5289 0.4221-0.1669 0.8682-0.3381 1.3422-0.5134l1e-4 -1e-4s1e-4 -1e-4 2e-4 -1e-4c0.9695-0.3463 3.0471-1.9045 3.7051-2.7703 0.277-0.4155 0.277-0.1384 0.6925-0.4502 0.1427-0.1168 0.2272-0.1557 0.295-0.1807 0.0081-3e-3 0.0151-0.0054 0.0228-0.0081 0.1002-0.0349 0.1736-0.0547 0.3746-0.296 0.2122-0.2424 0.7158-0.7498 1.0239-0.8729 0.0439-0.0175 0.084-0.0273 0.1184-0.0273 8.8645-0.277 17.14 3.8436 27.113 3.4626 0.0519 0 0.0898-0.0109 0.1173-0.0298 0.1655-0.1135-0.0417-0.5192 0.1816-0.6329 0.0371-0.0189 0.0863-0.0297 0.1511-0.0297h0.4849c0.0519 0 0.1011-0.0157 0.1484-0.0436 0.3315-0.1943 0.5703-0.9824 0.9944-1.1339 0.1471-0.0433 0.2811-0.0956 0.4048-0.1554 0.8661-0.4185 1.2183-1.1951 1.9153-1.6798 0.4502-0.3116 0.3116-0.7964 0.6926-1.1427 0.2258-0.2259 0.4636-0.299 0.6995-0.4032 0.0623-0.0276 0.1248-0.0522 0.1865-0.0886 0.0985-0.0579 0.196-0.1314 0.2913-0.2354 0.0952-0.0952 0.1991-0.1558 0.3013-0.2007 0.1023-0.0449 0.2029-0.074 0.2916-0.1065 0.1776-0.0649 0.3075-0.1429 0.3075-0.3853v-0.4502c0-0.4501 0.3635-0.6752 0.8092-0.8483 0.223-0.0865 0.4664-0.1602 0.6954-0.2424 0.2288-0.0823 0.4431-0.1732 0.6075-0.2944 0.381-0.277 0.6232-0.554 0.9003-0.9349 0.3116-0.4155 0.0693-0.3463 0.4849-0.6926 0.3115-0.277 0.1384-0.1384 0.4501-0.4501s0.0692-0.7272 0.4502-0.935c0.184-0.0974 0.6621-0.3123 1.3494-0.5913 3.7115-1.5068 13.52-4.8839 16.033-1.7286 1.3158 1.6276 11.912 1.9738 12.985 2.7702 1.0387 0.7964 11.738 3.9821 12.05 4.1899 0.381 0.2078 0.3116 0.1385 0.6925 0.2078 1.6968 0.3463 3.7744 0.7271 4.8479 1.8698 0.8657 0.9004-0.2424 0.5887 1.6274 0.935 0.5886 0.1039 0.8309 0.4501 1.385 0.4501h0.4849c0.8657 0 0.4501 0.7618 0.9003 1.3851 0.3116 0.4155 0.3463 0.6232 0.6925 0.9349 0.554 0.4155 0.9349 1.0389 1.6274 1.3851 0.3462 0.1732 2.043 0.9349 2.0776 0.9349 0.8657 0.0345 2.1467 0.8657 2.9087 1.2119-1.8699 2.8741-2.9434 6.3021-2.9434 10.18 0 6.683 8.6914 7.9988 8.6914 14.716 0 10.665-10.838 13.193-19.253 19.599-9.2455 7.0984-10.18 16.621-10.18 28.325 0 6.5098 2.2507 10.076 2.2507 16.586 0 1.6966-2.2161 1.8005-2.6316 3.3934-1.0735 4.1899-0.381 7.5487-3.3936 10.596-3.7225 3.7226-7.6438 4.1758-12.332 5.5168-0.8936 0.2556-1.8118 0.5398-2.7651 0.889 0 0 0 1e-4 -1e-4 1e-4s-1e-4 1e-4 -1e-4 1e-4c-4.6053 1.6968-7.2371 4.7092-8.6914 9.4185-0.3462 1.2811-0.7271 2.5278-1.108 3.7743-3.2896 10.907 6.7869 16.898 6.7869 28.117 0 10.561-5.6788 16.032-5.6788 26.593 0 5.7827 1.9045 8.9683 1.9045 14.716 0 11.15-6.4059 16.794-6.4059 27.944 0 3.0266 0.5675 5.6729 1.4573 8.103h946.66c0.1318-0.1743 0.261-0.3555 0.384-0.5537 1.8005-2.874 4.6055-3.532 5.2979-6.7869 0.9351-4.6748 2.1123-7.2717 3.9475-11.704 0.9351-2.2507 1.5237-4.2592 3.7744-5.0901 3.7744-1.4197 6.0249-1.8351 10.007-2.8395 1.8005-0.4154 1.8699-2.3198 3.5667-3.0125 9.9724-4.3284 16.517-7.8949 21.33-17.556 2.3198-4.6054 6.0251-6.5445 6.0251-11.704 0-5.1248-3.4629-7.3409-4.8826-12.258-1.8352-6.4752 0.5889-11.704-3.6011-16.967-2e-4 -2e-4 -5e-4 -4e-4 -5e-4 -7e-4 -2.6665-3.3934-6.96-1.662-11.115-3.0472l-89.579-105.3c-0.9-3.3239 5.8866-1.6274 8.5526-5.9902 4.0168-6.5099 10.007-18.318 15.305-18.318 3.8436 0 2.597-6.6484 5.0901-7.4102 18.318-5.471 3.4626-15.166 3.4626-25.936 0-5.4364-1.385-12.396-1.385-15.755 0-1.6996-0.1862-2.6985-0.532-3.325-0.7603-1.3784-2.2927-0.9543-4.3162-2.2161-0.9185-0.5792-1.616-1.2912-2.1383-2.078-1.6633-2.5057-1.501-5.791-0.6315-8.1362 5.1941-14.162 7.3411-13.297 20.361-18.283 5.1594-1.9738 19.252 4.3284 19.252-7.6525 0-10.942 22.508 7.8256 31.026-3.2549 6.3022-8.1719 24.931-5.9212 32.896-13.885 0.6924-0.554 1.0042-1.7659 1.6968-2.4585 4.6746-4.6746 6.5791-8.1027 11.877-12.05 2.7354-2.0429 6.9946-2.0429 6.9946-5.471 0-1.5065-0.4531-2.6526-1.1582-3.6574-1.1746-1.6746-3.0493-2.9569-4.6943-4.8615-0.1167-0.132-0.2231-0.2665-0.3203-0.4032-1.166-1.6403-1.02-3.5834-2.0454-5.0262-0.2563-0.361-0.5859-0.6907-1.0276-0.9765-5.1248-3.2549-8.6914-4.7092-14.717-4.7092-1.6274 0-1.6621 1.939-2.6663 3.2203-1.4197 1.8352-3.1511 2.2507-5.4709 2.2507-3.8435 0-5.7827-1.9045-9.2454-3.6013-2.166-1.0711-4.2009-2.2077-5.2617-3.9608-0.4822-0.7971-0.7627-1.7216-0.7627-2.8253 0-3.809 1.3503-5.8865 3.1855-9.2453 1.1426-2.0777 3.428-2.7702 3.428-5.194 0-1.7834-0.5801-3.0907-1.4155-4.3243-0.8354-1.2338-1.9263-2.3938-2.9478-3.8829-2.8047-4.1095-5.916-7.0688-8.1018-10.443-1.7-2.6245-2.8398-5.4999-2.8398-9.3629 0-4.0513 4.3977-4.7093 7.7563-6.96 5.2632-3.6358 6.4407-7.9296 8.8645-13.782 2.0083-4.9171 4.1899-7.3755 6.2329-12.258 1.6274-4.0859 2.2161-9.2454 6.6482-9.2454 2.6663 0 4.2244-0.1732 6.9255-0.2078 3.7742 0.6232 6.0249 1.6967 9.7991 1.6967 5.1594 0 5.7483-5.7827 10.007-8.6567 4.4668-3.0471 7.9294-3.4973 11.877-7.2023 5.575-5.1594 8.0334-9.9033 15.305-12.258 3.1858-1.0388 5.5059 0.4847 8.6567-0.7618 1.5237-0.5541 2.8394-0.3462 3.9822-1.489 1.7314-1.7659 0.4502-4.0167 0.9348-6.4059 0.6926-3.3934 2.4585-4.9516 3.3936-8.3104 0.6924-2.4932 0.4849-4.2591 1.9045-6.4059 1.6274-2.597 4.7092-1.6274 7.5486-2.8394 3.6704-1.5929 6.8213-0.554 9.7993-3.2203 1.4543-1.2812 1.3506-2.7701 2.2507-4.5361 0.7964-1.5582 2.4585-2.0084 2.4585-3.7743 0-0.3964-0.0916-0.7219-0.2529-0.9947-0.6982-1.1816-2.708-1.3715-4.2837-2.0186-1.3157-0.554-2.0686-1.4022-2.7048-2.3932-0.4773-0.7435-0.8887-1.5674-1.4226-2.4076-0.178-0.2802-0.3696-0.562-0.5818-0.8434-0.5012-0.6683-0.9719-1.2942-1.4233-1.9042h-1724.3c3.3721 3.895 5.5255 6.9231 5.5255 12.085z" fill="#00247D"/>
		<path d="m447.78 7.5479c-3.1165 4.1899-6.0597 7.3409-11.323 7.3409-1.385 0-2.0776-0.7272-3.4626-0.7272-0.4155 0-0.658 0.1385-1.0735 0.1732-0.7618 6.7869-2.597 10.284-5.6442 16.413-1.1082 4.4322-3.9822 6.7869-3.9822 11.323 0 2.7009 1.0042 4.1205 1.9045 6.6137 0.8052 2.2596 0.9285 4.0517 1.7289 5.8731 0.2667 0.6071 0.6087 1.2174 1.0762 1.8494 1.1427 1.5236 3.2549 0.7271 4.5361 2.0776 0.3809 0.3982 0.6773 0.8007 0.9078 1.215 0.6912 1.2432 0.7886 2.5934 0.7886 4.2552 0 1.4197-1.8699 1.8006-1.8699 3.2203 0 0.3897 0.0926 0.7794 0.2631 1.1142 0.2841 0.5582 0.7846 0.9641 1.434 0.9641 1.454 0 2.1121-0.9692 3.5659-1.1425-0.7619 3.0811-2.8047 4.2584-5.2629 6.2319-0.8656 0.658-2.4585 0.3809-2.4585 1.489 0 1.0518 0.2825 2.0598 0.7834 2.9089 0.8349 1.4155 2.2769 2.3896 4.0301 2.3896 7.2023 0 11.254-1.0735 18.387-2.4585 3.3588-0.6233 5.1594-1.8698 8.5529-1.8698h8.9683c2.874 0 4.64-0.2077 7.2024-1.5236 2.0776-1.0734 2.9086-2.8394 5.2632-2.8394 1.7313 0 2.6662 0.7618 4.3629 0.7618 0.658 0 0.8311-0.658 1.3159-1.1427 2.1813 1.9736 3.3111 4.0251 4.0317 6.2861 0.2401 0.7535 0.4349 1.5302 0.608 2.335l-2e-4 1e-4c0.4502 2.0429 0.7964 4.259 1.3851 6.6829 1.1773 4.8477 3.2203 7.4448 3.2203 12.431 0 6.8215-6.8907 10.769-13.678 10.769-10.042 0-13.504-7.9642-21.988-13.401-3.2203-2.0084-5.8519-1.5928-9.4185-2.8394-3.3588-1.1772-4.3976-3.2549-7.7564-4.8823l0.2078 0.7618c1e-4 2e-4 2e-4 4e-4 3e-4 5e-4l1e-4 4e-4c0.4934 1.0126 1.415 1.5385 1.8453 2.3953 0.1432 0.2855 0.2319 0.6078 0.2319 0.9971 0 0.4501-0.3809 0.7271-0.5887 1.108 4e-4 1e-4 6e-4 1e-4 1e-3 2e-4 -1e-4 2e-4 -4e-4 5e-4 -5e-4 7e-4 5.2283 0.8657 7.6522 3.0124 12.638 4.5358-1.108 1.5576-2.7352 1.9387-3.393 3.7737-0.554 1.5928-0.5193 3.9474-2.2507 3.9474-1.5236 0-2.2507-0.7272-3.7743-0.7272-1.1774 0-1.662 1.1081-2.8394 1.1081-0.9349 0-1.3158-0.9349-2.2507-0.9349-0.3463 0-0.4156 0.3463-0.7618 0.3809-0.1731 2.7702-3.428 2.9087-5.2979 4.917-3.3242 3.5319-4.5015 8.2758-9.4185 8.2758-1.5929 0-2.5624-0.554-4.1552-0.554-3.6704 0-5.2287 2.4584-8.4836 4.1552-5.471 2.874-8.5875 5.6442-14.716 5.6442-2.8047 0-4.259-0.935-7.0292-0.935-1.0042 0-1.5928 0.1039-2.597 0.1039-0.1732 1.8353 0.1385 3.0126-0.7618 4.6054-1.9391 3.4973-5.7133 2.9433-9.6262 3.7743-6.1635 1.3851-9.7994 1.5236-16.136 1.5236-3.7742 0-5.8519-0.3809-9.6262-0.3809-6.5098 0-10.354 2.3547-15.548 6.2328-2.874 2.597-4.9516 3.428-8.4835 4.917-3.0126 1.212-4.2938 3.0126-7.3755 4.1206-7.3063 2.7702-11.496 4.2591-17.729 9.0723-5.9558 4.64-10.042 5.8519-16.967 8.6913-4.5015 1.8352-6.96 3.1857-10.769 6.2328-2.2161 1.7313-3.2203 4.1206-6.0251 4.1206-3.1163 0-2.5624-5.6442-5.6788-5.6442-3.2549 0-4.8477 2.0431-8.1027 2.2509 2e-4 3e-4 4e-4 6e-4 5e-4 9e-4h-1e-4c1.6967 2.9777 4.4666 3.3936 7.929 3.982-0.3467 4.3277-4.1551 5.9207-4.1551 10.283 0 0.7618 0.3809 1.2119 0.3809 1.9738 0 1.2813-1.662 1.0735-2.8394 1.5236-0.935 0.3116-1.2812 1.3159-2.32 1.3159h-7.0984v4.6746c0 2.9087 2.043 4.2936 2.043 7.2023 0 1.6967-1.5582 2.4239-1.9391 3.8782-0.0693 0.2078-0.1039 0.4156-0.1039 0.658 0 0.4592 0.0825 0.8695 0.2266 1.2434 0.0417 0.1084 0.099 0.2077 0.1506 0.3103 0.0372 0.0739 0.0667 0.1525 0.1086 0.2236 1.1021 1.8716 3.7593 2.8256 4.5514 4.8983 0.1439 0.3769 0.2261 0.7908 0.2261 1.2539 0 2.493-2.1122 3.4281-3.7743 5.2633-0.6925 0.7964-2.2507 0.6232-2.2507 1.6967 0 0.5887 0.1407 1.0692 0.3724 1.4891 0.6945 1.26 2.2075 1.9742 3.1945 3.4288 2.3891 3.4538 5.4403 5.408 6.8169 8.5208 0.4587 1.0377 0.7314 2.2041 0.7314 3.5977v1.5236c0 2.0775-0.1732 3.2894-0.1732 5.3671 0 0.7339 0.1389 1.3595 0.3772 1.9141 1.0316 2.4025 3.9277 3.4734 5.4752 6.2588 0.3137 0.562 0.5951 1.1001 0.8528 1.6212 1.5341 3.1025 2.2108 5.59 3.6304 8.772 0.2368 0.5306 0.4942 1.0806 0.7797 1.6559 0.2511 0.9913 0.5854 1.8813 0.9879 2.6927 2.8162 5.6796 8.9634 7.5013 13.175 13.167 1.2659 1.6987 2.1769 3.2893 2.8733 4.8762 0.1334 0.3041 0.258 0.608 0.3766 0.9125 0.0051 0.0132 0.0112 0.0264 0.0164 0.0396 1.2325 3.1797 1.7195 6.4286 2.5852 10.584 0.5927 2.9009 0.2729 5.0186 1.4409 7.4849 0.1287 0.2719 0.2609 0.5444 0.4293 0.8264 1.7661 2.978 4.5361 2.8394 7.5487 4.5361 1.662 0.8657 2.0084 2.2854 3.6012 3.3934 3.3724 2.2885 6.3385 4.4789 7.834 7.5803 0.654 1.3567 1.03 2.8855 1.03 4.6766 0 0.7618-0.5541 1.1428-0.5541 1.8699 0 0.7015 0.143 1.2838 0.3747 1.8022 0.6946 1.555 2.1877 2.5354 3.0189 4.431 1.4541 3.3585 0.6577 5.6093 0.9348 9.2449 0.2425 1.0042 0.6234 1.9738 0.7618 3.0126l-6.0597 19.079c0.5887 4.5708 2.2854 6.9254 2.2854 11.496 0 2.8048-0.9349 4.2938-0.9349 7.0639 0 0.8052 0.1992 1.4871 0.4979 2.1066 0.5973 1.2392 1.5929 2.2294 2.1903 3.4597 0.2985 0.615 0.4975 1.29 0.4975 2.0862 0 3.4626-1.8352 6.6137-5.2633 7.1678-3.3934 1.6967-4.4322 3.3933-7.5486 5.471-2.1815 1.4543-3.6011 1.9738-5.6788 3.6012-3.6358 2.8048-3.5319 6.129-5.8519 10.076-1.0042 1.7661-2.2161 2.2508-3.8436 3.3935-3.9821 2.7701-6.683 3.3934-10.873 5.6788-2.4585 1.3158-3.9474 1.9391-6.6136 2.9086-5.2979 1.9391-8.3452 3.2203-13.955 3.2203-3.0472 0-4.7093-0.7618-7.7564-0.7618h-1.7659l-3.7397-0.554-10.977 1.6968h-1.8699c-2.5624 0-3.6358-1.8352-5.471-3.6704-1.5581-1.5581-2.718-3.0037-3.4885-4.6007-0.7703-1.597-1.1511-3.3455-1.1511-5.5094 0-1.2465 0.658-1.8698 0.8656-3.1165-0.4847-1.8699-1.0388-3.0125-1.0388-4.9516l2.9087-13.158v-3.1511c0-1.8699 0.554-2.874 0.554-4.7784 0-0.1042-0.0164-0.1979-0.0466-0.2827-0.2101-0.5919-1.0964-0.7397-1.8237-0.8609l-1.8006 0.3809c-4.3976-0.5194-6.3021-3.3935-8.6913-7.1678-1.3505-2.2161-2.8048-2.874-4.6054-4.7092-1.8006-1.8007-3.6012-1.8007-5.6442-3.2203-3.809-2.5623-5.1248-4.9862-8.6913-7.8949 0 1.2465-0.658 1.9391-0.658 3.2203v1.7313c0 2.3199-1.7659 3.3242-3.6704 4.6746-0.8307 0.5539-1.0386 1.2114-2.0074 1.5924l0.3112-0.8644v-1.8006c0-0.4029-0.1073-0.7228-0.2414-1.0222-0.0891-0.1992-0.1903-0.3891-0.2795-0.5882-0.1339-0.299-0.241-0.6188-0.241-1.0212 0-1.1081 1.1081-1.8699 2.2507-1.8699 0.5541 0 0.8657 0.1732 1.4197 0.1732 1.0735 0 0.7964-1.489 1.4197-2.3546 0.658-0.9003 1.3158-1.4543 1.3158-2.597 0-1.8006-0.7618-2.7702-1.3158-4.4669-0.8658-2.6189-1.3528-4.7102-2.3319-6.7051-0.5874-1.197-1.3519-2.3592-2.4817-3.5799-1.8005-1.939-2.9778-2.9086-4.5359-5.0206-0.0823-0.3332-0.1834-0.6404-0.3007-0.9273-0.1101-0.2695-0.2369-0.5181-0.3732-0.7562-0.0087-0.0152-0.015-0.0333-0.0239-0.0484-0.8797-1.5099-2.2369-2.4839-3.4577-4.1204-1.6967-2.2854-2.3893-3.8783-4.4322-5.9212-1.2723-1.2725-2.7005-2.058-3.3353-3.379-0.2114-0.4403-0.3347-0.9401-0.3347-1.5372 0-1.5582 0.831-2.3546 1.6967-3.6704 1.2119-1.8698 1.5583-3.1511 2.6317-5.0901 1.3504-2.4584 2.6662-3.6358 3.705-6.2328 2.4584-6.2328 4.5015-9.3839 7.237-15.582 1.1774-2.6316 0.8656-4.5707 2.4585-6.96 1.9391-2.9433 4.0513-3.9128 7.1677-5.471 3.4973-1.7659 5.1248-3.6704 7.1678-6.9946 0.6925-1.108 1.5582-1.489 2.1815-2.6316 0.5887-1.0735 0.9003-2.0776 2.0776-2.3546 4.5707-7.8603 5.9212-12.95 10.942-20.464 2.7355-4.1206 5.0209-6.2328 9.4185-8.4142 2.7009-1.3504 4.2936-2.1122 6.8214-3.7743 1.3851-0.9349 3.5665-0.831 3.5665-2.5277v-2.0084c-0.2424-2.0776-0.658-3.2203-0.658-5.3326 0-4.6054 3.2203-6.7868 3.2203-11.392 0-1.6968-0.658-2.597-0.658-4.2938 0-1.489 0.9349-2.2507 0.9349-3.7397 0-0.5541-0.1039-0.831-0.1039-1.3504 0-0.4155 0.2078-0.6233 0.3809-0.9696 1.662-1.6631 2.6315-3.0828 2.8739-5.1951 0.0346-0.277 0.0346-0.5887 0.0346-0.9349 0-2.1815-1.9738-2.8048-3.4626-4.4323-2.0777-2.2161-2.9778-3.7051-5.1248-5.8519-1.7313-1.7313-3.0818-2.597-3.9474-4.8824-1.9738-5.2979-3.4973-8.1373-5.194-13.504-0.4502-1.489-1.489-2.1815-1.489-3.7397 0-2.3546 0.3809-3.8781 1.6967-5.8865l-0.1039-0.3809c-1.0734 0.0693-1.6967 0.3809-2.7701 0.3809-2.5277 0-3.6358-1.8699-6.1635-1.8699-0.1992 0-0.3766 0.0347-0.5433 0.0866-0.3333 0.1039-0.6233 0.277-0.9565 0.3809-0.1666 0.0519-0.3441 0.0865-0.5431 0.0865-0.7272 0-0.8311-0.9003-0.9003-1.5929-0.1385-1.0388-0.4848-1.6274-0.4848-2.6662 0-1.7313 1.9738-2.2854 1.9738-4.0513 0-0.4848-0.277-0.7271-0.277-1.2119 0-0.2077 0.2419-0.2078 0.2769-0.3807 1.9044 1.4197 2.4931 3.5665 4.8823 3.5665 1.2119 0 1.9045-0.1732 3.151-0.1732 7.3408 0 10.457 6.0251 17.798 6.0251 0.2424 0 0.3463-0.0693 0.5887-0.0693 1e-4 0 1e-4 -1e-4 2e-4 -1e-4 -1.2465-2.5278-3.3588-2.597-5.471-4.1552-2.8394-2.1469-4.3976-3.5665-7.7217-4.7093-3.0818-1.0735-4.2936-2.7355-7.1677-4.2591-2.32-1.2119-3.2549-2.4932-5.1248-4.3284-0.7271-0.7618-0.831-1.9045-1.8699-1.9045-0.3463 0-0.5194 0.2077-0.8656 0.2077-1.212 0-1.0388-1.6274-1.5929-2.7355-2.2508-6.7523-5.7134-9.6955-10.076-15.201-2.597-3.2203-2.8048-5.8174-4.8132-9.4532-2.0084-3.5319-2.2854-5.9558-3.3242-9.9033-1.662-6.4406-3.9474-9.9033-3.9474-16.552 0-3.8781 0.9003-6.1635 2.5277-9.6609 0.7964-1.6967 0.4502-3.151 1.6968-4.5361 0.1492-0.1567 0.3052-0.2778 0.4651-0.3791 1.324-0.8386 2.9912 0.0201 4.6594-0.6595 4.1552-1.7313 6.8561-1.8698 11.011-3.6704 0.8138-0.355 1.5301-0.7034 2.201-1.04 1.2263-0.6152 2.3089-1.187 3.5487-1.6895 0.795-0.3222 1.65-0.6181 2.6645-0.8717 1e-4 -1e-4 2e-4 -1e-4 2e-4 -1e-4 0.1601-0.0909 0.3152-0.1703 0.4672-0.2399 1.0638-0.4872 1.9651-0.4871 3.2377-0.4871h3.9128c1.8179 0 3.1337-0.5454 4.4366-1.2206 0.6514-0.3376 1.2997-0.7077 2.0057-1.0583 0.7061-0.3506 1.47-0.6816 2.3529-0.9413 0.5319-0.1559 1.0331-0.2884 1.5203-0.4091 0.0402-0.0099 0.0854-0.024 0.1254-0.0337 3.6675-0.8948 6.2579-0.8948 10.439-1.5311 3.0818-0.4847 4.7438-1.2465 7.8257-1.2465h2.043c1.8439 0 3.1815-0.1754 4.5969-0.8474 0.4718-0.224 0.9523-0.5031 1.4631-0.8494 1.5928-1.0388 1.7659-2.4585 2.8394-4.0513 0.3333-0.5453 0.375-1.3556 0.8903-1.5498 0.0736-0.0277 0.1569-0.0429 0.2521-0.0429 1.1772 0 0.9349 2.1469 2.1468 2.1469 0.5021 0 0.909-0.1234 1.2553-0.3334 1.0389-0.6298 1.5324-2.0387 2.4153-3.2334 0.8657-1.1427 1.6968-1.4543 2.7355-2.3546 1.5582-1.3504 1.7313-2.7355 2.5624-4.64 0.5193-1.1774 1.8006-1.5236 1.8006-2.8048 0-0.4155 0-0.7618 0.0693-1.1081-1e-4 1e-4 -2e-4 1e-4 -2e-4 2e-4v-1e-4c-1.2092 0.7953-2.304 1.5456-3.3467 2.2632-0.1382 0.0951-0.2759 0.1898-0.4124 0.2837-0.4095 0.282-0.8123 0.5588-1.2106 0.831-1.8812 1.2856-3.6834 2.4706-5.7827 3.6184-0.3628 0.1984-0.7316 0.3961-1.1143 0.5925-0.6288 0.3228-1.2871 0.6436-1.9839 0.9639-10.665 4.8477-18.075 3.428-29.052 7.5486-9.9725 3.7051-16.032 4.4323-26.247 7.5487-2.5206 0.7645-4.7051 1.6057-6.8012 2.3818-0.3505 0.1298-0.6995 0.2571-1.0461 0.3824-0.8557 0.3096-1.7048 0.6029-2.5605 0.8712-0.1627 0.051-0.3258 0.1019-0.4892 0.1509-2.5819 0.7755-5.2695 1.3036-8.5286 1.3036l-1e-4 1e-4h-2e-4l-39.059 73.028-9.5222-4.1551c-1.0129 0.1429-1.8408 0.3685-2.6169 0.6221-0.776 0.2536-1.5003 0.5352-2.3061 0.79-0.5372 0.1699-1.1107 0.3279-1.7599 0.4577-2.8936 0.606-5.4226 1.0596-7.7321 1.7985-0.0152 0.0048-0.0298 0.0106-0.045 0.0154-0.7408 0.2386-1.4575 0.5115-2.1581 0.8241-2.0894 0.9321-4.0231 2.2523-5.9242 4.3566v4.5707c0 1.4198-1.4197 1.6968-2.2507 2.7702-1.6966 2.1815-2.4584 3.6358-3.7742 6.0597-1.9392 3.4974-3.1165 5.471-4.9171 9.0377-0.66 1.3417-1.5264 2.2642-2.5112 2.9977-1.6404 1.2217-3.6091 1.9247-5.502 3.1626-0.6074 0.3972-1.2078 0.8447-1.7861 1.3884-4.6747 4.363-5.0555 8.8299-6.6138 15.097-1.385 5.5403-4.5014 7.6525-6.9946 12.639-0.9349 1.9391-0.7618 3.3588-1.6968 5.2979-0.9349 1.939-2.6663 2.1815-4.3284 3.5665-2.5623 2.2161-3.6012 4.0167-5.471 6.8215-2.6317 3.8436-2.2161 7.0639-4.1552 11.288-4.5707 10.007-8.3104 15.859-8.3104 26.801 0 4.9517 1.3158 7.514 1.3158 12.466-6.5098 15.651-5.9212 26.212-12.431 41.898-0.1039 0.7964-0.2078 1.2119-0.2078 2.0084 0 1.5583 1.9045 1.6621 3.0126 2.7009 1.4197 1.3158 1.5236 2.9086 1.5236 4.8823 0 9.3492-9.28 11.808-11.877 20.776-1.2465 4.3283-2.8394 6.6136-4.5361 10.734-0.8656 2.0776-0.4154 3.8436-1.9044 5.471-0.3635 0.4155-0.7595 0.6946-1.181 0.8943-1.2644 0.5989-2.7576 0.482-4.2897 1.1832h-1e-4c-1e-4 1e-4 -2e-4 1e-4 -2e-4 1e-4 -4.4669 2.0776-4.5015 6.5098-6.1982 11.15-2.5625 6.8907-7.7566 8.4836-11.531 14.89-1.9736 3.4627-2.8048 5.575-4.3284 9.2454-1.0388 2.5624-1.1773 4.64-3.6011 6.0597-2.6317 4.5361-3.6704 7.4101-4.8824 12.431 0.1516-0.0347 0.2939-0.078 0.4296-0.1273 0.5422-0.197 0.976-0.4891 1.4576-0.7034 0.3611-0.1606 0.749-0.2775 1.2293-0.2775 3.7744 0 5.5404 2.6317 9.3147 2.6317 0.4351 0 0.814-0.0925 1.1578-0.2429 1.146-0.5011 1.9005-1.6448 3.033-2.1459 0.3397-0.1503 0.7133-0.2428 1.1417-0.2428h4.64c0.5064 0 0.9414-0.112 1.3229-0.308 2.2888-1.1757 2.649-5.3759 4.9377-6.5519 0.3813-0.1959 0.8163-0.3079 1.3226-0.3079 1.1773 0 1.662 0.9349 2.8394 0.9349 0.355 0 0.645-0.0823 0.8966-0.2208 0.7548-0.4155 1.1639-1.3375 1.9431-2.0647 0.6351-0.5646 1.3003-0.8675 1.9859-1.1136 0.3656-0.1312 0.7361-0.2482 1.113-0.3758 0.6504-0.2202 1.3159-0.4799 1.9912-0.9344 1.7572-1.2421 2.4542-3.2 4.2476-3.6702 0.2562-0.0671 0.5349-0.1039 0.8422-0.1039 1.1428 0 1.1774 1.4197 1.489 2.4585 0.6578 1.9045 1.4197 2.9087 2.4584 4.7093 2.7009 4.6746 4.7093 7.7217 4.7093 13.158v3.8782c0 2.043 1.7313 3.7051 3.7743 3.7051 0.6407 0 1.2126-0.112 1.733-0.308 3.1221-1.1758 4.389-5.3757 7.5109-6.5518 0.5203-0.196 1.0922-0.3079 1.7327-0.3079 0.9349 0 1.3158 0.9349 2.2507 0.9349s1.4889-0.3809 2.4585-0.3809c3.7742 0 5.0901 3.5667 6.96 6.8215 3.3933 5.8519 3.0471 10.18 3.7743 16.967 1.1773 10.63 2.5623 16.517 5.6787 26.593 2.5971 8.345 2.8741 13.643 7.1678 21.33 3.0471 5.471 6.7523 7.1677 11.496 11.323 5.5402 4.813 7.7563 8.345 12.085 14.162 3.255 1.5928 3.7397 3.9474 6.0251 6.579 0.1141 0.1307 0.215 0.2527 0.3265 0.3814h1724.3c-0.0923-0.1248-0.1899-0.2542-0.28-0.3773-2.3015-3.1419-3.9014-5.7883-4.6328-10.149-2e-4 -1e-4 -2e-4 -3e-4 -5e-4 -4e-4v-2e-4c-1.9736-1.9045-3.8782-3.3935-5.679-5.0555-1.6055-1.4542-3.1318-3.0676-4.6714-5.1646-0.2197-0.2995-0.4399-0.6088-0.6604-0.929-2e-4 -1e-4 -2e-4 -2e-4 -2e-4 -2e-4 0-2e-4 -2e-4 -2e-4 -2e-4 -4e-4 -4.1553-6.0597-10.388-5.2979-17.556-6.6137-8.2065-1.5236-11.738-7.5486-20.084-7.5486-2.9778 0-4.6746 0.3808-7.6526 0.554h-5.2288c-2.9778 0-4.9167 1.4197-6.6482 3.7743l2.2507 5.471c-1.4543 0-2.2507-0.1732-3.7051-0.1732-3.9819 0-2.9087 7.5487-6.856 7.5487-6.1636 0-8.7261-4.1207-14.717-5.852-6.752-1.9736-11.149-1.8005-16.967-5.6783 1.3159-3.1855 3.3933-4.7783 3.3933-8.2755 0-1.8352-1.5234-2.7009-1.5234-4.5361 0-1.5928 2.0776-1.9391 2.0776-3.5319v-4.4323c0-2.6438-1.2419-4.1819-2.52-6.1244-0.0024-0.0037-0.0049-0.0072-0.0073-0.011-0.4268-0.6492-0.8574-1.344-1.2471-2.1404-0.3635-0.7274-0.7427-1.4332-1.1572-2.0827-1.2434-1.9478-2.8079-3.389-5.2493-3.389-0.8655 0-1.2466 0.5887-2.0776 0.5887-0.4844 0-0.7615-0.3806-1.1421-0.5883l1.1426-3.0122c-2e-4 -2e-4 -2e-4 -4e-4 -5e-4 -5e-4v-2e-4c-0.3809-0.277-0.4846-0.7618-0.9348-0.7618-3.2546 0-4.0862 3.2547-6.9944 4.7437-0.7617-3.7392-2.0774-5.8168-2.0774-9.6253 0-3.7397 5.0901-4.3976 5.0901-8.1374 0-0.0781-0.0239-0.1432-0.0598-0.2018-0.0713-0.1167-0.1899-0.2076-0.2615-0.3242-0.0356-0.0584-0.0596-0.1233-0.0596-0.2011v1e-4c0-3e-4 -5e-4 -5e-4 -5e-4 -8e-4 -1.6968 0.4155-2.2161 2.043-3.9473 2.043-0.5713 0-0.9819-0.2628-1.272-0.6718-0.4834-0.6818-0.6323-1.769-0.6323-2.721 0-1.0388 1.1082-1.3158 1.9048-1.8699 2.666-1.9738 4.8477-3.2896 5.644-6.6136-2e-4 2e-4 -5e-4 4e-4 -1e-3 6e-4 2e-4 -5e-4 5e-4 -9e-4 5e-4 -0.0013-2.2507 1.3157-3.0127 3.1161-5.6438 3.7742l-0.2078-0.761c0.5889-2.2507 2.0776-3.2896 2.0776-5.6442 0-1.1773-0.554-1.8352-0.554-3.0125 0-2.32 1.1426-3.3935 1.6968-5.6788 0.6233-2.4585 0.0347-4.2245 1.3157-6.4059 1.3159-2.2507 3.532-2.4239 6.0251-3.2203-0.4155-1.0389-0.8396-2.121-1.4414-2.9434-0.6018-0.8227-1.3809-1.3857-2.5066-1.3857-3.8091 0-3.9128 6.0251-7.7217 6.0251-1.385 0-2.043-0.7271-3.3936-0.9349l-10.111 2.4585c-0.5537-0.0347-0.8311-0.1384-1.4192-0.1731 0.4851-2.9426 2.9434-3.7047 4.363-6.2322 1.2463-2.32 2.0427-4.2591 4.5015-5.2979 2.8394-1.2119 5.1938-1.0388 7.3755-3.1856 1.5928-1.6274 0.3809-5.2979 2.666-5.2979 1.1082 0 1.6968 0.1732 2.8047 0.1039v-1.489c0-1.8871-0.7009-3.2029-1.6401-4.4409-0.822-1.0833-1.8262-2.1069-2.7024-3.4015-0.1252-0.1848-0.2476-0.3751-0.3665-0.5719-0.2124-0.3421-0.4229-0.6715-0.6323-0.9894-3.1423-4.7657-6.062-6.9387-10.899-10.542-1.1079-0.3808-1.8008-0.9349-3.0127-0.9349-1.5581 0-2.1814 1.4542-2.8391 2.8394-1.2122-1.662-2.3894-2.2161-3.7744-3.7743-0.1252-0.1448-0.2341-0.2914-0.3284-0.4397-1.4128-2.2256 0.4736-4.8164-0.9871-7.316-0.1472-0.2467-0.3008-0.4788-0.4607-0.6972-2.3979-3.2761-6.1965-3.4587-10.482-3.4587-2.7354 0-4.259 1.1426-6.9945 1.1426-6.4752 0-8.899-4.917-14.336-8.4835-8.5181-5.6788-13.435-8.4836-22.265-13.955-3.532-2.1815-4.7092-4.64-8.2759-6.6138-3.7397-2.0776-6.1982-2.978-9.2454-6.0251-1.9045-1.9045-2.4585-3.7051-4.7439-5.1248-4.7091-2.9086-8.8989-2.5278-12.431-6.96l-0.7618 0.3809 9.4185 14.89-0.173 0.7618c-6.8562-0.4155-10.908 0.277-17.556-1.6968-4.0513-1.1773-5.9905-3.3934-10.18-3.3934-3.8782 0-4.9863 4.5361-8.8645 4.5361-0.4415 0-0.7617-0.1428-1.0074-0.3803-0.7365-0.7128-0.8014-2.2769-1.4506-3.3933-0.2339-0.4071-0.4791-0.7773-0.7361-1.1165-1.7971-2.3738-4.1642-3.2298-7.1941-4.5629-2.6812-1.1664-4.3352-2.8563-5.8289-4.6754-0.0734-0.0894-0.1448-0.1804-0.2175-0.2703-0.481-0.5949-0.9531-1.1999-1.439-1.8045-0.0815-0.1017-0.1616-0.2035-0.2444-0.3049-1.2991-1.5923-2.7534-3.1555-4.9089-4.441-4.8132-2.874-7.5834-4.2937-12.466-6.9946-5.9213-3.2895-8.8645-7.7217-15.651-7.7217-2.1122 0-2.8741 1.8005-4.917 2.4584-2.1469 0.7271-5.0901 0.4501-5.0901 2.7355 0 1.1819 0.5118 2.0453 1.1368 2.8401 0.3822 0.4861 0.8059 0.9471 1.1833 1.4382 0.5962 0.7763 1.0732 1.63 1.0732 2.7855 0 0.6233-0.3462 0.9349-0.3462 1.5582v4.6054c0 2.8395 0.2078 4.5361 1.108 7.2371l-0.7618-0.5541c-0.6194-0.4645-1.0916-0.9893-1.4868-1.543-0.9342-1.3093-1.4202-2.7867-2.2666-4.0633-0.5565-0.8395-1.27-1.5919-2.3755-2.1501v6.1982c0 2.043-1.2119 3.0818-1.5928 5.1248-0.3463 1.8353-0.1385 3.2549-1.3157 4.7091-1.5576-3.1159-1.5232-5.1243-1.5232-8.4827 0-1.801 1.6006-4.4021 1.011-5.3136-0.1357-0.2106-0.3882-0.3313-0.8038-0.3313-2.9432 0-3.3241 4.1206-6.2328 4.1206-1.2726 0-2.1213-0.6865-2.8644-1.5447-0.4951-0.572-0.9432-1.2202-1.4384-1.7921-0.7432-0.8585-1.5922-1.5455-2.865-1.5455-1.0386 0-1.5581 0.7958-2.0771 1.6958v-2.4915c0-2.043 1.1426-3.0471 1.1426-5.0555 0-6.2675-2.5625-9.5917-3.2202-15.859-0.6169-5.7785-0.5033-10.035-3.8251-14.396-0.2216-0.2909-0.4584-0.5823-0.7117-0.8746-1.8698-2.1815-4.0859-2.1469-6.4059-3.7743-2.2507-1.6622-3.6011-3.6012-6.406-3.6012-5.0208 0-3.7395 7.0985-4.5359 12.085-0.7532-0.251-1.3136-0.6448-1.741-1.142-1.2819-1.4917-1.3663-3.9131-1.8597-6.1982-0.6578-3.1857-2.0778-4.8823-2.0778-8.1373 0-5.0555 3.6013-7.4101 3.6013-12.431 0-2.804-0.9803-4.8495-2.4812-6.619-1.9095-2.2514-4.6624-4.0553-7.3188-6.4014-3.3933-3.0471-5.0554-5.2633-8.6912-7.9295-3.9475 4.8478-2.0776 10.007-6.6138 14.509l-0.7612-0.173c0.3467-4.3279 4.363-5.9554 4.363-10.284 0-0.6754 0.0778-1.5649-0.2632-1.9673-0.1138-0.1345-0.2739-0.2149-0.4993-0.2149-1.5929 0-2.2162 1.5236-3.8091 1.5236h-2.0425c-0.277-2.3541-0.9348-3.6699-0.9348-6.0589 0-2.8048 3.8436-2.5624 6.6138-3.1856 3.3241-0.7964 5.0901-2.0776 8.4835-2.6317 6.7869-1.1426 10.665-2.0776 17.521-2.0776 4.2592 0 6.1636 3.1856 10.388 3.1856 2.0431 0 2.874-1.6967 4.917-1.6967 2.978 0 4.3977 2.0776 7.3411 2.0776 3.2549 0 5.0554-1.489 8.3104-1.489 0.5885 0 0.9823 0.2813 1.2793 0.7031 0.5939 0.8441 0.8007 2.2506 1.4033 3.0944 0.3014 0.4223 0.7018 0.7039 1.2994 0.7039 3.428 0 4.8823-2.7355 7.1677-5.2632 2.0776-2.3546 3.428-3.7397 5.0901-6.4406 1.489-2.4239 1.2811-6.1981 4.1898-6.1981h4.2592c3.1855 0 4.9515 0.6925 8.1372 1.108 6.4751 0.1385 10.146 0.3809 16.621 0.3809 5.5056 0 9.28 0.7964 13.955-2.0775 4.259-2.6317 5.6095-5.6442 8.1025-10.007-4e-4 1e-4 -7e-4 1e-4 -0.0011 2e-4 1e-4 -4e-4 4e-4 -7e-4 6e-4 -1e-3 -2.2163 0.5194-3.4281 0.7617-5.7135 0.7617h-6.3021c-4.5361 0-7.0293 1.5236-11.565 1.5236-2.3892 0-3.8088-0.381-6.2328-0.381-8.1373 0-12.189 4.7093-20.36 4.7093-4.1899 0-6.406-2.0776-10.631-2.0776-3.7051 0-5.7826-0.1732-9.5222-0.1732-9.0032 0-14.301-1.2812-22.681-4.5361-4.536-1.7313-6.8906-4.3284-11.738-4.3284h-4.0513c-7.791 0-11.531 4.6746-19.322 5.2632l-18.837 3.3935c-5.575 0-8.2412-3.7743-13.782-3.7743-3.3936 0-5.4017 0.7618-8.4836 2.0776-1.766 0.7618-2.4585 2.2854-4.3629 2.2854-2.7701 0-4.6053-0.6578-6.6136-2.6662-3.1857 1.6274-4.6053 3.3242-7.7218 4.7438-6.9254 3.1165-11.704 2.8048-19.287 2.8048h-5.748c-3.8436 0-6.1289 0.4848-9.6954 1.9045-3.0126 1.212-4.5016 3.2203-7.7565 3.2203h-4.813c-4.3976 0-6.6482-1.8698-11.011-2.4585-8.726-1.2466-14.959-1.2466-21.503-7.1678-2.8395 3.7744-4.6053 6.0597-8.6913 8.4836-1.8698 1.1427-2.9087 2.4585-5.0901 2.4585-3.2896 0-4.9863-1.5236-8.2759-1.9045-2.2854-0.2425-3.7051 0.2424-5.8518-0.3809-1.8005-0.5194-2.0776-2.8048-3.9822-2.8048-1.9391 0-2.4932 1.6274-4.1553 2.6317-2.5277 1.5582-4.4668 1.489-7.4448 1.489-7.3408 0-11.6-1.3158-18.387-4.1206-0.7964 1.2119-1.1426 2.2507-1.1426 3.7743 0 2.1468 1.5581 3.151 2.4584 5.0901 1.9391 4.1552 2.4584 6.9254 2.4584 11.496 2e-4 1e-4 5e-4 2e-4 6e-4 2e-4v5e-4c0.3116 0.1039 0.554 0.381 0.9349 0.381 2.4932 0 2.0776-3.4974 3.7743-5.298 2.2162-2.3546 4.5707-2.1469 7.7217-3.0126 4.1552-1.0734 6.8907-0.1732 10.977-1.489 1.3506-0.4502 1.7314-2.0776 3.1857-2.0776 2.4932 0 3.6359 1.5928 6.0251 2.0776 3.6012 0.6925 5.8519-0.7272 9.4531 0.1732 0.4154 0.0974 0.7227 0.286 0.9598 0.5367 0.8691 0.9197 0.7979 2.6734 1.6755 3.8218 0.1598 0.2091 0.3508 0.3981 0.5848 0.5585 1.2119 0.8311 2.2853 0.1732 3.809 0.1732h8.3796c6.0944 0 7.8604 7.1678 13.92 7.1678 3.4626 0 5.3325-0.935 8.7953-0.935 0.311 0 0.4497 0.3105 0.7258 0.3804-10.596 4.3976-17.14 6.9598-28.67 6.9598-3.7048 0-5.7134-1.489-9.4185-1.489-5.6787 0-8.5874 2.8394-14.266 2.8394-5.0902 0-7.5486-2.6663-11.981-5.1248-2.2161-1.212-3.1165-3.3934-5.6442-3.3934-4.8478 0-3.4628 9.2453-8.3104 9.2453-1.3159 0-2.0778-0.4501-3.3936-0.554-5.1248 0.8656-8.5874 1.5928-11.877 5.471-1.004 1.1774-2.4585 1.6621-2.4585 3.2203 0 0.7618 0.554 1.1081 0.554 1.8698 0 5.8519-6.2328 7.4102-11.704 9.4531-6.025 2.2507-9.0376 5.6442-15.513 5.6442h-3.9128c-2.1122-0.1385-3.151-1.3159-5.2633-1.3159-1.4888 0-1.6274 1.6968-2.4584 2.8394-2.2853 2.9086-2.6663 5.471-5.6788 7.5486-1.4888 1.0388-2.8047 0.6578-4.5361 1.3158-2.2507 0.9003-2.6316 2.9779-3.3934 5.2633-1.766 5.4363-7.4447 6.1981-13.193 6.6136-3.6704 0.2424-5.6443 0.9349-9.3494 0.9349-3.2549 0-4.9517-1.6967-8.2065-1.6967-7.3408 0-10.284 6.6136-17.625 6.6136-8.5527 0-12.777-5.0901-21.33-5.0901-4.3282 0-6.6829 1.3159-11.046 1.3159-5.4016 0-7.5833-4.0164-11.496-7.929-0.7273-1.2596-1.4594-2.451-2.2949-3.4483-1.3926-1.6622-3.0725-2.785-5.4966-2.785h-4.0861l-4.1552-0.5541h-7.514c-3.0126 0-4.8131-0.7618-7.41-2.2507-6.8215-1.6967-11.185-2.043-17.902-4.1552-3.7051-1.1426-5.1941-3.982-9.0723-3.982-1.5928 0-2.1814 1.6967-3.7742 1.6967-1.8567 0-3.022-0.8326-3.9379-2.0576-1.2211-1.6339-1.9987-3.9656-3.3802-5.952-0.3452-0.4966-0.7283-0.9717-1.1656-1.4089-4.0513-4.0513-7.2717-5.5749-11.323-9.6262-3.8477-3.8477-7.4039-5.2567-10.552-9.0049-0.4497-0.5354-0.8911-1.1185-1.3237-1.7632-0.2854-0.4141-0.5793-0.8015-0.8757-1.1769-1.178-1.4925-2.4067-2.7258-3.4099-4.0263-1.2549-1.6273-2.155-3.3672-2.155-5.8774 0-0.831 0.1384-1.2466 0.2078-2.1122h3.7051c0.7618 0 1.0042 0.7618 1.766 0.7618 1.5929 0 3.0126-1.2465 3.0126-2.8394 0-0.4935-0.134-0.8665-0.3677-1.1533-1.0117-1.2438-3.896-0.8708-5.8657-1.6868-3.532-1.4544-5.1941-3.1511-8.6914-4.7093-5.8865-2.7008-9.176-5.471-15.651-5.471-4.9515 0-5.2286 7.5486-10.18 7.5486-4.5707 0-6.5443-3.7742-11.15-3.7742-5.748 0-8.9337 0.7618-14.716 0.7618-4.5015 0-6.96-2.0776-11.496-2.0776-8.9683 0-13.678 3.9474-22.646 3.9474-2.9087 0-4.3284-1.8698-7.2716-1.8698-5.6442 0-8.4143 3.3935-14.093 3.3935-0.6925 0-1.1427-0.1385-1.8352-0.2078l-8.4835-1.489c-5.0555 0.3809-7.1332 3.5319-11.912 5.0901-8.5183 2.8394-13.678 4.5361-22.681 4.5361h-4.0859l-16.24 1.3158-9.6262 0.1732c-9.4185 1.108-14.82 2.8394-24.343 2.8394h-6.7523c-4.6399 0-7.5833-0.2423-11.912 1.5236-2.4238 0.9695-2.5623 4.1552-5.1593 4.1552h-3.6704c-3.5319 0-5.5748 0.7272-9.1068 0.7272-2.1814 0-2.7701-2.4239-4.9517-2.4239h-3.6704c-1.5236 0-2.3201 0.7271-3.8435 0.7271-2.6317 0-3.1858-3.3934-5.8174-3.3934-2.6663 0-3.4281 3.0125-6.0597 3.0125-6.2328 0-7.9641-5.5054-13.4-8.6565-0.6602-1.5905-1.3811-2.8801-2.1428-4.0474-0.0923-0.1415-0.1863-0.2783-0.2798-0.4165-0.0608-0.0899-0.1207-0.1822-0.182-0.2709-1.088-1.5757-2.2482-2.9816-3.4254-4.7075-0.5044-0.7397-1.012-1.5383-1.5184-2.4342-3.7051-6.7175-4.5707-11.115-6.5791-18.525-1.0387-3.8436-2.2854-5.9904-2.2854-9.9726 0-5.194 6.7869-4.4322 11.531-6.6136-1e-4 -2e-4 -5e-4 -5e-4 -6e-4 -7e-4 1e-4 0 1e-4 -1e-4 1e-4 -1e-4 -3.2202-4.0513-7.2371-4.0513-12.292-5.0901-1.4802-0.2856-3.1746-0.5713-3.9294-1.5579-0.2513-0.3289-0.3984-0.7356-0.3984-1.2462 0-0.3462 0.0347-0.5887 0-0.9695 2.9434 0 4.64-0.7618 7.5487-0.7618 2.0776 0 3.2549 0.2771 5.298 0.7618-1.1255-3.3763-2.5713-6.192-4.1426-8.7355-0.147-0.2381-0.2998-0.4633-0.4489-0.6968-0.2745-0.4301-0.5485-0.8614-0.8285-1.2784-1.5981-2.3804-3.2671-4.5734-4.8225-6.85-2.7661-4.0489-5.1709-8.3683-6.1708-14.504-1e-4 0-4e-4 -1e-4 -4e-4 -1e-4 -1e-4 -2e-4 -1e-4 -5e-4 -2e-4 -7e-4 -6.7521-1.108-11.254-2.8394-15.686-7.9295-0.2769-0.3202-0.5284-0.6371-0.7625-0.9495-0.1919-0.2562-0.3702-0.5085-0.543-0.758-0.0837-0.1208-0.1663-0.2407-0.2471-0.3598-0.1892-0.2789-0.3732-0.5526-0.5554-0.8203-0.9514-1.3971-1.8951-2.6286-3.744-3.553-3.9474-1.9736-6.8561-1.8698-10.734-3.9474-0.8179-0.4285-1.3243-1.0273-1.7436-1.6833-0.4193-0.6561-0.7516-1.3693-1.2215-2.0266-0.3134-0.4385-0.6878-0.8521-1.1901-1.2072-3.5319-2.4586-6.7522-1.3505-10.769-3.0126-3.9473-1.5927-6.9597-2.0776-9.626-5.4707-1.452-1.9047-1.6767-4.6602-2.8119-6.1962-0.5159-0.6985-1.22-1.145-2.3131-1.145h-7.2716c-1.3159 0-2.0084-0.5887-3.3588-0.5887l-14.786 2.0776c-3.6359-0.2423-6.2643-1.28-8.5115-3.7394-0.0363-0.0397-0.0704-0.0887-0.1064-0.1291-0.2831-0.3174-0.5624-0.6488-0.8349-1.0134-0.1992-0.3463-0.4092-0.666-0.6297-0.9612-3.306-4.4286-8.9406-3.3633-14.849-4.3372-3.9474-0.658-5.7827-3.2203-9.7994-3.2203-6.025 0-7.7217 7.1678-13.781 7.1678-6.7868 0-10.18-3.7743-16.967-3.7743-5.5749 0-6.7176 7.3755-12.258 7.3755-2.1469 0-2.8048-1.8352-4.5361-3.0126-2.0776-1.4197-3.0125-2.5624-4.7093-4.5361-0.6838-0.8007-1.3054-1.5738-1.8782-2.3275-0.5549-0.7301-1.0623-1.4414-1.5377-2.1425-0.0153-0.0225-0.0322-0.0456-0.0474-0.0681-2.9313-4.3386-4.5869-8.2731-7.8591-13.571-2e-4 -2e-4 -2e-4 -5e-4 -4e-4 -7e-4h1e-4c-0.2325-0.3784-0.4385-0.7411-0.6323-1.0979-1.5089-2.7773-1.9559-5.01-2.9685-8.3546-2.4932-8.4143-3.6704-13.089-4.8824-21.676-0.9696-6.5791-0.9696-10.492-2.0776-17.002-0.3766-2.1168-1.0455-3.7806-1.8677-5.3038-1.3701-2.5385-3.1664-4.6863-4.7462-7.8892-1.121-2.2271-1.8047-4.4144-2.66-6.3619-0.0024-0.0054-5e-3 -0.0106-0.0074-0.016-0.1199-0.2725-0.2429-0.5405-0.3712-0.803-0.0344-0.0703-0.0726-0.1369-0.1077-0.2064-0.0988-0.1954-0.1971-0.3911-0.3027-0.5801-1.0028-1.7941-2.3511-3.2911-4.6539-4.291-2.7009-1.1426-4.5015-1.0042-7.1677-2.0776-3.3536-1.3829-4.8781-3.9733-8.5018-3.9814h-0.0275c-4.0402 0.0085-4.9416 4.158-7.3285 7.3752z" fill="#fc0"/>
	<g fill="#fff">
		<polygon points="1163.1 429.6 1156.4 381.64 1133.6 424.41 1085.9 416 1119.6 450.84 1096.8 493.6 1140.4 472.37 1174 507.21 1167.3 459.25 1210.8 438.02"/>
		<polygon points="1324.7 493.95 1334.8 446.57 1298.8 478.98 1256.8 454.77 1276.5 499.01 1240.5 531.42 1288.7 526.36 1308.4 570.61 1318.5 523.23 1366.6 518.17"/>
		<polygon points="1454.5 609.69 1480.2 568.61 1435.3 586.76 1404.2 549.65 1407.5 597.97 1362.6 616.11 1409.6 627.83 1413 676.15 1438.7 635.07 1485.7 646.79"/>
		<polygon points="1575.1 733.03 1526.7 734.72 1510.2 689.2 1496.8 735.77 1448.4 737.46 1488.6 764.54 1475.2 811.1 1513.4 781.28 1553.5 808.37 1537 762.85"/>
		<polygon points="626.06 735.77 612.71 689.2 596.14 734.72 547.74 733.03 585.91 762.85 569.34 808.37 609.5 781.28 647.67 811.1 634.31 764.54 674.47 737.46"/>
		<polygon points="718.71 549.65 687.57 586.76 642.67 568.61 668.33 609.69 637.2 646.79 684.2 635.07 709.87 676.15 713.24 627.83 760.24 616.11 715.33 597.97"/>
		<polygon points="866.05 454.77 824.1 478.98 788.11 446.57 798.18 493.95 756.23 518.17 804.4 523.23 814.47 570.61 834.17 526.36 882.34 531.42 846.35 499.01"/>
		<polygon points="1036.9 416 989.25 424.41 966.51 381.64 959.77 429.6 912.07 438.02 955.6 459.25 948.86 507.21 982.51 472.37 1026 493.6 1003.3 450.84"/>
	</g>
</svg>