<?xml version='1.0' encoding='utf-8'?>
<svg xmlns="http://www.w3.org/2000/svg" enable-background="new 0 0 2572.914 1670.297" version="1.1" viewBox="0 0 2572.914 1670.297">
	<path d="m1208.6 1635.1c0.355 0.049 0.72 0.062 1.097 0.027 0.06-5e-3 0.107-0.02 0.164-0.027h-1.261z" fill="none"/>
	<path d="m2286.5 565.68c2.028-3.329 4.164-4.267 5.597-8.537l7.061-21.043c1.667-4.971 5.813-9.296 6.629-14.23 1.344-8.131 2.154-12.606 6.359-19.654 5.317-10.648 11.641-10.55 19.201-18.11 7.512-7.512 10.335-6.22 17.996-1.466 3.048 1.89 14.305-0.695 18.082-1.38 2.465-0.447 3.205-2.673 5.424-2.673 3.853 0 3.324 0.936 7.491-1.035 5.451-2.578 20.498-7.457 26.52-5.864 3.196 0.845 10.987 4.856 13.518 4.484 5.105 0 8.963 0.352 12.657 4.053 2.323 2.328 5.82 7.208 9.041 8.193 4.334 1.325 8.932 1.297 13.087 2.588 2.745 0.852 4.738 4.346 6.2 4.829v0.259c0.674 0.227 0.289 6.209 1.722 6.209 4.441-13.421 6.233-20.444 18.683-29.924 3.12-3.12 7.46-5.138 10.591-8.279 2.506-2.513 4.232-4.926 5.856-8.193 2.883-5.805 3.799-10.407 8.179-15.522 2.35-2.743 3.8-6.711 4.994-10.004 0.806-9.018 7.885-17.952 7.405-26.907-0.468-8.734-10.257-13.505-13.088-21.387-2.121-5.909-2.569-12.042-0.259-18.024 0-2.978-0.369-7.176 0.775-9.745 1.539-3.46 2.222-2.433-0.602-5.605-4.148-4.658-1.984-13.898-3.358-19.748-1.002-4.268-0.175-7.439 3.186-10.176 4.127-3.36-0.344-8.981-0.344-13.194 0-2.5 1.993-6.445 2.497-9.4l-21.612 1.811c-11.808 0.646-26.906 2.533-38.401-0.259-11.632-2.823-21.154-7.888-33.322-8.71l-28.069-1.898c-28.374 0-47.502-19.332-72.756-29.493-7.398-2.977-19.498-10.164-26.002-15.005-3.161-1.846-10.771-2.46-11.71-5.519-1.09-3.548-1.204-7.961-1.809-11.729-1.563-9.722-4.186-18.924-7.749-27.855-1.854-4.648-6.526-13.445-5.683-18.368-0.419-6.256-1.57-15.265-4.994-20.18-1.425-2.045-8.408-10.972-11.108-8.623l-8.524 7.416c-3.026 2.633-5.76 6.666-10.073 7.416-15.614 13.218-27.833 5.542-44.946 11.47-16.197 5.612-17.174-4.897-21.612-17.161l-8.954-24.75c-1.201-3.32-10.528-8.067-13.948-7.072-4.451 1.297-5.137 10.009-6.544 13.711-2.881 7.583-6.996 5.655-14.982 4.657l-38.833-3.363c-10.71-0.927-19.63 2.861-29.792 3.191-5.612 0.182-4.67-0.647-7.491-4.656l-10.677-15.178c-1.445-1.664-2.054-3.824-3.96-5.002-2.09-1.294-4.381-1.688-6.63-2.588-5.303-2.123-10.982-5.328-16.445-6.726-2.844-0.729-1.883-2.544-2.067-5.174-0.234-3.329-3.957-6.309-4.132-9.4-0.383-6.753 1.03-9.241-2.199-15.393-4.903 1.137-14.89 6.156-17.433 6.424-11.627 1.232-19.887-2.113-29.447-9.055-4.915-3.568-9.429-2.066-15.585-1.897-4.688 0.128-10.072-1.123-14.637-3.536-9.694-5.124-24.089 4.398-35.733 4.398-15.874 0-30.674 6.353-45.505 8.495-11.3 4.755-20.655 10.58-31.212 17.463-10.747 7.008-17.581 7.411-29.963 8.624-7.118 0.697-14.231 4.813-21.182 6.554-2.526 0.632-5.053 1.265-7.578 1.898-4.822 1.207-9.613 2.544-14.465 3.622-10.655 2.368-16.112-1.208-26.089-1.208-10.986 0-20.344 4.576-30.222 8.797-16.821 7.189-35.209-4.78-53.125 3.19-8.79 3.91-15.641 12.357-24.453 16.04-7.634 3.191-15.269 6.382-22.903 9.573-5.417 2.263-8.885-1.207-13.776-1.207-10.432 0-15.236 5.057-23.161 9.141-11.235 5.791-13.219 24.349-22.473 33.201-12.056 11.531-30.184 15.471-41.157 29.063-2.29 2.837-6.205 8.053-8.61 10.435-3.27 3.24-3.617 9.444-6.458 13.711-1.956 2.939-5.785 6.128-8.438 8.537-6.071 5.512-8.268 14.345-13.948 20.266-4.713 4.913-8.686 4.286-14.724 5.434-8.886 1.69-8.427 14.779-14.293 19.404-6.533 5.151-12.85 11.757-21.267 13.626-7.25 1.609-14.64-0.764-21.698 0.948-16.602 4.03-28.618 16.239-43.482 23.457-8.213 3.988-21.249-0.277-30.222 0.777-13.25 1.557-21.805 13.022-36.077 13.022-12.18 0-20.174-6.553-29.791-12.936-7.146-4.743-14.293-9.488-21.439-14.229-10.198-6.768-18.173-11.178-29.959-14.166-13.236-3.357-18.207 3.209-30.141 6.146-13.071 3.217-22.213-4.193-31.944-11.038-4.743-3.337-9.605-10.73-15.326-11.729-8.366-1.46-19.87 3.546-28.328 5.605-6.974 1.698-16.529 6.829-23.678 5.434-6.823-1.332-11.806-5.151-19.028-3.881-2.507 0.44-4.775 1.367-6.898 2.554-9.697 5.422-16.449 16.326-29.868 11.675-8.242-2.857-15.519-8.567-21.095-13.539-16.935-15.105-24.4-20.843-46.582-23.802-6.512-0.868-13.243-3.168-19.803-2.846-8.436 0.414-15.369 7.916-22.129 12.073-5.011 3.081-11.194 13.194-17.22 13.194-10.225 0-11.922 6.165-20.578 8.97-5.545 1.796-8.283 0.255-13.605-0.431-8.491-1.096-14.715 1.303-22.645 3.88-10.149 3.299-24.365 6.465-34.871 4.398-4.884-0.961-7.601-5.424-12.399-6.899-5.286-1.626-10.873-0.888-16.273-1.898-9.093-1.701-15.018-12.217-24.022-16.212-19.543-8.673-38.592-6.39-57.948-11.987-11.409-3.299-19.959-8.493-30.36-11.95-1.701-0.565-3.458-1.075-5.286-1.504-10.745-2.522-14.493-12.722-24.109-14.833-8.489-1.863-19.103 0.442-27.38 2.242-15.753 3.427-19.862 3.81-35.044-1.984-7.815-2.982-13.19-5.86-19.288-11.642-5.134-4.868-9.737-7.638-17.134-7.847-5.709-0.161-9.515-1.865-14.379-4.484-6.188-3.332-13.271-1.551-19.976-1.381-16.416 0.419-42.548-5.642-57.086 1.984-12.714 6.669-25.428 13.34-38.143 20.008-8.997 4.719-16.782 3.429-26.175 4.743-12.861 1.8-29.697 0.488-42.19-3.363-9.839-3.033-16.003-9.951-26.433-11.297-6.585-0.85-10.727-0.031-16.618-3.881-4.763-3.112-12.531-13.887-13.26-19.49-1.81-13.907 5.059-20.889 9.73-32.771 3.847-9.786 0.673-23.595 9.04-30.615 2.169-1.819 6.126-3.272 8.18-4.57 5.084-3.215 9.646-5.237 15.757-6.382 5.122-0.96 10.91 0.99 15.842-1.121 7.792-3.336 12.262-7.907 16.102-15.178 8.981-17.004 5.577-29.841-14.724-34.15-7.231-1.534-28.541 0.035-34.011-5.951-5.249-5.744-12.917-10.733-18.253-16.385-4.346-4.602-14.587-5.566-20.234-9.487-9.47-6.575-20.626-25.091-32.117-25.526-10.057-0.38-17.871 2.102-22.817-7.33l-5.597 4.398c-1.121 2.105-3.271 2.855-4.391 5.605-2.263 5.558-2.794 13.269-9.816 15.005-0.039 0.158-0.015 0.133-0.172 0.173-0.9 3.563-3.025 2.579 0.516 7.071 2.378 3.015 3.064 4.355-1.205 5.434-1.309 5.295-2.411 14.246-2.411 19.662 0 2.567 4.39 7.851 3.1 9.141-1.694 1.694-1.378 6.559-1.378 8.969 2.604 0.88 2.633 1.74 1.635 4.226 0 7.146-8.126 2.803-12.399 3.622-3.449 0.661-1.27 2.602-2.583 4.313-0.905 1.179-3.09-0.101-4.477-0.259-4.424-0.503-5.436 2.059-10.075 1.811-1.592-0.085-7.223 0.094-5.769 3.018 0.804 1.615 2.719 1.34 2.497 4.054-0.155 1.888-0.154 1.601 0.947 3.104 0.951 1.296-1.858 3.689-1.981 5.434-0.183 2.612-7.178 2.748-8.869 3.277-2.976 0.65-8.983 0.172-12.313 0.172-2.804 0-5.639 0.733-8.437 0.604l-5.597-0.259c-2.983-0.138 0.389 4.308-4.133 5.001-2.952 0.452-5.793 1.985-8.524 2.329-0.812 3.282-2.261 1.61 1.033 4.916 1.164 1.167-3.186 3.359-3.186 5.52 0 2.344 1.464 4.296 1.464 6.726 0 1.92 0.681 9.631-0.344 10.779-3.297 3.688-0.366 5.117-1.722 7.589-1.851 3.378-5.234 5.237-6.199 9.314-0.66 2.785 1.008 3.79 1.119 6.037 0.12 2.408-0.427 4.869-1.033 7.158 1.021 13.041-3.416 27.186-9.557 38.117-2.34 4.164-4.555 7.713-2.411 12.591 1.347 3.062 2.665 7.804 4.736 10.434 2.587 3.282 4.847 7.24 5.683 11.383 3.069 4.047 7.097 2.203 6.629 6.555-0.504 4.694-4.08 9.54-2.927 14.229 7.635 1.887 0.692 29.235 18.167 29.235 0.054 0.159 0.247 0.086 0.431 0.086 2.758 8.461 7.356 7.599 14.637 9.4 0.079 0.243 0.516 0.218 0.516 0.69 1.232 0.411 4.219 9.647 4.219 11.298-0.323 0.837-0.344 0.581-0.344 1.035-0.157 0.078-0.258 0.316-0.258 0.517-0.532 0.174-3.703 3.743-3.703 4.571 5.028 1.664 6.292 11.789 3.186 15.264-4.298 4.81 5.979 4.296 3.1 9.573-1.942 3.56-4.09 3.363-3.1 8.537 0.586 3.061 1.042 5.219 2.841 7.934 3.106 4.686 2.411 2.638 2.411 8.537 0 5.952 3.142 9.032 5.854 14.144 1.931 4.833 1.666 7.161 2.928 12.159 0.853 0.21 1.689 1.028 2.583 1.208 0 12.654 10.272 10.003 19.373 10.003 2.106 6.46 6.136 16.036 13.862 17.938 3.737 0.919 8.444-1.949 10.074-1.208l4.735 2.156 4.392 1.638 0.602 6.209c0.973 10.033 10.922 10.521 19.459 10.521 1.128 0.318 2.149 0.159 3.272-0.172 0.31-0.092 1.332-0.566 1.465-0.173h0.172c0.039 0.159 0.015 0.133 0.173 0.173 1.224 4.95 13.05 5.937 14.982 8.451 0.568 0.741 0.734 4.897 1.033 6.122 1.852 7.595 13.144 15.085 20.061 17.765 6.706 2.597 5.124 16.475 9.472 22.077-1.139 6.48-0.806 9.245 5.941 9.831 2.984 0.26 2.427 8.501 4.305 10.866 2.694 3.391 7.177 5.624 9.299 9.4 0.048 0.086 0.085 0.163 0.13 0.246h2020.2c0.084-0.947 0.293-1.864 0.837-2.757z" fill="#fff"/>
	<path d="m2183.8 1092.4c3.696-2.749-3.222-7.983-0.516-11.902 1.477-2.14 6.216-3.045 6.716-4.829 0.467-1.663-1.407-1.591-1.033-3.105 3.983-0.803 4.403-3.277 8.438-3.277 1.026-3.147-3.907-3.046-5.855-5.002-3.158-3.171 2.956-7.881 2.238-10.004-1.803-0.445-4.699-0.344-6.629-0.344-3.354 0-3.568 4.743-7.061 4.743-5.154 0-10.971-12.935-11.969-17.507-2.213-3.043-2.41-9.153 2.324-10.349 0-2.397-7.871-2.184-6.974-6.812 0.98-5.054 8.128-4.96 8.265-5.519 0.648-0.163-1.147-3.048-1.292-3.623-1.817-0.449-5.367-0.603-7.318-0.603-0.782-3.112-1.551-4.618-1.551-8.193 0-4.263-3.081-4.112-3.788-6.986-0.158-0.039-0.134-0.014-0.173-0.173-1.732 0-0.803 7.553-1.033 9.314-0.438 3.335-3.961 7.471-7.664 6.641-6.347-1.423-13.422-19.91-7.232-21.474v-0.43c-1.563-0.394-3.392 0.027-4.822-0.173-1.666-0.234-2.019-2.514-2.669-2.588-2.57-0.292-0.456 6.025-6.803 3.45-7.028-0.592-6.025-2.917-10.504-6.209-0.298-0.22-1.784-2.052-1.895-1.725-1.151 0-0.935 3.574-1.464 4.312-1.577 2.205 0.921 2.096 0.517 3.709-1.051 4.203-10.379-0.382-12.141-1.466-0.585-0.36-4.908-4.093-4.908-2.845 0 3.427 3.059 4.033-1.291 5.691-4.163 1.586-1.009 8.333-7.405 7.849-1.918-0.145-2.606-3.17-3.445-4.485-2.946-4.625-10.104-5.538-11.538-11.211-4.255 0 1.831 9.878-5.08 7.589-3.227-1.069-7.255-7.395-8.783-10.262 0.863-2.815 1.2-7.668 3.271-9.745 2.188-2.196 5.663 0.719 7.061-1.38 2.81-4.223 6.458 1.184 6.458-8.711 0-8.835 5.138-26.091 14.723-28.718 7.358-2.017 13.195 3.389 19.632 0.344 6.668-3.155 18.744-5.988 24.539-1.38 1.247 0.992 7.571 5.59 7.233 1.811-0.376-4.192-5.502-7.074-6.802-11.383-0.842-5.579-3.514-28.332 2.153-32.082 4.926-3.258 17.393 3.496 17.393-5.95 2.797-1.399 4.994-4.061 8.008-0.691 3.138 3.51 3.595-1.448 4.219-3.794 0.572-2.15 2.188-1.249 3.875-1.811 0-0.543-0.05-1.37-0.776-1.552-0.208-0.841-3.682-4.051-4.219-4.226-1.162-4.699 0.466-13.144 3.358-17.334 5.084-7.362 12.843-3.594 19.718-2.415 3.231 0.759 5.999 2.058 9.385 1.898 1.389-0.066 2.061-1.064 3.445-0.173 3.161 2.035 2.928-0.345 5.597-0.345 6.583 0 12.328 2.07 19.201 2.07 2.115 0 10.942 1.329 12.054 0.776 2.209-1.1 0.275-10.154-0.172-11.901-1.637-6.411-4.758-15.026-1.378-21.042 3.729-6.64-2.861-26.289-4.391-33.548 0-6.473-0.299-11.196 2.41-16.644 3.652 0 5.145 1.233 4.736-3.449l-0.775-8.883c-0.583-6.681-1.939-20.042 0.344-25.958 2.58-6.686 1.35-8.991-0.173-16.386-1.458-9.804-4.133-20.066-4.133-30.012 0-4.783-1.263-15.376 2.24-18.887 2.132-2.136 4.837-4.415 6.199-7.158 1.886-3.796 2.29-9.76 3.617-14.058l3.099-13.626c0.707-3.109 1.047-6.765 2.497-9.572 0.845-1.636 2.098-2.921 2.584-4.916 0.63-2.582 0.109-5.353 0.603-7.934 0.428-2.236 2.771-8.125 2.153-10.091-0.48-1.525-9.662-2.064-12.141-3.449-2.584-1.445-1.444-3.104-5.338-4.053-6.734-0.452-8.385-7.856-16.101-5.348-8.415 2.735-11.801 4.849-21.44 4.14l-43.31-3.19c-2.062-0.151-18.095 5.333-19.029 1.552-0.231 0-0.258-0.027-0.258-0.259 5.289-1.789 11.222-3.653 17.564-3.105 10.16-0.512 20.382 1.988 30.137 1.465 3.438-0.184 4.779-2.796 7.662-3.794 5.422-1.879 8.4 2.76 13.346 2.76 8.782 0 7.42-4.987 13.174-7.676 12.37-5.779 9 5.519 16.016 8.71 4.081 2.567 6.009 1.919 9.643-1.725 3.708-3.717 9.443-6.407 14.38-8.02 3.16-1.033 6.967-4.57 10.246-4.57 1.986 0 3.286 1.148 5.338 0.517 1.168-0.36 4.267-1.837 5.252-2.588 2.564-3.139 1.779-5.992 2.007-8.629h-2020.2c2.325 4.294 0.835 5.595 6.241 8.464 8.614 4.57 7.912 10.513 18.426 8.969 4.22-0.619 23 4.197 20.32 10.262-1.664 3.763-5.076 6.386-6.802 9.658-0.829 1.575 0.69 2.706 1.894 4.054 1.371 1.532 0.135 4.678 0 6.554-0.762 4.081 1.071 9.113-2.841 12.332-2.169 1.784-0.919 4.723-1.205 7.245-0.275 2.425-5.788 7.027-7.749 8.624-1.959 1.596-3.583 2.601-6.113 3.104-2.991 0.594-5.402 2.521-8.008 3.967-3.347 3.658-4.822 5.748-6.372 10.78-0.427 1.385-0.394 3.394-1.119 4.57-2.628 4.268-2.626 2.832-4.132 8.279-1.375 4.976-10.785 7.869-14.724 10.952-1.9 1.487-3.374 5.02-3.961 7.245-1.615 6.121-21.18 10.018-26.089 13.884-0.734 0.578-0.45 10.765-0.946 12.763-1.247 5.023-7.397 3.744-5.597 8.71 0.506 0.958 1.742 4.046 3.013 4.226 0.186 0.926 1.292 0.79 1.292 2.156 0 2.353-3.269 8.381-5.941 8.71-0.101 0.412-1.393 0.881-1.635 1.552-0.501 1.382 0.319 4.63-1.464 5.174-2.72 0.832-1.484 5.147-3.617 7.417-2.982 3.176-4.691-0.431-7.404-0.431-0.723 2.862-3.347 2.017-4.908 0.69-2.907-2.47-1.247 6.836-5.597 2.932-4.474-4.017-2.891 3.63-7.835 5.691-4.434 6.547-2.26-7.911-12.485-4.484-3.399 1.139-11.865-5.88-12.743-8.537-8.459 1.189-19.058-0.33-16.446 13.281 1.331 6.931-5.956 1.233-9.557-0.863-2.27-1.322-5.763-3.521-8.18-4.14-2.066-0.528-3.502 2.846-5.596 3.363 0 12.863-5.523 9.127-11.969 18.887-1.767 2.674-5.537 6.218-8.783 3.967-1.251-0.868-7.529 3.395-9.988 3.88-2.411 9.807 5.17 10.14 6.458 17.248 0.891 4.916 10.163 21.575 14.207 23.284 1.005 1.357 3.546 3.133 2.927 5.001-0.626 1.892-1.891 1.721-1.119 4.054 0.31 0.938 1.025 4.491 0.344 5.174-3.006 3.021-2.656-3.272-6.113 3.277-1.781 3.373-2.035 4.195-2.927 8.279-0.24 1.097-10.253 10.935-3.789 9.4 4.589-1.089 3.363 6.756 2.583 8.969-0.839 2.382-7.888 11.13-4.649 12.85 1.941 1.031 5.488 4.047 1.636 5.433-2.56 0.92-3.53 6.791-3.53 9.314-1.665 7.925 0.979 7.553-5.252 14.315-1.804 1.959-2.017 9.312-1.292 12.246 3.532 0 6.875-1.41 10.333 0.345 3.594 1.823 2.7 4.681 4.994 6.037 5.543 3.279 6.039 5.038 9.815 10.09 2.916 3.903 6.019 2.486 8.524 5.001 6.205 6.232 17.217 19.171 10.849 27.682-1.013 2.622-4.046 5.043-4.046 7.762 0 2.107 2.238 3.829 0.947 5.778-2.904 4.381-1.263 7.93-2.583 12.504-0.86 2.977-4.808 2.988-5.769 7.33-0.509 2.3 0.467 5.544-0.344 7.676-1.033 2.71-5.885 0.013-8.524 0.172-2.5 0.151-6.757 1.551-8.611 2.156 0 5.271 4.41 6.892-3.53 8.452-0.48 1.944-4.398 7.167-3.788 8.451 3.32 6.988 0.36 11.634-4.305 16.299-8.48 8.48-7.437-3.854-11.194-1.466-0.441 1.718-2.76 2.995-4.305 1.725-1.474-1.213-1.964-2.07-3.1 0.087-1.122 2.133-4.128 2.034-6.199 2.673-2.63 0.812-6.609-3e-3 -8.094 2.673l-1.464 4.225 6.974 1.725c0.434 1.905 1.989 4.441 2.755 6.468 1.338 3.535 4.127-0.086 5.424 5.088 0.932 3.716 2.044 7.097 5.339 9.314 4.546 3.059 2.073 1.817 4.391 6.209 0.627 1.187 3.116 0.098 4.649 2.587 0.941 1.529 1.974 2.489 3.006 3.559h2096.3c-2.813-2.798-4.581-6.66-0.873-9.417z" fill="#00966E"/>
	<path d="m1214.2 1630.9c3.125 0 11.766 3.196 14.121 1.984 1.451-0.748 0.705-2.696 2.497-3.277 6.474-2.099 8.852-4.882 14.81-4.657 4.895 0.185 6.358-2.043 10.332-2.846l9.816-1.984c0.662-0.163 0.38-4.272 1.205-5.001 1.103-0.978 6.629 1.318 8.266-1.035 2.183-3.141 7.064-3.097 10.246-5.433 4.895 0.639 8.915-1.093 13.691 0.948 6.144 2.625 7.981 8.919 9.643-3.19 0.62-4.516 5.707-12.357 9.988-14.057 3.92-1.555 6.311-0.102 8.18 2.932 1.879 3.049 11.881 6.141 15.413 5.433 6.161-1.235 8.182-6.908 15.067-5.519l0.259 1.897c4.664 0.658 8.719 1.371 12.313 4.571 3.922 3.491 1.202 4.829 8.007 4.829l0.086-0.086c0.433-1.725-1.174-4.265-0.344-6.985 0.519-1.705 2.936-6.307 4.219-7.417 3.552-0.646 7.697 2.929 10.332 1.208 2.068-1.351 4.132-3.711 6.63-3.019 10.849 3.009 4-1.927 10.849-4.743 2.359-0.97 7.206-1.012 9.126-2.932 1.288-1.288 0.613-5.108 2.756-4.398 3.1 1.026 9.26 2.992 9.73 6.899 0.484 4.019 6.043 1.767 8.782 2.673 0 5.207-1.13 5.703 2.153 10.176 3.996 5.446 15.802-2.543 20.321-4.398 8.474-3.48 17.061 2.183 24.539-3.622 7.034-0.202 2.902-6.587 8.266-9.055l9.557-4.398c3.05-1.404 3.455 1.881 5.941 1.984 5.17 0.214 5.688-2.286 11.968-0.431 3.491 1.031 6.773-1.929 8.093-4.57l7.836-0.173c11.945-0.263-0.318-8.015 8.524-10.348 4.254-1.122 9.801-15.301 8.696-19.749-3.501-14.099 14.637-7.775 14.637-12.419-2.464-0.609-3.261-4.722-5.166-5.519-1.807-3.277-8.359-14.401-12.572-14.401-0.043-0.133 3e-3 -0.087-0.172-0.087-0.303-1.227-1.292-6.554-0.775-6.554 1.015-2.032 7.662 0.963 7.662-4.83 0-2.178-0.022-5.237 2.067-6.554 1.312-0.826 3.58-3.659 3.703-5.174 0.075-0.929-2.123-6.058-2.584-7.847-0.957-3.711-0.516-7.004-0.516-10.78-4.174-1.381-14.852 3.136-12.14-6.381 1.791-4.667 1.98-14.486 1.98-19.749-7.93-2.623-5.162-8.288-6.716-14.574-5.645 0-2.883-2.044-5.854 2.069-0.138 0.191-4.432 0.743-4.822 0.776-0.686 0.059-5.125 0.95-5.338 0.087-1.973-0.498 0.246-8.808-1.98-8.107-3.117 0.98-7.059-5.124-8.352-7.329-1.457-2.481-2.71-3.542-1.378-6.123 1.974-3.821-0.36-5.819-0.689-9.486-1.308-2.38-2.067-5.092-2.067-7.762 0.066-0.05 3.908 0.293 4.736 0.086 0.362-1.467-1.413-4.148 1.119-5.691 5.067-3.089 4.466-2.799 10.591-2.242 5.819 0.529 3.315-1.836 6.716-5.434 5.038-5.331 11.898-7.614 19.286-6.899 5.647 0.547 13.452 3.829 18.77 2.415l4.33-3.509c3.542 2.403 7.137 5.263 9.962 7.217 4.664 3.227 10.83 7.28 16.704 7.502 5.187 0.196 8.705-0.19 13.518-2.328 2.631-1.168 5.265-1.959 7.417-2.138l-6.9-8.986c0.325-4.155 0.606-6.908 1.464-10.866 1.141-5.27 3.814-13.057 6.888-17.506 1.684-2.44 1.608-5.853 3.444-8.451 0.946-1.337 4.396-6.217 4.735-7.589l66.041-1.294c0.433-1.136 0.514-1.831 0.775-2.932 0.334-1.415 0.688-2.533 1.291-3.881 0.745-1.662 1.916-3.308 2.928-4.829l5.08-5.002c1.137-1.872-0.095-3.595 0.689-5.174 1.212-2.44 7.684-0.549 5.683-5.26-2.093-4.926-9.56-4.615-2.583-10.263 2.34-1.895 2.41-2.254 2.41-5.346 0-3.427-2.981-2.912-4.132-5.692-0.841-2.029-1.953-4.121-3.21-6.159l5.535-6.691c3.926-2.168 16.663-13.572 17.996-17.937 2.027-6.643 6.679-1.187 11.796 0.863l6.027 2.415c3.516 1.408 3.119-3.177 8.611-0.431 2.769 1.384 6.669 0.292 9.557-0.173 1.76-0.283 4.251 1.046 5.338 2.328 0.723 0.854 9.525 2.408 10.677 2.156 1.52-0.332 5.68-7.648 7.749-9.4 9.792-5.055 18.824 5.899 29.877 2.07 3.985-1.38 5.677-4.769 10.159-5.433 3.756-0.557 7.026 0.514 10.849-1.121 6.855-2.93 7.387-5.838 15.412-6.726 5.821-0.646 14.494-2.855 16.188-9.487 0.681-2.668-1.179-6.068 0.344-8.71 2.028-3.515 5.206 0.223 7.835-0.862 2.632-2.742 6.949-9.316 8.352-12.763 1.315-3.228-1.033-8.315-1.033-11.901l0.086-0.086c2.456-0.607 5.377 0.534 8.094-0.604 6.832-2.864 7.733-6.49 15.412-4.657 4.299 1.027 11.095-0.466 13.518 3.45 2.038 3.296 7.406 12.115 11.71 8.883 3.171-2.382 3.476 0.472 6.544 1.034 2.301 0.422 4.382-2.501 6.888-2.501 1.929 5.787 13.632 7.396 9.471 1.121-1.333-2.011-5.322-6.812-1.378-6.812 4.36 0 5.587-1.853 6.975-6.037 0.336-0.872 0.122-3.456 0.602-3.709l8.181-4.312c0.04-0.021 1.446 3.471 3.702 3.105 2.435-0.395 4.774-2.092 7.146-2.933 2.913-1.033 1.355 3.724 5.511 4.484 2.971 0.544 4.172-0.974 5.338 2.243 1.573 4.336 5.365 1.764 6.888 5.26 1.166 2.679 2.805 1.098 4.822 1.725 0.76 0.235 2.061 4.503 2.152 5.347 0.751 1.339 1.196 3.311 1.55 4.743 10.78 1.81 12.831-0.668 17.91 10.09 1.229 2.604 0.203 8.247 1.98 10.176 2.781 3.018 1.863 4.383 2.841 8.366 9.143 1.804 4.915 10.78 13.691 10.78 5.335 0 2.671 10.004 12.399 10.004 0.039 0.157 0.015 0.133 0.172 0.173 0 3.542 5.247 6.328 8.094 7.416 6.461 2.469 7.157-1.38 11.365-1.38 0.095 0.288 0.259 0.415 0.259 0.862 3.184 1.077 4.432 3.479 6.543 6.123 0.403 5.11 8.621 18.432 13.518 20.439 1.906 0.781 6.355-1.479 3.445-3.104-0.823-0.46-2.324-1.227-2.324-2.329 0-1.108 4.684-0.413 3.53-3.449-1.281-3.368 0.595-10.357 4.821-6.641 2.501 2.198 4.965-2.408 5.597-4.484 0.738-2.419 2.622-1.534 3.358 0.259 1.31 3.196 7.577-0.488 7.577-3.622 0-0.687-2.238-3.191-0.689-3.881 1.548-0.691 3.524 1.243 5.854 0.345 5.096-0.986 3.189-4.338 8.008-1.121 0.654 0.436 5.748-1.402 6.543-1.984 5.963-4.351 2.983-8.483 12.141-7.072l7.835 1.208c2.949 0.454 2.451-3.623 5.854-3.623 3.198 0 2.386 1.946 1.378 3.794-3.208 5.877 8.496 0.505 9.385 3.191 0.402 1.214-0.566 4.769 1.722 4.916 1.017 0.065 5.597-6.605 5.597 0.173 0 6.273 1.923 2.892 5.511 4.398 2.371 0.994 3.968 4.946 4.219-0.863 0.184-4.242 14.132 4.357 10.16-4.139-1.571-3.362-8.596 0.846-5.51-5.692 1.561-3.306-0.862-2.689-0.862-5.778 0-2.167 2.424-3.052 1.981-5.95-0.833-5.451 2.147-3.948 4.735-1.725 4.306 3.696 3.485-3.361 6.63-4.57 1.521 0.125 3.957-0.779 5.252 0.086 2.594 1.733 2.496 3.4 6.372 3.536 5.965 0.208 4.409 3.996 7.06 8.02 1.601 2.433 5.811 6.547 7.405 1.811 1.289-3.827 2.53 0.086 4.65 0.086 2.363 0 3.939-5.089 6.716-1.984 3.178 3.554 7.589-2.156 9.914-4.476 0.035-0.145 0.058-0.221 0.173-0.259 0-3.38 12.288 1.533 12.571 1.552 3.371 0.236 13.259 3.061 9.73-3.536-1.305-2.24-3.685-4.802-4.65-6.986-1.104-2.497-1.194-5.725-2.325-8.106-2.375-5.001-5.816-8.801-8.352-13.368-1.214-2.184-0.094-7.809-1.291-8.106-7.82-1.946-7.546-5.309-11.797-11.816-1.397-2.138-5.78-5.631-5.941-7.933-0.342-4.849-3.921-0.903-7.663-2.673-3.413-1.614-6.308-6.907-6.114-10.522-0.547-2.199-3.266-3.905-4.132-6.726-0.611-1.991-4.415-3.737-6.286-4.398-4.332-1.531-3.592-6.595-8.611-8.969-3.822-1.808-5.726-5.798-7.491-9.401-2.513-5.133-6.426-7.032-9.127-11.47-3.872-6.365-9.89-7.11-14.292-13.28-3.057-4.282-0.347-4.008-5.08-7.503-1.395-0.583-3.111-1.739-4.552-3.173h-2096.3c0.407 0.422 0.813 0.859 1.214 1.357 1.12 1.391 0.825 3.699 1.292 5.434 1.003 3.726 5.388 5.5 6.372 9.658 2.304 9.74-0.878 4.518 8.351 7.848 7.699 2.776 4.647 5.753 6.372 12.246 0.151 2.434 3.014 4.767 3.014 6.985 0 1.682-2.757 4.395-0.603 5.951 1.754 1.268 6.586 7.531 7.06 7.676 4.394 1.353 6.672 0.045 9.988 4.743 1.967 2.787 4.591 6.403 7.319 8.451 2.466 1.852 7.044 0.924 8.524 2.673 1.34 1.586 1.172 4.944 3.616 5.864 5.253 1.98 9.316 0.617 14.034 4.657 5.456 4.673 6.798 10.324 14.896 12.505 6.725 1.812 12.419-2.541 16.791-1.467l6.113 11.212c2.99 2.879 6.419 0.46 9.643 1.984 2.33 1.102 10.177 4.09 12.399 2.845 2.668-1.494 4.397-5.261 6.199-1.552 2.593 5.338 3.948 10.207 11.022 10.435 5.476 0.177 8.061-2.018 13.431-0.69 0.868 3.455-0.928 4.766-2.152 7.676-1.816 4.315 2.35 2.618 4.305 5.001 1.505 1.836 0.85 8.705 1.981 11.987 1.765 5.126-2.045 11.672-0.086 17.593-1.121 3.818-3.632 4.812 0 8.279l5.51 5.26c0.443 0.147 0.08 3.457 0.344 4.226 0.918 2.665 2.487 5.044 2.928 8.02 0.412 2.789-0.332 5.946 0.344 8.624l0.086 0.086c8.759 0 9.268 8.783 12.829 15.179 1.904 3.419 1.348 7.361 3.1 10.865 1.512 3.025-0.526 6.875 1.378 9.918 0.134 4.382 5.705 7.093 6.716 10.004 2.213 6.377-2.977 10.135 6.113 11.297 2.377 0.304 4.637 1.482 6.888 1.381 2.058-0.093 4.658-0.498 6.63 0 0.991 5.022 0.229 7.608 4.735 10.607 2.743 1.827 6.08 17.901 4.564 20.956-1.723 3.468-4.351 1.219-5.854 4.226-1.773 3.549-3.426 7.666-6.2 10.693-0.806 1.905-3.424 2.221-4.908 3.709-3.695 3.707-2.301 8.747-3.358 13.022-0.207 0-0.288 0.086-0.517 0.086-0.544 1.671-12.656-2.574-12.656 5.951 0 6.159 0.722 12.292-0.087 18.628-0.676 5.291-0.997 6.31 3.186 8.623 2.348 1.299 6.953 12.483 5.338 14.488-2.307 2.868 0.846 4.845-0.258 7.158-1.305 2.731-3.623-0.78-5.511 3.019 0.744 4.59 8.563 14.027 4.564 18.369-2.316 2.513-3.358 2.157-3.358 6.123 0 1.704-0.776 5.256 0 6.726 0.563 1.07 2.538 0.762 2.41 2.328-0.586 7.14 5.787 11.851 2.325 18.111-1.789 3.236-5.582 7.087-6.63 10.521-1.347 4.414 3.183 6.543 3.53 10.779-0.343 1.183 0.114 2.301 0.173 3.536 0.089 1.888-0.776 3.846-0.776 5.951 0 3.464 0.871 6.895 0.431 10.435-0.44 3.544-5.884 3.026-6.2 6.554l-1.979 4.225c1.581 1.799 11.095 5.878 13.087 4.398 3.76-2.792 5.379 0.026 9.213 0.776 8.721 1.703 9.795-3.981 18.598 0.863 14.307 7.871 24.104 4.697 38.919 3.277 5.976-0.573 9.701 3.261 14.982 1.034 1.962-0.828 3.961 0.153 5.769-0.603 2.454-1.028 4.664-3.865 7.491-5.002 5.664-3.129 4.57-12.551 4.822-18.11 0.313-6.932 7.047-5.089 10.332-8.02 3.745-3.341 5.908-8.902 10.849-9.658 4.026-0.617 12.511-2.366 16.359-1.38 3.383 0.866 1.688 18.674 6.888 20.525 1.497 0.533 9.542-8.406 12.916-9.745 1.382-0.547 10.008-5.884 10.504-7.072 1.506-3.614 2.552-4.058 6.027-2.415 3.29 1.556 6.342-3.244 11.28-2.155 8.412 1.855 14.603 2.953 23.506 0.863 2.866 1.263 6.917-1.381 9.902-1.381 0 6.544 8.706 10.59 14.121 9.141 9.028-2.414 3.826 4.262 11.021 4.916l12.313 1.121c3.995 0.362 9.844 0.879 10.159-5.001 0.961-17.918 27.27-10.004 38.747-10.004 4.627 0 4.833 4.053 8.093 4.053 3.276 0 9.67-20.09 16.791-20.869 3.221 0.252 14.046-0.411 16.445-2.588 1.674-1.518-0.858-2.932 2.411-2.932 5.89 0 5.139-3.647 11.021-2.673 13.547 2.245 4.6-10.833 11.365-15.351 0.913-0.609 4.135 3.064 5.252 4.053 2.282 2.022 2.988 2.309 2.411 5.692-0.433 2.539 2.19 0.456 2.927 1.466 2.107 2.889-1.869 5.447 4.305 5.778 1.878 0.101 3.775 3.598 5.683 4.398 5.339 2.238 7.108-3.496 10.332-6.468 2.634-2.426 3.633 0.217 6.544-3.622l2.988-3.26c0.465 1.582-0.482 3.785 1.059 4.64 3.308 1.833 1.951-1.727 4.994 1.638 1.403 1.551 3.911-0.191 4.688 1.415l4.18-3.83c4.021-1.911 7.351-1.028 6.458-6.381-0.585-3.504-2.349-4.456-3.443-7.503-0.518-1.44 2.122-5.643 0.775-8.71-1.375-3.126-3.289-5.896-2.325-9.658 0.838-3.274 3.44-2.494 4.908-4.743 2.489-3.81 2.8-10.012 9.471-10.694 0.965-0.098 6.675 4.919 11.28 4.57 4.674-0.354 1.656 4.031 6.458 2.328 1.109-0.393 7.171-1.043 7.318 0.26 0.326 2.864 1.186 4.253 3.789 5.691 0.233 0.129 5.061 14.177 9.127 3.881 1.326-3.357-2.641-6.283 1.464-8.969 2.545-1.667 4.219-3.138 5.338-5.95 2.707-6.805 4.262 1.776 9.299-1.984 0.677-0.506 2.655-2.805 2.927-3.622 0.843-2.526 1.061-2.388 2.411-5.088 1.299 0.202 5.8-2.786 6.113-4.053l3.014 0.862c2.304 0.658 0.43 3.436 0.43 5.434 0 1.967 0.763 2.328 2.67 2.673 2.278 0.412 4.952 3.793 6.716 5.088 2.941 2.157 3.967 5.852 1.033 8.796 0.395 2.517 1.392 4.774 2.153 7.072 0.962 2.901 0.863 2.717 3.013 0.69 1.158-1.093 4.149-1.924 5.683-2.156 4.255-0.644 3.931-4.957 10.246-3.277 2.74 0.729 3.106 5.268 6.372 3.536 1.645-0.871 4.494-5.566 5.167-7.33 0.552-1.45 11.509-5.835 12.57-2.759 2.137 6.194 3.829 1.659 6.372 5.347 1.285 1.866 3.325-1.507 5.941-0.431 1.361 0.559 2.32 3.594 4.132 2.242 3.474-2.593 3.752-3.26 3.273-7.244-0.265-2.201 5.113-7.399 6.802-8.71 0.789-0.098 2.914-1.461 3.443-0.863 1.518 1.713 2.391 1.599 3.875-0.173 1.853-2.212 4.564 0.105 6.544-1.725 1.079-0.997 4.693-5.019 6.458-3.967 0 1.151 0.775 3.15 0.775 4.657l0.086 0.087c1.795 0 2.652 0.51 4.047 0.862 0.027 0.11 0.06 0.148 0.086 0.259 1.764 0.247 3.357 3.012 2.67 4.57-2.06 4.659-1.192 8.19 2.669 11.729 4.971 4.555-1.181 10.034 1.808 13.884 2.043 4.092 3.451 13.809 7.319 15.178 7.445 2.635 6.716 1.988 6.716 10.004 0 3.726 1.736 9.552 4.219 12.418 5.53 6.382 18.684-9.395 18.684 1.294 0 7.958 5.091 4.478 8.611 1.207 1.787-1.662 5.063 4.79 9.213 2.932 4.068-1.822 12.887-0.182 13.174 5.174 0.191 3.557-0.972 4.387 2.411 6.728 3.342 2.313 1.413 4.658 1.721 8.106 1.483 0.459 5.752 0.604 6.114 1.897 0.811 2.895 14.936 14.671 18.512 14.833 6.277 0.284 1.675-10.467 4.994-15.265 2.703-3.905-0.176-8.417 1.722-12.332 0.346-0.713 3.206 0.793 4.132 0.863 3.275 0.247 6.887-0.515 9.3 1.898 1.852 1.852 4.741 1.849 7.146 2.328 3.643 0.725 4.96-4.276 7.577-6.899 2.59-2.595 5.02-1.552 8.783-1.552 0 8.318 9.421 7.298 13.088 9.573 7.902 4.903 9.781 6.65 19.89 7.416 5.389 3.795 9.543 5.055 15.929 4.571 10.101-0.767 8.452 8.255 14.723 12.936 0.942 0.703 8.74 3.823 9.816 3.105 3.604-2.405 3.462-3.536 8.18-3.536 0 0.193 0.086 0.238 0.086 0.431 0.244 0.08-0.259 3.022-0.259 3.536 0 3.122 2.806 3.909 4.995 5.174 4.5 2.6 2.26 6.319 8.696 4.484 1.714-0.489 1.425 2.301 2.756 2.846 1.36 0.557 3.718-0.336 5.424 0.086 0 6.588 1.788 7.011 8.697 9.314 8.685 6.602 9.836 13.959 12.226 23.629 3.721 0.92 10.756 0.065 13.777 1.984 1.988 1.262 3.895 3.19 6.222 3.508h1.26c3.268-0.445 1.961-4.209 4.308-4.209z" fill="#D62612"/>
	<polygon points="285.34 1580.8 285.34 1580.8 285.34 1580.8" fill="#D62612"/>
</svg>