<?xml version="1.0" encoding="UTF-8"?>
<svg version="1.1" viewBox="0 0 214.83699 200.00003" xmlns="http://www.w3.org/2000/svg" xmlns:xlink="http://www.w3.org/1999/xlink">
 <defs>
  <linearGradient id="a" x1="56.124" x2="409.7" y1="15.576" y2="249.58" gradientTransform="matrix(2.7619 0 0 2.7649 56.265 -844.75)" gradientUnits="userSpaceOnUse">
   <stop stop-color="#fff" offset="0"/>
   <stop stop-color="#e0e0e0" offset="1"/>
  </linearGradient>
  <linearGradient id="d" x1="61.199" x2="428.66" y1="303.22" y2="303.22" gradientTransform="matrix(3.4604 0 0 3.4642 -107.22 -985.29)" gradientUnits="userSpaceOnUse">
   <stop stop-color="#f00" offset="0"/>
   <stop stop-color="#af3939" offset="1"/>
  </linearGradient>
  <linearGradient id="e" x1="707.85" x2="707.85" y1="382.24" y2="-848.23" gradientTransform="matrix(3.4604 0 0 3.4642 -107.22 -985.29)" gradientUnits="userSpaceOnUse">
   <stop stop-color="#903030" offset="0"/>
   <stop stop-color="#b21212" offset=".51373"/>
   <stop stop-color="#bcb2b2" offset=".5147"/>
   <stop stop-color="#c1c1c1" offset="1"/>
  </linearGradient>
 </defs>
 <g transform="translate(663.5 270.17)">
  <g transform="matrix(.16216 0 0 .16216 -6.4397 -3.5404)">
   <g transform="translate(-4106.5 -797.73)">
    <path d="m1376.3 18.216c-25.898-18.522-12.009-53.947-24.048-79.384-8.2774-17.914-26.564-34.363-36.678-52.57-7.0456-12.829-14.768-54.37-17.538-69.555 0.4198-2.906 0.8313-5.7649 0.1444-7.8441-2.7618-8.3087-13.417-22.659-13.24-31.496 1.3864-9.6275 5.7861-18.89 7.8906-27.439 1.5329-10.609 1.5551-24.401 1.149-35.286-1.8035-34.791-26.591-33.42-53.865-42.306l8.2055-37.241 65.66-51.594 4.8691-14.087-16.282-104.81-18.38-23.386-38.495-80.435-5.0846-33.282-1.2208-46.465-5.7805-14.627-60.783-35.386-22.44-1.2719-22.89 15.398-25.904 9.0662-131.69 11.535-128.1-5.6986-57.604-10.305c-10.981 15.174-31.471 33.879-50.592 37.047l-5.2475-4.7087c0.69046-4.7972 3.201-15.323 5.6839-18.865 10.122-15.31 27.45-26.599 39.221-39.688 2.3476-2.6267 4.7172-5.2479 6.2666-9.9179-14.417-2.082-52.674 51.489-83.869 49.946-10.636-1.5401-20.871-5.9833-31.427-7.5068-2.9027-0.41748-6.0844 1.1032-8.9871 0.68296-3.6152-1.518-13.961-5.917-16.483-8.2644-11.644-7.6258-36.981-43.769-18.808-53.952 19.402-11.986 44.176 28.037 56.245 25.816l2.3365-2.5659c-1.2428-11.068-23.374-22.125-32.115-29.319-1.6543-2.1705-3.3252-4.3935-5.1149-5.6322-1.6681-2.2258-20.493-14.79-22.283-16.031-12.044-5.7013-45.441-12.509-57.745-9.3372-33.465 6.987-75.222 16.733-107.5 28.775-9.4953 4.5732-33.606 21.763-42.477 28.39-4.43 3.2626-7.1449 8.8146-11.445 11.157-12.81 7.0092-29.916 9.4865-42.861 17.444-14.9 7.6893-27.434 19.686-42.477 28.39-12.807 6.9981-27.425 12.749-40.939 17.723-11.277 3.2709-23.186 3.5281-33.653 7.9492-15.571 5.6128-60.198 21.818-72.112 29.007-8.6502 5.6156-16.706 34.034-24.686 41.723-2.2067 1.6617-6.9185-0.0139-8.0094 0.82393-2.041 0.69124-3.5518 4.4322-4.6648 5.2562-1.5273 3.694-4.5736 11.165-4.9907 14.071-0.83406 12.688 8.2469 17.9 0.24022 32.53-21.241-9.9676-9.5836-29.004-43.521-32.925l-1.809 12.55 11.103 73.559 2.9773 20.118-11.6 39.713c-8.1696 8.6654-22.377 11.558-25.161 23.967-0.41702 2.906 1.2539 5.1262 1.8146 8.1234 0.39216 4.0202-1.1158 7.7529-0.7264 11.77 3.1872 12.271 57.552 37.833 60.01 54.959 4.0848 19.33-11.644 39.707-8.49 58.904 1.6488 9.1105 16.48 15.188 19.388 22.487 2.7591 8.3252-10.487 18.171 1.3533 24.818l-21.023 63.97 15.778 33.854-4.4466 17.051 30.314 29.054 3.0684 60.547-24.755 55.509 19.537 0.90423 6.3882-23.779 27.152-3.9262 6.9599 33.553 14.864 19.844 104.96 29.964 23.697-7.4184 10.023 19.222-25.362 25.888-4.0102 14.17 20.634 6.9234 35.634 46.562 14.925 6.094 12.23-16.977 18.27-10.167 1.2511-8.693-20.755-13.866 7.9127-13.609 36.832 10.23 22.962 19.092 27.842 10.946 25.326-11.143 3.0242 20.123-12.746 12.962 23.824 26.071 16.751 6.4009 19.004-9.0608 23.653 20.165 41.944 3.0912 0.85904 13.905 8.269 24.846 27.138 23.654 7.7498 20.809 11.219 11.461 0.39772 17.804 27.547-6.8378 7.631-25.512 30.226-18.34 24.926 38.118 22.401 9.163 5.7888 14.593-0.68499 24.572 31.286 1.5789 22.067-30.354 21.46-11.701 23.956 4.4571 27.978-9.7188 28.834 17.922 19.662-19.811 66.061-8.1483 51.097 14.237 17.137 32.079 69.232 24.785 39.21 7.5843 6.4766-9.8874-22.667-20.991 2.3504-22.363-11.036-60.704 4.8802-19.996 125.59-174.97 27.991-9.763 12.464-11.005 5.4105-16.988 0.7014-18.569z" fill="url(#a)"/>
    <path d="m406.76-296.72c-12.257-0.0347-24.482 0.1914-36.638 0.66128-0.13217 5e-3 -0.26421-5e-3 -0.39632 0-6.5047 0.25438-12.944 0.78957-19.42 1.1903-5.2222 0.32583-10.474 0.54766-15.677 0.96988-10.802 0.87661-21.56 1.9663-32.278 3.2623-0.93667 0.11324-1.8823 0.19213-2.8183 0.3086-0.0433 5e-3 -0.0887-5e-3 -0.13217 0-11.721 1.4604-23.389 3.1884-35.009 5.1579-11.662 1.9768-23.274 4.2045-34.832 6.7009-11.558 2.4965-23.071 5.2651-34.524 8.288s-22.869 6.319-34.216 9.8751c-11.258 3.5283-22.447 7.314-33.599 11.374-0.0876 0.0319-0.17666 0.0563-0.26421 0.0882l-16.91 51.535 9.82 21.073 5.7247 11.286-0.17615 0.66128 0.39632 0.83763-4.1834 16.003 29.856 28.567 0.0881 1.4107 0.13202 0.13224 3.0385 60.529-24.088 54.048 18.671 0.83764 6.3852-23.762 27.17-3.9236 6.9577 33.549 14.84 19.838 104.98 29.978 23.691-7.4063 9.9961 19.221-0.35228 0.35268 0.57246 1.1462-25.365 25.878-3.6109 12.873 20.036 6.7009 35.625 46.598 14.928 6.0837 12.242-16.973 18.275-10.184 1.0568-7.4504-20.345-13.578 0.57247-1.014-0.79266-0.52904 7.9265-13.578 36.814 10.228 22.943 19.089 27.875 10.933 25.321-11.154 0.22017 1.543 2.7743 18.604 0.22018 1.4989-12.11 12.344 22.987 25.173 16.734 6.3923 19.024-9.0374 23.647 20.147 41.966 3.0859 0.0881 1.543h0.0881l0.83668 12.873 8.1026 24.335 27.126 23.674 7.7503 20.808 11.229 11.462 0.0439 1.3226 0.17616 0.17633 0.35228 16.267 27.346-6.7891 7.6622-25.525 30.209-18.339 24.924 38.134 22.414 9.1256 5.7687 14.592-0.0441 0.92579v0.0441l0.2642 0.57311-0.61651 23.056 31.001 1.5871 22.062-30.375 21.49-11.683 23.956 4.4526 27.963-9.7428 28.843 17.943 19.64-19.838 66.098-8.1117 51.082 14.239 17.13 32.05 69.224 24.776 39.236 7.5826 5.9008-9.0374-21.886-20.279 0.1322-1.2344-0.3523-0.30859 2.3339-22.175v-0.0441l-10.833-59.338 0.044-0.22044-0.2202-1.2784 4.8439-20.015 125.59-174.97 28.007-9.7428 12.462-11.021 5.4165-16.973 0.6605-17.281c-9.8064-7.1592-13.788-16.795-15.677-27.377-0.027-0.13439-0.062-0.26199-0.088-0.39676-0.01-0.032204-0.038-0.056048-0.044-0.088252-0.9688-5.0127-1.4476-10.258-1.8055-15.562-0.1149-1.7008-0.2456-3.4053-0.3523-5.1139-0.234-3.7536-0.4379-7.4909-0.8367-11.198-0.016-0.13346-0.028-0.26333-0.044-0.39676-0.8196-6.6367-2.1411-13.104-4.932-19.001-8.2773-17.914-26.568-34.342-36.682-52.549-7.0455-12.829-14.8-54.381-17.57-69.566 0.021-0.14685-0.021-0.25022 0-0.39676-0.047-0.25689-0.1758-0.90266-0.2202-1.1462 0.3632-2.5139 0.4871-4.8199 0.132-6.7891-2.9599-8.3627-13.164-22.295-12.991-30.992 0.012-0.088 0.031-0.1766 0.044-0.26451-0.033-0.4093-0.272-0.93363-0.2643-1.3226 1.3866-9.6275 5.7778-18.872 7.8825-27.421-94.233 46.431-189.74 64.233-286.32 61.851-12.088-0.29846-24.164-0.9378-36.286-1.8516-24.214-1.8231-48.491-4.8251-72.835-8.9052s-48.718-9.225-73.188-15.298c-12.235-3.0362-24.505-6.3021-36.77-9.7869-24.53-6.9695-49.114-14.8-73.76-23.365-52.624-15.41-104.52-27.262-155.67-35.312-12.784-2.0116-25.491-3.804-38.179-5.3343-25.39-3.0639-50.57-5.1318-75.566-6.216-12.491-0.54201-24.909-0.84666-37.298-0.88169z" fill="url(#d)" stroke-width="0"/>
    <path d="m1376.3 18.216c-25.898-18.522-12.009-53.947-24.048-79.384-8.2773-17.914-26.564-34.363-36.678-52.57-7.0456-12.829-14.768-54.37-17.538-69.555 0.4197-2.906 0.8312-5.7649 0.1444-7.8441-2.7619-8.3087-13.417-22.659-13.24-31.496 1.3864-9.6275 5.7861-18.89 7.8906-27.439 1.5329-10.609 1.5551-24.401 1.149-35.286-1.8035-34.791-26.591-33.42-53.865-42.306l8.2055-37.241 65.66-51.594 4.8691-14.087-16.282-104.81-18.38-23.386-38.495-80.435-5.0846-33.282-1.2208-46.465-5.7805-14.627-60.783-35.386-22.44-1.2719-22.89 15.398-25.904 9.0663-131.69 11.535-128.1-5.6986-57.604-10.305c-10.981 15.174-31.471 33.879-50.592 37.047l-5.2475-4.7087c0.69046-4.7972 3.201-15.323 5.6839-18.865 10.122-15.31 27.45-26.599 39.221-39.688 2.3476-2.6267 4.7172-5.2479 6.2666-9.9179-14.417-2.082-52.674 51.489-83.869 49.946-10.636-1.5401-20.871-5.9834-31.427-7.5068-2.9027-0.41749-6.0844 1.1032-8.9871 0.68295-3.6152-1.518-13.961-5.917-16.483-8.2644-11.644-7.6257-36.981-43.769-18.808-53.952 19.402-11.986 44.176 28.037 56.245 25.816l2.3365-2.5659c-1.2428-11.068-23.374-22.125-32.115-29.319-1.6543-2.1705-3.3252-4.3935-5.115-5.6322-1.6681-2.2258-20.493-14.79-22.283-16.031-12.044-5.7013-45.441-12.509-57.745-9.3372-33.465 6.987-75.222 16.733-107.5 28.775-9.4953 4.5732-33.606 21.763-42.477 28.39-4.43 3.2626-7.1449 8.8146-11.445 11.157-12.81 7.0091-29.916 9.4865-42.861 17.444-14.9 7.6893-27.434 19.686-42.477 28.39-12.807 6.9981-27.425 12.749-40.939 17.723-11.277 3.271-23.186 3.5281-33.653 7.9492-15.571 5.6129-60.198 21.818-72.112 29.007-8.6502 5.6156-16.706 34.034-24.686 41.723-2.2067 1.6617-6.9185-0.0139-8.0094 0.82395-2.041 0.69123-3.5518 4.4322-4.6648 5.2562-1.5273 3.694-4.5736 11.165-4.9907 14.071-0.83407 12.688 8.2469 17.9 0.24021 32.53-21.241-9.9676-9.5836-29.004-43.521-32.925l-1.809 12.55 11.103 73.559 2.9773 20.118-11.6 39.713c-8.1696 8.6654-22.377 11.558-25.161 23.967-0.41702 2.906 1.2539 5.1262 1.8146 8.1234 0.39216 4.0202-1.1158 7.7529-0.7264 11.77 3.1872 12.271 57.552 37.833 60.01 54.959 4.0848 19.33-11.644 39.707-8.49 58.904 1.6488 9.1105 16.48 15.188 19.388 22.487 2.7591 8.3252-10.487 18.171 1.3533 24.818l-21.023 63.97 15.778 33.854-4.4466 17.051 30.314 29.054 3.0684 60.547-24.755 55.509 19.537 0.90421 6.3882-23.779 27.152-3.9262 6.9599 33.553 14.864 19.844 104.96 29.964 23.697-7.4184 10.023 19.222-25.362 25.888-4.0102 14.17 20.634 6.9234 35.634 46.562 14.925 6.0939 12.23-16.977 18.27-10.167 1.2511-8.693-20.755-13.866 7.9127-13.609 36.832 10.23 22.962 19.092 27.842 10.946 25.326-11.143 3.0242 20.123-12.746 12.962 23.824 26.071 16.751 6.4009 19.004-9.0608 23.653 20.165 41.944 3.0912 0.85903 13.905 8.269 24.846 27.138 23.654 7.7498 20.809 11.219 11.461 0.3977 17.803 27.547-6.8377 7.631-25.512 30.226-18.34 24.926 38.118 22.401 9.163 5.7889 14.593-0.68498 24.572 31.286 1.5789 22.067-30.354 21.46-11.701 23.956 4.4571 27.978-9.7188 28.834 17.922 19.662-19.811 66.061-8.1483 51.097 14.237 17.137 32.079 69.232 24.785 39.21 7.5843 6.4766-9.8875-22.667-20.991 2.3504-22.363-11.036-60.704 4.8802-19.996 125.59-174.97 27.991-9.763 12.464-11.005 5.4105-16.988 0.7014-18.569z" fill="none" stroke="url(#e)" stroke-width="6.1667"/>
   </g>
  </g>
 </g>
</svg>
