<?xml version='1.0' encoding='utf-8'?>
<svg xmlns="http://www.w3.org/2000/svg" enable-background="new 0 0 1405.665 1669.984" version="1.1" viewBox="0 0 1405.665 1669.984">
	<path d="m573.68 1250.1c0.155 0.27 0.672 0.518 0.86 0.737 0.164 0.191 0.053-0.041 0.246 0.123 0.123 0.105 0 0.263 0.123 0.368 0.192 0.164 0.071-0.058 0.246 0.123 0.163 0.169 0.491 0.391 0.491 0.614v0.246c0 0.457 0.718 0.943 0.983 1.351 0.125 0.195 0.014 0.246 0.246 0.246h0.369c0.214 0 0.04 0.164 0.246 0.368l0.123 0.123c0.179 0.178 0.098-0.082 0.246 0.123 0.232 0.323 0.222 0.396 0.491 0.614 0.382 0.31 0.569 0.266 0.983 0 0.195-0.125 0.103-0.063 0.246-0.246 0.215-0.275 0.067-0.5 0.246-0.86 0.112-0.226 0.19 0.123 0.246-0.123 0.215-0.946 0.393-1.748 0.614-2.702 0.073-0.315 0.491-0.858 0.491-1.351v-0.246l0.246-0.123v-0.246c0-0.213 0.368 0.045 0.368-0.246v-0.246c0-0.559 1.057-0.272 1.351-0.86l0.123-0.246c0.29-0.578 1.016-0.634 1.105-0.983 0.302-1.176 1.37-3.051 0.368-4.053l-0.123-0.123c-0.178-0.179-0.134 0.103-0.246-0.123l-0.123-0.246h-0.246c-0.252 0 0.025-0.155-0.369-0.246-0.695-0.16-1.424-0.173-1.842 0.246l-0.123 0.123c-0.163 0.163-0.079 0.085-0.246 0.246-0.156 0.149 4e-3 0.286-0.123 0.491-0.104 0.168-0.321 1.72-0.369 2.088-7e-3 0.052-0.346 1.132-0.491 1.228l-0.368 0.246v0.246h-0.246c-1.259 0-2.853 0.126-3.439-0.246-0.269-0.171-0.125-0.042-0.369-0.246-0.245-0.204-1.338-0.614-1.72-0.614-1.005 0-1.351 0.558-1.351 0.983v1.474c0 0.181 0.477 1.458 0.614 1.719 0.092 0.179-1e-3 0.033 0.123 0.249z" fill="none"/>
	<line x1="1121.6" x2="1121.6" y1="37.031" y2="37.031" fill="none"/>
	<path d="m1119.4 35.865c-0.756-0.162-1.963-0.63-2.404-0.799-0.889-0.341-2.143 0.614-3.071 0.614h-0.246c-0.369 0-0.677 0.066-0.934 0.185h6.655z" fill="none"/>
	<path d="m144.66 1186.9h-0.123c-0.461 0-2.493-0.926-2.579-0.246-0.12 0.938 0.298 1.452 0.86 2.088 0.202 0.23 0.333 0.602 0.491 0.86 0.236 0.385 0.49 0.685 0.737 1.105 0.135 0.231 0.135 0.541 0.246 0.737 0.162 0.288 0.169-0.054 0.246 0.246 0.132 0.508 0.361 0.842 0.614 1.351 0.186 0.375 0.232 1.085 0.614 1.351 0.154 0.108 0.807 0.557 0.983 0.246 0.329-0.584-0.32-1.98-0.368-2.579-0.04-0.496-0.238-1.124-0.368-1.597-0.094-0.343 0.062-0.409-0.123-0.737-0.268-0.475-0.364-0.978-0.737-1.351-0.438-0.436 0.349-1.474-0.493-1.474z" fill="#21468B"/>
	<path d="m144.42 1113.7c2.743 3.146 5.018 9.089 7.246 9.089h0.368c0.271 0 0.952 0.471 1.228 0.614 0.182 0.094 0.525 0.082 0.737 0.246 0.233 0.18 0.506 0.491 0.86 0.491h0.491c1.157 0 2.179-3.193 3.193-3.193h0.246c1.089 0 5.755-0.707 7.001-1.474 3.553-2.186 24.196-19.482 24.196-9.334 0 4.25 10.049 6.509 13.51 6.509 4.384 0 6.943 8.322 8.597 10.194 1.418 1.604 2.825 5.208 2.825 7.492 0 1.883-1.389 6.857 0.123 7.246 5.082 1.312 9.153 2.257 14.124 2.088 0.18-6e-3 2.115-1.816 2.334-1.597l0.123 0.123c0.233 0.234 0.148 0.123 0.368 0.368 0.35 0.391 2.059 1.521 2.456 2.088 0.472 0.674 4.167 4.416 5.281 5.158 2.865 1.911 5.256 1.285 8.352 0.491 4.477-1.148 10.713-0.637 14.247-3.439 0.737-0.584 9.046-4.844 9.58-4.79 1.987 0.202 3.101 1.038 5.159-0.491l4.79-3.562c4.385-3.26 5.268-8.213 8.475-10.808 0.145-0.117-5.32-6.651-7.246-7.738-2.871-1.62-10.533-5.795-13.633-6.51-1.369-0.315-7.794-1.258-8.72-1.719-2.25-1.122-0.958-5.858-3.507-8.693h-114.91c-0.145 4.302 0.328 9.114 2.104 11.151z" fill="#21468B"/>
	<path d="m161 1190c8.233-6.333 8.353-4.733 17.563-3.685 2.322 0.264 5.09 0.479 6.878 1.597 2.999 1.874 5.419-6.681 12.896-1.474 1.97 1.373 7.654 6.853 9.334 3.071 2.292-5.158 2.088-4.649 7.246-6.632 5.845-2.247-0.366-13.224-3.807-17.195-8.758-10.105-17.935-9.386-30.582-6.141-13.531 3.472-37.092-13.167-37.092-0.86v0.123c0 3.402-13.009 4.618-13.756 6.632-0.212 0.571 1.228 4.696 1.228 5.527 0 4.461 4.145 6.807 7.738 8.597 8.387 4.182 10.194 8.298 10.194 18.423 1e-3 9.681 9.195-5.702 12.16-7.983z" fill="#21468B"/>
	<path d="m310.72 1109.9c0.061 0.229 0.565 0.87 0.737 1.105 0.113 0.153 0.226 0.433 0.368 0.614 0.106 0.135 0.046 0.303 0.246 0.368 2.335 0.764 11.046 2.745 12.651 3.807 1.123 0.744 2.134 0.407 3.193 0.86 0.213 0.091 0.085 0.08 0.246 0.246 0.197 0.202 0.286 0.199 0.491 0.491 0.124 0.177 0.338 0.529 0.491 0.737 0.102 0.138 0.091 0.226 0.246 0.368 0.208 0.191 0.23 0.248 0.491 0.491 0.232 0.215 0.457 0.42 0.614 0.737 0.558 1.129 4.807 3.717 5.65 4.667 1.029 1.16 2.633 2.666 3.439 2.702 16.655 0.754 36.824 2.725 41.759-17.072 0.169-0.681-0.039-0.672 0.123-0.86 0.207-0.24 0.414-0.369 0.614-0.614 0.169-0.207 0.246-0.088 0.246-0.369v-0.246c0-0.103 1.326-1.028 1.474-1.105 0.22-0.115 0.078-0.017 0.246-0.123 0.198-0.125 0.168-0.072 0.368-0.123 0.688-0.175 3.246-0.352 3.93-0.614 1.217-0.468 2.49-1.097 3.562-1.597 0.228-0.106-0.123-0.396-0.123-0.614v-0.246c0-0.304-0.937-0.439-1.351-0.737-0.112-0.081-0.492-0.154-0.996-0.217h-85.359c3.183 1.42 5.663 3.67 6.644 7.344z" fill="#21468B"/>
	<path d="m440.19 1102.5h-7.882c2.333 0.757 4.843 0.988 7.882 0z" fill="#21468B"/>
	<path d="m143.19 1144.9l-0.246 0.123c-1.157 0.578-1.916 1.893-0.983 3.316 0.369 0.563 1.083 0.053 1.597-0.246 0.218-0.127-0.13-0.246 0.123-0.246h0.246c0.232 0 0.085-0.079 0.246-0.246 0.197-0.205 0.329-0.436 0.614-0.614 0.486-0.304 0.968-0.357 1.474-0.614 0.324-0.165 1.642-0.167 2.088-0.246 0.108-0.019 0.88-0.28 1.105-0.369 0.207-0.081 0.368-0.038 0.368-0.246v-0.246c0-0.204 0.091-0.293 0.246-0.491 0.174-0.222 0.402-0.478 0.614-0.86 0.595-1.071 2.611-1.873 2.825-3.316 0.053-0.357 0.256-0.502 0.368-0.86 0.042-0.132 0.094-0.591 0.246-0.737 0.253-0.243 0.364-1.6 0.123-1.842l-0.123-0.123c-0.178-0.179-0.134 0.103-0.246-0.123l-0.123-0.246h-0.614c-0.215 0-0.288-0.253-0.491-0.123-0.174 0.112-0.17-2e-3 -0.368 0.123-0.168 0.106-0.045-0.024-0.246 0.123-0.203 0.148 0.129 0.246-0.123 0.246h-0.246c-0.252 0 0.053 0.065-0.123 0.246-0.147 0.151-0.285 0.246-0.737 0.246h-2.456c-0.279 0-0.401 0.333-0.614 0.491-0.13 0.097 0.039 0.369-0.123 0.369h-0.246c-0.269 0-0.387 0.573-0.614 0.737-0.131 0.095 0.014 0.282-0.123 0.369-0.299 0.189-0.188 0.186-0.491 0.368-0.125 0.075-1.208 1.149-1.351 1.474-0.129 0.292 0.018 0.483-0.123 0.737-0.1 0.181 0 0.169-0.123 0.369-0.099 0.163-0.218 0.44-0.368 0.614-0.133 0.154-0.127 0.269-0.246 0.491-0.08 0.152-0.114 0.204-0.246 0.369-0.1 0.126-0.368 0.133-0.368 0.368v0.246c1e-3 0.207 0.088 0.265-0.122 0.369z" fill="#21468B"/>
	<path d="m32.037 1331.7c0.292 0.585 1.312 0.772 1.842 1.105 0.238 0.149 0.495 0.107 0.614 0.368 0.998 2.18 0.978 2.457 1.105 5.527 5e-3 0.136 0.335 1.047 0.491 1.228l1.597 1.842c0.189 0.219 0.371 0.023 0.614 0.246l4.176 3.807c0.489 0.446 0.998 1.326 1.597 1.597 2.589 1.174 5.51 3.921 7.492 6.264 1.498 1.772 3.475 5.36 7.001 6.264 6.163 1.581 33.518 1.951 30.091-8.352-1.247-3.75-6.26-11.299-4.667-15.353 1.826-4.645 11.497-0.167 12.773-4.299 0.084-0.271 0.582-0.11 0.737-0.369 0.375-0.626 2.414-1.252 2.702-0.614 2.53 5.601 10.142-4.405 12.036-4.79 1.746-0.356 11.612 6.301 13.879 6.755 7.049 1.414 11.043-0.753 15.721 4.913 3.198 3.872 10.411 5.995 15.475 4.79 4.759-1.132 8.793 3.071 12.528 5.404 1.841 1.149 11.741 1.739 12.282 2.825 0.447 0.897-2.579 18.042-2.579 21.617 0 6.696 8.707 4.098 12.651 5.036 5.836 1.388 8.7-0.184 13.756-2.948 11.19-6.118 8.72-5.129 8.72 4.79 0 12.292 10.544-2.865 11.422-3.562 0.979-0.777 0.419-1.445 0.983-1.474 10.352-0.54 12.441-3.119 20.143-8.843 5.453-4.053 5.779-7.316 13.51-7.86 4.533-0.318 9.107 1.659 13.388-0.614 15.815-8.397 28.735-22.408 43.356-32.916 3.404-2.446 6.393-7.564 8.72-11.054 1.477-2.214 2.915-3.911 3.93-6.387 0.413-1.006 1.736-4.059 2.702-4.544 0.239-0.119 0.074-0.146 0.246-0.368 0.263-0.34 0.454-0.983 0.737-0.983h0.246c0.186 0 0.058-0.078 0.246-0.246l1.572-1.404v-1e-3c-1.317-1.858-3.206-4.001-3.906-4.001h-0.246c-0.416 0-1.228-1.413-1.228-1.597v-0.246c0-0.249-0.367-0.706-0.614-0.86-0.894-0.557-3.519-5.774-4.053-7.246-1.229-3.389-3.583-8.009-6.51-3.807-0.748 1.074-8.534 6.003-9.948 6.141-0.151 0.014-1.18 1.474-1.228 1.474-2.43 0.039-8.729 0.938-11.3 1.597-0.401 0.102-3.163 0.367-3.316 0.369-9.129 0.145-14.769-1.825-22.845-3.93-0.108-0.028-3.44-2.536-3.807-2.825-0.245-0.192-0.989-1.029-1.228-1.228-0.176-0.146-0.722-0.962-0.737-1.105-0.131-1.194-0.737-2.255-0.737-3.562 0-0.485-0.196-3.334-0.368-3.562-0.163-0.216 2e-3 -0.673-0.123-0.86-0.138-0.207-0.123-0.047-0.123-0.246v-0.246c0-0.163-0.362-0.447-0.491-0.491-0.318-0.108-0.745-0.274-0.983-0.368-0.491-0.197-1.891-1.127-2.211-1.351-0.581-0.407-1.515-0.318-1.842-0.86-1.259-2.076-14.538-4.875-16.212-2.456-3.886 5.615-0.041 22.862-10.317 23.213-0.374 0.013-5.384 1.437-5.895 1.597-0.188 0.058-0.921 0.297-1.105 0.491-0.27 0.284-0.411 0.519-0.737 0.737-0.648 0.434-1.888 1.23-2.579 1.474-0.291 0.103-0.478 0.446-0.737 0.614-0.296 0.193-0.88 0.481-1.105 0.614-0.24 0.142-0.946 0.737-1.228 0.737h-0.368c-0.282 0-0.447 0.136-0.614 0.369-0.367 0.513-1.749 0.974-2.211 1.474-0.302 0.328-0.687 0.069-0.983 0.369-0.413 0.42-1.107 0.697-1.474 1.105-0.231 0.257-0.668 0.614-0.86 0.614h-0.246c-0.113 0-1.087 1.017-1.228 1.228-0.279 0.414-0.867 2.079-1.228 1.719l-0.123-0.123c-6.288-6.287-13.031 3.188-15.23 0.737-2.451-2.733-5.513 4.832-8.106-0.369-2.302-4.618-4.254-3.952-9.457-4.544-3.866-0.44-2.378 4.43-2.456 4.544-1.683 2.473-0.725 3.508-3.685-1.228-2.491-3.986 1.318-3.807-5.404-3.807-4.837 0-13.827-4.519-16.335-7.615-7.91-9.761-25.108-7.104-36.478-12.773-6.131-3.057-16.624-13.816-24.564-11.914-1.607 0.385-3.265-0.106-4.667 0.246-0.663 0.166-1.8 1.249-2.334 1.597-0.785 0.512-4.953 1.764-5.773 2.088-0.883 0.35-2.137 0.791-3.07 1.105-0.214 0.072-1.691 0.433-1.842 0.737l-0.123 0.246c-0.169 0.338-0.505-5e-3 -0.86 0.123-0.203 0.074-0.058 0.138-0.246 0.246-0.224 0.128-0.917 0.415-1.105 0.491-0.599 0.241-1.248 0.567-1.842 0.737-0.338 0.097-0.815 0.584-0.983 0.737-0.174 0.158-0.429 0.367-0.614 0.491-0.285 0.192-0.157 0.169-0.491 0.246-0.803 0.183-6.002 1.495-6.51 0.614-0.117-0.203-0.193-0.013-0.368-0.123-0.21-0.132-0.072-0.026-0.246-0.123-0.241-0.134-0.49 0.124-0.614-0.123l-0.123-0.246c-0.172-0.343-1.083 0.04-1.351 0.246-0.247 0.19-1.027 0.491-1.228 0.491h-0.368l-0.246 0.246c-0.176 0.176-0.078 0.018-0.246 0.123-0.201 0.126-0.713 0.343-0.86 0.369-0.755 0.131-1.859 0.462-2.579 0.86-0.378 0.209-2.655 1.351-3.07 1.351h-0.368l-0.246 0.246c-0.167 0.167-0.161 0.123-0.368 0.123h-0.368l-0.246 0.246c-0.22 0.22-1.021 0.328-1.228 0.491-0.185 0.146-0.19 0.018-0.368 0.123-0.23 0.136-0.532 0.246-0.737 0.246h-0.246c-0.3 0-0.604 0.428-0.737 0.491-0.224 0.107-0.047 0.123-0.246 0.123h-0.246l-0.123 0.246c-0.205 0.41-2.008 1.241-2.334 1.474-0.569 0.408-1.432 1.015-2.088 1.351-0.199 0.102-0.492 0.291-0.614 0.491-0.288 0.474-1.592 1.347-1.842 1.842-0.073 0.145-0.275-9e-3 -0.368 0.123-0.168 0.237-0.101 0.213-0.246 0.369-0.11 0.119-0.368-0.04-0.368 0.123v0.246c0 0.163-0.282-0.013-0.368 0.123-0.189 0.299-0.156 0.208-0.368 0.491l3.228 3.855c0.628 0.75 0.682 0.952 1.071 1.672 0.27 0.5-0.019 1.435-0.246 1.597-0.623 0.446 0.123 2.542 0.123 3.562v0.246c0 0.435 1.228 0.329 1.228 0.86v0.246c0 0.281 0.07 0.168 0.246 0.369 0.228 0.261 0.481 0.368 0.737 0.614 0.239 0.23 0.263 0.618 0.491 0.86 0.208 0.22 0.849 0.887 0.983 1.105 0.108 0.177-0.018 0.18 0.123 0.368 0.147 0.197 0.251 0.416 0.246 0.737-5e-3 0.335-0.933 2.595-1.105 2.702-0.482 0.298-0.935 1.563-1.474 2.088-0.517 0.504-1.202 1.459-1.719 1.719-1.773 0.893-4.067 6.223-4.79 7.492-0.977 1.715-0.86 4.349-0.86 6.632-5e-3 3.158 1.557 4.103 2.574 6.139z" fill="#21468B"/>
	<path d="m456.75 1106.7c-5.331 0-13.605 4.265-18.792 5.158-6.022 1.038-12.323 2.473-18.055-1.351-2.152-1.436-12.289-5.442-14.616-5.65-0.226-0.02-0.154-0.295-0.369-0.369-0.525-0.18-1.199-0.164-1.351 0.246-1.263 3.387-9.076 4.867-10.44 9.457-0.072 0.242-7.576 11.015-9.334 12.773-2.971 2.971-8.84 6.264-13.019 6.264-3.517 0-6.392 1.598-8.966 1.842-0.266 0.025-0.85 0.178-1.105 0.369-0.341 0.255-2.379 1.011-2.702 1.105l-13.879 4.053c-0.303 0.089-0.753-0.032-0.86 0.246-0.706 1.832-8.61 1.393-9.58-0.368-0.285-0.517-3.048-1.544-3.316-1.965-0.124-0.195-0.424-0.362-0.614-0.369-4.71-0.179-12.306 0.647-16.09-1.965-2.246-1.551-13.993-8.285-16.212-7.615-0.784 0.237-3.032 3.457-3.807 4.053-0.818 0.629-2.697 3.422-2.948 3.685-0.272 0.286-0.045 0.348-0.246 0.737-0.131 0.255-0.474 2.08-0.86 2.211-4.469 1.508 2.092 13.825 4.79 14.861 4.725 1.817 13.139-2.012 18.178-1.842 0.18 6e-3 0.484 0.311 0.491 0.491 0.169 4.452-17.574 5.917-21.248 4.79-0.233-0.071-0.212-0.181-0.368-0.369-0.21-0.251-0.661-0.834-0.86-1.105-0.335-0.455-0.656-1.157-0.983-1.719-0.127-0.219-2.018-1.465-2.211-1.474-4.099-0.18-6.89-1.426-11.545 0.123-3.624 1.204-8.073 4.75-11.791 5.036-0.308 0.024-1.432 0.474-1.719 0.737-0.35 0.32-0.594 0.982-0.983 0.982h-0.246c-0.205 0-1.024 0.546-1.228 0.737-0.183 0.172-2.791 1.798-2.948 1.965-0.271 0.287-5.219 0.295-5.895 0.491-0.258 0.075-0.496 0.094-0.614 0.369-1.281 2.989-1.586 5.031-1.474 8.598 3e-3 0.119 0.335 0.831 0.491 0.982 0.167 0.161 0.052 0.119 0.246 0.246 0.4 0.262 3.408 2.794 4.053 3.439 0.553 0.553 3.723 2.211 3.808 2.211h0.246c0.203 0 0.321 0.06 0.491 0.246 0.307 0.334 5.299 1.788 5.773 2.579 1.339 2.236 1.942 3.399 4.299 4.053 2.334 0.647 2.49 1.514 4.422 2.702 2.638 1.623 3.279 8.577 5.527 10.563 4.011 3.542 14.786 3.953 20.388 3.316 2.113-0.241 3.44 1.182 5.404 0.983 1.055-0.107 4.359-0.86 6.018-0.86h0.246c0.243 0 0.275 0.143 0.368 0.369 0.499 1.199 4.936 4.588 5.895 5.281 0.872 0.63 5.172 2.291 6.141 2.825 1.759 0.97 3.102 1.354 5.036 1.105 1.686-0.217 3.941-0.164 4.299 1.105l1.351 4.79c0.219 0.782 0.246 4.258 0.246 5.404v0.246l5.159 0.123c1.024 0.025 3.516 0.737 4.422 0.737h0.246c1.998 0-0.342-4.141 0.491-5.895 0.184-0.387 11.246 8.866 5.65 8.229-7.668-0.873-4.09 3.349 0.491 4.544 1.862 0.486 1.842 6.877 1.842 9.089 0 2.581-2.508 2.52-4.176 3.562-1.629 1.017-3.845-0.767-5.036-0.614-0.808 0.103-3.694 2.892-5.281 3.439-3.139 1.083-6.478 2.329-9.948 1.965l-2.334-0.246c-0.897-0.093-2.196-0.364-2.948-0.737-1.064-0.53-4.035-1.93-4.667-2.456-0.684-0.569-7.317 5.096-8.475 5.895-2.29 1.582-7.944 3.213-10.317 0.246-3.927-4.91-12.291-3.545-14.861-10.686-1.077-2.994-6.046-7.601-8.229-10.44-3.165-4.114 2.452-13.549-1.842-15.721-8.489-4.294-13.369-9.219-22.599-12.405-9.395-3.243-12.345-11.545-23.827-11.545h-0.246c-1.166 0-6.211-1.783-7.492-1.351-4.547 1.534-11.822 4.472-16.581 3.93-4.403-0.501-7.211-6.894-14.493-4.667-0.453 0.138-0.634 0.443-0.86 0.86-0.077 0.142-0.276-0.01-0.368 0.123-0.172 0.247-0.37 0.094-0.491 0.368-1.172 2.662-10.192 2.96-12.528 1.842-1.399-0.669-0.332-0.976 0.368-2.211 0.26-0.458 0.795-0.446 1.228-0.737 0.222-0.149 0.573-0.35 0.614-0.614 0.247-1.541-6.32-1.384-7.492-0.86-1.198 0.535-7.384 6.216-7.861 7.369-0.088 0.213-0.416 0.029-0.491 0.246-0.697 2.011-3.896 5.57-4.913 7.861-0.593 1.335-6.485 4.456-7.246 3.439-0.302-0.402-0.656-0.111-0.983-0.368-0.22-0.174-0.154-0.086-0.368-0.246-0.202-0.151-0.462-0.533-0.614-0.737-0.249-0.334-0.395-0.866-0.737-1.105-0.629-0.44-1.464-2.554-2.211-2.948-0.24-0.126-0.39-0.476-0.491-0.737-0.66-1.709-3.698-12.205-5.158-12.773-0.227-0.088-0.208-0.186-0.368-0.368-0.199-0.226-0.257-0.181-0.491-0.369-0.241-0.192-1.09-0.65-1.351-0.86-0.27-0.217-0.191-0.353-0.491-0.614-0.38-0.33-0.635-0.439-0.983-0.737-0.269-0.231-0.803-0.92-1.105-1.105-0.13-0.08-1.171-0.952-1.228-1.105-0.412-1.099-2.22-1.886-2.702-2.456-0.28-0.33-0.461-0.2-0.86-0.369-0.206-0.086-0.683-0.446-0.86-0.614-0.163-0.154-0.482-0.296-0.614-0.491-0.255-0.377-0.351-0.272-0.491-0.737-0.049-0.164-0.075-0.246-0.246-0.369-0.298-0.214-0.737-0.64-0.737-0.86v-0.246c0-0.226-0.224-0.194-0.368-0.368-0.12-0.146-0.567-2.269-0.614-2.456-0.163-0.641 0.191-1.325-0.123-1.842-0.251-0.414-0.137-0.736-0.368-0.983-0.161-0.172-0.234-0.966-0.246-1.105-0.129-1.475 1.195-3.894-0.246-4.176-7.346-1.441-11.295-5.308-19.897-2.211-9.389 3.381-19.204 10.192-27.758 16.09-4.627 3.191-11.804 6.774-15.475 10.931-4.994 5.654-5.315 10.774 0.246 16.335 4.663 4.663 16.713 11.392 18.546 16.704 0.331 0.961 3.071 5.835 3.193 5.896 0.451 0.224 5.863 8.731 7.246 10.194 1.769 1.87 4.453 2.25 6.387 3.439 2.332 1.435 2.772 2.595 4.667 4.053 4.171 3.209 7.833 2.334 13.756 2.334 11.679 0 17.442-3.594 26.038-8.966 2.036-1.272 12.73-9.179 13.388-7.861 1.391 2.79-3.233 3.11-5.404 5.281-1.79 1.79 4.018 4.788 5.895 4.299 0.881-0.229-1.291 4.682 0.737 5.65 0.946 0.452-4.776 1.596-4.913 0-0.632-7.352-9.196-10.368-8.352-2.948 0.245 2.151 3.531 2.935 5.281 4.053 0.63 0.402 0.986 1.417 1.351 2.088 0.125 0.23 0.208 0.3 0.368 0.491 0.119 0.142 0.755 1.223 0.983 1.351 0.743 0.418 1.642 2.745 2.702 3.316 0.355 0.191 3.587 5.145 3.685 5.281 0.172 0.239 0.763 0.786 0.983 0.983 0.181 0.163 0.212 0.182 0.368 0.368 0.21 0.249 1.649 2.187 1.719 2.334 0.265 0.55 0.687 1.298 1.105 1.351 2.971 0.38 5.031 0.698 6.51-1.228 2.302-2.998 7.786 3.318 8.229 4.053 1.062 1.764 3.942 5.367 5.773 6.264 6.642 3.256 8.293 6.22 16.826 4.667 2.563-0.466 18.142-1.071 18.792-2.334 0.198-0.385 0.77-0.375 1.105-0.614 0.189-0.134 0.092-0.072 0.246-0.246 0.187-0.211 0.135-0.456 0.368-0.614 0.453-0.307 0.689-0.47 0.86-0.86l4.544-10.317c0.145-0.33 0.889-2.276 0.983-2.457 0.141-0.273 0.46-1.707 0.491-1.842l1.228-5.158c0.047-0.203 0.33-0.884 0.368-0.982 0.081-0.212 0.181-0.467 0.246-0.614 0.119-0.275 0.42-1.455 0.491-1.597 0.113-0.227 0.162-0.708 0.246-0.86 0.118-0.211 0.086-0.28 0.123-0.491 0.19-1.073 0.631-2.295 0.86-3.439 0.052-0.258 0.273-0.129 0.491-0.368 0.18-0.197 0.058-0.16 0.246-0.368 0.157-0.175 0.091-0.164 0.123-0.369 0.185-1.169 1.458-1.816 1.842-2.333 0.15-0.203 0.315-0.143 0.491-0.246 0.233-0.135 0.549-0.276 0.737-0.369 0.303-0.149 1.795-0.982 1.965-0.982h0.246c0.319 0 0.825-0.546 1.105-0.614 1.007-0.245 3.003-1.138 4.176-1.228 1.806-0.14 3.144-0.944 4.176-1.72 0.983-0.74 5.023 2.215 5.895 3.316 1.921 2.423 3.115 5.362 5.527 7.492 2.482 2.192 10.447 7.124 14.124 7.124h0.246c13.465 0 25.769 14.673 34.881 18.177 4.806 1.847 7.451-0.576 10.44-2.088 1.782-0.901 7.916-2.782 9.703-2.579 2.772 0.314 6.364 3.971 8.597 5.527 3.289 2.29 3.854 6.398 4.342 10.626l16.635-0.191 13.904-0.119c8.289-0.07 10.402 11.054 19.16 11.054 4.456 0 13.985-4.5 16.09-8.229 2.241-3.97-6.022-7.619-8.106-11.914-2.021-4.166-8.355-7.431-6.018-13.51 0.98-2.551 3.334-10.642 2.088-13.142-1.746-3.503-6.533-3.537-2.334-7.246 11.529-10.184 32.575-18.177 48.269-18.177 12.511 0 3.333 9.572 1.72 14.739-1.634 5.232-6.329 22.327-0.983 20.143 19.662-8.034 19.485-2.644 35.987-1.965 2.843 0.117 10.283 2.534 12.405-0.614 3.148-4.671-1.027-8.497 3.439-12.036 3.635-2.882 6.776-2.65 7.369-7.86 0.419-3.682 5.293-3.551 7.861-6.632 4.334-5.202 7.656-12.194 12.896-15.844 4.126-2.874 7.058-0.061 11.914 0.491 4.371 0.497 5.879 0.129 7.247 3.685 0.728 1.894 0.372 5.473 2.702 5.773 3.423 0.441 8.155-0.378 7.247 3.562-0.695 3.016 2.2 8.169 0 10.071-4.49 3.884-6.379 8.358-6.264 13.388 0.036 1.587-0.103 1.723-0.246 2.948-0.018 0.157-0.087 0.246-0.246 0.246h-0.246c-0.449 0-1.938 0.72-2.456 0.491-0.283-0.124-1.189-0.782-1.719-0.86-3.229-0.479-6.932-1.414-10.686-1.228-0.198 9e-3 -0.032-3e-3 -0.246 0.123-0.166 0.098-2.445 2.14-2.456 2.333-0.18 3.152 14.445 4.422 19.16 4.422h0.246c0.335 0 1.615 0.856 1.965 0.983 0.152 0.054 0.428 0.115 0.614 0.246 0.179 0.125 0.491-0.096 0.614 0.123 0.559 0.992 8.073 1.698 9.211 0.737 1.407-1.188 6.657 1.98 7.369 2.334 1.793 0.894 6.809 1.89 7.246 4.422 0.085 0.49 1.145 1.704 1.351 2.088 0.299 0.555 0.317 1.17 0.491 1.842 0.052 0.201-0.095 0.28 0.123 0.369 3.11 1.261 0.803 6.075 5.772 1.105 3.996-3.996 19.323-22.171 23.459-24.687 2.016-1.227 5.281-3.768 5.281-7.492 0-7.771 3.268-26.823 10.194-19.897l0.123 0.123c2.285 2.285-1.448 9.489 1.842 9.58l13.265 0.369 7.492 21.739-11.791 21.125 21.371 25.178 1.105 18.792c0.145 2.467 6.565 3.481 8.598 2.211l12.773-7.983c0.274-0.172 0.573-0.517 0.86-0.369 0.188 0.097 0.525 0.481 0.737 0.491 3.909 0.198 10.742 7.683 14.984 9.089 0.343 0.114-0.237 1.068-0.246 1.351-0.266 8.191-4.994 16.291-2.702 24.687 0.06 0.223 0.446 0.279 0.614 0.368 0.242 0.13 0.466-0.109 0.614 0.123 0.506 0.791 4.222-0.703 4.544-1.228 1.052-1.711 2.817-2.277 4.667-2.088 0.207 0.021 0.257-0.084 0.369 0.123 0.563 1.04 13.734 2.652 15.844 3.193 6.894 1.768 7.523-8.597 13.879-8.597h0.368c0.216 0 0.402-0.347 0.491-0.123 1.474 3.728 21.938 7.13 25.178 4.913 1.701-1.163 5.552-4.953 6.264-7.246 0.047-0.154 0.276 0.01 0.368-0.123 0.172-0.247 0.327-0.117 0.491-0.368 0.537-0.821 3.654-0.246 4.422-0.246 1.409 0 3.177-1.535 4.176-2.334 0.463-0.369 1.984-1.701 2.334-2.211 0.662-0.964 3.771-4.913 5.773-4.913h0.86c0.216 0 0.3-0.025 0.491 0.123 0.208 0.16 0.291 0.214 0.614 0.369 0.54 0.258 3.683 2.766 4.176 3.193l15.967 13.879c0.123 0.106 0.326-0.033 0.369 0.123 1.52 5.537 0.172 19.366 0.369 25.915 6e-3 0.209 0.412 0.488 0.614 0.491 9.744 0.191 23.342 11.506 33.285 11.668 0.172 3e-3 0.369 0.036 0.369 0.246v0.246c0 0.252-0.46 0.119-0.491 0.369-0.227 1.781-1.569 2.816 0.123 3.93 3.452 2.273 9.238 2.04 13.142 4.544 3.353 2.151 11.632-2.238 13.388-2.702 4.615-1.221 11.07-1.749 12.282 2.334l2.334 7.86c0.413 1.391 1.287 4.152 1.474 5.527 0.028 0.206-0.051 0.211 0.123 0.369 0.318 0.289 0.944 2.555 1.105 3.071 0.059 0.19 0.022 0.019 0.123 0.246 0.056 0.125 0.395 0.611 0.491 0.614 2.447 0.091 3.363-2.012 5.036-3.685 1.214-1.214 4.928-2.107 5.158-2.211 1.018-0.458 2.176-1.724 3.316-1.965 0.274-0.058 0.98-0.048 1.228 0.123 0.264 0.181 0.628 0.296 0.86 0.614 0.136 0.187 0.065 0.1 0.246 0.246 0.257 0.208 2.693 3.477 3.071 3.685 1.088 0.597 5.404 4.83 5.404 6.387v1.351c0 0.473-0.763 1.181-1.228 1.474-0.212 0.133-0.18 0.312-0.368 0.491-0.174 0.165-0.941 1.177-0.983 1.351-0.936 3.89-1.673 2.679-5.158 3.807-1.332 0.431-3.289 3.697-4.667 5.281-1.093 1.256-2.892 3.75-2.702 5.036 0.031 0.211 0.152 0.053 0.369 0.246 0.177 0.156 0.033 0.51 0.246 0.614 0.782 0.381 1.821 4.159 2.948 4.667 0.257 0.116 0.112 0.496 0.368 0.614 1.074 0.494 3.451 3.726 2.333 3.807l-8.352 0.614c-0.548 0.04-1.405 0.672-2.088 1.842-0.52 0.892 1.291 2.173 1.474 2.334 0.884 0.781 2.118 2.109 1.105 2.579-4.809 2.237-1.195 9.872-3.071 11.177-1.787 1.244-7.615-4.491-7.615 1.597 0 4.167-0.302 6.774-1.719 10.563-0.197 0.525-1.074 0.896-1.597 1.474-0.617 0.683-1.59 1.578-0.614 2.211 3.249 2.107 4.245 2.519 3.685 6.264-0.081 0.541-1.432 4.311-1.474 4.667-0.325 2.78-6.241 16.323-8.352 17.195-0.387 0.16-3.547 3.872-3.685 4.053-0.177 0.233-1.761 2.698-1.842 2.825-0.141 0.222-0.188 0.142-0.246 0.368-0.814 3.192-3.133 5.241-2.948 9.089 9e-3 0.198-0.053 0.07 0.123 0.246l0.123 0.123c1.981 1.98 4.926-3.035 7.124-4.053 0.534-0.247 1.332-0.655 1.842-0.491 0.192 0.061 0.106 0.431 0.369 0.614 0.606 0.423 1.279 1.514 2.333 1.965 0.213 0.091 0.06 0.107 0.246 0.246 0.126 0.095 0.169 0.108 0.246 0.246 0.2 0.361-0.113 0.736-0.368 1.228-0.819 1.576-3.951 7.756-5.036 9.457-1.756 2.753-3.713 3.99-3.93 7.369-0.458 7.108-4.81 3.072-8.72 5.896-1.748 1.262-1.597 3.326-1.597 5.404 0 2.691-2.316 3.843-3.071 5.65-0.135 0.324-1.492 1.205-1.842 1.597-1.984 2.21-11.205 5.606-12.405 7.001-0.935 1.087-3.071 11.948-3.071 14.002 0 4.677 0.883 11.583 3.685 15.23 1.16 1.51 12.832 5.296 13.387 6.264 0.212 0.369 0.777 0.255 1.105 0.491 0.188 0.135 0.085 0.08 0.246 0.246 0.169 0.175 0.294 0.136 0.368 0.369 0.908 2.8-2.473 8.742 0.737 9.826 0.312 0.105 0.18 0.631 0.491 0.737 3.104 1.055-1.696 10.348-2.457 12.037-1.17 2.598-3.003 4.388-2.825 7.86 0.01 0.191 0.187 0.473 0.369 0.614 0.279 0.217 0.228 0.132 0.491 0.369 0.22 0.197 0.894 0.437 0.983 0.737 1.912 6.454 13.966-0.573 16.212-3.685 1.977-2.738 9.927-15.207 13.142-14.616 0.663 0.122 2.097 5.571 2.334 5.895 0.403 0.553 0.869 1.27 1.351 1.474 2.451 1.039 5.957 4.546 6.387 5.404l0.123 0.246c3.159 6.316 9.018-0.562 12.773-1.719 0.255-0.079 0.827-0.443 1.105-0.614 0.226-0.139 0.4-0.099 0.614 0.123 0.202 0.208 0.325 0.037 0.369 0.246 0.184 0.876 1.178 5.912 1.965 6.264 1.416 0.634 5.489-4.001 6.51-5.158 0.987-1.119 1.533-2.96 3.685-2.702 0.282 0.033 0.017 0.155 0.369 0.368 0.832 0.505 3.625 7.365 4.667 7.861 4.046 1.924 4.59 2.141 9.089-0.86 3.342-2.229 10.31-5.647 14.493-3.562 2.689 1.341 10.331 5.285 13.142 1.474 0.162-0.219 1.166-0.614 1.351-0.614h0.246c0.199 0 0.033 6e-3 0.246-0.123 0.169-0.102 0.07 0.053 0.246-0.123l0.123-0.123 6.141-0.86 1.597-4.053-0.123-0.123c-0.176-0.176-0.014-0.08-0.123-0.246-0.124-0.191-0.173-0.471-0.246-0.614-0.113-0.221-0.014-0.08-0.123-0.246-0.124-0.191-0.246-0.453-0.246-0.614v-0.246c0-0.122-2.919-4.195-3.193-4.299-1.946-0.732-6.625-5.819-8.352-7.369-3.033-2.722-6.531-4.267-3.93-7.983 1.423-2.033 2.978-0.811 5.404 0.737 1.304 0.832 2.973 3.418 4.422 3.193 0.249-0.038-0.101-0.13 0.123-0.246 0.676-0.349 1.638-2.1 1.719-2.579 0.429-2.521 1.474-5.025 1.474-7.369v-8.72c0-3.736 5.76-6.62 8.475-9.334 3.984-3.984 9.035-2.985 13.51-5.281 6.721-3.449-1.965-14.363-1.965-20.02 0-5.216 8.907-9.696 6.141-12.282-3.678-3.439-15.194-3.427-19.406-6.018-3.176-1.954-12.441-10.234-10.194-13.756 2.114-3.315 5.381-9.345 6.264-13.142 0.408-1.758 0.635-2.263-0.123-3.562-0.297-0.508-2.705-1.209-3.193-0.983-3.866 1.797-20.865 1.807-25.547-0.737-6.702-3.642-9.64 7.933-17.318 5.036-0.332-0.125 0.145-1.391 0.246-1.597 0.163-0.333 0.391-0.769 0.614-0.983 0.207-0.198 0.887-0.792 0.983-1.105 1.518-4.948 3.614-7.296-2.211-11.914-3.89-3.084-7.84-6.236-6.264-11.914 0.784-2.826 1.364-7.479-0.983-9.826-4.873-4.873 1.818-3.071 6.387-3.071 2.936 0 3.838-2.904 5.65-3.562 0.229-0.083 0.225-0.171 0.368-0.369 0.245-0.336 0.424-0.708 0.737-0.982 0.387-0.34 0.58-0.538 0.983-0.86 0.277-0.221 0.583-0.769 0.86-0.491l0.123 0.123v0.246c0 0.204 0.03 0.361 0.246 0.491 0.818 0.498 7.516 13.263 8.966 15.721 3.132 5.31 8.705-3.332 9.334-5.773l3.93-15.23c1.138-4.416 9.846-10.534 16.335-12.773 3.757-1.297 15.928-9.24 17.195-13.51 0.065-0.222 0.096-0.069 0.246-0.246 0.113-0.134 0.869-0.897 0.982-0.983 0.186-0.139 0.077-0.086 0.246-0.246 0.184-0.175 1.22-1.382 1.474-1.597 0.336-0.285 1.052-2.39 1.228-2.948 0.062-0.196 0.495-0.883 0.614-1.105 0.08-0.152 0.053-0.285 0.246-0.368 0.911-0.398 1.32-1.554 1.474-2.088 0.459-1.592 2.306-1.016 2.948-0.491 0.459 0.375 1.24 2.252 1.597 1.965 6.766-5.445 5.221-7.738 14.247-7.738 3.664 0 11.924-3.564 9.948-6.755-2.024-3.27-7.363-5.384-10.931-6.755-1.866-0.717 8.624-4.466 10.563-7.124 1.992-2.731 0.107-2.307-1.965-5.281-4.723-6.781-24.845 23.431-32.425 8.229-3.55-7.12-4.972-16.639-2.579-24.319 0.745-2.393 5.884 0.809 4.299-3.316-0.543-1.413-1.505-6.815-2.088-8.475-1.66-4.719 18.669-12.45 18.669-21.985 0-3.233 3.632-4.863 5.404-7.86 2.737-4.631 5.441-8.082 7.246-13.51 1.792-5.39 1.737-5.173 7.001-7.861 7.316-3.736 14.947-13.149 12.528-21.862-0.872-3.141-3.121-10.169 0.86-12.405 0.219-0.123 0.86-2.632 0.86-2.825v-0.368l-0.123-0.123c-0.176-0.175-0.047-0.109-0.246-0.123-2.697-0.184-5.669 2.682-7.615 0.737l-0.123-0.123c-2.7-2.7 2.526-7.446 3.562-11.177 1.205-4.344 2.215-9.845 2.702-14.493 1.004-9.583-1.72-17.059-1.72-25.915 0-8.58-1.458-19.276-10.317-23.213-5.118-2.273-4.516-6.143-6.755-10.685-0.759-1.539-14.731-17.929-15.598-20.757-0.611-1.993-3.097-4.638-4.176-6.141-0.69-0.963-5.277-4.173-5.773-5.281-1.209-2.704 0.136-5.248 0.86-7.983 1.298-4.903 10.866-14.805 7.983-17.686l-0.123-0.123c-3.519-3.518-11.776-1.143-15.844-3.685-2.658-1.661-13.134-3.245-15.598-4.913-2.267-1.535 0-8.227 0-11.3 0-1.015-0.285-2.919-0.564-4.885h-494.66c-3.251 2.113-6.63 4.138-10.19 4.138zm116.19 140.02c0-0.424 0.346-0.983 1.351-0.983 0.382 0 1.475 0.41 1.72 0.614 0.244 0.204 0.099 0.074 0.369 0.246 0.586 0.372 2.18 0.246 3.439 0.246h0.246v-0.246l0.368-0.246c0.145-0.097 0.485-1.176 0.491-1.228 0.047-0.369 0.264-1.92 0.369-2.088 0.127-0.205-0.033-0.342 0.123-0.491 0.167-0.16 0.082-0.082 0.246-0.246l0.123-0.123c0.418-0.419 1.148-0.406 1.842-0.246 0.393 0.091 0.117 0.246 0.369 0.246h0.246l0.123 0.246c0.112 0.226 0.068-0.056 0.246 0.123l0.123 0.123c1.001 1.002-0.066 2.877-0.368 4.053-0.09 0.349-0.816 0.404-1.105 0.983l-0.123 0.246c-0.294 0.588-1.351 0.301-1.351 0.86v0.246c0 0.291-0.368 0.032-0.368 0.246v0.246l-0.246 0.123v0.246c0 0.493-0.418 1.036-0.491 1.351-0.221 0.954-0.399 1.756-0.614 2.702-0.056 0.245-0.134-0.103-0.246 0.123-0.179 0.36-0.031 0.584-0.246 0.86-0.142 0.182-0.051 0.12-0.246 0.246-0.413 0.266-0.6 0.31-0.983 0-0.269-0.218-0.259-0.291-0.491-0.614-0.147-0.205-0.067 0.055-0.246-0.123l-0.123-0.123c-0.206-0.205-0.032-0.368-0.246-0.368h-0.369c-0.232 0-0.12-0.051-0.246-0.246-0.264-0.408-0.983-0.894-0.983-1.351v-0.246c0-0.224-0.329-0.445-0.491-0.614-0.174-0.181-0.053 0.041-0.246-0.123-0.123-0.105 0-0.263-0.123-0.368-0.192-0.164-0.081 0.069-0.246-0.123-0.188-0.219-0.705-0.467-0.86-0.737-0.124-0.216-0.031-0.07-0.123-0.246-0.137-0.262-0.614-1.538-0.614-1.719v-1.477z" fill="#21468B"/>
	<path d="m231.01 1052.8l-0.614-0.123c-0.667-0.134-1.818 2.28-2.334 2.579-0.201 0.116-0.087 0.077-0.246 0.246-0.176 0.187-0.293 0.328-0.491 0.491-0.16 0.132-0.803 0.493-0.983 0.737-0.378 0.513-1.119 1.083-1.474 1.719-0.127 0.228-0.192 0.314-0.368 0.491-0.201 0.202-0.366 0.389-0.614 0.614-0.212 0.192-0.649 0.667-0.86 0.86-0.18 0.164-0.222 0.174-0.368 0.368-0.236 0.315-0.24 0.494-0.491 0.86-0.296 0.43-0.955 1.049-1.351 1.351-0.252 0.192-0.825 0.483-0.491 0.737 0.505 0.385 1.266 0.046 1.842-0.368 0.573-0.413 4.992-1.084 5.527-1.72 0.296-0.352 0.896 0.131 1.228-0.246 0.637-0.722 9.304 0.153 10.44-0.982l0.123-0.123-0.123-0.123-0.123-0.123c-0.158-0.159-0.43-0.345-0.614-0.491-0.126-0.101 6e-3 -0.271-0.123-0.369-0.205-0.155-0.336-0.286-0.491-0.491-0.097-0.129-0.303 0.025-0.368-0.123-0.208-0.473-0.482-0.333-0.737-0.737-0.115-0.183-0.849-0.564-0.983-0.614-0.3-0.112-0.505-0.069-0.737-0.246-0.163-0.123-0.313-0.067-0.491-0.246l-0.123-0.123c-0.178-0.179 0.079-0.095-0.123-0.246-0.193-0.144-0.339 0.031-0.491-0.123-0.178-0.179 0.041-0.053-0.123-0.246-0.105-0.123-0.257-6e-3 -0.368-0.123-0.141-0.147-0.275-0.116-0.491-0.246-0.17-0.102-0.045 0.024-0.246-0.123-0.203-0.148 0.129-0.246-0.123-0.246h-0.246c-0.282 0-0.184-0.401-0.368-0.614-0.165-0.191-0.246 0.13-0.246-0.123v-0.246c0-0.235-0.368-0.198-0.368-0.491v-0.369c0-0.252-0.067 0.055-0.246-0.123-0.153-0.147 0.113-0.439-0.123-0.486z" fill="#fff"/>
	<path d="m201.53 1066.6c-0.401 0.102-0.804 0.146-1.228 0.246-0.641 0.152-1.459 0.195-1.965 0.368-0.501 0.172-0.67 0.046-0.614 0.737 0.058 0.722 0.291 1.281 0.368 1.965 0.061 0.548 0.263 1.298 0.491 1.597 0.175 0.229 1.946-0.054 2.088 0 0.664 0.255 1.199 0.574 1.842 0.86 0.555 0.246 1.365 0.276 1.965 0.491 0.883 0.318 1.83 0.972 2.825 0.86 1.165-0.131-1.514-3.213-1.842-3.685-0.775-1.113 0.246-2.428-0.86-4.053-0.681-1.003-1.975 0.334-3.07 0.614z" fill="#fff"/>
	<path d="m251.15 1078.9c0.498 0.248 0.449 0.956 0.614 1.474 0.062 0.195 0.091 0.517 0.246 0.737 0.148 0.212 0.453 2.493 0.614 2.948 0.068 0.192 0.132 0.267 0.246 0.491 0.073 0.144 0.14 0.412 0.246 0.614 0.07 0.135 0.543 3.246 0.86 3.562l0.123 0.123c0.204 0.203 0.359-0.197 0.614-0.246 1.162-0.226 2.361 0.054 3.562-0.123 0.196-0.029 0.246 0.126 0.246-0.123v-0.246c0-0.303-0.123-0.504-0.123-0.737v-0.246c0-0.726-0.936-2.578-1.351-3.071-0.338-0.401-0.212-1.275-0.491-1.719-0.126-0.201-0.873-0.945-0.983-1.228-0.052-0.133-0.338-0.601-0.491-0.737-0.217-0.194-0.981-2.094-1.228-2.456-0.142-0.208-0.246 0.13-0.246-0.123v-0.246l-0.246-0.123v-0.368c0-0.208 0.036-0.196-0.123-0.369-0.223-0.241 0.019-0.649-0.246-0.86-0.595-0.476-0.423-2.988-0.614-3.807-0.051-0.219 0.242-0.92-0.368-1.228-0.793-0.401-1.797 0.225-2.702 0.369-0.159 0.024-1.326 0.343-1.597 0.368-0.028 3e-3 -1.072 0.269-1.228 0.614-0.089 0.197 3e-3 0.282 0.123 0.491 0.088 0.154 0.361 0.638 0.491 0.86 0.101 0.171-0.1 0.136 0.123 0.246l0.246 0.123c0.145 0.072-0.04 0.369 0.123 0.369h0.246c0.163 0-8e-3 0.274 0.123 0.368 0.28 0.203 0.248 0.49 0.491 0.737 0.185 0.188 0.246 0.263 0.246 0.491v0.246c0 0.161 0.018 0.614 0.246 0.614h0.246c0.485 0 0.446 0.521 0.737 0.86 0.226 0.263 0.297 0.251 0.614 0.491 0.199 0.151 0.368 0.23 0.368 0.491v0.246l0.243 0.123z" fill="#fff"/>
	<path d="m257.22 1102.5c-0.432-0.48-0.962-0.912-1.651-1.256-4.469-2.228-6.788-9.861-8.475-14.247-1.322-3.44-5.091-0.983-8.966-1.719-2.693-0.512-6.391 0.906-9.212 0.123-2.343-0.65-5.72-0.791-7.615-1.597-0.375-0.159-0.864-0.615-0.983-0.983-1.471-4.565-8.418-1.531-12.405-1.228-2.846 0.215-13.678 1.062-13.756-2.702-2e-3 -0.082-0.332-0.9-0.491-0.983-0.257-0.134-0.524-0.115-0.614 0.123-0.624 1.647-3.94 3.86-4.667 3.685-2.628-0.635-5.723-3.414-8.72-3.685-2.285-0.207-4.817 0.761-7.246 1.351l-12.651 3.071c-7.338 1.781-13.189 5.447-16.335 12.528-0.532 1.198-1.01 4.207-1.121 7.52h114.91z" fill="#fff"/>
	<path d="m960.81 569.83c-8.455 0.147-12.406 12.269-21.739 7.615-4.227-2.107-0.975-0.127-4.176 1.842-4.101 2.523-5.026 3.034-9.826 4.176-4.633 1.102-9.483-4.023-12.282-2.948-4.87 1.873-13.536 2.77-16.949 6.755-1.683 1.966-0.161 7.029-6.755 12.651-5.622 4.793 9.543 12.35 12.405 18.792 3.393 7.637 4.041 18.717 1.842 27.021-1.325 5.008-3.342 13.902-6.141 17.932-2.844 4.094-2.72 5.858-7.492 9.212-3.353 2.356 3.028 5.995-1.105 10.563-3.998 4.417-8.867 8.483-13.51 11.914l-24.441 18.055c-4.429 3.272-9.654 3.39-13.265 7.001-3.233 3.233-14.611 7.93-19.037 9.089-1.159 0.303-0.13 3.31-0.983 4.422l-6.878 8.966c-1.795 2.34-7.39 5.795-9.826 7.492-1.715 1.195-2.971 8.018-3.807 10.194-1.199 3.119-7.86 19.815-7.86 22.108v0.246c0 0.172-0.197 0.365-0.369 0.369-7.156 0.162-11.323 0.386-17.563 2.948-6.435 2.642-13.513 3.307-20.02 5.65-5.906 2.126-4.212 1.395-8.966 0-0.232-0.068-0.761-0.487-0.983-0.737-0.356-0.401-0.948-0.542-1.228-1.105-0.08-0.16-2.754-2.211-2.948-2.211h-0.246c-0.541 0-1.388-0.705-1.842-1.474-0.181-0.307-1.351 1.243-1.351-0.737v-0.368c0-1.487-4.987-4.167-7.861-5.159-2.588-0.893-6.017-2.825-8.72-2.825-6.798 0-11.134-3.142-10.44-10.44 0.07-0.733 2.202-2.79 2.825-3.439 0.344-0.357-0.263-0.983-0.737-0.983h-0.491c-0.531 0-0.683 1.163-1.351 1.228-6.463 0.633-10.006-5.463-17.441-7.369-7.811-2.004-18.355 2.678-25.67 3.193-3.442 0.242-9.941-4.69-10.44-7.983-0.08-0.534-0.421-3.429-1.105-3.685-1.827-0.684-3.36 0.776-5.036-0.368-1.91-1.304-4.182-3.316-6.632-3.316-3.002 0-3.891-2.168-6.387-2.948-5.53-1.727-11.457-0.272-16.827 1.105-4.843 1.242-2.182-6.141-6.387-6.141-2.156 0-4.457 3.808-5.281 2.702-1.708-2.292-1.275-7.355-2.825-9.58-1.346-1.933-6.584-3.882-7.124-6.141-0.046-0.193-0.106-0.148 0.123-0.246 1.333-0.567 5.176-3.298 6.387-4.053 1.771-1.106 5.303 3.751 6.141 2.948 0.803-0.77 0.298-1.821 0.246-3.316-0.086-2.463-0.428-4.1 1.719-5.65 2.757-1.991 0.621-3.282 1.842-4.79 2.087-2.576 6.475-4.394 8.106-7.492 1.482-2.815 0.635-3.793 4.176-4.79 3.963-1.116 4.693-2.942 6.51-5.895 4.144-6.735 1.835-2.511-3.807-5.036-4.927-2.205-11.538-2.122-6.878-9.58 2.347-3.757-2.298-2.044-3.562-5.036-1.687-3.993 7.465-2.829 11.054-3.193 0.366-0.036-9.866-12.651-1.474-12.651 5.685 0 6.953-9.395 4.667-13.879-1.47-2.885-4.504-6.026-6.264-8.843-1.536-2.459-2.596-6.93-3.807-9.703l-6.755-15.475c-1.664-3.813-8.208-32.165-3.93-33.53 0.33-0.105 0.093-0.614 0.491-0.614h0.246c0.315 0 0.583-0.587 0.86-0.737 0.398-0.216 1.583-0.057 1.842-0.246 0.387-0.281 3.192-1.453 3.807-1.597 0.158-0.036-0.038-0.349 0.123-0.368 0.157-0.019 0.307-0.068 0.454-0.137h-147.25c-0.346 2.395-0.676 4.781-0.959 7.138l-4.053 33.776c-0.923 7.692-3.935 16.261-4.667 24.196-0.715 7.75-0.968 15.141-4.667 22.108-0.861 1.621-4.157 8.843-5.281 8.843h-0.246c-2.382 0 5.674 1.743 7.246 3.316l0.123 0.123c1.511 1.512-4.62 0.376-6.387 1.351-3.247 1.793-3.848-3.186-5.404-0.123-3.063 6.029 2.282 11.247 0.983 18.669-1.468 8.384-8.24 24.321-11.422 32.916-3.95 10.665-8.121 23.614-13.879 32.916-3.641 5.884-5.969 12.283-8.843 18.669-4.379 9.731-10.557 23.904-16.212 33.039-5.629 9.093-10.642 21.942-18.055 29.354-4.432 4.432-7.368 11.531-11.545 16.09-9.388 10.247-18.078 21.639-27.758 31.319-7.883 7.883-14.51 21.003-22.599 27.512-2.722 2.19-10.303 12.391-12.651 14.739l-0.123 0.123-0.123 0.123c-0.173 0.173-0.187 0.206-0.368 0.369-0.215 0.194-0.285 0.05-0.368 0.246-0.392 0.919-2.114 3.352-2.825 4.053l-9.212 9.089c-2.758 2.721-5.516 2.345-1.597 4.299 4.103 2.046 13.558 5.642 16.458 9.212 4.143 5.1 23.09 21.651 23.09 25.547 0 4.339-5.036 3.972-5.036 2.702 0-4.172-1.192-5.292-4.053-7.86-2.64-2.37-5.546-3.47-8.352-6.141l-7.738-7.369c-1.867-1.777-4.053-4.989-4.053-0.86 0 3.972-1.597 4.273-1.597 0.123 0-2.283-3.482-3.839-5.65-5.404-3.298-2.381-5.57-6.48-7.001-1.842-0.497 1.612-1.501 10.071-1.228 10.071 3.48 0 3.559 2.501-0.86 3.071-0.976 0.125 1.336 3.316-0.491 3.316-4.423 0-9.55 2.005-13.51 3.562-1.954 0.767-2.038-4.226-1.72-4.422 2.03-1.249 4.612-1.702 7.001-2.334 2.991-0.791 6.248-3.142 4.176-6.509-1.354-2.202-13.188-0.176-13.019-1.842 0.533-5.215 1.143-0.724 4.053-1.842 2.489-0.956 1.846-2.723 2.088-5.036 0.061-0.585 3.151 0.369 3.807 0.369 1.793 0 1.422 0.791 2.579 1.597 3.326 2.317 4.053 2.581 4.053-1.965 0-4.123-10.276-6.428-14.002-7.001-6.086-0.936-3.258-4.305-8.106 1.842-1.238 1.57-5.531 9.842-3.316 11.545 4.306 3.312-3.75 14.205-6.264 17.686-3.563 4.933-1.848 3.481 0.86 7.369 3.065 4.4 4.668 0.854 8.597-1.105 2.478-1.235 9.991 1.047 9.457 5.527-0.052 0.434-1.023 1.047-1.228 1.351-0.402 0.598-3.071 4.496-3.562 4.79-0.203 0.122-0.019 0.544-0.246 0.614-3.303 1.029-0.486 5.835 0.123 7.001 0.191 0.367 1.328 2.534 1.719 2.948 0.386 0.408 0.625 0.925 0.983 1.351 0.48 0.573 1.083 1.626 1.474 2.211 0.196 0.294 0.235 0.125 0.491 0.368 0.235 0.225 1.327 1.387 1.351 1.597 0.198 1.742 1.916 4.71 3.193 6.141 1.058 1.185 3.116 5.614 3.807 7.001 0.818 1.642 4.349 5.127 4.79 6.141 0.092 0.214 0.939 0.672 1.105 0.737 1.002 0.398 1.808 1.177 2.825 1.719l7.615 4.053c1.878 1 14.125 2.229 16.458 2.948 0.153 0.047 0.981 0.686 1.105 0.86 0.218 0.304 0.276 0.7 0.614 0.86 1.345 0.633 4.667 4.398 4.667 5.65v0.246c0 0.227 0.368 0.141 0.368 0.369v0.246c0 0.764 6.234 0.614 7.246 0.614h0.246c0.263 0 0.914 0.629 1.228 0.86 0.187 0.137 0.121 0.051 0.246 0.246 0.268 0.418 0.754 0.772 1.105 1.105 0.514 0.488 2.485 2.825 2.825 3.07 0.197 0.143 0.911 0.765 1.105 0.983 0.235 0.264 0.089 0.274 0.368 0.491 0.429 0.332 1.766 1.733 2.088 2.211 0.164 0.243 0.684 0.945 0.983 1.228 0.323 0.307 1.348 0.473 1.842 0.983 0.376 0.387-0.227 0.574-0.491 0.983-0.125 0.195-0.085 0.079-0.246 0.246-0.152 0.157-1.163 0.737-1.228 0.737h-0.246l-0.123 0.123c-0.196 0.196 1e-3 0.367 0.123 0.614 0.07 0.143 0.695 0.709 0.86 0.86 0.189 0.174 0.31 0.31 0.491 0.491s1.627 2.328 1.965 2.579c0.562 0.416 1.348 1.959 2.088 2.334 0.218 0.11 0.301 0.135 0.368 0.369 1.486 5.107 16.449 3.553 20.511 6.264 4.429 2.955 16.579 7.281 20.511 10.317 2.548 1.967 16.439 9.578 19.651 10.686 6.942 2.396 14.761 2.71 21.617 5.158 3.477 1.242 6.363 3.283 9.58 4.327h7.882c0.035-0.011 0.067-0.017 0.101-0.029 5.886-1.958 11.478-2.984 17.072-5.773 10.599-5.285 17.339-9.971 29.968-10.931 9.13-0.694 11.122-5.51 18.546-9.211 5.176-2.581-2.208 4.679 0 5.527 2.863 1.1 8.458 3.807 11.422 3.807 2.146 0 6.167 3.816 4.053 3.93-14.233 0.774-35.449 3.215-48.023 8.843-2.079 0.931-4.207 2.405-6.395 3.836h494.66c-0.437-3.068-0.861-6.291-0.173-6.537 1.993-0.714 4.174 0.493 5.527-0.86l0.123-0.123c0.534-0.534-0.34-0.931-0.737-1.474-0.235-0.321-0.384-0.232-0.614-0.491-0.28-0.313-0.878-1.124-1.228-1.597-0.21-0.285-0.313-0.063-0.491-0.368-0.454-0.778 0.224-0.438-0.983-1.842-4.118-4.791-9.235-7.124-16.09-7.124-5.491 0-10.746-0.784-15.598-1.474-0.69-0.098 0.4-0.922 0.614-1.351 0.125-0.252 3e-3 -0.258 0.246-0.369 1.194-0.546 2.881-3.849 3.807-4.667 2.09-1.846 4.15-2.807 6.387-4.299 4.158-2.774 9.493-4.555 6.018-8.843-0.914-1.127-5.224-4.997-5.65-6.018-0.889-2.13 2.384-7.933 0.86-9.457-1.279-1.279-7.748-4.728-8.598-5.158-1.422-0.721 0.152-3.642 0.123-4.299-0.149-3.233-1.905-1.484-0.246-5.527 0.773-1.885 2.124-3.602 3.071-5.527 0.466-0.947 3.515 2.095 4.79 2.579 1.736 0.661 3.667 0.378 5.404 0.86 3.487 0.967 6.018-0.788 7.983-1.597 0.927-0.381 2.086-3.724 3.193-4.913 1.059-1.137 6.667 0.674 7.983-0.983 1.934-2.435 6.093-8.093 7.369-11.791 0.119-0.348 0.8-0.016 1.105 0.246 0.329 0.282 4.58 4.946 5.896 5.895 3.599 2.599 4.391 2.257 8.843 3.316 4.825 1.148 18.015 7.912 19.774 4.053 3.321-7.286-5.571-12.474-8.843-19.037-0.992-1.991-0.73-4.783-2.456-6.509-2.639-2.638-4.984-3.499-8.229-4.667-4.296-1.547 3.044-6.117 5.158-6.878 7.401-2.665 13.201 2.787 19.037 6.509 8.401 5.358 4.509 17.683 20.02 15.107 8.882-1.475 16.673-6.971 21.125 3.93 5.657 13.852 9.741 1.573 16.581 7.615 4.165 3.679 6.847 6.964 11.791 8.966 12.284 4.976 5.877 3.512 8.72-5.036 1.932-5.809-9.861-16.826-3.93-16.826 5.66 0 8.926 0.329 12.896 4.299 3.05 3.05 3.78-0.512 6.51 0.246 2.864 0.794 3.685 5.404 6.755 5.404 3.397 0 5.383-1.829 8.229-2.948 5.53-2.174 12.65-7.567 16.09-12.159 2.526-3.372 4.368-2.967 6.755-1.351 1.231 0.833 2.879-0.719 3.316-0.983l10.194-6.141c3.676-2.214 7.601-2.611 11.791-3.685 2.946-0.755 20.557-10.536 21.371-8.106 0.076 0.23 0.864 1.31 1.105 1.474 0.427 0.289 4.661 6.476 5.036 6.878l3.316 3.562c0.49 0.528 2.761 0.715 3.316-0.737 0.082-0.214 0.318-0.097 0.491-0.246l18.914-16.212c4.277-3.666 5.743-19.873 8.229-20.511 8.604-2.207 5.591-2.057 8.106-8.597 0.318-0.83 0.369-7.149 0.369-7.738v-0.246c0-0.159-0.15-0.296-0.369-0.369-2.362-0.787-5.638-1.789-8.229-1.965-0.19-0.013-0.515-0.16-0.614-0.368-0.383-0.803-1.433-2.235-1.842-2.948-0.154-0.269-1.005-0.773-1.228-0.983l-10.931-10.317c-0.487-0.459-5.169-4.813-6.387-5.527-7.543-4.421-13.083-3.363-21.371-5.65-2.287-0.631 1.409-5.107 1.965-7.492l1.719-7.369c0.527-2.263 0.452-1.091 2.088-1.72 1.325-0.509 5.188-0.983 6.632-0.983 2.208 0 5.218-0.539 6.632-2.334 2.229-2.827 5.472-5.884 5.773-10.071l0.982-13.633 32.302 0.614c1.329 0.025 2.956-3.165 3.685-4.667 0.994-2.049 1.693-4.729 2.702-7.001 0.714-1.608 5.036-11.737 5.036-12.773v-0.246h0.246c2.047 0 10.152-8.105 12.528-8.966 7.997-2.896 12.557 0.993 16.09-8.843l6.264-17.441c2.608-7.264 25.997 6.457 27.266-8.966 0.765-9.301-6.027-10.286-9.457-18.178-4.318-9.934-2.007-18.924 4.176-27.758 4.848-6.927 9.212-12.042 9.212-21.617 0-8.337-2.371-15.747-4.053-23.09-0.054-0.238-0.163-0.236-0.368-0.368-0.43-0.278-5.653-2.63-5.896-2.702-0.734-0.218-1.596-0.682-2.333-0.86-0.203-0.049-0.503-0.234-0.737-0.369-0.175-0.101-0.394-0.208-0.614-0.368-0.201-0.146-1.274-0.707-1.474-0.86-0.194-0.147-0.291-0.137-0.368-0.368-0.803-2.384-3.354-5.613-4.299-8.352l-3.685-10.685-5.65-17.072c-0.52-1.57-4.806 2.696-5.527 4.422-0.136 0.326-0.311 0.064-0.491 0.368-0.447 0.752-1.811 2.482-1.842 3.439-0.447 13.362-10.942 10.195-18.792 7.983-5.824-1.641-14.757-7.264-21.616-10.071-16.76-6.859-38.125 0.072-51.462-13.265-4.306-4.306-1.448-5.915-0.982-12.036 0.728-9.575 0.808-8.143-3.193-16.949-1.62-3.567-6.798-8.867-4.79-11.914 1.323-2.008 3.998-0.03 6.509 0.614 1.498 0.384 4.879 2.579 5.65 2.579 2.659 0 3.01-7.152 4.176-9.212 0.79-1.397 4.801 1.5 6.632 1.842 2.162 0.404 4.254 0.391 6.387 0.246 0.152-0.01 2.721-1.082 2.579-1.228l-16.704-17.441 1.597-14.493-5.527-5.281 8.363-5.912h-247.94c0.269 0.379 0.407 0.62 0.329 0.622z" fill="#fff"/>
	<path d="m831.85 582.35l62.27 1.351 44.819-14.507h-116.46c2.475 5.608 4.257 13.045 9.373 13.156z" fill="#fff"/>
	<path d="m622.44 569.58c0.21 0.586 1.153 1.866 1.228 2.334 0.311 1.921 3.445-0.898 5.292-2.717h-6.663c0.054 0.141 0.104 0.275 0.143 0.383z" fill="#fff"/>
	<path d="m1316.4 571.55h0.246c0.221 0 0.282-0.352 0.491-0.614 0.145-0.18 0.046-0.129 0.246-0.246 0.391-0.228 0.754-0.998 1.183-1.49h-12.126c2.532 0.737 7.662 2.35 9.96 2.35z" fill="#fff"/>
	<path d="m638.4 572.16c1.246 1.892 6.151-0.827 8.106 0.983 1.285 1.189-0.982 4.721 0.614 6.264 1.649 1.596 9.442-1.285 11.545-2.334 2.989-1.49 6.643-6.081 9.334-6.387 1.051-0.12 2.414-0.673 3.911-1.488h-36.433c1.215 0.894 2.294 2.007 2.923 2.962z" fill="#fff"/>
	<path d="m362.67 1077.1c-0.458 0-1.101-0.588-1.474-0.737l-0.614-0.246c-1.592-0.637-18.081-4.488-16.826-1.228 0.55 1.429 3.154 5.115 4.79 6.018 1.891 1.044 4.317 1.857 5.895 3.071 2.745 2.112 6.944 4.299 10.563 4.299 3.314 0 14.215-0.704 11.422-4.79-0.758-1.11-2.053-1.67-3.562-2.088-3.392-0.941-9.948-0.489-9.948-4.053v-0.246h-0.246z" fill="#fff"/>
	<path d="m316.49 1060.7h-0.246c-0.214 0-0.055-0.15-0.246-0.369-0.151-0.174-0.352-0.063-0.491-0.246-0.219-0.286-1.11-0.263-1.228-0.614-1.368-4.055-26.644-10.399-28.126-15.475-0.069-0.24-0.316-0.174-0.491-0.369-0.147-0.163-0.975-0.659-1.105-0.737-0.294-0.175-0.773-0.086-0.983-0.368-0.347-0.469-3.389-1.464-3.93-1.842-2.241-1.567-5.125-2.843-7.492-4.422-1.196-0.798-5.798-4.59-6.264-5.158-0.649-0.792-1.884-2.5-2.456-3.193-0.416-0.504-2.523-2.6-2.948-3.071-0.357-0.396-1.255-0.896-1.474-1.351-0.775-1.614 0.176-3.386-1.351-4.913l-0.123-0.123c-9.805-9.805-26.441 12.663-39.426 14.002-1.46 0.15-8.779 0.592-9.334 1.597-0.116 0.211-0.339-0.031-0.491 0.123-0.178 0.179 0.08 0.095-0.123 0.246-0.299 0.223-0.829 0.7-1.105 0.983-0.287 0.294-2.241 3.359-2.334 3.562-0.163 0.358-0.253 0.648-0.368 0.86-0.112 0.207-0.024 0.186-0.123 0.369-0.141 0.261-0.662 1.577-0.737 1.719-0.112 0.214-3e-3 0.313-0.123 0.491-0.131 0.195-0.058 0.172-0.123 0.368-0.166 0.501-0.464 0.544-0.246 1.105 1.995 5.12-0.897 11.139 3.07 15.107l0.123 0.123c2.303 2.304 8.177-0.556 11.054-1.474 0.221-0.07 0.216-0.016 0.246-0.246 0.216-1.666-1.201-8.017 0.983-6.755 1.645 0.951 4.697-0.097 5.159-0.614 0.867-0.972 15.995-4.998 17.932-4.544 0.519 0.121 9.727 1.876 10.931 1.965 0.096 7e-3 1.184 1.328 1.228 1.474 0.13 0.426 0.357 0.729 0.614 1.105l4.544 6.632c0.158 0.232-8e-3 0.284 0.246 0.368 2.98 1 4.21 11.111 3.193 13.756-0.761 1.983-0.86 3.866-0.86 6.141 0 4.096 3.225 1.985 3.439 4.053 0.024 0.234 0.285 0.211 0.368 0.491 0.24 0.808 2.528 5.804 2.948 6.141 0.188 0.151-0.04 0.35 0.123 0.491 0.208 0.18 0.177 0.534 0.368 0.737 0.277 0.294 0.565 1.863 0.737 2.334 0.075 0.206 0.162 0.685 0.368 0.86 0.428 0.36 0.983 2.501 0.983 3.071v0.246c0 0.202 0.352 0.949 0.491 1.228 0.089 0.177-0.114 0.17 0.123 0.246 3.462 1.103 8.23 2.098 11.914 2.579 5.688 0.743 14.55 0.339 20.746 3.099h85.359c-1.347-0.171-3.604-0.274-4.163-0.274-2.301 0-4.62 0.013-6.878-0.123-3.751-0.226-8.978-2.125-12.651-2.948-6.988-1.565-20.708-13.084-24.564-18.423-1.252-1.734-7.409-6.082-7.861-7.001-0.125-0.254-1.133-1.005-1.351-1.105-0.586-0.272-1.072-0.652-1.351-1.105-0.423-0.689-4.959-5.362-5.773-5.773-0.239-0.12-0.45-0.403-0.614-0.614-0.248-0.317-0.252-0.603-0.491-0.86-0.241-0.259-0.206-0.159-0.491-0.369-0.17-0.125-0.136-0.236-0.246-0.368-0.134-0.162-0.275-0.367-0.368-0.491-0.137-0.184-0.083-0.33-0.246-0.491l-0.123-0.123-5.281-1.105-0.123-0.123c-0.164-0.163-0.08-0.085-0.246-0.246-0.181-0.176 0.13-0.246-0.122-0.246z" fill="#fff"/>
	<path d="m803.72 725.44c2.238 0.501 4.966 1.01 7.492 0.614 0.44-0.069 6.139-2.682 7.001-4.544 0.208-0.451 0.94-0.618 1.105-1.105 1.062-3.122 6.949-7.624 9.089-8.843 5.712-3.255 17.263-14.015 24.196-15.107 1.214-0.191 6.677 1.105 7.861 1.105 6.178 0 10.74-4.076 15.23-8.352l7.738-7.369c1.07-1.019 3.064-6.947 3.071-7.124 0.169-4.262 7.6-10.844 8.475-15.721 0.725-4.039 3.398-7.555 4.422-11.545 2.886-11.249 4.278-22.601-3.316-32.179-2.665-3.361-6.603-11.312-10.808-11.791-5.341-0.608-11.865 0.048-16.949-1.351l-37.952-10.44c-3.157-0.869-2.279-4.364-4.053-6.755-0.931-1.255-10.987 5.087-12.896 6.141-1.36 0.75-5.886 1.476-7.492 1.597-1.377 0.103-5.525 1.105-6.264 1.842l-23.723 23.655h-1e-3 -1.479c-0.866 0-11.585-2.028-11.585-0.247v1.479l-0.493 0.246v1.479c0 0.349-0.153 1.343-0.493 1.725-0.452 0.508-0.183 2.004-0.493 2.711-0.168 0.383 0.013 0.345-0.246 0.74-0.229 0.35 7e-3 0.341-0.246 0.74-0.214 0.338 0.047 0.089-0.246 0.493-0.298 0.409-0.146-0.122-0.493 0.247-0.336 0.357-0.369 0.42-0.74 0.739-0.324 0.28 0.089 0.74-0.493 0.74h-0.493c-0.728 0-1.337 1.583-1.725 1.972l-0.246 0.246h-0.493c-0.582 0-0.111 0.545-0.493 0.74-0.591 0.302-0.822 0.082-1.233 0.493l-0.246 0.246c-0.497 0.497 0.633 3.054 0.74 3.451 0.343 1.276 0.583 2.38 0.246 3.697-0.099 0.388 0.07 0.105-0.246 0.493-0.333 0.408-0.433 0.588-0.74 0.986-0.198 0.258-0.51 0.017-0.74 0.247s7e-3 0.535-0.247 0.74c-0.363 0.292-0.185 0.145-0.493 0.493-0.284 0.321-0.328 0.081-0.74 0.493l-0.246 0.246-0.246 0.246c-0.451 0.451-0.144 1.479-0.986 1.479h-0.493c-0.465 0-0.163 0.164-0.493 0.493-0.328 0.326-0.185 0.64-0.493 0.986-0.285 0.32-0.28 0.134-0.74 0.493-0.337 0.264-0.134 0.28-0.493 0.74-0.264 0.337-0.328 0.081-0.74 0.493l-0.247 0.247-0.246 0.246-0.493 0.493-0.247 0.246c-0.53 0.53-1.763 1.195-1.232 1.725l0.246 0.246h0.74l0.246 0.246 0.247 0.247 0.246 0.246c0.308 0.307 0.589 0.644 0.247 0.986l-0.247 0.246c-0.583 0.583-0.529 0.869-0.986 1.479-0.971 1.298-2.595-0.152-3.698-0.493-0.4-0.123-0.468 0.14-0.739-0.246-0.774-1.103-5.014 0.762-5.669 1.232-0.412 0.295 0.26 0.493-0.246 0.493h-0.74c-0.441 0-0.546 0.986-0.986 0.986h-0.493c-0.391 0-1.375 1.172-1.725 1.479-0.316 0.276-0.118 0.986-0.74 0.986h-0.493l-0.247 0.246c-0.567 0.567-0.583 0.663-0.986 1.232-0.248 0.35-0.479-0.028-0.74 0.493l-0.247 0.493c-2.555 5.112-2.212 11.138-6.692 15.619-1.332 1.332-2 2.456-4.176 2.456-2.19 0-2.955 2.401-4.544 3.193-2.645 1.319-5.547 2.596-8.966 1.72-1.526-0.391-5.665-2.631-6.755-2.088-2.944 1.468-6.305 4.849-9.212 6.632l-12.405 7.615-8.229 4.667c-2.18 1.236-6.134 0.931-6.632 3.071l-0.86 3.685c-0.052 0.224-0.209 0.368-0.368 0.368h-0.246c-0.158 0-5.028 2.629-5.159 2.948-0.722 1.756-4.775 4.79-6.51 4.79h-0.246c-0.398 0-0.208 0.415-0.491 0.614-0.516 0.362-0.968 1.679-1.228 2.088-0.307 0.484-0.443 1.094-0.123 1.597 0.272 0.427 3.84 2.722 4.422 3.193 1.687 1.366-2.062 13.783 0 15.844l0.123 0.123h0.246c0.491 0 0.886 0.464 1.105 0.86 0.079 0.141 0.296-0.021 0.369 0.123l0.123 0.246c0.22 0.44 0.982 0.615 0.982 1.105v0.123c0 0.097 0.113 0.149 0.123 0.246 0.012 0.113-0.085 0.291 0 0.368 0.153 0.14 0.123 0.135 0.123 0.368v1.228c0 0.234-5e-3 0.205 0.123 0.368 0.549 0.701 0.794 1.831 1.228 2.579 0.169 0.291 0.457-0.047 0.737 0.246 0.473 0.495 1.39-0.551 1.597-0.737 0.173-0.154 0.058-0.11 0.246-0.246 0.12-0.087 0.518-0.3 0.614-0.491l0.123-0.246h0.369l0.123-0.246c0.113-0.226 0.287-0.246 0.491-0.246h0.369l0.123-0.246h0.368c0.747 0 2.277-0.521 2.702-0.983 0.238-0.258 0.606 0.12 0.86-0.123 0.376-0.363 3.186-0.956 3.808-1.105 2.268-0.543 4.985-0.764 7.615-0.614 0.161 8e-3 0.423 0.124 0.614 0.246 0.163 0.103 0.334 0.491 0.614 0.491h0.246c0.252 0-0.103 0.134 0.123 0.246l0.246 0.123h0.246c0.244 0 0.191 0.202 0.368 0.368 0.184 0.173-0.116 0.165 0.123 0.246 0.6 0.202 1.105 0.499 1.597 0.737 0.279 0.135 0.16 0.491 0.369 0.491h0.246c0.219 0 0.436 0.301 0.614 0.123l0.123-0.123 0.123-0.123c0.179-0.179-0.129-0.224 0.123-0.246 2.748-0.232 13.66 2.074 15.721 3.685 1.774 1.386 4.554 1.985 6.51 3.071 0.752 0.418 2.549 1.7 3.193 2.211 0.562 0.446 1.553 0.767 2.211 1.105 0.289 0.149 0.599 0.737 0.983 0.737h0.246c0.347 0 0.092 0.614 0.491 0.614h0.246v0.246l0.246 0.123 0.123 0.123 0.123 0.123c0.153 0.152 0.038 0.266 0.123 0.491 0.038 0.103-0.158 1.639 0 1.965 0.095 0.197 0.491 0.273 0.491 0.491v0.369c0 0.215 0.294-0.015 0.491 0.123 0.19 0.133 1.039 0.123 1.351 0.123 0.634 0 0.917 0.17 1.474 0.369 0.237 0.085-0.079 0.095 0.123 0.246 0.193 0.144 0.324-0.014 0.491 0.123 0.133 0.108 0.214 0.102 0.369 0.246 0.156 0.145 0.026 0.18 0.246 0.369 0.281 0.242 0.6 0.561 0.982 0.614 2.528 0.355 4.483 2.724 5.896 4.053 1.276 1.201 3.057 3.106 3.685 5.036 0.087 0.269 0.409 0.174 0.614 0.369 0.186 0.176 0.354 0.274 0.491 0.491 0.302 0.478 0.855 1.351 1.351 1.351h0.246c0.232 0 0.111 0.057 0.246 0.246 0.237 0.333 0.869 0.692 1.105 0.983 0.334 0.411 1.322 1.096 1.72 1.474 0.431 0.41 1.219 0.795 1.597 1.228 0.475 0.545 1.655 1.621 2.088 2.211 0.257 0.35 0.479 0.265 0.737 0.614 0.43 0.583 1.497 1.565 2.088 2.211 0.512 0.558 1.273 1.089 1.842 1.474 0.293 0.198 0.584 0.338 0.737 0.614 0.429 0.773 2.145 1.485 2.579 2.456 0.097 0.217 0.901 0.734 1.105 0.983 0.147 0.179 0.082 0.082 0.246 0.246 0.164 0.163 0.021 0.306 0.246 0.246l43.356-11.668 8.475-28.003-0.86-8.106-3.193 0.246-1.351-6.878 9.58-10.563c0.368-0.417 2.859 0.853 3.43 0.981z" fill="#fff"/>
	<path d="m658.18 186.5c-1.136 0.185-1.956-0.023-2.948-0.246-0.254-0.057-0.411-0.042-0.614-0.246l-0.246-0.246c-0.327-0.328-0.839-0.179-1.351-0.246-0.074-9e-3 -3.415-0.856-3.807-1.105-0.334-0.213-1.208-0.583-1.597-0.368-0.256 0.141-0.119 0.443-0.246 0.737-0.135 0.315-0.062 0.201-0.246 0.491-0.119 0.188-0.173 0.156-0.368 0.368-0.145 0.158-0.406 0.592-0.491 0.737-0.161 0.273-1.09 2.079-1.105 2.211-0.12 0.998-0.328 2.416-1.105 3.193l-0.246 0.246c-0.327 0.327-0.267 0.523-0.369 0.983-0.253 1.141-1.21 2.352-0.246 3.316l0.123 0.123c0.663 0.662 1.348 0.631 2.456 0.491 0.184-0.023 0.871-0.32 1.105-0.491 0.24-0.174 0.706-0.86 1.105-0.86h0.369c0.614 0 0.713-0.86 1.228-0.86h0.369c0.309 0 0.44-0.108 0.614-0.368l0.246-0.368c0.158-0.237 0.226-0.148 0.491-0.246 0.87-0.319 1.932-0.826 2.825-0.983 0.214-0.037 0.051-0.152 0.246-0.246 0.227-0.109 0.934-0.491 1.105-0.491h0.369c0.125 0 0.565-0.36 0.86-0.491 0.258-0.115 0.492 0.019 0.737-0.123 0.184-0.107 0.031-0.174 0.246-0.368 0.251-0.228 0.368-0.434 0.491-0.737 0.06-0.149 0.113-0.429 0.246-0.614 0.133-0.184 0.288-0.156 0.369-0.368 0.176-0.467-0.027-0.933 0.246-1.351 0.238-0.366 0.049-1.288-0.123-1.474-0.172-0.185-0.016-0.117-0.738 0z" fill="#AE1C28"/>
	<path d="m568.9 286.64c0.396-0.141 0.3-0.546 0.74-0.986l0.247-0.246c0.329-0.33 0.163-0.164 0.493-0.493l0.246-0.247c0.327-0.327 0.6-0.238 0.986-0.493 0.208-0.136 0.664-0.584 0.74-0.986 0.08-0.428 3e-3 -0.571-0.247-0.986-0.537-0.891-1.725-1.229-1.725-2.218v-0.493l-0.493-0.246v-0.739c0-0.418-0.164-0.274-0.247-0.74-0.016-0.092-1.748-4.407-1.972-4.93-0.117-0.274-0.479-1.326-0.74-1.725-0.228-0.351 0.039-0.363-0.246-0.739-0.307-0.403-0.14 0.116-0.493-0.246-0.323-0.331-0.216-0.616-0.493-0.986-0.189-0.252-0.407-0.726-0.74-0.986-0.506-0.395-0.631-0.775-0.986-1.232-0.258-0.333-0.507-0.988-0.74-1.479-0.295-0.623-1.075-1.969-1.479-2.465-0.319-0.393-0.151 0.127-0.493-0.246-0.348-0.379-1.708-1.834-1.972-2.218-0.502-0.734-0.927-1.592-1.479-2.218-0.445-0.507-1.233-0.657-1.233-1.232v-0.493c0-0.507-0.493 0.261-0.493-0.247v-0.493c0-0.567-0.332-0.824-0.74-1.232l-0.246-0.246-0.247-0.247-0.246-0.246h-0.74c-0.418 0-0.408 0.09-0.739-0.246-0.534-0.54-1.677-0.479-2.958 0-0.394 0.146-0.567 0.493-0.986 0.493h-0.493c-0.3 0-0.935 0.676-1.232 0.986-0.319 0.334-0.171 0.654-0.493 0.986-0.349 0.36-1.138 1.47-1.479 1.972-0.194 0.286-0.151 0.488-0.493 0.739-0.573 0.422-0.986 0.028-0.986 0.739v0.493c0 0.465-0.164 0.163-0.493 0.493-0.33 0.329-0.169 0.158-0.493 0.493-0.352 0.363-0.141-0.117-0.493 0.246-0.324 0.335-0.164 0.164-0.493 0.493l-0.246 0.246c-0.347 0.346-0.354 0.437-0.74 0.74-0.256 0.201-7e-3 0.519-0.247 0.739-0.321 0.295-0.624 1.106-0.986 1.479-0.395 0.407-0.417 0.548-0.986 0.986-0.366 0.282-0.17 0.655-0.493 0.986-0.353 0.363-0.107-0.081-0.493 0.246-0.247 0.211 1e-3 0.529-0.247 0.74-0.386 0.328-0.374-0.246-0.493 0.246-0.429 1.78-2.053 3.713-2.465 5.669-0.098 0.467-0.953 1.083-1.232 1.725-0.256 0.588-0.074 1.069-0.493 1.479-0.503 0.492-0.688 1.656-1.233 2.218-0.366 0.379-0.433 0.588-0.74 0.986-0.198 0.257-0.535-7e-3 -0.74 0.246-0.292 0.363-0.163 0.163-0.493 0.493-0.329 0.329-0.158 0.169-0.493 0.493-0.363 0.352 0.117 0.141-0.246 0.493-0.335 0.324-0.158 0.169-0.493 0.493-0.351 0.341-0.25 0.74-0.739 0.74h-0.493c-0.661 0-0.562 0.971-0.986 1.479-0.314 0.376-0.389 0.397-0.74 0.74-0.733 0.715-2.074 2.918-2.711 3.697-0.508 0.622-1.89 4.02-2.218 4.93-0.141 0.393 0.059 0.38-0.246 0.739-0.384 0.451-0.986 1.014-0.986 1.725v0.493l-0.493 0.247c-0.389 0.194-0.026 0.554-0.246 0.986-0.324 0.637-0.541 1.416-0.986 1.972-0.513 0.64-1.972 2.437-1.972 3.451v0.493c0 0.4 0.078 0.113-0.246 0.493-0.408 0.478-0.835 1.629-1.232 2.218-0.434 0.645-1.479 2.399-1.479 3.204v0.493c0 0.376-1.029 1.48-1.232 2.218-0.379 1.375-3.521 8.768-3.944 9.613l-0.247 0.493c-0.189 0.379-0.493 0.394-0.493 0.739v0.74c0 0.4-0.986 0.644-0.986 1.232v0.74l-0.493 0.246c-0.532 0.265-0.74 1.797-0.74 2.218v0.74c0 2.229-2.571 20.321-2.218 23.417 0.044 0.386 1.207 5.065 1.479 5.423 0.191 0.25 0.441 0.688 0.74 0.986l0.246 0.246 0.247 0.246c0.327 0.326 0.646 0.18 0.986 0.493 0.336 0.309 0.283 0.74 0.74 0.74h0.493c0.401 0 0.069-0.017 0.493 0.246 0.351 0.218 1.015 0.219 1.479 0.493 0.36 0.213 0.448-0.125 0.74 0.246 0.68 0.868 4.944 0.826 5.916 0.493 0.396-0.136 0.405 0.088 0.74-0.247l0.246-0.246c1.146-1.146-0.523-2.927 0.493-3.944l0.246-0.246h0.493c0.813 0 1.923-0.535 2.465-0.246 0.37 0.197 2.721 0.823 3.204 1.232 0.601 0.508 6.507 0.249 7.395 0 0.289-0.08 1.232-0.556 1.232-0.986v-0.493c0-0.507 0.164 0.139 0.493-0.247 0.38-0.446 0.174-0.922 0.493-1.479 0.236-0.414 1.41-4.601 1.725-5.423 0.691-1.797 2.33-5.423 3.451-5.423h0.74c0.704 0 5.188-0.653 6.162-0.986 0.396-0.135 0.341 7e-3 0.74-0.247 0.338-0.214 0.107 0.071 0.493-0.246 0.412-0.339 0.761-0.718 0.986-1.232 0.203-0.464 0.493-0.575 0.493-0.986v-0.74c0-0.401-0.013-0.065 0.246-0.493 0.208-0.342 0.033-0.041 0.246-0.493 0.125-0.267 2.617-4.183 2.958-4.683 0.195-0.286 0.19-0.442 0.493-0.739 0.362-0.355 0.14 0.116 0.493-0.246 0.323-0.331 0.161-0.665 0.493-0.986 0.352-0.34 0.398-0.388 0.74-0.739 0.324-0.335 0.163-0.163 0.493-0.493 0.33-0.329 0.168-0.158 0.493-0.493 0.352-0.363 0.162 0.136 0.493-0.246 0.375-0.435 1.725-1.075 1.725-1.725v-0.493c0-0.429 0.374-0.04 0.74-0.493 0.524-0.65 0.9-1.543 1.479-2.218 0.501-0.586 0.51-2.533 0.986-3.204 0.293-0.413 0.151 0.127 0.493-0.246 0.348-0.38 0.629-0.612 0.986-0.986 0.385-0.403 1.086-1.083 1.479-1.479 0.397-0.4 1.115-0.83 1.479-1.232 0.43-0.476 0.277-0.052 0.74-0.493 0.502-0.479 0.627-0.873 1.232-1.479l0.246-0.246c0.358-0.358 0.439 0.258 0.493-0.247 0.461-4.229-1.723-28.443 1.479-29.582z" fill="#AE1C28"/>
	<path d="m581.54 222.98c12.052-18.062 56.006-17.02 56.006-37.338v-0.246c0-0.775 0.776-1.138 0.983-1.351 0.113-0.116-0.217-0.236-0.123-0.368 0.12-0.169-7e-3 -0.161 0-0.368 0.025-0.713 0.234-1.297-0.246-1.105l-0.614 0.246c-2.35 0.939-7.356-4.062-10.317-2.211-0.846 0.529-8.6 3.407-9.457 3.807l-9.457 4.422c-8.984 4.2-28.802 18.698-34.635 26.775-2.672 3.7-12.37 8.458-16.704 11.791-1.855 1.427-4.459 2.345-6.264 3.807-1.216 0.986 1.723 6.626 1.842 7.615 0.93 7.693 4.412-0.061 7.001-1.351 2.563-1.277 6.198-1.083 9.212-0.246 7.364 2.043 10.112-9.891 12.773-13.879z" fill="#AE1C28"/>
	<path d="m752.01 125.83c9.796 0 21.27-1.459 27.021-11.422 0.569-0.987 0.814-0.961 0.982-1.474 0.065-0.2 0.369-0.036 0.369-0.246v-0.368c0-0.118 1.14-1.719 1.351-1.719h0.246c0.155 0 0.413-0.174 0.491-0.368 0.454-1.125 5.978-2.211 7.246-2.211 2.984 0 7.126-2.073 5.527-5.65-0.268-0.598-0.813-1.462-1.228-1.719-0.944-0.585-2.124-1.159-3.316-1.474-1.738-0.459-2.643-1.258-4.544-0.983l-10.194 1.474c-6.166 0.891-22.538 8.303-29.109 10.931-8.617 3.447-18.106 4.305-26.529 7.369-15.046 5.474-33.207 4.477-47.532 11.422-4.363 2.115-10.9 11.095-12.651 15.23-0.342 0.81-4.912 5.175-5.159 6.018-0.084 0.287-0.844 1.814-0.491 1.965 3.885 1.66 12.862 8.326 17.195 5.773 3.762-2.217 6.225-5.488 9.212-8.475 1.856-1.856 8.923-3.585 9.089-3.685 0.206-0.125 0.373 0.057 0.491-0.123 0.241-0.364 0.388-0.831 0.86-1.105l1.474-0.86c13.169-7.682 23.991-3.487 35.986-11.791 9.932-6.875 11.463-6.509 23.213-6.509z" fill="#AE1C28"/>
	<path d="m1152 48.085c1.703-0.849 3.954-0.804 5.896-0.983 3.175-0.293 5.479 1.228 8.475 1.228 3.345 0-0.76-2.611-1.719-2.948-0.337-0.118-0.346-0.08-0.491-0.246-2.331-2.679-6.055-2.456-9.58-2.456-1.909 0-2.761 0.083-3.685 1.719-0.797 1.412-1.625 3.432-0.983 5.158 0.239 0.644 1.392-1.126 2.087-1.472z" fill="#AE1C28"/>
	<path d="m1112.6 42.312c0.221 0.575 0.246 2.537 0.246 3.193 0 1.117-0.24 3.562 0.86 3.562h0.491c1.729 0 1.237-3.086 2.088-4.422 0.263-0.413 0.641-1.248 0.737-1.719 0.144-0.701 0.558-1.31 0.86-1.842 0.12-0.213 0.431-0.86 0.737-0.86h0.246l0.123-0.123 0.123-0.123v-0.246c0-0.232 0.014-0.246 0.246-0.246h0.246c0.163 0 4e-3 -0.258 0.123-0.369 0.156-0.145 0.131-0.078 0.369-0.246 0.132-0.093 8e-3 -0.255 0.123-0.368 0.136-0.134 0.208-0.449 0.369-0.614 0.175-0.181 0.246 0.13 0.246-0.123v-0.368c0-0.199-0.024-0.045 0.123-0.246 0.148-0.203-7e-3 -0.123 0.246-0.123h0.368c0.463 0-0.738-0.534-1.105-0.737-0.141-0.078-0.133-0.368-0.369-0.368h-0.246c-0.108 0-0.258-0.026-0.421-0.061h-6.654c-1.781 0.828-1.022 4.243-0.175 6.449z" fill="#AE1C28"/>
	<path d="m1057.6 62.823c-5.528 0.85-12.017 2.323-17.318 2.456-0.142 3e-3 -0.472 0.109-0.614 0.246-0.152 0.145-0.04 0.328-0.246 0.368l-0.614 0.123c-5.225 1.044-11.594 1.842-17.686 1.842-8.74 0-21.579-1.259-24.564 9.334-1.647 5.849-0.639 13.941 1.228 18.914 0.253 0.676 1.2 0.416 1.965 0.246 0.194-0.043 0.038 0.014 0.246-0.123 0.185-0.122 0.239-0.393 0.491-0.614 0.313-0.274 5.179-6.776 6.387-7.861 3.624-3.253 15.524-3.316 20.634-3.316 12.911 0 19.025-9.201 30.46-12.528 2.655-0.773 4.977-1.958 7.492-2.825 5.869-2.025 17.945 0.051 13.633-8.597-1.791-3.589-16.551 1.575-21.494 2.335z" fill="#AE1C28"/>
	<path d="m621.33 567.49c0.285 0.053 0.698 1.014 0.963 1.705h6.663c0.743-0.731 1.283-1.305 1.34-1.336 1.394-0.787 3.431 0.045 5.184 1.336h36.433c4.994-2.722 11.545-8.505 13.53-12.022 2.462-4.362 3.167-10.79 4.422-15.598 0.248-0.95 6.809-1.144 8.106-1.72 2.862-1.271 5.813-5.472 8.106-7.001 1.887-1.258 4.317-2.193 0.983-5.527-1.31-1.31-4.053-3.341-4.053-5.65 0-7.652 2.222-8.718-3.685-14.002-0.241-0.216-0.702-0.41-0.86-0.737-0.593-1.229-5.385-1.597-6.632-1.597-3.55 0-3.831-0.435-7.001-1.842-1.703-0.756-14.549-2.601-15.475-0.491-0.094 0.215-0.161 0.123-0.369 0.123h-0.246c-0.159 0-0.207 0.092-0.246 0.246-0.133 0.525-1.741 4.007-1.842 4.176-0.129 0.213-0.019 0.077-0.123 0.246-0.127 0.206-0.068 0.283-0.123 0.491-0.181 0.677-0.182 0.998-0.491 1.351-0.159 0.182-0.276-0.113-0.491-0.123-4.117-0.201-8.121-0.561-11.791-0.86-0.324-0.026-0.246-0.593-0.614-0.983l-4.176-4.422c-0.507-0.536-2.553-2.608-3.071-3.071-0.625-0.558-6.001-5.942-5.895-7.615l2.825-44.216-21.002-42.25v-0.368c0-0.158-0.121-0.147-0.246-0.246-0.165-0.13-0.215-0.169-0.369-0.246-0.24-0.121-0.594-0.216-0.737-0.368-0.111-0.118-0.264 0-0.369-0.123-0.163-0.192 0.13-0.246-0.123-0.246h-0.246c-0.406 0-0.74-0.438-1.105-0.614-0.602-0.291-0.863-0.446-1.351-0.737-0.199-0.119-0.175-0.025-0.246-0.246-0.89-2.77 0.068-6.377-0.614-9.334-0.443-1.925-0.634-1.788-2.456-1.228-1.949 0.599-3.688 1.463-5.65 1.965-2.015 0.516-4.602 2.474-6.51 2.702-0.251 0.03 0.078 0.093-0.123 0.246-0.187 0.142-0.166 0.079-0.369 0.123-0.818 0.179-1.409-0.237-2.334 0.123-10.271 4.004-10.692 12.537-20.02 18.055-4.837 2.861-17.048 9.49-21.494 6.755-4.749-2.921-10.438-4.313-15.23-7.369-4.89-3.119-10.785-8.477-11.3-14.739-0.688-8.368 5.158-11.33 3.93-19.529-0.196-1.314-4.897-1.735-5.527-0.737-0.998 1.579 1.603 6.875-1.842 5.159-2.691-1.341 0.818-4.121-0.614-5.281-1.344-1.089-13.927 0.226-15.23 1.228-12.658 9.737-6.565 19.712-9.457 34.758-1.891 9.838-2.344 20.691-4.913 30.46-1.941 7.384-4.344 16.079-6.018 23.336-1.644 7.129-4.489 13.385-6.878 20.02-5.341 14.833-7.246 28.662-8.72 44.707-1.042 11.332-3.263 23.268-4.937 34.867h147.25c1.031-0.486 1.894-2.004 3.48-1.704z" fill="#AE1C28"/>
	<path d="m1098 54.963h-0.737l-0.246 0.246c-1.027 1.027-2.87 0.066-4.176 0.368-0.132 0.031-0.638 0.392-0.86 0.614-0.196 0.196-0.699 0.575-0.86 0.737-0.163 0.164-0.079 0.086-0.246 0.246-0.156 0.149-0.073 0.256-0.123 0.491-0.012 0.056-0.463 0.931-0.491 1.105-0.093 0.569-0.318 1.127-0.123 1.719 0.073 0.22 0.014 0.246 0.246 0.246h0.737c0.114 0 0.578-0.474 0.737-0.614 0.717-0.633 1.94-1.633 2.948-1.842 0.236-0.049 1.467-0.123 1.842-0.123 0.374 0 0.782-0.012 1.105-0.123 0.296-0.101 0.86-0.285 0.86-0.491v-0.368c0-0.295-0.246-1.337-0.246-1.597v-0.246c2e-3 -0.125-0.242-0.368-0.367-0.368z" fill="#AE1C28"/>
	<path d="m939.56 90.335l-0.123-0.123c-0.163-0.164-0.082-0.081-0.246-0.246l-0.123-0.123c-0.151-0.152-0.494-0.404-0.614-0.491-0.187-0.135-0.424-0.361-0.614-0.368l-21.862-0.86c-9.404-0.37-18.686 3.071-28.126 3.071-14.838 0-40.783 5.273-52.076-4.053-6.778-5.597-13.81 3.65-17.809 8.229-6.991 8.005 11.778 16.793 17.932 17.072 9.043 0.412 16.343-6.233 24.81-7.861 5.789-1.112 13.035 1.138 19.16 0.86 10.573-0.481 22.911-6.795 33.162-9.948 7.045-2.167 16.156-2.029 23.582-2.211 0.193-4e-3 3.562-0.305 3.562-0.737v-0.246l-0.246-0.491c-0.112-0.225-0.123-0.395-0.123-0.614v-0.368c0-0.152-0.105-0.35-0.246-0.492z" fill="#AE1C28"/>
	<path d="m694.53 210.45c-1.523 0-3.047-0.857-4.422-1.351-0.783-0.281-1.85-0.286-1.965 0.737-0.128 1.134-0.321 2.822-0.86 3.685-0.466 0.746-1.02 2.867-0.614 3.685 0.202 0.406 1.122 0.042 1.597 0 1.399-0.125 2.398-0.983 3.807-0.983 1.969 0 3.514 0.047 4.79-1.228 0.307-0.307 0.781-1.022 0.86-1.719 0.097-0.861-0.03-1.328-0.737-2.211-0.533-0.667-1.649-0.615-2.456-0.615z" fill="#AE1C28"/>
	<path d="m963.39 81.86c-0.605 0.491-3.128 2.395-3.439 2.948-0.113 0.202-0.064 0.102-0.246 0.246-0.323 0.256-0.891 0.765-1.228 1.228-0.462 0.634-0.491 1.255-0.491 2.211 0 1.979 2.686 0.205 3.193-0.246 1.703-1.514 3.227-2.896 5.65-1.965 0.973 0.374 6.053 0.331 6.509-0.614 0.13-0.27 0.354-0.44 0.246-0.737-0.063-0.173-1.487-1.835-1.72-2.088-0.24-0.26-0.23-0.131-0.491-0.368-0.224-0.202-0.211-0.501-0.368-0.737-0.088-0.131-0.119-0.151-0.246-0.246-0.185-0.139-0.082-0.082-0.246-0.246-0.163-0.164-0.069-0.097-0.246-0.246-0.237-0.199-0.697-0.1-0.983-0.246-0.185-0.094-0.172 6e-3 -0.368-0.123-0.174-0.114-0.923-0.162-1.351-0.246-1.175-0.23-3.249 0.723-4.175 1.475z" fill="#AE1C28"/>
	<path d="m1364.6 279c5.418-2.441 2.805-20.072 5.669-24.649 5.306-8.48 6.697-9.904 5.662-23.59l-0.875-11.576v-2e-3c-1.013 0.871-2.099 1.792-3.249 2.812-5.849 5.191-19.436-5.633-27.389-7.615-10.97-2.734-16.031-4.549-15.107-16.704 0.426-5.612 3.586-9.906 4.544-13.633 0.12-0.468 1.355-1.716 0.982-2.088l-0.123-0.123c-0.689-0.689-2.305 0.135-3.193 0.491-0.408 0.164-0.261 0.545-0.737 0.614-3.037 0.445-22.558 3.458-24.81-2.211-0.373-0.938-0.444-3.174-0.86-3.316l-14.247-4.913c-4.985-1.718-9.021-4.359-13.51-7.246-2.264-1.456-3.922-3.696-6.018-5.281l-5.036-3.807c-0.83-0.627-1.853-14.041-2.211-16.335l-2.088-13.388v-0.246c0-1.139-2.595-2.051-3.93-2.579-0.219-0.086-0.484-0.39-0.491-0.614-0.215-5.989-0.678-10.981 1.72-16.826 0.218-0.532 2-3.418 1.105-4.053-0.321-0.227-0.042-0.625-0.368-0.737-3.13-1.076-12.767-11.269-14.125-8.475-2.225 4.579-2.135 9.502-5.158 6.387-3.176-3.273 0.466-2.15 0.983-5.527 0.087-0.573 1.071-1.473 0.614-1.842-0.838-0.678-3.206-1.114-4.176-1.597-0.526-0.262-3.072-1.228-3.439-1.228h-0.246c-1.685 0-2.237 3.679-4.053 3.439-0.264-0.035-0.686-0.349-0.983-0.368-4.034-0.275-6.643-2.722-11.914-3.071-7.129-0.471-24.337 0.23-31.197 1.842-12.15 2.858-21.169 12.295-33.162 15.721-18.81 5.375-40.032 1.267-58.094 6.264-8.839 2.445-15.858 5.186-24.073 9.089-4.916 2.335-9.514 8.509-14.493 4.913-9.489-6.853-12.389-11.004-24.564-7.246-6.485 2.001-9.684-2.671-15.844-1.105-1.565 0.397 6.886 4.736 8.475 5.527 1.57 0.783 9.373 7.507 6.264 7.861-1.807 0.205-6.082-1.425-6.264-1.842-0.68-1.555-4.981-7.063-6.878-5.895-3.289 2.024-4.064 6.477 0.123 7.983 2.274 0.818 4.648 2.539 0.491 1.474-4.857-1.246-0.86 2.659-0.86 4.79 0 1.344-1.835 2.539-1.228 4.299 0.518 1.504 2.275 3.139 3.562 3.93 2.345 1.443 9.094 1.592 11.668 0.737 1.308-0.435 8.278-5.041 5.158-1.105-1.37 1.728-2.514 1.545-3.807 2.579-1.088 0.87 2.586 1.719 3.193 1.719 1.231 0 3.38-0.172 4.544 0 0.85 0.125-2.792 3.218-3.562 3.562-1.366 0.611-3.227 0.676-3.93 2.088-1.36 2.728-0.74 0.978-2.948-0.123-0.852-0.424-1.561 0.613-1.72 0.491-1.128-0.87-0.907-3.022-3.193-3.316-2.416-0.311-3.534 4.422-4.176 4.422-0.179 0-1.07-2.6-1.351-2.948-0.5-0.617-1.808-1.297-2.579-1.474-9.935-2.292 3.033 10.061-0.369 10.317-3.457 0.26-6.509-3.501-6.509-8.72 0-3.481-1.105-7.284-1.105-10.931 0-7.052-6.031-20.83 3.316-24.196 4.161-1.498 4.203-1.78 0-1.351-3.462 0.353-7.354 3.732-11.054 3.93-21.377 1.149-39.758 1.462-60.673 7.246-18.17 5.025-42.127 11.155-58.954 18.914-6.263 2.888-21.305 10.372-27.88 13.51l-21.616 10.317c-18.367 8.766-28.691 14.831-42.005 30.705-2.941 3.507-14.985 16.511-19.16 17.809-0.978 0.303-2.494 2.18-2.702 2.334-0.281 0.207-0.402 0.034-0.614 0.246l-0.123 0.123c-0.286 0.285-1.463 1.586-1.474 1.597-3.524 3.524-7.226 8.156-10.071 12.282-2.9 4.206-3.996 9.309-6.51 13.756-1.597 2.826-4.667 2.047-4.667 5.036 0 4.011-0.408 7.86-0.123 11.914 0.495 7.026 1.734 11.776-0.123 18.792-0.596 2.252-2.551 4.913-3.071 6.387-0.06 0.17-1.044 0.6-1.105 0.614-0.217 0.053-0.761 0.626-0.983 0.737-0.751 0.379-1.474 0.788-2.211 1.228-0.303 0.181-1.215 1.82-1.228 1.842-2.648 4.417-0.153 13.357 1.597 16.458 1.559 2.764 5.749 15.299 0.491 6.755-1.441-2.343-4.879-7.475-7.001-5.158-2.867 3.131 2.334 7.89 2.334 11.791 0 8.142 4.646 5.355 6.632 11.791 1.526 4.948 0.712 5.785 4.79 9.089 2.797 2.267-2.334 11.451-2.334 14.984 0 6.725 6.239 12.533 3.439 18.055-1.154 2.278 2.801 7.19-3.439 10.931-3.741 2.244 0.807 9.035 1.72 13.142 1.617 7.275 0.606 6.623-4.913 10.071-6.829 4.267-18.309 7.317-8.843 15.721l13.142 11.668c9.765 8.67 8.481 2.088 19.406 2.088 9.851 0 19.585 6.851 29.231 10.194 2.379 0.824 9.894 2.911 12.036-0.491 0.967-1.537 2.418-6.022 3.193-7.492 0.143-0.273 0.263 0.023 0.614-0.123 0.179-0.074 2.642-1.387 3.439-1.719 1.349-0.564 7.944 0.569 8.352 0.368 1.472-0.724 2.706-3.229 3.562-3.685 0.235-0.125 0.14-0.108 0.246-0.368 0.597-1.465 5.284-0.769 5.772-0.123 0.198 0.261 0.423 0.365 0.737 0.491 1.846 0.742 0.042 7.042 1.351 8.352l0.123 0.123c1.3 1.301 3.793 0.615 5.158-0.246 1.145-0.722 1.732-1.597 3.071-1.597 0.466 0 2.596 1.026 2.948 0.614 0.174-0.204 0.551 0.162 0.737 0.246 0.333 0.151 0.406 0.091 0.737 0.246 0.193 0.09 0.065 0.141 0.246 0.368 0.123 0.155 0.484 0.186 0.614 0.246 0.225 0.104 0.051 0.086 0.246 0.123 0.927 0.174 0.839 0.685 1.351 0.983 0.199 0.115 0.083 0.329 0.246 0.491 0.164 0.163 0.078 0.086 0.246 0.246 0.18 0.173 0.291 0.202 0.491 0.368 0.272 0.226 0.319 0.059 0.491 0.369 0.482 0.866 5.985 2.348 3.562 2.579l-16.704 1.597-23.336 36.474c-0.321 0.502-1.105 1.098-1.105 1.597l-0.123 60.551h-0.246c-2.368 0 3.209 2.96 5.281 4.79 2.304 2.035 3.636 2.776 5.404 5.65 0.517 0.841 0.987 1.796 1.435 2.81h116.46l1.853-0.6 6.51-10.808c0.063-0.104 5.734 0.954 7.124 3.562 0.394 0.741 4.786 6.02 6.058 7.846h247.95l5.884-4.159c2.741-1.937 12.602-5.394 16.09-4.053 6.771 2.604 7.755 1.597 14.493 1.597 5.059 0 4.875 0.131 9.703-1.105 0.878-0.225 4.594 0.246 5.404 0.246h0.368c2.666 0 6.893 0.317 8.229 0.86 0.312 0.126 0.244 0.172 0.491 0.368 0.206 0.164 1.136 0.808 1.228 1.105 1.366 4.397 12.534-0.123 15.721-0.123 6.881 0 12.693 3.938 19.037 4.913 0.22 0.034 0.701 0.166 1.339 0.352h12.126c0.131-0.15 0.268-0.278 0.414-0.352 0.188-0.096 0.185-0.208 0.246-0.368 0.39-1.02 1.068 1.199 1.238-1.576l5.517-89.311c0.125-2.04 0.916-6.259 1.719-8.352 0.934-2.429 1.99-5.171 2.702-7.738 0.364-1.313 3.603-13.316 1.842-14.124-0.213-0.098-0.029-0.184-0.123-0.368-0.146-0.286 0.314-0.679 0.491-0.86 0.161-0.165 0.47-0.591 0.614-0.737 0.148-0.15 0.15-0.226 0.246-0.369 0.17-0.252 1.041-1.345 1.105-1.597 0.647-2.512 7.478-11.675 9.212-14.493 2.399-3.899 6.604-10.296 8.106-14.984 0.238-0.745 2.207-3.608 2.579-4.422 0.137-0.3 0.71-0.71 0.983-0.983l0.123-0.123c0.23-0.23 0.408-0.234 0.491-0.491 0.432-1.33 1.482-3.626 2.844-3.979 7.161-1.853 15.775-44.759 15.775-51.516 0-17.106-2.711-34.68-2.711-52.502 0-5.784-1.826-10.353-4.683-10.353h-0.493v-0.493c0-1.434-2.465-1.282-2.465-2.218v-0.74c0-1.561-3.191-4.533-0.493-5.423 0.892-0.293-0.318-1.248 0.741-1.725z" fill="#AE1C28"/>
</svg>