<?xml version='1.0' encoding='utf-8'?>
<svg xmlns="http://www.w3.org/2000/svg" enable-background="new 0 0 2092.635 1700.523" version="1.1" viewBox="0 0 2092.635 1700.523">
	<polygon points="530.39 50.261 528.6 50.707 531.41 50.707" fill="none"/>
	<path d="m2022.5 337.38c-1.696-1.841-1.583-4.816-3.553-6.785-0.275-0.275-5.233-1.25-6.113-1.572-2.646-0.969 1.644-3.189 0.165-5.212-0.932-1.273-7.934-3.932-7.6-5.461 0.275-1.261 2.371-6.382-0.496-5.626-4.005 1.057-3.73-3.558-7.187-3.558-1.112 0-3.195 1.465-3.8 0.248-1.403-2.827-1.693-3.709-5.37-2.482-3.125 0.291-6.33 1.466-9.335 0.165-4.403-1.908-3.217-1.778-7.27 0.166-2.796 1.34-2.962-0.833-4.792-1.986-2.255-1.422-7.49 0.734-10.492-0.414-1.935-0.739-5.616-3.316-5.699-5.626-0.057-1.578 1.755-3.762 1.322-4.634-1.064-2.135-6.012-4.982-2.148-7.199 3.562-2.045 3.553-2.35 3.553-6.95l-0.331-10.508-19.11-83.938-73.667-104.8-36.775-1.323c-4.043 0.607-8.189 0.726-12.128 1.82-4.025 1.118-5.223 5.835-8.426 8.522-2.217 1.859-7.885 3.603-4.379 6.289 3.082 2.361 1.077 3.939-2.147 3.475-3.162-0.455 1.508 3.011-2.149 5.13-1.45 0.84-1.037 2.202-1.569 3.641-2.792 7.532-6.569-1.708-10.327 2.235-2.802 2.939-2.644 0.372-2.644-1.986 0-6.225-13.965 10.17-11.565 0.331 1.369-5.611-3.819 2.537-5.783-0.083-0.444-0.592-3.362 1.897-3.801 2.483-1.283 1.71-3.265 1.316-5.039 1.241-0.491-0.021-0.976-0.306-1.405-0.331-0.933-0.054-1.756 2e-3 -2.561 0.497-1.979 1.219-4.974 5.357-7.27 5.461-3.024 0.137-2.263-3.272-5.536-2.317-2.906 0.848-4.006 10.878-6.691 9.02-3.096-2.141-2.247 3.75-2.974 5.129-1.204 2.283-2.272 0.725-3.553 1.738-1.097 0.868-0.556 3.72-2.065 3.805-1.718 0.097-3.499-2.008-4.213 1.821-0.518 2.776-3.362 6.451-5.535 8.275-2.779 2.331-5.096-2.043-7.187 3.227-2.332 5.876-2.333 4.912-6.362 1.158-1.394-1.299-4.149 2.75-5.452 2.896-2.584 0.292-4.099-1.198-4.874 2.068-1.026 4.322-1.175 0.153-3.553 2.317-0.573 0.521 2.666 3.272 1.24 4.054-1.019 0.559-5.296 0.195-3.553 2.813 2.735 4.11 5.573 6.916-1.735 10.343-3.606 1.691-5.9-1.508-6.857 4.054-0.672 3.906 0.917 8.673-3.882 10.591-4.365 1.744-9.481-3.389-13.879-3.889-3.125-0.355-6.563 1.881-9.336 0.496-5.425-2.712-4.953 1.37-9.665-0.744-2.769-1.242-0.322-6.144-4.626-4.882-5.679 1.666-3.983-3.279-6.691-3.145-1.827 0.091-2.734 3.058-3.8 4.303-0.197 0.23-0.43 0.445-0.656 0.617l-13.886-1.362-16.687-11.75-18.01-10.591-31.558-7.612-17.183-7.281-13.052-3.641-67.742-2.813-69.063 2.562v1052.7c0.871 0.295 1.562 0.948 1.901 2.312 0.879 3.533 2.758 3.315 5.204 5.626 2.462 2.328 5.851 7.707 9.088 6.206 3.404-1.578 8.896 2.604 11.896 3.972l-3.8 15.473c3.305 5.892 9.995 6.909 11.979 11.418 0.984 2.239 3.058-0.452 3.222 2.069 0.301 4.59-0.505 6.825 2.891 9.929 8.468 7.741 15.599-5.582 24.205 0.083 4.286 2.82 2.892 13.546 2.892 18.617 0 2.048-0.426 13.832 3.634 12.163 1.572-0.646 1.948-2.13 3.553-0.827 4.163 3.378 0.124 2.568 6.609 2.813 5.979 0.226 1.885-6.784 8.261-4.716 2.954 0.957 1.796 3.451 5.618 1.158 1.951-1.171 7.257-2.89 7.93 0.828 0.664 1.934 4.542 4.174 6.609 3.393 0.956-0.362 1.018-3.298 3.965-4.137 3.221-0.915 7.385 0.881 8.344-2.979 0.866-3.488 0.672-4.599-0.496-7.613-0.323-0.834 4.968-1.255 6.113-2.565 1.15-1.317 3.749 1.237 5.288 1.324 4.245 0.241 4.753-6.037 6.444-7.612 3.042-2.836 3.882-2.376 3.882-6.537 0-2.76-1.109-4.321 1.652-5.544 4.583-2.029 4.151-3.73 1.817-7.116-2.777-4.03 3.553-4.034 3.553-7.364-4.867-1.229-1.421-2.389-2.809-5.875-4.607-1.654-4.239-6.42-1.24-9.598 1.555-1.646 6.692-1.669 6.692-3.641 0-1.642-0.72-2.695 0.661-3.971 2.598-2.399 1.386-1.03 1.239-4.8-0.115-2.938 2.607-2.218 4.544-2.151 0.702 0.024 8.15-5.948 8.674-6.702 3.994-5.748 9.426 1.749 13.136-6.206 1.356-2.908 3.518-3.719 6.03-1.489 2.216 1.965 1.409-1.903 3.387-1.903 0.83 2.455 3.601 0.885 4.379-0.828 3.005-4.586-1.074-9.317-1.074-13.735 0-2.472-0.909-4.262-0.909-6.537 0-1.644 3.635-3.548 3.635-6.206-1.943-0.48-5.77 0.552-4.874-3.227 0.414-1.75 2.054-1.766 2.891-2.979 0.746-1.079 0.472-2.404 0.827-3.557 0.647-2.104 3.119-1.4 2.147-3.972-1.215-3.22 0.871-5.737 3.635-7.033 4.237-1.986 1.662-4.643 3.057-7.198 1.281-3.254-2.151-4.865-1.405-7.778 0.452-1.767 2.919-3.663 4.792-3.557 2.949 0.167 2.103-0.042 3.883-1.821 1.97-1.97 7.192-0.245 8.427-4.22 0.57-1.835-2.479-2.38-2.479-3.971 0-1.078 2.617-2.797 1.57-3.972-1.573-1.766-1.458-4.138-0.909-6.371 0.894-3.636-1.899-4.777-1.899-8.357 1.051-2.897 3.076-1.993 3.882-3.889 1.715-4.035 3.536-5.894 5.865-9.267 1.772-2.567 1.439-6.79 3.801-9.846l11.318-14.646c1.708-2.21 2.451-5.441 4.379-7.198 0.901-0.82 3.213-1.596 3.634-2.648 0.517-1.288 0.341-2.566 1.24-3.723l-1.9-23.665 9.746-9.763-0.991-37.069 3.307-8.357c3.487 0.27 4.676 1.939 7.6 3.227 3.563 1.569 5.161-6.512 9.583-7.943 3.997-1.295 17.095-9.524 14.375-14.976-0.348-0.696-6.169-10.406-2.726-9.349 5.77 1.77 5.6-3.414 10.905-3.144 4.779 0.244 6.959 7.447 13.3 7.447 3.129 0 2.313-2.448 2.313-4.386 0-3.911 5.047-3.729 8.013-4.964 13.154 3.652 5.454-23.45 17.597-17.707 0.816 0.387 3.77 3.188 4.378 2.648 1.557-1.379-0.385-6.261 2.643-8.854 5.124-4.39-1.232-6.601-1.651-10.012 1.776-2.414 4.489-5.899 3.386-9.019-1.387-3.927 1.628-10.488 4.379-13.239 4.715-4.714 8.059-13.343 9.418-19.775 0.814-3.851-1.983-3.885-1.983-6.703 0-3.053 1.329-7.597 2.892-10.094 0.108-3.855 1.882-6.531 1.569-10.674-0.254-3.359 5.139-11.252-1.322-11.252-2.824 0-8.756-1.221-8.756-4.882l0.082-0.082c5.247 0 4.284-5.958 9.749-5.958 5.203 0 4.426-2.881 7.352-6.123 2.757-3.053 9.49-9.366 13.3-10.756 5.989-2.186 13.384-1.859 19.414-4.882 2.518-1.34 3.551-2.792 6.609-3.227 9.196-1.307 3.008-16.746 7.352-21.348 1.206-1.277 3.095-2.024 2.974-4.054-0.073-1.21-0.991-2.082-0.991-3.558 0-5.974 3.926-9.202 6.361-14.066 2.553-4.155-3.198-5.851-5.948-7.447-3.525-2.047-1.237-3.262-1.899-7.116-1.101-6.394 10.719-4.782 6.196-12.66-1.822-3.174-4.957-1.661-4.957-6.95 0-4.723 3.594-2.511 6.113-4.386 3.219-2.397 0.518-8.685 6.527-11.087 3.543-1.415 7.25 0.716 11.07-0.249 0.2-0.81-0.082-1.888-0.082-2.73 2.59-1.295 4.387 2.225 5.7 1.572 1.982-0.986-0.03-3.672-0.991-4.634-2.227-2.226 5.952-1.674 6.609-3.805 1.8-5.846 2.268-1.487 5.865-5.627 0.295-4.849-2.159-4.699 1.488-8.357 3.369-3.378 4.069-12.251 4.956-16.88 0.237-1.239-2.109-8.412-2.478-10.343-0.484-2.524-1.084-4.848 0.579-7.116 1.746-2.379 1.569-1.805 1.569-4.634 0-5.332 4.235-2.811 7.601-3.723 4.446-1.203-2.479-4.36-2.479-6.289 0.919-3.225-2.43-9.97 0.579-11.832 2.728-1.688 0.092-4.29 2.231-6.702 1.94-2.187-1.644-3.442 1.156-5.958 1.633-1.465 4.337-0.98 4.874-3.144 0.538-2.165-1.113-3.068 1.074-4.551 1.414-0.958 5.242-4.904 2.479-6.371-1.918-1.019-0.103-4.372 1.156-5.212 1.129-0.754 3.742 0.743 3.883-1.407 0.22-3.365 0.185-4.843 4.047-4.137 2.943 0.539 2.988-5.916 3.387-7.53-0.084-3.091-2.552-8.522-1.239-11.5 0.464-1.053 1.864-1.579 2.396-2.648 1.216-2.443-0.623-5.378 3.718-5.378 2.194 0 4.725 1.616 6.691 0.331 2.069-1.351 3.202-8.448 5.288-11.088 1.84-2.331 4.955-0.884 5.7-4.054 1.029-4.385 3.469-3.993 3.469-8.853 0-1.83 3.09-1.365 4.295-2.235 1.207-0.872 0.93-4.352 2.644-5.874 3.648-3.76 6.557-19.08 11.979-18.866 6.313 0.248 7.852 7.685 15.779 6.619 8.801-1.182 11.842 10.565 21.892 0 4.035-4.243 6.387-6.058 11.896-8.274 5.77-2.321 9.292-6.533 14.375-9.93 3.565-1.946 6.589-7.529 10.988-7.529 6.364 0 8.771-7.701 15.943-9.515 9.624-2.433 18.622-13.94 16.11-23.747-1.077-4.206-4.999-6.545-5.865-10.26-1.431-6.131-9.438 0.611-10.079-7.199 2.012-0.882 8.297-6.141 9.252-8.191 0.999-2.14 1.844-11.988 1.074-13.984-1.68-4.359 5.997-6.201 5.452-9.515-0.171-1.042-1.62-1.388-1.899-2.235-0.387-1.167 2.643-2.767 2.643-5.13 0-4.231-2.23-6.097-3.469-9.681-2.189-6.331 0.722-4.237 3.8-8.357-1.722-2.304-4.028-2.418-0.743-5.709 0.704-1.95 0.496-2.802 0.496-4.716 0-2.445 3.221-2.611 3.221-5.13 0-1.949-1.289-4.068-1.735-5.874-1.824-3e-3 -4.34 4.109-6.528 1.735z" fill="#008751"/>
	<path d="m679.42 97.424l-27.261-12.08-20.984 5.295-11.07-6.288-42.628-14.066-19.828-8.274-5.452-0.331-2.148-2.813-18.643-8.159h-2.809l-28.115 7-0.827 6.951-10.241 10.921-36.018-1.986-9.583 3.309-17.184-1.324-5.122-7.777-65.924 17.706-38.662 34.091-16.16 1.046 0.162 52.836-6.262 30.32-10.876 15.16-14.831 23.399-46.799 38.23 0.659 43.503-2.715 8.319-0.826 14.563 7.6 25.485-9.749 10.094 0.33 13.073 8.591 5.13 1.157 8.936-11.985 9.35-9.329 18.12-9.417 49.481 10.739 10.756 25.94 16.714 0.496 16.052c1.398 1.217 4.276 1.843 5.198 3.31 2.045 3.253 2.189 7.428 2.809 11.17 0.869 5.245-3.29 10.144-4.213 15.224-1.091 6.003 2.321 10.747 4.13 16.218 1.436 2.298 2.021 4.725 4.461 6.288 2.944 1.884 5.503 1.255 6.279 5.544 1.357 7.493 1.545 13.48-1.322 20.355-2.234 5.359-3.8 10.383-3.8 16.218 0 2.681-0.563 7.066-1.818 9.35-1.172 2.137-13.38-5.856-15.283-7.033-5.135-3.178-10.315 4.332-12.061 8.275 0.961 6.11-10.008 18.967-7.353 23.25 1.986 3.202 1.229 8.355 4.544 10.012 3.254 1.627 7.415 3.696 10.822 4.552 0.371 1.503 0.019 10.997-1.075 11.666-4.61 2.819-9.026 3.587-9.748 10.178-0.404 4.421 0.532 10.54-1.24 14.563-1.052 2.388-5.865 2.537-5.865 5.378 0 2.032 0.053 5.768-1.983 6.785-1.268 0.634-3.452 3.003-4.379 4.137-0.904 1.106-7.007-0.496-8.674-0.496-4.401 0-9.032 2.078-13.218 3.309-7.448 4.193-14.975 11.464-8.261 20.52 5.834 7.866-8.539 9.829-13.631 11.088 0 8.514-2.25 11.936-7.849 18.865-5.059 6.263-11.303 6.397-12.309 15.39-0.752 4.866 1.512 13.011 2.892 17.789 1.343 4.654 1.492 8.856-1.157 13.073-2.093 3.332-3.377 4.476-4.048 8.606-0.777 4.784-4.606 7.644-4.874 12.659-0.324 6.05-1.416 5.641-6.857 8.026-1.893 1.011-4.567 1.053-6.692 1.573-4.144 1.012-8.25 2.425-12.474 3.309-6.019 1.26-11.485-0.414-17.514-0.414l-6.351 0.201c0.148 0.528 0.258 1.029 0.404 1.62 0.277 1.116 0.017 2.703-0.166 3.805-0.467 2.806-0.143 5.598-1.983 7.944-1.296 1.652 0.867 2.478 0.909 4.385 0.028 1.297-0.059 3.668-0.909 4.716-0.815 1.006-2.893 1.16-2.809 2.648 0.122 2.178 2.891 3.012 0.248 5.212-1.896 1.578-0.249 1.625 0.331 3.061 0.402 0.997-0.542 3.759-0.331 5.296 0.599 4.336 0.305 2.83-3.057 4.468-4.351 2.12-0.732 7.07 0.331 9.681 0.62 1.526-0.533 3.356 0.495 4.964 1.412 2.207-1.031 1.546-1.9 3.806-0.417 1.087 2.574 2.478 0.908 3.31-2.182 1.09-0.945 1.977 0.579 2.813 1.322 0.726 0.864 1.178 0.909 2.647 0.18 5.78 2.291 11.025 1.983 16.466-0.177 3.135-1.258 11.103-3.057 13.653-2.116 3-8.332 2.988-5.7 8.275 2.401 4.824-3.598 7.413-2.313 12.576 0.493 1.981 1.693 6.725 1.824 8.44 0.109 1.415 4.236 8.174 5.618 8.771 0.688 0.297 1.611 1.476 1.817 2.482 0.292 1.421 0.166 2.361 0.166 3.806 0 2.509-0.478 4.176-1.322 6.289-0.141 0.354-0.703 0.137-0.827 0.496-1.161 3.349-2.474 4.972-0.826 9.267 0.642 1.675-1.115 8.191-1.817 9.598-3.273 6.561-3.409 14.689-7.435 21.348-0.444 0.734-0.741 1.431-0.956 2.098l9.54 16.685c0.167 5.942-0.38 10.891-1.487 16.714-0.665 3.507-1.422 9.495-0.579 12.907 2.771 0.7 2.065 6.418 2.065 9.102 1.349 1.601 2.694 4.435 4.957 4.799 1.586 0.254 3.341 0.548 4.709 0.993 0 2.135 0.132 4.414 0.413 6.536 0.359 2.704 0.275 5.809 0.908 8.358l-8.674 1.324 0.413 26.726c3.105 3.673 4.048 13.039 4.048 17.79 0 5.512-3.514 3.755-5.122 7.943-0.304 0.794 1.844 7.01 2.231 8.275 1.56 5.103-3.615 3.917-4.792 9.515-0.892 4.246-4.152 9.703 1.983 11.253 0.969 4.804 0.168 9.939 0.168 14.976-0.524 2.561-0.643 6.533 0.41 9.185 1.559 3.925 3.206 2.895 6.857 2.895 0.735 2.99-0.385 5.318 0.166 8.357 1.086 5.993-8.344 7.811-8.344 14.48 0 3.235 1.735 6.567 1.735 10.26 0 4.291-4.573 4.698-5.452 7.943 0.851 2.104 2.94 3.068 1.652 5.378-1.32 2.371-2.56 4.066-2.56 6.867 0 3.516 1.307 10.14 1.517 13.55h1e-3c5.505-0.395 10.93-1.087 16.079-2.297 17.688-4.552 33.938-1.588 52.046-2.979l25.858-1.985c3.37-0.259 15.495 0.778 17.761-0.579 0.621-2.457-0.978-5.495 0.248-8.853 1.566-4.293 3.752-6.063 2.561-11.088-1.452-6.13 4.883-3.9 6.113-8.771 0.973-0.486 5.151-4.33 6.278-3.475 0 6.427-6.312 8.528 3.387 12.411 4.318-1.147 6.065-1.466 10.409-3.641 2.591-1.297 5.506 0.627 8.675-0.497 6.033-2.14 9.672-6.707 16.357-8.191 8.932-1.984 15.803-0.671 24.618-0.993 8.466-0.309 14.155 3.464 22.14 5.958 9.037 0.884 11.838 8.873 19.579 2.151 6.788-5.895 21.319-3.191 11.318 5.378-2.706 2.32-6.444 2.099-6.444 6.455 0 4.615 4.744 3.477 8.014 4.303v0.165c-1.177 0.297-5.949 1.573-5.949 2.814 1.249 0.205 0.061 3.309-1.322 3.309-0.158 0.476-1.277-1.647-1.404-1.903-2.291-4.594-7.346-2.818-11.4-2.234-0.048 0.196-0.132 0.181-0.166 0.414 5.379 2.675 4.386 5.176-1.156 0.992-1.609-1.215-9.289-4.421-9.749-6.04-2.132-0.302-12.822-4.889-7.848-5.626 4.788-0.71 10.341 2.653 15.449 2.896 2.858 0.136 6.984-3.438 4.13-5.958-1.99-1.758-8.399-3.213-11.235-4.467-6.83-3.018-13.499-5.153-20.984-6.371-8.747-1.423-19.537-1.651-24.536 5.874-0.988 2.806-3.66 5.378-6.692 5.378-3.204 0-4.823 1.402-7.848 2.151-4.198 1.04-11.187-1.399-13.549 3.31-1.809 3.606-6.131 8.558-10.326 8.853-3.379 0.237-5.691-3.055-8.839-2.399-2.561 0.534-5.309-0.413-7.6 0.166l0.165 6.867 83.025-3.227 24.289 3.145 48.08 7.364c13.489 2.065 22.564 8.033 33.54 15.39 3.374 4.772 10.742 7.141 15.201 10.922l27.51 23.333c6.412 5.438 18.705 17.694 21.066 25.733 2.711 5.949 8.131 10.993 11.07 16.88 1.08 2.166 3.28 7.203 5.783 7.613 0.392 0.064 8.421-9.102 11.07-10.426 3.075-1.536 20.994-12.909 24.288-12.909-0.374 1.149-17.893 12.966-19.248 13.984-3.935 2.954-9.847 1.983-11.235 7.365-2.331 9.043 2.742 16.181 8.591 23.002 2.503 3.301 5.757 7.486 10.326 5.296 5.671-2.719 15.63-4.565 20.984-0.579 2.13 1.585 4.695 2.521 7.353 1.737 1.267-0.374 5.452-3.332 5.452-1.324-1.375 0.684-1.419 3.215-3.966 3.475-6.459 0.658-12.415-0.474-18.588-1.985-7.142-1.749-12.507 1.871-16.357 7.447-3.658 5.3 13.916 19.461 17.679 22.34l13.713 2.4c3.217 0.562 6.429 2.399 9.666 2.399 5.527 0 0.941-3.34 2.396-4.634 2.283-2.032 5.781 5.39 9.5-2.979 3.755-8.449 1.954-12.288 12.391-12.742 5.188-0.225 4.249-7.627 11.401-5.296 0 0.613-3.47 0.913-4.13 1.076-2.936 8.683-12.589 2.721-14.622 8.109-1.856 4.916-0.744 7.966-0.744 12.825 0 5.31-4.037 1.79-7.104 2.565-2.656 7.856-2.485 5.172-10.658 5.792-2.573 0.195-10.872-0.537-12.474 0-1.747 0.585 0.875 6.285 1.321 8.109 1.18 4.831 4.134 14.609 2.81 19.445-1.857 6.775 2.162 8.235 3.718 15.224 5.517 9.516 9.429 18.987 12.143 29.621 3.069 12.029 11.38 21.564 15.696 33.345 1.546 4.884 10.833 17.394 14.788 20.768 16.559 14.125 32.61 34.446 52.871 43.44 1.335-4.143-0.252-7.563 0.743-11.336 0.849-3.217 2.447-5.722 3.387-8.605 1.106 0.278-0.962 6.345-1.156 7.365-0.553 2.893 0.109 5.976-0.166 8.853-0.56 5.888-2.669 6.562 4.792 8.853 2.668 0.819 7.221 1.903 9.83 1.903l0.331-8.026c0.066-1.604-0.592-5.779 0.496-6.867 1.462 1.957 1.24 11.246 1.24 14.065 0 3.635 2.885 2.483 5.617 2.483 4.327 0 11.077 0.579 15.118-0.496 5.471 0.509 2.179-7.298 2.066-10.178-0.193-4.924 6.396-9.965 4.626-14.314-0.412-1.011-2.019-8.505-0.743-8.936 0.695 2.828 1.864 13.449 3.47 15.06 2.164 2.173 6.542-7.695 7.187-7.695 1.292 5.225-8.246 13.467-9.831 18.617-0.28 0.908-1.973 4.945-0.991 5.378 2.497 1.104 12.008-0.301 15.201-0.662 4.288-0.485 9.307-0.548 13.136-1.49-0.387-1.534-1.389-2.9-1.735-4.468-0.219-0.99 4.461-2.91 4.461-1.241 0 3.539 2.863 4.452 6.113 3.806 3.465 0.312 9.571-0.847 13.218-1.406 1.595-0.244 6.286 0.111 5.535-2.565-1.673-5.958 5.25 0.514 6.444 1.572 3.413 3.025 4.971 0.428 7.517-1.322v-21.505c-0.216-1.176-0.571-2.1-1.156-2.244 0-0.783-1.156-1.616-1.156-2.731 0-3.325 1.14-1.834 2.312 0.588v-1475.8l-37.828-40.651z" fill="#008751"/>
	<path d="m1371.7 139.95l-9.749 3.144-18.34 7.612-18.669 6.289-24.288-2.648-27.428 12.247-18.34 13.735-15.2 15.39-7.435 10.425-22.635 24.823-13.714 2.483-23.627-2.317-17.679 0.497-14.87-1.655-37.836-2.648-6.939 1.655-53.698-19.858-4.626-8.274-7.601-7.281-11.731-4.965-12.722 1.489-26.106-25.65-7.766-1.488-15.861-12.247-49.732-8.771-70.55 44.351-25.444-7.281-14.374 16.548-9.584 4.964-21.149-0.828-7.93-6.122-3.965-5.627-5.949-0.331-0.826-7.943-5.783-5.296-17.018-30.615-5.291-5.685v1475.8c1.12 2.315 2.269 5.481 2.479 6.114 0.416 1.26 0.519 2.468 1.074 3.724 1.85 4.187 1.425-2.472 0.743-4.138-2.542-6.213 0.656-8.653 2.726-13.735 1.36-3.342 2.396-7.671 2.396-11.253h0.166c0 3.658 0.839 6.944-0.579 10.426-1.281 3.148-3.094 5.229-3.304 8.936-0.229 4.053 1.238 4.059 2.312 7.033 0.418 1.156-1.4 3.199-0.908 5.047 1.552 5.833-5e-3 13.51 8.013 12.163 4.313 0.74 9.338-0.662 13.713-0.662 9.687 0-0.392-5.467-1.735-10.094-1.363-4.697-1.355-10.063-2.973-14.563-0.987-2.743-3.38-8.054-3.222-10.84 0.153-2.696 7.27-5.963 3.883-9.349-1.737-1.737-4.866-4.208-5.249-6.701-0.218-1.422 6.388 4.323 7.148 5.294 4.441 5.688-3.424 5.723-2.396 11.253 2.87 7.425 2.139 23.168 9.749 27.47 3.956 2.237 16.765 5.767 21.313 3.641 5.68-2.656-0.8-9.31-1.982-13.321-0.458-1.554-2.881-8.467-1.9-9.681 2.149-2.658 0.579-12.954 0.579-16.797 0-3.997-2.034-7.299-2.287-11.071-0.054-0.842-0.04-0.932 0.423-0.09 1.213 2.211 4.012 8.996 4.012 9.836-0.369 4.721-0.311 7.337 0.826 11.998 0.967 3.963 1.434 7.57 2.644 11.501 0.556 1.805-0.523 5.244 1.322 5.958 6.07 2.35 9.603-0.612 14.87-2.234 5.083-1.565 9.006 1.966 9.831-6.123 0.683-6.693 2.023-17.711-3.718-22.588-1.856-1.576-8.139-4.322-9.491-7.09-0.45-0.923-0.426-1.14 0.403-0.528 2.217 1.631 5.24 3.672 7.93 3.894 5.282 2.036 6.718 8.306 10.161 12.247l4.048 4.633c0.407 0.465 2.809 4.111 2.809 4.634 0.139 0.045 0.083 0.168 0.083 0.332-1.833 0-3.233-1.416-4.378 0.662-1.278 2.321-3.739 5.07-5.618 6.95-1.712 3.161-9.975 9.157-9.004 12.659 1.049 3.78 9.177 4.617 12.64 3.724 4.718-1.216 9.18-3.517 13.961-4.716 2.717-0.682 4.532-0.357 4.296-3.724-0.114-1.621-1.298-3.22-0.744-4.882 0.535-1.602 0.981-4.526 0.33-6.206-0.567-1.46 2.758-0.75 4.212-0.493 0.537 0.093 0.683-0.029 0.383 0.52-0.655 1.186-2.229 2.329-2.612 3.945-0.671 2.828-0.938 3.536 2.231 4.716 7.971 1.331 14.018 1.26 22.058 0.248 3.745-0.472 13.929-0.513 16.935-2.234 0.367-1.458-0.082-3.73-0.082-5.461 2.148-2.148 2.812 2.133 3.387 3.145 3.364 0.474 5.246-1.446 8.509-2.647 4.13-1.519 9.549-2.37 13.961-2.648 5.487 0.784 14.848-3.11 21.149-3.475 21.719-1.258 45.998-4.792 67.411-0.496 0.473-2.763 1.671-5.021 2.313-7.613 1.383-5.565 7.806 0.58 7.353-5.874-0.166-2.36-2.546-4.25-3.14-6.619-0.359-1.428-1.109-0.873 0.083-2.069 2.752-2.759-1.171-6.77-0.579-9.681 1.162-5.712-2.607-6.842-6.279-10.094l-4.708-6.371c-0.642-0.092-2.248-1.191-2.561-1.821-0.757-1.526 4.435 1.52 5.204 1.324 2.75-0.704 3.085 6.701 6.362 3.806 1.398-1.234-1.798-3.619-2.561-4.302-0.817-0.733 0.435-2.319-0.166-3.227-1.51-2.277-4.137-3.127-5.617-5.792-1.793-3.227-3.659-6.586-5.948-9.432-0.895-1.111-6.799-6.258-8.261-6.619-1.602-6.551 5.276 3.153 9.336 5.709 1.479 0.931 3.314 4.011 4.874 4.138 1.082 0.088 5.937-5.171 5.299-3.048-0.263 0.872-0.879 2.533-1.995 3.792-4.027 4.545 5.757 7.112 6.609 12.081 0.401 2.341 4.498 8.541 6.609 9.764 2.198 1.273 6.774-0.392 6.774 1.737 0 1.003-2.725 2.79-0.495 3.971 3.948 2.093 2.581 4.587 7.6 2.483 3.106-1.303 6.259-3.856 3.966 1.324 0 2.041 0.565 4.985 3.139 5.13 1.535 0.087 3.167-1.263 4.709-1.737 2.738-0.842 4.495-2.422 3.718-5.709-0.407-1.72 0.56-3.551 0.826-5.13 0.367-2.175 0.41-5.516 2.396-6.95 1.151-0.832 1.518-0.876 2.809-0.414 0.436 0.157 2.644 1.115 2.644 1.489l6.445-3.145c0.26-3.351-3.222-5.852-3.222-8.771 0-4.295 2.159-4.503 5.452-5.461 3.375-0.983 2.138-2.7 1.982-5.13-0.192-3.001 7.499-6.074 6.774-7.529-1.664-3.342 1.181-3.178 2.892-5.708 2.581-3.814 2.169-8.688 6.278-12.329 1.236-1.095 4.23-1.489 4.875-2.731l4.213-8.109c1.625-2.019 3.608-3.072 2.726-5.792-1.773-5.469 0.721-18.072 2.147-23.664 0.716-2.807 3.041-5.217 1.404-7.861-2.15-3.476-0.963-8.152 1.157-11.336 1.669-3.427 4.462-6.968 6.526-10.178 1.404-2.184 3.913-4.363 4.956-6.454 1.18-2.367-2.973-8.812-4.131-11.418-1.23-2.772-4.703-5.747-6.857-7.778-6.363-5.999 2.401-3.664 1.157-9.349-0.488-2.228 3.758-1.538 2.643-4.468-0.335-0.88 1.273-6.547 1.818-7.365l-2.479-7.447 3.362-1.596 2.66-5.243 3.895-2.993 22.715-17.637 13.549-13.156c2.289-6.875 4.797-13.917 13.631-12.743 5.671 0.754 5.292-5.121 8.014-8.688 3.965-5.194 8.601-11.128 9.583-17.541 1.428-9.322 8.888 0.861 12.97 2.896l6.857-23.913c6.031 1.167 9.557 3.682 14.87 0.082 3.481-2.358 4.591-2.063 4.874-7.032 0.145-2.561 1.076-4.233 3.883-3.806 2.787 0.423 6.104-1.918 7.93-0.083 1.823 1.831 5.25 2.129 7.682 1.325 0-2.856 5.818-21.457 7.766-23.417 0.104-1.62-1.603-2.666 0.33-3.475 2.465-1.031 0.418-3.993 1.322-6.371 0.942-2.482 1.928-3.897 2.148-6.702 0.258-3.277 2.937-7.011 6.527-5.958 3.408 1 5.793 3.717 9.004 0.744l45.932-40.709c0.723-0.078 2.208-0.599 2.809 0.082 0.241 0.272-0.063 1.075-0.082 1.407-0.043 0.714 0.548 0.811 0.826 1.407 0.748 1.605 0.909 1.976 0.579 3.723-0.165 0.87-0.712 1.982-0.495 2.896 0.211 0.887 1.136 2.415 0.495 3.227-0.919 1.166-1.344 2.805-0.495 4.137l7.352 6.619 40.563-3.889 4.462 2.896 2.396-2.73c1.417-0.162 2.372-0.911 3.469-1.739 0.644-0.486 1.394-0.825 1.9-1.489 1.653-2.167 1.525-5.53 2.726-7.943l2.974-29.373c2.707 2.168 5.204 4.061 5.204 7.777 0 2.682-1.085 3.659-1.404 6.041-0.05 0.37 3.756 3.672 4.13 3.971 1.983 1.583 5.557-0.192 7.847 0.584v-1052.7l-2.311 0.086z" fill="#fff"/>
	<path d="m718.74 1638.9c2.187-0.898 5.427 0.449 4.461-3.641-0.857-3.626-5.617-8.128-5.617-11.501 0-0.928 0.027-3.579-0.331-5.534v21.505c0.458-0.315 0.946-0.607 1.487-0.829z" fill="#fff"/>
</svg>