<?xml version="1.0" encoding="UTF-8"?>
<svg width="1038.6" height="604.44" version="1.1" viewBox="0 0 5.1930048 3.0222192" xmlns="http://www.w3.org/2000/svg">
 <path d="m4.5726 0.005256c-3.5e-4 -4.5e-5 -7.813e-4 1.56e-4 -0.00141 7.8125e-4 -5e-3 5e-3 -0.019219 0.0092188-0.019219 0.0092188l-0.015 0.020781h-0.00578l-0.02 0.0075-0.011719 0.011719-0.00828 0.011562-0.00172 0.015-0.00922-7.8125e-4v0.0075l0.013438 0.0032812-0.015937 0.010938-5e-3 0.015 0.015 0.004063 0.023437 0.001719 0.02-0.004219v0.01l-0.02 0.010938-0.01125 0.01125-0.017187-0.012969-0.019063 0.005781-0.013438-0.013281-0.011562 0.006719-0.018438 0.008281-0.015 0.015781-0.028281 0.008438-0.015 0.021562-0.020781 0.008438-0.017188 0.017031-0.016563 0.016719-0.017969 0.010312-0.025 0.010938-0.012969 0.012812-0.028281 0.028438-0.025469 0.024531-0.00656 0.024219-0.014219 0.020781-5e-3 0.015 5e-3 0.014219h-0.011719l-0.013281 0.0075-0.00172 0.0175-0.015 0.0075-0.00406 0.015781v0.009219h0.016563l5e-3 0.011719 0.020937-0.003438 0.028281 0.0125 0.00922 0.001719 5e-3 0.013281-0.00422 0.013438-0.016719 0.004062-0.018281 0.008437-0.013281 5e-3h-0.019219l-0.0125-0.0125 0.012031-0.012188-0.015781-0.015781-0.00875 0.00875-0.00922 0.016719 0.011719 0.016562-0.00328 0.01 0.00828 0.008437-5e-3 0.02-0.020781 0.015v0.016562l-0.010937 0.010938h-0.0125l-0.0075 0.014062v0.0275l-0.015781 0.015781v0.011719l0.00797 0.007969h-0.01625l-0.015 0.012031-0.020937 0.009219-0.023281-0.023281-0.01125-0.01125-0.022969 0.00125-0.0275 0.004062-0.015781 0.019219-0.0175 0.0175-0.020781 0.030781v0.024219l-0.016719 0.020781-0.015781 0.015938-0.0175 7.8125e-4 -0.015938-0.008438-0.0225 0.0125s5e-3 0.021719 0.0025 0.019219-0.015781-0.016719-0.015781-0.016719l-0.011719 0.013438h-0.018281s-0.011045-0.003809-0.00563-0.009219c0.00541-0.00542 0.0125-0.015 0.0125-0.015l-0.015-0.010781-0.025 0.010781-0.0175 0.008281-0.0075 0.020938-0.00359 0.011562 5e-3 0.026719v0.015781l-0.014063 0.013438 0.00406-0.0325-0.015781-5e-3 -0.0125 0.0125-0.014219 0.006719 0.00594-0.0225s0.015781-0.005937 0.015781-0.010938c0-5e-3 -0.00328-0.008281-0.00328-0.008281l-0.024219 0.010781-0.030625 0.011719-0.00687 0.019062-0.023281 0.011719h-0.015937l-0.010781 0.010781 0.0175 0.010938 0.0025 0.011562-0.018281 0.016719v0.0175l0.01 0.006719 0.00828-0.021719 0.00578 5e-3v0.018281l0.014219 0.0075 0.0125 0.0125 0.00578 0.003437-0.0125 0.0125-0.015781-9.375e-4 -0.00922 0.01-0.00703 0.00734 0.019531 0.00875v0.0125l-0.018281-5e-3 -0.015781 7.813e-4 -0.021719 5e-3 -0.011719 0.021719 0.00375 0.019375h0.96375l0.00672-0.00781 0.0075-0.0275v-0.013437h0.0225l0.00672-0.02-0.00672-0.018281 0.023281 0.021719 0.00672 0.014063 0.00828 0.00844 0.0125 0.0125v-0.020937l0.015 0.0075 0.00672 0.016719 0.00578-0.019219-0.00156-0.031719-0.00844-0.02v-0.026562l-0.010312-0.010469 0.00781-0.01125 0.0075 7.8125e-4 0.00172-0.010781h-0.016719l-0.01375-0.01375-0.014531-0.014531-0.01-0.009219 5e-3 -0.013281v-0.0175l0.018281-0.01 0.012969-0.012969 0.00547 0.005469-0.015938 0.015v0.019062l0.0175 0.010938 0.011719 0.015 0.00953 0.009531 0.010469 0.00375h0.010781l0.010937 0.020781 0.01 0.01v0.025938l-0.00594 0.02 9.375e-4 0.016562 0.01 0.00844 0.01 0.030781 0.00828 0.020781 0.00453 0.015469h0.10547l-0.016719-0.00875-0.0025-0.018281-0.00328-0.023437-0.015781-0.015781-0.011719-0.011719-0.01-0.01-0.0125-0.020781 0.00922-0.009219v-0.021562h0.01l0.015313-0.015469-0.015313-0.007031v-0.015938l-0.00922-0.024062 0.01-9.375e-4 0.011719 0.011719 0.015781 0.0075v-0.013281l-0.014219-0.021719v-0.0125l0.00672-0.023281-0.00922-0.009219 0.0175-0.025 0.010937-0.025 0.020781-0.006719 0.015 0.0075 0.014219-0.0125-0.00922-0.009062-0.014219-0.015938-0.00828-0.033281v-0.024219l-0.015781-0.014062-0.00844-0.025938-0.00406-0.026562-0.00844-0.02-5e-3 -0.023438v-0.03l-0.00578-0.026562-0.014219-0.021719 0.00625-0.00625-0.019531-0.012969 5e-3 -0.0075h0.0175l0.010781-0.023281 0.016719-0.006563v-0.0175l-0.012031-0.012031-0.00625-0.014531-0.013438 0.01-0.00906-0.0075-0.010938 0.001719-0.00875 0.00875h-0.014531l-0.00422 0.007656h-0.015v-0.011562l-0.018281 9.375e-4 -0.01 0.001719-0.0125-9.375e-4 -5e-3 0.008437-0.010469 0.010312-0.017812 4.685e-4 -0.01 0.0075v0.015781l-0.010937 0.004219-0.00828-0.008281 0.013281-0.015938h-0.00906l-0.014219 0.005781 0.00578-0.013281 0.0175-0.0075h0.0125l0.013438-0.021562-0.00344-0.019219-0.00656-0.024219-0.01375-0.01375-0.012969-0.012812-0.0075 0.0075-7.813e-4 -0.015938h-0.0125l-0.018438 5e-3 -0.01125-0.01125v-0.01125l-0.014531-0.0025 5e-3 -5e-3 0.0075-0.003281-0.00625-0.00625 0.00125-0.007969 0.00828 5e-3 0.00922 0.0075h0.015781l0.010937-0.008281 0.010781 0.008281 0.01375-0.01375v-0.02125l-0.00625-0.0125 0.014219-0.020781h0.015781l0.0125 5e-3 0.0175-0.005938 0.00922-0.02 0.0175-0.019062 0.019062-0.001719 0.0075-0.021562-0.014063-0.004219v-0.006875h0.0175l-0.00594-0.013281v-0.010781l-0.00906 0.011562-0.00922 0.0025-0.010781-0.016719-0.015469-0.015312v0.00875l-0.019531-0.0075-0.00922 0.0090625-0.015-0.0025 0.019219-0.0125v-0.0175s5e-3 -0.015 0-0.01-0.0175 5e-3 -0.0175 5e-3l0.00906-0.019062-0.00828-0.0084375-0.010781-0.0090625s0.0038-0.014682 0.00141-0.015zm-0.43359 0.13328v1.56e-4l-0.00578 0.005937-0.012656 0.006562-0.010469 0.010469 0.00109 0.017656-0.00453 0.004531 0.00219 0.014219 0.00828 0.012188 0.00859 0.019844 0.013281 0.002812 0.00891-0.009063 0.00672-0.012188-0.00734-0.007969 0.010937-0.016094-0.00188-0.017344v-0.020625l-0.010781-0.008594-0.00656-0.0025zm-2.2258 0.33734-0.00563 0.01125 0.00719 0.007188 0.00281 0.008437 0.01625-0.005625 0.00562 0.005625 0.010625-0.004375 0.00437 0.004375v-0.009375l-0.00719-0.007187h-0.00656l-0.00562-0.002188h-0.01375l-0.00812-0.008125zm0.081875 0.01v0.008281h0.00625l0.00625-0.00625-0.0125-0.002031zm-0.018125 0.009375-0.00625 0.004375-0.00625 0.00625v0.006875l-0.00719 0.007188-0.012812-0.009062-0.010625 0.005625v0.0075l-0.013125-0.009375-0.01 0.00375 0.00313 0.015 0.00937-0.003125v0.01l0.01 0.0025 0.00906-0.009062 0.012812-0.005156 0.010625 0.003125h0.015625l0.01125-0.01125-0.010625-0.010625 0.00719-0.007188-0.012188-0.007187v-1.56e-4zm0.11125 0.006406v0.01125l0.010625 0.010625v0.00875l0.00937-0.004375-0.00562-0.011875-0.00438-0.014375h-0.01zm-0.0225 0.005625 0.00438 0.008125 0.00406-0.004062-0.00406-0.004062h-0.00438zm0.094375 0.008125-0.00625 0.001875 5e-3 0.006875v0.00625h0.00875v-0.011875l-0.0075-0.003125zm-0.10438 0.004375-0.00687 0.00125v0.008125h0.00875l-0.00187-0.009375zm0.02125 5e-3v0.00875l0.0075 6.25e-4v-0.009375h-0.0075zm-0.05 0.009375-0.00188 0.001719 0.00719 0.007188 0.00344-0.008906h-0.00875zm0.034062 0.007188v0.007031h0.00719l-0.00562-0.005469-0.00156-0.001562zm-0.017812 0.007188-0.00594 0.005937 0.00594 0.006563 0.00687-6.25e-4 -0.00687-0.011875zm-0.051875 0.00125-0.00625 0.01-0.00469 0.004687 0.00812 0.008125 0.00906 3.125e-4v-0.015l-0.00625-0.008125zm0.014375 0 0.00313 0.00875h0.00625v-0.0075l-0.00937-0.00125zm-0.06375 3.125e-4 0.00188 0.007813 0.01125 6.25e-4 -0.00781-0.008437h-0.00531zm0.1725 0.002812-0.00813 0.004375-0.00344 0.003437 0.00656 0.006563 0.011875-0.004375v-0.01h-0.00687zm-0.0375 0.0025-0.00875 0.0025 0.00313 0.002969 0.00562-0.005469zm1.3666 0.002188-0.00453 0.008281 0.00484 0.004844 0.00563-0.004844-0.00594-0.008281zm-1.4941 0.009062-0.00562 0.005625 0.00438 0.004375 0.010625 0.0025-0.00687-0.006875-0.0025-0.005625zm0.13875 0-0.00687 0.006875-5e-3 0.01v0.0125l0.010625 0.001875 0.0025 0.0075 0.013125-0.003125 0.00844-0.008437 0.00625-0.00625 0.00344-0.010312h-0.00937l-0.014063-3.125e-4 -0.00906-0.010312zm0.08 4.685e-4 -0.01 0.00125-0.00438 0.006875-0.01625 0.003125-0.010625 0.005625 0.00812 0.00375-0.00375 0.00875 0.00688 0.001875h0.01375l0.010937-0.010938 0.00813-0.007969-0.00281-0.012188v-1.56e-4zm-0.11344 0.012344-0.012188 0.009063-0.00438-0.004531h-0.01375v0.009531l-0.0075 0.0075 0.00438 0.004375 0.015-0.003125 0.00562 0.005469 0.013125-0.002969 0.00375-0.00875 0.00937 0.003125-5e-3 -0.01125-0.00844-0.008437zm0.49906 0.035938-0.00188 0.012344-0.01125 5e-3 -0.016875 0.01125v0.015625l0.00687 0.006875-0.00906 0.009062-0.00594 0.011562 0.00812 0.01125 0.00313 0.01125 0.014375 0.0125 0.013125-0.0125h0.00875l0.013125-0.0075 0.015625-5e-3 -0.00438-0.015v-0.01875l0.00937-0.007969-0.00781-0.007813-0.015938-0.015938-0.00562-0.0125-0.01375-0.00375zm-0.49375 5e-3 -0.00406 0.004062v0.007656h0.00844l0.00312-0.01-0.0075-0.001719zm1.5036 7.8125e-4 -0.016563 0.007656-0.00875 0.010156-0.00937 0.009531h-0.00375l-0.00719-0.00875-0.011719 0.011719-0.00797 0.007969-0.00578 0.005625-0.01125-0.005313 0.00141 0.006094 0.00391 0.005313 0.00828 0.012031 0.01625 0.005781 0.010156-0.010312h0.013594l0.01375-0.005312 0.012344-0.005625 0.00797-0.007969v-0.010625l0.00687-0.018906-0.012188-0.009062zm-1.0567 0.001563-0.013125 6.25e-4 -0.00563 0.005781 0.00438 0.004219 0.00469 0.004844 0.00969-0.009062v-0.006406zm-0.15625 0.013281-0.00625 0.00125-0.00406 0.004062 0.00625 0.00625 0.00844-0.002812 5e-3 -5e-3 -0.00937-0.00375zm1.1139 0.042656-0.00984 0.003125h-0.024062l-0.00797 0.007813-0.0125 0.00875-0.00906-0.009062-0.022031 0.006719 0.00156 0.01375 0.00563 0.005625 0.00844 0.008281 0.00563 0.005625-0.00828 0.006875-0.011406-0.009844-0.00609 0.006094-0.00828-0.008281-0.018906 0.00375-0.00828-0.004531-0.00375 0.009844 0.00594 0.005938-0.01125 0.006094v0.014375l0.00906 0.008906-0.00234 0.010625h0.00844l0.010469 0.010625-0.00297 0.012031 0.013594 0.007031 0.018125 7.8125e-4 0.00766 0.0075h0.013594l0.015781-0.004688v-0.012188l-0.00969-0.009063 0.00516-0.005312 0.00797 0.008125 0.014063-0.025312 0.013125-0.013281 0.00578 0.005625 0.012031-0.012188 0.00375-0.01125-0.013594-0.004375-0.00906 0.008906-0.01125-0.008281-0.01375-0.008438-0.013594-0.009687 0.00453-0.009844 0.00719-0.007187 0.00578 0.019375 0.00859 0.00875 0.014844 0.0025 0.00906-0.00375h0.0075l0.00766-0.0075-0.00391-0.015938h-0.012031l0.00297-0.013594v-0.009844zm-0.86219 0.025-0.016563 0.005312s-0.00992 0.002214-0.012188 0.002969c-0.00227 7.5e-4 -0.013594 0.004531-0.013594 0.004531l-0.00531 0.011406-0.00297 0.009844-0.00672 0.008281 0.00219 0.009844-0.012812 0.009844 0.00609 0.005312 0.00906-0.003125 0.0075 0.010625 7.813e-4 0.009844 0.00672 0.008281 0.0175 0.001563 0.00219 0.009844 0.012188-0.007656 0.00594 0.009844 0.016719 0.005937 0.015937-0.0075 0.0075-0.010625-0.00609-0.012188-0.00984-0.013594 0.00766-0.005156 0.00297-0.012812-0.00375-0.014375 0.00156-0.014375-0.018281-0.009844-0.00672 0.008437-0.00609 0.01125-0.00531-0.002188 0.00375-0.014375v-0.015156zm-0.096094 0.014219 0.00188 0.01375v0.00875l0.01375 0.00375 0.00563 0.005625 0.00844-0.008437 0.00469-0.012188-0.00813-0.00625-0.015625-0.00375-0.010625-0.00125zm-0.21922 0.016094-0.00453 0.004531 0.00531 0.002969 0.00828 0.006094 0.00234-0.007656-0.011406-0.005938zm0.39328 0.0225-0.0075 7.8125e-4 -0.010625 0.012812 7.812e-4 0.01125-0.00453 0.007656 0.00297 0.020469-0.00906 0.009062 7.813e-4 0.020312-0.00453 0.0175-0.00391 0.017344 0.00687 0.00375 0.014375-0.01125 0.00828-0.005313 0.018906-0.009844 0.015156-0.001406 0.018906-0.014375 0.00906-0.0175-0.00609-0.015-0.00672-0.011406-0.00906 0.003906-0.00906-0.015938-0.00687-0.006875-0.00828 0.009844-0.00531 0.014375v-0.010625l7.813e-4 -0.018906-0.00531-0.010469v-1.56e-4zm0.62922 0.031875 0.00797 0.007969 0.00484 0.017812h0.00984v-0.009844l-0.00375-0.008437-0.00672-0.006719-0.012188-7.8125e-4zm0.20719 0.022656-0.00937 0.00875-0.00875 0.00875-0.00875 0.008594 5e-3 0.011719 0.00828 0.008281-0.00531 0.012188 0.00453 0.004531 0.00687-0.014375 0.017344-0.00375 0.015156-0.006094 0.020469-0.012031-0.010625-0.019688h-0.014375l-0.020469-0.006875zm-0.04 0.003125-0.00906 6.25e-4 -0.00687 0.006094 0.00531 0.015156 0.00875 0.00875 0.00719-0.014062v-0.011406l-0.00531-0.005156zm-0.71781 0.019531-0.0075 0.004531 0.010625 0.005312 0.0075 0.005313 0.00828-0.002188-0.00219-0.009844-0.00828 0.002188-0.00844-0.005312zm-0.026094 0.05-0.013281 0.014219-0.015 0.010781-0.0125 0.030781-0.00422 0.013438v0.02l0.00672 5e-3 0.00172 0.014062h-0.00594l-0.019062 0.005938h-0.018437l5e-3 0.009062 0.01 0.0075 0.0075 0.01-0.016563-0.00328-0.016719 0.00328-0.0025 0.013437-0.025781-7.812e-4 -0.010469 0.010313v-0.012031l0.00797-0.015-0.015 0.0025-0.00422 0.00906-0.018281 0.0025-0.021719 5e-3 -0.00828 0.00844 0.015 5e-3 -5e-3 0.00578-0.0225 0.00672-0.00797 0.00781-0.027031 0.00406h0.43406l0.00578-0.011875 0.00828-0.011719v-0.016719l0.00953-0.00953-0.010313-0.017813-0.016719-0.00922-0.00672-0.006719 0.016719 0.003437 0.00172-0.0175-0.01125-0.01125-0.00875-0.00875-0.00594 0.006563-0.01-0.008281-0.00828-0.016719-0.00953-0.009531-0.012969 0.00625-0.00953-0.009531-0.017187 0.012031h-0.016563l-0.018438 0.01 0.0075 0.0075-0.00406 0.014219s-0.013437-0.005938-0.018438-0.005938c-5e-3 0-0.00406-0.010781-0.00406-0.010781l0.010781-0.010938-0.012031-0.012031h-0.01625l-0.00516 0.005156-0.026406-0.001406 0.010781-0.014219 0.012969-0.012812-0.00375-0.017188-0.0125 0.001719-0.016719-0.01zm0.65391 0.001563-0.00453 0.00375 0.00828 0.00375 0.010625 0.008281 0.00453-0.006094-0.00453-0.006719-0.014375-0.002969zm-0.59531 0.015781-0.00297 0.004531 0.00687 0.004531 0.00297-0.005312-0.00687-0.00375zm-1.7238 9.375e-4 -0.035 0.0175-0.026562 0.013438v0.045l-0.013438 0.023281h-0.0425l-0.025156 0.025469-0.002344 0.015313-0.018906 0.035312h0.10375l0.00109-0.00281 0.00281 0.00281h0.18875l-0.00562-0.019375-0.01375-0.01375v-0.019688l-0.012031-0.00578v-0.0175l-0.011094-0.010781-0.013906-0.0075v-0.015938l-0.00438-0.015781 0.00875-0.00875 0.00953 0.009531 0.00922 0.005938-0.00422-0.015v-0.013438l-0.02-7.8125e-4 -0.014062 0.001719 0.00344-0.0175-0.014375 0.01-0.011406-0.011719h-0.014219l-0.024375-0.009219zm1.0144 4.685e-4 -0.019531 0.0075-0.014844 0.007969-0.0125 0.0125h-0.018906l-0.013594 0.00375-0.0075-0.0075h-0.015937l-0.00672-0.009687-0.014844-0.001094-0.0125 0.012344h-0.018906l-0.012812-0.004531-0.018125 0.008437h-0.010625l-0.00828 0.009844-0.00828 0.009062-0.016719-0.006094v0.01125h-0.01125l-0.00906-0.009062-0.00531 0.008437 0.00828 0.009844-0.00766 0.0075 7.815e-4 0.015156-0.00594-0.006094-0.015937 7.8125e-4 0.00984 0.009844-0.018125 7.8125e-4v0.009062h-0.012968l-0.00969 0.00984-0.019687 0.00531-0.018907 0.00516v0.00609l0.01625 0.00562 0.00641 0.00656-0.018906 0.00375-0.00188 0.00797-0.00875 0.00859-0.00828-0.00828h-0.017344v0.011406l-0.00391 0.01125-0.013594-0.00531-0.010781 0.00687h0.11578l4.7e-4 -4.685e-4 0.00859-0.00844 0.00656 0.00641v-0.01844l0.00641 0.00641h0.00906l-0.00219-0.015156 0.00906-0.00812v0.012812l0.011406-0.00828 0.013594-0.00984v-0.013594l0.013594 0.00375 0.00156-0.00828h0.012813l0.014375 0.00156 0.012031-0.00469-0.00531-0.012031 0.0175-0.009844h0.023437l0.01125-0.012031h0.030313l0.023437 7.8125e-4 0.00984-0.009844 0.020468 0.0075 0.022657-0.010625 0.018906-0.001406 0.014375-0.01375 0.015781-0.014375v-0.018125l-0.010468-0.016562h-0.018282v-1.56e-4zm0.39484 0.041719-0.00375 0.006094 0.00531 0.004531 0.00672-0.009844-0.00828-7.81e-4zm0.12625 0.002969-0.0075 0.009062-0.00984 0.002344 0.00906 0.006875 0.00906-0.009219-7.812e-4 -0.009062zm2.1634 0.018125-0.00859 5e-3v0.015781l-0.00156 0.014375 0.00875 0.00578 0.00578 0.00734 6.25e-4 0.012969 0.011563 0.00438-0.00281-0.012969-0.00516-0.010156 0.00516-0.016562v-0.020156l-0.01375-0.005781zm0.3425 0.040938-0.00938 0.00219-0.00938 0.00641 5e-3 0.00516 0.00687-0.00672 0.00688-0.00688v-1.56e-4zm-1.8328 0.015938s-0.00187 0.00781-0.00812 0.00781-0.00547 0.015469-0.00547 0.015469l-0.00641 5e-3 -0.00687-0.0075-0.00672 0.00172-0.00328 0.01-0.013281-0.00922-0.00875-0.00875-0.010469 0.00797-0.01-0.01-0.0025 0.01-0.00313 0.019062 0.00891 0.013594h0.1325v-0.010312l-0.00953-0.00953h-0.00937l0.00641-0.020469-0.02-0.00656-0.00578 0.00578-0.018125-0.014062zm-0.92625 0.017031-0.00406 0.00406 0.00531 0.00469 0.00875-0.0025-0.01-0.00625zm2.7152 0.00609-0.01375 0.00578-0.012969-5e-3 -0.010156 0.00359 5e-3 0.010781h0.034688l0.010781-0.010781-0.013594-0.00438zm-0.2475 0.0075-0.00578 0.0125-0.00797 0.00781v0.00422h0.036094l-6.25e-4 -0.00297-0.021719-0.021562zm-1.3825 0.0175v0.00703h0.025469l-0.00453-0.00453-0.020938-0.0025zm-0.086562 0.00266-0.00703 0.00438h0.011563l-0.00453-0.00438z" fill="#fff" stroke="#039" stroke-width=".0105"/>
 <path d="m0.24245 1.9706-0.00548 0.012347-0.010781 0.0125 0.00406 0.011562 0.0125 0.01 0.00594 0.019219 0.018281 0.014219 0.015781 0.011563 5e-3 0.025937-5e-3 0.0175 0.013438 0.015 0.0125 0.0075 5e-3 0.019062 0.013281 0.015v0.0175l0.014219 0.00672-0.00672 0.00828-0.00578 0.014219-0.030938 0.00422 9.38e-4 0.013281-0.011719-0.00172-0.011719 0.011719 0.00328 0.018281-0.0125 0.0075-0.018438 0.018438-0.02-0.021719-0.013281-0.014219-0.014219 0.00594-0.015781-0.00672-0.018282 0.00828-0.0125 0.013437 0.01 0.00328 0.00922 0.00922 0.014219 0.00328 0.01 0.0075-0.00328 0.015-0.014219-0.00578-0.019219-0.0025-0.011562-5e-3 -0.0075 0.0075-0.01-0.00922-0.00922-0.00672-0.01-0.00156-0.00328 0.010781 0.00656 0.0125-0.0025 0.020781-0.0125-0.00406h-0.01l-0.019062 7.812e-4 -0.014219 0.00578-0.00578 0.0125-0.0125-0.00406-0.013438-0.016719-0.01 0.00172-0.00922 0.00906 0.00422 0.016719-5e-3 0.015 0.00672 0.013281 0.01 0.00922-0.00172 0.025 0.00828 0.0125 0.00672 0.014219 0.00328 0.028281-0.0025 0.038281 0.00672 0.02 0.010938-0.00156 0.00828 0.011562 0.00672 0.00844 0.00906 0.00156 0.00422 0.016719 0.0125 0.019219 0.00578 0.02 0.018438 0.0125 0.0125 0.00578 0.0075 0.019219 0.014062 0.011562-0.00328 0.016719 0.011719 0.010781 0.00328 0.026719 0.011719 0.011719 0.018281 0.0025 0.010469 0.010312 0.00281 0.00875 0.014219 0.00172 0.00422 0.015 0.0125 0.013281-5e-3 0.014219-0.0075 0.0125 0.011562 0.015 0.00672 0.0175v0.010781l0.013281 0.00922 0.00172 0.02 0.00906 0.0275 0.0025 0.015781 0.018281 0.00422 0.019219-0.00672 0.013282 0.00594 0.02-0.00922-0.00156-0.026719 0.00328-0.021562-5e-3 -0.028437v-0.023281l0.018281-0.03 0.00828-0.0075v-0.00578l0.00969-0.00969 0.00391-0.014531 0.00406-0.015781-5e-3 -0.015938-0.00875-0.00875v-0.01375l0.00859-0.00844 0.010156 0.00266 0.0175-5e-3h0.015938l0.014062-0.016719 0.011719-5e-3v-0.011562l0.015 0.0025 0.00578 0.00578 0.0125 0.00328s-0.00167 0.00625 0.00625 0.00625 0.017969-0.00125 0.017969-0.00125h0.028282l0.014219-0.00156 0.00828-0.00844-0.010312-0.010312-0.00719-0.014687-0.00156-0.015 0.0125 0.00172 0.00828 0.00922 0.00875-0.00875v-0.022969l-0.00453-0.028281 0.00406-0.021719-0.01-0.01-0.015781-0.015-0.010781-0.00672 0.010781-0.010781 5e-3 -0.021719-0.01203-0.01203-0.00547-0.01625 0.013281-0.00922 0.010938-0.010781 0.015 7.813e-4 0.014062-0.00578v-0.015l0.010938-0.010781 0.012812-0.012969h0.01625l0.010938-0.00797 0.00578-0.013281h0.014219l0.00875 0.00875-0.00547 0.01625v0.016719l0.012031 0.012031 0.020469 0.00375 0.00172-0.015781 0.010781-0.010937 0.00422-0.00906h0.036562l0.00844-0.0125h0.0175l0.016562 0.00906 0.019219-0.00656 0.010469-0.010469 0.020312 0.00375 0.00594 0.016719v0.015781h0.011562l0.02-0.00328 0.010938 0.010781 0.00578 0.014219 0.02 0.0075 0.0125 0.015 0.00328 0.0225 0.00844 0.021563 0.00656 0.014219-0.01 0.01v0.013281h0.010938l0.01-0.016563 0.014062 0.0125 0.01 0.019062 0.014219 0.00422 0.0175-0.0025 0.019219-0.00922 0.014062 0.0075 0.015938 0.0125 0.00578 0.0125 0.015781-0.00578h0.019219l0.010469 0.010469v0.02125l0.012187 0.012188 0.00313 0.00937 0.01625 0.01625h0.014688l0.00891-0.00891h0.00859l0.00656 0.013594 0.00969 0.00953 0.01875-0.00125h0.018281l0.010777-0.010781 0.011719-0.015938-0.011719-0.011563-0.00328-0.014219-0.00797-0.00797-0.011562-0.011563-0.00547-0.012188 0.00672-0.0175 0.016562 0.00422 0.014219-0.00422 0.00578-0.015-0.00578-0.020781 0.014219-0.00578 0.021562-9.375e-4 0.014219 0.014219h0.011719l0.010312-0.010469-0.01125-0.01125-0.00906-0.00906-0.00922-0.00594 0.011719-0.011563-0.00594-0.0125 0.00594-0.018438h0.0175l0.019062 0.01 0.013438 0.011719 0.015-0.00422 0.020781 0.00422 0.028281-7.812e-4 0.019219 0.00578h0.014219l0.015781 0.00828 0.016719-0.00328 0.00953-0.00953h0.00875l0.021719 0.01125h0.0225l0.018281-0.00344 0.015 0.00844 0.018281-5e-3h0.020938l0.01-0.014219 0.018281 0.00172 0.016719 0.01h0.020781l0.0075 0.015h0.015l0.0125 0.00578 0.00672 0.020781-0.00422 0.011719v0.015781l-0.010469 0.010468 0.00469 0.014531 0.018281 5e-3 0.016719-0.01 0.012031 0.012188-0.00547 0.019531 0.016719 5e-3 0.00922-0.00922 0.015 0.00922h0.016562v0.011719l-0.02 0.00906-5e-3 0.0225h0.014219l0.0175-0.00828 0.00922 0.013281 0.02-0.010781 0.023281-0.00672 0.01375-0.01375 0.012969-3.125e-4 0.0175-9.375e-4 0.0125-0.0125h0.015l0.00406 0.011719-0.01 0.013281h-0.011562v0.015l0.014062 0.00594 0.010469 0.010312 0.00953 0.020469 0.00922 0.00922 0.014219 0.014063 0.01 0.033437v0.0275l0.013281 0.0125v0.02l0.014219 0.025 0.00406 0.021562 0.00594 0.019219 0.010781 0.021719 0.018281-0.00344 0.00922-0.019062 0.013281-0.00422 0.00922 0.010781v0.0125l0.00922 0.00922 0.01 0.01 0.018281-0.00328 0.00828 0.00828 0.020937-0.00328 0.010313-0.010469h0.02125l0.010312 0.010156 0.015625 0.00688 0.011563 0.010937 0.00344 0.02 0.014063 0.00906 0.00672 0.015 0.0175 0.010937v0.02l0.0225 0.00578 0.02 0.00672 0.021719-0.00844 0.012812-0.012813 0.00469 0.017031 0.00906 0.016719 0.0075 0.0125 0.024219 0.00406 0.010781-0.010781 0.020938-0.011719 0.025 9.375e-4 0.01375-0.01375 0.019531-0.00469 0.00328-0.0175h0.016719l0.016719-0.016563 0.0275-0.0175h0.021562l0.00594-0.0175h0.018281l0.014531-0.014687 0.017969 0.00797 0.014219 0.014219 0.0225-0.00922 0.019062 0.00578 0.015937 0.015938 0.013281 0.013281 0.024219 0.00828 0.016563 5e-3 0.023437-0.00406 0.0225 0.00578h0.04l0.01875-0.01875 0.019531-0.012969v-0.02l-0.014531-0.014531v-0.01875l-0.010469-0.0125 0.00328-0.021719 0.01125-0.01125 0.010469-0.02125 0.012969-0.012813 0.00953-0.00969 0.019219 0.014219h0.0325l0.01625 0.01625 0.02375-0.00625h0.020781l0.021719 0.00828 0.015313 0.015469 0.012188 0.025469 0.012812 0.012812 0.020469 0.00875 0.03 0.0025 0.020781-0.00578 0.021719-5e-3 0.019531-0.019531h0.02375l0.038438-0.00547 0.011562 0.0075 0.029219 0.00422h0.031719l0.011563 0.011562 0.00672 0.0125 0.0225 0.0075 0.025-0.00328h0.034219l0.024062-0.0075h0.026719l0.010469-0.010469 0.020313-0.020312 0.026719-0.0125 0.019219-0.013437 0.014531-0.014531 0.00703-0.024531 0.0125-0.0125 0.0175-0.0175 0.020938-0.00922 0.015781 0.00578 0.0175 0.00922 0.023281-0.013281 0.016719-0.01 0.0225 0.00406 0.030781 0.0025 0.0275-0.01 0.01625-0.01625 0.01125-0.02625 0.0175-5e-3v-0.023281l-0.0075-0.0075-0.0125-0.024219 0.00922-0.023281v-0.0225l5e-3 -0.035781 0.00672-0.014219-0.00672-0.026719-0.011719-0.011562-0.010312-0.010469-0.012969 0.010469-0.00922-0.011719 0.00672-0.016719 0.00922-0.0275 0.012813-0.012812 0.02625-0.015469 0.013438-0.013281 0.028281-0.020938h0.020781l0.019219-0.00656 0.025 0.00406 0.02-0.010781h0.0175l0.033281 0.00328 0.01 0.01 0.016719 0.0075 0.00672 0.0175 0.018281 5e-3 0.013281 0.013438 0.019219 0.015 0.00828 0.02 0.02 0.00328s0.015937 0.012441 0.015937 0.015781 0.014063 0.011719 0.014063 0.011719l0.012187 0.012031 0.010313 0.020469 0.025 5e-3 0.025-0.00937 0.00922-0.00891h0.0225l0.024219-0.00359 0.015781 0.00438 0.019219 5e-3 0.00953-0.00953 0.017969 0.00453 0.010781 0.010781 0.013281 0.011719v0.019219l0.011719 0.00391 0.015781 0.00937h0.015937l0.00406-0.015 0.015-5e-3 0.0175-0.01 0.0175-0.014219-0.00656-0.020781 0.015-0.019219 0.013281-0.021562 5e-3 -0.016719 0.02-0.010781h0.014219l0.00328 0.010781 0.012031 0.012031 0.010469 0.010469v0.018281l-0.0125 0.0125 0.016719 0.0175 0.00406 0.018281 0.00922 0.015781-0.00329 0.013287 0.011562 0.015938 0.00172 0.019062 0.00828 0.018437-0.00656 0.0175 0.013281 0.020781-0.0075 0.015-0.012031 0.012031-0.01375-0.00453-0.013438 0.00672-0.011563 0.011563v0.016719l-0.00922 0.00922-0.010469 0.010313 4.685e-4 0.01625 0.015 5e-3 0.015781 0.015938 0.0075 0.019062 0.00922 0.00922 0.017969 0.017969 0.00875 0.019531v0.016719l-0.01 0.02-0.00594 0.019061 0.00672 0.00672 0.015781 7.813e-4v-0.021561l0.00719-0.00719 0.00453-0.01625-0.00328-0.014063 0.00328-0.020938v-0.00828l0.010781 0.010781 0.00719 0.00719v-0.015469l0.00625-0.014219 0.00625 0.00625v0.01125l0.012031 5e-3 0.0175-0.01 0.020781-0.00828h0.010937l0.0125-0.023281 0.010781-0.023281 0.016719-0.0275v-0.019219l0.00156-0.04-5e-3 -0.030781 5e-3 -0.03v-0.0725l5e-3 -0.016719v-0.031719l-5e-3 -0.0325-5e-3 -0.024062-0.00656-0.026719-0.00922-0.024219 7.813e-4 -0.030781-0.00906-0.03 5e-3 -0.03v-0.035l-0.012969-0.012969-0.015469-0.02375-0.00406-0.011562-0.011719-0.02-0.016724-0.016719-0.00406-0.014219-0.00844-0.00828-0.02125-0.02125-0.017031-0.024531-0.010781-0.033437-0.0025-0.031563-0.00844-0.015937-0.00781-0.00781-0.015469 0.00203-0.0125-0.0125-0.00328-0.010781h-0.029219l5e-3 -0.00922 0.00219-0.00219h-0.12688l0.00797 0.014687 0.0075 0.014219 0.00797 0.00781-0.00281 0.02 0.00594-0.00359-0.023436 3.125e-4 -0.00594 0.00797v0.00828l-0.016719 0.00656v-0.010781l-0.00156-0.013281-0.019844 3.125e-4 0.011406-0.00531-0.01-0.0075v-0.00844l-0.00906 0.01v0.0125l0.011563 5e-3v0.013438l-0.00875 0.00875-0.01-0.01-0.00797-0.013906-0.01375-0.00766 0.00391-0.00891-0.00844-0.00828-0.012031 0.012031-0.010781 0.010781h-0.01375l-0.00984 0.00984h-0.012656l-0.0075-0.016875 0.00656-0.018281v-0.020938l0.00531-0.00875h-4.0031zm4.0584 4.2e-6v0.00703l0.012344-0.00516 0.00641 0.00656 0.00719-0.00719 3.126e-4 -0.00125h-0.02625l-6.6e-6 1e-5zm0.25344 0 0.011875 0.011875v0.010781l0.017344 0.023906 0.012969 0.00141 0.021719 0.00938 0.027344 0.012188 0.01 0.016562 0.015937 0.021719 0.017969 0.017969 0.021719 0.021719 0.026719 0.036719 0.012187 0.025937 0.014375 0.00438 0.015156 0.00859 0.014375 0.01375 0.011562 0.022344 0.00938 0.012188 0.01375 0.01375 0.014375 0.014375v0.01375l0.021719 0.020156 0.012187 0.012188v1.56e-4l0.00938 0.011406 0.011563-0.00938-0.00859-0.01875-0.011562-0.011406v-1.56e-4l-0.00359-0.014375 0.00578-0.014687h0.018281l0.00828-0.00828s0.00483 0.00235 0.010156 0.00469c6.5e-5 3e-5 9.15e-5 -3e-5 1.56e-4 0 0.00396 0.00174 0.00817 0.00346 0.010781 0.00422 8.8e-4 2.56e-4 0.00158 4.685e-4 0.00203 4.685e-4 5.025e-4 0 8.438e-4 -1.735e-4 0.00109-4.685e-4 0.00173-0.00165-0.00109-0.00828-0.00109-0.00828l-0.010156-0.012969-0.016875-0.00969-0.00969 0.00969-0.015937-7.812e-4 -0.00641-0.013594h-0.012344l-0.010781-0.010781h-0.01875l-0.012188-0.00797-0.014531-0.014375-0.00938-0.00937s-6.388e-4 -0.00515-0.00109-0.010469c-3.05e-4 -0.00387-4.96e-4 -0.00782-1.56e-4 -0.010156 5e-6 -4.5e-5 -5e-6 -1.11e-4 0-1.56e-4v-1.56e-4c1.2e-4 -7.012e-4 3.9e-4 -0.00111 6.25e-4 -0.00141 5e-5 -3e-5 0-1.215e-4 0-1.56e-4 5e-5 -3e-5 0-1.215e-4 0-1.56e-4 2.05e-4 -2.69e-4 2.515e-4 -6.003e-4 1.56e-4 -0.00109-1.13e-4 -5.9e-4 -3.61e-4 -0.00123-7.813e-4 -0.00203-3.899e-4 -7.5e-4 -8.357e-4 -0.00133-0.00141-0.00219-0.00285-0.00433-0.00734-0.00953-0.00734-0.00953l-0.012344-0.01875v-0.00875l0.00297-0.010781-0.00297-0.015156h0.010781l0.01375-0.00422v-1.56e-4l0.00719-0.00719 0.00297-0.00937-0.020322-0.00766-0.011406-0.00937-0.018125-0.010938-0.020938-0.010781-0.0044-0.00745-0.035911-0.019892-0.017969-0.015938-0.01875-0.00719-0.01375-0.00359-0.00609-0.00625h-0.082969l-3.7e-6 -2.08e-5zm0.62516 0.039063-0.00969 0.00969-0.00297 0.012344 5e-3 0.011563-0.00359 0.01875 0.00938 0.00203 0.00516-0.011406-0.00297-0.015938 0.00219-0.01375-0.0025-0.013281-1e-5 -2e-6zm-0.019844 0.096252-0.00359 0.0036 0.00281 0.012344 0.00578-0.00875-5e-3 -0.00719zm-0.02016 0.036093-0.00358 0.018749 0.00469 0.00469-0.00406 0.014063 0.00156 0.021562 0.00859 0.00359 0.00281-0.011562-0.00422-0.022969 0.00781-0.00797-0.00141-0.016563-0.012188-0.00359zm-0.00717 0.10657-0.01454 0.00219 0.00297 0.015 0.00141 0.014531 0.00578 0.00234v-0.011563l0.00438-0.00937v-0.013125zm0.035304 0.010932v0.0064l0.00937 0.00516v-0.010781l-0.00937-7.813e-4z" fill="#de0000" stroke="#de0000" stroke-linejoin="bevel" stroke-width=".0105"/>
 <path d="m0.94228 1.0092-0.017343 0.0175-0.00219 0.015312-0.030781 0.0575-0.014219-0.00656-0.029062 0.023281-0.013438 7.812e-4v0.028437l-0.015 0.00578v0.021719l-0.02 0.015781h-0.023281l-0.00578 0.055v0.021719l-0.035 0.0125-0.18672 7.813e-4 0.010781 0.0125 0.018438 0.0075-0.00422 0.00422-0.013281 0.00328v0.028281l0.015 0.013437 0.00156 0.024062-0.01 0.01-0.00656-0.016563-0.00672-0.015-0.018281-0.00578-0.011719-0.0125-0.014219-0.00672-0.0075 0.0075-0.00328 0.0125-0.0225-5e-3 -0.016719 0.01-0.019062-7.813e-4 -0.014219 0.019062-0.0175 0.00672-7.81e-4 0.0125-0.00906 0.010781-0.020781 9.375e-4 -0.00844 0.01v0.0175l-0.02 0.0125-0.013282 0.00328 0.00422 0.015-0.00922 0.016719-0.015781 0.015781-0.0025 0.011719 0.0075 0.016563 0.011563 0.011719-0.00406 0.013281-5e-3 0.0125 0.015781 0.00422 0.014219 0.013281v0.028281l-0.015937 0.013437-0.00594 0.0125-0.016719 5e-3 -0.00656 0.018281-0.00922 0.021719-5e-3 0.02 7.81e-4 0.014063-0.00828 0.00594 0.0125 0.0125-5e-3 0.018281-0.00422 0.016719-0.015781 5e-3 -0.016719-0.00594-5e-3 -0.0125-0.00906-0.01-0.0125 9.375e-4 -0.00422 0.015-0.010781 0.0125-0.015938 0.015781-0.0075 0.013281 0.0075 0.0125 0.00875 0.00875 0.01125-0.00953 0.0075 0.010937 0.00922 0.01 0.0125 0.00156 0.00922 0.00922 0.00656 0.016719-0.00156 0.013281-0.00594 0.0225-0.0075 0.00672h-0.01l-5e-3 0.0125-0.00828 0.00656 0.00922 0.014219 0.00906 0.016563v0.0175l-0.00828 0.018438-0.010781 0.0125 0.00406 0.011563 0.00766 0.00609h3.9978l0.00453-0.012812v-0.020938l0.0125-0.020781v-0.023281l0.0075-0.028437v-0.0425l-0.00828-0.00906v-0.028437l5e-3 -0.020781v-0.0525l0.01-0.016719-0.011719-0.011563-0.0075-0.019219 0.00422-0.026719 0.0125-0.0125-0.013281-0.026562 0.0025-0.0275 0.014062-0.028438 0.014219-0.014062 0.013281-0.0225 0.012188-0.012188 0.01875-0.01875h0.019062l0.014219-0.00906-5e-3 -5e-3 -0.00672-0.010937 0.01-0.00906h0.01l0.011719-0.010937 0.012969-0.012813-0.00547-0.017969 0.0175 0.00672 0.010781-0.011719-0.00906-0.00906-0.00422-0.015938 0.00422-0.0125 0.010781-0.010781 0.013281-0.00344 0.011719-0.014063 0.023281-0.010938v-0.0075l0.015938-0.0025 0.015-0.00578 0.00625 0.00625-0.01375 0.00453-0.00344 0.010938v0.010781s0.01125 0.00375 0.0075 0.0075 0.015938-7.812e-4 0.015938-7.812e-4l0.00578-0.015937v-0.0175l0.015781-0.00656 0.0025-0.0125-0.00578-0.029219 0.025-0.00406v-0.0225l0.013281-0.00422 9.375e-4 -0.015781h-0.0125l-0.00719 0.00703-0.00953 0.00875-0.010781 0.00172-0.011719-0.011719v-0.015l-0.01375-0.01375-0.00453-0.032969v-0.025l-0.015-0.023281 0.0025-0.023281-0.015-0.01-9.375e-4 -0.036719 0.00922-0.010781 0.0075-0.0275v-0.013437h0.0225l0.00656-0.019375h-0.95797l-0.00484 5e-3 0.019531 0.00875v0.0125l-0.018281-5e-3 -0.015781 7.812e-4 -0.021719 5e-3 -0.011721 0.02172 0.00422 0.021406h-0.020781l-0.018438 5e-3 -0.011563-0.011563-0.020938-0.0025v0.015l0.010938 0.010781v0.011719l5e-3 0.0125 0.00828 0.0275-0.00172 0.015781-0.019063-0.01-0.0075 0.0075-0.0175-0.00312-0.0125-0.00859-0.01625-0.01625-0.017187 4.685e-4v-0.013281s-0.0075-0.01167-0.0075-0.0075-0.00906 0.00828-0.00906 0.00828l-0.011719-0.011719 0.00672-0.00656 0.010781-0.00312v-0.018594l-0.00828-0.00813-0.015937 0.01v-0.015938l-0.00953-0.00953h-0.00937l0.00641-0.020469-0.02-0.00656-0.00578 0.00578-0.018281-0.014062s-0.00172 0.00781-0.00797 0.00781-0.00547 0.015469-0.00547 0.015469l-0.00656 5e-3 -0.00672-0.0075-0.00672 0.00172-0.00328 0.01-0.013281-0.00922-0.00875-0.00875-0.010469 0.00797-0.01-0.01-0.0025 0.01-0.00328 0.019063 0.0125 0.019219 0.0025 0.016719s0.00416 0.015 0 0.015-0.0225 0.00328-0.0225 0.00328l-0.0175 0.015-0.0175 0.00672-0.01-0.015937-0.0025 0.00922-9.376e-4 0.00672h-0.025625l-0.01375-0.01375 0.00563-0.00594-0.00625-0.00953-0.025 0.0075-0.031563 0.00578-0.020938 0.010938-0.015312 0.015312-0.00797 0.00797 0.011719 0.010781h-0.011719l-0.01-0.014219v-0.016563l-0.00875-0.00875-0.010469 0.014531-0.00328 0.01-0.016719-0.00672-0.014063-0.00328h-0.01l-0.0125 7.813e-4 7.813e-4 0.013437-7.813e-4 0.00672 0.01 7.812e-4 0.00625 0.00625-0.00797 0.015469-0.013281 5e-3 -0.014219 0.011562s-0.0025 0.015-0.01 0.015-0.020781 0.00422-0.020781 0.00422l-0.015 0.00922 0.00328 0.016563-0.015 0.00672 0.00422-0.015 0.00328-0.021719 0.01375-0.01375 0.00625-0.01875 0.02-5e-3 5e-3 -0.025781 0.0125-0.0125 5e-3 -0.023437v-0.00828l0.016719-0.02 0.00953-0.00953 0.00797-0.01625 0.00828-0.011719v-0.016719l0.00953-0.00953-0.010312-0.017813-7.813e-4 -4.685e-4h-0.28203l0.00703 0.00531 0.0075 0.01-0.016563-0.00328-0.016719 0.00328-0.0025 0.013437-0.025781-7.812e-4 -0.010469 0.010312v-0.012031l0.00797-0.015-0.015 0.0025-0.00422 0.00906-0.018281 0.0025-0.021719 5e-3 -0.00828 0.00844 0.015 5e-3 -5e-3 0.00578-0.0225 0.00672-0.00797 0.00781-0.03125 0.00469-0.00875 0.00875-0.022969 0.00875-0.00906 0.019062-0.023437-7.812e-4 9.375e-4 0.0125 0.011562 7.812e-4 -0.011562 0.00922-0.00844 0.011719 0.00719 0.00703-0.00469 0.010469 0.00672 0.0075-0.01 0.0025s0-0.0125-0.00625-0.00625l-0.00953 0.00953 0.00828 0.00828 0.01 0.00344 0.00828 0.0125-0.00828 0.00828h-0.015781l-0.021719 0.00922h-0.0325v5e-3l-0.02-0.0075h-0.039219l-0.016563 0.015 0.00406 0.020781 0.00672 0.00672-0.0075 0.016563-5e-3 0.02 0.00672 0.00672 0.01155 0.019216 0.015938 0.00578-9.375e-4 0.011719 0.00922 0.0125-0.00328 0.013281h-0.0225l-0.01469-0.014531-0.00531-0.00547 0.00578-0.016719-0.021719-0.011563-0.01125-0.01125-0.01375 0.00203-0.016563-0.00328-0.00969 0.00953 0.00125 0.00969 0.00344 0.010781-0.01 0.00922-0.013438-0.013438-0.00828-0.00828-0.0175 0.011562 0.00578 0.018438 0.0125 0.0125v0.00672l0.015 0.0075 0.00969 0.00953 0.00531 0.012969v0.01l-0.014063-0.013437-0.012969-0.012813-0.012969 0.00781-0.01-0.00828-0.0175-0.013438v-0.035781l0.015-0.015 0.00344-0.021719v-0.024062l0.00406-0.0175h-0.013281l-0.00578 0.0125 0.00578 0.014063-0.00672 0.0175-0.01 0.015938h-0.0175l-0.020782 0.020781-0.013281 0.013437 0.012031 0.012031-0.00203 0.017031 5e-3 0.015937 0.00578 0.018281-0.016719 0.016719-0.0075 0.021562-0.011563 0.018438 0.0025 0.026562-0.01 0.01 0.0025 0.015937h0.015l0.00656 0.00906 0.0125-0.00578 0.00969-0.00969 0.011562 0.011719 0.020469 0.00703 0.00672 0.00672 0.010781 0.01 0.00828 0.016719-0.00578 0.013281 5e-3 0.015781-5e-3 0.010937-0.013281 0.00406 0.00156 0.015v0.01l0.00719 0.00719 0.01875 0.00531v0.011719l-0.019219-0.00438-0.016719-0.016563v-0.0125l-7.812e-4 -0.02 0.013281-0.013281-0.01-0.025937-0.00781-0.00766-0.00547-0.01625-0.019219 0.0025h-0.0175l-0.01125 0.01125-0.01125 0.01125 0.00172 0.015781 0.00422 0.0175-5e-3 0.02-0.010469 0.010469-0.012968 0.012812-0.0075 0.0075v0.0175l-0.016563 0.00922-0.020938 0.00578-5e-3 5e-3h-0.010782s-0.01209 0.00541-0.00875 0.00875c0.00333 0.00333-0.00297 0.014687-0.00297 0.014687h-0.015l-0.01-0.014219-0.014062 7.813e-4 -0.016719-0.011563-0.0125-0.00609-0.0125-0.019062v-0.015781l0.0125 0.00422 0.00875 0.00875 0.01375 0.00875 0.0125-0.00828 0.020782 0.00406 0.011719-0.00656 0.0125-0.018438 0.021719-0.021562 0.018281-5e-3 0.00328-0.030937 0.018438-0.014063 0.0025-0.013438-0.014687-0.014531-0.00625-0.022031 0.00672-0.015937 0.00922-0.031563 0.00578-0.035938 0.016719-0.025 0.00406-0.0225 5e-3 -0.028281-0.014063-0.0125 0.00656-0.021719 0.02375-0.02375 0.00375-0.030313 0.00844-0.00844-0.0075-0.028281h-0.0175l-0.01-0.01h-0.02l-0.01-0.014219-0.015938 0.00844-0.00906 0.02-0.00844 0.02-0.010782 0.024062-0.014214 0.014219-0.00625 0.00625-0.017812 0.00875-0.016719 0.00578-0.00922 0.011719-0.00578 0.016563 0.010782 0.00344v0.0125l-0.0075 0.01-0.00406 0.02v0.013281l-0.016719 0.00844-0.00797 0.00781 0.00875 0.017969 0.015938 0.010781-0.00344 0.023437 0.00922 0.021563 0.013282 0.00422-0.019062 0.0175v0.0175l-0.016719 0.01-0.01172-0.018439v-0.016563l-0.014062-0.019219-0.013438-0.020781-0.019532-0.019688-0.010468-0.02125-0.015782-0.015781-0.019531-0.019531-0.017187-0.02125-0.00656 0.00656-0.015469-0.015313-0.012968 0.00375-0.015 0.0075 0.0025 0.024062-0.00328 0.02-0.015781 0.0025v0.013437l-0.016719-0.00422-0.00703 0.00703-0.00125 0.015469-0.01594-0.013281v-0.014219l0.013437-0.00922 0.0025-0.011563-0.00875-0.00875-0.022188 0.00703h-0.0175l-0.00875 0.00875-0.025781-0.025781-0.02375-0.00469-0.025 0.010937h-0.013281l-0.019219-0.0175 0.0125-0.00422 5e-3 -0.015h0.015781l-0.00578-0.021719h-0.014219l-0.026562 0.00844v0.015h-0.00844l-0.00906-0.016719h-0.018438l-0.031562-0.00422-0.0175 0.00344-0.0325-0.00594 0.00328 0.013438-0.020781-0.01-0.021719 5e-3v0.015l-0.020781 0.01-0.018437-0.00844-0.019062-5e-3v-0.016563l-0.00672-0.02v-0.021719l0.026719-0.00922 0.0175 0.00422 0.0125 0.0125 0.0075-0.0075 5e-3 -0.015v-0.029219l-0.014218-0.021563-0.01875-0.01875-0.00453-0.010469h-0.014219l0.00328 0.02v0.020781l-0.020781 0.0125v0.013437l-0.021719 0.010781-0.00656 0.014219v0.020781l-0.016719 0.024219-0.02 0.00406-0.014531 0.014687-0.010469 0.012813v-0.018281l0.011719-0.011719-0.014219-0.021719-0.00953-0.00938h-0.015469l-0.0225 0.00687-0.02-0.010781-0.024218 0.00906-0.025782-0.00406-7.81e-4 0.029219-0.014219 0.011719 0.00578 0.014219-0.00703 0.00687-0.02375-0.00687-0.00922-0.019218-0.014532-0.014531-0.00453-0.024688-5e-3 -0.0375h-0.014219l-0.014219 0.015v0.014219l-0.00156 0.018281 0.010781 0.010937-0.00422 0.020781-0.020782 0.015-0.018281-0.018281-0.017188-0.017187 0.012188-0.02125-0.0075-0.021562-5e-3 -0.0175 0.015313-0.015469 0.00625-0.029531 0.01625-0.01625 0.020468-0.00625 0.011719-0.025937 0.00328-0.018281-0.012187-0.012188 0.00906-0.00906-3.1e-4 -0.02125-0.00344-0.018438 0.00797-0.00781 0.00547-0.014687 0.011562 0.011719-0.00938 0.00953-0.00375 0.01875 0.011563 5e-3 0.00578 0.030938 0.010781 0.018281 0.00609 0.016719 0.0075 0.0175 0.015781 0.015781v0.0225l0.015469 0.015469 0.024531 0.01375 0.0225 0.00828 0.025625-5e-3h0.023438l0.022031-0.022031 0.014531-0.025469 0.00359-0.03 7.95e-4 -0.018281-0.014531-0.014687-4.7e-4 -0.025313-5e-3 -0.011719 0.00422-0.020781v-0.024219l-0.00672-0.023281-0.01375-0.01375v-0.019687l-0.012187-0.00578v-0.00953h-0.22641zm0.83531 0-0.00313 0.00313-0.019688 0.00516-0.018906 0.00531v0.00594l0.01625 0.00578 0.00641 0.00656-0.018907 0.00375-0.00187 0.00797-0.00875 0.00844-0.00828-0.00813h-0.017344v0.011406l-0.00391 0.01125-0.013594-0.00531-0.012031 0.00766 0.00906 0.00984-0.013594 0.014375-0.0175 0.00516-0.00219 0.00984-0.00531-0.00219-0.00453-0.00531-0.014375-0.00156-0.012031 0.016719-0.00312 0.016563 0.00906 0.012969 0.011406 6.25e-4 0.00531 0.01375 0.00531 0.00141-7.81e-4 0.018125 0.00828 0.00687-0.00453 0.0075-0.012031 0.00391-0.00453 0.013594 0.012031 0.012812 0.015938 0.015156 0.00531-0.00313 0.00906 0.01375h0.00828l0.012031 0.00672v0.00984l0.012968-0.00609 0.00453-0.00453-0.00391-0.013594-0.00828-0.012812 0.00609-0.019688-0.00687-0.019687 0.00531-0.013594v-0.018906l0.010625-0.010625 0.00453-0.015156 0.012813-0.00516v-0.014375l0.012969-0.010625h0.015781l0.00984-0.016719 0.00766-0.00984h0.00969l0.00719-0.00719 0.00859-0.00844 0.00656 0.00641v-0.01844l0.00641 0.00641h0.00906l-0.00219-0.015156 0.00906-0.00812v0.012812l0.011406-0.00828 0.013594-0.00984v-0.013594l0.013594 0.00375 0.00156-0.00828h0.012813l0.014375 0.00156 0.012031-0.00469-0.00172-0.00375h-0.12891zm2.7497 0 0.00297 0.00281 0.00672 0.014062 0.00828 0.00844 0.0125 0.0125v-0.020938l0.015 0.0075 0.00672 0.016719 0.00578-0.019219-0.00109-0.021875h-0.056875zm0.11016 0 0.00125 0.00109 0.01 0.030781 0.00828 0.020781 0.0075 0.025937 0.00672 0.0275 0.015781 0.020781 0.01 0.030781 0.00422 0.026719 0.00828 0.025-0.00625 0.00625-0.0075 0.0075 0.00797 0.01375-0.00594 0.0125-0.00703 0.00703v0.00719l0.015469 0.00328 0.014062 0.02 0.0025 0.019219 0.011719 0.011563v0.0175l0.016719 0.0175 0.024063 0.024219 0.010937 0.02 0.0225 0.015 0.023281 0.0125 0.035781 0.010781 0.016719 0.00359 0.015 0.01 0.00922 0.0125 0.031563 0.016563 0.0275 0.011719 0.029219 0.013281 0.015 0.015h0.016719l0.012031 0.012188 0.015468 0.00766h0.024063l0.00922 0.0125v-0.016562l-0.00422-0.0225-0.00828-0.035-0.00328-0.026719-0.015937-0.015-0.021562-0.021563-0.014219-0.00594-0.00828-0.03 0.00656-0.015v-0.015l0.018438-0.0025v-0.01l-0.024218-0.00578-0.00703-0.00719-0.014687-0.00531-0.016563-0.025937-0.00594-0.033281 0.00844-0.018281 0.014062-0.00922 0.01-0.00672-0.00578-0.015-0.016719-0.013281-0.028281 0.00328-0.012031-0.012031-0.015469-0.00375-0.0175-0.029219-5e-3 -0.02 0.016719-5e-3 0.00656-0.015781-0.01625-0.01625h-0.01375l-0.00844 0.00859-0.021562-0.00484-0.021562-0.015-0.00422-0.019219-0.021719-0.021562-0.00578 0.0125-0.00797 0.00781v0.00719l0.00625 0.014063h-0.023281l-0.01375-0.01375-0.022971-0.012031-0.0025-0.018281-0.00328-0.023437-0.015781-0.015781-0.00188-0.00188h-0.089375zm0.13016 0 0.00344 0.00438 6.25e-4 0.012969 0.011563 0.00438-0.00282-0.012969-0.00438-0.00875h-0.00844zm0.33109 0-0.00828 0.00562 5e-3 0.00516 0.00687-0.00672 0.00406-0.00406h-0.00766zm-2.7486 0.03-0.00406 0.00406 0.00531 0.00469 0.00875-0.0025-0.01-0.00625zm2.7152 0.00609-0.01375 0.00578-0.012968-5e-3 -0.010156 0.00359 5e-3 0.010781h0.034687l0.010782-0.010781-0.013594-0.00438zm-2.7312 0.038125-0.00828 0.00672 0.00453 0.00906 0.0075-0.00141-0.00375-0.014375zm0.62469 0.00516-0.00828 0.00156-0.013906 0.014063v0.00937h0.011719l0.00375 0.00906 0.00984-0.00453 0.01125-0.01125v-0.018281h-0.014375zm-0.55969 0.062812-0.00906 0.00453s0.00303 0.00868 0.00375 0.00984c5e-6 -2.5e-5 1.56e-4 4.5e-5 1.56e-4 0 0-0.00152 0.00672-0.00297 0.00672-0.00297l-0.00157-0.011406zm-0.32813 0.030312-0.00828 0.00297-0.00313-7.812e-4 -0.00828 0.00609 0.00297 0.00687-0.00594 0.00828 0.00141 0.00531 0.01375 0.00375 0.012813-0.00609 0.0075 7.812e-4v-0.0075l-0.012031-0.00313 0.00594-0.00672-0.00672-0.00984zm0.26016 7.813e-4 -0.00156 0.00828h0.012812l0.00687 0.00672 7.813e-4 -0.01125-0.00766-0.00156-0.01125-0.00219zm-0.15578 0.020312-0.00687 0.00609 0.00453 0.00687 0.00906-0.00609 0.011406 0.00297-0.00297-0.00672-0.015156-0.00313zm-0.034844 0.030312-0.00375 0.00984 0.00609 0.00531 0.00672-0.00844-0.00906-0.00672zm-0.67688 0.00453-0.016562 0.00453-0.00984 0.012812-0.0075 0.00984 0.00516 0.014375 0.012188 0.00453 0.01125 0.00453 0.010625-0.0075 0.012804 0.00219 0.00687-0.015781-0.010625-0.013594-7.815e-4 -0.011406-0.013593-0.00453zm-0.49 0.010625-0.00297 0.00453 0.00531 0.00672 0.00672-0.00672-0.00906-0.00453zm1.2742 0.010469-0.00672 0.00234-0.00531 0.00672 0.00297 0.00906 0.00531 0.00672 0.00766-0.00828 0.00297-0.00969-0.00688-0.00687zm-2.207 0.018281-0.00438 0.00812-0.010937 0.00313-0.013125-0.00297 0.024532 0.055938 0.042187 0.05 0.027656-0.014063 0.00578-0.012187-0.0025-0.016094-0.00656-0.00453-0.00656-0.010781 0.00156-0.0125v-0.014219l-0.011406-0.00953-0.00359-0.00344-0.00547 0.00547 0.00641 0.00656-0.00266 0.00953-0.011875-0.00234-0.00172-0.01-0.00766-0.00219-4.7e-4 -0.012812-0.00938-0.00953-0.00984-0.00156zm2.1708 0.0075-0.00906 0.00234-0.00828 0.00828-0.00906 0.0075 0.00828 0.00594 0.00687-0.00594h0.010469l0.00984-0.00906-0.00906-0.00906zm-0.48016 0.018906-0.012188 0.00609-0.00906 0.00297 0.00234 0.019687 0.00141 0.010625 0.00844 0.00219 0.00297 0.015938 0.015938 0.00156 0.00531-0.012969-0.00766-0.012812 7.81e-4 -0.014375-0.00828-0.018906zm3.3569 0.27406-0.00422 0.012969-0.00688 0.00687 0.00781 0.00781 0.00469 0.00984-0.00141 0.012969-6.25e-4 0.016563 0.0075 0.0075 0.00828-0.00469v-0.017344l0.00766-0.0075-0.00625-0.014844-0.01-0.01 6.25e-4 -0.012969-0.00719-0.00719zm0.031093 0.11234v0.010938l0.00719 0.00359 5e-3 -0.00656-0.012189-0.00797zm-0.62078 0.16297v0.010781l0.00422 0.012188 0.00578-0.00141 0.013906 0.00484 0.00953 0.00953v0.00547l0.00969 0.00969-0.00281 0.014375-0.016563-5e-3v0.010781l-0.00516 0.014531 0.020313 0.00641 0.01 0.01875 0.01875 0.01875v0.010781l0.014375 0.019844h0.13047l-0.017187-0.00953-0.017969-0.015937-0.01875-0.00719-0.01375-0.00359-0.02125-0.022031-0.01125-0.011094-0.00719-0.019531-0.00859-0.012188h-0.010781l-0.020313-0.012969-0.00422-0.011563-0.018125-0.00359-0.01-0.010156-0.00516-0.011562-0.00937-0.00422-0.018594-0.00516zm0.68641 0.047656-0.00734 7.813e-4v0.02875h0.010156l-0.00281-0.012188v-0.01734zm-0.86312 0.045469-0.01375 0.00281-0.00719 0.00797v0.020937l0.012344-0.00516 0.00641 0.00656 0.00719-0.00719 0.00297-0.014375-0.00797-0.011563zm0.10188 0.00109-0.018437 0.00406-0.00906 0.00922-0.015 0.00828 0.00906 0.016719 0.0075 0.014219 0.00797 0.00781-7.813e-4 0.00578h0.16641l-0.00109-0.00203-0.00781-0.00781-0.015469 0.00203-0.0125-0.0125-0.00328-0.010781h-0.029219l5e-3 -0.00922 0.00578-0.00578 0.00797-0.00797-0.010469-0.010469s-0.011611 5e-3 -0.015781 5e-3 -0.023281 0.00344-0.023281 0.00344l-0.00797-0.00797-0.017969-0.00203h-0.021562zm-0.080937 0.054844-0.00906 0.01v0.00125h0.012813l-0.00375-0.00281v-0.00844zm-0.0425 9.375e-4 -0.010313 0.010312h0.022813l-0.00406-0.00203-0.00844-0.00828zm0.87922 0.00687-0.00344 0.00344h0.00406l-6.25e-4 -0.00344z" fill="#039" stroke="#039" stroke-width=".0105"/>
</svg>
