<?xml version='1.0' encoding='utf-8'?>
<svg xmlns="http://www.w3.org/2000/svg" enable-background="new 0 0 2356.176 1726.24" version="1.1" viewBox="0 0 2356.176 1726.24">
		<path d="m1919.8 1663.1c0.378 0 0.707-0.04 1.014-0.104h-2.556c0.463 0.072 0.953 0.104 1.542 0.104z" fill="none"/>
		<polygon points="390.59 1126.5 390.59 1126.5" fill="#00853F"/>
		<path d="m362.43 1099.3c-0.789 0.425-1.214 1.214-1.214 2.185 0 1.457 0.667 2.246 0.971 3.641 0.728 3.156 1.092 4.978 1.942 8.012 0.546 2.064 1.82 3.035 2.913 4.856 1.275 2.125 2.914 2.852 4.37 4.856 0.729 1.032 1.215 1.82 1.943 2.913 1.395 2.064 2.731 2.731 4.612 4.37 0.85 0.728 1.275 1.699 2.428 1.699 0.97 0 1.639-0.789 1.942-1.699 0.364-1.153 0.729-1.943 0.971-3.156 0.242-1.456-0.182-2.974 0.971-3.884 0.546-0.425 1.274-0.121 1.942-0.242 1.396-0.304 1.76-1.578 2.671-2.671 1.335-1.578 2.185-2.671 3.642-4.128 1.153-1.153 2.488-1.335 4.127-1.699 2.003-0.425 3.096-0.728 5.098-1.214 3.884-0.971 5.827-2.246 9.469-3.884 3.824-1.699 6.009-2.852 8.982-5.827 1.396-1.396 2.913-1.821 3.642-3.641 0.849-2.124 1.335-3.399 1.942-5.584 1.093-4.067 2.124-6.373 4.613-9.711 0.789-1.093 1.214-1.943 2.184-2.913 1.7-1.699 3.338-2.003 4.37-4.128-1.032-0.728-2.427-1.093-2.427-2.427 0-0.607 0.971-0.607 0.971-1.214 0-1.396-0.667-2.064-0.971-3.4-0.546-2.306-0.728-3.762-1.214-6.069-0.486-2.367-0.79-3.884-1.699-6.069-0.425-1.153-0.425-2.306-1.457-2.913-0.971-0.607-1.82 0.243-2.913 0-2.428-0.607-3.581-1.76-6.069-1.942-2.003-0.122-3.217-0.365-5.098-0.971-1.457-0.486-2.064-1.699-3.642-1.699-1.214 0-1.82 1.032-2.185 2.185-0.607 2.002-0.667 3.459-1.943 5.098-1.942 2.55-4.491 2.792-7.769 3.156 0.183-1.822 0-2.792 0-4.613h-1.942l-4.856 1.215c-1.881-0.304-3.277-0.668-4.37-2.185-0.728-1.032-1.881-2.428-2.913-3.156-2.61-1.032-4.249-1.518-7.041-2.185-1.153-0.243-1.699-0.971-2.913-0.971-1.275 0-1.578 1.214-2.428 2.185l-2.427 2.913c-1.76 2.064-2.489 3.521-3.884 5.827-2.428 3.884-5.827 5.644-5.827 10.196 0 3.096 1.699 4.613 1.699 7.708v6.191c0 1.517 0.546 2.306 0.729 3.824 0.364 3.338 0.485 5.159 0.485 8.497 0 0.728 0.183 1.396-0.242 1.943-0.485 0.604-1.457 0.3-2.185 0.725z" fill="#00853F"/>
		<path d="m407.58 1118.7c0.607-0.607 1.032-1.153 1.699-1.699 0.971-0.789 2.428-1.093 2.428-2.427 0-1.275-0.971-2.671-2.185-2.428-1.215 0.243-1.821 0.911-2.914 1.457-2.671 1.335-4.491 1.153-7.283 2.185-1.639 0.607-2.792 0.788-4.127 1.942-1.578 1.336-1.639 3.035-2.671 4.856-0.85 1.457-1.457 2.306-1.943 3.884 1.214-0.364 1.943-0.97 2.914-1.699l0.97-0.242c-0.546 1.821-1.214 2.913-1.456 4.856 1.274-0.608 1.76-1.457 2.913-2.185 2.61-1.699 4.127-2.853 7.041-4.127 2.308-0.974 2.854-2.613 4.614-4.373z" fill="#00853F"/>
		<path d="m433.56 1085.2c-1.214 1.639-1.456 2.975-2.185 4.856-0.789 1.943-1.76 3.156-1.76 5.281 0 1.153 0.061 1.82 0.061 2.974 0.546 0.061 0.911 0.243 1.457 0.243 0.971 0 1.092-1.093 1.942-1.457 1.032-0.425 1.761-0.242 2.914-0.242 0.789 0 1.274-0.364 1.942-0.729 0.79-0.425 1.518-0.607 1.943-1.456 0.849-1.699 0.667-2.975 0.97-4.856 0.243-1.517 1.215-2.306 1.215-3.884 0-0.79-0.425-1.215-0.729-1.943-0.364-0.849-1.032-1.881-1.942-1.699-0.425 0.061-0.546 0.667-0.971 0.728-2.005 0.424-3.643 0.545-4.857 2.184z" fill="#00853F"/>
		<path d="m395.2 1169.2c0 0.789 0.485 1.214 0.728 1.942 0.365 1.153 0.667 2.671 1.942 2.671s1.457-1.639 1.457-2.913c0-3.035-0.546-5.22-1.699-8.012-0.425 1.154-0.667 2.003-1.214 3.156-0.546 1.153-1.214 1.882-1.214 3.156z" fill="#00853F"/>
		<path d="m386.71 1171.6l-1.456 0.486c-0.061 0.79-0.243 1.214-0.243 2.003 0 2.185 2.064 2.974 3.884 4.066 1.699 1.032 2.792 1.639 4.856 1.943l0.242-0.971c-1.578-1.578-3.641-1.335-4.855-3.156-0.365-0.607-0.243-1.214-0.243-2.002 0-0.546-0.182-0.85-0.242-1.396l-1.943-0.973z" fill="#00853F"/>
		<path d="m809.01 1274.4c-0.425-0.091-0.667-0.365-1.092-0.486-1.153-0.334-1.851-0.546-2.913-1.093-1.275-0.667-2.003-1.335-3.46-1.335-0.91 0-1.335 0.515-2.124 0.97-2.246 1.306-3.125 2.61-5.462 3.763-0.88 0.425-1.396 0.698-2.185 1.214-0.88 0.577-1.153 1.245-1.943 1.943-0.394 0.334-0.789 0.425-1.214 0.728-1.062 0.82-1.457 1.578-2.549 2.307-1.85 1.214-3.125 1.699-4.977 2.913-0.789 0.517-1.153 1.062-1.942 1.578-0.425 0.273-0.729 0.425-1.093 0.728-1.093 0.941-1.972 1.244-3.4 1.578-1.638 0.394-2.578 0.728-4.278 0.728h-2.368c-0.849 0-1.366-0.272-2.216-0.364-1.547-0.183-2.427-0.486-3.884-0.971-1.972-0.638-3.155-0.88-4.977-1.943-1.76-1.032-2.792-1.578-4.612-2.427-0.941-0.425-1.426-0.88-2.427-1.214-0.759-0.243-1.305-0.273-2.064-0.486-1.001-0.273-1.639-0.486-2.701-0.486h-2.489c-0.607 0-0.88 0.303-1.487 0.364-1.275 0.152-2.064 0.061-3.277 0.364-2.852 0.759-4.309 1.609-7.162 2.428-1.062 0.303-1.699 0.607-2.792 0.849-0.941 0.212-1.487 0.546-2.428 0.729-2.64 0.546-4.218 0.485-6.797 1.214-1.001 0.273-1.639 0.394-2.671 0.607-0.607 0.121-0.971 0.242-1.578 0.364-2.427 0.486-3.824 1.214-6.312 1.214-1.943 0-2.975-0.515-4.856-0.971-1.729-0.425-2.761-0.365-4.552-0.365-1.639 0-2.549 0.121-4.188 0.243l-0.971 65.549-306.87-0.971-0.607-0.243c-0.667-0.091-1.032-0.364-1.699-0.364-2.033 0-3.459-0.091-5.099 1.093-0.516 0.364-0.637 0.911-0.97 1.456-0.425 0.698-0.79 1.032-1.214 1.7-0.698 1.062-1.639 1.547-1.639 2.823v4.794c0 1.396-1.093 1.882-2.003 2.944-0.941 1.093-1.396 2.094-2.792 2.549l-3.642-0.728c-1.79 0.88-1.942 2.58-1.942 4.491l0.849 5.827c0 2.125-0.151 3.52-1.214 5.341-0.88 1.547-1.639 2.458-3.156 3.399-0.546 0.334-1.309 1.001-1.976 1.001 1.005 1.619 1.53 2.931 2.098 4.946 0.485 1.822 1.699 2.854 1.699 4.795v5.22c0 2.063 0.728 3.216 0.728 5.28 0 2.124-0.728 3.217-0.971 5.341-0.121 1.214-0.303 2.427-0.486 3.642-1.092 4.552-1.578 7.222-1.942 11.895-0.183 2.246-0.061 3.642-0.486 5.827-0.79 3.945-2.489 5.886-3.884 9.71-1.092 2.975-1.457 4.916-2.185 8.012-0.667 2.792-1.518 4.249-2.185 7.041-1.214 5.098-0.911 8.132-1.457 13.352-0.121 1.153-0.546 1.82-0.728 2.913-0.304 1.943-0.182 3.156-0.486 5.098-0.425 2.975-1.092 4.674-1.092 7.708v5.888c0.911-4.188 1.032-6.615 1.335-10.925 0.304-4.734 2.185-7.162 2.185-11.895 0.183-0.304 0.365-0.607 0.486-0.971 0.486 1.518 0.971 2.427 0.971 4.066v4.916c0.728 0.729 1.093 1.396 1.214 2.428l-5.584 23.548c0.607 1.882 1.699 2.853 1.699 4.856 0 1.336-0.425 2.064-0.486 3.399 0 0.425 0.365 0.546 0.365 0.971s-0.425 0.607-0.365 0.971c0.183 0.789 0.911 1.093 1.457 1.699 0.789 0.911 1.153 1.699 1.457 2.913l-1.215 8.74v5.888c0 3.763 1.699 5.826 1.699 9.589v7.162c0 2.368 1.215 3.642 1.457 6.009 0.183 1.517-0.182 2.367 0 3.884 0.243 2.064 1.032 3.035 1.943 4.856 0.728 1.457 0.789 3.399 2.427 3.399 1.76 0 2.489-1.395 3.884-2.427 1.639-1.214 2.913-1.457 4.856-2.185 3.338-1.214 4.916-2.731 8.011-4.613 1.518-0.91 2.671-1.456 4.128-2.427 1.153-0.789 1.639-1.76 2.913-2.427 3.217-1.761 5.462-2.246 8.74-3.884 2.064-1.032 2.852-2.428 4.856-3.642 4.552-2.792 6.797-5.827 8.497-10.925 0.243-0.728 0.062-1.518 0.729-1.942 0.303-0.183 0.667 0.303 0.97 0.242 1.943-0.425 3.035-0.911 4.856-1.699 2.914-1.335 4.553-2.913 7.769-2.913 3.824 0 6.009 0.303 9.711 1.214 1.153 0.242 1.821 0.486 2.913 0.971 1.153 0.485 1.882 1.032 2.914 1.699 3.217 2.185 5.219 3.459 7.283 6.797 0.667 1.153 1.395 1.821 2.185 2.913 0.971 1.336 1.699 2.914 3.399 2.914 2.003 0 0.667-4.37 2.671-4.37 1.335 0 1.942 1.153 2.671 2.185 1.032 1.396 2.002 2.246 3.641 2.671 2.185 0.607 3.763 0.303 5.827 1.214 2.306 1.032 3.642 1.76 5.826 2.913 1.154 0.607 1.639 1.76 2.914 1.943 1.274 0.182 2.064 0 3.399 0 0 2.974-0.243 5.947 2.427 7.283 2.731 1.335 4.249 1.942 7.041 3.156 4.674 2.002 7.526 3.641 12.624 3.641 1.335 0 2.367 0.304 3.399-0.486 1.153-0.91 0.79-2.367 0.729-3.884-0.061-2.488 0.242-4.612 2.185-6.069 1.456-1.093 2.367-2.125 4.127-2.671 1.395-0.424 2.489-0.303 3.884-0.728 1.699-0.486 2.549-1.699 4.37-1.699 1.153 0 1.82 0.486 2.913 0.728 2.307 0.546 3.703 0.729 5.827 1.699 2.124 0.971 3.459 1.943 5.827 1.943 3.399 0 4.976-2.185 8.011-3.642 3.399-1.578 5.462-1.881 9.226-2.427h12.806c0.789 0 1.214 0.425 2.003 0.486 4.006 0.486 6.19 1.699 10.196 1.699 1.76 0 2.852-0.364 4.37-1.214 0.425-0.243 0.911-0.304 1.214-0.729 0.971-1.396 1.032-2.61 1.943-4.127 1.214-1.943 2.671-2.913 4.916-2.913h6.19c2.306 0 3.581 0.728 5.888 0.728 2.671 0 4.37 0.061 6.797-0.971 0.85-0.364 1.153-1.214 1.699-1.942 1.093-1.517 2.003-2.428 2.913-4.128 1.153-2.124 1.943-3.58 1.943-6.069 0-1.699-0.182-2.852 0.486-4.37 1.214-2.61 2.306-4.006 4.37-6.069 1.518-1.518 3.034-2.064 3.641-4.127 0.425-1.578 0.486-2.549 0.486-4.188 0-0.697 0.6-3.995 0.971-1.396 0.242 1.578-0.121 2.489 0 4.128 0.304 4.249 0.121 8.315 3.884 10.196 3.156 1.578 5.402 2.003 8.254 4.128 2.246 1.639 1.274 4.309 2.671 6.797 1.76 3.156 4.673 3.521 8.011 4.856 3.277 1.336 4.734 3.035 7.284 5.584 2.67 2.671 4.491 3.884 7.525 6.069 1.518 1.093 1.699 2.549 3.156 3.642 1.032 0.728 2.064 0.728 3.399 0.728 2.185 0 2.975-1.881 4.856-2.913 2.731-1.518 4.674-2.185 7.829-2.185h4.977c1.396 0 2.064 0.789 3.156 1.699l0.061 6.555c0.728 0.061 1.153 0.242 1.882 0.242 1.335 0 2.123-0.486 3.459-0.486 1.214 0 1.942 0.547 3.156 0.486 0.242 0 0.364-0.364 0.607-0.364 2.549 0 2.549-3.156 3.52-5.463 1.032-2.368 2.792-3.338 5.098-4.37 2.246-1.032 4.067-0.243 6.313-1.214 1.639-0.668 2.549-1.943 4.37-1.943 2.367 0 2.367 3.217 4.37 4.37 1.395 0.789 2.549 0.911 4.127 1.214 3.521 0.667 5.644 0.486 9.226 0.486 1.943 0 2.974 0.607 4.856 0.971 2.549 0.486 4.127-0.304 6.737 0-0.061 1.517 0.304 2.367 0.304 3.884 0 0.667-0.365 1.032-0.365 1.699s0.365 1.032 0.365 1.699c-0.062 1.214-0.304 1.82-0.304 3.035 0 2.124-0.061 3.58 0.789 5.462 0.911 1.943 2.003 3.035 3.884 4.127 1.639 0.911 2.793 1.699 4.734 1.699 2.003 0 3.096-1.032 4.491-2.427 0.971-0.971 1.882-1.275 2.913-2.185 1.821-1.578 2.428-3.156 4.37-4.613 4.128-3.095 6.555-5.037 10.439-8.497 3.521-3.156 5.159-5.463 8.254-8.982 0.971-1.093 1.396-2.124 2.428-3.156s2.002-1.578 2.671-2.913c1.032-2.124 0.97-3.703 0.97-6.069 0-2.975-0.97-4.613-2.185-7.284-1.517-3.277-2.427-5.219-3.399-8.739-1.578-5.706-2.913-8.923-2.913-14.809 0-2.307 0.607-3.642 1.214-5.827 1.153-3.945 1.882-6.191 3.399-9.954 0.85-2.064 1.943-3.096 2.914-5.098 1.942-3.884 3.58-6.191 7.04-8.74 1.154 2.002 1.761 3.338 3.4 4.856 0.91 0.849 1.639 1.456 2.913 1.456 2.549 0 3.763-0.788 6.069-1.942 1.639-0.364 2.367-1.214 3.884-1.943 0.616-0.298 1.151-0.556 1.661-0.804v-205.52c-1.347-0.239-2.411-0.475-3.966-0.876z" fill="#00853F"/>
		<path d="m811.8 1490.4c-2.61 0.79-4.066 1.699-6.797 1.699-1.639 0-2.61 0-4.128-0.486-1.76-0.546-2.488-2.185-4.37-2.185-2.549 0-5.098 1.517-5.098 4.067v3.034c0 0.364 0.242 0.607 0.242 0.911-0.121 0.91-1.335 0.728-1.942 1.456-1.76 2.064-2.428 3.824-2.428 6.555l4.734 22.821v8.557c0 3.338 6.676 2.185 6.676 5.523 0 1.7-1.335 2.428-2.185 3.885-1.214 2.124-2.792 2.73-4.37 4.612-1.153 1.396-1.942 2.306-3.399 3.399-1.153 0.85-2.003 1.335-2.913 2.427-2.975 3.46-3.217 6.434-4.856 10.682-0.728 1.881-1.699 2.731-2.913 4.37-1.093 1.456-1.882 2.549-3.642 3.155-1.032 0.365-1.82 0.062-2.913 0.243-3.521 0.546-4.795 3.096-7.284 5.584-4.006 4.006-8.132 5.098-13.838 5.098-2.246 0-3.58-1.153-5.34-2.427-2.064-1.518-3.399-2.427-4.856-4.612-1.457-2.246-0.971-4.188-1.699-6.798-0.971-3.338-2.975-5.037-6.069-6.555-1.396-0.667-2.428-0.607-3.884-1.214-1.336-0.546-1.943-1.335-3.4-1.699l-8.011 1.943c-1.82-0.243-2.792-1.215-4.612-1.215-2.246 0-3.338 1.639-5.099 2.914-3.641 2.731-5.887 4.552-9.954 6.554-2.064 1.821-3.277 3.885-6.069 3.885-1.395 0-2.124-0.971-3.399-1.457s-2.185-0.486-3.399-1.214c-1.76-1.032-2.489-2.124-4.128-3.399-3.702-2.854-6.312-4.856-10.986-4.856h-5.219c-2.246 0-3.459-0.546-5.644-0.971-3.581-0.728-5.645-1.578-8.983-2.913-2.609-1.032-4.127-2.003-6.555-3.399-1.577-0.911-2.792-0.911-4.369-1.7-2.368-1.214-3.703-2.246-5.341-4.369-1.457-1.882-2.368-2.914-4.37-4.128-1.943-1.214-3.156-1.942-5.402-1.942h-4.491c-2.852 0-4.309 1.396-6.859 2.67-3.155 1.578-4.915 2.489-8.011 4.128-1.396 0.728-2.124 1.214-3.642 1.699-4.37 1.457-7.101 1.032-11.41 2.185-5.948 1.639-8.923 3.217-14.809 5.098-4.37 1.396-6.798 2.125-11.168 3.399-1.942 0.546-3.034 1.699-5.098 1.699-1.032 0-1.76-0.546-2.185-1.456-0.667-1.457-0.182-2.914-1.214-4.128-1.335-1.578-2.913-1.942-4.856-2.671-0.971-0.364-1.395-1.214-2.427-1.214-0.971 0-1.518 0.425-2.428 0.729-2.063 0.667-3.278 1.031-5.34 1.699-2.124 0.667-3.338 1.456-5.584 1.456-0.971 0-1.518-0.546-2.428-0.728-2.306-0.546-3.763-0.061-6.069-0.486-2.003-0.365-3.034-1.153-5.098-1.457 2.367 4.128 2.913 6.98 5.826 10.683 2.428 3.034 4.128 4.491 6.555 7.525 0.971 1.275 2.428 1.943 2.428 3.642 0 0.425-0.425 0.546-0.486 0.971-1.457-0.365-1.943-1.214-3.156-1.943-1.032-0.607-1.821-0.91-2.913-1.456-3.035-1.578-4.613-2.853-7.283-4.856-2.246-1.639-3.946-2.306-6.069-4.128-2.368-2.063-4.128-3.641-7.284-3.641-2.246 0-2.852 2.367-3.884 4.37-0.789 1.517-1.517 2.246-2.427 3.641-0.79 1.214-1.699 1.76-2.913 2.428-2.246 1.274-3.946 1.699-6.555 1.699-5.16 0-7.345-3.642-12.382-4.856-5.402-1.335-7.708-4.128-12.381-7.041-2.671-1.639-4.37-2.488-7.283-3.641-3.096-1.275-4.978-1.699-8.255-2.185-3.641-0.486-5.765-1.214-9.468-1.214-1.82 0-2.306 2.428-4.127 2.428s-2.792-0.728-4.613-0.728c-0.728-3.156-1.699-4.734-1.942-8.012-1.214-0.667-2.064-1.032-3.156-1.942-2.488-2.125-3.459-5.099-6.797-5.099-0.85 0-1.214 0.546-1.943 0.971-1.517 0.849-2.367 1.639-3.884 2.427-2.246 1.215-4.37 1.396-5.584 3.642-0.667 1.274-0.849 2.246-1.699 3.399-0.365 0.486-0.789 0.546-1.214 0.971-1.336 1.335-1.699 2.488-2.913 3.884-1.275 1.457-2.307 2.064-3.642 3.399-3.096 3.096-5.22 4.552-9.226 6.313-1.153 0.485-2.124 0.546-3.156 1.214-1.517 0.97-1.639 2.367-2.913 3.641-0.849 0.85-1.76 0.79-2.913 0.971-1.274 0.183-2.064 0.728-3.399 0.728-0.607 0-0.911-0.485-1.215-0.97-0.182-0.304 0.183-0.668 0-0.971-0.182-0.304-0.728-0.243-0.97-0.486-2.003 1.457-3.824 1.457-6.373 1.457h-5.037l-0.486 0.97 0.486 1.943-0.242 0.971c-2.489-0.183-3.339-2.428-5.827-2.428-1.274 0-2.427 0.546-2.913 1.699-0.607 1.517-0.85 2.489-1.699 3.885-1.761 2.853-3.096 4.431-4.856 7.283-3.035 4.916-4.128 8.618-4.128 14.445 0 4.005 0.911 6.19 1.699 10.075 0.365 2.003 0.668 3.156 1.214 5.099 0.668 2.488 1.943 3.58 3.156 5.826 1.032 1.943 1.639 3.338 2.914 5.098 0.545 0.729 0.728 1.396 1.456 1.943 0.364 0.242 0.85 0.242 1.214 0.486 1.275 0.849 1.761 1.942 2.914 2.913 1.395 1.214 3.034 1.274 3.884 2.913 0.91 1.822 0.971 3.035 1.214 5.099 0.304 2.852 1.214 4.308 1.943 7.04 0.607 2.185 1.092 4.856 3.399 4.856 2.608 0 3.979-1.917 6.121-2.64 1.275-1.002 1.709-1.912 2.862-3.065 1.184-1.184 2.337-1.426 3.884-2.064 0.577-0.213 0.88-0.607 1.457-0.85 1.76-0.788 2.792-1.456 4.734-1.699l3.155 0.607h5.432c1.609 0 2.489 0.547 4.037 0.85 1.456 0.304 2.367 0.182 3.884 0.364 2.397 0.273 3.702 0.728 6.099 0.728 3.308 0 5.159-0.09 8.467-0.121l14.081-2.185 9.954 1.942h1.79c1.73 0 2.701-0.364 4.401-0.607 1.274-0.182 2.064-0.303 3.278-0.728 0.789-0.273 1.366-0.304 2.185-0.486 2.367-0.546 3.763-0.789 6.19-0.971 0.911-0.061 1.426-0.242 2.337-0.242 6.464 0 10.106-0.121 16.569-0.121 1.912 0 2.974 0.485 4.885 0.485 1.305 0 2.154-0.121 3.277-0.728 0.79-0.425 1.122-0.941 1.943-1.335 1.183-0.577 1.942-0.85 3.034-1.578 0.79-0.515 1.184-1.032 1.943-1.578 0.364-0.273 0.697-0.364 1.092-0.607 1.972-1.305 3.034-2.185 4.977-3.52 1.639-1.123 2.549-1.822 4.249-2.793 0.576-0.333 1.001-0.424 1.577-0.728 2.124-1.153 3.186-2.215 5.341-3.277 1.972-0.971 3.096-1.547 5.098-2.549 1.518-0.759 2.428-1.153 3.884-2.064 0.971-0.607 1.578-0.79 2.549-1.336 2.124-1.214 3.459-1.881 5.705-2.913 2.064-0.971 3.065-2.003 4.977-3.277 0.819-0.546 1.396-0.637 2.307-1.093 2.701-1.335 4.309-1.881 6.676-3.641 1.153-0.85 1.85-1.487 3.155-2.064 0.516-0.213 0.88-0.182 1.457-0.243 1.153-0.121 1.82-0.242 2.975-0.242 8.011 0 12.867 1.092 20.817 1.82 1.547-0.121 2.337-0.667 3.884-0.849 2.549-0.304 3.946-0.577 6.434-1.093 0.152-0.031 0.334 0.03 0.486 0 1.183-0.273 1.791-0.668 2.913-1.093 0.394-0.152 0.729-0.183 1.093-0.364 0.486-0.242 0.729-0.546 1.214-0.728 0.425-0.152 0.79-0.091 1.215-0.243 1.639-0.667 2.64-1.122 4.37-1.456 1.82-0.364 2.974-0.212 4.855-0.486 0.425-0.061 0.698-0.304 1.093-0.364 1.669-0.303 2.671-0.242 4.37-0.242 1.518 0 2.428-0.031 3.884 0.364 0.759 0.213 1.184 0.395 1.943 0.607 0.667 0.183 1.062 0.395 1.699 0.607 0.971 0.335 1.457 0.608 2.427 0.971 1.396 0.516 2.155 0.942 3.521 1.457 2.185 0.849 3.58 1.001 5.826 1.578 2.701 0.698 4.34 0.88 7.041 1.578 1.001 0.242 1.608 0.486 2.549 0.849 0.971 0.395 1.578 0.698 2.549 1.093 1.518 0.607 2.489 0.971 4.128 1.336 1.093 0.242 1.699 0.485 2.822 0.485h3.126l9.347-0.97h3.611c0.728 0 1.153-0.243 1.881-0.243 6.889 0 10.773 0.122 17.662 0.122 0.607 0 0.911 0.273 1.487 0.364 1.154 0.213 1.882 0.334 3.035 0.607 3.186 0.79 5.067 0.911 8.254 1.699 0.728 0.183 1.214 0.365 1.942 0.486 0.819 0.152 1.336 0.273 2.185 0.365 2.276 0.273 3.551 0.091 5.827 0.364 0.941 0.09 1.487 0.364 2.427 0.364 0.971 0 1.609-0.273 2.428-0.728l5.098 0.121 14.688 2.306h3.368c2.398 0 3.703 0.85 6.1 0.85 2.003 0 3.156-0.334 5.098-0.85 0.85-0.212 1.336-0.486 2.185-0.728 2.064-0.607 3.278-0.486 5.341-1.093 2.488-0.728 3.793-1.366 6.19-2.306 0.79-0.304 1.305-0.364 2.064-0.729 1.608-0.789 2.275-1.76 3.884-2.549 1.518-0.759 2.489-0.941 4.006-1.699 1.336-0.667 2.094-1.062 3.399-1.821 0.941-0.546 1.608-0.697 2.549-1.214 2.185-1.214 3.428-2.033 5.705-3.155 0.698-0.334 1.001-0.759 1.699-1.094 1.001-0.485 1.578-0.789 2.549-1.335 1.851-1.062 2.883-1.729 4.734-2.792 2.094-1.214 3.459-1.487 5.705-2.427 2.792-1.153 4.218-2.307 6.919-3.642 0.516-0.242 0.91-0.304 1.456-0.486 0.577-0.212 0.88-0.515 1.457-0.728 1.82-0.759 3.065-0.911 4.977-1.457 1.547-0.425 2.427-0.88 4.006-1.335 0.91-0.268 1.605-0.554 2.267-0.865v-98.819c-0.376 0.012-0.749 0.021-1.174 0.151z" fill="#00853F"/>
		<path d="m131.19 806.25c-0.425 0.364-0.273 0.88-0.365 1.456l0.486 0.365c0.456-0.698 0.79-1.123 0.971-1.942-0.424-1e-3 -0.788-0.123-1.092 0.121z" fill="#00853F"/>
		<path d="m812.53 98.929c-1.031 1.032-1.79 1.578-2.549 2.792-0.911 1.457-1.608 2.398-3.156 3.156-2.336 1.153-4.066 0.759-6.434 1.82-1.153 0.516-1.881 1.123-2.306 2.307-0.121 0.394-0.364 0.576-0.364 1.001v2.367c0 1.851 0.728 2.883 1.577 4.522 0.456 0.88 1.093 1.305 1.093 2.306 0 0.486-0.212 0.759-0.364 1.214-0.304 0.971-0.304 1.669-0.971 2.428-0.546 0.637-1.183 0.818-1.943 1.214-1.092 0.576-1.76 0.911-2.913 1.335-1.062 0.394-1.79 0.455-2.913 0.729-0.607 0.151-0.941 0.424-1.578 0.485-1.366 0.152-2.154 0.031-3.52 0.122-0.668 0.03-1.063 0.242-1.73 0.242h-2.974c-1.366 0-2.095-0.455-3.429-0.728-2.489-0.516-3.884-1.002-6.313-1.699-2.64-0.759-4.157-1.305-6.797-2.064-1.093-0.304-1.76-0.728-2.913-0.728-1.093 0-1.608 0.758-2.428 1.456-0.758 0.638-1.578 1.153-1.578 2.185 0 2.185 0.729 3.399 0.729 5.584 0 1.244-0.182 1.943-0.486 3.156-0.121 0.576-0.121 1.001-0.486 1.457-0.515 0.637-1.183 0.637-1.942 0.971-1.123 0.485-1.73 1.031-2.914 1.335-1.122 0.304-1.911 0.304-3.034 0.607-0.546 0.152-0.88 0.334-1.457 0.365l-13.717 3.641c-1.335 0-2.124-0.273-3.399-0.607-0.607-0.152-1.062-0.303-1.578-0.607-0.88-0.546-1.487-0.88-2.427-1.335-0.911-0.456-1.426-0.759-2.428-0.971-0.789-0.182-1.274-0.395-2.063-0.607-0.88-0.243-1.426-0.304-2.307-0.486-0.576-0.121-0.879-0.334-1.456-0.486-1.972-0.607-3.186-0.728-5.22-1.092-2.124-0.364-3.338-0.425-5.462-0.728-0.637-0.091-1.032-0.304-1.699-0.365-0.819-0.061-1.304-0.121-2.064-0.364-0.576-0.182-0.91-0.394-1.456-0.607-1.366-0.546-2.094-1.031-3.399-1.699-0.607-0.303-1.063-0.455-1.699-0.728-1.912-0.85-3.186-1.092-5.281-1.092-2.033 0-3.186 0.304-5.159 0.85-0.425 0.09-0.668 0.364-1.093 0.485-2.549 0.729-3.915 1.336-6.313 2.428-0.546 0.242-0.941 0.242-1.457 0.486-0.545 0.272-0.879 0.516-1.456 0.728-1.244-2.519-1.457-4.188-2.913-6.555-1.487-2.398-3.854-2.792-6.677-2.792-2.123 0-3.399-0.121-5.462 0.486-0.819 0.212-1.275 0.486-2.064 0.728-1.912 0.607-3.126 0.759-4.856 1.821-1.243 0.758-1.76 1.456-2.913 2.306-1.123 0.818-1.912 1.183-2.914 2.185-0.97 0.97-1.729 1.395-2.913 2.064-0.758 0.424-1.214 0.789-1.942 1.335-0.577 0.425-0.971 0.849-1.699 0.849-0.85 0-1.366-0.364-2.185-0.485-0.971-0.152-1.609-0.213-2.549-0.486-1.881-0.577-2.761-1.669-4.734-1.821-1.335-0.667-2.124-0.97-3.52-1.456-0.85-0.304-1.274-0.85-2.185-0.85-2.489 0-3.732 1.396-5.584 3.035-0.911 0.789-1.639 1.153-2.671 1.82-2.215 1.426-3.459 2.336-5.948 3.156-0.212 0.061-0.273 0.303-0.486 0.364-0.758 0.243-1.243 0.365-2.064 0.365-1.486 0-2.427-0.638-3.399-1.699-0.272-0.304-0.637-0.486-0.849-0.85-0.213-0.364-0.121-0.698-0.243-1.093-0.364-1.031-0.94-1.547-1.578-2.427-0.697-0.941-1.304-1.305-2.184-2.064-0.577-0.486-0.88-0.971-1.457-1.456-1.639-1.427-2.852-1.943-4.491-3.4-0.607-0.515-0.759-1.001-1.336-1.577-1.153-1.154-2.275-1.609-2.913-3.156-0.425-1.093-0.486-1.851-0.607-3.035-0.243-2.398-0.243-3.945-1.578-5.947-0.728-1.123-1.547-1.943-2.913-1.943-1.943 0-3.065 0.121-4.977 0.486-0.79 0.151-1.275 0.486-2.064 0.607-0.334 0.03-0.637 0-0.971 0.121-0.576 0.213-0.88 0.546-1.456 0.729-2.701 0.879-4.613 0.758-6.919 2.427-0.182 0.121-0.212 0.334-0.364 0.486-0.88 0.88-1.304 1.518-1.942 2.549-0.85 1.396-1.639 2.123-2.792 3.277-1.336 1.336-2.064 2.489-3.884 3.035-0.577 0.151-0.971 0.09-1.578 0.121-1.366 0.09-2.154 0.152-3.521 0.243-2.64 0.182-4.156 0.607-6.797 0.607-0.941 0-1.547 0.03-2.427-0.243s-1.123-1.062-1.943-1.456c-0.334-0.152-0.637-0.213-0.971-0.365-1.153-0.516-1.79-1.092-3.064-1.092h-2.368c-0.759 0-1.214 0.152-1.972 0.242-1.943 0.243-3.156 0.304-4.856 1.215-0.758 0.394-1.274 0.697-1.942 1.214-0.85 0.667-1.032 1.456-1.457 2.427-0.486 1.123-0.85 1.821-0.85 3.065v2.852c0 1.002 0.243 1.578 0.122 2.58-0.213 1.85-0.88 2.882-1.943 4.37-0.576 0.818-1.183 1.214-2.185 1.456-1.153 0.273-2.154 0.061-2.913 0.971-0.364 0.455-0.304 0.88-0.486 1.457-0.182 0.607-0.334 0.97-0.486 1.577-0.425 1.578-0.849 2.489-0.971 4.128 0 1.547 0.304 2.701 0.243 4.249 0 0.212-0.183 0.272-0.183 0.486 0 0.242 0.183 0.364 0.183 0.607 0.091 1.942-0.213 3.064-0.486 4.977-0.304 2.094-0.243 4.187-2.185 4.977-1.274 0.516-2.124 0.334-3.52 0.486-0.729 0.09-1.396 0.212-1.7 0.849-0.516 1.032-0.424 1.791-0.607 2.913-0.151 0.941-0.364 1.487-0.364 2.458v2.975c0 1.577 0.486 2.488 0.486 4.066v2.489c0 2.246-0.243 3.641-0.971 5.736-0.486 1.425-1.821 1.608-2.549 2.913-0.486 0.88-0.607 1.518-0.607 2.549 0 2.063 0.456 3.307 1.457 5.098 0.424 0.789 1.062 1.092 1.335 1.942 0.031 0.152-0.03 0.334 0 0.486 0.273 1.396 0.364 2.216 0.364 3.642 0 1.821-1.153 2.731-2.428 4.005-0.879 0.88-1.183 1.76-2.306 2.306-0.334 0.152-0.728 0.091-0.971 0.364-0.212 0.242-0.182 0.637-0.242 0.971-0.182 0.971 0.152 1.608-0.121 2.549-0.243 0.85-0.759 1.275-1.336 1.943-1.395 1.639-2.457 2.398-3.641 4.249-1.001 1.547-1.153 2.609-1.578 4.37-0.183 0.728-0.425 1.183-0.486 1.942-0.121 1.183 0.061 1.912-0.243 3.035-0.545 1.881-1.821 2.578-3.399 3.762-1.608 1.184-2.427 2.276-4.37 2.914l-7.04-1.699c-0.698 0.394-0.971 0.818-1.578 1.335-1.184 1.032-1.943 1.639-3.399 2.185-0.152 0.03-0.334-0.031-0.486 0-0.455 0.121-0.607 0.455-0.971 0.728-0.94 0.698-1.426 1.275-2.185 2.185-0.455 0.546-0.911 0.759-1.335 1.336-0.486 0.758-0.85 1.093-1.336 1.821-0.667 1.001-0.91 1.76-1.335 2.913-0.152 0.455-0.486 0.638-0.607 1.092-0.364 1.275-0.486 2.094-0.486 3.429v3.459c0 0.971 0.182 1.487 0.242 2.458 0.152 2.185 0.182 3.429 0.486 5.584 0.121 0.819 0.334 1.366 0.486 2.185 0.031 0.183 0.242 0.273 0.242 0.486 0 0.638-0.424 0.911-0.728 1.457-0.425 0.728-0.667 1.244-1.092 1.943-0.151 0.242-0.486 0.303-0.486 0.607 0 0.97 0.456 1.639 1.214 2.184 0.486 0.364 0.881 0.638 1.457 0.85 0.486 0.182 1.093 0.213 1.093 0.728 0 1.548-0.273 2.458-0.365 4.006-0.09 1.183 0.274 2.033-0.364 3.034-0.577 0.911-1.426 0.971-2.306 1.578-0.79 0.546-1.032 1.183-1.821 1.699-1.395 0.941-2.336 1.518-3.278 2.913-0.607 0.911-0.971 1.639-1.82 2.307-1.214 0.97-2.275 0.941-3.642 1.699-0.546 3.52-1.578 5.34-2.427 8.739-0.425 1.821-0.365 3.035-0.729 4.856-0.486 2.61-0.789 4.128-0.97 6.798-0.061 1.153 0.242 1.942-0.243 2.913-0.849 1.699-2.671 1.699-4.612 1.943-0.061 0.607-0.243 0.91-0.243 1.517 0 1.153 0.061 2.003 0.729 2.852 0.485 0.607 1.214 0.607 1.942 0.729 0.304 0.061 0.667-0.365 0.971-0.243 1.032 0.486 1.214 1.639 1.214 2.852 0 0.79-0.182 1.215-0.242 2.003-1.215 0.121-2.003-0.182-3.156 0-1.335 0.182-2.428 1.274-2.428 2.671 0 1.699 0.183 2.792 0.729 4.37 0.303 0.91 1.032 1.093 1.456 1.942 1.154 2.124 1.518 3.521 2.185 5.827 0.911 3.156 2.185 4.916 2.185 8.254 0 1.032-0.667 1.639-1.214 2.427-0.303-0.182-0.849 0-0.971-0.242-2.246-3.278-0.789-6.919-3.641-9.711-0.304-0.242-0.85-0.061-1.274-0.242-0.729 3.763 0 6.069 0 9.954-0.729 2.549-0.911 4.066-0.911 6.737v7.891c0 3.762-0.364 5.947-0.971 9.65-0.182 1.092-0.486 1.82-0.728 2.913-0.486 1.943-1.092 2.975-1.699 4.856-2.246 6.555-2.914 10.864-6.555 16.752-1.153 1.881-2.124 2.913-3.156 4.855-0.546 1.032-0.667 1.882-1.214 2.914-1.032 1.942-2.489 2.731-3.642 4.612-0.607 1.032-0.849 1.821-1.456 2.913-2.853 5.099-5.402 7.405-8.012 12.624-1.092 2.246-2.246 3.763-3.399 6.069-0.546 2.368-1.699 3.46-2.185 5.827-0.425 2.185 0.121 3.763-0.728 5.826-1.821 4.37-4.188 6.313-6.555 10.439-2.003 3.521-3.156 5.827-6.069 8.74-1.943 1.943-3.338 3.096-4.856 5.341-1.639 2.367-2.064 4.127-3.156 6.797-1.274 3.156-2.852 4.674-4.37 7.769-1.456 2.975-2.185 4.795-3.641 7.77-1.093 2.185-2.549 2.852-3.885 4.855-1.214 1.882-1.881 3.217-3.155 5.099-1.578 2.367-3.278 3.459-4.856 5.826-3.156 4.613-5.098 7.101-8.254 11.653-1.335 1.943-2.852 2.489-3.884 4.613-2.003 4.066-1.943 6.979-4.128 10.925-1.335 2.427-2.792 3.459-4.127 5.826-0.85 1.518-1.76 2.367-2.671 3.884-0.425 0.728-0.546 1.396-0.971 2.185-2.609 4.491-3.945 7.162-6.555 11.653-0.91 1.578-1.335 2.61-2.185 4.128-1.76 3.095-3.338 4.612-5.098 7.769-1.456 2.671-2.185 4.37-3.641 7.041-0.85 1.578-1.761 2.306-2.671 3.884-1.092 1.942-1.518 3.217-2.671 5.098-1.518 2.428-2.852 3.399-4.37 5.827-0.607 1.031-0.85 1.881-1.457 2.913-2.731 4.431-4.977 6.797-8.497 10.682-2.306 2.307-2.428 4.431-4.613 6.798-1.821 2.002-3.702 2.549-5.098 4.855-1.214 2.003-2.427 2.671-4.127 4.37-2.731 2.731-3.763 4.856-6.313 7.77-1.517 1.76-2.002 3.216-3.641 4.855s-2.975 2.549-4.128 4.613c-1.82 3.338-2.185 5.765-4.612 8.74-2.124 2.609-3.884 3.762-6.069 6.312-2.124 2.489-3.217 4.309-5.341 6.797-1.699 1.943-3.156 2.428-4.856 4.37-1.821 2.124-2.913 3.4-4.855 5.341-2.61 2.61-3.581 4.856-6.07 7.526-1.214 1.274-1.577 2.306-2.67 3.641-0.79 1.032-1.7 1.457-2.671 2.428-1.396 1.395-2.003 2.488-3.399 3.884-1.639 1.639-3.217 2.002-4.613 3.884-2.246 3.034-2.064 5.644-3.399 9.226-0.546 1.577-1.335 2.488-2.185 3.884-2.003 3.217-3.52 5.037-6.555 7.283-2.124 1.578-2.731 3.278-4.856 4.856-3.155 2.367-5.219 3.459-8.74 5.34-2.67 1.396-4.491 1.882-7.283 3.156-3.703 1.699-5.644 3.338-9.226 5.341-3.641 2.002-6.068 2.913-9.71 4.856-3.459 1.82-5.22 3.338-8.74 5.098-2.974 1.457-4.734 2.61-8.012 3.156-0.667 0.061-1.274-0.122-1.942 0-1.943 0.364-2.975 1.093-4.856 1.699-2.246 0.728-3.58 0.97-5.826 1.699-4.309 1.395-6.555 2.974-10.683 4.856-3.703 1.639-6.069 2.306-9.711 4.127l-0.728 0.243c-2.246 0.91-3.52 1.82-5.826 2.67-1.882 0.668-3.156 0.79-4.856 1.7-0.85 0.424-1.092 1.031-1.943 1.456-2.974 1.639-4.795 2.549-7.769 4.128-1.457 0.789-2.306 1.517-3.884 1.942-0.365 0.061-0.546 0.486-0.971 0.486-2.367 0-2.974-2.913-5.34-2.913-1.032 0-1.457 1.032-2.428 1.214-2.185 0.365-3.703-0.425-5.826 0.242-0.911 0.304-1.032 1.336-1.699 1.943-0.608 0.546-0.971 1.274-1.7 1.699-1.881 1.153-3.641 0.365-5.826 0.728-0.425 0.062-0.546 0.546-0.971 0.729 1.639 1.214 3.217 1.578 4.128 3.399 1.214 2.488 1.881 4.066 2.427 6.797 0.121 0.667 0.061 1.274 0.242 1.943 0.668 2.063 3.035 1.82 5.099 2.427 2.367 0.667 3.884 2.185 4.37 4.613 0.546 2.73 0.849 4.37 2.185 6.797 0.97 1.82 2.852 1.881 4.855 2.427 1.457 0.425 2.549 0.365 3.884 0.971 0.425 0.182 0.425 0.728 0.729 0.971 2.185 2.002 2.002 4.431 4.127 6.555 0.304-0.243 0.79-0.122 0.971-0.486 0.911-1.76 0.365-3.096 0.486-5.098 0.121-1.882 0.728-2.975 0.728-4.856 0-0.85-0.728-1.336-0.728-2.185 0-0.85 0.849-1.214 1.214-1.943 0.546-1.032 0.728-1.76 0.971-2.913 0.425-1.882 0.546-3.096 1.214-4.856 0.85-2.124 2.913-2.427 5.098-3.156 1.578-0.486 2.489-1.092 3.884-1.942 2.549-1.578 3.884-2.792 6.798-3.642 1.76-0.486 3.034-0.182 4.855-0.486 2.61-0.424 4.128-0.728 6.798-0.728 3.278 0 4.977 1.699 7.769 3.399 3.156 1.943 5.402 2.368 8.74 3.884 1.881 0.85 2.852 1.639 4.856 1.943 3.824 0.607 6.312 0.789 9.71 2.671 2.064 1.153 2.792 2.488 4.856 3.641 2.246 1.215 3.703 1.76 5.827 3.156 4.431 2.913 6.555 5.402 10.439 8.982 1.335 1.215 2.306 1.821 3.641 3.156 2.124 2.124 3.217 3.459 5.341 5.584 1.032 1.032 2.003 1.396 2.671 2.671 0.667 1.214 1.093 1.942 1.699 3.156 0.546 1.093 1.032 1.76 1.457 2.913 0.789 2.185 0.91 3.642 1.699 5.827 0.849 2.306 1.639 3.338 2.427 5.705 0.819 2.519 1.76 3.824 3.642 5.705 0.638 0.638 0.971 1.032 1.699 1.578 1.547 1.153 2.458 1.821 4.127 2.792 1.214 0.698 1.821 1.305 3.035 2.064 0.515 0.304 0.941 0.486 1.456 0.85 1.427 1.031 1.275 2.427 2.064 4.005 0.638 1.305 1.063 2.094 1.457 3.52 0.759 2.61 0.667 4.219 1.093 6.919 0.182 1.123 0.425 1.791 0.607 2.913 0.121 0.819 0.516 1.305 0.85 2.064s0.667 1.214 1.092 1.942c0.881 1.548 1.275 2.61 2.549 3.884 0.516 0.516 0.79 1.002 1.457 1.336 1.093 0.577 1.881 0.577 2.913 1.214 0.546 0.334 0.667 0.88 0.971 1.457 0.303 0.577 0.728 0.849 0.971 1.456 0.424 1.002 0.759 1.609 1.456 2.428 0.85 0.971 1.791 1.062 2.913 1.699 1.913 1.093 3.005 1.73 5.099 2.427 1.395 0.456 2.216 0.819 3.641 1.215 1.063 0.273 1.699 0.364 2.671 0.849 0.577 0.304 0.911 0.638 1.457 0.971 1.76 1.092 3.034 1.639 4.127 3.399 0.759 1.214 1.184 1.942 1.943 3.156 0.334 0.576 0.516 1.062 1.092 1.456 0.516 0.335 0.91 0.546 1.456 0.85 2.428 1.366 4.037 2.246 5.341 4.734 0.091 0.213 0.031 0.394 0.121 0.607 0.546 1.031 1.457 1.305 2.064 2.306 1.002 1.639 1.882 2.427 3.156 3.884 0.425 0.516 0.667 0.941 1.093 1.456 0.971 1.123 1.639 1.669 2.185 3.035 0.455 1.639 0.759 2.579 1.456 4.128 0.638 1.426 1.488 2.002 2.185 3.399 1.123 2.246 1.032 3.884 1.032 6.403v3.581c0 0.607-0.242 0.94-0.303 1.547-0.425 3.611-0.729 5.614-0.729 9.225 0 1.427-0.061 2.701 1.092 3.521 0.911 0.638 1.761 0.486 2.914 0.607 1.335 0.152 2.185 0 3.399 0.486 1.244 0.516 1.881 1.274 2.549 2.427 1.942 3.369 3.307 5.189 5.219 8.619 0.213 0.425 0.607 0.577 0.85 0.971 0.789 1.274 1.153 2.123 1.699 3.52 0.546 1.395 1.001 2.155 1.577 3.52 0.243 0.577 0.335 1.032 0.608 1.578 0.576 1.153 1.244 1.67 1.577 2.914 0.546 1.942 0.577 3.186 0.729 5.219 0.121 1.548 0.213 2.488 0.849 3.884 0.335 0.759 0.456 1.274 0.971 1.943 0.577 0.759 1.153 1.031 1.821 1.699 0.668 0.667 0.79 1.274 1.457 1.942 1.032 1.032 1.972 1.548 2.671 2.792 0.759 0.971 1.609 1.305 2.671 1.943 1.093 0.667 1.699 1.122 2.913 1.578 1.244 0.455 2.064 0.273 3.399 0.364 1.366 0.091 2.155 0.365 3.521 0.365v0.759c0 0.425-0.425 0.607-0.607 0.941-0.577 0.941-1.215 1.548-1.215 2.671 0 0.819 0.729 1.062 1.336 1.578 1.244 1.062 2.215 1.487 3.399 2.671 0.849 0.849 1.093 1.577 1.821 2.549 0.546 0.728 0.971 1.184 1.214 2.064 0.698 2.427 1.215 3.763 1.943 6.19 0.213 0.728 0.486 1.093 0.728 1.821 0.335 1.062 0.425 1.699 0.729 2.792 0.182 0.667 0.394 1.031 0.607 1.699 0.698 2.215 0.819 3.58 1.214 5.826 0.182 1.093 0.516 1.73 0.849 2.792 0.274 0.85 0.335 1.427 0.486 2.307 0.091 0.607 0.243 0.97 0.364 1.577 0.456 2.307 0.728 3.673 0.728 6.039v3.307l0.607 6.191v3.034c-0.546 7.283-1.456 11.381-1.456 18.694 0 3.065 0.273 4.826 0.486 7.89-0.031 0.183-0.122 0.304-0.122 0.486 0 4.28 1.336 6.646 1.336 10.925 0 2.975-0.607 4.674-0.607 7.648 0 2.033 0.394 3.187 0.607 5.219 0.061 0.76 0.242 1.214 0.365 1.943 0.273 1.73 0.121 2.852 0.728 4.491 0.364 0.971 0.698 1.518 1.214 2.427l0.486 0.122c0.273-1.366 0.242-2.154 0.486-3.521 0.031-0.182 0.242-0.303 0.242-0.486 0.274-1.79 0.365-2.852 0.365-4.673 0-2.003-0.304-3.156-0.486-5.159v-3.156c-0.303-3.642-0.85-5.675-0.85-9.347 0-3.945 0.699-6.161 1.092-10.075v-6.889c0-2.095-0.364-3.429 0.365-5.372 0.395-1.062 0.971-1.517 1.699-2.427 0.546-0.698 1.063-0.941 1.699-1.578 0.85-0.849 1.153-1.608 2.064-2.306 1.092-0.819 1.943-1.122 3.034-1.943 2.61-1.942 2.641-4.582 3.278-7.769 0.242-1.214 0.576-1.881 0.97-3.034 0.274-0.79 0.395-1.366 0.85-2.064 0.394-0.607 0.88-0.941 1.335-1.457 1.396-0.91 2.398-1.093 3.884-1.821 1.366-0.667 2.064-1.304 3.399-2.064l0.486 0.122c-0.182 0.607-0.242 1.093-0.607 1.577-0.334 0.456-0.697 0.608-0.97 1.093-0.85 1.488-1.426 2.337-2.185 3.884-0.273 0.546-0.394 0.942-0.729 1.457-0.242 0.395-0.667 0.486-0.971 0.85-0.364 0.455-0.576 0.819-0.849 1.335 0.213 0.061 0.242 0.365 0.486 0.365 0.424 0 0.607-0.334 0.971-0.486 0.394-0.183 0.698-0.334 1.093-0.486 1.699-0.728 2.792-1.092 4.643-1.092h2.367c0.455 0 0.697 0.273 1.122 0.364 1.699 0.394 2.368 1.456 3.521 2.792 0.91 1.062 1.699 1.395 2.913 2.063 1.153 0.638 1.609 1.7 2.944 1.7 1.547 0 2.397-0.122 3.945-0.122 1.153 0 1.791-0.151 2.944-0.242 1.395-0.091 2.367 0.152 3.52-0.607 0.607-0.394 0.759-0.911 1.214-1.457 0.395-0.486 0.76-0.789 1.092-1.335 1.244-2.003 2.124-3.065 3.521-4.977 0.546-0.759 0.971-1.123 1.578-1.821 0.759-0.879 0.728-1.639 1.821-2.185 0.849-1.153 1.639-1.639 2.671-2.67 0.486-0.486 0.971-0.608 1.456-1.093 0.911-0.911 1.306-1.548 2.064-2.549 0.607-0.789 1.092-1.214 1.578-2.064 1.032-1.79 1.184-3.217 2.792-4.491 0.667 0.667 1.002 1.457 1.943 1.457 1.669 0 2.488-0.85 4.005-1.457 1.457-0.607 2.246-1.153 3.52-2.064 1.215-0.88 1.488-1.85 2.549-2.913 0.88-0.88 1.609-1.244 2.306-2.306 0.486-0.759 0.79-1.336 1.336-2.064 1.274-1.639 1.851-2.671 2.792-4.491 0.667-1.274 1.244-1.943 1.82-3.277 0.242-0.576 0.303-1.062 0.607-1.578 0.79-1.304 1.366-2.033 1.82-3.52 0.274-0.911 0.607-1.457 0.607-2.428 0-0.303-0.182-0.455-0.242-0.728-0.304-1.244-0.819-1.881-1.335-3.035-0.243-0.576-0.273-0.97-0.365-1.577-0.182-1.305-0.486-2.064-0.486-3.4 0-0.849 0.273-1.365 0.728-2.063 1.791 0.728 2.307 2.002 3.763 3.278 1.153 1.001 1.943 1.517 3.156 2.427 0.941 0.698 1.395 1.457 2.549 1.699 0.728 0.152 1.214 0.061 1.942 0.243 1.032 0.242 1.639 0.607 2.701 0.607h3.095c0.638 0 1.002-0.273 1.609-0.365 0.849-0.121 1.699-0.637 1.699-1.518 0-0.607-0.243-1.001-0.486-1.518-0.455-0.94-0.85-1.517-1.336-2.427-0.849-1.547-2.185-2.275-2.185-4.066 0-1.001 0.395-1.578 0.729-2.489 0.364-0.971 0.638-1.547 0.971-2.549 0.364-1.154 0.485-1.882 0.97-3.035 0.335-0.789 0.486-1.487 1.214-1.942 0.486-0.304 0.881-0.183 1.457-0.243 1.457-0.182 2.216-0.425 3.642-0.728 1.73-0.394 2.7-1.092 4.491-1.092 0.213 0 0.303 0.212 0.486 0.242-0.577 1.063-1.608 1.032-2.671 1.578-1.457 0.759-2.215 1.335-3.521 2.306-1.274 0.941-1.881 1.791-2.67 3.156-0.577 1.032-0.971 1.76-0.971 2.974 0 1.396 0.971 2.731 2.367 2.731 1.973 0 2.823-1.577 4.795-1.577 1.366 0 1.881 1.062 2.913 1.942 1.153 1.001 2.003 1.274 3.399 1.82 0.607 0.243 0.971 0.516 1.578 0.729 1.851 0.637 3.065 0.485 5.037 0.485 2.124 0 3.429 0 5.402-0.728 1.002-0.364 1.518-0.849 2.549-1.214 2.64-0.911 4.279-1.244 7.041-1.82 1.366-0.273 2.154-0.607 3.551-0.607h2.367c0.425 0 0.728 0.213 1.122 0.242 1.427 0.213 2.185 0.304 3.521 0.85 0.759 0.121 1.214 0.364 1.942 0.485 1.791 0.274 2.944 0.304 4.613 0.971 2.367 0.971 3.368 2.823 5.947 2.914 0.365 0 0.76 0.121 0.971-0.122 0.729-0.789 0.456-1.608 0.607-2.671 0.061-0.515 0.335-0.728 0.486-1.214 0.273-0.819 0.335-1.365 0.607-2.185 0.365-1.062 0.729-1.729 1.336-2.671 0.789-1.214 1.214-2.67 2.671-2.67 0.607 0 0.97 0.364 1.335 0.849 0.516 0.698 0.698 1.244 0.971 2.064 0.364 1.032 0.97 1.578 1.82 2.306 0.607 0.516 1.002 1.093 1.821 1.093 0.213 0 0.304-0.182 0.486-0.242 1.791-0.577 2.337-2.428 4.249-2.428 1.032 0 1.457 0.728 2.185 1.457 1.699 1.699 2.064 3.338 4.127 4.612 0.608 0.364 0.911 0.698 1.578 0.971 1.882 0.819 3.127 0.971 5.16 0.971 1.82 0 2.731-1.215 3.824-2.671 0.91-1.214 1.577-1.972 2.913-2.792 0.789-0.486 1.153-1.214 2.094-1.214h0.941c0 0.242 0.122 0.364 0.122 0.607 0 0.424-0.394 0.607-0.607 0.97-0.698 1.215-1.275 1.851-2.064 3.035-0.759 1.153-1.426 1.699-2.064 2.913-0.425 0.79-0.546 1.518-1.335 1.943-1.305 0.728-2.368 0.486-3.884 0.486-2.155-1.943-3.521-3.217-6.313-4.006-1.062-0.303-1.639-0.789-2.427-1.577-0.698-0.698-1.244-1.001-1.943-1.7-0.516-0.516-0.819-1.214-1.578-1.214-0.789 0-1.153 0.546-1.699 1.093-1.032 1.032-1.395 1.973-2.671 2.671-0.364 0.182-0.546 0.486-0.97 0.486-0.79 0-0.819-0.971-1.092-1.699-0.334-0.85-0.79-1.305-1.092-2.185-0.183-0.486-0.425-0.698-0.729-1.093-0.728-0.971-1.426-1.699-2.67-1.699-0.85 0-1.184 0.91-1.457 1.699-0.546 1.457-0.728 2.398-1.092 3.884-0.516 2.064-2.064 3.52-4.188 3.52-1.699 0-2.731 0-4.309-0.607-0.576-0.212-1.001-0.424-1.578-0.607-0.97-0.334-1.456-0.637-2.427-0.971-2.003-0.697-3.338-0.486-5.462-0.486-4.856 0-7.556 0.668-12.381 1.093h-2.519c-0.638 0-1.123 0.242-1.488 0.728-0.485 0.638-0.516 1.305-1.214 1.699-0.88 0.516-1.487 0.667-2.427 1.093-0.941 0.425-1.547 0.425-2.549 0.607-0.819 0.152-1.335 0.486-2.185 0.486-2.002 0-2.882-1.366-4.612-2.306-1.122-0.607-2.003-1.153-3.277-1.457-0.365 0.061-0.546 0.486-0.971 0.486-0.667 0-0.849-0.667-1.214-1.214-1.214-1.821-1.699-4.128-3.884-4.128-0.728 0-1.214 0.304-1.943 0.486l-0.97 10.925c-3.763 0-5.948 0.425-9.711 0.728-1.518 0.121-2.427 0.486-3.884 0.729-1.153 0.182-2.124 0.061-2.913 0.97-0.79 0.911-0.85 1.821-1.457 2.914-1.699 2.913-1.639 5.159-3.399 8.011-0.486 0.79-0.729 1.396-1.214 2.185-0.79 1.214-1.761 1.578-2.914 2.428-0.849 0.607-1.092 1.395-1.942 1.942-2.852 1.943-4.674 2.852-7.283 5.098-2.549 2.185-4.188 3.46-6.555 5.827-0.911 0.911-1.578 1.518-2.671 2.185-1.032 0.607-2.428 0.911-2.428 2.185s1.336 1.578 2.428 2.185c1.153 0.667 2.002 1.214 3.399 1.214 1.518 0 2.185-1.457 3.703-1.457h1.881l0.243 0.971c-2.003 2.731-4.553 3.096-7.77 4.37-1.577 0.607-2.609 1.092-4.127 1.699s-2.913 1.699-2.913 3.399c0 1.639 1.82 2.185 3.399 2.428 2.246 0.303 3.641 0.364 5.826 0.971 1.943 0.546 3.096 1.274 4.856 2.184 1.76 0.911 3.399 2.003 3.399 4.067v5.948c0 3.459 1.396 5.34 2.185 8.679 0.729 3.095 1.336 5.401 3.884 7.283l0.971-0.243c1.092-3.703 2.064-5.826 3.399-9.468 0.729-2.064 1.578-3.156 2.671-5.098 0.85-1.457 1.943-2.185 1.943-3.884 0-0.85-0.911-1.215-1.215-1.943-0.607-1.457-0.97-2.367-0.97-3.945v-4.734c0-1.699 1.214-2.427 1.942-3.945 1.76-3.58 2.306-6.009 2.914-9.954 0.364-2.548 0.97-4.066 2.185-6.312 1.456-2.671 3.216-4.856 6.312-4.856 3.459 0 5.281 1.942 8.74 1.942l10.682-1.456c-1.881 2.367-4.066 2.792-7.041 3.399-2.063 0.425-3.216 1.214-5.34 1.214-2.671 0-4.128 0.061-6.797 0.243-1.7 0.121-3.885 0.424-3.885 2.124v6.191c0 2.124-0.91 3.277-1.456 5.28-0.425 1.518-0.486 2.549-1.214 3.884-1.761 3.156-3.885 4.856-3.885 8.498 0 0.546-0.121 1.153 0.243 1.456 0.971 0.85 2.671 0.85 2.671 2.185 0 1.761-1.76 2.307-2.428 3.884-0.667 1.517-0.546 2.671-0.728 4.37-0.303 2.792-0.303 4.309-0.971 7.041-0.546 2.367-1.821 3.459-2.185 5.827-0.242 1.456 0.546 2.427 0.243 3.884-0.365 2.002-1.457 2.974-1.457 5.037v2.003c0.425-0.062 0.728 0 1.153 0s0.667-0.425 1.032-0.486c2.003-0.546 3.035-1.821 4.128-3.642 0.97-1.699 1.82-2.61 2.67-4.37 1.7-3.399 2.61-5.523 4.613-8.74 2.064-3.338 5.705-3.763 6.797-7.525 0.911-3.277 0.121-5.462 1.214-8.74 1.153 1.153 1.457 2.245 1.457 3.884 0 3.763-1.578 5.765-3.399 8.982-1.093 1.882-1.76 2.974-3.156 4.613-1.093 1.274-2.427 1.942-2.427 3.641 0 0.971 0.789 1.274 1.456 1.943 1.275 1.274 1.882 2.306 3.4 3.155 2.123 1.214 3.58 1.699 6.069 1.943 4.612 0.546 6.919 2.125 11.167 3.884l0.728 0.971c-3.642 0.546-5.584 1.214-9.226 1.214-3.095 0-5.037-1.093-7.283-3.156-1.518-1.396-2.549-2.671-4.612-2.671-1.214 0-1.518 1.215-2.185 2.185-1.336 1.822-2.792 2.307-4.856 3.156-2.852 1.153-5.341 1.639-6.555 4.491 0.486 0 0.728 0.425 1.214 0.364 0.971-0.121 1.457-0.486 2.428-0.486 2.185 0 3.58-0.243 5.584 0.486 1.518 0.546 2.246 1.274 3.884 1.456 3.096 0.365 4.916 0.304 7.769 1.457-1.214 1.093-2.124 1.396-3.642 1.943-1.821 0.667-2.913 1.456-4.855 1.456-2.671 0-3.884-1.942-6.555-1.942-1.457 0-2.549 0.667-3.156 1.942-0.486 0.971-0.061 1.822-0.243 2.914-0.182 1.274-1.456 1.821-1.456 3.155 0 1.396 1.699 1.517 2.427 2.671 0.668 1.032 1.032 1.76 1.457 2.913 0.728 2.064 0.728 3.581 0.728 5.827 0 3.096-0.364 5.159-1.942 7.769-0.79 1.274-1.76 1.699-2.671 2.913-1.153 1.578-1.578 3.339-1.699 5.341 0.061 0.425 0.486 0.546 0.486 0.971 0 0.971-0.304 1.821-1.215 2.185-0.667 0.242-1.274 0.121-1.942 0.242-1.214 0.243-1.943 0.729-3.156 0.971 0.365-2.427 1.396-3.58 2.185-5.826 0.365-1.032 0.365-1.882 0.728-2.914 1.275-3.399 5.099-4.127 5.099-7.769 0-1.396-0.425-2.306-1.215-3.399-0.607-0.85-1.577-0.85-2.185-1.699-1.638-2.185-2.427-4.066-2.427-6.859v-9.65c-0.425 0-0.546-0.486-0.971-0.486-0.486 0-0.364 0.789-0.728 0.971-1.214 0.728-1.578 2.063-2.913 2.427-1.396 0.425-2.367 0.183-3.884 0.243-3.399 0.121-5.706 1.214-8.012 3.641-2.731 2.914-5.28 3.703-8.74 5.827-2.427 1.518-3.459 3.156-5.34 5.34-2.974 3.46-5.585 4.795-7.77 8.74-1.214 2.185-1.638 3.642-2.913 5.827-1.274 2.246-1.942 3.703-2.913 6.069-1.457 3.58-2.427 5.765-2.427 9.65v5.948c0 1.215 0.485 1.943 0.728 3.096 0.971 4.127 2.246 6.312 4.37 9.954 1.518 2.61 2.064 4.431 3.884 6.797 1.274 1.639 2.488 2.914 4.612 2.914 1.76 0 2.306-1.761 3.884-2.428s2.61-1.093 4.128-1.942c3.217-1.76 5.159-3.035 7.525-5.827 2.792-3.277 3.946-5.705 5.585-9.711 0.91-2.185 2.002-3.216 2.427-5.584l0.486-0.97 0.728 9.71c0.304-0.242 0.79-0.121 0.971-0.486 0.486-1.032 0.425-1.821 0.728-2.913 0.667-2.427 1.699-3.642 2.914-5.827 0.97-1.82 1.274-3.216 2.184-5.098 0.79-1.639 1.578-3.155 3.4-3.155 0.424 0 0.607 0.424 0.97 0.485l0.243 0.971-4.856 10.925c0.425 2.731 2.671 3.824 2.671 6.555 0 2.671-1.396 4.431-3.642 5.826-0.667 0.364-1.093 1.214-1.942 1.214-2.124 0-2.975-1.943-5.098-1.943-0.971 0-1.032 1.274-1.7 1.943-0.97 0.97-1.82 1.396-2.913 2.185-1.942 1.456-2.974 2.488-5.098 3.641-0.728 0.364-1.214 0.911-1.943 1.214-2.488 1.093-4.856 0.546-6.555 2.671 1.275 1.699 2.731 2.125 4.613 3.156 1.82 0.971 1.76 2.974 2.671 4.856 1.639 3.338 1.699 5.888 4.127 8.74 0.146 0.177 0.293 0.337 0.439 0.484l-1e-3 -2e-3 380.7 2.068c0.638-1.942 0.106-3.098 0.379-5.101 0.304-2.185 1.002-3.307 1.457-5.463 0.303-1.487 0.546-2.306 0.971-3.763 0.131-0.451 0.233-0.866 0.325-1.267v-1086.8c-0.154 0.134-0.302 0.274-0.454 0.426z" fill="#00853F"/>
		<path d="m1540.6 291.2c-1.669-0.333-2.64-0.697-4.249-1.335-2.064-0.85-3.459-1.001-5.22-2.306-0.789-0.576-1.244-1.001-1.942-1.699-0.364-0.365-0.759-0.486-0.971-0.971-0.242-0.576-0.303-0.971-0.486-1.578-0.334-1.122-0.637-1.76-0.97-2.913-0.273-0.971-0.577-2.064-1.578-2.064-0.759 0-1.123 0.607-1.578 1.214-0.79 1.063-1.244 1.73-1.82 2.914-0.85 1.153-1.73 1.274-2.428 2.549-0.212 0.425-0.182 0.79-0.364 1.214-0.272 0.638-0.607 0.971-1.093 1.457-1.425 1.426-2.822 1.942-4.855 1.942s-2.792-1.881-3.763-3.641c-0.425-0.79-0.576-1.335-1.093-2.064-0.638-0.88-1.943-0.971-1.943-2.064 0-0.637 0.425-1.001 0.607-1.577 0.183-0.577 0.365-1.002 0.608-1.578 0.485-1.032 0.97-1.578 1.699-2.428 1.001-1.153 1.547-1.911 2.913-2.549 1.578-0.729 2.61-1.001 4.127-1.821 0.79-0.424 1.367-0.607 2.185-0.97 0.607-0.243 1.032-0.364 1.578-0.729 0.243-0.151 0.395-0.303 0.607-0.486 0.183-0.151 0.486-0.212 0.486-0.485 0-1.154-0.667-1.761-1.335-2.671-0.425-0.577-0.698-0.941-1.214-1.457-0.425-0.425-0.819-0.85-1.457-0.85-1.336 0-1.881 1.063-3.035 1.7-1.517 0.819-2.396 1.366-4.005 2.063-1.456 0.638-2.306 1.032-3.884 1.336-1.304 0.242-2.094 0.607-3.429 0.607h-2.762l-12.139-1.821c-2.792 0.304-4.309 0.942-6.919 1.821-1.517 0.516-2.488 0.728-3.763 1.699-2.002 1.547-3.278 2.124-5.463 3.399-1.183 0.667-1.85 1.184-3.034 1.821-1.214 0.668-1.851 1.578-3.247 1.578-1.244 0-1.912-0.121-3.156-0.121-1.639 0-2.519-0.728-4.157-0.728-0.819 0-1.062 0.698-1.578 1.335-0.667 0.85-1.244 1.244-2.185 1.821-0.425 0.243-0.637 0.516-1.093 0.729-1.396 0.698-2.397 0.486-3.945 0.486-3.368 0-5.463-0.546-8.315-2.307-0.455-0.272-0.577-0.637-0.971-0.97-1.729-1.487-2.094-2.883-3.277-4.856-1.062-1.791-2.185-2.792-2.185-4.856 0-2.003 0.577-3.217 1.699-4.856 0.395-0.607 0.881-0.849 1.336-1.456 0.91-1.184 1.305-1.972 2.185-3.156 0.637-0.88 1.001-1.547 1.456-2.549 0.273-0.607 0.728-1.001 0.728-1.699 0-1.821-1.335-2.792-2.913-3.641-0.758-0.394-1.123-1.092-2.002-1.092-1.336 0-2.094 0.637-3.217 1.335-1.214 0.759-2.216 0.941-2.914 2.185-1.335 2.397-1.76 4.005-3.276 6.312-1.123 1.7-2.641 2.064-4.613 2.671-0.667 0.183-1.062 0.456-1.699 0.729-1.79 0.759-2.913 1.001-4.856 1.214-0.728 0.061-1.122 0.242-1.85 0.242h-3.703c-1.214 0-1.851 0.365-3.065 0.486-0.819 0.091-1.275-0.03-2.064 0.121-0.819 0.152-1.244 0.577-2.064 0.729-1.912 0.364-3.096 0.698-4.734 1.699-0.546 0.334-0.879 0.638-1.456 0.971-1.547 0.88-2.55 1.699-3.399 3.277-0.698 1.336-1.123 2.155-1.457 3.642-0.242 1.153-0.88 2.306-2.064 2.306-0.941 0-1.547-0.576-2.064-1.335-0.455-0.698-0.728-1.184-1.092-1.943-0.971-1.942-1.063-3.247-1.7-5.34-0.515-1.761-1.578-2.519-2.792-3.884-0.667-0.759-0.941-1.426-1.577-2.185-1.002-1.153-1.7-1.943-1.7-3.46 0-1.304 0-2.215 0.607-3.338 0.456-0.849 1.002-1.214 1.457-2.064 0.395-0.728 0.667-1.214 1.093-1.942-1.122-1.122-1.093-2.397-1.821-3.763-0.304-0.576-0.759-0.849-0.971-1.457-0.334-1.001-0.394-1.669-0.971-2.549h-2.519c-0.394 0-0.637 0.182-1.001 0.242-1.032 0.213-1.699 0.243-2.671 0.607-0.911 0.335-1.335 0.971-2.306 0.971-0.759 0-1.153-0.486-1.578-1.092-0.486-0.667-0.667-1.214-1.093-1.942-0.334-0.608-0.455-1.032-0.85-1.578-0.637-0.85-1.335-1.366-1.335-2.428 0-1.669 0.273-2.701 0.85-4.248 0.152-0.455 0.364-0.729 0.364-1.214 0-0.729-0.758-1.032-1.456-1.215-0.546-0.151-0.911-0.212-1.457-0.364-0.911-0.243-1.487-0.394-2.306-0.85-0.729-0.394-1.245-0.728-2.094-0.728h-2.61c-1.457 0-2.124 0.819-3.429 1.456-1.517 0.759-2.367 1.306-3.884 2.064-0.607 0.304-0.971 0.546-1.578 0.85-0.365 0.182-0.546 0.486-0.971 0.486-1.244 0-1.942-1.244-1.942-2.489 0-2.913 1.153-4.431 1.942-7.222 0.456-1.578 0.911-2.519 1.822-3.884 0.576-0.85 1.062-1.274 1.821-1.943 0.364-0.303 0.607-0.546 0.971-0.849 0.334-0.273 0.849-0.394 0.849-0.85 0-1.456-1.426-1.972-2.671-2.671-1.335-0.758-2.246-1.335-3.793-1.335-1.305 0-2.033 0.031-3.338 0.031-0.819 0-1.184-0.819-1.366-1.609-0.243-1.032-0.334-1.639-0.486-2.671-0.304-2.002-0.971-3.065-0.971-5.098 0-0.759 0.486-1.457 1.244-1.457h3.581c0.394 0 0.607-0.212 1.001-0.242 0.849-0.09 1.366 0 2.185-0.121 0.789-0.121 1.305-0.243 2.064-0.486 0.364-0.121 0.728-0.334 0.728-0.729 0-1.395-0.425-2.154-0.728-3.52-0.455-2.033-0.698-3.672-2.428-4.856-2.64-1.79-4.279-2.671-7.162-4.005-0.971-0.455-1.518-0.911-2.549-1.214-2.216-0.638-3.521-0.819-5.827-0.971-1.82-0.121-2.792-0.425-4.612-0.728-1.791-0.304-3.035-0.668-4.127-2.064-0.759-0.971-0.88-1.821-1.093-3.035-0.061-0.485-0.365-0.728-0.486-1.214-0.425-1.456-0.88-2.336-1.942-3.399-0.517-0.515-0.729-1.001-1.336-1.457-0.576-0.424-1.001-0.545-1.578-0.97-1.911-1.487-3.064-2.337-4.491-4.249-2.125-2.852-3.58-4.431-6.433-6.555-1.093-0.819-1.7-1.335-2.914-1.942-2.063-1.032-3.58-1.7-4.612-3.763-0.546-1.093-1.214-1.821-1.943-2.792-0.818-1.123-1.244-2.003-2.427-2.792-0.364-0.243-0.728-0.273-1.093-0.486-1.517-0.941-2.397-1.457-3.763-2.549-0.667-0.516-1.122-0.819-1.82-1.335-0.728-0.546-1.214-1.154-1.214-2.064 0-1.518 1.456-2.124 1.456-3.642 0-0.394-0.212-0.849-0.607-0.849-1.183 0-1.79 0.607-2.974 0.607-1.336 0-2.094-0.819-2.975-1.821-0.758-0.879-1.153-1.517-1.699-2.549-0.424-0.79-0.455-1.426-1.093-2.064-1.304-1.305-2.306-1.82-3.884-2.792-0.758-0.455-1.304-0.637-2.063-1.093-1.73-1.062-2.762-1.729-4.37-2.913-1.063-0.79-1.578-1.426-2.428-2.428-0.911-1.062-1.457-1.911-1.457-3.338 0-1.79 0.546-2.913-0.121-4.552-0.242-0.607-0.849-0.728-1.456-0.971-1.245-0.486-2.094-0.546-3.399-0.971-1.972-0.637-3.187-0.758-5.099-1.577-1.85-0.789-2.519-1.821-4.006-3.156-0.546 0.759-0.759 1.335-1.214 2.185-1.001 1.82-1.487 3.034-1.822 5.098-0.242 1.488-0.455 2.367-0.485 3.884-0.031 1.548 0.121 2.975-1.093 3.884-1.123-0.607-1.214-1.639-1.821-2.792-0.758-1.457-1.395-2.246-2.185-3.642-0.546-0.94-1.062-1.425-1.456-2.427-0.577-1.426-0.364-2.458-0.486-4.006 0-0.183-0.183-0.273-0.183-0.455v-5.523c0-2.793 0.638-4.34 0.79-7.132-1.639 0.182-2.579 0.546-4.006 1.336-0.577 0.303-1.001 0.393-1.578 0.728-1.184 0.728-1.851 1.244-3.156 1.699-0.394 0.121-0.576 0.365-1.001 0.365h-2.61c-0.819 0-1.214 0.485-1.972 0.728-1.093 0.364-1.821 0.364-2.913 0.728-0.85 0.273-1.275 0.971-2.185 0.971-1.336 0-2.064-1.032-2.671-2.185-0.425-0.819-1.093-1.244-1.093-2.185 0-1.153 0.728-1.669 0.971-2.792 0.152-0.728 0.152-1.214 0.364-1.942 0.516-1.821 0.85-2.914 0.85-4.826v-2.367c0-1.063 0.364-1.7 0.364-2.762 0-1.972-0.212-3.216-1.093-4.977-0.515-1.062-1.214-1.547-2.185-2.185-1.214-0.789-1.699-2.063-3.155-2.063-1.062 0-1.699 0.121-2.671 0.485-0.79 0.273-1.244 0.729-2.064 0.85-1.365 0.213-2.124 0.394-3.52 0.486-1.184 0.09-1.851 0.03-3.035 0.121-2.488 0.182-3.884 0.365-6.372 0.365-2.185 0-3.49-0.031-5.523-0.85-1.153-0.455-1.851-1.001-2.428-2.063-0.425-0.79-0.637-1.306-1.093-2.064-0.273-0.456-0.425-0.971-0.97-0.971-0.759 0-1.093 0.546-1.578 1.092l-1.457 1.699c-1.305 1.487-1.881 2.61-3.277 4.006-0.759 0.759-1.122 1.366-1.943 2.064-0.667 0.576-1.183 0.79-1.942 1.214-0.911 0.515-1.547 0.698-2.549 0.971-0.667 0.182-1.062 0.364-1.76 0.364-1.912 0-3.004-0.364-4.916-0.364-1.821 0-2.549 1.274-4.127 2.185-0.941 0-1.457-0.242-2.398-0.242-0.486 0-0.698-0.274-1.123-0.486-1.183-0.577-1.729-1.244-2.913-1.821-1.669-0.819-2.731-1.184-4.491-1.82-1.639-0.607-2.671-0.819-4.128-1.82-1.244-0.85-1.699-1.669-2.792-2.671-0.486-0.425-0.789-0.971-1.456-0.971-0.729 0-1.063 0.607-1.457 1.214-0.365 0.546-0.607 0.941-0.607 1.609v3.126c-1.214 1.214-2.579 0.971-4.279 0.971h-2.883l-5.705-0.729c-1.609 0.183-2.519 0.486-4.128 0.486-2.671 0-3.884-1.942-6.555-1.942-0.971 0-1.456 0.516-2.306 0.971-1.122 0.607-1.791 1.092-2.913 1.699-0.85 0.455-1.426 0.849-2.428 0.849-0.728 0-1.122-0.425-1.578-0.971-0.455-0.546-0.849-0.849-1.456-1.214-0.334-0.182-0.85-0.213-0.85-0.607 0-0.728 0.425-1.092 0.971-1.578s0.971-0.759 1.699-0.971c1.305-0.364 1.82-1.669 1.82-3.034 0-0.365 0.091-0.698-0.121-0.971-0.242-0.303-0.607-0.303-0.971-0.364-0.607-0.122-0.97-0.243-1.608-0.243-3.976 0-6.19 0.091-10.166 0.121l-2.427-0.364c-0.911 0.303-1.518 0.272-2.428 0.607-0.971 0.364-1.578 0.728-2.549 1.092-1.79 0.667-2.852 0.941-4.734 1.214-0.88 0.121-1.396 0.365-2.306 0.365-0.971 0-1.305-0.85-1.943-1.578-0.455-0.546-0.758-0.911-1.335-1.336-0.183-0.121-0.121-0.486-0.365-0.486-0.242 0-0.394 0.183-0.607 0.243v2.64c0 0.819-0.213 1.274-0.607 1.972-0.365 0.607-0.911 0.698-1.457 1.092-0.486 0.365-0.728 0.819-0.728 1.457 0 1.214 0.486 1.881 0.486 3.096 0 0.364-0.121 0.576-0.243 0.91-1.517-0.242-2.154-1.093-3.399-1.942-1.487-1.002-2.671-2.034-2.671-3.854v-4.188c0-1.456-0.91-2.306-2.185-3.003-0.728-0.395-1.214-0.546-1.942-0.971-0.546-0.304-0.819-0.729-1.457-0.729-0.91 0-1.304 0.759-1.699 1.578-0.576 1.184-0.911 1.882-1.699 2.914-0.759 1.001-1.366 1.517-2.064 2.549-0.576 0.88-1.032 1.821-2.124 1.821s-1.639-0.698-2.488-1.336c-2.094-1.547-2.306-3.611-4.491-5.098-0.759-0.516-1.245-1.093-2.185-1.093-0.911 0-1.153 0.971-1.457 1.82-0.515 1.426-0.758 2.276-0.971 3.763-0.03 0.334 0.031 0.667-0.121 0.971-0.364 0.697-1.062 0.971-1.881 0.971-1.639 0-2.458-1.093-4.097-1.093h-2.398c-0.819 0.121-1.487 0.061-2.306 0-1.001-0.062-1.668 0.061-2.549-0.364-0.213-0.091-0.213-0.365-0.364-0.486-0.485-0.425-0.789-0.85-1.092-1.457-0.152-0.334-0.213-0.638-0.365-0.97-0.546-1.063-1.214-1.548-1.82-2.549-0.334-0.546-0.638-0.88-0.971-1.457-0.334-0.576-0.607-0.91-1.214-1.214-0.273-0.121-0.425-0.365-0.729-0.365-1.335 0-1.729 1.275-2.549 2.307-0.85 1.092-1.426 1.76-2.064 3.034-0.455 0.911-0.819 1.457-1.093 2.428-0.152 0.546-0.03 0.941-0.242 1.456-0.364 0.911-1.123 1.457-2.124 1.457-1.518 0-2.671-0.698-3.338-2.064-0.547-1.092-0.577-1.851-1.215-2.913-0.182-0.334-0.212-0.85-0.607-0.85-0.971 0-1.304 0.88-2.064 1.457-0.94 0.728-1.577 1.183-2.184 2.185-1.063 1.729-2.489 2.427-4.492 2.427-1.304 0-2.123-0.455-3.155-1.214-0.365-0.273-0.729-0.455-0.971-0.849-0.486-0.729-0.455-1.367-0.728-2.185-0.243-0.76-0.304-1.275-0.486-2.064-0.183-0.85-0.607-1.305-0.729-2.185-0.121-0.85-0.061-1.366-0.242-2.185-0.182-0.819-0.576-1.274-0.85-2.064-0.272-0.728-0.303-1.214-0.607-1.942-0.364-0.881-1.062-1.153-1.82-1.699-1.153-0.85-1.882-1.275-2.913-2.307-0.79-0.789-1.336-1.274-2.307-1.82-0.424-0.213-0.697-0.486-1.214-0.486-0.667 0-1.032 0.213-1.699 0.243-0.758 0.061-1.335 0.09-1.942 0.486-0.698 0.455-0.729 1.153-0.971 1.942-0.304 0.911-0.486 1.518-0.728 2.427-0.577 2.064-1.154 3.156-1.822 5.22-0.334 1.001-0.455 1.669-0.728 2.671-0.515 1.85-0.728 3.156-2.064 4.491-1.487 1.487-2.549 2.185-4.491 3.156-0.971 0.485-1.518 0.97-2.579 0.97h-2.488c-1.063 0-1.67-0.303-2.701-0.486-1.821-0.364-3.217-0.364-4.37-1.82-1.093-1.366-1.396-2.398-2.306-3.884-0.182-0.334-0.304-0.607-0.486-0.971-0.213-0.424-0.638-0.546-0.85-0.97-0.697-1.244-0.97-2.064-1.456-3.4-0.516-1.426-0.941-2.427-2.185-3.277-0.667-0.456-1.153-0.85-1.972-0.85h-2.853c-2.913 0-5.341 0.85-6.707 3.399-0.607 1.122-1.032 1.82-1.699 2.913-1.153 1.851-2.306 2.914-2.306 5.099 0 0.91-0.062 1.729 0.607 2.306 0.97 0.819 1.791 0.971 2.913 1.578 0.819 0.455 1.153 0.971 1.942 1.456 1.973 1.215 3.096 2.185 4.128 4.249 0.425 0.88 0.849 1.426 0.849 2.428 0 1.274-0.758 1.881-1.456 2.913-0.728 1.092-1.275 1.76-2.428 2.427-1.335 0.759-1.971 1.487-3.399 2.064-1.062 0.425-1.82 0.242-2.974 0.242-2.397 0-3.824-0.182-6.13-0.849-0.79-0.213-1.275-0.395-2.064-0.607-1.032-0.304-1.639-0.516-2.671-0.729-1.183-0.273-1.85-0.516-3.034-0.728-1.244-0.213-1.943-0.486-3.217-0.486-0.486 0-0.79 0.091-1.275 0.122-0.364 0.03-0.697-0.062-0.97 0.121-0.334 0.242-0.394 0.637-0.607 0.97-0.394 0.577-0.79 0.88-1.215 1.457-0.303 0.425-0.424 0.819-0.849 1.092-0.516 0.334-0.911 0.455-1.457 0.728-1.669 0.88-2.701 1.396-4.37 2.307-1.122 0.607-1.881 0.758-3.034 1.335-1.244 0.607-1.821 1.244-3.035 1.943-1.304 0.759-2.094 1.092-3.399 1.821-0.425 0.213-0.546 0.667-0.971 0.849-0.697 0.304-1.183 0.365-1.942 0.365-0.79 0-1.214-0.334-1.943-0.607-1.79-0.667-2.852-1.183-4.552-2.367l-19.847-3.581c-0.941 0.091-1.366 0.698-2.185 1.093-1.881 0.941-3.247 1.153-4.856 2.549-1.639 1.426-2.943 2.185-5.098 2.185-2.124 0-3.338-0.243-5.462-0.243-1.335 0-1.791 1.215-2.792 2.064-0.364 0.304-0.667 0.394-1.093 0.607-1.82 1.001-2.61 2.094-4.491 3.035-0.911 0.455-1.547 0.607-2.428 1.093-1.153 0.667-1.911 1.031-3.155 1.577-1.305 0.577-2.185 0.971-3.642 0.971-2.61 0-4.006-1.093-6.19-2.549-1.123-0.729-1.457-1.669-1.943-2.914-0.607-1.487-0.667-2.488-1.093-4.005-0.334-1.244-0.334-2.124-1.093-3.156-1.183-1.578-2.246-2.246-3.641-3.641-0.88-0.881-1.366-1.366-2.306-2.185-1.457-1.275-2.458-2.306-4.37-2.306-0.998 0-1.668 0.413-2.346 1.031v1086.8c0.443-1.925 0.567-3.4 1.495-5.409 0.819-1.76 0.971-2.943 1.456-4.856 0.304-1.183 0.608-1.85 0.971-3.034 0.243-0.85 0.577-1.366 0.971-2.185 1.274-2.579 1.73-4.097 2.792-6.676 0.395-1.001 0.88-1.639 1.214-2.671 0.881-0.789 1.153-1.547 1.821-2.549 0.364-0.546 0.728-0.818 1.214-1.214 0.789-0.667 1.184-1.183 1.82-1.942 0.425-0.515 0.85-0.759 1.214-1.336 1.153-1.729 1.518-2.852 3.035-4.37 1.791-1.274 2.427-2.519 4.249-3.762 1.122-0.759 1.639-1.487 2.792-2.185 1.274-0.79 2.094-1.093 3.399-1.822 2.064-1.153 3.095-2.124 4.977-3.52 0.577-0.425 0.849-0.85 1.456-1.214 0.941-0.577 1.578-0.819 2.549-1.336 1.791-0.941 2.913-1.456 4.856-2.185 1.426-0.516 2.064-1.214 3.52-1.578 0.85-0.212 1.336-0.394 2.185-0.607 0.79-0.212 1.275-0.212 2.064-0.364 0.546-0.09 0.911-0.272 1.457-0.364 2.367-0.486 3.763-0.607 6.191-0.607 1.699 0 2.701 0.182 4.37 0.486 0.607 0.091 0.971 0.334 1.578 0.485 1.001 0.274 1.578 0.335 2.549 0.608 1.002 0.303 1.518 0.667 2.549 0.97 1.366 0.395 2.064 0.85 3.399 1.336 2.852 1.063 4.309 2.033 6.919 3.641 1.335 0.82 2.033 1.427 3.399 2.185 1.001 0.546 1.395 1.184 2.427 1.7 0.364 0.182 0.546 0.485 0.971 0.485 0.638 0 0.911-0.546 1.457-0.849 0.789-0.425 1.274-0.698 2.063-1.093 1.336-0.667 2.216-0.911 3.521-1.699 0.577-0.334 1.032-0.394 1.578-0.729 1.881-1.153 3.065-1.699 4.977-2.792 1.547-0.879 2.458-1.365 4.006-2.185 0.759-0.394 1.335-0.516 2.064-0.97 1.366-0.85 2.033-1.457 3.399-2.307 0.394-0.242 0.546-0.637 0.971-0.849 1.153-0.637 1.851-1.032 2.913-1.82 1.609-1.184 2.852-1.518 4.612-2.549 2.883-1.669 4.553-2.61 7.647-3.763 0.698-0.242 1.002-0.667 1.699-0.971 0.82-0.364 1.275-0.697 2.064-1.093 2.398-1.183 3.733-1.971 6.191-3.034 1.306-0.546 2.064-0.911 3.399-1.336 0.729-0.242 1.184-0.485 1.973-0.485h2.852c0.394 0 0.607 0.213 1.001 0.242 0.577 0.061 1.002-0.212 1.578-0.121 0.577 0.091 0.911 0 1.457 0.121 0.394 0.091 0.607 0.334 0.97 0.486 1.73 0.698 2.731 1.123 4.492 1.699 1.699 0.546 2.761 0.607 4.369 1.335 0.971 0.425 1.518 0.85 2.428 1.336 2.853 1.518 4.643 2.427 7.89 2.792 2.458 0.273 3.763 1.214 6.221 1.214 2.337 0 3.642 0.091 5.978 0.121l7.587-0.242c1.002-0.152 1.548-0.03 2.55-0.121 0.425-0.031 0.698-0.243 1.123-0.243h3.216c0.213 0 0.334 0.213 0.516 0.243 1.547 0.273 2.458 0.394 4.005 0.607 1.821 0.273 2.944 0.242 4.734 0.607 1.367 0.273 2.095 0.607 3.4 1.093 1.244 0.455 1.881 1.001 3.034 1.699 0.365 0.213 0.728 0.242 1.093 0.486 1.851 1.214 3.065 1.73 5.098 2.671 1.336 0.607 2.094 1.062 3.521 1.456 0.849 0.243 1.274 0.638 2.063 0.971 1.852 0.819 2.762 1.609 4.492 2.671 1.456 0.911 2.185 1.699 3.399 2.913 0.819 0.819 1.456 1.305 2.064 2.306 0.638 1.032 1.305 1.396 1.942 2.428 0.213 0.364 0.243 0.728 0.486 1.092 0.819 1.245 1.396 1.851 2.306 3.034 0.152 0.214 0.395 0.274 0.486 0.486 0.85 1.517 1.245 2.458 2.064 4.005 0.273 0.546 0.516 0.881 0.728 1.457 0.667 1.851 0.79 3.035 1.093 4.977 0.486 2.944 1.002 4.643 1.214 7.647 0.152 1.943 0.061 3.065 0.365 4.977 0.091 0.577 0.031 1.002 0.121 1.578 0.183 1.002 0.607 1.488 0.971 2.427 0.577 1.427 1.093 2.337 2.427 3.156 0.79 0.486 1.153 0.971 1.943 1.457 0.698 0.425 1.244 0.667 1.942 1.093 1.852 1.153 2.641 2.246 4.492 3.398 0.515 0.304 0.94 0.546 1.456 0.849 0.941 0.577 1.427 1.093 2.428 1.578 1.851 0.911 3.004 1.275 4.856 2.185 0.576 0.274 0.88 0.638 1.456 0.971 1.518 0.88 2.428 1.366 4.128 1.821 0.638 0.152 1.032 0.364 1.699 0.364 1.305 0 2.002-0.637 3.155-1.214 2.064-1.032 3.369-1.547 5.341-2.671 1.153-0.667 1.791-1.122 2.913-1.821 0.638-0.394 0.85-0.941 1.457-1.336 1.305-0.88 2.216-1.335 3.52-2.185 0.183-0.03 0.304 0.121 0.486 0.121 0.243 0 0.152-0.393 0.365-0.485 1.063-0.455 1.76-0.638 2.913-0.85 1.153-0.213 1.912-0.273 3.035-0.607 2.398-0.759 3.793-1.245 6.191-1.943 1.73-0.485 2.61-1.092 4.37-1.577 0.607-0.152 0.971-0.243 1.578-0.365 2.427-0.576 3.884-0.607 6.372-0.607 2.368 0 3.673 0.273 6.009 0.607 0.607 0.091 0.971 0.273 1.578 0.365 2.124 0.334 3.459 0.303 5.462 1.093 1.851 0.728 2.792 1.487 4.37 2.67 0.365 0.274 0.577 0.608 0.971 0.85 0.941 0.577 1.547 0.941 2.427 1.578 0.365 0.273 0.546 0.638 0.971 0.849 1.487 0.82 2.427 1.275 3.884 2.185 1.214 0.76 1.76 1.578 2.913 2.428 0.577 0.424 1.002 0.667 1.457 1.214 0.607 0.698 0.941 1.184 1.578 1.821 0.667 0.667 1.274 0.911 1.942 1.578 0.456 0.456 0.607 0.911 0.971 1.457 0.79 1.184 1.396 1.821 1.943 3.156 0.91 2.246 1.184 3.642 1.942 5.948 0.456 1.367 1.093 2.034 1.578 3.399 0.425 1.184 0.638 1.943 0.971 3.156 0.728 2.58 1.274 4.067 2.549 6.434 0.516 0.971 0.85 1.578 1.578 2.427 0.638 0.759 1.244 1.002 1.943 1.699 1.001 1.002 1.639 1.609 2.671 2.55 1.426 1.305 2.306 2.064 3.884 3.277 0.97 0.728 1.639 1.123 2.671 1.821 0.667 0.456 0.88 1.032 1.578 1.457 1.487 0.911 2.215 1.639 3.52 2.792 2.367 2.094 4.187 2.792 6.918 4.37 2.307 1.335 3.46 2.488 5.827 3.763 2.549 1.366 4.005 2.125 6.555 3.52 1.123 0.607 1.912 0.819 3.034 1.457 1.153 0.667 1.73 1.123 2.914 1.699 1.578 0.638 2.7 0.728 4.43 0.728 2.002 0 3.186-0.121 5.159-0.486 0.79-0.151 1.274 0 2.064-0.121 0.788-0.121 1.274-0.273 2.064-0.364 1.001-0.121 1.547-0.546 2.549-0.728 1.367-0.273 2.155-0.667 3.521-0.849 0.576-0.062 1.001-0.062 1.578-0.243 0.576-0.182 0.88-0.364 1.456-0.486 0.942-0.212 1.517-0.425 2.428-0.728 0.91-0.304 1.547-0.365 2.427-0.728 2.519-1.032 4.036-1.426 6.676-2.185 0.85-0.243 1.274-0.638 2.064-0.971 1.214-0.546 1.942-0.85 3.034-1.578 1.153-0.789 1.699-1.396 2.914-2.064 0.394-0.212 0.728-0.212 1.093-0.486 1.153-0.849 1.639-1.639 2.67-2.67 1.306-1.305 2.307-1.821 3.885-2.793 0.788-0.485 1.122-1.001 1.942-1.456 1.943-1.093 3.156-1.487 5.219-2.306 0.638-0.243 0.941-0.577 1.578-0.85 1.852-0.819 2.975-1.366 4.856-2.064 0.881-0.333 1.336-0.789 2.185-1.214 0.942-0.486 1.488-0.728 2.428-1.214 2.063-1.093 3.338-1.457 5.34-2.549 2.731-1.517 4.461-2.064 7.405-3.034 1.881-0.607 3.004-0.911 4.977-1.214 1.032-0.152 1.639-0.273 2.671-0.486 0.97-0.212 1.577-0.334 2.549-0.486 2.124-0.334 3.369-0.364 5.523-0.364 3.854 0 6.04 0.364 9.893 0.364 1.457 0 2.337 0.061 3.763-0.243 1.002-0.212 1.578-0.576 2.549-0.849 1.396-0.394 2.185-0.667 3.52-1.214 1.578-0.638 2.58-0.819 4.127-1.457 0.759-0.304 1.274-0.425 2.063-0.728 0.941-0.364 1.457-0.79 2.428-1.093 2.216-0.729 3.551-1.032 5.826-1.578 0.942-0.212 1.488-0.515 2.428-0.729h0.819c0.212 0 0.304-0.242 0.515-0.242 0.577-0.061 0.881-0.121 1.457-0.121 0.849 0 1.274 0.486 1.942 0.971 0.85 0.637 1.457 0.97 2.428 1.335 1.669 0.607 2.64 1.063 4.37 1.457 2.792 0.638 4.339 1.274 6.919 2.427 0.546 0.243 0.941 0.364 1.457 0.607 2.064 1.032 3.065 1.851 4.977 3.156 0.607 0.394 1.032 0.607 1.578 1.093 0.88 0.759 1.366 1.335 2.306 2.064 1.002 0.759 1.426 1.426 2.306 2.306 0.881 0.88 1.639 1.123 2.428 2.064 0.121 0.152 0.121 0.334 0.242 0.485 0.638 0.82 1.153 1.275 1.943 1.943 0.364 0.303 0.728 0.456 0.97 0.849 1.093 1.609 1.913 2.398 3.277 3.763 0.425 0.425 0.546 0.79 0.971 1.215 0.728 0.728 1.396 0.941 2.064 1.699 0.667 0.759 0.97 1.335 1.699 2.063 0.728 0.729 1.305 1.032 2.064 1.699 1.335 1.184 2.275 1.792 3.277 3.278 0.213 0.335 0.364 0.638 0.607 0.971 0.546 0.759 1.153 1.032 1.821 1.699 0.971 0.971 1.274 1.76 1.943 2.914 1.426 2.488 2.458 3.762 4.37 5.947 1.305 1.518 2.033 2.55 2.791 4.37 0.577 1.427 0.971 2.337 0.971 3.884 0 1.244-0.515 1.913-0.971 3.035-0.516 1.305-0.758 2.125-1.092 3.52-0.456 1.973-1.032 3.035-1.943 4.856-0.242 0.516-0.273 0.911-0.486 1.457-0.607 1.517-1.093 2.398-1.82 3.884-0.304 0.607-0.759 0.849-1.092 1.456-1.639 2.914-2.215 4.886-4.37 7.405-0.911 1.063-1.547 1.669-2.549 2.671-1.518 1.517-2.154 2.64-3.884 3.884-1.547 1.123-2.367 1.881-4.005 2.913-1.366 0.88-2.154 1.335-3.52 2.185-1.154 0.698-1.972 0.88-3.277 1.214-2.337 0.607-3.763 0.729-6.192 0.971-0.667 0.061-1.062 0.242-1.729 0.242h-11.228c-1.305 0-2.003 0.153-3.308 0.243-1.244 0.091-1.943 0.031-3.156 0.242-1.457 0.274-2.275 0.668-3.641 1.215-1.64 0.667-2.368 1.031-3.763 2.063-0.911 0.607-1.518 0.911-2.428 1.457-2.336 1.457-3.732 2.427-6.434 3.034-1.638 0.364-2.609 0.546-4.248 0.971-2.275 0.577-3.521 1.214-5.857 1.214-5.796 0-9.074 0.122-14.87 0.122-2.852 0-4.491 0.091-7.314 0.607-0.88 0.152-1.487 0.273-2.306 0.607-1.457 0.577-2.276 1.063-3.642 1.821-0.789 0.425-1.304 0.638-2.064 1.093-1.183 0.729-1.639 1.517-2.427 2.671-0.516 0.789-1.122 1.184-1.457 2.064-0.697 1.699-0.728 2.853-1.214 4.612-0.273 0.971-0.576 1.578-0.85 2.55-0.485 1.639-0.879 2.549-1.456 4.127-0.121 0.364-0.182 0.667-0.364 0.971-0.607 0.971-1.366 1.274-2.427 1.699-0.607 0.242-0.941 0.607-1.608 0.607h-3.126l-15.416 1.699c-3.55 0.031-5.523 0.121-9.073 0.121-2.731 0-4.28-0.242-6.95-0.849-0.486-0.091-0.637-0.516-1.093-0.728-0.728-0.334-1.183-0.516-1.942-0.729-1.761-0.486-2.823-0.88-4.37-1.82-1.366-0.849-2.307-1.457-3.035-2.913-0.151-0.334-0.182-0.638-0.364-0.971-0.091-0.152-0.334-0.03-0.486-0.121-1.791 0-2.701 0.728-4.492 0.971-2.578 0.364-3.975 0.607-6.554 0.728-0.486 0-0.729 0.242-1.215 0.242-1.729 0.091-2.701 0.183-4.37 0.607-0.91 0.213-1.395 0.546-2.306 0.729-1.214 0.273-1.942 0.213-3.156 0.486-0.424 0.091-0.667 0.364-1.122 0.364h-0.941c-2.246 0.031-3.551 0.121-5.796 0.121-1.396 0-2.155-0.212-3.551-0.364-1.76-0.183-2.792-0.273-4.491-0.607-0.79-0.152-1.275-0.334-2.064-0.486-3.611-0.79-5.553-2.094-8.498-4.37-0.94-0.728-1.304-1.336-2.306-1.943-1.426-0.88-2.064-1.79-3.399-2.792-2.549-1.911-3.854-3.277-5.826-5.826-0.152-0.213-0.213-0.425-0.364-0.607-0.304-0.364-0.607-0.425-0.971-0.729-1.335-1.153-2.215-1.76-3.156-3.277-1.304-2.094-2.852-2.822-5.219-3.399-1.336-0.334-2.064-0.576-3.399-0.849-0.82-0.152-1.366-0.122-2.185-0.243-1.822-0.242-2.883-0.486-4.735-0.607-2.61-0.182-4.035-0.728-6.555-1.457-0.849-0.242-1.335-0.515-2.185-0.728-0.849-0.213-1.335-0.455-2.185-0.607-2.276-0.455-3.338-1.365-5.463-2.306-2.063-0.911-3.641-1.123-4.977-2.913-0.91-1.215-1.699-1.7-2.792-2.793-0.667-0.667-0.849-1.244-1.578-1.821-0.879-0.697-1.517-1.032-2.427-1.699-0.941-0.698-1.274-1.457-2.185-2.185-0.242-0.182-0.394-0.486-0.728-0.486-1.76 0-2.701 0.759-4.249 1.578-2.064 1.093-3.368 1.609-5.584 2.427-1.457 0.546-2.337 0.971-3.884 0.971-1.093 0-1.699-0.303-2.792-0.364-1.123-0.062-1.791-0.152-2.914-0.243-0.758-0.061-1.214 0.121-1.942 0-1.153-0.182-1.76-0.637-2.913-0.849-1.73-0.334-2.7-0.729-4.37-1.336-1.791-0.667-2.549-1.214-4.37-1.82-1.123-0.638-1.791-0.941-2.914-1.578-1.456-0.85-2.396-1.244-3.884-2.064-1.577-0.88-2.275-1.76-3.884-2.549-0.334-0.152-0.637-0.213-0.97-0.365-1.244-0.667-1.791-1.396-3.035-2.064-1.76-0.971-2.882-1.487-4.491-2.671-1.335-1.001-2.337-1.425-3.399-2.671-0.638-0.758-0.941-1.304-1.578-2.063-0.486-0.577-0.941-0.819-1.336-1.457l-1.456-2.427c-0.486-0.819-1.062-1.153-1.578-1.943-0.728-1.122-1.062-2.154-2.306-2.671-1.093-0.455-1.851-0.364-3.035-0.486-0.849-0.09-1.365-0.242-2.215-0.242h-9.286c-0.607 0-0.941-0.425-1.487-0.607-1.608-0.546-2.489-1.122-4.006-1.943-2.306-1.244-3.641-2.063-5.826-3.52-2.003-1.335-3.004-2.61-5.341-3.277-2.548-0.728-4.066-0.486-6.676-0.971-1.032-0.182-1.639-0.334-2.67-0.486-2.306-0.333-3.611-0.576-5.948-0.849-0.667-0.061-1.032-0.304-1.699-0.364-0.91-0.091-1.426-0.061-2.306-0.242-2.731-0.607-4.339-0.79-6.919-1.822-0.88-0.333-1.396-0.697-2.307-0.97-1.547-0.486-2.457-0.759-3.884-1.578-0.818-0.455-1.243-0.88-2.064-1.336-1.911-1.062-3.216-1.274-4.976-2.549-1.73-1.245-2.671-2.154-4.492-3.277-1.032-0.638-1.608-1.214-2.671-1.821-1.881-1.093-3.125-1.456-4.855-2.792-1.123-0.849-1.821-1.304-3.035-2.063-0.819-0.486-1.093-1.153-1.942-1.578-1.184-0.577-1.912-0.88-3.035-1.578-0.697-0.425-1.214-0.698-1.942-1.093-0.85-0.455-1.154-1.062-1.943-1.578-1.851-1.214-2.852-2.125-4.491-3.642-1.001-0.91-1.245-1.881-2.306-2.792-1.032-0.88-1.822-1.122-2.914-1.942-2.306-1.729-3.61-2.913-5.34-5.22-0.577-1.032-1.518-1.76-2.307-2.671-1.274-1.456-2.032-2.275-3.034-3.884-0.334-0.576-0.759-0.849-1.093-1.456-1.274-2.306-1.487-3.854-2.064-6.434-2.275 0.183-3.428 1.123-5.462 2.185-0.941 0.486-1.577 0.667-2.549 1.093-1.275 0.546-1.912 1.093-3.156 1.699-1.457 0.728-2.398 0.911-3.884 1.578-1.608 0.728-2.458 1.335-4.005 2.185-0.425 0.213-0.546 0.516-0.971 0.728-0.94 0.456-1.547 0.759-2.427 1.336-1.882 1.396-3.065 2.002-4.978 3.399-1.274 0.911-1.517 1.972-2.549 3.156-0.88 1.001-1.457 1.608-2.064 2.792-0.516 1.001-0.758 1.578-1.335 2.549-0.729 1.215-1.305 1.852-1.821 3.156-0.546 1.366-0.758 2.216-1.456 3.52-0.88 1.639-1.547 2.61-2.185 4.37-0.394 1.093-0.486 1.791-0.85 2.914-0.182 0.577-0.546 0.88-0.728 1.456-0.334 1.032-0.334 1.73-0.486 2.792-0.03 0.364-0.242 0.608-0.242 1.002v3.459c0 1.578-0.304 2.458-0.486 4.036-0.122 1.153-0.243 1.82-0.607 2.913-0.183 0.577-0.365 0.881-0.486 1.457-0.273 1.184-0.304 1.912-0.729 3.034-0.515 1.367-1.153 2.034-1.699 3.399-0.364 0.941-0.667 1.548-1.335 2.307l-0.971 1.942c-1.032 1.396-1.79 1.912-3.035 3.156-0.667 0.667-0.94 1.184-1.577 1.82-0.486 0.486-0.94 0.668-1.457 1.093-0.759 0.638-1.183 1.184-1.942 1.821-0.729 0.638-1.184 0.971-1.821 1.7-1.639 1.881-2.367 3.095-4.127 4.855-1.093 1.093-2.064 1.367-3.399 2.185-1.215 0.759-1.851 1.396-3.035 2.185-1.912 1.305-3.247 1.669-5.462 2.306-2.367 0.668-3.641 1.427-6.069 1.821-0.941 0.152-1.457 0.394-2.427 0.486-1.275 0.152-2.033 0.182-3.277 0.364-0.394 0.061-0.698 0.183-1.093 0.243-2.003 0.303-3.186 0.486-5.22 0.486-2.427 0-3.763 0.061-6.19-0.243-0.576-0.061-0.911-0.242-1.457-0.364-0.607-0.122-1.001-0.183-1.578-0.364-1.153-0.364-1.82-0.637-2.913-1.093-2.336-0.971-3.611-1.851-5.826-3.035-0.729-0.393-1.184-0.789-1.943-1.092-1.032-0.425-1.82-0.152-2.913-0.364-0.576-0.091-0.88-0.365-1.487-0.365-1.123 0-1.882-0.121-3.004-0.121-2.428 0.394-3.793-1.062-5.706-2.55-0.941-0.728-1.729-0.818-2.913-1.092-1.426-0.334-2.215-0.516-3.642-0.728-0.455-0.075-0.864-0.145-1.252-0.214v205.52c1.045-0.509 1.971-0.97 3.195-1.623 2.124-1.153 3.095-2.368 4.856-4.128 1.032-1.031 1.639-2.185 3.155-2.185 1.092 0 1.457 0.971 2.185 1.699 1.699 1.7 2.489 3.156 4.613 4.128 2.063 0.971 3.52 1.214 5.826 1.214 1.457 0 2.428-0.061 3.642-0.728 0.365-0.183 0.789-0.183 0.971-0.486 0.97-1.457 0.121-2.792 0-4.612-0.243-3.4 1.032-6.798 4.37-7.526 3.884-0.911 6.19-1.032 9.954-2.185 2.427-0.728 3.763-1.943 6.312-1.943 1.578 0 2.489 0.911 3.399 2.185-2.671 0.668-4.309 0.729-6.797 1.699-2.852 1.093-4.188 2.489-7.041 3.642-1.881 0.728-3.278 0.911-4.856 2.185-2.427 1.943-2.488 4.612-2.427 7.769 0.061 1.699 0.728 2.852 0 4.37-0.85 1.76-2.61 2.185-4.612 2.185-1.275 0-1.821-0.789-2.914-1.457-2.549-1.578-3.702-2.974-6.312-4.369-1.396-0.729-2.246-1.457-3.884-1.457-1.578 0-2.792 0.425-3.642 1.699-1.032 1.578-0.546 3.217-1.457 4.856-0.849 1.456-2.184 1.578-3.641 2.427-1.457 0.85-2.246 1.578-3.884 1.943-0.364 0.084-0.688 0.089-1.01 0.096v98.819c0.839-0.394 1.624-0.828 2.71-1.32 0.546-0.243 0.911-0.334 1.457-0.607 0.971-0.486 1.426-1.062 2.427-1.457 1.305-0.515 1.972-1.183 3.277-1.699 1.366-0.546 2.124-0.971 3.399-1.699 2.307-1.336 3.854-1.791 6.313-2.913 0.759-0.334 1.183-0.729 1.942-1.093l1.093-0.729c1.547-0.364 2.155-1.426 3.4-2.427 0.637-0.515 1.122-0.88 1.699-1.457 1.304-1.304 1.972-2.154 3.399-3.399 0.728-0.637 1.274-0.911 1.942-1.578 0.638-0.637 0.911-1.093 1.578-1.699 1.214-1.122 2.003-1.82 3.399-2.671 1.001-0.607 1.699-0.849 2.549-1.699 0.698-0.697 0.941-1.304 1.699-1.942 0.365-0.304 0.637-0.394 0.971-0.729 1.518-1.517 2.185-2.761 4.006-3.884 0.88-0.546 1.487-0.667 2.428-1.093 1.577-0.697 2.457-1.214 4.006-1.942 2.943-1.366 4.582-2.398 7.525-3.763 0.608-0.273 1.063-0.242 1.7-0.486 0.758-0.273 1.183-0.607 1.942-0.85 2.61-0.818 3.976-1.699 6.434-2.913 0.637-0.303 0.941-0.637 1.578-0.971 1.729-0.94 2.822-1.365 4.612-2.306 1.335-0.697 1.972-1.426 3.278-2.185 2.549-1.487 3.945-2.457 6.434-4.005 2.549-1.578 4.157-2.398 6.919-3.52 0.729-0.304 1.215-0.334 1.943-0.607 0.758-0.273 1.153-0.516 1.942-0.729 1.426-0.394 2.124-1.001 3.521-1.456 2.488-0.819 4.096-0.729 6.737-0.729 7.526 0 11.774 0.486 19.3 0.486 1.335 0 2.124 0.091 3.459 0 0.577-0.03 0.911-0.242 1.487-0.242h8.224l103.3 0.486 245.44 0.97 182.81 0.243 40.543 4.006 15.7 0.529v-1243.6c-0.281-0.077-0.571-0.15-0.896-0.217z" fill="#FDEF42"/>
		<path d="m2267 1427.6c-0.243-1.032-0.334-1.639-0.486-2.671-0.061-0.394-0.242-0.637-0.242-1.062v-2.731c0-0.941 0.394-1.76-0.243-2.397-0.425-0.425-0.971-0.455-1.578-0.607-0.758-0.213-1.214-0.364-1.942-0.607-0.364-0.121-0.638-0.182-0.971-0.364-0.576-0.334-0.759-1.093-1.457-1.093-1.911 0-3.277 1.73-3.277 3.642 0 1.791 0.486 2.823 0.486 4.612 0 1.609 0.121 2.671-0.486 4.128-1.031-0.516-1.699-0.85-2.549-1.578-0.729-0.607-1.214-0.971-1.822-1.699-0.212-0.273-0.333-0.729-0.728-0.729-0.94 0-1.244 1.092-2.185 1.092-0.697 0-1.153-0.485-1.457-1.092-0.333-0.697-0.607-1.153-0.607-1.942 0-1.122 0.365-1.791 0.365-2.913 0-1.487-0.304-2.368-0.728-3.763-0.152-0.486-0.607-0.698-0.607-1.214 0-1.063 1.153-1.336 2.063-1.821 0.941-0.516 1.457-0.97 2.428-1.456-0.394-1.245-0.577-2.064-1.578-2.914-0.728-0.607-1.274-0.849-1.82-1.577-0.698-0.911-0.486-1.761-0.607-2.914-0.091-0.818-0.243-1.335-0.608-2.064-1.032-2.094-2.275-2.974-3.641-4.855-0.82-1.123-1.153-1.851-2.064-2.914-0.546-0.637-0.971-1.093-0.971-1.942 0-2.549 1.336-3.884 1.336-6.434 0-0.971-0.394-1.517-0.729-2.427-0.121-0.334-0.121-0.667-0.242-0.971-0.365-0.849-0.941-1.183-1.578-1.821-0.486-0.486-0.728-0.911-1.335-1.214-1.244-0.608-2.125-0.698-3.521-0.85-1.062-0.121-1.639-0.365-2.7-0.365h-4.188c-0.394 0-0.607-0.212-1.001-0.242-0.759-0.091-1.426 0.061-1.943-0.486-0.819-0.88-0.486-1.943-1.214-2.913-0.789-1.032-1.578-1.366-2.549-2.185-0.333-0.273-0.485-0.607-0.85-0.85-0.515-0.334-1.093-0.364-1.457-0.849-0.091-0.122-0.061-0.334-0.121-0.486-0.425-0.911-0.455-1.547-0.728-2.549-0.364-1.396-0.911-2.094-1.214-3.52-0.698-1.215-1.215-1.972-2.307-2.792-0.515-0.364-0.818-0.79-1.456-0.971-0.546-0.152-0.971-0.061-1.457-0.365-0.242-0.151-0.151-0.455-0.242-0.728l5.584-11.289c-0.091-0.849-0.82-1.244-1.578-1.577-0.941-0.425-1.457-0.608-2.427-0.971-2.064-0.759-3.096-1.578-5.22-2.185-1.122-0.304-1.851-0.486-2.913-0.971-0.759-0.334-1.305-0.576-1.699-1.335-0.637-1.244-0.334-2.155-0.607-3.521-0.183-0.91-0.729-1.365-0.729-2.306 0-1.547 0.607-2.336 1.214-3.763 0.334-0.819 0.577-1.366 0.971-2.185 0.546-1.093 0.759-1.821 1.336-2.913 0.424-0.79 0.759-1.274 1.335-1.943 0.456-0.546 0.85-0.97 0.85-1.699 0-1.214-0.85-1.729-1.578-2.671-1.122-1.425-1.699-2.306-2.792-3.762-0.546-0.729-0.941-1.153-1.336-1.943-0.364-0.728-0.364-1.214-0.728-1.942-0.607-1.245-1.153-2.003-2.306-2.792-1.426-0.971-2.67-0.698-4.249-1.336-1.274-0.515-1.821-1.335-2.792-2.306-0.911-0.911-1.79-1.062-2.913-1.699-0.365-0.213-0.607-0.455-0.971-0.607-0.334-0.122-0.637-0.122-0.971-0.243-0.425-0.182-0.516-0.546-0.728-0.97-0.243-0.456-0.486-0.79-0.486-1.336 0-1.001 0.486-1.547 0.486-2.549 0-1.183-0.607-1.82-0.971-2.913-0.697-1.942-1.122-3.065-1.457-5.098-0.061-0.425-0.424-0.637-0.486-1.093-0.272-1.729-0.485-2.64-0.607-4.37-0.091-1.244 0.031-1.972-0.364-3.156l-5.827 2.185h-3.004c-0.97 0-1.547-0.365-2.458-0.607-0.758-0.213-1.517-0.182-1.942-0.849-0.243-0.394-0.121-0.729-0.121-1.214 0-1.122 0.667-1.699 1.214-2.67 0.424-0.729 0.638-1.244 1.093-1.943 0.394-0.576 0.728-1.001 0.728-1.699 0-1.122-0.425-1.882-1.214-2.671-0.425-0.425-0.82-0.849-1.457-0.849-1.487 0-2.185 0.759-3.641 1.093-0.94 0.213-1.487 0.273-2.428 0.485-0.394 0.091-0.576 0.364-1.001 0.364-0.182 0-0.273-0.121-0.456-0.121-1.486 0.364-2.457 0.486-4.005 0.486-1.365 0-2.185 0.091-3.52-0.122-0.607-0.091-0.94-0.303-1.578-0.364-0.94-0.091-1.518 0.061-2.427-0.121-0.183-0.031-0.304-0.212-0.486-0.243-0.759-0.151-1.366-0.212-1.822-0.849-1.244-1.73-1.062-3.369-2.427-4.977-0.576-0.668-1.062-0.911-1.821-1.336-0.607-0.334-0.819-0.819-1.457-1.093-0.759-0.303-1.244-0.364-2.064-0.364-1.426 0-2.246 0.274-3.641 0.486-0.334 0.031-0.638 0-0.971 0.122-1.214 0.455-1.668 1.184-2.913 1.577-0.425 0.76-0.911 1.336-1.093 2.185-0.668 3.127-0.243 5.281-1.821 8.012-1.093 1.881-2.002 2.762-3.156 4.612-0.455 0.759-0.668 1.336-1.215 2.064-0.728 0.941-1.547 1.274-1.82 2.427-0.121 0.546 0 0.911-0.121 1.457-0.243 1.063-0.698 1.609-1.214 2.55-0.334 0.638-0.577 1.153-1.215 1.456-0.667 0.335-1.214 0.365-1.942 0.486-0.85 0.152-1.274 0.577-2.064 0.971-0.758 0.364-1.274 0.577-1.942 1.093-1.699 1.335-1.244 3.187-1.943 5.219-0.455 1.306-0.759 2.428-2.064 2.914-0.91 0.334-1.517 0.364-2.488 0.364-0.79 0-1.245-0.243-2.033-0.243h-2.367c-1.215 0-2.155-0.091-2.944-0.971-0.394-0.455-0.456-0.91-0.729-1.456-0.667-1.366-0.91-2.337-1.093-3.884-0.182-1.547 0-2.55-0.486-4.006-0.272-0.818-0.758-1.214-1.214-1.942-0.759-1.214-1.214-1.972-2.306-2.913-1.76-1.518-2.913-2.247-4.856-3.521-0.394-0.242-0.425-0.607-0.728-0.971-0.88-1.032-1.214-1.79-1.943-2.913-1.183-1.79-2.246-2.458-3.884-3.884-0.82-0.697-1.426-1.093-2.427-1.457-0.759-0.272-1.578-0.516-1.578-1.335 0-0.607 0.394-0.911 0.607-1.457 0.638-1.578 1.305-2.427 1.943-4.005 0.303-0.728 0.364-1.214 0.607-1.942 0.486-1.487 1.032-2.307 1.577-3.763 0.425-1.184 0.911-1.761 1.457-2.914 0.365-0.758 0.486-1.304 0.85-2.063 0.273-0.546 0.607-0.88 0.849-1.457 0.395-0.911 0.395-1.547 0.486-2.549 0.091-0.789 0.243-1.214 0.243-2.002 0-1.943-0.334-3.126-1.336-4.795-0.637-1.062-0.971-1.821-1.942-2.549-2.519-1.881-4.067-2.913-6.191-5.219-1.123-1.214-1.76-2.003-3.034-3.035-0.516-0.394-0.971-0.546-1.457-0.97-1.669-1.457-2.61-2.337-4.37-3.642-0.364-0.273-0.546-0.637-0.97-0.85-0.698-0.364-1.244-0.455-1.943-0.849-0.546-0.304-0.88-0.607-1.457-0.85-1.214-0.546-1.85-1.123-3.034-1.699-1.487-0.728-2.427-1.032-3.884-1.82-1.184-0.637-1.76-1.244-2.913-1.943-1.518-0.941-2.61-1.456-3.4-3.034-0.94-1.881-1.274-3.125-2.306-4.977-1.183-2.154-2.276-3.186-3.52-5.341-0.759-1.335-1.062-2.185-1.821-3.763-1.73-2.549-2.52-4.066-4.734-5.947-0.941-0.79-1.093-1.699-2.064-2.428-1.942-1.456-3.004-2.275-4.733-4.005-0.85-0.85-1.063-1.578-1.7-2.549-0.515-0.789-1.122-1.093-1.577-1.942-0.82-1.487-1.549-2.306-2.185-3.884-0.76-1.851-0.942-3.126-1.336-5.099-0.091-0.546-0.303-0.91-0.365-1.456-0.334-2.337-0.698-3.703-1.335-5.948-0.242-0.911-0.364-1.547-0.728-2.427-0.577-1.396-0.911-2.155-1.578-3.521-0.425-0.849-0.971-1.153-1.457-1.942-1.001-1.639-1.335-2.762-2.185-4.492-0.273-0.576-0.607-0.94-0.97-1.456-0.243-0.365-0.729-0.455-0.971-0.85-1.063-1.699-1.427-2.913-2.913-4.248 1.274-0.941 2.002-1.547 3.399-2.307 1.456-0.818 1.971-1.79 3.398-2.671 2.58-1.608 3.975-2.639 6.555-4.127 1.942-1.122 3.034-1.912 4.855-3.277 1.426-1.062 2.094-1.942 3.642-2.792 0.88-0.486 1.547-0.637 2.428-1.093 1.183-0.637 1.79-1.183 2.913-1.942 1.183-0.79 1.76-1.517 2.792-2.549 1.335-1.336 2.427-1.76 3.884-3.035 1.153-1.001 1.487-1.85 2.549-2.913 1.396-1.396 2.215-2.246 3.52-3.763 0.576-0.667 0.789-1.183 1.214-1.942 0.759-1.305 1.214-2.094 1.943-3.399 0.334-0.638 0.818-0.88 1.214-1.457 1.518-2.215 1.699-4.067 1.699-6.768 0-1.153-0.03-1.791-0.121-2.944l0.121-0.364v-2.458c0-1.305 0.273-2.064 0.364-3.369 0.213-2.7 0-4.339 0.728-6.918 0.517-1.822 1.609-2.641 2.064-4.492 0.121-0.546 0.152-0.91 0.242-1.456 0.395-1.973 0.365-3.186 0.365-5.22 0-1.85 0.152-3.004-0.486-4.734-0.546-1.517-1.729-1.912-2.792-3.156-0.759-0.88-1.305-1.457-2.306-2.064-2.458-1.517-3.49-2.943-5.706-4.856-1.821-1.578-3.155-2.185-5.098-3.641-1.79-1.336-2.761-2.185-4.249-3.884-1.001-1.153-1.82-1.609-2.548-2.914-0.607-1.093-0.911-1.79-1.457-2.913-0.576-1.183-1.093-1.881-1.457-3.156-0.242-0.91-0.303-1.487-0.485-2.427-0.455-2.245-0.608-3.581-0.608-5.887s0.334-3.58 0.608-5.887c0.303-2.641 0.515-4.279 1.821-6.555 0.638-1.093 0.94-1.761 1.457-2.914 1.183-2.609 1.912-4.096 2.913-6.797 0.212-0.637 0.759-0.85 1.093-1.457 0.303-0.546 0.698-1.243 0.971-1.82 0.364-0.88 0.728-1.426 0.728-2.398v-2.458l-0.546-3.763v-3.399l1.153-9.468v-3.034l0.394-2.428-0.03-2.913-11.775-32.775c-0.364-1.487-0.607-2.427-1.093-3.884-0.334-1.062-0.607-1.669-0.607-2.792 0-0.486 0.212-0.88-0.121-1.214-0.121-0.121-0.334-0.061-0.486-0.121-0.697-0.273-1.183-0.152-1.942-0.243-1.547-0.182-2.428-0.486-3.884-0.971-1.73-0.576-2.641-1.183-4.37-1.82-1.487-0.546-2.458-0.758-3.885-1.456-0.151-0.062-0.333-0.062-0.485-0.122-0.971-0.486-1.426-1.062-2.428-1.456-1.82-0.759-3.125-0.85-4.856-1.821-0.789-0.424-1.153-0.941-1.942-1.335-0.941-0.455-1.73-0.759-2.185-1.699-0.667-1.366-0.455-2.367-0.607-3.884-0.607-0.061-0.971-0.091-1.578-0.121-0.365 0-0.698 0.061-0.971-0.122-0.333-0.242-0.333-0.607-0.303-1.152 1.001-1.275 1.791-1.73 2.974-2.368 0.667-0.334 1.153-0.607 1.943-0.607-0.607-2.519-1.7-3.854-1.7-6.434 0-1.79 0.971-2.701 0.971-4.491 0-1.093-1.062-1.608-2.063-1.942-0.819-0.273-1.336-0.486-2.216-0.486h-3.702c-0.97 0-1.335-1.032-1.608-1.943-0.152-0.576-0.394-0.88-0.486-1.457-0.03-0.333 0.031-0.667-0.121-0.97-0.273-0.516-0.729-0.85-1.336-0.85-1.578 0-2.457 0.486-4.035 0.486h-2.246c-0.76 0-1.215 0.243-1.974 0.243-1.668 0-2.488-0.971-3.884-1.821-1.547-0.94-2.731-1.062-4.491-1.457-1.426-0.303-2.396 0.122-3.763-0.364-0.394-0.121-0.607-0.394-0.97-0.607-1.123-0.638-1.882-0.911-2.793-1.82-0.424-0.425-0.728-0.729-0.728-1.336 0-2.336 0.091-3.703 0.728-5.948 0.516-1.79 1.215-2.761 1.215-4.612 0-1.244-0.79-1.82-1.336-2.913-0.364-0.729-0.486-1.215-0.849-1.943-0.79-1.578-1.457-2.549-1.457-4.339v-4.188c0-1.366-1.426-1.76-2.67-2.276-0.425-0.182-0.607-0.546-0.971-0.849-0.697-0.607-1.093-1.001-1.699-1.699-0.728-0.85-1.335-1.518-1.335-2.671 0-2.792 1.669-4.127 1.942-6.919 0.152-1.639 0.608-2.518 0.85-4.127 0.182-1.305 0.121-2.064 0.121-3.399 0-1.699 0.121-2.701-0.121-4.37-0.03-0.334-0.242-0.607-0.242-0.971 0-1.335 1.608-1.547 2.913-1.82 1.426-0.304 2.216-0.455 3.641-0.729 1.427-0.272 2.368 0 3.642-0.728 0.152-0.061 0.394 0 0.486-0.121 0.455-0.576 0.061-1.184 0.121-1.943 0.031-0.455 0.243-0.728 0.243-1.183v-3.096c0-1.093 0.759-1.639 1.335-2.519 0.485-0.728 0.971-1.093 1.457-1.82 0.638-0.941 0.515-1.761 0.607-2.914 0.577-1.911 0.061-3.732 1.699-4.855 1.123-0.759 2.094-0.819 3.399-1.215 0.638-0.182 0.911-0.637 1.457-0.97 1.942-1.215 3.004-2.489 3.52-4.734 0.365-1.608 0.456-2.64 0.85-4.249 0.152-0.667 0.485-1.001 0.485-1.699 0-1.304-1.092-1.972-2.306-2.427-1.153-0.425-1.821-0.638-2.913-1.214-1.396-0.729-2.094-1.275-3.399-2.185-0.759-0.516-1.578-0.273-2.306-0.85-0.546-0.425-0.971-0.849-0.971-1.578 0-1.456 0.971-2.275 2.185-3.034 1.001-0.607 1.669-0.94 2.549-1.699 0.608-0.516 0.971-1.001 0.971-1.821 0-1.062-1.153-1.456-2.185-1.699-0.849-0.212-1.335-0.486-2.185-0.607-1.183-0.182-1.972-0.304-3.034-0.849-0.85-0.425-1.062-1.215-1.943-1.578-1.821-0.759-3.065-0.577-4.977-0.971-1.851-0.365-2.853-1.851-3.156-3.763 0-0.182-0.182-0.273-0.182-0.455v-6.009c0-2.002-1.942-2.852-3.824-3.49-2.002-0.697-3.095-1.366-4.856-2.549-1.062-0.728-2.063-1.365-2.063-2.67 0-1.761 1.093-2.61 1.214-4.37-0.728-0.243-1.305-0.79-2.064-0.971-2.64-0.607-4.157-1.062-6.676-1.943-2.275-0.818-3.338-1.729-5.463-2.913-2.064-1.153-3.217-1.881-5.098-3.277-1.214-0.911-1.487-1.851-2.55-2.913-0.515-0.515-0.849-0.88-1.335-1.457-1.639-1.881-2.489-2.974-4.128-4.856-1.821-2.094-3.125-3.034-5.462-4.491-1.062-0.637-1.699-1.093-2.913-1.456-1.366-0.425-2.125-0.638-3.52-0.971-0.759-0.183-1.184-0.455-1.943-0.607-1.608-0.364-2.579-0.183-4.249-0.364-1.183-0.121-1.881-0.334-3.034-0.486-2.367-0.364-3.521-1.487-5.341-3.034-0.607-0.516-1.062-0.85-1.821-1.093-0.941-0.941-1.791-1.487-2.913-2.185-1.761-1.093-2.671-1.882-4.37-3.035-0.577-0.394-0.819-0.819-1.336-1.335-1.274-1.275-2.063-1.882-3.399-3.035-1.305-1.122-2.306-1.608-3.277-3.034-0.637-0.94-0.971-1.578-1.699-2.428-1.274-1.487-2.398-2.336-2.792-4.248-0.212-1.093 0.061-1.761 0.061-2.883v-8.801c0-2.124-0.334-3.338-0.667-5.433-0.243-1.517-0.304-2.397-0.729-3.884-0.303-1.031-0.515-1.639-0.728-2.67-0.515-2.428-1.547-3.642-2.427-5.948-0.911-2.428-1.578-3.763-2.792-6.069-1.093-2.094-2.124-3.307-4.249-4.37-1.396-0.698-2.246-0.941-3.642-1.578-1.274-0.576-2.124-0.819-3.277-1.578-1.396-0.911-2.367-1.153-3.884-1.942-0.758-0.394-1.274-0.638-2.063-0.971-2.428-1.062-3.946-1.305-6.555-1.821-1.366-0.272-2.154-0.637-3.521-0.849-1.699-0.243-2.792-0.425-4.248-1.336-1.608-1.001-2.276-1.972-3.763-3.155-1.639-1.305-2.398-2.306-3.763-3.884-1.518-1.761-2.7-2.519-4.128-4.37-0.91-1.184-1.153-2.124-2.184-3.156-1.761-1.76-2.853-2.792-4.978-4.005-0.697-0.394-1.244-0.486-1.942-0.85-0.546-0.272-0.88-0.486-1.457-0.728-0.424-0.182-0.546-0.546-0.971-0.728-0.849-0.364-1.425-0.546-2.306-0.85-2.246-0.819-3.672-0.941-5.947-1.699-0.577-0.182-0.971-0.486-1.578-0.607-0.577-0.121-1.001-0.121-1.578-0.243-1.062-0.242-1.699-0.485-2.792-0.485-1.547 0-2.246 1.062-3.399 2.063-0.364 0.304-0.547 0.607-0.85 0.971-0.88 1.002-1.79 1.336-2.427 2.549-0.273 0.515-0.456 0.88-0.85 1.335-1.243-0.697-2.094-1.062-2.913-2.185-0.638-0.88-1.001-1.578-1.822-2.306-1.79-0.88-3.004-1.578-4.734-2.549-2.306-1.274-3.156-2.671-5.341-4.127-2.61-1.73-4.097-2.64-6.797-4.249-1.578-0.941-2.549-1.426-4.249-2.064-0.455-0.151-0.667-0.486-1.093-0.728-1.001-0.576-1.639-0.819-2.671-1.335-1.881-0.941-3.126-1.366-4.491-2.914-0.486-0.576-1.093-0.789-1.457-1.456-0.393-0.729-0.485-1.275-0.485-2.124 0-3.884 0.364-6.069 0.364-9.954 0-2.154 0.121-3.369-0.121-5.523-0.091-0.759-0.121-1.244-0.365-1.943-0.272-0.789-0.789-1.214-1.456-1.699-0.79-0.576-1.214-1.062-2.064-1.578-0.788-0.486-1.335-0.789-2.064-1.335-0.667-0.486-1.093-0.971-1.942-0.971-1.518 0-2.276 0.79-3.642 1.457-0.789 0.394-1.396 0.546-1.942 1.214-1.154 1.366-1.882 2.094-3.156 3.277-0.729 0.667-1.305 1.214-2.306 1.214-1.457 0-2.094-1.487-2.428-2.913-0.242-1.062-0.667-1.639-1.214-2.549-0.607-1.001-1.062-1.547-1.82-2.427-0.304-0.365-0.364-0.667-0.729-0.971-1.123-0.94-1.881-1.336-3.034-2.185-2.306-1.729-3.763-2.671-5.705-4.734-1.245-1.335-2.185-2.033-3.278-3.52-0.637-0.85-1.335-1.366-1.335-2.427 0-2.003 0.79-4.37 2.792-4.37 2.306 0 3.642 0.728 5.584 1.942 1.032 0.638 1.548 1.153 2.671 1.699 0.456 0.213 0.607 0.577 1.093 0.729 1.699 0.576 2.792 0.638 4.612 0.728 0.517 0.031 0.82 0.242 1.336 0.242 0.971 0 1.426-0.789 1.943-1.578 0.546-0.818 0.91-1.335 1.214-2.306 0.638-1.942 1.214-2.974 1.214-4.977 0-2.246-0.698-3.489-1.457-5.584-0.212-0.576-0.182-1.032-0.486-1.578-0.607-1.032-1.183-1.547-1.578-2.671-0.818-2.336-2.063-3.459-3.884-5.098-0.637-0.576-1.091-0.88-1.82-1.335-0.88-0.546-1.304-1.032-2.185-1.578-1.547-0.94-2.549-1.274-4.249-1.943-0.637-0.242-0.97-0.546-1.577-0.849-1.578-0.819-2.579-1.062-4.37-1.336-0.486-0.061-0.729-0.212-1.214-0.242-1.669-0.152-2.578-0.121-4.248-0.242-1.943-0.152-3.611 0-4.734-1.578-0.789-0.516-1.122-1.123-1.942-1.578-1.001-0.576-1.699-0.79-2.428-1.699-1.153-1.457-1.366-2.64-1.578-4.491-0.303-2.489-0.455-3.854-0.849-6.313-0.182-1.093-0.486-1.76-0.486-2.882v-3.096c0-2.034 0.061-3.278 0.728-5.189 0.183-0.577 0.456-0.911 0.729-1.457 0.576-1.183 0.97-1.912 1.82-2.913 0.849-0.971 1.214-1.578 2.064-2.549 0.303-0.364 0.728-0.486 0.728-0.971 0-0.607-0.486-0.91-0.971-1.214-0.576-0.364-1.032-0.546-1.699-0.728-1.518-0.394-2.397-0.728-3.884-1.214-1.032-0.334-1.76-0.425-2.792-0.85-1.214-0.486-1.639-1.487-1.943-2.792-0.061-0.334-0.242-0.576-0.242-0.941v-3.338c0-1.487 0.728-2.246 0.728-3.733 0-1.82-1.214-2.67-1.214-4.491 0-1.699 0.456-2.882-0.364-4.37-0.486-0.879-1.457-0.849-2.489-0.849-0.637 0-1.062 0.061-1.639 0.242-0.455 0.152-0.576 0.607-0.971 0.85-1.426 0.88-2.336 1.426-4.005 1.699-2.671 0.455-4.46 0.182-6.676 1.699-1.396 0.94-1.882 2.003-3.277 2.913-0.365 0.243-0.728 0.274-1.093 0.486-0.728 0.456-1.153 0.759-1.943 0.971-0.941 0.273-1.456 0.698-2.427 0.849-1.669 0.274-2.671 0.364-4.37 0.364-2.701 0-4.249-0.728-6.676-1.942-0.759-0.365-1.214-0.577-1.943-0.971-1.365-0.728-2.185-1.184-3.641-1.82-1.547-0.668-2.489-1.001-4.006-1.699-0.94-0.425-1.76-0.547-2.427-1.336-0.242-0.303-0.242-0.607-0.364-0.971-0.272-0.758-0.485-1.274-0.607-2.063-0.151-0.971-0.09-1.609-0.364-2.549-0.091-0.394-0.486-0.546-0.486-0.971 0-0.637 0.303-1.001 0.486-1.578 0.394-1.153 0.82-1.79 1.335-2.913 0.577-1.274 0.789-2.124 1.093-3.52 0.273-1.215 0.85-1.882 0.85-3.125v-2.458l-1.457-7.223c0.091-1.244 0.364-1.972 0.364-3.216 0-1.669-1.426-2.398-2.914-3.156-0.758-0.394-1.183-0.607-1.942-0.971-2.519-1.244-4.218-1.366-6.919-2.185-2.336-0.697-3.489-1.578-5.584-2.792-1.426-0.819-2.488-0.911-3.884-1.699-1.305-0.759-1.942-1.457-3.399-1.943-1.214-0.91-2.306-1.244-3.642-1.942-1.304-0.698-2.094-1.001-3.52-1.457-1.001-0.334-1.639-0.607-2.7-0.607h-2.61c-0.698 0-1.032 0.395-1.609 0.728-1.001 0.608-1.425 1.306-2.306 2.064-1.244 1.063-2.336 1.578-4.005 1.578-1.032 0-1.578-0.637-2.185-1.457-0.638-0.849-0.88-1.487-1.336-2.427-0.697-1.426-1.093-2.275-1.942-3.642-0.455-0.758-1.032-1.092-1.335-1.942-0.759-2.003-1.275-3.186-1.943-5.22-0.425-1.304-0.273-2.275-0.85-3.52-0.424-0.911-0.97-1.396-0.97-2.427 0-2.428 2.913-3.156 5.34-3.156 1.396 0 2.246 0.091 3.521 0.607 0.576 0.213 0.819 0.85 1.456 0.85 1.336 0 1.943-1.093 2.671-2.185 0.819-1.215 1.578-1.972 1.578-3.46 0-1.456-0.364-2.336-1.093-3.58-0.637-1.093-1.001-1.851-1.942-2.671-0.608-0.516-1.001-0.759-1.578-1.335-0.516-0.516-0.819-0.942-1.336-1.457-2.002-2.003-3.672-2.61-5.826-4.491-0.577-0.486-0.759-0.971-1.336-1.457-0.364-0.304-0.728-0.334-1.093-0.607-0.576-0.425-0.849-0.85-1.456-1.214-0.85-0.516-1.275-0.88-2.185-1.336-1.062-0.515-1.76-0.667-2.792-1.214-2.276-1.183-3.551-1.972-5.341-3.763-1.396-1.395-1.82-2.671-2.306-4.612-0.304-1.183-0.607-1.882-0.971-3.035-0.182-0.576-0.364-0.879-0.486-1.456-0.03-0.183-0.242-0.273-0.242-0.486 0-0.819 0.759-1.184 1.456-1.578 0.911-0.516 1.517-0.698 2.428-1.214 0.91-0.516 1.426-0.88 2.427-1.214 0.667-0.213 1.457-0.486 1.457-1.215 0-2.094-2.549-2.185-4.005-3.641-0.273-0.273-0.486-0.546-0.729-0.85-0.789-0.94-1.547-1.274-2.185-2.306-0.303-0.516-0.486-0.971-0.849-1.457-0.425-0.576-0.88-0.818-1.215-1.456-0.364-0.698-0.516-1.184-0.728-1.943-0.425-1.395-0.789-2.185-1.093-3.642-0.273-1.425-0.849-2.154-0.849-3.61v-2.489c0-1.518 0.485-2.398 0.485-3.915s-0.516-2.306-1.092-3.702c-1.609-1.791-2.549-2.853-4.613-4.128-0.971-0.607-1.426-1.153-2.427-1.699-0.668-0.365-1.153-0.728-1.457-1.457-0.061-0.182-0.242-0.242-0.242-0.455v-3.095c0-0.213 0.182-0.273 0.242-0.456 0.365-1.001 0.88-1.547 1.457-2.427 0.455-0.698 0.667-1.214 1.093-1.943 0.667-1.153 1.456-1.82 1.456-3.156 0-1.183-1.032-1.608-2.063-2.185-0.607-0.333-1.002-0.516-1.578-0.849-1.123-0.698-1.943-0.971-3.035-1.699-0.819-0.546-1.001-1.244-1.699-1.943-0.576-0.576-1.062-0.728-1.699-1.214s-0.819-0.971-1.335-1.578c-1.972-2.275-2.883-3.763-4.249-6.433-0.394-0.759-0.394-1.305-0.728-2.064-0.243-0.576-0.546-0.88-0.729-1.457-0.272-0.789-0.303-1.366-0.486-2.185-0.364-1.699-0.486-2.731-0.486-4.491 0-2.094-0.09-3.338-0.728-5.341-0.486-1.547-0.971-2.457-0.971-4.096v-3.096c0-2.792 1.699-4.157 1.699-6.949 0-2.823-1.85-4.522-4.369-5.766-0.608-0.303-0.941-0.637-1.578-0.849-2.124-0.729-3.46-0.971-5.584-1.699-1.138-0.379-1.891-0.721-2.873-0.997v1243.6l20.352 0.685h0.486c0.698 0.607 1.153 0.971 1.699 1.699 0.607 0.79 0.79 1.943 1.822 1.943 1.093 0 1.335-1.457 2.427-1.457 0.394 0 0.576 0.365 0.85 0.607 1.062 0.942 1.517 1.822 2.67 2.671 1.063 0.79 1.822 1.336 3.156 1.336 1.093 0 1.729-0.334 2.792-0.486 1.426-0.183 2.276-0.243 3.642-0.729 1.032-0.364 1.699-0.607 2.671-1.214 1.304-0.788 2.002-1.699 3.52-1.699 0.213 0 0.304 0.213 0.486 0.242 0.637 0.122 1.032 0.214 1.699 0.243 2.094 0.152 3.247 0.273 5.341 0.607 0.242 0.031 0.394 0.213 0.607 0.243 0.728 0.121 1.244 0.273 1.942 0.485 1.366 0.456 2.246 0.607 3.642 0.971 2.154 0.577 3.247 1.699 5.463 1.699 1.426 0 1.912-1.122 3.156-1.82 0.364-0.182 0.546-0.486 0.97-0.486 0.425 0 0.608 0.304 0.971 0.486 1.032 0.546 1.608 1.001 2.428 1.82 0.818 0.82 1.577 0.971 2.549 1.578 0.394 0.243 0.546 0.638 0.971 0.85 0.789 0.424 1.335 0.667 2.064 1.214 0.758 0.577 1.214 1.214 2.185 1.214 1.093 0 1.214-1.274 1.821-2.185 0.486-0.759 1.214-0.911 1.942-1.457l8.133-1.577c0.486 0.152 0.819 0.152 1.214 0.485 1.063 0.911 1.336 1.973 2.671 2.307 0.577-1.184 0.971-2.549 2.307-2.549 0.516 0 0.758 0.273 1.214 0.486 0.91 0.455 1.426 0.789 2.427 0.971 1.153 0.213 1.882 0.303 3.035 0.486 1.001 0.152 1.669 0.121 2.549 0.607 0.394 0.212 0.516 0.576 0.85 0.849 0.971 0.819 1.729 1.457 3.034 1.457 1.001 0 1.517-0.486 2.428-0.85 0.728-0.303 1.214-0.576 1.821-1.093 1.093-0.91 1.457-2.306 2.913-2.306 1.001 0 1.547 0.577 2.185 1.336 1.001 1.153 1.153 2.185 2.064 3.399 0.394 0.546 0.88 0.728 1.457 1.093 1.365 0.88 2.246 1.639 2.671 3.155 0.272 0.942 0.242 1.578 0.364 2.549 0.455 3.004 1.336 4.674 1.336 7.708 0 1.517-0.516 2.306-1.093 3.703-1.305 3.156-2.337 4.885-3.4 8.133-0.789 2.367-1.244 3.762-1.942 6.19-0.638 2.185-2.185 3.156-2.185 5.432 0 0.577 0.061 0.88 0.061 1.457v6.13c0 0.365 0.243 0.607 0.304 0.941 0.151 0.941 0.303 1.578 0.728 2.428 0.213 0.424 0.516 0.545 0.728 0.97 0.365 0.759 0.607 1.275 1.093 1.943 0.455 0.607 0.88 0.849 1.457 1.335 0.364 0.304 0.455 0.729 0.849 0.971 1.275 0.85 2.216 1.214 3.763 1.214 2.003 0 3.096-0.576 5.099-0.849 0.272-0.031 0.364-0.243 0.637-0.243h2.852c1.245 0 1.943 0.425 3.187 0.607 2.519 0.395 3.945 0.456 6.433 0.85 2.61 0.394 3.976 1.274 6.434 2.185 0.941 0.334 1.426 0.849 2.427 0.849 0.79 0 1.244-0.272 1.943-0.607 1.487-0.728 2.398-1.244 3.642-2.306 0.667-0.576 1.244-0.789 1.942-1.335 0.971-0.759 1.184-1.547 2.064-2.428 0.82-0.818 1.366-1.335 1.821-2.427 0.455-1.122 0.334-1.943 0.486-3.156 0.243-1.699 0.667-2.64 0.85-4.37 0.485-4.157 1.396-7.404 4.977-9.468 0.728-0.425 1.274-0.607 2.063-0.85 0.79-0.242 1.154-0.545 1.943-0.728 2.033-0.486 3.247-0.486 5.341-0.486 2.033 0 3.793 0.335 4.855 2.064 1.093 1.76 1.761 2.913 3.521 4.006 0.758 0.456 1.153 0.941 1.942 1.336 0.729 0.364 1.275 0.394 2.064 0.607 1.336 0.364 2.033 0.849 3.277 1.456 1.032 0.517 1.821 0.942 2.792 1.578 0.728 0.729 1.336 1.093 1.578 2.064 0.242 1.063 0.121 1.699 0.121 2.792 0 1.305 0.455 2.095 1.336 3.035 0.121 0.152 0.09 0.364 0.242 0.486 0.667 0.576 1.214 0.788 1.82 1.456l0.971 0.607c1.305 0.638 2.185 0.668 3.521 1.215 2.457 1.001 3.884 2.063 6.554 2.063 2.398 0 3.733-0.849 6.131-0.849 0.789 0 1.274-0.061 2.002 0.242 0.667 0.273 0.819 0.819 1.336 1.335 0.515 0.516 0.879 0.79 1.335 1.336 1.912 2.216 2.579 3.915 3.035 6.797 0.333 2.034 0.636 3.521 2.185 4.856 0.637 0.546 1.183 0.79 1.942 1.092 0.759 0.304 1.214 0.759 2.064 0.85 1.122 0.121 1.729 0.121 2.853 0.121 7.162 0 11.136-1.122 18.268-1.82 2.215 0.03 3.46 0.121 5.675 0.121 1.244 0 1.942 0.273 3.186 0.364 1.851 0.122 2.883 0.031 4.734 0.243 1.001 0.091 1.578 0.242 2.549 0.486 0.818 0.182 1.214 0.577 1.942 0.971 1.457 0.789 2.427 1.183 3.642 2.306 1.396 1.274 2.002 2.367 3.399 3.641 0.91 0.85 1.335 1.457 2.306 2.185 0.697 0.516 1.214 0.729 1.943 1.215 0.607 0.394 0.94 0.88 1.577 1.214 1.578 0.88 2.731 1.153 4.006 2.427 1.032 1.032 1.365 1.82 2.306 2.913 1.001 1.153 1.578 1.791 2.427 3.035 0.88 1.305 1.153 2.367 2.428 3.277 2.427 0 3.762 0.242 6.19-0.121 1.396-0.212 1.487-1.639 2.55-2.549 1.122-0.971 1.79-1.487 3.034-2.306 1.032-0.667 1.578-1.214 2.549-1.943 0.637-0.486 1.153-0.637 1.82-1.093 0.667-0.455 0.911-0.88 1.578-1.335 1.518-1.032 2.55-1.547 4.37-1.82 0.667-0.091 1.032-0.365 1.729-0.365h3.096c1.396 0 2.185 0.516 3.551 0.728 2.397 0.395 3.763 0.698 6.069 1.457 0.728 0.242 1.243 0.303 1.943 0.607 0.576 0.242 0.879 0.607 1.456 0.85 1.791 0.819 2.883 1.153 4.856 1.456 1.274 0.638 1.76 1.488 3.035 1.943 2.609 0.971 4.4 1.032 6.797 2.427 1.214 0.698 2.003 1.123 2.913 2.185 0.304 0.364 0.394 0.638 0.728 0.971 0.971 0.971 1.517 1.609 2.185 2.792 0.668 1.153 1.154 1.821 1.699 3.034 0.243 0.577 0.577 0.911 0.85 1.457 0.667 1.336 0.85 2.276 1.699 3.521 0.546 0.819 1.245 1.092 1.699 1.942 0.667 1.214 1.123 1.943 1.943 3.034 1.062 1.427 1.911 2.185 3.52 2.914 0.576 0.242 0.88 0.638 1.457 0.849 0.794 0.325 1.418 0.519 2.099 0.625h2.556c0.853-0.178 1.525-0.555 2.507-0.867 1.942-0.638 3.217-0.819 5.098-1.578 1.093-0.455 1.668-0.88 2.671-1.457 0.88-0.516 1.365-0.97 2.185-1.577 2.033-1.518 3.551-1.912 5.827-3.035 1.214-0.607 1.85-1.153 3.155-1.578 1.822-0.607 2.852-0.941 4.491-1.942 0.546-0.334 1.001-0.394 1.578-0.607 2.246-0.88 3.49-1.487 5.827-2.185 0.576-0.152 0.88-0.425 1.456-0.608 2.549-0.849 4.097-1.274 6.798-1.577 0.667-0.062 1.062-0.243 1.729-0.243h2.367c1.002 0 1.578-0.334 2.58-0.364 2.215-0.091 3.58 0.122 5.705-0.485 1.184-0.334 1.822-0.668 3.035-0.971 1.547-0.364 2.458-0.759 4.006-1.214 0.637-0.183 1.093-0.183 1.699-0.364 1.457-0.486 2.185-1.244 3.521-1.943 0.758-0.394 1.214-0.758 1.942-1.214 1.001-0.637 1.426-1.183 2.185-2.064 0.728-0.818 1.487-1.062 2.064-1.942 1.365-2.003 2.275-3.096 3.884-4.856 0.667-0.728 0.941-1.335 1.578-2.064 1.335-1.517 2.397-2.094 4.127-3.155 0.638-0.394 0.941-0.698 1.578-1.093 0.941-0.577 1.518-0.941 2.55-1.336 0.941-0.364 1.517-0.849 2.549-0.849 1.153 0 1.791 0.486 2.914 0.728 1.487 0.334 2.306 0.486 3.824 0.486 3.125 0 4.703-1.699 7.829-1.699l0.607 0.242c0.394 0.82 0.911 1.153 1.335 1.943 0.577 1.032 1.001 1.609 1.821 2.427 0.667 0.667 1.001 1.184 1.699 1.821 0.818 0.76 1.547 0.911 2.427 1.578 0.182 0.122 0.182 0.364 0.364 0.486 0.667 0.486 1.183 0.486 1.942 0.729 1.547 0.515 2.489 0.728 4.128 0.728 2.033 0 3.217-0.394 5.219-0.728 1.547-0.243 2.458-0.394 4.006-0.729 1.122-0.242 1.821-0.364 2.913-0.728 0.758-0.242 1.153-0.638 1.942-0.85 1.578-0.424 2.549-0.607 4.006-1.335 1.001-0.486 1.639-0.85 2.549-1.457 0.819-0.546 1.062-1.183 1.822-1.82 1.639-1.396 2.64-2.154 4.491-3.156 0.728-0.394 1.274-0.486 2.063-0.728 2.519-0.759 4.036-0.971 6.677-0.971 1.487 0 2.457 0.091 3.762 0.729 0.79 0.394 1.184 0.88 1.943 1.335 0.759 0.456 1.183 0.819 1.821 1.457 0.486 0.486 0.667 0.941 1.093 1.456 1.275 1.457 2.094 2.276 3.763 3.156 0.971 0.516 1.547 0.88 2.549 1.335 0.607 0.274 1.062 0.364 1.699 0.608 0.971 0.364 1.639 0.455 2.671 0.607 2.549 0.394 3.975 0.698 6.555 0.97 2.457 0.274 3.884 0.243 6.312 0.607 1.062 0.152 1.699 0.214 2.792 0.365 0.243 0.031 0.365 0.243 0.607 0.243 1.669 0.182 2.579 0.334 4.249 0.364 5.28 0.183 8.194 1.699 13.473 1.699 2.458 0 3.854-0.242 6.313-0.242 0.941 0 1.487-0.03 2.427-0.121 1.032-0.091 1.639-0.243 2.67-0.364 1.699-0.182 2.731-0.091 4.37-0.486 1.943-0.486 2.913-1.093 4.612-2.185 0.394-0.242 0.698-0.365 1.093-0.607 0.88-0.576 1.184-1.274 2.064-1.82 1.457-0.911 2.398-1.336 3.885-2.185 0.577-0.334 1.093-0.425 1.457-0.971 0.425-0.637 0.728-1.153 1.457-1.457 0.758-0.303 1.153-0.819 1.942-1.093 1.093-0.394 1.851-0.303 3.035-0.364 2.185-0.152 3.277-1.214 5.462-1.214 0.608 0 0.88 0.364 1.457 0.485 1.76 0.395 2.792 0.729 4.612 0.729 1.305 0 2.003-0.243 3.277-0.486 1.426-0.273 2.216-0.425 3.642-0.728 2.397-0.546 3.793-0.638 6.19-1.215 1.032-0.242 1.639-0.455 2.67-0.728 1.305-0.334 1.973-0.971 3.278-1.335 1.791-0.516 2.792-0.668 4.612-1.093 1.244-0.273 1.912-0.608 3.156-0.85 0.819-0.152 1.336-0.273 2.185-0.364 0.85-0.091 1.365-0.272 2.185-0.364 2.883-0.394 4.552-0.364 7.466-0.364 7.162 0 11.228 0.304 18.39 0.486 2.61 0.425 4.036 0.971 6.313 2.185 0.97 0.516 1.577 0.789 2.549 1.335 2.185 1.215 3.672 1.609 5.948 2.671 0.94 0.425 1.426 0.88 2.427 1.214 0.82 0.274 1.366 0.486 2.185 0.729 2.276 0.667 3.703 0.607 5.948 1.335 1.699 0.546 2.579 1.063 4.37 1.335v1e-3c0.212-1.336 0.333-2.64 0.728-3.884 0.425-1.305 0.85-2.064 0.85-3.46 0-0.607 0-0.941-0.121-1.517-0.152-0.607-0.486-0.941-0.486-1.578 0-0.79 0.273-1.245 0.607-1.943 0.485-0.97 0.577-1.699 1.214-2.549 0.698-0.911 1.305-1.426 2.185-2.185s1.821-1.245 1.821-2.428c0-1.547-0.546-2.396-1.214-3.762-0.303-0.608-0.607-1.002-0.607-1.7 0-1.456 0.486-2.246 0.486-3.702 0-0.971 0-1.669-0.486-2.489-0.334-0.576-0.911-0.637-1.456-0.971-0.456-0.272-0.547-0.849-1.094-0.849-0.667 0-0.97 0.638-1.214 1.214-0.334 0.728-0.486 1.274-0.607 2.064-0.242 1.639-0.121 2.731-0.728 4.249-0.576-0.88-0.667-1.578-1.093-2.549-0.213-0.546-0.667-0.819-0.667-1.426 0-0.971-0.183-1.487-0.183-2.458 0-1.093 0.243-1.73 0.243-2.823 0-1.062-0.394-1.699-0.85-2.64-0.394-0.79-0.607-1.426-1.335-1.943-0.576-0.394-1.457-0.486-1.457-1.214s0.335-1.183 0.85-1.699l-0.122-0.486c-1.093-0.455-1.821-0.576-2.913-0.971-1.123-0.394-1.699-1.093-2.913-1.093-1.245 0-1.851 0.911-2.55 1.943-0.667 0.971-1.093 1.517-2.064 2.185-0.516 0.334-0.819 0.728-1.456 0.728-0.243 0-0.304-0.272-0.486-0.364-0.364-0.212-0.636-0.486-0.85-0.85-0.515-0.819-0.637-1.457-0.849-2.427-0.425-1.851-1.062-2.823-1.214-4.734l-0.486-0.121c-1.972 0.759-2.944 1.487-4.977 1.942 0.455-1.881 0.667-3.004 1.335-4.856 0.365-1.031 0.607-1.608 0.85-2.67 0.091-0.394-0.091-0.759 0.121-1.093 0.304-0.486 0.88-0.607 1.487-0.607h7.495c0.881-0.88 1.123-1.669 1.578-2.792 0.425-1.063 0.971-1.64 0.971-2.793 0-2.033-1.062-3.307-2.671-4.491l-0.391-0.195c-0.915-1.204-1.537-1.879-2.401-3.203-0.607-0.911-0.667-1.699-1.214-2.671-0.212-0.425-0.729-0.486-0.729-0.971 0-0.667 0.881-0.637 1.457-0.97 0.728-0.425 1.032-0.82 1.699-1.336 1.002-0.758 2.671-0.667 2.671-1.942 0-2.306-0.789-3.611-1.335-5.827-0.485-1.881-0.698-2.974-1.457-4.734-0.759-1.761-2.55-2.033-4.491-2.185-2.154-0.152-3.308-0.85-5.462-0.85l-0.121-0.971 3.034-9.104v-2.549h0.82c1.001 0 1.336 1.093 2.337 1.093 1.244 0 1.821-1.304 1.942-2.549 0.061-0.608 0.031-1.001 0.122-1.578 0.182-1.001 0.486-1.608 0.486-2.64v-3.066c1.577-1.76 3.611-1.456 6.008-1.456 2.216 0 3.429 0.152 5.645 0.242l7.162-1.457c-0.365-1.093-0.88-1.608-1.699-2.427-0.729-0.728-1.063-1.366-1.822-2.064-0.303-0.272-0.849-0.394-0.849-0.849 0-0.394 0.364-0.577 0.364-0.971 0-0.788-0.364-1.214-0.607-1.943-0.272-0.818-0.576-1.304-0.97-2.063-0.546-1.032-1.123-1.487-1.943-2.307-0.667-0.667-1.214-1.214-1.214-2.184 0-0.79 0.607-1.123 1.093-1.7 0.638-0.728 0.94-1.244 1.699-1.82 0.334-0.242 0.667-0.212 0.971-0.486 0.607-0.546 0.728-1.122 0.728-1.942 0-2.033-0.455-3.247-1.214-5.099-0.213-0.546-0.425-0.91-0.607-1.456-0.061-0.182-0.243-0.243-0.243-0.455v-2.975c0-1.184 0.121-1.851 0.365-3.004 0.031-0.182 0.242-0.242 0.242-0.455s-0.121-0.304-0.121-0.516h-2.396c-0.911 0-1.306-0.637-2.216-0.728-0.759-0.061-1.184-0.061-1.943-0.121-0.182-1.274-0.212-2.003-0.364-3.277-0.091-0.759-0.183-1.244-0.486-1.943-0.273-0.637-1.093-0.758-1.093-1.456 0-0.638 0.789-0.698 1.335-0.971s0.941-0.516 1.457-0.85c0.759-0.516 1.517-0.637 1.942-1.456 0.243-0.486 0.243-0.88 0.243-1.457 0-0.819-0.031-1.335-0.365-2.064-0.09-0.212-0.334-0.242-0.486-0.364-0.607-0.546-1.214-0.607-1.942-0.971-0.212-0.09-0.183-0.334-0.365-0.486-0.182-0.728-0.121-1.335-0.121-2.094 0-1.123-0.091-1.881 0.364-2.883 0.365-0.819 0.85-1.183 1.336-1.942 0.82-1.245 1.366-1.882 2.306-3.035 0.667-0.819 1.457-1.245 1.457-2.306 0-0.85-0.607-1.274-1.093-1.943-0.698-0.941-1.123-1.578-2.064-2.306-0.636-0.486-1.335-0.758-1.335-1.578 0-2.094 1.791-3.763 3.884-3.763 1.456 0 2.275 0.274 3.641 0.729 0.85 0.273 1.396 0.607 2.306 0.607 1.822 0 2.792-0.667 4.613-0.85 1.184-0.121 1.851-0.242 3.034-0.364 0.79-0.091 1.699-0.304 1.699-1.093 0-2.003-1.062-2.975-1.699-4.856-0.607-1.817-0.91-2.879-1.335-4.761z" fill="#E31B23"/>
	<polygon points="1281 894.03 1449 772 1241.4 772 1177.2 574.55 1113.1 772 905.47 772 1073.4 894.03 1009.3 1091.5 1177.2 969.45 1345.2 1091.5" fill="#00853F"/>
</svg>