<?xml version='1.0' encoding='utf-8'?>
<svg xmlns="http://www.w3.org/2000/svg" enable-background="new 0 0 2700.8081 1405" version="1.1" viewBox="0 0 2700.8081 1405">
		<path d="m717.88 1339.9c4.2089 0 6.6494-0.7782 10.717-1.7686 0.2578-0.0645 0.494-0.1315 0.7225-0.1995h-18.829c2.3835 1.1097 4.3268 1.9681 7.3894 1.9681z" fill="none"/>
		<path d="m2336 914.69c1.3794 0.389 2.3345 0.3182 3.749 0.6366 2.7588 0.672 3.8201 2.6527 6.6143 3.1125 0.6367-1.5917 0.5305-2.7235 1.344-4.209 0.0432-0.0803 0.093-0.1495 0.1375-0.2273h-13.233c0.4441 0.2007 0.8166 0.5044 1.3879 0.6872z" fill="#EE1C25"/>
		<path d="m2245.9 915.32c0.8135 1.9807 2.2991 2.6173 3.5371 4.4211 0.6011 0.955 1.0256 1.6624 1.5208 2.6527 0.7073 1.3794 0.7073 2.6173 1.7686 3.7491 0.8489 0.8842 1.8391 1.1318 3.1125 1.1318 1.8745 0 2.9709-0.4598 4.8455-0.4598 2.4758 0 4.209 0.8843 5.9773 2.6527 2.6882 1.3441 3.3604 3.7491 6.1897 4.4211 0.8137 0.1769 1.3088-0.2123 2.1931-0.2123 2.0513 0 3.1477 0.4246 5.1992 0.4246 2.2988 0 3.5369-1.0964 5.8359-1.0964 1.2732 0 1.8745 0.5659 3.1123 0.8842 1.7686 0.5659 2.865 0.9904 4.6335 1.5563 1.0964 0.3184 1.9807 0.4244 2.865 1.0964 0.5659 0.4244 0.5659 1.3086 1.0962 1.7686 0.6721 0.5659 1.3442 0.6719 2.2285 0.6719 2.5464 0 5.093-1.6624 5.093-4.2089 0-0.7782-0.5659-1.2733-0.6719-1.9807-0.1062-0.672 0-1.1671 0-1.8746 0-4.2795 0.1414-6.6847 0.4243-10.964 0.0708-1.0964-0.3184-1.91 0.2476-2.865 0.5305-0.9196 1.7332-0.7074 2.865-0.8842 1.7686-0.2477 2.7942-0.8843 4.6333-0.8843 1.5564 0 2.582 0.9904 3.0771 2.4404 0.2476 0.7074 0.1062 1.5563 0.6721 1.9807 1.45 1.2379 2.7588 1.0964 4.6333 1.0964 2.6526 0 4.5979 0.283 6.6494-1.3086 0.6367-0.4952 0.6013-1.3441 1.0964-1.9807 0.6721-0.8843 1.3086-1.344 2.1929-1.9807 0.7229-0.5679 1.2222-1.2449 1.9465-1.5713h-87.429c0.1243 0.4211 0.2659 0.8546 0.4548 1.3239z" fill="#EE1C25"/>
			<path d="m70.944 917.97c0 1.1318 0.7781 1.4855 1.3087 2.4404 0.8489 1.4856 0.5306 2.7235 0.8842 4.4213 0.3537 1.4855 0.7781 2.4404 1.7685 3.5369 0.7074 0.7782 1.3441 1.5563 2.4405 1.5563 0.7781 0 1.0964-0.5659 1.7684-0.8843 1.3795-0.672 2.0161-1.8391 3.537-2.0161 0.7073-0.0707 0.8488 1.0612 1.0964 1.7686 0.4244 1.2732-0.0354 2.3698 0.672 3.5369 0.1769 0.3184 0.6367 0.3892 0.8842 0.6721 1.5209 1.7684 2.8649 2.7588 5.0932 3.749 2.5112 1.1672 3.9614 2.1223 6.1542 3.7493 1.5563 1.1671 4.1028 1.733 3.537 3.5369-0.955 3.2539-1.91 6.5081-2.8649 9.7266-0.3891 1.3794 0.9904 2.1222 1.344 3.5369 1.2026 4.9872 1.6978 7.8521 3.9614 12.379 1.0611 2.0867 1.8392 3.1831 2.8649 5.3054 0.6721 1.3794 1.0257 2.3696 1.9807 3.5369 0.283 0.3184 0.283 0.7074 0.672 0.8843 2.2283 0.9902 3.8199 0.8843 6.2604 0.8843h5.1639c1.8392 0 3.6077 1.2732 3.6077 3.077 0 1.3794-0.8843 2.4406-1.3087 3.7491-0.6013 1.7686-1.0258 2.7234-1.7685 4.4211-1.0257 2.2283-0.8842 3.7493-0.8842 6.1897 0 1.6978 0.0353 2.8649 0.6367 4.4211 1.2025 3.0417 3.4308 4.1382 4.8809 7.0739 1.0965 2.2637 1.3087 3.7491 1.9807 6.1896 1.4501 5.1993 3.0771 7.9583 4.4211 13.264 0.4244 1.7684 0.8842 2.7589 0.8842 4.5626v4.5273c0 2.4404 1.0258 6.3311 1.238 8.7715 3.1125 0.8135 4.598 2.3345 6.9324 4.4213 0.2476 0.2476 0.6367 0.1769 0.8842 0.4598 0.4952 0.5659 0.5306 1.0964 0.8842 1.7683 1.238 2.3345 2.9711 3.0771 5.0932 4.6335 5.0578 3.7844 9.868 2.688 15.209 5.9773 1.9453 1.1672 3.0417 2.2283 5.3054 2.6528 0.9904 0.1768 1.627-0.0708 2.6527 0 0.7781 1.7683 2.2636 3.5723 3.1125 5.27 0.8135 1.6624 0.9196 2.7942 1.7685 4.4211 0.3183 0.6719 0.8135 1.061 1.0964 1.7684 0.389 1.061 0.389 1.7684 0.672 2.9003 0.6013 2.2637 1.3087 3.4662 2.4405 5.5176 1.8038 3.4309 4.8456 4.9164 4.8456 8.8423 0 1.238-0.5659 1.9807-1.0964 3.0771-0.7781 1.4856-1.2733 2.6528-2.6527 3.537-1.8392 1.2025-3.3247 2.4406-3.3247 4.6334 0 1.8745 0.7781 2.8649 1.3441 4.6333 0.1415 0.6013 0.2122 1.1672 0.4244 1.7686 0.389 1.1671 1.0964 1.8391 1.0964 3.1124 0 2.0868-1.3087 3.0771-2.4052 4.8456-0.3537 0.6013-0.8842 0.9905-0.8842 1.7686 0 0.4597 0.7074 0.3184 0.8842 0.672 0.3537 0.6012 0.6367 1.1671 1.0965 1.7684 1.1672 1.5916 3.0771 2.1575 3.0771 4.1736 0 1.5563-1.2733 2.1222-2.4051 3.1125-2.3344 1.9807-5.0932 3.0771-5.0932 6.1896 0 1.1671 1.2733 1.4148 2.1929 1.9807 0.7427 0.4598 1.1318 0.8135 1.7684 1.344 1.4501 1.0258 1.627 2.5112 2.6527 3.9613 0.7781 0.9905 1.1672 2.193 2.4405 2.193 1.1672 0 1.5563-1.0964 2.1929-1.9807 1.0258-1.3794 2.2637-1.7684 3.7845-2.6527 1.8746-1.1672 3.0064-2.405 5.27-2.405 1.1318 0 0.955 1.5208 1.5563 2.405 0.8488 1.1672 1.8746 1.3794 3.3247 1.5563 2.4405 0.283 4.2443-0.0707 6.1896 1.3087 1.6624 1.1671 2.0868 2.4404 3.0771 4.209 0.9904 1.7683 1.6624 2.7588 2.8649 4.4211 0.6721 0.9548 1.627 1.1671 2.6527 1.7684 0.3537 0 0.7427 0.2123 1.0611 0.2123 1.1672 0 1.7684-0.7075 2.7234-1.3088 2.1221-1.4501 2.688-3.4307 5.0578-4.4211 1.0611-0.4597 1.8392-0.4951 2.8649-0.8842 1.7331-0.6013 2.7588-1.3441 4.6687-1.3441 1.4855 0 2.1222 1.0612 3.5016 1.5564 1.0257 0.3182 1.6624 0.2122 2.7942 0.2122 2.582 0 4.0674-0.6367 6.5079-1.5209 0.7781-0.283 1.2026-0.7428 1.9807-0.8843 2.2283-0.4598 6.3665-2.6173 8.6301-2.7588 0 5.8359 10.894 10.434 14.82 11.637 3.3601 1.061 4.6334 0.7427 8.1703 1.3086 1.2025-0.0354 16.234 3.0417 17.19 3.3601l4.4212 2.7942c1.5562 1.5562 2.9003 1.6978 3.9967 3.5369 0.6013 1.0256 1.4855 1.4856 1.9807 2.6527 0.7073 1.6624 0.8842 2.7588 1.5562 4.4211 0.5306 1.3795 1.0964 2.1576 1.7685 3.537 0.4598 0.9902 0.7427 1.6624 1.3087 2.6173 0.9904 1.733 2.1221 2.4406 3.1125 4.2089 0.9904 1.7686 1.6978 2.8296 2.8649 4.4213 1.0257 1.4501 1.5562 2.5819 3.0771 3.537 1.627 0.9902 2.8649 1.2732 4.4211 2.4404 1.6977 1.2732 2.971 2.1929 3.7491 4.1736 0.7074 1.7332 0.3183 3.1125 1.3441 4.6687 2.2283 3.4309 5.8359 2.9357 9.0545 5.5176 1.91 1.5564 2.1929 3.2894 3.9614 5.0579 1.2379 1.2379 2.299 1.5916 3.5369 2.6527 2.6174 2.1929 4.4212 4.2797 4.4212 7.6752v5.4115c0 2.2283 1.4855 3.5016 3.3247 4.598 1.2026 0.7073 2.0514 1.5562 3.5369 1.5562 2.6527 0 3.5723-2.6526 6.225-2.6526 1.627 0 3.2186 0.1061 4.8102 0 1.4855-0.1062 2.9357-0.4598 4.4212-0.6721 1.3794-0.2122 2.6526 1.0612 2.6526 2.4406 0 2.5465-1.344 3.8552-1.344 6.4019 0 3.1832 2.582 4.5272 5.0931 6.4019 3.1125 2.299 4.9164 3.9259 6.8617 7.286 0.7427 1.344 1.2733 2.0869 1.7684 3.537 0.1061 0.3182 0.4244 0.4598 0.4244 0.8135v7.8519c0 0.7075 0.3891 1.0964 0.672 1.7332 0.4952 1.0964 0.8843 1.9099 1.7685 2.6527 0.283 0.2123 0.6367 0.1769 0.8842 0.4244 1.0258 1.1318 1.6978 2.0514 1.9807 3.5369 0.1061 0.6013-0.2122 1.0964-0.2122 1.7686 0 2.7588 1.4855 4.0674 3.3247 6.1896 0.8135 0.9904 1.4855 1.5917 2.4051 2.4406 1.0611 0.9196 1.6624 1.9807 3.1125 1.9807 2.1575 0 3.1478-1.3087 5.0578-2.2283 2.5112-1.1318 4.2089-1.3087 6.9678-1.3087 1.6624 0 2.4051 1.344 4.1028 1.0964 1.4501-0.2123 2.9356-0.4244 4.4211-0.672 2.1221-0.3184 2.8649 1.7684 4.3858 3.3247 1.2379 1.2025 2.3344 1.6624 3.5369 2.865 0.6367 0.6012 0.7427 1.1671 1.3441 1.7683 1.8746 1.8746 2.8649 3.1479 4.8456 4.8811 1.344 1.1318 2.0514 2.405 3.8199 2.405h4.3151c1.8038 0 3.3247 0.2122 4.4565 1.5563 0.672 0.7782 0.7781 1.6624 1.1318 2.6527 0.8489 2.3698 0.7074 4.0321 1.5209 6.4019 0.5659 1.6624 4.6688 3.5369 2.8649 3.5369h-0.4244c-1.8392 0 2.0868 1.9453 3.5369 2.865 4.1028 2.7234 6.2958 4.5626 10.823 6.4019 2.5819 1.061 4.3151 1.1318 7.0739 1.5562 4.4211 0.6721 7.1093 0.7782 11.247 2.4406 0.7427 0.283 1.2733 0.389 2.0161 0.672 1.1318 0.4244 1.4855 1.5563 2.6527 1.9807 1.8746 0.6366 3.1478 0.8843 5.1639 0.8843 2.8296 0 4.3858-0.8843 7.18-0.8843 3.2186 0 4.881 1.7684 8.0642 1.7684 7.9227 0 12.202-2.2283 20.125-2.2283 5.4116 0 8.1703 3.1124 13.582 3.1124 3.0417 0 4.4919-2.688 7.4983-2.2283 2.7588 0.46 5.5176 0.8843 8.2764 1.3441 3.1125 0.4952 5.1993-0.8842 7.4276-3.1124 0.6367-0.6367 0.8135-1.2026 1.3087-1.9807 0.7781-1.2026 1.6978-1.8392 2.6527-2.865 1.6978-1.8745 3.3601-3.1125 5.9774-3.1125 1.6624 0 2.5112 0.8136 3.9614 1.5564 3.8553 2.0514 5.7652 5.0931 10.151 5.0931 2.6527 0 3.6431-1.733 5.9774-2.8649 0.955-0.4598 1.6624-0.3538 2.6527-0.6721 1.4501-0.4597 2.0514-1.344 3.5369-1.7684 1.5916-0.4598 2.7234-0.1415 4.4211-0.2123 1.2026-0.0707 1.8746-0.5659 3.0771-0.6719 2.2636-0.2123 3.5016-0.46 5.7652-0.46 3.926 0 6.1189 1.0612 9.9388 2.0161 3.7845 0.9197 6.0835 0.7074 9.9388 1.3087 3.254 0.4951 5.0932 1.2733 8.3825 1.5563 2.0868 0.1768 3.254 0.7781 5.3054 1.0964 3.1125 0.4951 5.0932-0.0354 7.9581 1.0964 1.0258 0.4244 1.6624 1.061 2.6527 1.5562 1.9807 1.0258 3.4308 1.3794 5.5176 2.2283 2.0514 0.8135 3.36 1.521 5.6237 1.521 4.9163 0 7.18-3.537 12.096-3.537h5.8713c1.8038 0 2.9357 0.389 4.7042 0.672 2.4758 0.3892 4.0321 0.4598 6.4018 1.344 1.4855 0.5306 2.299 1.1318 3.7492 1.7332 1.3087 0.5659 1.7684 1.4502 3.0771 2.0161 0.8929 0.3826 1.6888 0.7578 2.4433 1.1091h18.829c1.1508-0.3425 2.0053-0.7256 3.2742-1.1091 2.582-0.8489 4.1736-0.8489 6.8263-1.5563 5.6591-1.5563 8.6655-2.9003 14.36-4.209 3.926-0.8842 6.2604-0.6012 10.186-1.7684 3.5723-1.0258 5.1286-2.9711 8.5948-4.1736 1.1672-0.4244 1.7331-1.061 2.8649-1.5563 2.5112-1.0964 3.5015-2.5819 5.7652-3.9967 3.0771-1.9099 5.1993-2.865 8.8423-2.865 3.3954 0 6.2604-1.0256 9.0546 0.8843 4.7395 3.2893 6.9324 7.9581 12.804 7.9581 3.9614 0 5.9774-2.0514 9.7266-3.0771 3.4308-0.955 5.6237-1.4501 8.8423-3.1124 3.8552-1.9807 6.1896-3.9614 10.575-3.9614 4.3151 0 6.6495 1.627 10.611 3.0771 7.1799 2.6526 11.707 3.9967 19.453 3.9967 4.8456 0 7.8166-0.6366 12.379-2.2283 1.4147-0.4952 2.0868-1.3794 3.5369-1.7684 3.3247-0.8489 5.7298-1.0964 8.8069-2.6527 3.1125-1.5209 3.9967-4.0675 7.0739-5.7299 4.1028-2.1929 6.4726-3.0063 10.399-5.7299 2.7234-1.9099 2.6174-4.8102 2.8649-8.2057 0.0707-1.0256 0.4598-1.6624 0.6721-2.6526 0.6366-3.1833 0.9196-5.3408 2.6526-8.1704 1.9807-3.1832 5.0579-3.5369 8.8423-3.9614 3.7491-0.4243 5.8359-0.2122 9.5851-0.2122 3.4308 0 5.3054-0.2122 8.7362 0 1.9807 0.1062 3.0771 0.4244 5.0932 0.6367 1.4855 0.1768 2.299 0.2122 3.7491 0.4597 1.8746 0.3184 2.971 0.7428 4.8456 1.0964 2.6174 0.5305 4.3151 0.6367 6.897 0.6367 1.2026-3.6077 1.9453-5.8005 3.926-8.807-2.1929-0.5658-3.4308-1.061-5.5176-1.7684-3.1479-1.0964-5.5883-2.0868-7.0739-5.0933-1.4148-2.9001-1.0964-5.1284-2.4051-8.1702-0.1769-0.4246-0.6367-0.5306-0.8843-0.8843-1.061-1.1672-1.8392-2.0161-3.3247-2.6527-2.6527-1.0966-4.8102-0.2123-7.2861-1.7684-1.3441-0.8135-1.0964-2.4052-2.2283-3.5016-0.7781-0.7782-1.5916-0.7782-2.6527-1.1318-2.0161-0.6366-3.3954-0.8136-5.27-1.7684-2.4405-1.2026-4.4211-2.7588-4.4211-5.5176 0-2.582 1.0964-4.0322 1.0964-6.6141 0-1.7684-0.8842-2.7235-1.3441-4.4213-0.4952-2.0513-0.3183-3.4307-0.6367-5.5176-0.1768-1.2378-0.5659-1.9807-0.5659-3.2539v-9.3021c0-1.1672 0.955-1.6625 1.8746-2.2637 1.3794-0.8842 2.2636-1.4855 3.1125-2.8649 1.0964-1.8392 1.5209-3.2186 1.5209-5.3408v-6.7556c0-1.9453 0.8842-2.9709 0.8842-4.9163 0-1.8038-0.3183-3.0771-1.5209-4.4211-1.0611-1.1672-2.4051-1.1672-3.5369-2.1929-1.5563-1.4502-1.4501-3.2186-1.7685-5.3054-0.1768-1.0964-0.4598-1.8392-0.4598-3.0063 0-1.4148 0.1061-2.4758 0.8842-3.6431 0.1769-0.2476 0.1769-0.7074 0.4598-0.8843 1.1318-0.8135 2.3698-0.2122 3.7491-0.6367 2.2636-0.7427 3.2893-2.0513 5.7298-2.6526l6.8617 1.7684c1.8038-0.7428 2.688-1.6271 4.1735-2.8649 3.3248-2.8296 5.553-5.3762 5.553-9.7266 0-4.2798-2.9003-6.3665-2.9003-10.611 0-1.5916 1.2733-2.2637 2.4405-3.3247 1.9807-1.8038 3.5369-3.4309 3.5369-6.1897 0-1.0964-0.8842-1.5208-0.8842-2.6526 0-2.5466 1.6624-3.8552 3.5369-5.5177 1.3087-1.1671 1.7685-2.3698 2.8649-3.7491 0.4598-0.5659 0.7781-1.3086 1.5562-1.3086 1.6978 0 2.3698 1.4148 3.9614 1.9807 3.3248 1.1671 5.3054 2.1929 8.8423 2.1929 1.3794 0 2.4759-0.2123 3.3247-1.3087 1.1672-1.6271 1.6624-3.0417 3.5369-3.9967 1.5563 2.1221 3.3601 3.3247 6.0128 3.3247h4.9517c1.9099 0 3.0417-0.5659 4.7041-1.344 1.0611-0.4246 1.8392-0.7075 2.8649-1.3087 1.344-0.7782 2.1221-1.5563 3.5369-1.9807 2.5112-0.8488 4.2089-0.672 6.8616-0.672 3.3247 0 5.3054 0.3184 8.3825 1.5563 2.0161 0.7781 3.1479 1.7684 5.3054 1.7684 1.4502 0 2.5466-0.1061 3.537-1.0964 0.7781-0.7781 0.7781-1.6624 1.0964-2.6527 0.7781-2.1222 1.627-3.2894 2.4404-5.3054l0.6721-0.8842c0.9196-1.4502 1.5916-2.2283 2.8649-3.3247 1.1672-0.9905 1.9807-1.7686 3.5369-1.7686 1.6625 0 2.4406 1.2026 3.7493 2.1929 1.4501 1.1318 1.9453 2.3345 3.5369 3.1125 1.2379 0.6013 2.1576 0.5659 3.537 0.672 2.1575 0.1415 3.36 0.6013 5.3053 1.5209 1.5917 0.7781 2.1576 2.4404 3.9614 2.4404 1.8745 0 2.6527-1.3086 3.9967-2.6526 1.5563-1.5563 2.582-2.4404 4.4211-3.5369 0.9197-0.5306 1.4856-1.3088 2.6527-1.3088 0.7782 0 1.0964 0.5306 1.7686 0.8843 1.0256 0.5305 1.6624 1.0964 2.6526 1.7686 1.238 0.8135 2.2991 1.0964 3.7491 1.5208 1.4148 0.46 2.4052 0.8843 3.9614 0.8843 2.9357 0 4.4919-2.0867 6.1896-4.4211 1.1674-1.5916 2.1576-3.2893 4.2091-3.2893 1.2732 0 1.4854 1.4148 2.4404 2.1929 1.0964 0.955 1.8745 1.4502 3.0771 2.2283 1.5562 0.9904 2.6526 1.4856 4.4211 1.9807 2.2637 0.6013 3.6431 0.9196 5.942 1.3086 1.4148 0.2476 2.1576 0.6721 3.6077 0.6721h14.254c3.9614 0 6.2251 1.061 9.762 2.8649 1.8746 0.9904 2.9357 2.4406 5.0933 2.4406 1.2732 0 1.5916-1.3088 2.1929-2.4406 0.672-1.2025 1.344-1.8746 2.0161-3.0771 0.6012-1.1671 0.7073-2.0868 1.5208-3.1124 2.2283-2.582 4.8103-2.7942 8.1704-3.537 3.5369-0.7428 6.0835-1.5917 8.1703-4.6334 0.7782-1.1318 1.2379-1.9099 2.016-3.0771 0.8843-1.3794 1.804-2.6526 3.537-2.6526 0.8842 0 1.3794 0.4243 2.1929 0.6719 1.8746 0.5306 3.1125 0.6367 5.0931 0.6367 1.3087 0 1.9807-0.4244 3.2894-0.6367 4.3151-0.7427 6.7555-1.5562 11.071-1.5562 1.0966 0 1.8746-0.1062 2.8649 0.2122 1.804 0.6013 2.6528 2.2283 4.6334 2.2283 1.2025 0 1.7684-0.8843 2.8649-1.344 1.3441-0.5305 2.2637-0.8843 3.7847-0.8843 1.0964 0 1.6976 0.6013 2.6172 1.0964 1.8394 0.9551 3.1479 1.1318 5.1993 1.1318 3.0065 0 4.6334-0.8843 7.6398-0.8843 3.1479-1.8391 4.0675-3.2185 6.614-5.7651 2.2637-2.2637 4.9164-1.6978 7.746-3.2893 0 0.3536 0.2123 0.5305 0.2123 0.9196 0 0.4952-0.46 0.7782-0.46 1.2733 0 2.1575 1.5564 3.0417 2.6528 4.8456 1.061 1.733 1.9099 2.7942 3.3247 4.209 2.3696-1.8746 2.4758-4.0321 4.6333-6.1896 1.9807-1.9807 4.881-0.9905 6.4019-3.2894 0.7781-1.2379 0.7428-2.3344 1.1318-3.7845 0.9197-3.3601 0.9904-5.4115 1.5209-8.8423 0.5659-3.5723 0.955-5.6238 1.3441-9.2668 0.1414-1.5562 0.0353-2.5819 0.6719-3.9613 0.4246-1.0612 0.8136-1.6624 1.3087-2.6527 0.5659-1.0964 1.7684-1.0964 2.6527-1.9807 1.6978-1.733 2.6527-3.3247 2.6527-5.7651 0-2.6881-0.8842-4.3151-2.1929-6.614-0.6366-1.0612-1.3441-1.5564-1.7684-2.6528-0.8489-2.0513-0.7782-3.3247-1.3441-5.5176 2.7589-0.4597 3.8199-1.9807 6.1896-3.3247 0.9905-0.5659 1.8746-0.4951 2.6528-1.3086 0.9196-1.0258 0.8135-2.1576 1.0964-3.537 0.4597-2.2283 0.8135-3.5016 0.672-5.7653-0.1061-1.7683-0.6013-3.5369 0.8842-4.4211 0.5305-0.3184 1.0964 0.0708 1.7686 0 1.0256-0.1061 1.6624-0.4243 2.6526-0.6366 1.521-0.3536 2.5466-0.8489 3.7493-1.7684 0.283-0.2476 0.6013-0.2476 0.8843-0.4598 1.0964-0.9904 1.8037-1.8746 3.3247-2.193 2.7942-0.6719 4.5625-1.1317 7.0385-2.6526 1.1317-0.6721 1.2733-1.7332 2.2281-2.6527 2.9358-2.9357 4.8457-4.2443 7.2861-7.5337 2.5466-3.3954 4.2444-5.3407 7.2861-8.3824 1.5916-1.5917 2.6527-2.4758 3.9967-4.4211 0.7428-1.0966 0.8843-2.0869 1.9807-2.865 0.2123-0.1062 0.6012-0.1062 0.8842-0.2122 1.3794 2.405 2.865 3.5369 4.1736 5.9419 0.6367 1.1672 1.3794 1.7686 2.4406 2.6528 0.8842 0.7781 1.4855 1.5562 2.6527 1.5562 3.2539 0 4.9163-1.7684 8.1703-1.7684 1.5563 0 2.3344 1.1671 3.1124 2.4406 1.521 2.4758 2.865 4.0674 2.865 7.0031 0 1.5917-0.2122 2.476-0.2122 4.1029 0 1.3794 1.0256 1.9099 1.7684 3.0063 0.6366 1.0256 1.0258 1.7332 1.7684 2.6527 1.5209 1.9453 2.6527 3.0417 4.6334 4.4211 0.9904 0.672 1.5209 1.2733 2.6527 1.7684 1.2025 0.5659 2.2637 0.4598 3.5369 0.8843 1.4148 0.4951 1.9807 1.7686 3.537 1.7686 1.733 0 2.4052-1.5918 3.2893-3.0771 1.0612-1.8394 1.733-3.0065 3.1124-4.6335 0.8136-0.9902 1.6978-1.3794 2.6528-2.2281 1.2025-1.0966 2.0867-2.193 3.749-2.193 1.8746 0 2.2991 1.9807 3.7493 3.0771 1.2732 0.9905 2.2637 1.3794 3.749 1.9807 2.9358 1.2733 4.6335 2.1222 7.074 4.209 1.5562 1.344 1.9453 2.7588 3.0771 4.4211 0.2476 0.3184 0.672 0.3184 0.8843 0.672 0.3535 0.5306 0.2828 1.1672 0.6719 1.7684 0.9551 1.4856 2.4406 1.6978 4.209 2.1929 1.061 0.283 2.1929 0.6721 2.1929 1.7686 0 1.5916-1.3086 2.2283-2.1929 3.5369-1.2379 1.8394-1.7684 3.1125-3.3247 4.6334-1.3086 1.3441-2.1575 2.1576-3.0771 3.7491-0.7781 1.344-1.7684 2.0161-1.7684 3.537 0 0.7781 0.5305 1.1671 0.8842 1.7684 0.8843 1.4856 1.8746 2.1575 2.865 3.5369 1.3086 1.7686 1.3086 3.8199 3.3247 4.8811 1.3086-1.8394 2.3698-2.6174 3.9614-4.209 0.8135-0.8135 1.4855-1.344 2.4404-1.9807 0.672-0.4951 0.9197-1.1672 1.7686-1.344 1.3086-0.3184 2.1929 0 3.5723 0h4.3149c1.3794 0 1.6624 0.0707 2.9358-0.4246 2.6526-1.0964 3.749-2.7234 5.9419-4.6333 1.4502-1.2379 2.0515-2.3698 3.3247-3.7844 0.4952-0.5306 0.7782-1.3088 1.5564-1.3088 1.9099 0 2.7588 1.4856 4.4211 2.4406 3.1478 1.8038 4.8102 3.1478 7.7104 5.3054 2.3698 1.6978 3.6077 3.0771 5.9774 4.8456 1.9453 1.4502 3.7491 2.6527 3.7491 5.0933 0 0.3889-0.389 0.5305-0.4243 0.8842-0.283 1.2025-0.7429 1.91-1.1318 3.0771-0.3538 1.0612-0.6367 1.7684-1.3087 2.6527-0.7074 0.955-1.2025 1.5916-1.7684 2.6527-0.3184 0.6012-0.8843 0.9904-0.8843 1.6976v4.7041c0.955 0.1062 1.4502 0.2123 2.3698 0.2123 1.733 0 2.6173-0.6366 4.2443-1.0964 2.8296-0.7074 4.598-0.7782 7.5337-0.8842 2.5466-0.0354 3.3247-2.6881 4.1736-5.0933 0.6721-1.7332 1.5209-2.7588 2.4404-4.3857 1.238-2.1222 1.5564-4.1736 3.7493-5.0933 1.9453-0.8489 3.8198 0.4951 5.3054-0.8843 0.7781-0.7073 0.7781-1.5916 1.0964-2.6526 0.4597-1.3794 0.8842-2.2637 1.5562-3.537 0.7781-1.4501 1.4502-2.8649 3.1125-2.8649 1.2025 0 1.8745 0.4244 3.0771 0.4244 2.3696 0 3.4662-1.4855 5.5176-2.6527 1.9453-1.0964 3.1479-1.5916 5.3054-2.1929 4.4919-1.2733 6.7909-3.537 11.495-3.537 1.2025 0 1.9807 0.0707 3.0771 0.4598 1.733 0.5305 1.8746 2.2637 3.3247 3.2893 0.6013 0.4598 1.0964 0.6013 1.7684 0.8843 1.061-3.1833 2.4758-5.2346 5.5176-6.614 2.1223-0.9551 3.6431-0.6721 5.9775-0.6721 0.1414-0.4951 0.4243-0.8843 0.672-1.3086-1.733-1.7332-2.2283-3.3955-2.2283-5.7653 0-1.5563 0.389-2.7588 1.5563-3.7491 1.2732-1.061 2.299-1.3794 3.749-2.1929 0.7075-0.3892 1.3088-0.4598 1.9807-0.8843 0.8489-0.5659 1.0612-1.1672 1.7686-1.7684 1.4502-1.2379 2.4758-1.91 3.749-3.3247 2.1576-2.4406 2.8296-4.3505 5.0933-6.6141 0.283-0.283 0.3184-0.7427 0.672-0.8842 1.1672-0.672 2.1576-0.7782 3.537-0.8843 1.3794-0.1415 3.0771-0.2476 3.0771-1.627v-4.3151c0-0.4951 0.389-0.7074 0.4597-1.1318 0.7074-3.4308 3.0771-4.9163 3.0771-8.418 0-2.5465-1.3086-3.8906-1.3086-6.4371v-3.7137c1.627 1.1672 2.4758 1.9807 4.1736 3.0771 2.1575 1.4148 3.7137 1.733 6.1896 2.4404 4.0321 1.2379 6.4725 1.4502 10.611 2.2283 2.193 0.389 3.4663 1.0964 5.73 1.0964 1.4855 0 2.9001-0.6013 3.3247-1.9807 0.8135-2.4404 0.6012-4.032 0.8842-6.6494 4.5272 0 8.7362-0.1415 10.823-4.1736 1.0964-2.1575 1.5562-3.5369 2.4404-5.7651 0.6013-1.5563 1.1672-3.3247 2.8649-3.3247 0.389 0 0.5659 0.389 0.8843 0.4597 1.4501 0.3184 2.3344 0.8135 3.537 1.5563l3.5369 2.193c2.9355 1.8391 4.4565 3.5369 7.958 4.2089 3.254 0.4244 4.4565 3.0771 7.7106 3.0771 1.2733 0 1.9453-0.7074 3.1124-1.0964 0.9197-0.3184 1.6978-0.2123 2.6528-0.672 1.0964-0.5305 1.0964-1.804 1.9807-2.6528 0.8135-0.7427 1.7683-0.9194 2.8649-1.0964 0.6012-0.0353 1.1671 0 1.7684-0.2122 1.061-0.389 1.0964-1.5916 1.5563-2.6527 0.4244-1.061 0.8135-1.7684 1.0964-2.8649 0.389-1.4856 0.955-2.2637 1.3441-3.7491 0.6012-2.4406 1.4147-3.7137 1.9806-6.1896 0.4244-2.0161 0.8842-3.7139 2.6527-4.6335 3.2539-1.733 4.2444-4.1736 6.4019-7.0737 0.7781-1.0612 1.4148-1.627 2.1929-2.6528 2.1575-2.9001 4.209-4.032 6.1897-7.0737 0.7781-1.238 0.8489-2.3345 1.0964-3.7493 0.283-1.4501 0.0707-2.3342 0.4597-3.7844 0.4952-1.9099 1.9099-2.6174 2.865-4.3857 0.6013-1.1318 0.7781-1.91 1.0964-3.1125 0.4597-1.5917 0.5659-3.1478 1.9807-3.9614 1.2732-0.7427 2.5112-0.389 3.5369-1.344 1.1318-0.9904 1.1318-2.1575 1.7686-3.5369 0.8853-1.8021 1.4038-3.0715 2.009-4.8607h-1593.8c-0.2488 1.4127-1.0132 2.3736-1.0132 3.9753z" fill="#EE1C25"/>
			<path d="m550.55 492.06c-0.955 1.3794-2.0868 1.6977-3.1125 3.1125-1.8746 2.5112-2.1929 4.7395-2.1929 7.9227 0 2.2637 0.8842 3.5016 0.8842 5.7652 0 0.8842-0.3183 1.3794-0.4244 2.1929-0.283 1.7331-0.4598 2.8296-1.1318 4.4211-0.4244 1.0964-1.3087 1.5563-1.7685 2.6527-0.9903 2.3344-1.5916 3.7137-2.1929 6.1897-0.1769 1.0964-0.5659 1.6624-0.8842 2.6526-0.7074 1.9807-0.8843 3.254-1.5563 5.3054-0.4244 1.3794-0.7074 2.193-1.3087 3.537-0.283 0.6013-0.1769 1.2733-0.672 1.7684-0.7074 0.7074-1.6624 0.389-2.6527 0.6367-0.9904 0.283-1.5916 0.672-2.6527 0.672-2.1575 0-3.4662-0.6013-5.5176-1.0964-2.0868-0.5659-3.5369-0.7074-5.5176-1.5563-2.3344-0.9197-3.7491-1.7684-6.2958-1.7684-4.0321 0-6.2604 0.8842-10.292 1.344-2.2636 0.2122-3.5723 0.7781-5.7298 1.3086-1.4501 0.3892-2.5466 0.3538-3.7491 1.0966-1.4855 1.0256-1.4501 2.5111-2.4405 3.9967-0.7781 1.1671-1.5916 1.7684-2.6527 2.6527-0.7074 0.6012-1.0611 1.1671-1.7684 1.7684-2.4405 2.0868-4.1382 3.0771-5.9774 5.7299-1.0258 1.5916-1.4855 2.8649-2.6174 4.4211-1.1318 1.4502-2.4051 1.7684-3.3247 3.3247-0.8489 1.3794-1.2026 2.4404-2.2283 3.7491-2.971 3.9614-4.2797 6.614-7.4983 10.399-1.9453 2.2637-3.254 3.8552-6.1896 4.6334-2.1575 0.5305-3.5369 0.389-5.7298 0.8843-3.3248 0.7073-4.9871 2.1575-8.1703 3.2893-4.0321 1.5209-6.5433 1.5209-10.823 2.016-1.8392 0.2123-2.8295 0.6367-4.6688 0.6367-1.3794 0-2.1221-0.4244-3.5369-0.4244-1.5209 0-2.1221 1.5563-2.8649 2.8649-0.9903 1.8746-1.5916 3.0771-2.4051 5.0933-1.4148 3.2539-5.5884 0.7781-8.8423 1.9806-1.1672 0.4244-2.1575 0.8135-2.6527 1.9807-0.8842 2.0868-0.7427 3.6077-1.7684 5.5176-0.8843 1.6271-2.2283 2.0161-3.9968 2.6527-1.627 0.6013-2.6527 0.8843-4.4211 0.8843-2.1222 0-3.3601-0.4244-5.5176-0.4244-3.643 0-5.4115 2.016-8.1703 4.4211-1.3794 1.1318-2.4758 1.4148-3.9614 2.4052-2.0515 1.344-3.254 2.9003-5.7652 2.9003-1.3794 0-1.9807-1.0258-2.8649-2.0161-0.7781-0.8842-1.1672-1.627-1.7684-2.6526-0.7074-1.2026-1.7685-1.5917-2.6527-2.6527-2.6881-3.1479-3.4662-5.6238-6.1896-8.807-1.0257-1.2733-1.627-2.1222-3.0771-2.9003-0.955-0.4952-1.7684-0.5305-2.6527-1.0964-0.955-0.5305-1.3794-1.3794-2.4405-1.7684-2.3698-0.9197-3.643-1.804-6.1896-2.4406-0.9903-0.2122-1.5916-0.6366-2.6526-0.6366-0.7074 0-1.0258 0.6366-1.5209 1.0964-1.1672 1.061-1.9807 2.2635-2.4405 3.7491-1.3087 0.8842-2.4405 1.0964-3.5369 2.2283-1.3795 1.3794-1.5917 2.7942-2.6527 4.4211-1.1672 1.6978-2.4759 2.3698-4.4212 3.0771-2.1929 0.8135-3.7491 0.8842-5.7298 2.2283-1.3794 0.8489-2.1222 1.627-3.5369 2.405-1.3441 0.7074-2.2283 1.5563-3.7491 1.5563-2.6527 0-4.1028-0.8842-6.7556-0.8842-1.7685 0-2.8649 0.0353-4.5273 0.672-0.5305 0.1415-0.7074 0.8842-1.3087 0.8842-1.0611 0-1.2733-1.061-2.0161-1.7684-2.1929-2.2283-2.0161-5.0931-4.8456-6.4019-1.9453-0.8842-3.3601-0.8489-5.3054-1.7684-2.1575-1.061-3.0771-2.6527-3.9614-4.881-0.9904-2.4758-0.6013-4.7041-2.6527-6.4019-1.0964-0.955-2.1575-0.8135-3.5369-1.0964-4.2443-0.8843-7.0031-0.9904-10.823-3.1125-1.8746-1.0256-3.0417-1.6976-4.6334-3.077-1.9453-1.6624-3.2186-2.8296-5.7652-3.3248-4.315-0.8842-6.897-1.3086-11.035-2.8649-2.0514-0.7074-3.36-1.061-5.3054-1.9807-2.0868-1.061-2.9711-2.3344-5.3054-2.8649-1.9807-0.4951-3.3247 0.1415-5.3054-0.2476-1.9099-0.389-2.8649-1.5209-4.8456-1.5209-0.2122 0-0.389 0.0353-0.7074 0.0707-0.4952 0.8843-1.2733 1.5209-1.9453 2.3344-0.7427 0.8843-1.1672 1.6624-2.2283 2.2283-1.7684 0.955-3.6784 0.6013-4.6334 2.4052-0.8135 1.627-0.8135 2.7942-1.5563 4.4211-1.3087 3.0065-2.7941 4.4919-5.27 6.6494-1.2733 1.0612-2.4405 1.3794-3.5369 2.6527-1.5209 1.6978-1.5562 3.6431-3.5369 4.6334-1.6624 0.8135-2.8295 1.0258-4.4211 1.9807-1.0611 0.6366-1.4855 1.4855-2.6527 1.9806-3.3601 1.4502-5.5176 1.3795-8.8423 2.865-1.5209 0.7074 0 2.6173-0.2122 4.209-0.1061 0.672-0.5305 1.1317-0.672 1.7684-0.2476 1.344 0.1061 2.1575 0 3.5369s-0.4952 2.1576-0.6721 3.537c-0.1061 1.061 0.1061 1.6978-0.2122 2.6527-0.5659 1.5563-1.627 2.1222-2.4405 3.5369-1.9453 3.6077-3.0418 5.9067-5.9421 8.8424-0.6013 0.6012-0.8842 1.2025-1.5562 1.7684-0.6721 0.5305-1.2026 0.672-1.7685 1.3087-1.91 2.2635-3.0771 3.7844-5.3054 5.7651-0.2476 0.2123-0.6013 0.2123-0.8842 0.4244-1.5563 1.3087-1.7684 2.7588-2.8649 4.4211-0.4598 0.7074-1.0964 0.7782-1.7684 1.3441-1.2733 1.0256-2.1222 1.733-3.1125 3.077-1.2026 1.6624-2.1222 2.5466-3.0771 4.4213-0.4952 0.9904-0.3891 1.6976-0.8842 2.6527-0.3891 0.7073-0.8135 1.2025-1.5563 1.5562-0.2476 0.1062-0.6013-0.1415-0.8842 0-1.8038 0.8135-1.627 2.9003-2.1929 4.8456-0.6013 2.0515-2.3698 2.582-3.7491 4.209-1.1672 1.3087-1.3794 2.582-2.6527 3.7491-0.283 0.2123-0.6013 0.2123-0.8842 0.4244-0.283 0.2476-0.1768 0.672-0.4598 0.8843-1.4148 1.2025-3.5369 1.627-3.5369 3.5369 0 1.7686 0.7781 2.6527 0.7781 4.4213 0 1.3794-0.283 2.1575-0.3183 3.5369-0.0353 1.061 0.3183 1.5917 0.3183 2.6527 0 2.0868-1.2025 3.4662-1.6624 5.5176-0.389 1.8038-0.955 2.9003-1.9807 4.4211-2.0868 3.1479-5.8006 2.9711-7.4983 6.4019-0.955 1.8746-0.4244 3.3601-1.0964 5.3054-0.1415 0.389-0.4952 0.4952-0.6721 0.8843-0.9904 2.016-2.4405 3.0417-2.4405 5.3054 0 1.3794 0.8843 2.1575 0.8843 3.5369 0 2.5466-0.7074 3.8553-0.8843 6.4019-0.1061 1.3794-0.1415 2.4406-0.8842 3.537-0.6367 0.9904-1.9807 1.2025-1.9807 2.4404 0 0.389 0.3536 0.5305 0.4244 0.8843 0.4952 2.0514 1.3441 3.1832 1.3441 5.3054 0 1.4147 0.2476 3.8552-1.0964 3.5369-0.6013-0.1769-1.2026-0.3184-1.7685-0.4598-1.0257-0.2476-1.7684 0.2123-2.6526 0.6721-1.3795 0.7074-1.4855 2.0868-2.2283 3.5369-1.238 2.5112-2.0161 4.4211-2.6174 6.7202-0.2476 0.9196-0.4598 1.8745-0.672 3.0063-0.4244 2.0161-0.4598 3.2894-1.1318 5.27-0.4244 1.3441-0.9196 2.1222-1.0964 3.537-0.1415 1.3794 0.1768 2.1575 0 3.5369-0.1061 0.8843-0.4244 1.3441-0.4244 2.2283 0 0.8843 0.4244 1.3087 0.4244 2.193 0 0.389-0.3183 0.4951-0.3183 0.8842s0.3183 0.4952 0.3183 0.8843c0 1.2379-0.8842 2.016-0.3183 3.1124 0.5305 1.0258 1.4501 1.9453 1.6624 3.0771 0.3537 2.0515 0 4.1736 0 6.2604 0 1.4148 0.6013 2.1576 1.0964 3.4662 0.672 1.7686 1.2026 2.6881 1.9807 4.4213 1.5916 3.5369 2.2283 5.8359 2.2283 9.7266 0 2.1929-0.955 3.4308-2.0161 5.3053-0.7427 1.3087-0.7781 2.582-1.9807 3.537-1.4148 1.0964-2.8649 0.1769-4.6334 0.4244-1.6977 0.2476-2.5112 1.5563-3.3247 3.0771-0.1415 0.3182-0.4952-0.2123-0.8135-0.2123-1.1672 0-2.0868 0.389-2.7234 1.3441-0.5305 0.8135-0.2122 1.5916-0.2122 2.6526 0 1.0258 0 1.7332-0.4244 2.6527-0.1768 0.283-0.4244 0.5306-0.4598 0.8843-0.1061 1.7332 0.1415 3.537 0 5.27-0.0353 0.3538-0.1768 0.672-0.4244 0.8843-0.2476 0.2122-0.6013 0.1768-0.8842 0.2476-0.7427 0.1769 0.0707-1.8746-0.672-2.0161-1.4502-0.2122-2.1222 1.3441-3.537 1.5563-1.344 0.2123-3.3247-0.0353-3.3247 1.3441 0 2.405 1.3441 3.7491 1.3441 6.1896 0 1.0964-0.1061 1.9099-0.8842 2.6527-0.5659 0.4951-1.5209 0.4244-1.7685 1.0964-0.6367 1.4855-0.8489 2.9711-2.2283 3.7491-3.1479 1.8038-3.8906 4.4919-6.8263 6.6141-1.1672 0.8488-2.2283 1.4855-2.6526 2.9003-0.3537 1.0256-0.1061 1.8745-0.8843 2.6173-0.7781 0.7781-1.6624 0.7781-2.6527 1.344-2.8295 1.5917-4.4211 3.9614-4.4211 7.2861 0 2.2635 1.3794 3.3601 2.4405 5.3054 0.8842 1.6624 1.3441 2.7234 2.1929 4.4211 1.0965 2.2283 1.7685 3.6783 1.7685 6.1896 0 0.7782-1.0611 0.7782-1.5563 1.3087-1.2025 1.344-2.1929 2.5112-2.1929 4.3857 0 1.7684-0.1415 3.5724 0 5.3408 0.1061 1.4855 0.5659 2.9357 0.672 4.4211 0.1061 1.5563 0 3.1125 0 4.7041 0 1.0258-0.4952 1.6624-0.8842 2.582-0.5659 1.344-0.8842 2.2635-1.5563 3.5369-0.9196 1.7684-2.971 1.5209-4.8809 2.1929-0.3537 0.1415-0.8135 0.4952-0.6367 0.8843 0.7427 1.9099 2.1929 2.8296 2.1929 4.881 0 0.314-0.0353 0.597-0.0833 0.8691h1593.8c0.0718-0.2124 0.144-0.428 0.2192-0.657 0.6719-1.8745 1.5562-2.8649 1.5562-4.8456 0-1.7684-0.5659-2.7588-1.1318-4.4211 0.3892-0.1769 0.4952-0.4951 0.8843-0.672 0.283-0.1061 0.6367 0.1061 0.8843 0 0.8842-0.389 1.1318-1.0964 1.5562-1.9807 0.4952-0.9904 0.7782-1.7684 1.0964-2.8649 0.6721-2.1576 1.1318-3.5016 1.1318-5.7653 0-3.5723-1.7684-5.4469-1.7684-9.0546 0-1.9806 1.6978-2.688 2.6527-4.4211 0.8843-1.5916 0.7074-2.9709 1.5209-4.6334 0.3536-0.672 1.0612-0.672 1.7684-0.8842 1.061-0.3184 1.8746-0.5659 2.6528-1.3087 1.344-1.344 1.1671-2.8295 1.7683-4.6687 0.4598-1.3794 0.6013-2.3698 1.0964-3.7491 0.46-1.2026 1.238-1.8038 2.2283-2.6527 1.0258-0.8843 1.6978-1.5209 2.865-2.1929 1.6978-0.9904 2.8296-1.4856 4.6333-2.2283 0.7075-0.2476 1.5917-0.1415 1.9807-0.8843 0.4952-0.8135 0.4598-1.5916 0.4598-2.5819 0-3.0417-0.1769-4.7395 0-7.7813 1.9453-0.3892 3.0771-0.1062 4.8456-0.8843 1.627-0.672 2.3345-1.6624 3.537-2.8649 2.2281-2.2283 1.9453-4.7042 3.9967-7.0739 1.0964-1.3441 2.3698-1.6625 3.2893-3.1125 0.9904-1.5209 1.1672-2.7942 1.5563-4.6334 0.5659-2.4758 1.0966-3.8552 1.0966-6.4019 0-3.2539-1.2026-5.0931-2.193-8.1703-0.4952-0.672-0.8842-1.1671-0.8842-1.9807 0-1.9453 0.8135-3.0417 1.3086-4.881 0.389-1.3086 0.283-2.1575 0.4597-3.5369h2.7942c0.7782 0 1.1672 0.6366 1.8394 0.8843 1.2024 0.5659 1.9806 1.061 3.077 1.7684 1.1318 0.7428 1.7684 1.5563 3.1125 1.5563 0.4951 0 0.672-0.4952 0.8842-0.8843 0.3184-0.6013 0.6013-1.0964 0.8843-1.7684 0.7074-1.6624 0.9904-2.6881 1.5563-4.4211 0.7428-2.4406 2.3698-4.4213 4.9517-4.4213 6.4725 0 9.6559 3.9968 16.128 3.9968 1.6624 0 2.5466-0.5659 4.1029-1.1318 2.4758-0.9197 3.9613-1.4148 6.4019-2.6173 2.1929-1.1318 3.2893-2.4406 5.7297-2.9004 2.865-0.4951 4.7041-0.6366 7.2861-1.9806 2.0514-1.0612 2.865-2.4406 4.881-3.537 0.9904-0.5305 1.5209-1.3086 2.6881-1.3086h5.4114c3.254 0 5.0933-0.7782 8.0289-2.2283 1.4147-0.7074 2.4052-0.9197 3.7491-1.7686 1.6624-0.9904 2.7588-1.6976 4.6333-2.1929 1.9807-0.5659 3.3247-0.4598 5.4116-0.4598 1.7684 0 2.5465 1.3441 4.3149 1.3441 1.4148 0 2.0869-0.8489 3.3247-1.5563 1.7332-1.0964 3.0065-1.3794 5.0579-1.5563 2.2637-0.2122 3.5369-0.1061 5.7651-0.4244 0.7075-0.0707 1.238-0.4597 2.0161-0.4597h6.0835c4.6334 0 7.1799-1.3087 11.778-1.9807 1.2025-0.1415 2.016-0.3184 3.2893-0.4244 5.27-0.4952 8.241-0.8843 13.476-0.8843 1.4501 1.0964 1.8392 2.2991 2.6527 3.9614 1.4502 2.8649 2.2637 4.7041 4.209 7.286 2.8296 3.7491 5.5884 6.4019 10.257 6.4019 1.2732 0 2.0514-0.4951 3.2185-0.8842 2.0869-0.6367 3.4309-1.1318 5.5177-1.9807 2.5465-0.9904 3.9967-1.9807 6.7555-1.9807 1.0964 0 1.8746-0.389 2.7588 0.2123 0.9197 0.6012 1.0258 1.6624 1.521 2.6526 1.5208 2.865 1.5562 4.8103 3.3247 7.5337 0.3184 0.6013 0.7073 1.0258 1.0964 1.5209 0.5659 0.672 0.672 1.6624 1.5562 1.7686 0.9551 0.1061 1.4856-0.2123 2.4406-0.2123 1.2025 0 1.8746 0.5659 3.0771 0.672 1.3794 0.1061 2.8649 0.0354 3.3247 1.3087 0.3182 0.9904-0.0707 1.8392 0.2123 2.8649 0.4951 1.8392 1.344 2.9003 2.6526 4.209 1.1672 1.1672 2.0869 1.9807 3.7493 1.9807 2.0513 0 3.3954-0.1062 5.3053-0.672 1.1671-0.3184 1.8746-0.9904 3.1124-1.3087 3.0771-0.8843 4.7749-1.4855 7.9229-2.1929 1.5562-0.3538 2.5112-0.8843 4.1028-0.8843 2.3698 0 3.7139 0.8843 6.0835 1.0964 3.4309 0.3184 5.5176-0.0707 8.8424 0.672 1.4147 0.3184 2.299 0.7428 3.7491 1.0964 1.2025 0.283 1.9099 0.6013 3.0771 1.0966 3.749 1.6624 6.1896 1.9806 9.9387 3.5369 1.3794 0.5659 2.6527 0.8135 3.1125 2.1929 0.6013 2.0515-0.2122 3.3955-0.2122 5.553 0 1.8038-0.1416 3.0065 0.6365 4.6334 1.2734 2.5819 3.6431 3.0417 6.1897 4.4211 2.0515 1.0964 3.1479 2.4052 5.5176 2.4052 2.9358 0 4.2798-1.9807 6.1897-4.1736 2.3344-2.6527 3.3247-4.598 4.881-7.7458 1.2733-2.5466 1.627-4.5273 3.9613-6.1897 0.8843-0.6012 1.5917-0.8135 2.6527-1.0964 1.9453-0.5659 2.8649-1.4501 4.8456-1.9807 1.521-0.389 2.4406-0.672 3.9968-0.672 1.0964 0 1.8037 0.389 2.8649 0.2123 2.0514-0.283 3.2186-1.1672 4.8456-2.4052 1.2379-0.955 2.1222-1.2733 3.3247-2.2283 2.6174-1.9807 4.4211-2.5466 7.5337-3.537 1.9099-0.6012 2.9003-1.5562 4.9517-1.5562 3.4309 0 5.2346 1.627 8.0642 3.5369 2.3699 1.6271 3.8552 2.5112 6.6139 3.3247 3.6079 1.0964 5.7654 1.5917 9.5144 1.9807 0.283 0.0354 0.5305 0.0708 0.8489 0.1415 1.344-0.283 2.582 0.1769 4.2444 0.1061 2.0867-0.1415 3.6431 0.3184 5.3054-0.8842 1.2026-0.9197 1.4502-2.2283 2.1929-3.537 1.1318-1.9807 2.1221-3.1125 2.6526-5.3054 0.46-1.9806 0.1062-3.3247 0.4246-5.3054 0.3538-2.0868 1.5562-3.2185 2.2283-5.3053 0.1414-0.4598 0.283-0.9197 0.7427-1.4502 1.0259-0.8843 1.9453-1.0258 3.0063-1.2025 1.5918-0.2123 2.5466-0.4598 4.209-0.4598 2.2637 0 3.5723 0.672 5.8359 0.672 2.5466 0 3.7493 0 6.2959-0.2122 1.3794-0.4598 2.3342-0.7074 3.5369-1.5563 0.7781-0.4952 1.1672-1.0258 1.7686-1.7684 0.2827-0.3184 0.3889-0.8843 0.884-0.8843 0.9905 0 1.4856 0.6013 2.4407 0.8843 2.4404 0.7781 3.749 1.627 6.1895 2.2283 1.2026 0.2476 1.804 0.8842 3.0771 0.8842 0.8843 0 1.3794-0.5659 1.7686-1.344 0.7781-1.5563 0.9548-2.6527 1.0964-4.4211 0.2476-2.3698 0.7427-3.5724 0.884-5.9421 0.1416-1.5562 0.2478-2.6173 0.8843-3.9967 0.2832-0.672 0.4954-1.3794 1.1318-1.7684 0.8843-0.5305 1.7686-0.1415 2.865-0.2123 1.2026-0.0707 1.8745-0.4597 3.0771-0.4597 2.7234 0 4.1382 1.8392 5.7651 3.9967 0.9905 1.3087 1.627 2.1929 3.0771 3.0771 3.7139 2.2637 6.1897 3.0417 9.7266 5.7651 3.1833 2.476 4.9163 4.6334 8.8423 5.5177 1.5916 0.3182 2.6528 0.6012 4.1736 1.0964 0.7783 0.2122 1.5564 0.2122 2.0161 0.8842 0.8135 1.1672 0.9902 2.1222 1.0964 3.537 0.2122 2.9357-0.3538 4.6334 0.2122 7.4983 0.0708 0.3536 0.3892 0.5659 0.46 0.8843 1.0964 4.1028 1.9805 6.4725 3.9614 10.186 0.7781 1.4856 1.5562 2.2991 2.8647 3.2894 0.7075 0.4951 1.0964 1.061 1.9807 1.344 1.4502 0.4244 2.405 0.7074 3.7844 1.3087 1.6978 0.7781 3.0063 0.8489 4.386 2.016 1.45 1.2025 2.2988 2.6527 4.2087 2.6527 0.9905 0 1.4856-0.3536 2.4407-0.672 2.6526-0.8843 4.3503-1.2379 7.0737-1.9807 1.5916-0.4598 2.5466-1.1318 4.1736-1.1318s2.4053 1.1672 3.3247 2.4406c1.1672 1.5916 1.6624 2.8649 2.6528 4.6333 1.5562 2.6527 2.4404 4.3151 3.1123 7.2861 0.6367 3.0063 0.2124 4.9871 0.8843 7.9581 0.6367 2.8295 1.0967 4.4211 1.7332 7.286 0.5659 2.5466 1.061 3.926 1.7686 6.4019 0.5659 1.9453 0.6365 3.2894 1.5562 5.0933 0.5659 1.061 1.2026 1.5916 1.7686 2.6526 3.3601 6.0128 6.2603 9.0546 8.1702 15.704 0.9905 3.5724 2.6174 5.3408 3.9968 8.807 0.9905 2.5466 1.2732 4.1382 1.7686 6.8617 0.5305 3.1478 0.3181 5.8712 2.8647 7.7458 2.1931 1.627 4.5273 0.6013 7.074 1.7684 3.2539 1.4856 4.9517 3.4662 6.1897 6.8263 0.709 1.9572 0.8113 3.3738 1.3137 5.0781h87.429c0.2681-0.1208 0.5649-0.1971 0.9185-0.1971 0.3379 0 0.5972 0.0873 0.8403 0.1971h13.233c1.2722-2.2201 3.1404-3.4607 5.8398-3.7341 4.1738-0.4597 6.4019-2.4404 10.575-2.4404 2.0515 0 3.1479 0.672 5.1995 0.672 2.8296 0 4.3149-1.344 6.7554-2.6527 0.9905-0.5659 1.804-0.672 2.865-1.0964 1.8745-0.7781 2.865-1.6624 4.6333-2.6527 1.9807-1.1318 2.3345-3.7845 4.6335-3.7845 1.061 0 1.2378 1.1672 1.7683 2.0161 1.344 1.9099 2.6174 3.537 4.9871 3.537 1.3794 0 2.0869-0.8489 3.4309-1.1318 1.9099-0.4244 3.0771-0.2123 5.0579-0.2123 3.5015 0 5.8713-0.672 8.8423 1.0964 0.3184 0.1769 0.3892 0.6013 0.6719 0.8843 2.3699 2.3698 3.9263 4.881 7.3215 4.881 1.6272 0 2.5466-0.389 4.1736-0.4598 0.6367 0 1.0259 0.2123 1.6978 0.2123 1.0964 0 1.6624-0.4244 2.7588-0.4244h2.7588c0.3184-0.2477 0.3892-0.5659 0.4951-0.8843 0.4954-1.5917 1.1672-3.1478 2.865-3.3247 1.8391-0.1769 3.3247 0.5659 4.6687-0.6366 0.8135-0.7782 0.6367-1.7332 0.6367-2.9004 0.0354-2.1575-0.2122-4.1382 1.5562-5.3053 1.0259-0.6721 1.804-0.8489 2.865-1.521 0.7075-0.4597 0.8843-1.061 1.344-1.7684 0.8489-1.3794 1.4148-2.3698 1.9807-3.9967 0.0354-0.1061 0.0708-0.2476 0.1062-0.3536l-2.4758 0.1415c-1.4856 0-2.2283-0.8136-3.6077-1.3087-0.9905-0.3538-1.9807-0.283-2.6528-1.1318-0.5305-0.6366-0.4243-1.3087-0.4243-2.1929 0-3.0417 0.2122-4.8103 0.3184-7.8521v-9.3728l2.3342-17.26c0-0.3184-0.2476-0.4598-0.2476-0.8135 0-4.4211 1.2732-6.8263 2.4407-11.106 1.45-5.1285 1.3438-8.1703 1.7683-13.476 0.2122-2.9357 0.6721-4.6334 1.0964-7.4983 0.7781-5.1285 0.9551-8.0642 1.1318-13.264 0-1.0964-0.2476-1.6978-0.2476-2.8296v-12.132c0-1.4856-0.3892-2.3344-0.2122-3.8199 0.1768-1.5916 0.7073-2.405 1.0964-3.9613 0.8489-3.1479 1.7683-4.8103 3.1123-7.746 0.2832-0.6012 0.3892-1.1671 0.6721-1.7684 0.3538-0.7781 0.9197-0.9904 1.3088-1.7684 1.167-2.0868 1.8391-3.3601 2.8647-5.5176 1.5562-3.0771 1.7686-5.5177 4.209-7.9581 1.4854-1.4855 2.3696-2.3698 3.749-3.9614 1.7686-2.0514 2.3345-3.9967 4.8811-5.0931 2.0161-0.8843 3.3955-0.7074 5.5176-1.3087 2.1223-0.6012 3.3955-1.1671 5.3054-2.4404 1.627-1.0964 1.9807-2.5819 2.865-4.4211l2.8647-5.7299c1.2026-2.4404 1.3088-4.598 3.5371-6.1896 1.3086-0.9551 2.3696-1.2733 3.5369-2.4406 1.7686-1.7684 2.688-3.0771 4.8457-4.4211 1.8391-1.0964 2.4756-2.4758 3.9966-3.9613 2.1221-2.1576 3.6785-3.2186 5.73-5.5177 1.4854-1.733 2.2634-3.2186 4.4209-3.9967 3.3247-1.2025 5.4116-1.7684 8.8425-2.4404 2.4758-0.4952 3.9612-0.7428 6.1897-1.9807 1.3086-0.7074 1.6621-2.0514 1.9805-3.537 0.4246-1.8745 1.061-2.9709 1.3088-4.8456 0.4597-2.9711 0.884-4.598 2.2283-7.286 1.167-2.3698 1.5916-3.8906 2.8647-6.1897 0.3892-0.7781 1.061-1.0964 1.5564-1.7684 0.9902-1.3441 1.1672-2.3698 1.5208-3.9614 0.46-1.733 0.8843-2.6527 0.8843-4.4211 0-3.6431-0.4243-6.1896-2.6172-9.0898-2.1577-2.7589-6.1897-3.0771-6.1897-6.6141 0-1.5563 1.1318-2.1929 1.3086-3.7491 0.283-2.5819 0.0708-4.1028 0.6721-6.614 0.1414-0.672 0.1414-1.3441 0.6719-1.7686 0.4246-0.389 1.1318-0.283 1.7686-0.4597 2.2988-0.672 3.5723-1.6624 5.5176-3.0771 2.6528-2.0161 3.5369-4.0321 4.8457-7.0739 0.4597-1.1318 0.8486-1.8392 1.344-2.865 1.6978-3.5015 3.2893-5.4822 3.2893-9.3374v-5.8713c0-1.5563-1.0259-2.2991-1.3086-3.8199-0.6721-3.5369-1.9807-5.5176-1.9807-9.1606 0-1.9099 0.7073-3.0417 0.884-4.9517 0.1062-1.344 0-2.0514 0-3.3955 0-2.5112-0.2476-3.9613-0.2476-6.5079 0-2.8649 0.3538-4.5626 1.1318-7.3568 0.6013-2.0868 0.7429-3.5016 1.9807-5.27 1.0964-1.627 2.5466-2.0514 4.4211-2.6527 1.521-0.4951 2.2637-1.3794 3.7493-2.016 1.3794-0.5306 2.2991-1.0966 3.3247-2.193 1.9807-2.1575 3.3955-3.5369 4.1736-6.4019 0.5659-2.1575 0.3892-3.5015 0.6719-5.7651 0.2124-1.8746 0.0708-3.0771 0.6721-4.8456 0.9905-2.865 2.6526-4.2444 2.6526-7.2861 0-1.5563-0.6719-2.4404-0.6719-3.9967 0-4.1736 2.2991-6.225 4.6333-9.6912 0.7075-1.1318 0.7075-2.0161 1.0964-3.3247 0.8489-2.7589 1.344-4.209 2.6528-6.8617 2.6172-3.4662 3.9966-5.5176 6.8616-8.8423 0.8135-0.9904 1.2734-1.8038 2.1929-2.6174 1.7332-1.5562 3.1125-2.6173 3.5371-4.8809 0.1768-1.0611 0.3535-1.7685 0.4597-2.8649 0.1414-1.6978-0.0708-2.8295 0.4243-4.4212 0.0708-0.2829-0.106-0.672 0-0.8842 0.177-0.283 0.6013-0.2122 0.8843-0.4598 1.2129-0.9807 2.1631-1.6059 3.2061-2.4481h-2044.1c-0.106 0.677-0.3251 1.3212-0.7871 2.0228z" fill="#0B4EA2"/>
			<path d="m2619 421.35c-3.8552 0-5.9773 1.5563-9.7266 2.2283-1.6978 0.283-2.865 0.3184-4.4211 1.0965-2.582 1.2733-3.6785 3.7491-6.6143 3.7491-0.9548 0-1.45-0.6721-2.228-1.0965-1.3794-0.7781-2.1929-1.344-3.2896-2.4405-2.5464-2.5466-4.1028-3.926-7.0737-5.942-1.6624-1.1318-2.6174-2.3344-4.6333-2.6527l-13.264 2.4052c-3.3247-0.8135-5.3054-2.0161-7.4983-4.6334-1.344-1.5916-2.6526-2.1575-3.7844-3.9614-0.7427-1.2733-1.0964-2.2636-1.9807-3.5369-0.4246-0.672-1.0964-0.955-1.5208-1.5562-1.2734-1.6624-0.5308-3.3601-1.3442-5.3054-0.6011-1.4855-1.8391-1.8038-2.8647-3.0771-0.5659-0.672-0.7075-1.1672-1.3442-1.7684-1.4854-1.4855-2.9001-2.2283-3.749-4.209-0.5305-1.3794-0.9197-2.2636-1.7686-3.5369h-4.3503c-1.2732 0-1.9453 0.4598-3.2185 0.4598-0.4954 0-0.9905 0.0353-1.4856 0-2.4404 0.389-3.926-0.4952-6.1897 0.2122-0.3892 0.1061-0.3184 0.6013-0.6367 0.8843-0.6719 0.5659-0.9548 1.1672-1.5562 1.7684-1.2378 1.2026-2.3345 1.5563-3.749 2.4405-0.8843 0.5306-1.2734 1.3087-2.3345 1.3087-0.9902 0-1.5916-0.4244-2.5466-0.672-4.0674-1.0964-6.0835-2.8649-9.9387-4.6334-0.5659-0.2122-1.1672-0.283-1.7686-0.4244-1.8745-0.5659-2.9355-1.2379-4.8455-1.5563-2.3345-0.4244-3.7493-0.7074-5.9775-1.5562-2.0867-0.7781-2.9355-2.2637-5.093-2.8649-3.5725-1.0611-5.8008-0.8842-9.479-1.3087v-2.7234c0-1.0964 0.9194-1.5916 1.3086-2.582 0.9551-2.2636 1.1318-3.7491 1.5562-6.1896 0.1062-0.8489 0.6721-1.3441 0.6721-2.2283 0-0.9196-0.7429-1.4148-1.0964-2.1929-0.8489-1.5563-1.4502-2.5466-2.6528-3.7491-1.061-1.0611-1.5562-2.1222-2.9001-2.8649l-11.46 7.9227c-1.521-0.1415-2.4404-0.2122-3.7847-0.8842-2.3696-1.1318-3.1477-2.7589-5.27-4.1736-3.6782-2.5112-6.1541-2.9357-9.9387-5.3054-1.7683-1.0964-2.7234-2.1575-3.5369-3.9967-0.4597-0.9904-0.1416-1.8746-0.8843-2.6527-0.7781-0.7428-1.7329-0.5306-2.9001-0.6367-2.2637-0.2476-3.6431-0.1769-5.73-0.8842-1.8391-0.6013-2.6526-1.4855-4.4211-2.2283-2.582-1.0258-4.3149-0.9904-7.0737-1.5563-1.4856-0.2476-2.2991-1.0257-3.7493-1.5209-0.9548-0.3537-1.6624-0.389-2.6526-0.672-3.0771-0.955-4.8103-1.9453-7.9583-2.6527-1.1672-0.2122-1.8037-0.7074-2.865-1.3087-2.8647-1.7331-4.6333-2.3344-7.7456-3.5369-0.7075-0.283-1.0967-0.6367-1.7686-0.8843-0.6367-0.283-1.4148-0.1061-1.7686-0.672-0.5305-0.8842 0-1.7685 0-2.8649 0.0708-1.4501-0.2122-2.2636-0.2122-3.7137v-16.022c0-2.7588-0.7781-4.2443-1.0964-7.0031-0.46-3.5369-0.1062-6.1896-2.4404-8.8423-3.0771-3.5723-5.0579-5.4468-8.1704-9.0546-0.8135-0.9903-1.6624-1.3794-2.4404-2.4404-1.4856-1.91-1.7686-3.5369-3.5371-5.2701l-0.6365-0.8842c-0.2476-0.283-0.177-0.7427-0.4597-0.8842-1.3088-0.955-2.7588-1.0257-3.5371-2.4405-0.5305-0.9904-0.7781-1.8392-1.0964-2.8649-1.0964-3.1478-1.8037-5.0224-2.865-8.2057-1.061-3.1832-1.7329-5.1285-2.6526-8.3825-0.4951-1.7685-0.9548-2.8649-1.5562-4.6334-0.4954-1.4501-0.8843-3.0771-2.4053-3.0771-1.344 0-1.6624 1.3087-2.6526 2.1929-1.1672 0.9904-2.1221 1.5563-3.6785 1.5563-1.9099 0-3.0063-0.955-4.7395-1.7685-0.7781-0.389-1.3086-0.5659-1.9807-1.0964-1.6624-1.4501-2.6526-2.9003-4.8455-2.9003-1.3442 0-1.7686 1.5563-3.1125 1.5563-2.2991 0-3.6431-1.3795-5.0579-3.0771-1.1318-1.3441-1.9453-2.1222-2.9004-3.5369-1.3086-1.9453-1.7683-3.254-2.8647-5.3054-0.7075-1.3794-1.3794-2.8649-2.9712-2.8649-1.5562 0-2.3342 0.5306-3.8906 0.6367-1.627 0.1769-2.6172 0.1769-4.1733 0.6721-1.2734 0.389-1.9807 0.8842-3.3247 0.8842-1.9453 0-2.6528-2.1929-2.6528-4.1382v-7.7813c-2.2637-1.2733-3.8552-1.3794-6.4019-1.7684-1.8745-0.283-2.9355-1.0964-4.8457-1.0964-1.061 0-1.5208 0.8135-2.228 1.5209-1.415 1.4501-1.5918 3.1478-3.3247 4.2089-1.2026 0.7074-2.0869 0.9196-3.5371 1.0964-0.6367 0.0707-1.2378-0.1061-1.7329 0.2122-0.6367 0.3891-0.7783 1.1318-1.1318 1.7685-1.521 2.9357-1.804 4.881-2.865 7.9581-0.4954 1.5563-0.6013 2.6174-0.8843 4.209-0.1768 1.061-0.283 1.8038-0.4246 2.8649-0.106 0.8489-0.4597 1.7685-1.3438 1.7685-1.3088 0-1.981-0.8842-3.0771-1.5563-1.4856-0.8842-2.3345-1.6624-3.5371-2.8649-2.4404-2.4405-4.209-4.3505-4.209-7.852 0-3.1479 1.3442-4.9164 1.3442-8.0642 0-0.9904-0.7429-1.4855-1.3442-2.1929-0.5659-0.672-0.9902-1.1672-1.7683-1.5562-1.3794-0.7781-2.2637-1.2026-3.7493-1.7685-1.7686-0.6367-2.8296-1.3794-4.6333-1.9807-1.9807-0.6721-3.2539-1.3795-4.4211-3.0771-1.0613-1.627-1.5564-2.7234-1.7686-4.6688-0.1768-1.3794 0.5659-2.4051-0.2122-3.5016-0.46-0.6366-1.1318-0.6366-1.7686-0.8842-1.061-0.4598-1.7329-1.0257-2.6526-1.5562-1.0613-0.6013-1.7332-0.9904-2.865-1.5563-0.8489-0.389-1.2732-0.8842-2.2283-0.8842-0.9902 0-1.4502 0.7781-2.1929 1.344-1.9453 1.4148-2.9001 3.2894-5.3054 3.2894-1.5562 0-2.5112-0.4952-3.9966-0.8842-1.415-0.3891-2.2991-0.3891-3.7493-0.6367-1.1672-0.2476-1.4856-1.3441-2.1929-2.2283-0.5659-0.672-1.2732-0.8842-1.7686-1.5563-0.884-1.2025-0.9902-2.2636-1.344-3.7491-0.2122-1.1672-0.7075-2.0868-1.7686-2.6526-0.9194-0.4952-1.7683-0.3184-2.6526-0.8843-1.0256-0.6367-1.5916-1.3794-2.1929-2.4051-1.9453-3.1479-2.4758-4.9163-4.209-8.4179-0.6013-0.283-1.0256-0.672-1.7686-0.672-1.9099 0-2.7942 1.4147-4.4211 2.4405-1.3086 0.8842-2.1929 1.344-3.5369 2.2282-1.2732 0.8135-2.3699 0.8843-3.7493 1.5209-2.2988 1.1672-3.5723 2.4404-6.1895 2.4404-1.6624 0-2.6528-0.6013-4.1736-1.0964-1.0613-0.3537-1.7686-0.4952-2.6528-1.0964-1.2732-0.8489-1.5562-2.4405-3.1125-2.4405-2.2634 0-2.7588 2.3698-4.6333 3.5369-1.9807 1.2026-3.4307 1.7685-5.8005 1.7685h-5.4114c-1.8748 0-2.865 1.4855-3.8201 3.0771-1.0256 1.8392-1.0964 3.2186-1.9807 5.0931-0.6011 1.3087-1.3794 2.6527-2.8647 2.6527-0.7783 0-1.0967-0.4952-1.7686-0.8842-1.5916-0.955-2.2283-1.9807-3.5369-3.3247-1.9807-1.9807-3.2188-3.254-4.8457-5.5176-2.405 3.2186-3.5015 5.2347-5.9773 8.3825-0.5659 0.7428-0.6721 1.3441-1.3086 2.0161-1.9102 1.8746-3.9968 1.7685-6.6497 1.7685-3.926 0-5.9065-1.5563-9.7266-2.4405-2.1929-0.4952-3.6428-0.4952-5.7297-1.3441-3.0417-1.2025-4.5979-2.3698-7.2861-4.1736-1.061-0.7427-1.6624-1.344-2.4404-2.2282-1.5916-1.7685-2.865-3.537-5.3408-3.537h-4.5271c-2.1223 0-2.6174-2.0868-4.0322-3.5369-1.7332-1.6977-3.4309-1.9099-5.3054-3.5369-2.0513-1.7684-3.5369-2.5112-6.1897-3.0771-1.3794-0.283-2.2283-0.6721-3.6428-0.6721-2.5112 0-3.8906 0.6721-6.3667 0.6721h-4.7395c-3.4307 0-5.6943-1.0965-8.241-3.3248-1.6978-1.4855-2.405-2.8649-4.4211-3.9614-0.9197-0.4952-1.6624-0.7073-2.6526-1.0964-1.0964-0.4598-1.6978-1.1318-2.9004-1.1318h-1.521c-0.4243 3.8906-0.9902 5.9774-1.9805 9.7266-0.283 1.238-0.4952 2.2637-1.5563 2.8649-1.2025 0.7428-2.1221 0.7781-3.5015 1.1318-0.8489 0.1415-1.0612 0.8842-1.7686 1.3087-2.9357 1.9807-5.7651 2.6173-6.8616 5.9774-0.6013 1.8746-1.1672 3.0417-2.1929 4.6334-0.8489 1.2733-2.0161 1.9807-2.0161 3.5369 0 2.0868 0.8843 3.1833 0.8843 5.3054 0 1.7685-1.4148 2.5466-2.6528 3.7491-0.6012 0.6013-0.7073 1.4855-1.5208 1.7685-1.3794 0.4244-2.3345 0.1768-3.7847 0.4244-1.6976 0.3537-2.8647 0.7781-4.6333 0.8842-1.5563-0.7427-2.865-0.5305-4.4211-1.3087-2.1575-1.0611-3.1479-2.3698-4.4211-4.4212-0.7075-1.1672-1.5917-1.5562-2.6528-2.4405-1.5916-1.3794-2.4758-2.2636-4.1735-3.5369-3.537-2.6526-5.4823-4.1736-8.8424-7.0385-1.4855-1.2733-1.4501-3.4308-3.3247-3.9968-1.9099-0.5659-3.2539-0.4244-5.3054-0.4244-1.7684 0-2.5112 1.5209-3.2893 3.0771-0.4951 0.9904-0.4597 1.9453-1.344 2.6527-0.2122 0.1768-0.6013 0.1061-0.8843 0.2122-0.7781 0.4598-1.3086 0.4598-2.1929 0.4598-2.7588 0-4.3151-1.0964-7.0739-1.0964-2.4406 0-3.1478 2.0161-5.0931 3.5016-1.2026 0.955-2.2637 1.1672-3.7493 1.5562-1.4501 0.3891-2.3696 0.283-3.749 0.672-1.9453 0.5659-3.0417 1.2026-5.0933 1.3087-0.1061 1.1672-0.2122 1.8746-0.2122 3.0417 0 2.7234-0.1062 5.0225 1.9807 6.6848 2.2635 1.7684 3.749 2.5466 6.1896 4.2089 1.5563 1.0611 1.8392 2.4758 3.3247 3.5369 2.2635 1.6624 3.4662 2.9357 6.1896 3.7491 2.1576 0.6721 3.8552 0.3184 5.5176 1.7685 1.1672 0.9904 1.1672 2.2636 1.521 3.7491 0.283 1.0611 0.672 1.6624 0.672 2.7588 0 3.1479-2.5466 4.598-5.3054 6.0836-1.3794 0.7073-2.3698 0.9903-3.7491 1.7684-1.5562 0.8135-2.1929 2.1929-3.9614 2.1929-0.9548 0-1.3794-0.5306-2.2283-0.8843-1.6624-0.7074-2.688-1.0257-4.4211-1.5209-1.8745-0.5659-2.8649-1.5562-4.8455-1.5562-1.5564 0-2.4406 0.5659-3.7493 1.3087-1.6624 1.0257-3.2539 0.5305-4.6333 1.7684-1.1672 1.0611-1.238 2.3344-2.0161 3.7845-0.8135 1.5209-1.7684 2.3698-2.865 3.7491-0.6012 0.7781-0.8135 1.6624-1.7683 1.9807-0.9905 0.3184-1.8746 0.1061-2.6528 0.8843-0.9902 0.9903-0.8842 2.1929-0.8842 3.643 0 1.0964-0.0354 1.6978 0.2123 2.7589 0.0707 0.389 0.6719 0.4598 0.6719 0.8842 0 0.4952-0.1414 0.8135-0.2122 1.344-2.7588 0.3184-4.4919-0.0707-7.0739 0.8843-1.6624 0.6013-1.8038 2.2636-2.6527 3.7491-0.9904 1.6977-1.061 2.9357-1.5562 4.8456-0.7075 2.8295-1.6271 4.8102-4.1736 6.1896-1.6625 0.8842-2.9358 0.955-4.6335 1.7685-1.1317 0.5659-1.6624 1.2025-2.9001 1.5562-1.4856 0.3891-2.5112 0.3891-3.9614 0.8842-1.8745 0.6721-2.7588 1.6624-4.6333 2.4052-2.6174 1.1318-4.4213 1.4501-6.6495 3.1125-1.9099-1.9453-2.299-3.8199-3.9613-5.9774-0.4246-0.6013-1.0964-0.8842-1.5563-1.5209-1.5917-2.4051-1.6624-4.4211-2.193-7.3215-0.283-1.5916-0.8842-2.5112-0.8842-4.1736h-2.6173c-0.4244 0-0.5305 0.4952-0.9197 0.6367-2.5465 1.3441-3.7137 3.3247-6.614 3.5369-0.0708-1.0964-0.1768-1.8038-0.4597-2.8649-0.0708-0.3184-0.4246-0.4244-0.4246-0.8135v-5.4115c0-0.7427-0.6366-1.1318-0.8842-1.7331-0.8489-1.8038-1.733-2.7942-2.9003-4.4211-0.9904-1.3087-1.521-2.2637-2.6527-3.5016-0.5306-0.672-0.7428-1.1318-1.3087-1.7684-0.283-0.3537-0.389-0.8843-0.8843-0.8843-1.7683 0-2.4404 1.4855-3.749 2.6527-1.8394 1.5209-2.9358 2.4758-4.6334 4.1736-0.7782 0.7781-1.5209 1.5563-2.6527 1.5563-1.8745 0-2.7234-1.3795-4.209-2.4405-1.2732-0.8843-2.4404-1.0965-3.5369-2.1929-1.5563-1.5562-1.9807-2.8649-3.537-4.4211-1.8038-1.8392-3.3247-2.6173-4.4211-4.881-0.4952-0.9904-0.5305-2.0161-1.5563-2.6527-0.3184-0.1415-0.7074-0.0353-1.0964-0.2122-1.6624-0.7073-2.7942-0.672-4.6333-0.672-0.1062-0.8842 0-1.3087 0-2.1929v-1.6978c0-1.9453 0.1768-3.0064 0.2122-4.9163h-2.3698c-1.6978 0-2.6881 0.6013-4.2443 1.3087-0.46 0.1768-0.6721 0.672-1.1672 0.672h-0.8135c-0.3538 0-0.6721 0.3184-0.8843 0.2122-0.955-0.6013-1.061-1.5562-1.7684-2.4405-0.4952-0.6013-1.0966-0.9196-1.5563-1.5209-1.1672-1.5209-1.3086-2.7588-2.1929-4.4211-0.4598-0.8489-1.061-1.0964-1.344-1.9807l1.7683-7.5336c-0.2122-2.1575-1.2024-3.1832-2.1929-5.0932-0.7427-1.4148-1.2732-2.299-2.016-3.7491-0.4952-0.9904-0.7428-1.9099-1.7684-2.4051-1.2733-0.6721-2.2991-0.2476-3.7493-0.4598-1.6976-0.2122-2.688-1.0964-4.4565-1.0964h-7.3921c-1.5209 0-2.3345-0.4598-3.8198-0.4598-1.9453 0-2.8296 1.2379-4.4213 2.2283-1.9806 1.2025-3.3247 1.7684-5.5176 2.6526-0.7782 0.283-1.0964 0.7781-1.7684 1.3087-1.8392 1.5562-2.8296 2.6173-4.6334 4.2089-1.3794 1.2026-2.2283 2.4405-4.1029 2.4405-2.2635 0-3.0417-2.0515-4.9871-3.1125-1.2378-0.6721-2.1929-0.9196-3.5015-1.5563-1.5563-0.6367-2.5466-1.3087-3.537-2.6173-0.5659-0.7428-0.6366-1.5209-1.3441-2.0161-1.5562-1.0964-2.5465-1.7685-4.4211-2.1929-0.3889 0.8135-0.4243 1.4148-0.4243 2.299 0 1.0257 0.0354 1.627 0.2122 2.5466 0.0708 0.3536 0.4598 0.4951 0.4598 0.8842 0 2.8295-2.016 4.1028-3.537 6.4019-1.4502 2.2283-1.9453 3.7845-3.3247 5.9774-1.344 2.0868-2.0514 3.5369-3.9967 5.0931-0.8842 0.7074-1.6978 0.9904-2.6527 1.5209-1.3794 0.8488-1.8745 2.4404-3.5016 2.4404-2.299 0-3.3954-1.3794-5.3053-2.4404-2.5112-1.3795-4.1383-1.91-6.6495-3.2894-5.0223-2.7588-8.4532-3.254-13.476-5.9774-1.0256-0.5659-1.6624-1.1672-2.6526-1.7685-0.9905-0.6013-2.0515-0.7073-2.6528-1.7684-0.9196-1.5916-0.389-3.1832-1.7684-4.4212-0.4952-0.4244-1.1671-0.389-1.7684-0.672-1.8038-0.8842-3.0771-0.8842-4.8457-1.9807-1.4501-0.8843-2.0513-1.8038-3.5369-2.6527-1.8391-0.9904-3.2185-1.3087-5.3054-1.3087-2.688 0-4.2443 0.672-6.9678 0.672-3.4661 0-5.553-1.8392-8.9484-2.6527-0.8136 1.2026-1.5209 2.0161-1.5209 3.5369 0 1.0964 0.6366 1.6978 1.0964 2.6174 1.0256 2.1575 2.1929 3.3954 2.1929 5.8005 0 0.4952 0.283 1.4148-0.2122 1.2733-1.8392-0.4598-2.0869-2.4052-3.7493-3.2894-2.2283-1.2026-4.2089-2.4758-6.4019-1.2379-1.2732 0.7427 0.6721 2.3344 1.3087 3.643 0.3536 0.6721 0.8843 0.9904 0.8843 1.7685 0 1.0611-1.4148 0.955-2.4052 1.1318-0.672 0.1061-1.1318 0.4244-1.7684 0.6367-1.2733 0.389-2.2283 0.5659-3.537 0.8842-0.4951 0.1415-0.7781 0.672-1.344 0.672-1.3086 0-1.9807-0.8842-2.865-1.7684-1.1671-1.1672-1.8391-1.8746-2.8647-3.0771-1.238-1.4501-1.804-2.6527-2.4406-4.4211-0.389-1.0965-0.5306-2.6527-1.7684-2.6527-1.9807 0-2.865 2.0514-3.3247 3.9614-0.3184 1.4501 0.3536 3.6784-1.0964 3.7491-1.91 0.1061-2.6528-1.7685-4.4213-2.4052-2.299-0.8488-3.6783-1.5562-6.1896-1.5562-1.6978 0-2.7942-0.1415-4.3857 0.4244-1.3441 0.4952-2.9004 2.9356-3.3955 1.5562-0.0354 1.5563-0.1062 2.9357-0.3892 4.4212-0.106 0.7073-0.8842 0.9903-0.8842 1.7684 0 0.8842 0.7428 1.1672 1.344 1.7685 0.9904 0.9903 1.7684 1.6977 1.9807 3.1125s0.3182 2.2283 0.4598 3.7491c0.1061 1.5209-0.1769 2.4051 0 3.9614 0.1414 1.4855 0.6366 2.2636 0.6366 3.7491s-0.6366 2.2283-0.6366 3.7138v4.7394c0 2.5466-0.5659 4.209-2.2283 6.1543-0.5659 0.6367-0.9904 1.0964-1.5563 1.7684-0.283 0.3184-0.389 0.8135-0.8843 0.8489-0.4951 0.0707-0.8135-0.2122-1.3087-0.2122-0.8842 0-1.344 0.4598-2.2283 0.4598-0.7073 0-1.0256-0.7428-1.5208-1.0965-0.6721-0.5659-1.061-0.8842-1.7686-1.344-1.6624-1.0965-2.8296-1.5563-4.6333-2.4405-1.3794-0.6367-2.2637-0.9196-3.7845-1.3087-1.7684-0.4598-2.6881-1.0965-4.5272-1.0965-1.2734 0-2.1576 1.0258-2.5466 2.1929-0.3184 1.0611-0.3538 2.6527-1.5209 2.6527-1.3441 0-1.8392-1.3087-3.1478-1.3087h-5.1993c-1.0966 0-1.6624 0.6366-2.7589 0.6366h-8.9484c-2.3698 0-3.1478 2.0161-4.9164 3.5369-2.0867 1.8392-3.1478 2.8649-4.8455 5.0932-2.9358 3.8199-6.6848 4.0675-11.495 4.6334-0.0708 0.5659-0.2122 0.8135-0.2122 1.3795 0 0.4598 0.3536 0.672 0.4243 1.061 0.4952 2.4759 1.3441 3.8553 1.3441 6.4019 0 2.2637-2.6173 2.5466-3.7845 4.4212-0.8135 1.3087-1.3086 2.1929-2.1929 3.5369-1.5916-2.1575-2.5466-3.3954-4.209-5.5176-1.3086-1.7331-1.9807-2.9357-3.9614-3.7845-1.2378 3.0417-1.2378 5.4115-3.5369 7.7458-2.2637 2.2637-4.4211 3.8199-4.4211 7.0739 0 0.7781 0.4951 1.2733 0.672 1.9807 0.3184 1.2733 0.4244 2.0868 0.4244 3.4308 0 4.0675-1.8745 6.0836-2.865 10.045-0.4951 2.0514-0.3889 3.4308-1.3086 5.3054-1.5209 3.0418-2.6527 4.8102-4.6687 7.4984-0.6367 0.955-1.0258 1.7331-1.7686 2.6526-0.7781 1.0611-1.7684 1.5563-1.7684 2.8649 0 1.91 0.4952 3.0064 0.672 4.881l-0.672 5.3054c0.1061 1.7684 0.8842 2.6526 0.8842 4.4211 0 0.8842-0.8842 1.2026-1.5208 1.7685-0.9904 0.8135-1.7332 1.3794-2.4406 2.4051-0.8135 1.2733-1.2025 2.3698-1.7684 3.7845-0.672 2.6881-1.9807 4.2443-1.9807 7.0385 0 5.553 0.7074 8.6301 1.0964 14.148-1.3794 0-2.1929-0.1061-3.5369 0.2122-1.4502 0.3891-2.2637 1.1318-3.7493 1.1318-1.8745 0-2.8295-1.4855-3.9966-2.8649-1.1318-1.4147-2.0161-2.1221-3.5017-3.1125-0.6365-0.389-1.2378-0.672-1.7683-1.0964-2.5112-1.9807-3.4309-3.9967-6.4373-5.0932-0.9904-0.3183-1.627-0.672-2.6527-1.0964-2.3698-1.0964-4.1383-1.4501-5.7299-3.5369-0.9904-1.3441-2.0514-1.7685-3.3247-2.8649-1.3794-1.1672-1.9807-2.5466-1.9807-4.4211 0-1.3794 0.6013-2.7234-0.4243-3.5369-0.7782-0.6013-1.7332-0.3184-2.6528-0.6721-1.4855-0.5305-2.3344-1.1672-3.5369-2.1929-1.238-1.0611-1.8392-1.8746-2.6527-3.3247-0.389-0.7074-0.4952-1.5563-1.3441-1.7685-2.299-0.7074-3.8552-0.2122-6.2957-0.2122-2.0868 0-3.2893-0.1768-5.4115 0-1.4148 0.1061-2.193 0.4244-3.6431 0.4244-1.5917 0-2.6527-0.283-4.0675-0.8842-1.344-0.6013-2.0514-1.3087-3.5369-1.3087-1.627 0-2.4404 0.7074-3.9968 1.0964-2.0867 0.5659-3.4661 0.8135-5.5176 1.5563-1.0256 0.389-2.0514 0.389-2.6526 1.3087-0.8843 1.2733-0.2123 2.5112-0.4246 3.9967-0.2476 1.4855-0.6013 2.4052-0.672 3.9614 0 1.3794 0.5659 2.4405-0.2123 3.5369-0.1768 0.283-0.6012 0.2122-0.8842 0.4598-1.2379 0.9903-2.1576 1.4855-3.537 2.1929-1.9806 1.0611-3.1124 1.9807-4.8809 3.3247-1.9807 1.4855-3.5016 2.7942-3.5016 5.3054l-10.611-0.2476-2.6527 0.672c-1.4502-0.7074-2.0514-1.6624-3.5369-2.1929-1.7686-0.672-3.0063-0.7781-4.881-1.1318-2.5112-0.4244-4.0321-0.7074-6.4019-1.7685-0.8135-0.3183-1.2733-1.0964-2.193-1.0964-2.9355 0-3.7136 3.7491-6.6494 3.7491-2.5112 0-3.0771-2.5112-5.3054-3.7491-0.8488-0.4952-1.627-0.4952-2.6172-0.672-2.1222-0.3537-2.9004-2.2637-3.7845-4.1736-0.2477-0.6721-0.6013-1.0965-0.8843-1.7685-0.1415-0.389-0.6366-0.4598-0.6366-0.8842 0-1.9453 1.627-2.6527 2.405-4.4212 0.9551-2.2636 1.238-3.7491 1.7686-6.1896 0.5659-2.3698 0.8843-4.1028 2.6526-5.7299 1.1672-1.0611 2.1223-1.5563 3.1125-2.9003 0.6367-0.8843 1.3087-1.4855 1.3087-2.6527 0-2.6173-0.672-4.1736-0.672-6.8263 0-1.4855-0.0354-2.3698 0.4597-3.7491 0.6721-1.7684 2.4406-1.9807 3.7493-3.3247 0.9548-0.955 1.4501-1.5916 2.4404-2.4405 1.1672-0.9904 2.1575-1.1672 3.5369-1.7684 1.0258-0.4244 1.5917-1.1318 2.6528-1.5209 1.2732-0.4951 2.1575-0.4598 3.5369-0.4598v-2.4758c0-1.9807-1.1318-2.9357-2.2283-4.598-0.8843-1.3794-1.1672-2.6527-2.4052-3.7491-0.5659-0.4952-1.1317-0.5659-1.7684-0.8843-2.0161-1.061-3.2893-1.4855-5.553-1.7684v-2.688c0-3.926 1.8391-5.8713 3.3247-9.4436 0.389-1.0611 0.8843-1.6624 0.8843-2.8296v-4.7395c0-3.1478-0.0708-5.1639-0.8843-8.1349-0.7781-2.6527-1.7686-4.2443-1.7686-7.0739 0-2.582 2.0515-3.643 2.6528-6.1896l-0.4246-1.3087c-0.3536-0.9903-0.1768-1.5916-0.2476-2.6527-0.0354-0.7073-0.4243-1.0964-0.6366-1.7684-0.389-1.2733-0.283-2.2283-0.672-3.5369-0.7074-2.4759-2.1575-3.6077-2.4404-6.1896-0.177-1.4855 0.1768-2.2637 0-3.7491-0.1062-1.0964-0.5659-1.5916-0.8843-2.6527-0.7781-2.3698-0.6721-3.926-1.0964-6.4019-0.3892-2.2283-0.6721-3.6077-1.344-5.7652-0.4246-1.5209-1.2026-3.0771-2.865-3.0771-1.6978 0-2.6881 0.6721-4.4211 0.6721-1.521 0-2.4052-0.8843-3.9614-0.8843-2.4404 0-3.7491 1.4855-5.3054 3.2894-1.1671 1.4148-2.1575 2.0161-3.0771 3.5369-2.3342 3.7845-3.6783 5.8713-6.8616 9.0899-1.7686 0-2.865-0.0707-4.4211-0.8842-0.7781-0.389-0.9904-1.1318-1.5563-1.7684-0.9196-1.1318-1.6978-1.8392-2.8649-2.6527-3.7493-2.8296-6.2958-3.9968-10.823-5.3054-4.3506-1.2733-6.8971-1.4855-11.283-2.6527-1.2025-0.3537-1.8745-0.955-3.0771-1.1318-2.3696-0.3537-3.8552-0.4244-6.2957-0.4244 0-1.6624-0.1061-2.582-0.1061-4.2443 0-4.4212 1.8038-6.7556 3.077-11 0.46-1.5916 1.5564-2.4758 1.5564-4.2089 0-0.9904-0.7782-1.4148-1.3087-2.1929-0.9904-1.3441-1.8746-1.9807-2.4406-3.5369-0.8842-2.4405-0.6012-4.1028-1.7684-6.4019-2.4406 0.9904-3.8199 1.9807-5.5176 3.9614-0.672 0.7781-0.955 1.7685-1.9807 1.7685-1.1317 0-1.5563-0.8843-2.2283-1.7685-0.6012-0.8135-1.061-1.2733-1.7684-1.9807-1.8038-1.8038-3.0771-2.8649-5.5176-3.5369-1.6978-0.4244-2.7235-0.8135-4.4211-1.3087-0.9551-0.283-1.3087-0.8842-1.9807-1.5562-1.4856-1.4855-2.2637-2.582-3.3247-4.4212-1.3087-2.3344-1.4856-4.0321-2.1929-6.614-0.4952-1.7331-1.9453-2.1222-2.865-3.5369-0.8843-1.3441-1.4148-2.3344-2.4404-3.537-0.283-0.3536-0.7075-0.4598-0.8843-0.8842-0.955-2.3344-0.6013-3.8906-0.8843-6.4019-0.2122-2.1575-0.6013-3.4308-1.0964-5.5176-0.4951-2.1222-0.3538-3.5016-0.8843-5.553-0.1768-0.7074-0.6719-1.0258-0.8842-1.7685-0.672-1.7685-0.7428-2.8649-1.3441-4.6334-0.5305-1.6624-2.0513-1.9807-2.8649-3.5369-0.8135-1.4855-1.2733-2.4052-1.9806-3.9614-0.4952-1.1672-0.3892-2.0515-0.6721-3.3248-0.5659-2.3697-1.061-3.7491-1.3086-6.1896-0.1769-1.3795 0.1414-2.1575 0-3.537-0.2476-1.7684-1.0258-2.8649-1.1318-4.6334 0.283-1.9099 1.344-2.9357 1.344-4.8456 0-1.4501-0.0708-2.6527-1.0964-3.5369-1.1672-0.9904-2.1575-1.0964-3.5369-1.7685-1.8746-0.955-2.2637-2.6173-4.209-3.5369-1.3087-0.672-2.1929-0.7781-3.537-1.3441-1.6624-0.6366-2.9357-0.3183-4.6334-0.8842-1.0964-0.3183-1.733-1.0964-2.6526-1.7684-1.8392-1.3087-2.865-2.1929-4.6334-3.7491-1.2379-1.0258-2.4406-1.8746-2.4406-3.5369 0-4.4565 2.2283-6.8263 2.2283-11.318h-7.4629c-1.1672 0-1.7684 0.3891-2.9355 0.4952-1.0966 0.1061-1.9453 0.0707-2.6528 0.8843-1.061 1.2379-0.672 2.6173-0.672 4.2797v3.4662c0 1.0964-1.4147 0.9196-2.4052 1.3087-1.4501 0.5659-2.2635 1.3441-3.8198 1.3441h-4.5273c-0.7427 0-1.1671-0.1061-1.8391 0-1.2026 0.283-1.6624 1.3087-2.1929 2.4051-0.4952 1.0258-0.9551 1.627-1.344 2.6527-0.8843 2.1575-1.6624 3.5016-2.193 5.7652-0.283 1.2026-0.2123 2.0515-0.8842 3.0771-1.6624 2.5466-4.5273 2.0161-7.4983 2.6527-1.0612 0.2476-1.6624 0.6013-2.6528 1.1318-0.7781 0.3537-1.4148 0.5306-1.7684 1.3087-0.672 1.2025-0.672 2.1929-0.672 3.643 0 1.8392 0.3184 2.9357 1.0964 4.5273-2.4404 1.3794-4.209 3.2186-4.209 6.0128v4.1382l0.4598 1.7684c-0.1769 0.283 0.0354 0.7781-0.2123 0.8843-1.0256 0.4952-1.7683 0.389-2.9001 0.672-2.4052 0.6013-3.8906 1.0964-6.4019 1.5563-3.4663 0.672-5.4116 1.2733-8.8424 2.1929-0.7074 0.1769-1.2025 0.4598-1.9806 0.4598-1.4148 0-2.1929-0.6013-3.537-1.0964-1.7684-0.672-2.9711-0.8489-4.8456-1.1318-0.6013-0.0354-1.0964-0.4244-1.7686-0.4244-2.8649 0-4.6333 0.5305-7.286 1.5562-1.4501 0.4952-2.1222 1.3794-3.537 1.7685-0.9902 0.2476-1.6624 0-2.6526 0.2122-0.8489 0.1415-1.1672 0.9196-1.7686 1.5209-1.4855 1.5209-1.8745 3.2186-3.7491 4.2089-1.8746 0.9904-2.8295 1.9807-4.6334 3.1125-1.061 0.6013-1.9453 0.7428-2.9001 1.5209-2.193 1.9453-1.9807 4.3857-2.193 7.3214-0.1769 2.4052-0.7074 3.7491-0.8842 6.1543-0.2123 2.9356 0.3182 4.8102-0.6721 7.5336-1.1671 3.0417-3.749 4.2443-3.749 7.4983 0 1.4855 0.5659 2.3344 1.344 3.5369 0.3536 0.6013 0.7073 1.0965 1.3086 1.5563 0.6721 0.4952 1.7686 0.4244 1.7686 1.3087 0 0.9904-0.9551 1.2733-1.5564 1.9807-0.8842 1.0257-1.4147 1.627-2.1929 2.6527-1.6624 2.2282-2.3342 3.6077-3.3247 6.1896-2.6526-0.4244-3.6431-2.0514-6.1896-2.8649l-7.0739 11.283c-0.1415 0.8135-0.4244 1.3087-0.4244 2.1929 0 2.3698 1.0964 3.6077 1.9806 5.7298 0.2123 0.6367 0.1062 1.1672 0.2123 1.7685 0.4598 2.4051 1.1672 3.7845 1.3441 6.1896-0.8489 0.283-1.3441 0.4598-2.2283 0.4598-1.6978 0-2.6881-0.4598-4.4211-0.4598-4.1383 0-5.4116 4.6334-9.5498 4.6334h-4.7395c-1.8745 0-2.8296-1.3087-4.7041-1.3087-0.7781 0-1.1672 0.5659-1.7686 0.8842-2.0867 1.2733-3.0417 3.3247-5.5176 3.3247-1.9453 0-2.8649-1.061-4.4211-2.2283-2.6527-1.9807-3.926-3.5723-6.614-5.5176-1.9453-1.3794-3.254-2.2637-5.5177-3.0771-0.672-0.2476-1.061-0.672-1.7684-0.672-2.2637 0-3.2186 1.3794-5.3054 2.1929-0.7074 0.283-1.2733 0.283-1.9807 0.4598-1.061 0.2122-1.7684 0.283-2.9003 0.4244-1.5209 0.2476-2.1221 1.6624-2.6527 3.1125-1.0964 3.1832-1.4855 5.6237-3.9613 7.9581-1.7684 1.5916-2.8649 3.2894-5.3054 3.2894-1.8745 0-2.6527-1.0964-4.4211-1.7685-1.7684-0.6367-2.865-0.6367-4.7395-0.6367-3.3601 0-5.2346 1.0965-8.6301 1.0965-1.8745 0-3.1478 0.283-4.7395-0.6721-1.2733-0.7781-1.2733-1.9453-1.7684-3.3247-0.8135-2.1929-1.8746-3.2893-3.0771-5.3054-0.6367-0.9904-1.7685-1.4148-1.7685-2.6174 0-0.8842 0.7074-1.1672 1.3087-1.7684 1.3794-1.3794 2.4406-2.0161 4.209-2.9003 2.0514-0.9903 3.537-1.6977 5.5176-2.8649 0.3184-1.4855 0.6721-2.4052 0.6721-3.9614 0-1.9807-0.8489-3.0418-1.5563-4.881-1.2733-3.1479-1.8392-5.1285-3.7491-7.9581-0.7428-1.0964-1.6271-1.5209-2.4406-2.6173-1.5916-2.1575-1.9807-3.7845-2.6527-6.4372-0.2122-0.9904-0.7781-1.5209-0.7781-2.582v-9.1606c0-1.8746-0.3183-2.9357-0.3183-4.8102 0-2.582 0.8842-4.0321 0.8842-6.6141 0-3.926-1.1672-6.2604-2.8649-9.7266-0.8843-1.7684-1.2733-3.1125-2.8649-4.2089-2.299-1.5563-4.2797-1.9807-7.0739-1.9807l-18.781 3.3247c-4.209 0-6.4726-2.0161-10.682-2.0161h-6.0482c-1.3795 0-2.2283-0.3183-3.6077-0.4244-2.8296 0-4.5273 0.8843-7.3569 0.8843h-5.1639c-0.7781 0-1.1318 0.672-1.8392 0.8842-2.3344 0.8135-4.3151 0.672-5.9774 2.4405-0.4952 0.5305-0.8135 1.1318-1.5209 1.5209-1.5563 0.8489-3.0064 0.1768-4.6334 0.8842-1.0611 0.4598-1.627 1.1318-2.6527 1.5563-3.0064 1.3087-4.0321 3.4662-6.1896 5.9774-1.1672 1.3087-2.0514 1.9099-3.3247 3.0771-1.8746 1.6977-3.5723 2.6526-6.1896 2.6526-1.8038 0-2.7588-0.8842-4.4211-1.5562-3.2894-1.3794-5.0579-2.8649-7.9581-5.0578-1.9099-1.5209-3.4662-2.4405-5.942-2.4405-1.238 0-1.8746 0.4244-3.1125 0.4244-1.8746 0-3.0417 0-4.8456-0.4244-1.6624-0.3891-2.1575-1.7331-3.5369-2.6527-0.6013-0.3891-0.9904-1.0964-1.7685-1.0964-1.8746 0-2.7234 1.3087-4.4211 1.9807-2.6527 1.0964-4.4565 2.1929-7.2861 2.8649-2.8295 0.4598-4.2443 1.2379-7.0739 1.5562-1.3794 0.1415-2.1575-0.1768-3.5369 0-3.1479 0.3891-4.8102 1.5563-7.9581 1.5563-1.3794 0-2.0868-1.2379-2.6527-2.4405-1.3794-3.0417-1.2733-7.2861-4.6334-7.2861-1.0964 0-1.6624 0.7781-2.6527 1.0964-1.6624 0.6013-2.6527 0.7781-4.4211 0.8843-2.7942 0.2122-4.3505 0.7781-7.0739 1.344-3.0771 0.6013-4.2797 2.6174-6.4019 5.0578-1.3794 1.5917-2.7589 2.0515-3.9614 3.7491-0.6721 0.955-1.7685 1.4502-1.7685 2.6527 0 5.1993 4.8456 7.18 4.8456 12.379 0 1.0611-0.283 1.6978-0.6367 2.6527-0.283 0.672-0.3537 1.2733-0.8843 1.7685-0.7781 0.7073-1.627 0.6013-2.6526 0.8842-0.8489 0.2122-0.9904 0.9196-1.7685 1.3087-0.9904 0.5659-2.1575 0.5659-2.6527 1.5563-1.1672 2.3344-0.7427 4.315-2.4405 6.1896-2.1575 2.3344-4.0321 3.0417-6.8616 4.4211-0.6013 0.283-1.1318 0.3183-1.7684 0.672-0.3184 0.1415-0.7074 0.1415-0.8843 0.4244-0.6013 0.8489 0.0707 1.8392-0.2122 2.8649-0.1768 0.7427-0.7781 1.1672-1.0964 1.7684-0.6013 0.9904-0.8842 1.9453-1.7684 2.6527-1.5563 1.3441-3.1125 1.6624-4.209 3.3247-0.9904 1.4855-1.2733 2.6527-1.5209 4.4212-0.283 1.6977-0.389 2.7588-0.8842 4.4211-0.3537 1.1672-1.5209 1.4855-2.2283 2.4052-0.4244 0.5659-0.5306 1.1672-1.0964 1.5562-1.1672 0.8489-2.3344 0.4598-3.537 1.0964-2.0514 1.1318-2.4758 2.9003-3.3247 5.0932-0.389 1.0964-0.7074 2.0515-1.7684 2.6527-1.6624 0.9904-2.9003 0.8842-4.8456 0.8842-3.0417 0-4.8809-0.9904-7.4983-2.4405-1.5562-0.8135-2.2283-2.1929-3.9967-2.1929-1.3087 0-2.1575 0.8135-3.0771 1.7684-0.8489 0.8135-1.344 1.6624-1.344 2.8649 0 1.5916 0.7073 2.4759 1.0964 3.9968 0.389 1.3087 0.283 2.1929 0.672 3.5015 0.8489 3.0064 1.5563 4.8102 1.5563 7.9581 0 1.8392-0.6013 2.8649-1.5563 4.4211-1.5563 2.4758-2.5466 4.0321-4.8456 5.7652 0.5305 1.0257 1.3087 1.627 1.3087 2.8649 0 0.8842-0.9196 1.3087-1.7685 1.5563-0.2829 0.0353-0.6013-0.1415-0.8842 0-1.0964 0.5305-1.5916 1.3087-2.1929 2.4051-0.8843 1.6624-1.3441 2.7588-2.2283 4.4211-1.1318 2.2283-2.1929 3.3247-3.7491 5.3054-0.5306 0.7074-0.6013 1.4501-1.3087 1.9807-0.955 0.7428-1.6624 1.0965-2.6527 1.7685-2.3344 1.5563-3.9968 1.9807-6.4019 3.3247-0.7781 0.3891-0.9904 0.9904-1.7685 1.3087-1.2733 0.5659-2.2283 0.6721-3.5369 0.8843-2.9357 0.4598-4.598 1.2379-7.5336 1.7684-2.4759 0.4952-4.0321 0.8842-6.1896 2.2283-1.4855 0.8842-1.9807 2.0515-3.5016 2.8649-3.5369 1.9807-5.8713 2.4405-9.7266 3.5369-1.0611 0.283-1.627 0.7781-2.6527 1.0964-2.3344 0.7781-3.8906 0.955-6.1896 1.7685-3.0417 1.0964-4.8102 1.8746-7.9581 2.6526-0.672 0.1061-1.0964 0.4598-1.8392 0.4598h-5.2346l-7.0739-1.3441c-2.0514 0.3184-2.8649 1.6624-4.6334 2.6527-0.9904 0.5659-1.6624 0.8135-2.6527 1.3441-1.3087 0.7074-2.1929 1.2379-3.5369 1.9807-1.2025 0.6013-2.6527 1.0257-2.6527 2.4052v6.2603c0 1.9807-1.3087 2.9357-2.6526 4.3505-2.1575 2.3344-4.4212 2.5466-6.8263 4.6334-2.3344 2.0161-3.254 3.7845-5.0932 6.1896-1.2733 1.7331-2.6527 2.7234-2.6527 4.881 0 2.2636 0.8843 3.3954 0.8843 5.6945v4.4565c1.3087 1.344 2.8649 1.9453 2.8649 3.7491 0 1.5916-0.8842 2.4405-1.0964 3.9967-0.2122 1.3087 0 2.1929-0.2122 3.5369-0.4598 2.8649-1.5562 4.2797-2.4405 7.0385-0.8842 2.7588-1.0964 4.598-2.6527 7.0739-1.3794 2.2283-3.7491 2.9003-3.7491 5.4822 0 2.4405-0.0707 4.0321 0 6.4726-0.1061 1.3794-0.2122 2.1929-0.2122 3.5723 0 2.7234 3.2894 3.4308 3.2894 6.1189 0 0.955-1.0964 0.9904-1.9807 1.344-0.4244 0.1769-0.5306 0.5306-0.8843 0.8843-0.6013 0.6013-1.2025 0.9904-1.5562 1.7684-0.3537 0.9904-0.4952 1.6624-0.8843 2.6527-0.4951 1.1672-1.3794 1.5563-1.9807 2.6527-0.8842 1.6624-1.4148 2.7942-2.4051 4.4211-1.238 1.9807-3.1125 2.9003-3.1125 5.3054 0 1.4855 1.3795 1.8038 2.4405 2.8649 0.4952 0.4952 0.6013 1.0964 0.8843 1.7684 0.4244 0.9904 0.8842 1.5209 0.8842 2.6527 0 1.8038-0.7427 2.8649-1.5563 4.4211-0.7074 1.3087-1.9807 1.9807-1.9807 3.537 0 1.1318 0.9196 1.5916 1.3087 2.6526 0.5659 1.3441 0.4598 2.4052 0.4598 3.9614 0 1.9807-0.2122 3.2186-0.8842 5.0932-0.7781 2.1929-1.0611 3.6431-1.9807 5.7299-1.3441 2.8295-2.5466 4.3151-3.537 7.2861-1.627 4.9163-2.4404 7.8873-4.6687 12.592-0.8135 1.7684-1.2026 2.971-2.1929 4.6334-0.6013 1.0611-1.2733 1.627-1.9807 2.6527-2.6527 3.8906-4.5273 5.9774-8.4179 8.6301-1.5916 1.0257-2.6881 1.5916-4.3858 2.4404-2.4051 1.1318-3.8906 1.5917-6.1896 2.8649-3.7845 2.0868-5.8713 4.1736-10.186 4.1736-1.9807 0-3.1479-0.5305-4.8456-1.5209-1.344-0.7781-2.2636-0.9904-3.5369-1.7685-1.5562-0.955-2.1575-2.4404-3.9614-2.4404-1.0257 0-1.344 0.8842-1.7684 1.7684-0.7428 1.4855-1.4501 2.8649-3.1125 2.8649-0.5305 0-0.8135-0.4952-1.3087-0.672-0.9903-0.3891-1.6624-0.7428-2.6527-1.0965-1.3794-0.4952-2.2636-0.4952-3.7491-0.6366-2.1575-0.2476-3.3954-0.6721-5.553-0.6721-1.4855 0-2.299 0.7781-3.5015 1.5209-1.4148 0.8843-2.4405 1.1318-3.7845 2.0161-1.0257 0.7074-1.4855 1.5916-2.6527 2.1929-0.7073 0.389-1.3087 0.389-1.9807 0.8842s-0.8842 1.0611-1.3087 1.7685c-1.1672 1.8746-2.2283 3.0417-2.2283 5.3054 0 1.8392 0.672 2.8295 0.672 4.6334 0 0.9128 0.0161 1.6743-0.097 2.3975h2044.1c0.3865-0.3121 0.7849-0.6519 1.2151-1.0535 0.8843-0.7781 1.4856-1.4501 2.4404-2.2283 0.3184-0.283 0.4951-0.672 0.9197-0.672h4.3857l5.3054 1.7684c1.2734-2.1929 2.7588-3.1832 5.0579-4.1735 1.061-0.4598 1.7686-0.6721 2.9001-0.8843 0.9197-0.1768 2.1931-0.3537 2.1931-1.344 0-0.3891-0.3892-0.5306-0.46-0.8843-0.3181-2.1575-0.6365-3.4308-0.6365-5.6237 0-1.8392 0.7073-3.0417 1.9805-4.3151 0.9551-0.9196 1.3794-1.6977 1.981-2.8649 1.0962-1.9807 1.9805-3.3248 1.9805-5.6237 0-2.2637-0.9902-3.4308-0.9902-5.6945v-15.562c0-3.2893 1.061-5.6591 3.6431-7.569 2.4404-1.8392 1.7329-4.598 2.4404-7.5336-2.0515-0.6367-2.9709-1.0257-5.0933-1.5209-2.4041-0.6363-3.253-2.9-5.7288-2.9z" fill="#fff" stroke="#000" stroke-miterlimit="10" stroke-width="2"/>
		<path d="m1066.3 1049.6c-114.01-54.914-277.08-163.91-277.08-379.52 0-215.61 10.309-313.66 10.309-313.66h533.55s10.311 98.054 10.311 313.66c-1e-4 215.61-163.08 324.6-277.09 379.52z" fill="#fff"/>
		<path d="m1066.3 1021c-104.59-50.38-254.2-150.38-254.2-348.18 0-197.81 9.457-287.76 9.457-287.76h489.5s9.46 89.958 9.46 287.76c0 197.81-149.61 297.8-254.21 348.18h-0.0018z" fill="#EE1C25"/>
		<path d="m1088.7 620.93c28.321 0.4579 83.575 1.5665 132.78-14.897 0 0-1.2994 17.606-1.2994 38.116 0 20.514 1.2994 38.119 1.2994 38.119-45.129-15.104-100.86-15.418-132.78-15.013v109.25h-44.735v-109.25c-31.913-0.4049-87.644-0.0901-132.78 15.012 0 0 1.2995-17.605 1.2995-38.119 0-20.509-1.2995-38.116-1.2995-38.116 49.201 16.464 104.46 15.354 132.78 14.897v-68.614c-25.812-0.2289-63.008 1.0027-105.06 15.078 0 0 1.2995-17.606 1.2995-38.119 0-20.511-1.2995-38.117-1.2995-38.117 41.994 14.051 79.145 15.303 104.95 15.08-1.3269-43.452-13.984-98.216-13.984-98.216s26.05 2.0329 36.464 2.0329c10.425 0 36.468-2.0329 36.468-2.0329s-12.654 54.765-13.983 98.212c25.807 0.2247 62.956-1.0281 104.95-15.08 0 0-1.2994 17.606-1.2994 38.117 0 20.513 1.2994 38.119 1.2994 38.119-42.055-14.074-79.252-15.307-105.06-15.077v68.614l4e-4 0.0051z" fill="#fff"/>
		<path d="m1066.3 764.67c-52.671 0-80.884 73.068-80.884 73.068s-15.652-34.646-58.626-34.646c-29.076 0-50.503 25.864-64.125 49.816 52.898 84.168 137.3 136.11 203.63 168.06 66.348-31.956 150.8-83.884 203.7-168.06-13.621-23.952-35.049-49.816-64.125-49.816-42.976 0-58.693 34.646-58.693 34.646s-28.209-73.068-80.884-73.068h1e-4z" fill="#0B4EA2"/>
</svg>