<?xml version="1.0" encoding="utf-8"?>
<svg xmlns="http://www.w3.org/2000/svg" xmlns:xlink="http://www.w3.org/1999/xlink" version= "1.1" width="1354px" height="969px" viewBox="-135 583 1354 969">
<g id="layer1">
<g style="fill:rgb(64,95,111); fill-opacity:1.0; stroke-linejoin: miter">
<path d="M-135.001,582.14984C-135.22623,582.14984,-135.44221,582.2393,-135.60147,582.39856C-135.76073,582.5578,-135.85019,582.7738,-135.85019,582.999L-135.84918,1552.0C-135.84918,1552.469,-135.469,1552.8491,-135.0,1552.8491L1219.001,1552.8501C1219.2262,1552.8501,1219.4421,1552.7607,1219.6014,1552.6014C1219.7607,1552.4421,1219.8501,1552.2262,1219.8501,1552.001L1219.8491,583.0C1219.8491,582.531,1219.469,582.1508,1219.0,582.1508L-135.001,582.14984 Z"/>
</g>
</g>
<g id="layer2">
<g style="fill:rgb(0,0,0); fill-opacity:1.0; stroke-linejoin: miter">
<path d="M900.4552,722.88806Q926.54553,719.40155,953.6083,734.6684Q978.7208,749.1665,984.0958,771.621Q990.8712,796.11597,978.78674,847.7183Q975.47754,861.3323,972.42126,868.68677Q971.0947,871.84235,969.75745,874.1078Q963.6466,882.6379,963.99744,883.2047Q960.2152,901.2434,959.3484,901.682Q956.3286,908.16565,950.0106,912.2621L856.8967,890.58545Q852.6515,891.657,850.54895,889.944Q847.57385,887.87756,845.3534,878.4352Q844.183,874.99884,843.24255,857.4023Q842.6937,853.16876,841.63904,849.8509Q841.833,848.5496,832.8771,831.0466Q831.09595,826.91473,830.12354,823.1983Q826.27563,810.2779,832.0138,790.4194Q839.93933,764.09625,851.9806,744.7968Q861.70874,729.52374,900.3978,722.8948"/>
</g>
<g style="fill:rgb(255,198,151); fill-opacity:1.0; stroke-linejoin: miter">
<path d="M902.04724,761.53864Q915.0028,759.1188,929.60474,762.17944Q943.94653,765.41296,949.1129,771.82153Q952.1417,775.24084,953.70154,781.1265Q958.6825,806.55963,958.672,809.00555Q960.3286,819.9594,958.542,851.0327Q978.5166,843.3257,977.6439,848.9164Q975.1089,859.33307,959.37964,875.86945L953.2628,916.5299L895.3616,964.2657L864.85706,938.2479L865.9784,908.2848Q856.3082,901.78705,853.28516,893.6669Q850.51294,886.9798,848.38806,869.90027Q844.2671,868.2052,842.0353,859.5823Q839.3546,848.4865,839.31726,841.57574Q839.1493,835.06635,846.37317,849.9187Q848.9142,841.4953,849.5405,833.82605Q849.9834,832.6681,850.3124,807.3287Q850.5575,801.69684,851.1185,797.77014Q852.23145,789.4362,855.45935,785.558Q857.32104,783.1536,860.6687,781.21027L872.8699,775.3795L887.8799,766.6717Q894.9669,762.99194,901.94934,761.55884"/>
</g>
<g style="fill:rgb(123,216,239); fill-opacity:1.0; stroke-linejoin: miter">
<path d="M953.9469,913.6554L968.7311,941.5925L896.297,1368.3146L808.26086,1336.4122L819.5349,1246.181Q842.31165,1065.9916,851.33374,1002.0654Q860.6139,935.3229,864.2467,926.3411Q866.31274,919.6508,867.82556,935.66833Q885.20337,954.1372,894.93225,957.4556L953.8086,913.75793"/>
</g>
<g style="fill:rgb(0,0,0); fill-opacity:1.0; stroke-linejoin: miter">
<path d="M797.4138,1313.0507L796.8839,1346.6144Q794.71484,1489.4369,794.14417,1552.1887L1019.5917,1552.1895Q1020.2162,1507.2867,1021.53394,1337.9078Q957.3462,1358.1459,797.4138,1313.0507 Z"/>
</g>
<g style="fill:rgb(250,84,34); fill-opacity:1.0; stroke-linejoin: miter">
<path d="M896.9264,958.9982L911.88135,975.0373L899.37317,995.4103L901.99084,1041.7836L872.69116,1336.9318L849.417,1364.1776L828.59924,1330.8339L860.7092,1043.5707L884.16504,992.4386L882.6388,968.5302L896.8374,959.0577"/>
</g>
<g style="fill:rgb(255,255,255); fill-opacity:1.0; stroke-linejoin: miter">
<path d="M963.04846,931.3998L963.0386,931.6399L962.1395,946.6724Q946.38696,972.0331,929.53015,991.73676Q924.812,998.55774,918.05005,1016.15796Q905.5602,1053.307,896.9818,1107.4386Q888.00146,1158.4413,881.4336,1252.4762L865.021,1552.1887L1072.165,1552.1895Q1057.7559,1362.3676,1047.1423,1316.8993Q1071.413,1301.1608,1096.1821,1280.881Q1121.9045,1268.4987,1130.1724,1261.391Q1140.6176,1255.4899,1147.5146,1210.5594Q1147.6436,1199.0363,1144.3041,1185.6232Q1120.5052,1109.3634,1119.5721,1103.1283L1116.3125,1082.255Q1113.417,1035.6937,1111.9109,1029.3419Q1110.1099,1018.7461,1104.0935,1008.87946Q1096.7329,998.16284,1081.2555,989.509Q1068.642,981.9918,1009.9674,959.00134L963.04846,931.3998 Z"/>
</g>
<g style="fill:rgb(255,255,255); fill-opacity:1.0; stroke-linejoin: miter">
<path d="M858.01306,959.05096L804.9081,997.5704Q794.03235,1003.8586,776.6809,1045.0709Q753.59283,1104.7054,742.1152,1156.869Q737.0473,1178.9349,735.72894,1206.6715Q735.4849,1213.6818,736.0218,1225.2662Q736.41986,1231.7682,739.06866,1254.6708L739.23553,1263.576Q738.65753,1268.4022,738.0977,1270.6322Q731.45795,1292.235,730.7315,1297.9911Q729.3658,1302.5472,729.05194,1328.2389Q729.91547,1364.0187,733.3461,1388.3817Q737.0195,1413.7479,743.85675,1435.693L763.00885,1552.1887L814.2711,1552.1897Q819.77905,1502.5272,820.3026,1488.2948L822.75195,1355.7098Q823.12317,1336.1327,825.225,1305.7272Q826.0846,1293.3993,828.48254,1270.4882Q837.8721,1195.0809,843.56836,1137.5594Q853.9761,1023.6218,858.01306,959.05096 Z"/>
</g>
<g style="fill:rgb(250,84,34); fill-opacity:0.29803923; stroke-linejoin: miter">
<path d="M956.14246,895.93256L896.4562,955.57794Q867.4563,910.46545,865.9916,908.504Q883.23584,930.9597,908.6289,927.35046Q927.51575,924.78296,956.0759,895.99896"/>
</g>
<g style="fill:rgb(34,45,195); fill-opacity:1.0; stroke-linejoin: miter">
<path d="M943.67346,1086.9562L1035.56,1162.1051L1044.5146,1193.7089Q1041.3596,1206.0284,1037.5334,1213.3163Q1022.5436,1244.8607,937.24,1247.7582L911.5493,1278.9843L861.89905,1243.0851L943.57776,1087.1385"/>
</g>
<g style="fill:rgb(34,45,195); fill-opacity:1.0; stroke-linejoin: miter">
<path d="M1059.6794,1308.7723L1029.0239,1371.3812L993.29834,1347.108L1059.6765,1308.7743"/>
</g>
<g style="fill:rgb(255,198,151); fill-opacity:1.0; stroke-linejoin: miter">
<path d="M875.645,1228.8439Q879.2781,1225.67,889.2324,1229.0577Q893.001,1230.121,908.916,1237.3314L916.40405,1239.837L932.67346,1247.7137Q936.792,1249.5365,938.8489,1249.8671Q945.50525,1261.047,951.0029,1278.0653Q954.1655,1288.6041,955.7444,1308.2194L928.8845,1317.2848Q923.681,1318.3597,920.7771,1318.662Q910.2046,1320.0001,904.0447,1313.7474Q897.3685,1307.7965,887.42004,1282.048Q877.4149,1278.0941,874.6295,1275.434Q870.97424,1272.2855,871.0686,1267.9366Q871.43494,1263.0382,878.14294,1261.2689Q878.6515,1260.3654,908.031,1257.1361Q896.2417,1253.0936,880.83813,1240.8319Q871.76807,1232.9525,875.6061,1228.8807"/>
</g>
<g style="fill:rgb(99,195,207); fill-opacity:1.0; stroke-linejoin: miter">
<path d="M356.7094,1099.2882L388.93768,1099.2887L388.93765,1393.9225L356.70938,1393.9232L356.7094,1099.2882 Z"/>
</g>
<g style="fill:rgb(99,195,207); fill-opacity:1.0; stroke-linejoin: miter">
<path d="M439.93658,1099.2882L472.1647,1099.289L472.1647,1393.9227L439.93652,1393.9232L439.93658,1099.2882 Z"/>
</g>
<g style="fill:rgb(99,195,207); fill-opacity:1.0; stroke-linejoin: miter">
<path d="M523.16376,1099.2882L555.392,1099.289L555.3919,1393.9227L523.16364,1393.9237L523.16376,1099.2882 Z"/>
</g>
<g style="fill:rgb(220,229,235); fill-opacity:1.0; stroke-linejoin: miter">
<path d="M362.748,1225.5511L372.18652,1225.5516L381.62503,1225.5524Q381.625,1292.6322,381.625,1359.7123Q372.1865,1359.7125,362.74796,1359.7133Q362.74796,1292.6322,362.748,1225.5511"/>
</g>
<g style="fill:rgb(220,229,235); fill-opacity:1.0; stroke-linejoin: miter">
<path d="M445.67474,1228.3417L455.1132,1228.3422L464.55167,1228.3429Q464.55167,1295.4225,464.55167,1362.5026Q455.11313,1362.503,445.67468,1362.5038Q445.67468,1295.4225,445.67474,1228.3417"/>
</g>
<g style="fill:rgb(220,229,235); fill-opacity:1.0; stroke-linejoin: miter">
<path d="M529.7956,1224.8881L539.2342,1224.8883L548.67255,1224.8888Q548.67255,1291.9686,548.67255,1359.049Q539.2341,1359.0492,529.7956,1359.0497Q529.7956,1291.9686,529.7956,1224.8881"/>
</g>
<g style="fill:rgb(99,195,207); fill-opacity:1.0; stroke-linejoin: miter">
<path d="M307.91095,1340.7943L307.18668,1350.7218Q302.0382,1380.7223,277.0572,1398.7096Q251.90344,1416.6825,217.81662,1413.2855Q185.28516,1408.537,165.78084,1385.4996Q159.53143,1378.0526,155.48557,1369.2709L152.0852,1360.2428Q149.283,1350.9247,149.25148,1340.7943Q150.10217,1309.7067,172.48657,1289.0634Q194.87106,1268.42,228.5812,1267.6356Q262.2913,1268.42,284.67578,1289.0634Q307.06027,1309.7067,307.91095,1340.7943"/>
</g>
<g style="fill:rgb(99,195,207); fill-opacity:1.0; stroke-linejoin: miter">
<path d="M244.63275,1152.5519L228.58115,1152.5521L212.52957,1152.5529Q212.52954,1243.66,212.52954,1334.7677Q228.58112,1334.7682,244.63272,1334.7687Q244.63272,1243.66,244.63275,1152.5519"/>
</g>
<g style="fill:rgb(68,145,155); fill-opacity:1.0; stroke-linejoin: miter">
<path d="M198.32776,1124.4894L228.58127,1124.4896L258.83466,1124.4904Q258.83466,1145.7413,258.83463,1166.9928Q228.58124,1166.9933,198.32774,1166.9935Q198.32776,1145.7413,198.32776,1124.4894"/>
</g>
<g style="fill:rgb(99,195,207); fill-opacity:1.0; stroke-linejoin: miter">
<path d="M243.49606,1191.9025L309.2594,1191.903L375.02267,1191.9032Q375.02267,1200.62,375.02267,1209.3365Q309.2594,1209.3368,243.49606,1209.3375Q243.49606,1200.62,243.49606,1191.9025"/>
</g>
<g style="fill:rgb(0,0,0); fill-opacity:1.0; stroke-linejoin: miter">
<path d="M333.23447,1358.1827L456.05075,1358.1835L578.8669,1358.1837Q578.8669,1385.2059,578.8669,1412.2281Q456.05075,1412.2286,333.23447,1412.2289Q333.23447,1385.2059,333.23447,1358.1827"/>
</g>
<g style="fill:rgb(99,195,207); fill-opacity:1.0; stroke-linejoin: miter">
<path d="M368.95993,1191.9025L434.7233,1191.903L500.48666,1191.9032Q500.48666,1200.62,500.48666,1209.3365Q434.7233,1209.3368,368.95993,1209.3375Q368.95993,1200.62,368.95993,1191.9025"/>
</g>
<g style="fill:rgb(99,195,207); fill-opacity:1.0; stroke-linejoin: miter">
<path d="M427.06082,1191.9025L492.82407,1191.903L558.58746,1191.9032Q558.58746,1200.62,558.58746,1209.3365Q492.82407,1209.3368,427.06082,1209.3375Q427.06082,1200.62,427.06082,1191.9025"/>
</g>
<g style="fill:rgb(220,229,235); fill-opacity:1.0; stroke-linejoin: miter">
<path d="M290.3649,1340.2035L289.78073,1348.4056Q285.6268,1373.1932,265.47226,1388.0548Q245.17825,1402.9044,217.67703,1400.0975Q191.43071,1396.1749,175.69463,1377.1405Q170.65262,1370.9877,167.38844,1363.7316L164.64507,1356.2723Q162.3842,1348.5734,162.35883,1340.2035Q163.04512,1314.5177,181.10492,1297.4618Q199.16463,1280.4056,226.36185,1279.7577Q253.5592,1280.4056,271.6189,1297.4618Q289.6787,1314.5177,290.3649,1340.2035"/>
</g>
<g style="fill:rgb(99,195,207); fill-opacity:1.0; stroke-linejoin: miter">
<path d="M167.85121,1342.546L229.60922,1342.5463L291.3671,1342.5468Q291.3671,1319.5431,291.3671,1296.5397Q229.60922,1296.5402,167.85121,1296.5409Q167.85121,1319.5431,167.85121,1342.546"/>
</g>
<g style="fill:rgb(99,195,207); fill-opacity:1.0; stroke-linejoin: miter">
<path d="M157.68973,1314.0216L171.44861,1314.0221L185.2074,1314.0223Q185.2074,1328.2286,185.2074,1342.4344Q171.44861,1342.4344,157.68973,1342.4352Q157.68973,1328.2286,157.68973,1314.0216"/>
</g>
<g style="fill:rgb(99,195,207); fill-opacity:1.0; stroke-linejoin: miter">
<path d="M251.28665,1281.4576L262.94412,1281.4581L274.6017,1281.4586Q274.6017,1294.099,274.6017,1306.7394Q262.94412,1306.7399,251.28665,1306.7404Q251.28665,1294.099,251.28665,1281.4576"/>
</g>
<g style="fill:rgb(99,195,207); fill-opacity:1.0; stroke-linejoin: miter">
<path d="M178.87105,1290.1097L190.02245,1290.11L201.17375,1290.1105Q201.17375,1300.4261,201.17375,1310.7416Q190.02245,1310.7421,178.87105,1310.7423Q178.87105,1300.4261,178.87105,1290.1097"/>
</g>
<g style="fill:rgb(99,195,207); fill-opacity:1.0; stroke-linejoin: miter">
<path d="M188.61078,1285.8798L204.50693,1285.8802L220.40298,1285.8805Q220.40298,1298.1102,220.40298,1310.3397Q204.50693,1310.3402,188.61078,1310.3405Q188.61078,1298.1102,188.61078,1285.8798"/>
</g>
<g style="fill:rgb(99,195,207); fill-opacity:1.0; stroke-linejoin: miter">
<path d="M206.06888,1274.4774L231.61288,1274.4777L257.1569,1274.4781Q257.1569,1288.4789,257.1569,1302.4799Q231.61288,1302.4803,206.06888,1302.4811Q206.06888,1288.4789,206.06888,1274.4774"/>
</g>
<g style="fill:rgb(99,195,207); fill-opacity:1.0; stroke-linejoin: miter">
<path d="M195.22655,1277.42L205.53601,1277.4205L215.84549,1277.4208Q215.84549,1287.7299,215.84549,1298.039Q205.53601,1298.0392,195.22655,1298.0397Q195.22655,1287.7299,195.22655,1277.42"/>
</g>
<g style="fill:rgb(68,145,155); fill-opacity:1.0; stroke-linejoin: miter">
<path d="M349.3752,1086.5233L372.1434,1086.5238L394.9115,1086.524Q394.9115,1101.9374,394.9115,1117.3507Q372.1434,1117.3512,349.3752,1117.3514Q349.3752,1101.9371,349.3752,1086.5233"/>
</g>
<g style="fill:rgb(68,145,155); fill-opacity:1.0; stroke-linejoin: miter">
<path d="M433.3912,1083.5558L456.1594,1083.556L478.92764,1083.5565Q478.92764,1098.9698,478.92764,1114.3829Q456.1594,1114.3837,433.3912,1114.3842Q433.3912,1098.9698,433.3912,1083.5558"/>
</g>
<g style="fill:rgb(68,145,155); fill-opacity:1.0; stroke-linejoin: miter">
<path d="M517.3979,1082.3131L540.1662,1082.3134L562.9344,1082.3138Q562.9344,1097.7272,562.9344,1113.1405Q540.1662,1113.141,517.3979,1113.1415Q517.3979,1097.7272,517.3979,1082.3131"/>
</g>
<g style="fill:rgb(255,0,0); fill-opacity:1.0; stroke-linejoin: miter">
<path d="M787.249,1356.3641L871.68616,1356.3646L956.1233,1356.3651Q956.1233,1383.2823,956.1233,1410.1998Q871.68616,1410.2003,787.249,1410.2003Q787.249,1383.2823,787.249,1356.3641"/>
</g>
<g style="fill:rgb(255,255,255); fill-opacity:1.0; stroke-linejoin: miter">
<path d="M787.2639,1367.6554L864.37415,1367.6561L941.4844,1367.6566Q941.4844,1383.4696,941.4844,1399.2826Q864.37415,1399.2833,787.2639,1399.2836Q787.2639,1383.4696,787.2639,1367.6554"/>
</g>
<g style="fill:rgb(255,255,255); fill-opacity:1.0; stroke-linejoin: miter">
<path d="M594.3144,1203.8302L600.717,1197.9811L607.11957,1192.1324Q614.54,1200.2548,621.9604,1208.3766Q615.5584,1214.226,609.15656,1220.0753Q601.73553,1211.9528,594.3144,1203.8302"/>
</g>
<g style="fill:rgb(0,0,0); fill-opacity:1.0; stroke-linejoin: miter">
<path d="M714.8261,1311.8907L714.7841,1312.5155Q714.4854,1314.403,713.0361,1315.5345Q711.5767,1316.6654,709.59906,1316.4515Q707.71173,1316.1527,706.58,1314.7035Q706.21747,1314.2347,705.98285,1313.6825L705.7856,1313.1144Q705.623,1312.5284,705.62115,1311.8907Q705.6705,1309.9354,706.9693,1308.6366Q708.2679,1307.3378,710.2236,1307.2885Q712.17926,1307.3378,713.4781,1308.6366Q714.7767,1309.9354,714.8261,1311.8907"/>
</g>
<g style="fill:rgb(255,255,255); fill-opacity:1.0; stroke-linejoin: miter">
<path d="M703.80524,1293.5804L710.0799,1300.2672L716.35443,1306.9537Q711.26984,1311.7255,706.1851,1316.4974Q699.9097,1309.8112,693.6346,1303.1251Q698.7199,1298.3527,703.80524,1293.5804"/>
</g>
<g style="fill:rgb(115,192,88); fill-opacity:1.0; stroke-linejoin: miter">
<path d="M777.64233,1303.4874L862.07947,1303.4879L946.5166,1303.4882Q946.5166,1330.4056,946.5166,1357.3229Q862.07947,1357.3234,777.64233,1357.3239Q777.64233,1330.4056,777.64233,1303.4874"/>
</g>
<g style="fill:rgb(255,255,255); fill-opacity:1.0; stroke-linejoin: miter">
<path d="M777.657,1314.7787L854.76746,1314.7789L931.8778,1314.7797Q931.8778,1330.5927,931.8778,1346.4056Q854.76746,1346.4064,777.657,1346.4064Q777.657,1330.5927,777.657,1314.7787"/>
</g>
<g style="fill:rgb(0,0,0); fill-opacity:1.0; stroke-linejoin: miter">
<path d="M629.04926,1355.9401L694.8276,1355.9403L760.6059,1355.9408Q760.6059,1382.9576,760.6059,1409.9742Q694.8276,1409.9747,629.04926,1409.975Q629.04926,1382.9574,629.04926,1355.9401"/>
</g>
<g style="fill:rgb(0,0,0); fill-opacity:1.0; stroke-linejoin: miter">
<path d="M647.6158,1210.4808L655.8381,1210.4813L664.0605,1210.4818Q664.0605,1291.9703,664.0605,1373.4589Q655.83795,1373.4594,647.61566,1373.4596Q647.61566,1291.9703,647.6158,1210.4808"/>
</g>
<g style="fill:rgb(0,0,0); fill-opacity:1.0; stroke-linejoin: miter">
<path d="M624.16595,1192.1661L670.5428,1240.297L716.9195,1288.4286Q702.5832,1302.2423,688.24677,1316.0565Q641.8692,1267.9261,595.49176,1219.7953Q609.8288,1205.9811,624.16595,1192.1661"/>
</g>
<g style="fill:rgb(0,0,0); fill-opacity:1.0; stroke-linejoin: miter">
<path d="M652.86005,1326.3234L693.0258,1326.3241L733.19135,1326.3243Q733.19135,1328.1234,733.19135,1329.9225Q693.0258,1329.923,652.86005,1329.9235Q652.86005,1328.1237,652.86005,1326.3234"/>
</g>
<g style="fill:rgb(255,255,255); fill-opacity:1.0; stroke-linejoin: miter">
<path d="M677.84467,1324.4515L700.6409,1324.4523L723.4368,1324.4525Q723.4368,1325.3234,723.4368,1326.1942Q700.6409,1326.1945,677.84467,1326.1952Q677.84467,1325.3234,677.84467,1324.4515"/>
</g>
<g style="fill:rgb(106,234,67); fill-opacity:1.0; stroke-linejoin: miter">
<path d="M112.56354,1358.6708L112.055435,1365.6349Q108.44354,1386.6815,90.91852,1399.3002Q73.272224,1411.9088,49.359154,1409.5258Q26.537275,1406.1947,12.854293,1390.0328Q8.470069,1384.8087,5.6318502,1378.6481L3.2463827,1372.3143Q1.2805166,1365.7772,1.2584066,1358.6708Q1.855155,1336.8617,17.558601,1322.3795Q33.262146,1307.8976,56.910942,1307.3475Q80.55969,1307.8976,96.263245,1322.3795Q111.96669,1336.8617,112.56354,1358.6708"/>
</g>
<g style="fill:rgb(106,234,67); fill-opacity:1.0; stroke-linejoin: miter">
<path d="M68.1717,1226.6122L56.91095,1226.6129L45.650208,1226.6132Q45.6502,1290.528,45.6502,1354.4427Q56.910942,1354.4432,68.171684,1354.4437Q68.171684,1290.528,68.1717,1226.6122"/>
</g>
<g style="fill:rgb(69,159,42); fill-opacity:1.0; stroke-linejoin: miter">
<path d="M35.68715,1206.9257L56.91095,1206.9259L78.13475,1206.9264Q78.13475,1221.8346,78.13475,1236.743Q56.910942,1236.7435,35.687157,1236.7438Q35.68715,1221.8346,35.68715,1206.9257"/>
</g>
<g style="fill:rgb(42,115,159); fill-opacity:1.0; stroke-linejoin: miter">
<path d="M100.254395,1358.2565L99.84451,1364.0104Q96.93039,1381.3998,82.79135,1391.8253Q68.55427,1402.243,49.261337,1400.274Q30.848616,1397.5219,19.809233,1384.1686Q16.272024,1379.8524,13.982154,1374.7621L12.05754,1369.5289Q10.471488,1364.1278,10.453612,1358.2565Q10.935119,1340.2369,23.604622,1328.2714Q36.274223,1316.306,55.35401,1315.8512Q74.4339,1316.306,87.103455,1328.2714Q99.77289,1340.2369,100.254395,1358.2565"/>
</g>
<g style="fill:rgb(106,234,67); fill-opacity:1.0; stroke-linejoin: miter">
<path d="M14.306815,1359.8993L57.632095,1359.9L100.95743,1359.9005Q100.95743,1343.7623,100.95743,1327.6246Q57.632095,1327.6251,14.306815,1327.6256Q14.306815,1343.7623,14.306815,1359.8993"/>
</g>
<g style="fill:rgb(106,234,67); fill-opacity:1.0; stroke-linejoin: miter">
<path d="M7.178115,1339.889L16.830444,1339.8893L26.482727,1339.8898Q26.482727,1349.89,26.482727,1359.8905Q16.830444,1359.8907,7.178111,1359.8912Q7.178115,1349.89,7.178115,1339.889"/>
</g>
<g style="fill:rgb(106,234,67); fill-opacity:1.0; stroke-linejoin: miter">
<path d="M72.83958,1317.0441L81.01773,1317.0443L89.195984,1317.0448Q89.195984,1325.9125,89.195984,1334.7802Q81.01773,1334.7806,72.83958,1334.7809Q72.83958,1325.9125,72.83958,1317.0441"/>
</g>
<g style="fill:rgb(106,234,67); fill-opacity:1.0; stroke-linejoin: miter">
<path d="M22.037514,1323.1136L29.860573,1323.1141L37.68364,1323.1146Q37.68364,1330.3512,37.68364,1337.5878Q29.860573,1337.5883,22.037514,1337.5887Q22.037514,1330.3512,22.037514,1323.1136"/>
</g>
<g style="fill:rgb(106,234,67); fill-opacity:1.0; stroke-linejoin: miter">
<path d="M28.870316,1320.1464L40.02202,1320.1469L51.173622,1320.1471Q51.173622,1328.7264,51.173622,1337.3055Q40.02201,1337.3063,28.870316,1337.3068Q28.870316,1328.7264,28.870316,1320.1464"/>
</g>
<g style="fill:rgb(106,234,67); fill-opacity:1.0; stroke-linejoin: miter">
<path d="M41.117844,1312.1471L59.03778,1312.1476L76.95776,1312.1478Q76.95776,1321.9698,76.95776,1331.7919Q59.03778,1331.7926,41.117844,1331.7926Q41.117844,1321.9698,41.117844,1312.1471"/>
</g>
<g style="fill:rgb(106,234,67); fill-opacity:1.0; stroke-linejoin: miter">
<path d="M33.51146,1314.2113L40.743973,1314.2118L47.976387,1314.2125Q47.976387,1321.4442,47.976387,1328.6761Q40.743973,1328.6769,33.51146,1328.6769Q33.51146,1321.4442,33.51146,1314.2113"/>
</g>
<g style="fill:rgb(34,43,50); fill-opacity:1.0; stroke-linejoin: miter">
<path d="M-72.38,1409.934L464.4943,1409.9347L1001.3688,1409.9349Q1001.3688,1448.5797,1001.3688,1487.224Q464.4943,1487.2245,-72.38,1487.2252Q-72.38,1448.5797,-72.38,1409.934"/>
</g>
<g style="fill:rgb(255,255,255); fill-opacity:0.42745098; stroke-linejoin: miter">
<path d="M219.82101,1298.7133L219.7031,1300.4655Q218.86496,1305.7616,214.79825,1308.9366Q210.70325,1312.1093,205.15414,1311.5094Q199.85808,1310.6715,196.68285,1306.6046Q195.66544,1305.2902,195.00685,1303.7401L194.45332,1302.1461Q193.9971,1300.5011,193.99196,1298.7133Q194.13046,1293.225,197.7745,1289.5809Q201.41864,1285.9369,206.9065,1285.7985Q212.39435,1285.9369,216.03848,1289.5809Q219.68253,1293.225,219.82101,1298.7133"/>
</g>
<g style="fill:rgb(255,255,255); fill-opacity:0.42745098; stroke-linejoin: miter">
<path d="M52.229355,1337.1066L52.111443,1338.8593Q51.27334,1344.1552,47.20658,1347.3304Q43.11161,1350.5028,37.562454,1349.9034Q32.26644,1349.0653,29.091225,1344.9984Q28.073814,1343.684,27.415169,1342.1337L26.86164,1340.5399Q26.405418,1338.8949,26.40033,1337.1066Q26.538734,1331.6188,30.182922,1327.9747Q33.826958,1324.3307,39.314865,1324.1923Q44.802727,1324.3307,48.446815,1327.9747Q52.090843,1331.6188,52.229355,1337.1066"/>
</g>
<g style="fill:rgb(255,255,255); fill-opacity:0.42745098; stroke-linejoin: miter">
<path d="M361.4025,1159.5602Q361.28625,1159.5602,361.17313,1159.5636Q358.7782,1159.5973,356.7073,1160.3573Q356.7094,1172.4733,356.7094,1184.5887Q358.22324,1185.1322,359.96512,1185.3248Q360.64023,1185.3864,361.2951,1185.3864Q365.6203,1185.3864,369.0648,1182.7018Q373.07077,1179.631,373.9697,1174.2306L374.08765,1172.4781Q374.0533,1171.1842,373.8057,1169.7584Q373.76532,1169.3295,372.85175,1166.9496Q371.63742,1164.568,370.30502,1163.3463Q368.43723,1161.5314,366.39282,1160.6324Q363.42926,1159.5602,361.4025,1159.5602 Z"/>
</g>
<g style="fill:rgb(255,255,255); fill-opacity:0.42745098; stroke-linejoin: miter">
<path d="M468.11325,1143.3092Q467.99698,1143.3092,467.88376,1143.3129Q465.48892,1143.3466,463.41794,1144.1066Q463.42026,1156.2218,463.42026,1168.3378Q464.9341,1168.8812,466.67587,1169.0739Q467.35098,1169.1356,468.0059,1169.1356Q470.1967,1169.1356,472.16165,1168.4464L472.16507,1144.0624Q469.81168,1143.3092,468.11325,1143.3092 Z"/>
</g>
<g style="fill:rgb(255,255,255); fill-opacity:0.42745098; stroke-linejoin: miter">
<path d="M523.16376,1138.5323Q523.16376,1149.7504,523.16376,1160.9686Q523.91144,1160.5292,524.6215,1159.9755Q528.6276,1156.9047,529.5267,1151.5043L529.6445,1149.7521Q529.6103,1148.4579,529.3626,1147.0321Q529.3223,1146.6034,528.4086,1144.2235Q527.1943,1141.8414,525.862,1140.62Q524.5578,1139.3531,523.16766,1138.5323 Z"/>
</g>
<g style="fill:rgb(0,0,0); fill-opacity:1.0; stroke-linejoin: miter">
<path d="M796.1953,1251.0253L880.63257,1251.026L965.0698,1251.0265Q965.0698,1277.9437,965.0698,1304.861Q880.63257,1304.8617,796.1953,1304.8619Q796.1953,1277.9437,796.1953,1251.0253"/>
</g>
<g style="fill:rgb(255,255,255); fill-opacity:1.0; stroke-linejoin: miter">
<path d="M796.2102,1262.3168L873.32056,1262.3173L950.43066,1262.3175Q950.43066,1278.1307,950.43066,1293.944Q873.32056,1293.9442,796.2102,1293.945Q796.2102,1278.131,796.2102,1262.3168"/>
</g>
<g style="fill:rgb(34,43,50); fill-opacity:1.0; stroke-linejoin: miter">
<path d="M20.010443,1464.4904L20.010443,1552.1907L925.4686,1552.1897L925.4686,1464.4916L20.010443,1464.4904 Z"/>
</g>
<g style="fill:rgb(0,0,0); fill-opacity:1.0; stroke-linejoin: miter">
<path d="M196.81604,700.08594C131.47034,695.4117,74.70244,744.59973,70.027916,809.94617C65.35343,875.2919,114.54149,932.05945,179.88725,936.73395C245.23318,941.40826,302.00073,892.22015,306.67548,826.87415C311.35013,761.5279,262.16217,704.7608,196.81604,700.08594 Z"/>
</g>
<g style="fill:rgb(255,255,255); fill-opacity:1.0; stroke-linejoin: miter">
<path d="M180.47137,825.23865C182.21942,827.2559,184.73653,828.60693,187.60762,828.8124C193.12068,829.20636,197.95413,825.2182,198.6806,819.8127L253.57043,772.24713L243.3281,760.426L189.14137,807.3736L157.55469,770.92505L145.73392,781.16724L177.92838,818.3287C177.89777,820.9506,178.85846,823.377,180.47137,825.23865 Z M195.70003,715.68933C252.3393,719.7404,295.12415,769.1181,291.07233,825.7578C287.0205,882.3972,237.64279,925.18207,181.00346,921.1307C124.36418,917.0792,81.57942,867.7016,85.63106,811.0619C89.68294,754.423,139.06062,711.63745,195.70003,715.68933 Z"/>
</g>
<g style="fill:rgb(109,109,109); fill-opacity:1.0; stroke-linejoin: miter">
<path d="M189.75468,808.08124L189.14137,807.3736L157.55469,770.92505L145.73392,781.16724L177.92838,818.3287C177.92316,818.1086,177.93375,817.8898,177.9497,817.6659L189.09615,808.00806C189.31953,808.0243,189.53786,808.04535,189.75468,808.08124 Z"/>
</g>
<g style="fill:rgb(145,145,145); fill-opacity:1.0; stroke-linejoin: miter">
<path d="M253.57043,772.24713L243.3281,760.426L189.14137,807.3736L189.75468,808.08124L198.75385,819.1542C198.73782,819.3774,198.71692,819.59564,198.6806,819.8127L253.57043,772.24713 Z"/>
</g>
<g style="fill:rgb(72,72,72); fill-opacity:1.0; stroke-linejoin: miter">
<path d="M185.08302,816.0679L131.63039,862.3846C129.99803,863.79846,129.82141,866.26855,131.23593,867.9005C131.94283,868.71606,132.91435,869.16895,133.9122,869.2402C134.91032,869.31177,135.93619,869.0026,136.752,868.29535L190.20482,821.9786L185.08302,816.0679 Z"/>
</g>
<g style="fill:rgb(0,0,0); fill-opacity:1.0; stroke-linejoin: miter">
<path d="M187.60762,828.8124C193.3433,829.2223,198.34363,824.88965,198.75385,819.1542C199.16415,813.41876,194.8315,808.41833,189.09615,808.00806C183.36023,807.59784,178.36014,811.93024,177.9497,817.6659C177.53935,823.4017,181.87173,828.4021,187.60762,828.8124 Z"/>
</g>
<g style="fill:rgb(0,0,0); fill-opacity:1.0; stroke-linejoin: miter">
<path d="M193.1887,750.7965C191.0345,750.6422,189.4127,748.77075,189.56688,746.6164L190.68312,731.0132C190.8372,728.8589,192.70857,727.23755,194.8629,727.3916C197.01712,727.5457,198.63882,729.41736,198.48468,731.57153L197.36862,747.1748C197.21436,749.32886,195.34282,750.9509,193.1887,750.7965 Z"/>
</g>
<g style="fill:rgb(0,0,0); fill-opacity:1.0; stroke-linejoin: miter">
<path d="M275.19034,828.5428L259.5872,827.4269C257.43292,827.27216,255.81125,825.4011,255.9654,823.2466C256.11945,821.0922,257.99084,819.47076,260.145,819.62476L275.74832,820.74146C277.90256,820.8948,279.52408,822.7666,279.37033,824.9207C279.21616,827.0749,277.3446,828.69666,275.19034,828.5428 Z"/>
</g>
<g style="fill:rgb(0,0,0); fill-opacity:1.0; stroke-linejoin: miter">
<path d="M181.84065,909.4286C179.68652,909.27423,178.06494,907.40283,178.21881,905.24896L179.33505,889.6457C179.48935,887.49115,181.3607,885.86975,183.51506,886.0239C185.6692,886.1783,187.29097,888.04956,187.13689,890.2041L186.02046,905.8066C185.86635,907.9607,183.99486,909.58234,181.84065,909.4286 Z"/>
</g>
<g style="fill:rgb(0,0,0); fill-opacity:1.0; stroke-linejoin: miter">
<path d="M116.55832,817.1954L100.95538,816.07965C98.8009,815.92487,97.179504,814.05383,97.33356,811.8994C97.487656,809.7453,99.359116,808.1235,101.51346,808.2779L117.116486,809.3945C119.27063,809.54803,120.89223,811.4192,120.73813,813.5737C120.583954,815.7278,118.7126,817.3496,116.55832,817.1954 Z"/>
</g>
</g>
</svg>