<?xml version="1.0" encoding="UTF-8"?>
<svg width="210mm" height="297mm" version="1.1" viewBox="0 0 744.09448819 1052.3622047" xmlns="http://www.w3.org/2000/svg">
 <defs>
  <filter id="g" x="-.018933" y="-.032769" width="1.0379" height="1.0655" color-interpolation-filters="sRGB">
   <feGaussianBlur stdDeviation="1.4691184"/>
  </filter>
  <filter id="h" x="-.015877" y="-.049143" width="1.0318" height="1.0983" color-interpolation-filters="sRGB">
   <feGaussianBlur stdDeviation="1.1014898"/>
  </filter>
  <filter id="i" x="-.046498" y="-.75492" width="1.093" height="2.5098" color-interpolation-filters="sRGB">
   <feGaussianBlur stdDeviation="0.87264882"/>
  </filter>
  <filter id="j" x="-.070177" y="-.15189" width="1.1404" height="1.3038" color-interpolation-filters="sRGB">
   <feGaussianBlur stdDeviation="11.979007"/>
  </filter>
  <filter id="k" x="-.049705" y="-.075673" width="1.0994" height="1.1513" color-interpolation-filters="sRGB">
   <feGaussianBlur stdDeviation="8.0782541"/>
  </filter>
  <filter id="l" x="-.037409" y="-.066956" width="1.0748" height="1.1339" color-interpolation-filters="sRGB">
   <feGaussianBlur stdDeviation="4.6760606"/>
  </filter>
 </defs>
 <g transform="translate(64.125 41.681)" fill-rule="evenodd" filter="url(#k)">
  <path d="m487.94 339.09c-11.771 15.689-34.629 24.55-55.809 36.815-2.6834 1.5352-3.6106 4.9682-2.0672 7.6534s4.9686 3.5982 7.6361 2.0353c12.437 1.6236 39.794-24.522 54.906-48.793-7.1677 25.111-0.63315 1.0746-4.6664 2.2893z" opacity=".5" style="block-progression:tb;text-indent:0;text-transform:none"/>
  <path d="m443.34 403.28c-7.1313 0.04431-13.246 5.1029-14.625 12.1 0.53168-2.5084-1.3082 2.2066-7.0039 7.3633s-14.341 11.651-24.822 18.781c-20.962 14.26-49.31 31.239-78.625 49.049-31.975 19.426-62.128 36.876-86.031 45.049-11.952 4.0864-22.184 5.7583-29.855 5.123-7.6718-0.63529-12.748-2.8724-17.818-8.3105-3.6329-4.0098-9.1436-5.7525-14.421-4.5608-5.2779 1.1918-9.505 5.1333-11.062 10.315s-0.20382 10.801 3.5424 14.705c10.049 10.777 23.564 16.614 37.283 17.75 13.719 1.1361 27.678-1.7251 42.037-6.6348 28.719-9.8194 59.679-28.22 91.902-47.797 29.202-17.742 57.739-34.792 79.924-49.885 11.092-7.5461 20.586-14.559 28.082-21.346 7.4963-6.7868 13.9-12.45 16.217-23.381 1.0129-4.4647-0.06836-9.1476-2.9362-12.716-2.8678-3.5686-7.2083-5.6324-11.786-5.604z" filter="url(#l)" opacity=".54" style="block-progression:tb;text-indent:0;text-transform:none"/>
  <path d="m558.23 344.98c-1.6963-0.02255-3.3515 0.45612-4.6975 1.3583-19.764 6.7382-119.85 73.825-97.792 66.694 6.9938 2.0064 18.878-3.2849 32.312-11.84 25.37-16.156 56.266-43.952 70.178-56.213z" opacity=".5" style="block-progression:tb;text-indent:0;text-transform:none"/>
  <path d="m507.42 410.28c-1.609-0.0216-3.1792 0.43795-4.456 1.3042-18.748 6.4696-113.69 70.882-92.764 64.035 19.163 5.5646 116.1-64.299 97.22-65.339z" opacity=".52" style="block-progression:tb;text-indent:0;text-transform:none"/>
  <path d="m175.11 522.47c-1.609-0.0216-3.1792 0.43795-4.456 1.3042-18.748 6.4696-67.102 2.4246-121.76 31.708 19.163 20.777 145.1-31.972 126.22-33.012z" opacity=".52" style="block-progression:tb;text-indent:0;text-transform:none"/>
 </g>
 <path d="m271.68 597.56c-17.572-3.7954-31.917-14.484-42.081-30.158-13.47-20.774-17.943-52.384-12.81-77.744 1.2152-6.0047 3.4291-10.491 5.6598-15.045 3.0939-6.3166 4.5946-7.5193 21.622-17.33 98.876-56.971 167.85-94.812 185.1-101.55 4.053-1.5827 4.3144-1.6199 9.3211-1.3284 5.8532 0.34075 13.304 2.0223 18.495 4.1738 22.329 9.2558 38.926 33.794 43.651 67.769 0.97944 7.0427 0.8419 27.75-0.23121 33.625-1.1861 6.494-4.1958 13.028-6.0928 16.193-4.4148 4.5526-62.1 38.322-128.77 77.952-41.641 23.431-67.905 49.039-93.861 43.439zm-18.151-87.813c-60.585 482.58-30.292 241.29 0 0z" fill="#4b4659" fill-rule="evenodd"/>
 <path d="m271.68 597.56c-17.572-3.7954-31.917-14.484-42.081-30.158-13.47-20.774-17.943-52.384-12.81-77.744 1.2152-6.0047 3.4291-10.491 5.6598-15.045 3.0939-6.3166 4.5946-7.5193 21.622-17.33 39.246-22.868 70.367-41.141 70.367-41.141 5.8532 0.34075 33.58 4.9082 38.086 8.2644 22.544 16.791 37.204 34.01 41.929 67.984 0.97944 7.0427 2.7795 26.243 1.7064 32.118-1.1861 6.494-5.057 11.521-6.954 14.686-4.4148 4.5526 43.008-24.705-23.663 14.925-42.502 20.417-67.905 49.039-93.861 43.439zm-18.151-87.813c-60.585 482.58-30.292 241.29 0 0z" fill="#ddc253" fill-rule="evenodd"/>
 <path d="m288.01 599.04c-80.605 1.7152-85.985-115.66-59.529-133.94 0 0 192.49-112.03 205.76-111.94 73.527 0.51721 76.683 109.72 58.882 125.53l-205.12 120.35z" fill="none" stroke="#000" stroke-linejoin="round" stroke-width="3"/>
 <path d="m248.77 464.72c-2.2553-0.20083-4.479-0.1463-6.6426 0.16406-8.6542 1.2414-16.293 6.629-21.012 15.945 8.5607-8.9019 10.98-12.294 21.297-13.967 8.0198-1.1504 17.094 1.4872 25.539 8.0684 16.89 13.162 29.194 39.888 26.786 84.955l3.9736 2.3301c2.4328-45.533-11.951-75.163-29.529-88.861-6.5919-5.1369-13.646-8.0323-20.412-8.6348z" fill-rule="evenodd" style="block-progression:tb;text-indent:0;text-transform:none"/>
 <path d="m546.51 450.96c1.9359 8.0178-3.5679 12.648-3.5679 12.648s-2.2043-9.6963-4.5015-13.149c-5.7326-2.0912-5.7618 0.19832-6.0722 1.9171 6.2365 6.0618 4.2299 3.958 6.9911 17.681-23.382 7.595-57.526 29.848-64.312 33.393-4.9997 2.6113-18.137 11.361-35.424 9.9397-8.8675-0.72884-16.584-14.354-23.57-14.782-3.4929-0.21354-6.485-0.36129-8.7559-0.41601-1.1354-0.0274-2.0873-0.033-2.873-6e-3 -0.78578 0.0272-1.0987-0.13631-2.3574 0.36718-1.3102 0.62025 0.68652 5.678 2.5664 5.6289 0.58384-0.0202 1.4522-0.0181 2.5195 8e-3 2.1347 0.0514 5.292-0.7973 8.5352 0.40625 7.3231 2.7176 14.6 14.047 23.445 14.774 17.691 1.4541 30.744-6.6322 36.24-9.8675 22.316-13.136 46.441-26.028 71.16-36.41 9.68 2.2953 15.01-10.176 21.488-14.916s-1.0323-9.041-2.7363-5.3418c-3.098 6.7252-11.423 16.572-18.969 12.779-0.15675-3.0149 8.043-6.2853 5.94-12.931-1.5197-2.8215-2.9501-3.2584-5.7461-1.7227z" fill-rule="evenodd" style="block-progression:tb;text-indent:0;text-transform:none"/>
 <path d="m612.06 377.86c-9.5278-0.92884-28.14 27.76-42.726 27.993-14.303 0.22881-38.212 24.814-47.634 25.683-9.4217 0.86818-21.172-10.744-21.172-10.744l1.0792 14.804s11.955 6.9744 21.109 5.0562c9.1543-1.9181 34.963-27.478 47.569-28.223 12.888-0.76145 36.483-26.78 40.318-27.066 1.797 5.2734 22.831 9.9155 22.831 9.9155s4.7001-0.627 2.7383-5.3398c-4.9268-0.63597-19.948-4.7615-24.113-12.079z" fill-rule="evenodd" style="block-progression:tb;text-indent:0;text-transform:none"/>
 <path d="m543.94 352.48c1.85 8.4534 17.65 18.712 26.979 18.634-12.696 5.9138-42.155 30.467-42.155 30.467-1.0231 0.88537-13.912 13.971-22.739 10.805-8.8264-3.1659-13.59-22.583-13.59-22.583l6.4797 24.257s0.6167 5.2136 8.9991 7.0486 21.082-12.6 23.123-13.56c4.1234-1.9398 34.011-30.863 49.586-37.155-6.1857-5.1858-21.253-6.4897-31.965-18.516-3.4297-3.8415-5.127-2.0129-4.7189 0.60327z" fill-rule="evenodd" style="block-progression:tb;text-indent:0;text-transform:none"/>
 <path d="m495.23 403.6c6.658 40.342-16.007 57.898-28.199 65.33-30.773 18.758-84.834 49.08-109.94 63.275-27.253 15.409-118.36 89.778-142.56-12.348 8.4168 55.865 39.671 74.571 53.457 76.971 29.322 3.6083 52.467-16.436 103.07-45.542 50.602-29.106 115.55-69.445 123.06-73.794 4.5171-7.3377 14.738-33.034 1.1147-73.891z" fill-rule="evenodd" opacity=".38" style="block-progression:tb;text-indent:0;text-transform:none"/>
 <path d="m241.36 604.62c17.71 1.155 24.109-0.61404 34.926-5.9213 9.1846-4.5547 13.468-13.1 15.504-22.015 2.5895-10.961 5.565-28.391 7.494-6.4191 0.89899 7.8782-0.98202 14.545 1.2293 18.005 6.056 8.1298 11.111 3.1062 21.597 3.748 35.744-1.534 54.358 3.5654 56.985 13.045-3.8484-1.2335-35.986-2.3631-51.539-0.97846 20.291-0.14297 66.257-1.8736 71.1 8.2764 4.2916 20.796-42.535 9.9719-48.13 20.234-2.953 5.2267 20.696-2.5889 20.786 4.6326 0.84705 11.177-58.048 5.5479-63.99 12.182-8.2293 2.9608 20.651 11.514-6.9633 13.828s-60.871 7.146-63.355-2.9853c-0.72679-4.925 10.437-9.0519 1.5727-10.93-9.6752-1.6315-19.552 0.54461-29.214-0.50891-4.7557-0.30497-4.0948-5.5902-0.64605-7.3039-9.8428-1.0854-16.879 1.3857-22.874-5.024-5.7795-10.877 8.4797-14.361 16.038-17.27s22.88-3.959 27.523-3.9965c-5.495-2.1002-29.636 6.1641-18.458-2.4877 6.3369-4.6834 13.101-7.9106 30.415-8.1104v-5e-5z" fill="#aad400" fill-rule="evenodd" stroke="#000" stroke-linejoin="round" stroke-width="3"/>
 <path d="m366.74 599.51c-26.335-9.2712-68.934 8.8972-70.92-12.325" fill="none" filter="url(#i)" stroke="#fff" stroke-width="2"/>
 <path d="m251.49 511.43c5.6923-0.91704 26.717 18.276 13.595 41.032 0 0-11.923 5.4044-20.269 5.9324-18.372-12.985-17.432-29.043-11.865-40.044l18.539-6.9211z" fill="none" stroke="#000" stroke-linejoin="round" stroke-width="2"/>
 <path d="m235.53 519.59c6.3554 4.4091 10.08 5.623 13.027 9.6474 2.0319 2.8488 2.6948 5.6961 2.6777 8.6758-0.034 5.9594-3.0898 12.297-5.2612 19.511l3.0786-0.66101c2.7846-7.3948 4.143-12.249 4.1806-18.838 0.0188-3.2947-0.7647-6.6472-3.0488-9.8496s-7.8982-7.6145-14.654-8.4853z" fill-rule="evenodd" style="block-progression:tb;text-indent:0;text-transform:none"/>
 <path d="m356.39 483.71c-14.138 21.496-22.165 46.625-13.567 71.005l3.7715-1.3301c-0.17997-0.51034-0.34557-1.0197-0.51172-1.5293 0.26546-0.15277 0.52294-0.30722 0.85743-0.46875 0.95378-0.46059 2.145-0.95548 3.3594-1.4141 8.4276-2.6668 20.026-6.5973 24.195-11.223s3.0525-7.1169 2.8887-10.359c-0.80371-3.9526-2.9485-8.2338-4.9024-9.5469s-2.7365-0.9515-3.9355-1.0527c-3.9773-0.31216-8.5564 1.1651-13.031 2.9199-4.6658 1.8297-9.1286 4.151-12.33 5.9941-0.0235-13.94 14.434-35.043 13.206-42.995l-1e-5 1e-5zm11.648 38.232c0.93676 0.0158 1.7271 0.14041 2.3203 0.38281 1.769 1.4405 2.834 3.7707 3.0371 6.377 0.20576 2.6406-0.50696 5.4066-1.8184 7.2813-8.3168 7.553-14.028 6.9981-22.691 10.25-1.2925 0.48811-2.5714 1.0147-3.6856 1.5527-0.0958 0.0462-0.17082 0.0912-0.26367 0.13672-1.4271-5.5234-2.0642-11-1.9961-16.42 2.8406-1.7698 8.4301-4.8683 14.035-7.0664 4.1194-1.6155 8.2522-2.5415 11.062-2.4941v-1.4e-4z" fill-rule="evenodd" style="block-progression:tb;text-indent:0;text-transform:none"/>
 <path d="m344.02 547.6c-3.2921-10.196-1.7315-4.5076-1.7896-14.31l-6e-3 -1.9443 0.69364-0.41886c4.1458-2.5035 9.4155-5.1481 13.606-6.8283 3.3352-1.3373 6.5062-2.2435 9.284-2.6532 2.141-0.31578 4.0492-0.29325 5.1731 0.061 0.34166 0.10773 0.41128 0.15741 0.88037 0.62831 2.4022 2.4115 3.2888 6.4287 2.2964 10.405-0.2807 1.1246-0.69579 2.1435-1.265 3.1051-0.228 0.38519-0.35217 0.51467-1.1623 1.212-3.8646 3.3265-7.4434 5.3073-12.299 6.807-0.60159 0.18582-2.2223 0.65359-3.6015 1.0395-2.9248 0.8183-4.1998 1.1994-5.6141 1.6781-1.78 0.60245-3.8806 1.4352-5.3161 2.1074-0.31852 0.14916-0.58418 0.2712-0.59036 0.2712-0.12245-0.46025-0.19658-0.78276-0.28929-1.1604l-3.8e-4 4e-5z" fill="#f00" fill-rule="evenodd"/>
 <path d="m354.07 534.71c-2.0258 0.70796-4.2435 1.2244-6.2266 1.709-1.4421 0.35221-2.8932 0.70249-4.1094 1.0137s-2.0988 0.5307-2.8418 0.83789l1.7916 5.3491c1.6534-1.7886 3.9648-2.7652 6.1088-3.3139 2.2696-0.54997 4.4068-1.2745 6.5156-1.8359s6.6831-3.2221 8.7258-5.997-7.3544 1.5933-9.964 2.2372z" fill-rule="evenodd" style="block-progression:tb;text-indent:0;text-transform:none"/>
 <path d="m308.09 531.35c2.7971-2.8934 4.4381-6.8678 5.1082-10.79-1.2242-5.9158 6.413-12.934 6.9086-15.724" fill="none" stroke="#000" stroke-linecap="round" stroke-width="4"/>
 <path d="m302.17 514.75c3.3851 3.0201 19.104 9.6864 19.705 11.547" fill="none" stroke="#000" stroke-linecap="round" stroke-width="4"/>
 <path d="m313.43 554.81c5.9216 2.777 9.6534 10.066 15.547 11.206l0.42611 0.0442 0.43127 3e-3" fill="none" stroke="#000" stroke-linecap="round" stroke-width="4"/>
 <path d="m317.24 570.26c3.4909-5.8434 5.0837-13.058 6.8666-19.647" fill="none" stroke="#000" stroke-linecap="round" stroke-width="4"/>
 <path d="m221.34 553c-14.685 15.415-42.481 17.83-69.367 24.229-2.7232 0.64824-3.1536 4.3427-0.65235 5.5996l5.2676 2.6426-13.992 6.5293c-5.1342 2.8017 0.71458 6.311 2.5371 5.4375s6.8027-6.3837 19.607-9.1504c2.6614-0.57504 3.933-4.2758 0.0762-5.4004l-3.4043-1.707c24.25-5.6257 48.8-8.755 63.754-21.134l-3.8262-7.0459z" fill-rule="evenodd" style="block-progression:tb;text-indent:0;text-transform:none"/>
 <path d="m127.77 565.77c-1.5401 0.0346-2.8037 1.2298-2.9238 2.7656-0.40075 5.1727 3.7191 8.7882 4.7292 13.245 0.50631 3.9306 0.05838 7.8684-2.7761 10.03-3.1945 2.4846 0.60213 7.2512 3.7383 4.6934 7.4363-6.894 0.18108-20.174 0.68164-24.266 3.6807 0.48162 5.7521 0.38693 8.424 1.2703 5.4807 1.812 6.7893 4.5585 7.9256 7.8137 1.2599 3.8942 7.1005 1.856 5.6641-1.9766-1.7145-4.9118-8.3655-8.1828-12.827-10.183-4.4617-2.0006-6.7726-2.9495-12.335-3.385-0.10006-8e-3 -0.20045-0.0104-0.30078-8e-3v1.8e-4z" fill-rule="evenodd" style="block-progression:tb;text-indent:0;text-transform:none"/>
 <path d="m117.83 576.69c-0.8705-0.0328-1.7123 0.31429-2.3066 0.95117-2.0528 2.2016-4.3942 4.5433-5.541 7.7852-1.1468 3.2418-0.30186 7.4083 2.9844 10.744 2.806 2.9576 7.1894-1.3617 4.2734-4.2109-4.8539-0.1856-2.3974-4.9615-1.8837-6.4139 0.39455-1.1153 0.37735-2.0668 3.2977-2.3634 11.156 4.5741 22.352 4.492 32.934-0.0879 3.779-1.545 1.3302-7.2033-2.3828-5.5059-9.9063 4.2878-16.957 5.813-27.488 0.88543-0.36411-0.16984-3.4857-1.7694-3.8872-1.7838z" fill-rule="evenodd" style="block-progression:tb;text-indent:0;text-transform:none"/>
 <path d="m437.13 357.1c-0.78523 0.0396-11.604 4.5174-12.286 4.908l-178.41 97.908c-5.99 3.183 16.755 8.2687 22.632 4.8811l188.08-100.23c4.7046-2.5196-14.683-7.7362-20.013-7.4689z" fill="#fff" fill-rule="evenodd" filter="url(#g)" opacity=".5" style="block-progression:tb;text-indent:0;text-transform:none"/>
 <path d="m325.54 416.5c-2.3945-0.0817-4.7609-0.0379-7.084 0.12109 26.942 2.3023 41.652 10.462 54.084 24.578 15.177 17.914 27.203 49.003 19.051 96.008l3.4729-0.66251c7.7617-46.295-5.3802-78.204-20.998-96.639-13.666-16.13-31.764-22.834-48.525-23.406z" fill-rule="evenodd" style="block-progression:tb;text-indent:0;text-transform:none"/>
 <path d="m391.54 616.75c-7.9181 8.6519-50.631 6.6112-54.977 14.582-4.5328 2.94 13.432 1.0034 6.3768 5.5946-10.289 0.76434-45.318 3.9826-49.934 9.1358-6.3918 2.2997 24.077 10.282 2.6282 12.08-21.449 1.7974-32.546 3.1394-48.941 1.9676m-1.4573-15.723c-3.0239-6.4111-8.2912-0.81398-29.535-2.0652" fill="none" filter="url(#h)" stroke="#fff" stroke-linecap="round" stroke-linejoin="round" stroke-width="2"/>
 <path transform="matrix(.045333 0 0 .045333 235.84 498.56)" d="m344.53 332.57l-319.14 102.95c-5.99 3.183 276.24 159.62 282.12 156.23l248.69-105.6s-92.969-119.65-178.42-161.4l-33.249 7.8233z" fill="#fff" fill-rule="evenodd" filter="url(#j)" opacity=".5" style="block-progression:tb;text-indent:0;text-transform:none"/>
 <path d="m249.03 551.38c-5.2538 1.2627-8.9894-0.11361-16.841-6.7663 4.767 7.3535 11.123 13.786 12.38 13.887 7.6627-0.12989 13.095-5.197 20.904-5.9245 0.3555-0.83485 4.3063-12.623 3.2342-17.272-1.9041 13.888-14.533 14.839-19.677 16.075z" fill-rule="evenodd" opacity=".38" style="block-progression:tb;text-indent:0;text-transform:none"/>
</svg>
