<?xml version="1.0" encoding="utf-8"?>
<svg xmlns="http://www.w3.org/2000/svg" xmlns:xlink="http://www.w3.org/1999/xlink" version= "1.1" width="1073px" height="767px" viewBox="-177 328 1073 767">
<g id="layer1">
<g style="fill:rgb(0,174,199); fill-opacity:1.0; stroke-linejoin: miter">
<path d="M-177.00099,326.6303C-177.36395,326.6303,-177.71204,326.77448,-177.96869,327.03113C-178.22534,327.28778,-178.36952,327.6359,-178.36952,327.99884L-178.36852,1094.9998C-178.36852,1095.7556,-177.7558,1096.3683,-176.99998,1096.3683L896.0009,1096.3693C896.3639,1096.3693,896.712,1096.225,896.9686,1095.9684C897.2253,1095.7118,897.36945,1095.3636,897.36945,1095.0007L897.36847,327.99985C897.36847,327.24402,896.75574,326.63132,895.99994,326.63132L-177.00099,326.6303 Z"/>
</g>
<g style="fill:rgb(60,70,79); fill-opacity:1.0; stroke-linejoin: miter">
<path d="M370.9249,905.9127L122.330696,997.47766L-105.40975,1096.3691L897.36053,1096.3693L897.36945,982.60095L716.6957,959.75006L370.9249,905.9127 Z"/>
</g>
<g style="fill:rgb(0,0,0); fill-opacity:1.0; stroke-linejoin: miter">
<path d="M187.19196,596.1444L188.19267,583.73676Q192.87961,514.6247,207.98837,483.52252Q225.85855,447.58316,263.33347,436.9606Q308.6483,422.9718,360.62424,445.2322L367.65964,448.7842Q374.50748,452.50162,380.42636,456.73062Q392.3536,465.2636,399.49106,474.94327Q410.21878,490.04355,408.51834,506.6003Q407.73325,520.1766,397.334,544.9921L280.5425,651.2901L187.19196,596.1444"/>
</g>
<g style="fill:rgb(255,255,255); fill-opacity:1.0; stroke-linejoin: miter">
<path d="M360.006,964.1669L357.54053,966.14777Q340.835,978.7122,336.6912,990.74536Q332.47916,1001.204,338.63638,1028.6711L275.88815,1026.9348L181.31114,1013.5133Q162.6621,1014.1789,155.40959,1013.00726Q140.898,1011.1596,129.01482,999.30164Q47.423046,1033.1139,-21.061758,1059.7854Q-15.386273,1020.9249,-3.9691007,1009.11237Q-9.1158285,994.8239,-9.586886,982.028Q-9.744652,965.9961,-2.8558195,937.46246Q-9.923558,897.28,-8.456628,867.44385Q-7.4070506,828.20044,2.3266408,773.30756Q14.001128,714.5727,24.126322,695.2632Q35.38572,671.47327,50.036144,660.91516Q61.677868,648.1906,159.43498,616.4883L182.87212,590.24927L355.1741,661.31396L360.57166,666.5297Q377.95386,682.6044,393.36444,712.138Q402.93707,729.03326,443.46912,823.3143L480.86105,844.9867L436.7938,853.39325L424.03903,862.9292L485.59927,874.6712L489.49203,879.31683L489.39948,897.79565L501.69626,902.41705L500.31882,912.1992L493.92307,914.64215L493.66953,932.9161Q472.04343,931.5646,465.9243,936.3291Q458.22812,940.2214,449.19376,959.29016L434.14853,945.0624Q393.43088,939.2736,376.81644,925.25446Q359.53394,913.2204,332.4575,866.903L314.70428,935.7556L323.0654,955.17255L360.006,964.1669"/>
</g>
<g style="fill:rgb(255,180,160); fill-opacity:1.0; stroke-linejoin: miter">
<path d="M238.93925,702.9334L241.4169,684.0903Q205.88684,646.5388,196.98366,632.72107Q186.49911,618.0187,183.25372,598.52985L185.92735,592.18616L223.18777,603.6246Q213.8598,568.2331,223.03856,561.6579Q233.91913,555.4588,244.35526,563.3874Q248.16855,566.25037,251.84784,574.81964Q255.43408,583.48413,261.25644,606.4996L276.1326,609.3891L279.27798,584.2121L339.47202,533.6636Q382.0115,520.73785,393.1995,529.16315Q397.63187,531.0656,400.5029,540.9762Q402.88187,546.992,400.20602,571.37604Q398.9634,581.9469,393.20242,610.2111Q382.5941,641.1192,378.4606,647.937Q372.15115,662.1069,360.82083,654.06537Q362.13638,662.6333,353.2545,663.8564Q353.4846,669.63544,351.74258,671.6766Q350.33194,673.8691,343.79654,676.55695Q342.25943,690.1158,336.72165,695.16907Q333.0751,698.09564,327.74673,698.4605Q319.92355,698.87854,312.41873,696.5179Q301.85202,694.1104,276.96384,677.79675L261.40482,709.03705L238.93925,702.9334"/>
</g>
<g style="fill:rgb(0,0,0); fill-opacity:1.0; stroke-linejoin: miter">
<path d="M600.1443,844.7061L525.71313,827.33344L400.37845,853.9434L408.34085,951.58563Q419.57657,954.48444,571.6565,1004.5676L600.1443,844.7061"/>
</g>
<g style="fill:rgb(0,0,0); fill-opacity:1.0; stroke-linejoin: miter">
<path d="M491.47635,745.07904L502.14993,775.8608L509.3735,779.74786L508.94247,810.43085L520.60297,821.8197L536.7736,811.4992L537.1408,778.3905L547.02594,778.8359L561.7819,810.99304L575.141,817.47174L560.91534,758.6598L491.47635,745.07904"/>
</g>
<g style="fill:rgb(0,0,0); fill-opacity:1.0; stroke-linejoin: miter">
<path d="M449.99796,701.8715L447.17325,702.4296Q434.46097,704.9884,427.43643,704.3368Q419.00034,703.92065,410.64798,698.91925Q402.2839,694.5604,382.95328,674.2358L380.894,659.05585L345.77945,637.7584L321.124,621.5093Q318.24924,607.53156,322.86514,600.83344Q326.34085,594.8486,345.15274,586.5951L369.5115,603.0804L369.0258,611.84515L380.40207,617.5664L382.02817,623.4407L400.8845,634.8866L409.02432,634.2717Q403.5723,630.2527,376.84116,615.4248Q380.02414,598.15424,383.99423,593.7653Q387.79343,587.8725,401.1879,581.5228L416.59464,592.93036L418.92557,600.7862L430.50858,608.389L429.17862,613.8412L484.9683,647.46466L449.99796,701.8715"/>
</g>
<g style="fill:rgb(220,229,235); fill-opacity:1.0; stroke-linejoin: miter">
<path d="M431.4224,704.02057L456.69754,650.72577L518.86487,643.5125L539.4838,659.60785L578.7751,662.164L588.0731,717.52423L712.1568,738.19806L741.6744,1036.5217L638.3292,1068.5519L510.8793,1031.0419L507.4614,969.1816Q535.2719,966.986,547.4293,958.46576Q562.62726,949.5799,569.19214,921.6015Q579.1528,869.5253,566.2844,800.13025Q561.7098,777.4217,548.9212,767.99005L488.97403,747.4464L479.37375,726.52765L431.4224,704.02057"/>
</g>
<g style="fill:rgb(60,70,79); fill-opacity:1.0; stroke-linejoin: miter">
<path d="M593.3891,712.89606L593.3891,712.89624L593.38916,712.8964L593.3891,712.89606"/>
</g>
<g style="fill:rgb(60,70,79); fill-opacity:1.0; stroke-linejoin: miter">
<path d="M279.25516,570.03894L279.2551,570.0391L279.25504,570.03925L279.25516,570.03894"/>
</g>
<g style="fill:rgb(60,70,79); fill-opacity:1.0; stroke-linejoin: miter">
<path d="M438.1298,755.99335L438.1298,755.9937L438.12985,755.9941L438.1298,755.99335"/>
</g>
<g style="fill:rgb(0,0,0); fill-opacity:1.0; stroke-linejoin: miter">
<path d="M599.9942,976.4936L599.78094,980.6287Q598.2646,993.1253,590.9073,1000.61774Q583.4991,1008.10406,573.46,1006.68915Q563.87897,1004.71136,558.1346,995.1152Q556.294,992.01324,555.1025,988.3553L554.101,984.59467Q553.2757,980.7132,553.2664,976.4936Q553.517,963.5441,560.10956,954.94525Q566.7021,946.3465,576.6303,946.0197Q586.55853,946.3465,593.15106,954.94525Q599.7437,963.5441,599.9942,976.4936"/>
</g>
<g style="fill:rgb(255,180,160); fill-opacity:1.0; stroke-linejoin: miter">
<path d="M337.56528,1026.6189L336.71628,1023.049Q330.55185,999.43896,333.34927,987.509Q335.3325,976.58997,353.18027,963.427L430.70187,968.5725Q455.30777,945.1486,462.10928,940.149Q468.67416,934.5388,474.46738,933.699L485.5787,934.70447Q486.37784,934.8589,493.34628,934.63153Q503.65482,934.12744,525.4282,931.46136Q529.56854,936.99445,524.993,941.251Q521.60333,945.2417,501.53244,956.2031Q505.26157,958.50275,512.6647,958.52356L543.201,957.757Q552.6584,957.94556,554.04297,958.2695Q564.76514,959.48627,566.57684,963.7921Q568.201,970.7267,552.4768,974.9456Q534.5341,979.3237,489.90463,981.49023Q497.90555,984.81476,508.24948,985.779Q516.67426,986.5954,519.3869,986.6907L559.3246,988.652Q568.8622,989.1985,576.11615,990.28235Q588.07733,992.2495,588.5141,996.1614Q589.4089,1001.1456,580.494,1008.461Q575.0319,1012.5873,567.7243,1009.7371Q573.9927,1020.8075,557.15814,1026.9498Q550.4108,1029.2275,538.8257,1029.4263Q525.4384,1029.6919,498.66708,1027.5487Q543.14825,1026.326,554.09235,1030.9161Q560.71265,1034.5167,554.27124,1039.589Q550.3786,1043.1661,535.54205,1045.1022Q529.1487,1046.1151,504.02005,1046.3751Q486.9578,1044.5267,477.8644,1043.2404Q456.83267,1041.101,422.9758,1029.8176L337.56528,1026.6189"/>
</g>
<g style="fill:rgb(60,70,79); fill-opacity:1.0; stroke-linejoin: miter">
<path d="M643.782,844.0688L643.7552,844.46735Q643.5646,845.6719,642.6396,846.39404Q641.7082,847.11566,640.4461,846.9793Q639.2416,846.78864,638.5194,845.86365Q638.28796,845.5647,638.1382,845.2121L638.01227,844.8496Q637.9085,844.47546,637.90735,844.0688Q637.93884,842.82056,638.7677,841.99176Q639.5965,841.1629,640.84467,841.1314Q642.09283,841.1629,642.9217,841.99176Q643.75055,842.82056,643.782,844.0688"/>
</g>
<g style="fill:rgb(60,70,79); fill-opacity:1.0; stroke-linejoin: miter">
<path d="M717.92,829.11475L717.8932,829.51337Q717.8085,830.0487,717.5787,830.4888Q717.2597,831.018,717.1524,831.0953Q716.9831,831.2796,716.7776,831.44006Q716.36365,831.76074,715.88434,831.91205Q715.7747,831.9763,715.1287,832.0436Q714.86456,832.05566,714.5841,832.0253Q713.9358,831.8877,713.83466,831.81665Q713.6027,831.7199,713.3946,831.58685Q712.9784,831.3208,712.6574,830.90967Q711.94073,829.9152,712.0622,828.8426Q712.1156,828.30853,712.3265,827.85736Q712.4319,827.6318,712.5767,827.4269Q712.62683,827.30914,713.09503,826.8634Q713.87317,826.20544,714.98267,826.1774Q715.5374,826.1914,716.00934,826.3629Q716.5811,826.61176,716.6706,826.7088Q716.87555,826.8536,717.0597,827.0378Q717.4857,827.51636,717.5237,827.6369Q717.6488,827.8522,717.73456,828.08813Q717.906,828.56006,717.92,829.11475"/>
</g>
<g style="fill:rgb(60,70,79); fill-opacity:1.0; stroke-linejoin: miter">
<path d="M715.19,861.467L715.1632,861.8656Q715.04266,862.5088,714.8487,862.841Q714.6545,863.17126,714.4806,863.39087Q714.2655,863.62177,714.0476,863.7923Q713.14557,864.4954,711.97797,864.389Q710.78,864.2383,710.0748,863.4375Q709.9282,863.28516,709.77856,863.04Q709.6834,862.93097,709.45593,862.36255Q709.303,861.90515,709.3156,861.43225Q709.35657,860.207,710.1776,859.3976Q711.02924,858.5469,712.2527,858.52966Q712.6929,858.52405,713.27936,858.71515Q713.8065,858.95,713.877,859.01044Q714.134,859.1949,714.3297,859.39Q715.16925,860.2446,715.19,861.467"/>
</g>
<g style="fill:rgb(60,70,79); fill-opacity:1.0; stroke-linejoin: miter">
<path d="M659.29926,874.9832L659.27246,875.38184Q659.18774,875.9172,658.95795,876.35724Q658.8431,876.5773,658.6919,876.77344Q658.2823,877.24316,658.15686,877.30853Q657.74286,877.6292,657.2636,877.7805Q657.154,877.8448,656.50793,877.91205Q656.24384,877.92413,655.9634,877.8938Q655.428,877.809,654.988,877.5792Q654.45874,877.26025,654.3815,877.15295Q654.19714,876.98364,654.0367,876.7781Q653.31995,875.78357,653.44147,874.71106Q653.4948,874.17694,653.7057,873.72577Q653.8111,873.5002,653.95593,873.2953Q654.00604,873.1776,654.4743,872.7319Q655.25244,872.0739,656.36194,872.0459Q656.9167,872.0599,657.38855,872.2314Q657.5195,872.2497,658.04987,872.5773Q658.25476,872.72205,658.43896,872.90625Q658.8073,873.2746,659.0182,873.72577Q659.2473,874.3079,659.2459,874.44916Q659.29224,874.7059,659.29926,874.9832"/>
</g>
<g style="fill:rgb(60,70,79); fill-opacity:1.0; stroke-linejoin: miter">
<path d="M717.958,933.37164L717.9312,933.7702Q717.77527,934.51984,717.6167,934.7456Q717.4635,935.0141,717.2486,935.2955Q717.0816,935.4814,716.8156,935.69696Q716.6152,935.8532,716.40155,935.9695Q716.303,936.0526,715.7314,936.22833Q715.2649,936.34094,714.746,936.29364Q714.10175,936.1818,714.0021,936.121Q713.7724,936.0393,713.567,935.92554Q713.17255,935.7156,712.81024,935.3071Q712.4784,934.9598,712.22394,934.26715Q712.0564,933.7063,712.0836,933.33685Q712.0927,933.0646,712.1403,932.81287Q712.1401,932.67413,712.3699,932.1038Q712.5807,931.662,712.9456,931.30225Q713.3241,930.92413,713.77606,930.7107Q714.002,930.60394,714.24634,930.5384Q714.35706,930.47986,715.0207,930.43427Q715.5758,930.45056,716.04736,930.61975Q716.5159,930.82855,716.6237,930.89954Q716.86194,931.0652,717.0977,931.2947Q717.2843,931.48456,717.4304,931.6926Q717.7604,932.2287,717.77783,932.3577Q717.9488,932.82837,717.958,933.37164"/>
</g>
<g style="fill:rgb(60,70,79); fill-opacity:1.0; stroke-linejoin: miter">
<path d="M665.66144,951.3856L665.63464,951.78424Q665.47656,952.8935,664.5888,953.66187Q664.2066,953.9883,663.5506,954.2116Q662.7403,954.36926,662.4494,954.3076Q661.8372,954.23975,661.35016,953.98157Q660.74255,953.63196,660.5462,953.356Q660.3996,953.2036,660.24994,952.9585Q659.9397,952.3978,659.92737,952.281Q659.77435,951.8236,659.787,951.35077Q659.82794,950.1253,660.649,949.31616Q661.5007,948.46545,662.7241,948.4483Q663.35345,948.47217,663.8286,948.6572Q664.50916,948.9764,664.80115,949.30865Q665.23285,949.7685,665.3804,950.1281Q665.5261,950.48694,665.59735,950.767Q665.6536,951.0914,665.66144,951.3856"/>
</g>
<g style="fill:rgb(99,112,121); fill-opacity:1.0; stroke-linejoin: miter">
<path d="M694.9908,985.4249L694.9908,985.425L717.3656,978.2648Q718.18256,996.3048,718.99945,1014.3448Q708.05896,1017.91345,697.1184,1021.48206L694.9908,985.4249"/>
</g>
<g style="fill:rgb(99,112,121); fill-opacity:1.0; stroke-linejoin: miter">
<path d="M660.1966,1003.94763L660.1966,1003.94763L673.7735,1001.97974Q673.4458,1012.6153,673.11804,1023.2508Q666.5169,1025.4998,659.9157,1027.7485L660.1966,1003.94763"/>
</g>
<g style="fill:rgb(99,112,121); fill-opacity:1.0; stroke-linejoin: miter">
<path d="M638.96576,763.6075L702.1311,752.31934L708.1469,817.2264L642.72546,832.6534L638.96576,763.6075"/>
</g>
<g style="fill:rgb(255,255,255); fill-opacity:1.0; stroke-linejoin: miter">
<path d="M555.2754,846.7943L555.1384,849.22644Q553.2821,856.70593,541.50104,862.15015Q529.6354,867.5984,512.95215,868.27124Q496.99753,868.54913,486.99258,863.83374Q476.99185,859.0791,478.10306,851.31683Q479.9592,843.8373,491.74033,838.39307Q503.60605,832.94476,520.28925,832.2721Q536.24396,831.99414,546.2489,836.70966Q549.456,838.23627,551.6183,840.1822L553.47156,842.21606Q555.03973,844.3463,555.2754,846.7943"/>
</g>
</g>
</svg>